<?xml version="1.0" standalone="no"?>
<!DOCTYPE svg PUBLIC "-//W3C//DTD SVG 20010904//EN"
 "http://www.w3.org/TR/2001/REC-SVG-20010904/DTD/svg10.dtd">
<svg version="1.0" xmlns="http://www.w3.org/2000/svg"
 width="512.000000pt" height="512.000000pt" viewBox="0 0 512.000000 512.000000"
 preserveAspectRatio="xMidYMid meet">
<metadata>
Created by potrace 1.11, written by Peter Selinger 2001-2013
</metadata>
<g transform="translate(0.000000,512.000000) scale(0.100000,-0.100000)"
fill="#000000" stroke="none">
<path d="M125 5101 c-49 -23 -89 -64 -109 -113 -14 -33 -16 -290 -16 -2433 0
-2143 2 -2400 16 -2433 18 -43 58 -88 96 -108 23 -12 384 -14 2453 -14 1774 0
2432 3 2448 11 32 17 77 60 93 91 21 41 21 4865 0 4906 -20 38 -65 78 -108 96
-33 14 -290 16 -2435 16 -2313 0 -2399 -1 -2438 -19z m2675 -526 c781 -94
1435 -619 1688 -1356 250 -728 72 -1526 -462 -2078 -334 -343 -749 -549 -1226
-606 -940 -114 -1849 457 -2158 1356 -250 728 -72 1526 462 2078 120 123 214
200 356 293 391 256 876 369 1340 313z"/>
<path d="M1710 3370 c0 -146 -6 -136 85 -142 l40 -3 5 -520 c6 -495 7 -524 28
-600 54 -199 160 -339 313 -414 119 -58 182 -72 344 -78 217 -8 361 26 496
118 78 53 132 118 185 224 81 162 85 203 93 775 l6 495 55 5 55 5 3 133 3 132
-301 0 -300 0 0 -130 c0 -146 -6 -136 85 -142 l40 -3 0 -500 c0 -453 -2 -506
-18 -564 -35 -122 -80 -181 -172 -223 -45 -21 -65 -23 -190 -23 -126 0 -145 2
-193 24 -107 48 -161 148 -182 333 -7 56 -10 265 -8 523 l3 430 40 3 c91 6 85
-4 85 142 l0 130 -300 0 -300 0 0 -130z"/>
</g>
</svg>
