<svg xmlns="http://www.w3.org/2000/svg" width="225" height="176" viewBox="0 0 225 176">
  <path fill="#333" d="M17.678 110.24c-.904 0-1.676.33-2.316.994-.64.663-.96 1.46-.96 2.385 0 .926.32 1.715.96 2.367.64.652 1.413.978 2.316.978.904 0 1.676-.326 2.316-.978.64-.652.96-1.44.96-2.368 0-.927-.32-1.723-.96-2.386-.64-.663-1.412-.995-2.316-.995zm1.888 5.3c-.515.54-1.138.808-1.87.808-.732 0-1.36-.27-1.888-.807-.526-.537-.79-1.183-.79-1.938 0-.755.264-1.4.79-1.94.526-.537 1.155-.806 1.888-.806.732 0 1.355.27 1.87.807.515.538.772 1.184.772 1.94 0 .754-.258 1.4-.772 1.938zm10.072-4.27c-.64-.664-1.413-.996-2.316-.996-.904 0-1.676.332-2.316.995-.64.663-.96 1.458-.96 2.384 0 .927.32 1.716.96 2.368.64.652 1.413.978 2.316.978.904 0 1.676-.326 2.316-.978.64-.652.96-1.44.96-2.368 0-.927-.32-1.722-.96-2.385zm-.446 4.306c-.526.538-1.155.807-1.888.807-.732 0-1.356-.27-1.87-.807-.515-.538-.772-1.184-.772-1.94 0-.754.257-1.4.772-1.938s1.138-.806 1.87-.806c.732 0 1.36.27 1.888.806.526.538.79 1.184.79 1.94 0 .754-.264 1.4-.79 1.938zm-5.148-10.107c.343 0 .635-.127.875-.38.24-.25.36-.548.36-.89 0-.344-.12-.642-.36-.893-.24-.252-.533-.378-.876-.378-.343 0-.635.125-.875.377s-.36.55-.36.892c0 .342.12.64.36.89.24.253.53.38.874.38zm2.334 3.088c.206 0 .355-.086.446-.257.09-.17.09-.342 0-.514-.092-.172-.24-.257-.446-.257h-1.99l-1.304-2.163-.103-.137c-.045-.07-.136-.143-.273-.223-.137-.08-.286-.12-.446-.12h-.136c-.07-.023-.172-.006-.31.05-.136.058-.25.144-.342.258l-2.608 2.677c-.16.183-.24.412-.24.686 0 .412.172.72.515.927l2.676 1.51v2.848c0 .206.063.378.19.515.125.137.29.206.497.206.206 0 .372-.07.497-.206.126-.137.19-.31.19-.515v-3.535l.033-.172c0-.09-.046-.212-.137-.36-.09-.15-.23-.27-.412-.36l-1.544-.824 1.682-1.647.79 1.27c.136.23.308.343.514.343h2.262zm0 0M15.07 69.107c-.446.085-.738.516-.652.962.075.392.42.665.806.665.05 0 .104-.005.155-.015l3.38-.65c.194-.037.367-.14.49-.294l1.452-1.83-.485-.25c-.36-.18-.608-.508-.693-.906l-1.37 1.727-3.084.59zm13.846-8.94c0 .994-.806 1.8-1.8 1.8s-1.8-.806-1.8-1.8.806-1.8 1.8-1.8 1.8.806 1.8 1.8zm-5.73-.45c-.19-.196-.365-.273-.558-.273-.07 0-.14.01-.215.027l-3.09.734c-.427.1-.69.53-.59.955.088.365.413.61.773.61.06 0 .123-.007.184-.022l2.632-.623c.17.19 1.027 1.117 1.182 1.28L20.24 65.9l-.048.055c-.318.405-.22 1.04.258 1.28l.58.296 2.756 1.408-1.732 2.806c-.237.386-.118.892.268 1.13.135.087.284.126.43.126.276 0 .546-.138.7-.39l2.2-3.564c.122-.196.155-.434.092-.654-.063-.222-.215-.407-.422-.51l-2.26-1.15 2.376-2.543 1.793 1.52c.15.125.332.187.513.187.195 0 .39-.072.54-.212l2.06-1.918c.32-.3.34-.8.04-1.122-.157-.167-.37-.253-.58-.253-.194 0-.39.07-.54.212l-1.542 1.433c.002.003-3.858-3.63-4.533-4.32zm0 0"/>
  <path fill-rule="evenodd" clip-rule="evenodd" fill="#333" d="M27.515 22.154c.167-.334.066-.748-.253-.96-1.462-.972-2.016-1.67-2.657-2.478-.287-.362-.584-.736-.978-1.163-.036-.04-.076-.074-.117-.103-.152-.14-.32-.26-.495-.345 0 0-.187-.103-.4-.143-.204-.04-.44-.04-.44-.04h-.006c-.024 0-.047.005-.07.006h-.05c-.03.003-.057.01-.085.013l-.088.014c-1.466.23-3.01 1.373-4.71 3.494-.26.324-.208.797.116 1.057.14.11.305.165.47.165.22 0 .438-.096.587-.28.73-.912 1.37-1.55 1.925-1.998l-.617 2.88c-.09.415.027.797.257 1.108l-.194 2.966-1.235 3.195c-.19.494.055 1.048.547 1.24.114.043.23.064.345.064.383 0 .746-.232.893-.612l1.29-3.332c.034-.09.055-.186.06-.282l.114-1.726 1.137 1.796.943 3.446c.114.427.5.71.924.71.082 0 .164-.01.247-.033.51-.135.814-.66.678-1.17l-.98-3.587c-.024-.094-.063-.183-.115-.265l-1.55-2.45c.05-.098.09-.202.117-.32l.634-2.958c.593.727 1.276 1.457 2.676 2.386.128.085.272.126.415.126.144 0 .286-.047.41-.128m-1.845-7.35c0 1.07-.867 1.937-1.936 1.937-1.07 0-1.937-.866-1.937-1.935 0-1.07.867-1.936 1.936-1.936 1.068-.002 1.935.865 1.935 1.935zm0 0"/>
  <path fill="#333" d="M43.9 152.554L30.808 139.46c-.8-.8-2.095-.8-2.893 0-.8.8-.8 2.094 0 2.893l9.6 9.6H2.546C1.416 151.954.5 152.87.5 154c0 1.13.916 2.046 2.046 2.046h34.97l-9.6 9.6c-.8.8-.8 2.095 0 2.894.4.4.922.6 1.445.6.525 0 1.05-.2 1.448-.6l13.094-13.094c.798-.8.798-2.093 0-2.892zm0 0"/>
  <path fill="#FFF" d="M62.678 110.24c-.904 0-1.676.33-2.316.994-.64.663-.96 1.46-.96 2.385 0 .926.32 1.715.96 2.367.64.652 1.413.978 2.316.978.904 0 1.676-.326 2.316-.978.64-.652.96-1.44.96-2.368 0-.927-.32-1.723-.96-2.386-.64-.663-1.412-.995-2.316-.995zm1.888 5.3c-.515.54-1.138.808-1.87.808-.732 0-1.36-.27-1.888-.807-.526-.537-.79-1.183-.79-1.938 0-.755.264-1.4.79-1.94.526-.537 1.155-.806 1.888-.806.732 0 1.355.27 1.87.807.515.538.772 1.184.772 1.94 0 .754-.258 1.4-.772 1.938zm10.072-4.27c-.64-.664-1.413-.996-2.316-.996-.904 0-1.676.332-2.316.995-.64.663-.96 1.458-.96 2.384 0 .927.32 1.716.96 2.368.64.652 1.413.978 2.316.978.904 0 1.676-.326 2.316-.978.64-.652.96-1.44.96-2.368 0-.927-.32-1.722-.96-2.385zm-.446 4.306c-.526.538-1.155.807-1.888.807-.732 0-1.356-.27-1.87-.807-.515-.538-.772-1.184-.772-1.94 0-.754.257-1.4.772-1.938s1.138-.806 1.87-.806c.732 0 1.36.27 1.888.806.526.538.79 1.184.79 1.94 0 .754-.264 1.4-.79 1.938zm-5.148-10.107c.343 0 .635-.127.875-.38.24-.25.36-.548.36-.89 0-.344-.12-.642-.36-.893-.24-.252-.533-.378-.876-.378-.343 0-.635.125-.875.377s-.36.55-.36.892c0 .342.12.64.36.89.24.253.53.38.874.38zm2.334 3.088c.206 0 .355-.086.446-.257.09-.17.09-.342 0-.514-.092-.172-.24-.257-.446-.257h-1.99l-1.304-2.163-.103-.137c-.045-.07-.136-.143-.273-.223-.137-.08-.286-.12-.446-.12h-.136c-.07-.023-.172-.006-.31.05-.136.058-.25.144-.342.258l-2.608 2.677c-.16.183-.24.412-.24.686 0 .412.172.72.515.927l2.676 1.51v2.848c0 .206.063.378.19.515.125.137.29.206.497.206s.372-.07.497-.206c.126-.137.19-.31.19-.515v-3.535l.033-.172c0-.09-.046-.212-.137-.36-.09-.15-.23-.27-.412-.36l-1.544-.824 1.682-1.647.79 1.27c.136.23.308.343.514.343h2.262zm0 0M60.07 69.107c-.446.085-.738.516-.652.962.075.392.42.665.806.665.05 0 .104-.005.155-.015l3.38-.65c.194-.037.367-.14.49-.294l1.452-1.83-.485-.25c-.36-.18-.608-.508-.693-.906l-1.37 1.727-3.084.59zm13.846-8.94c0 .994-.806 1.8-1.8 1.8s-1.8-.806-1.8-1.8.806-1.8 1.8-1.8 1.8.806 1.8 1.8zm-5.73-.45c-.19-.196-.365-.273-.558-.273-.07 0-.14.01-.215.027l-3.09.734c-.427.1-.69.53-.59.955.088.365.413.61.773.61.06 0 .123-.007.184-.022l2.632-.623c.17.19 1.027 1.117 1.182 1.28L65.24 65.9l-.048.055c-.318.405-.22 1.04.258 1.28l.58.296 2.756 1.408-1.732 2.806c-.237.386-.118.892.268 1.13.135.087.284.126.43.126.276 0 .546-.138.7-.39l2.2-3.564c.122-.196.155-.434.092-.654-.063-.222-.215-.407-.422-.51l-2.26-1.15 2.376-2.543 1.793 1.52c.15.125.332.187.513.187.195 0 .39-.072.54-.212l2.06-1.918c.32-.3.34-.8.04-1.122-.157-.167-.37-.253-.58-.253-.194 0-.39.07-.54.212l-1.542 1.433c.002.003-3.858-3.63-4.533-4.32zm0 0"/>
  <path fill-rule="evenodd" clip-rule="evenodd" fill="#FFF" d="M72.718 22.154c.167-.334.066-.748-.253-.96-1.462-.972-2.016-1.67-2.657-2.478-.287-.362-.584-.736-.978-1.163-.036-.04-.076-.074-.117-.103-.152-.14-.32-.26-.495-.345 0 0-.187-.103-.4-.143-.204-.04-.44-.04-.44-.04h-.006c-.023 0-.046.005-.07.006h-.05c-.028.003-.056.01-.084.013l-.088.014c-1.466.23-3.01 1.373-4.71 3.494-.26.324-.208.797.116 1.057.14.11.305.165.47.165.22 0 .438-.096.587-.28.73-.912 1.37-1.55 1.925-1.998l-.617 2.88c-.088.415.028.797.258 1.108l-.194 2.966-1.236 3.195c-.19.494.055 1.048.547 1.24.114.043.23.064.345.064.383 0 .746-.232.893-.612l1.29-3.332c.034-.09.055-.186.06-.282l.114-1.726 1.137 1.796.942 3.446c.114.427.5.71.924.71.082 0 .164-.01.247-.033.51-.135.814-.66.678-1.17l-.98-3.587c-.024-.094-.063-.183-.115-.265l-1.55-2.45c.05-.098.09-.202.117-.32l.634-2.958c.594.727 1.277 1.457 2.677 2.386.128.085.272.126.415.126.145 0 .287-.047.41-.128m-1.844-7.35c0 1.07-.867 1.937-1.936 1.937-1.07 0-1.936-.866-1.936-1.935 0-1.07.867-1.936 1.936-1.936 1.07-.002 1.936.865 1.936 1.935zm0 0"/>
  <path fill="#FFF" d="M88.9 152.554L75.808 139.46c-.8-.8-2.095-.8-2.893 0-.8.8-.8 2.094 0 2.893l9.6 9.6H47.546c-1.13 0-2.046.917-2.046 2.047 0 1.13.916 2.046 2.046 2.046h34.97l-9.6 9.6c-.8.8-.8 2.095 0 2.894.4.4.922.6 1.445.6.525 0 1.05-.2 1.448-.6l13.094-13.094c.798-.8.798-2.093 0-2.892zm0 0"/>
  <path fill="#90489A" d="M107.678 110.24c-.904 0-1.676.33-2.316.994-.64.663-.96 1.46-.96 2.385 0 .926.32 1.715.96 2.367.64.652 1.413.978 2.316.978.904 0 1.676-.326 2.316-.978.64-.652.96-1.44.96-2.368 0-.927-.32-1.723-.96-2.386-.64-.663-1.412-.995-2.316-.995zm1.888 5.3c-.515.54-1.138.808-1.87.808-.732 0-1.36-.27-1.888-.807-.526-.537-.79-1.183-.79-1.938 0-.755.264-1.4.79-1.94.526-.537 1.155-.806 1.888-.806.732 0 1.355.27 1.87.807.515.538.772 1.184.772 1.94 0 .754-.258 1.4-.772 1.938zm10.072-4.27c-.64-.664-1.413-.996-2.316-.996-.904 0-1.676.332-2.316.995-.64.663-.96 1.458-.96 2.384 0 .927.32 1.716.96 2.368.64.652 1.413.978 2.316.978.904 0 1.676-.326 2.316-.978.64-.652.96-1.44.96-2.368 0-.927-.32-1.722-.96-2.385zm-.446 4.306c-.526.538-1.155.807-1.888.807-.732 0-1.356-.27-1.87-.807-.515-.538-.772-1.184-.772-1.94 0-.754.257-1.4.772-1.938s1.138-.806 1.87-.806c.732 0 1.36.27 1.888.806.526.538.79 1.184.79 1.94 0 .754-.264 1.4-.79 1.938zm-5.148-10.107c.343 0 .635-.127.875-.38.24-.25.36-.548.36-.89 0-.344-.12-.642-.36-.893-.24-.252-.533-.378-.876-.378-.343 0-.635.125-.875.377s-.36.55-.36.892c0 .342.12.64.36.89.24.253.53.38.874.38zm2.334 3.088c.206 0 .355-.086.446-.257.09-.17.09-.342 0-.514-.092-.172-.24-.257-.446-.257h-1.99l-1.304-2.163-.103-.137c-.045-.07-.136-.143-.273-.223-.137-.08-.286-.12-.446-.12h-.136c-.07-.023-.172-.006-.31.05-.136.058-.25.144-.342.258l-2.608 2.677c-.16.183-.24.412-.24.686 0 .412.172.72.515.927l2.676 1.51v2.848c0 .206.063.378.19.515.125.137.29.206.497.206s.372-.07.497-.206c.126-.137.19-.31.19-.515v-3.535l.033-.172c0-.09-.046-.212-.137-.36-.09-.15-.23-.27-.412-.36l-1.544-.824 1.682-1.647.79 1.27c.136.23.308.343.514.343h2.262zm0 0M105.07 69.107c-.446.085-.738.516-.652.962.075.392.42.665.806.665.05 0 .104-.005.155-.015l3.38-.65c.194-.037.367-.14.49-.294l1.452-1.83-.485-.25c-.36-.18-.608-.508-.693-.906l-1.37 1.727-3.084.59zm13.846-8.94c0 .994-.806 1.8-1.8 1.8s-1.8-.806-1.8-1.8.806-1.8 1.8-1.8 1.8.806 1.8 1.8zm-5.73-.45c-.19-.196-.365-.273-.558-.273-.07 0-.14.01-.215.027l-3.09.734c-.427.1-.69.53-.59.955.088.365.413.61.773.61.06 0 .123-.007.184-.022l2.632-.623c.17.19 1.027 1.117 1.182 1.28L110.24 65.9l-.048.055c-.318.405-.22 1.04.258 1.28l.58.296 2.756 1.408-1.732 2.806c-.237.386-.118.892.268 1.13.135.085.284.124.43.124.275 0 .545-.138.7-.39l2.2-3.564c.12-.196.154-.434.09-.654-.062-.222-.214-.407-.42-.51l-2.26-1.15 2.375-2.543 1.793 1.52c.15.126.33.188.512.188.195 0 .39-.072.54-.212l2.06-1.918c.32-.3.34-.8.04-1.122-.157-.167-.37-.253-.58-.253-.194 0-.39.07-.54.212l-1.542 1.433c.002.005-3.858-3.627-4.533-4.32zm0 0"/>
  <path fill-rule="evenodd" clip-rule="evenodd" fill="#90489A" d="M117.718 22.154c.167-.334.066-.748-.253-.96-1.462-.972-2.016-1.67-2.657-2.478-.287-.362-.584-.736-.978-1.163-.036-.04-.076-.074-.117-.103-.152-.14-.32-.26-.495-.345 0 0-.187-.103-.4-.143-.204-.04-.44-.04-.44-.04h-.006c-.023 0-.046.005-.07.006h-.05c-.028.003-.056.01-.084.013l-.088.014c-1.466.23-3.01 1.373-4.71 3.494-.26.324-.208.797.116 1.057.14.11.305.165.47.165.22 0 .438-.096.587-.28.73-.912 1.37-1.55 1.925-1.998l-.617 2.88c-.088.415.028.797.258 1.108l-.194 2.966-1.236 3.195c-.19.494.055 1.048.547 1.24.114.043.23.064.345.064.383 0 .746-.232.893-.612l1.29-3.332c.034-.09.055-.186.06-.282l.114-1.726 1.137 1.796.942 3.446c.114.427.5.71.924.71.082 0 .164-.01.247-.033.51-.135.814-.66.678-1.17l-.98-3.587c-.024-.094-.063-.183-.115-.265l-1.55-2.45c.05-.098.09-.202.117-.32l.634-2.958c.594.727 1.277 1.457 2.677 2.386.128.085.272.126.415.126.145 0 .287-.047.41-.128m-1.844-7.35c0 1.07-.867 1.937-1.936 1.937-1.07 0-1.936-.866-1.936-1.935 0-1.07.867-1.936 1.936-1.936 1.07-.002 1.936.865 1.936 1.935zm0 0"/>
  <path fill="#90489A" d="M133.9 152.554l-13.093-13.094c-.8-.8-2.095-.8-2.893 0-.8.8-.8 2.094 0 2.893l9.6 9.6H92.546c-1.13 0-2.046.917-2.046 2.047 0 1.13.916 2.046 2.046 2.046h34.97l-9.6 9.6c-.8.8-.8 2.095 0 2.894.4.4.922.6 1.445.6.525 0 1.05-.2 1.448-.6l13.094-13.094c.798-.8.798-2.093 0-2.892zm0 0"/>
  <path fill="#80ACD6" d="M150.07 69.107c-.446.085-.738.516-.652.962.075.392.42.665.806.665.05 0 .104-.005.155-.015l3.38-.65c.194-.037.367-.14.49-.294l1.452-1.83-.485-.25c-.36-.18-.608-.508-.693-.906l-1.37 1.727-3.084.59zm13.846-8.94c0 .994-.806 1.8-1.8 1.8s-1.8-.806-1.8-1.8.806-1.8 1.8-1.8 1.8.806 1.8 1.8zm-5.73-.45c-.19-.196-.365-.273-.558-.273-.07 0-.14.01-.215.027l-3.09.734c-.427.1-.69.53-.59.955.088.365.413.61.773.61.06 0 .123-.007.184-.022l2.632-.623c.17.19 1.027 1.117 1.182 1.28L155.24 65.9l-.048.055c-.318.405-.22 1.04.258 1.28l.58.296 2.756 1.408-1.732 2.806c-.237.386-.118.892.268 1.13.135.085.284.124.43.124.275 0 .545-.138.7-.39l2.2-3.564c.12-.196.154-.434.09-.654-.062-.222-.214-.407-.42-.51l-2.26-1.15 2.375-2.543 1.793 1.52c.15.126.33.188.512.188.195 0 .39-.072.54-.212l2.06-1.918c.32-.3.34-.8.04-1.122-.157-.167-.37-.253-.58-.253-.194 0-.39.07-.54.212l-1.542 1.433c.002.005-3.858-3.627-4.533-4.32zm0 0M152.678 110.24c-.904 0-1.676.33-2.316.994-.64.663-.96 1.46-.96 2.385 0 .926.32 1.715.96 2.367.64.652 1.413.978 2.316.978.904 0 1.676-.326 2.316-.978.64-.652.96-1.44.96-2.368 0-.927-.32-1.723-.96-2.386-.64-.663-1.412-.995-2.316-.995zm1.888 5.3c-.515.54-1.138.808-1.87.808-.732 0-1.36-.27-1.888-.807-.526-.537-.79-1.183-.79-1.938 0-.755.264-1.4.79-1.94.526-.537 1.155-.806 1.888-.806.732 0 1.355.27 1.87.807.515.538.772 1.184.772 1.94 0 .754-.258 1.4-.772 1.938zm10.072-4.27c-.64-.664-1.413-.996-2.316-.996-.904 0-1.676.332-2.316.995-.64.663-.96 1.458-.96 2.384 0 .927.32 1.716.96 2.368.64.652 1.413.978 2.316.978.904 0 1.676-.326 2.316-.978.64-.652.96-1.44.96-2.368 0-.927-.32-1.722-.96-2.385zm-.446 4.306c-.526.538-1.155.807-1.887.807s-1.356-.27-1.87-.807c-.515-.538-.772-1.184-.772-1.94 0-.754.257-1.4.772-1.938s1.138-.806 1.87-.806c.732 0 1.36.27 1.887.806.526.538.79 1.184.79 1.94 0 .754-.264 1.4-.79 1.938zm-5.148-10.107c.343 0 .635-.127.875-.38.24-.25.36-.548.36-.89 0-.344-.12-.642-.36-.893-.24-.252-.533-.378-.876-.378-.343 0-.635.125-.875.377s-.36.55-.36.892c0 .342.12.64.36.89.24.253.53.38.874.38zm2.334 3.088c.206 0 .355-.086.446-.257.09-.17.09-.342 0-.514-.092-.172-.24-.257-.446-.257h-1.99l-1.304-2.163-.103-.137c-.045-.07-.136-.143-.273-.223-.137-.08-.286-.12-.446-.12h-.136c-.07-.023-.172-.006-.31.05-.136.058-.25.144-.342.258l-2.608 2.677c-.16.183-.24.412-.24.686 0 .412.172.72.515.927l2.676 1.51v2.848c0 .206.063.378.19.515.125.137.29.206.497.206s.372-.07.497-.206c.126-.137.19-.31.19-.515v-3.535l.033-.172c0-.09-.046-.212-.137-.36-.09-.15-.23-.27-.412-.36l-1.544-.824 1.682-1.647.79 1.27c.136.23.308.343.514.343h2.262zm0 0"/>
  <path fill-rule="evenodd" clip-rule="evenodd" fill="#80ACD6" d="M162.718 22.154c.167-.334.066-.748-.253-.96-1.462-.972-2.016-1.67-2.657-2.478-.287-.362-.584-.736-.978-1.163-.036-.04-.076-.074-.117-.103-.152-.14-.32-.26-.495-.345 0 0-.187-.103-.4-.143-.204-.04-.44-.04-.44-.04h-.006c-.023 0-.046.005-.07.006h-.05c-.028.003-.056.01-.084.013l-.088.014c-1.466.23-3.01 1.373-4.71 3.494-.26.324-.208.797.116 1.057.14.11.305.165.47.165.22 0 .438-.096.587-.28.73-.912 1.37-1.55 1.925-1.998l-.617 2.88c-.088.415.028.797.258 1.108l-.194 2.966-1.236 3.195c-.19.494.055 1.048.547 1.24.114.043.23.064.345.064.383 0 .746-.232.893-.612l1.29-3.332c.034-.09.055-.186.06-.282l.114-1.726 1.137 1.796.942 3.446c.114.427.5.71.924.71.082 0 .164-.01.247-.033.51-.135.814-.66.678-1.17l-.98-3.587c-.024-.094-.063-.183-.115-.265l-1.55-2.45c.05-.098.09-.202.117-.32l.634-2.958c.594.727 1.277 1.457 2.677 2.386.128.085.272.126.415.126.145 0 .287-.047.41-.128m-1.844-7.35c0 1.07-.867 1.937-1.936 1.937-1.07 0-1.936-.866-1.936-1.935 0-1.07.867-1.936 1.936-1.936 1.07-.002 1.936.865 1.936 1.935zm0 0"/>
  <path fill="#80ACD6" d="M178.9 152.554l-13.093-13.094c-.8-.8-2.095-.8-2.893 0-.8.8-.8 2.094 0 2.893l9.6 9.6h-34.97c-1.13 0-2.045.917-2.045 2.047 0 1.13.915 2.046 2.045 2.046h34.97l-9.6 9.6c-.8.8-.8 2.095 0 2.894.4.4.922.6 1.445.6.524 0 1.048-.2 1.447-.6l13.094-13.094c.8-.8.8-2.093 0-2.892zm0 0"/>
  <path fill="#EB4182" d="M197.678 110.24c-.904 0-1.676.33-2.316.994-.64.663-.96 1.46-.96 2.385 0 .926.32 1.715.96 2.367.64.652 1.413.978 2.316.978.904 0 1.676-.326 2.316-.978.64-.652.96-1.44.96-2.368 0-.927-.32-1.723-.96-2.386-.64-.663-1.412-.995-2.316-.995zm1.888 5.3c-.515.54-1.138.808-1.87.808-.732 0-1.36-.27-1.888-.807-.526-.537-.79-1.183-.79-1.938 0-.755.264-1.4.79-1.94.526-.537 1.155-.806 1.888-.806.732 0 1.355.27 1.87.807.515.538.772 1.184.772 1.94 0 .754-.258 1.4-.772 1.938zm10.072-4.27c-.64-.664-1.413-.996-2.316-.996-.904 0-1.676.332-2.316.995-.64.663-.96 1.458-.96 2.384 0 .927.32 1.716.96 2.368.64.652 1.413.978 2.316.978.904 0 1.676-.326 2.316-.978.64-.652.96-1.44.96-2.368 0-.927-.32-1.722-.96-2.385zm-.446 4.306c-.526.538-1.155.807-1.887.807s-1.356-.27-1.87-.807c-.515-.538-.772-1.184-.772-1.94 0-.754.257-1.4.772-1.938s1.138-.806 1.87-.806c.732 0 1.36.27 1.887.806.526.538.79 1.184.79 1.94 0 .754-.264 1.4-.79 1.938zm-5.148-10.107c.343 0 .635-.127.875-.38.24-.25.36-.548.36-.89 0-.344-.12-.642-.36-.893-.24-.252-.533-.378-.876-.378-.343 0-.635.125-.875.377s-.36.55-.36.892c0 .342.12.64.36.89.24.253.53.38.874.38zm2.334 3.088c.206 0 .355-.086.446-.257.09-.17.09-.342 0-.514-.092-.172-.24-.257-.446-.257h-1.99l-1.304-2.163-.103-.137c-.045-.07-.136-.143-.273-.223-.137-.08-.286-.12-.446-.12h-.136c-.07-.023-.172-.006-.31.05-.136.058-.25.144-.342.258l-2.608 2.677c-.16.183-.24.412-.24.686 0 .412.172.72.515.927l2.676 1.51v2.848c0 .206.063.378.19.515.125.137.29.206.497.206s.372-.07.497-.206c.126-.137.19-.31.19-.515v-3.535l.033-.172c0-.09-.046-.212-.137-.36-.09-.15-.23-.27-.412-.36l-1.544-.824 1.682-1.647.79 1.27c.136.23.308.343.514.343h2.262zm0 0M195.07 69.107c-.446.085-.738.516-.652.962.075.392.42.665.806.665.05 0 .104-.005.155-.015l3.38-.65c.194-.037.367-.14.49-.294l1.452-1.83-.485-.25c-.36-.18-.608-.508-.693-.906l-1.37 1.727-3.084.59zm13.846-8.94c0 .994-.806 1.8-1.8 1.8s-1.8-.806-1.8-1.8.806-1.8 1.8-1.8 1.8.806 1.8 1.8zm-5.73-.45c-.19-.196-.365-.273-.558-.273-.07 0-.14.01-.215.027l-3.09.734c-.427.1-.69.53-.59.955.088.365.413.61.773.61.06 0 .123-.007.184-.022l2.632-.623c.17.19 1.027 1.117 1.182 1.28L200.24 65.9l-.048.055c-.318.405-.22 1.04.258 1.28l.58.296 2.756 1.408-1.732 2.806c-.237.386-.118.892.268 1.13.135.085.284.124.43.124.275 0 .545-.138.7-.39l2.2-3.564c.12-.196.154-.434.09-.654-.062-.222-.214-.407-.42-.51l-2.26-1.15 2.375-2.543 1.793 1.52c.15.126.33.188.512.188.195 0 .39-.072.54-.212l2.06-1.918c.32-.3.34-.8.04-1.122-.157-.167-.37-.253-.58-.253-.194 0-.39.07-.54.212l-1.542 1.433c.002.005-3.858-3.627-4.533-4.32zm0 0"/>
  <path fill-rule="evenodd" clip-rule="evenodd" fill="#EB4182" d="M207.718 22.154c.167-.334.066-.748-.253-.96-1.462-.972-2.016-1.67-2.657-2.478-.287-.362-.584-.736-.978-1.163-.036-.04-.076-.074-.117-.103-.152-.14-.32-.26-.495-.345 0 0-.187-.103-.4-.143-.204-.04-.44-.04-.44-.04h-.006c-.023 0-.046.005-.07.006h-.05c-.028.003-.056.01-.084.013l-.088.014c-1.466.23-3.01 1.373-4.71 3.494-.26.324-.208.797.116 1.057.14.11.305.165.47.165.22 0 .438-.096.587-.28.73-.912 1.37-1.55 1.925-1.998l-.617 2.88c-.088.415.028.797.258 1.108l-.194 2.966-1.236 3.195c-.19.494.055 1.048.547 1.24.114.043.23.064.345.064.383 0 .746-.232.893-.612l1.29-3.332c.034-.09.055-.186.06-.282l.114-1.726 1.137 1.796.942 3.446c.114.427.5.71.924.71.082 0 .164-.01.247-.033.51-.135.814-.66.678-1.17l-.98-3.587c-.024-.094-.063-.183-.115-.265l-1.55-2.45c.05-.098.09-.202.117-.32l.634-2.958c.594.727 1.277 1.457 2.677 2.386.128.085.272.126.415.126.145 0 .287-.047.41-.128m-1.844-7.35c0 1.07-.867 1.937-1.936 1.937-1.07 0-1.936-.866-1.936-1.935 0-1.07.867-1.936 1.936-1.936 1.07-.002 1.936.865 1.936 1.935zm0 0"/>
  <path fill="#EB4182" d="M223.9 152.554l-13.093-13.094c-.8-.8-2.095-.8-2.893 0-.8.8-.8 2.094 0 2.893l9.6 9.6h-34.97c-1.13 0-2.045.917-2.045 2.047 0 1.13.915 2.046 2.045 2.046h34.97l-9.6 9.6c-.8.8-.8 2.095 0 2.894.4.4.922.6 1.445.6.524 0 1.048-.2 1.447-.6l13.094-13.094c.8-.8.8-2.093 0-2.892zm0 0"/>
</svg>