<svg xmlns="http://www.w3.org/2000/svg" width="880" height="894" viewBox="0 0 880 894">
  <style>
    .st1{fill:#575756;} .st2{fill:#7D4E24;} .st3{fill:#EAE5D0;} .st4{fill:#E1D8BC;} .st5{fill:#B17F4A;} .st6{fill:#C6C6C6;} .st7{fill:#BE1622;} .st8{fill:#5A8196;}
  </style>
  <path class="st1" d="M626 628.5h27.2V890H626z"/>
  <path class="st1" d="M556.2 893.6c19.2-26.6 74.1-29.1 74.1-29.1H653l6.4 24.5c0 .1-102.6 6.6-103.2 4.6zm123.7-265.1h27.2V890h-27.2z"/>
  <path class="st1" d="M777.6 893.6c-19.2-26.6-74.1-29.1-74.1-29.1h-22.7l-6.4 24.5c0 .1 102.6 6.6 103.2 4.6z"/>
  <path class="st2" d="M536.1 150.7S529.2 376 666.4 376.6C751.8 377 803 240 796.9 168.4c-4.5-52.4-237.7-128.3-260.8-17.7z"/>
  <path class="st3" d="M645 297.2h41.6v79.4H645z"/>
  <path class="st4" d="M686.6 336.9l-41.6-.6v-15.2l41.6-.6"/>
  <ellipse class="st3" cx="759.4" cy="188.9" rx="18.2" ry="19"/>
  <path class="st3" d="M761.2 243.7c0 44-42.5 79.7-94.9 79.7h-3.8c-52.4 0-94.9-35.7-94.9-79.7V104.5c0-44 42.5-79.7 94.9-79.7h3.8c52.4 0 94.9 35.7 94.9 79.7v139.2z"/>
  <path class="st4" d="M661.5 323.3c-52.4 0-94.9-35.7-94.9-79.7V104.5c0-44 42.5-79.7 94.9-79.7v298.5z"/>
  <ellipse class="st4" cx="566.5" cy="188.7" rx="18.4" ry="18.8"/>
  <path class="st2" d="M561.4 162.3C560.2 75.6 610 57.9 624.9 57.9c0 0 41.9 93.9 150.2 93.5 37.2-.2 19.3-7.2 22.3-16.3 6.2-18.9-17.4-83.5-53.4-104.8-30.2-17.9-72-45.3-119.2-13.7-36.3 24.3-18.6 21.1-18.6 21.1s-41.8-8.7-62.1 42.9c-18.6 47.4-13 60.5-6.9 81.9"/>
  <path class="st5" d="M772.4 116.4c-1.2 0-2.3-.8-2.6-2-7.9-30.4-28.3-53.1-60.6-67.3-24.3-10.7-46.4-12.3-46.6-12.4-1.5-.1-2.6-1.4-2.5-2.9.1-1.5 1.4-2.6 2.9-2.5.9.1 23.3 1.7 48.4 12.8 33.5 14.7 55.5 39.3 63.7 70.9.4 1.5-.5 2.9-2 3.3-.2.1-.5.1-.7.1z"/>
  <path class="st1" d="M741.2 178.6h-163c-2.5 0-4.5-2-4.5-4.5s2-4.5 4.5-4.5h163.1c2.5 0 4.5 2 4.5 4.5s-2.1 4.5-4.6 4.5z"/>
  <path class="st6" d="M604.4 173.5h47.1v37.6h-47.1z"/>
  <path class="st1" d="M655.3 214.8h-54.6v-45h54.6v45zm-47.1-7.4h39.7v-30.2h-39.7v30.2z"/>
  <path class="st6" d="M676.3 173.5h47.1v37.6h-47.1z"/>
  <path class="st1" d="M727.1 214.8h-54.6v-45h54.6v45zm-47.1-7.4h39.7v-30.2H680v30.2z"/>
  <path class="st3" d="M440.427 212.743l22.916-20.73L591.62 333.805l-22.917 20.73z"/>
  <path class="st7" d="M456.982 233.26l24.25-21.94 128.276 141.795-24.25 21.94z"/>
  <ellipse transform="rotate(-65.933 597.903 364.352)" class="st7" cx="597.9" cy="364.4" rx="16.6" ry="16.6"/>
  <path class="st3" d="M729.462 336.45l126.995-142.94 23.1 20.524-126.994 142.94z"/>
  <path class="st7" d="M712.61 352.904l126.994-142.94 24.446 21.72-126.995 142.94z"/>
  <ellipse transform="rotate(-72.182 724.614 364.34)" class="st7" cx="724.6" cy="364.3" rx="16.6" ry="16.6"/>
  <path class="st7" d="M724.1 500.8l4.9-151.1-62.7 9.4h-.8l-69-9.4L608.7 502"/>
  <path class="st8" d="M725.7 454.9c33.5 20.9 53.8 304.8 53.8 347.2H553.9c0-42.4 17.5-326.3 51-347.2h120.8z"/>
  <path class="st1" d="M181.7 628.5h27.2V890h-27.2z"/>
  <path class="st1" d="M111.9 893.6c19.2-26.6 74.1-29.1 74.1-29.1h22.7l6.4 24.5c0 .1-102.6 6.6-103.2 4.6zm123.7-265.1h27.2V890h-27.2z"/>
  <path class="st1" d="M333.3 893.6c-19.2-26.6-74.1-29.1-74.1-29.1h-22.7l-6.4 24.5c0 .1 102.6 6.6 103.2 4.6z"/>
  <path class="st2" d="M91.8 150.7S84.9 376 222.1 376.6c85.4.4 136.6-136.6 130.5-208.2-4.5-52.4-237.7-128.3-260.8-17.7z"/>
  <path class="st3" d="M200.7 297.2h41.6v79.4h-41.6z"/>
  <path class="st4" d="M242.3 336.9l-41.6-.6v-15.2l41.6-.6"/>
  <ellipse class="st3" cx="315.1" cy="188.9" rx="18.2" ry="19"/>
  <path class="st3" d="M316.9 243.7c0 44-42.5 79.7-94.9 79.7h-3.8c-52.4 0-94.9-35.7-94.9-79.7V104.5c0-44 42.5-79.7 94.9-79.7h3.8c52.4 0 94.9 35.7 94.9 79.7v139.2z"/>
  <path class="st4" d="M217.2 323.3c-52.4 0-94.9-35.7-94.9-79.7V104.5c0-44 42.5-79.7 94.9-79.7v298.5z"/>
  <ellipse class="st4" cx="122.2" cy="188.7" rx="18.4" ry="18.8"/>
  <path class="st2" d="M117.1 162.3c-1.2-86.8 48.6-104.4 63.5-104.4 0 0 41.9 93.9 150.2 93.5 37.2-.2 19.3-7.2 22.3-16.3 6.2-18.9-17.4-83.5-53.4-104.8-30.2-17.9-72-45.3-119.2-13.7C144.4 40.7 162 37.5 162 37.5s-41.8-8.7-62.1 42.9c-18.6 47.4-13 60.5-6.9 81.9"/>
  <path class="st5" d="M328.1 116.4c-1.2 0-2.3-.8-2.6-2-7.9-30.4-28.3-53.1-60.6-67.3-24.3-10.7-46.4-12.3-46.6-12.4-1.5-.1-2.6-1.4-2.5-2.9.1-1.5 1.4-2.6 2.9-2.5.9.1 23.3 1.7 48.4 12.8 33.5 14.7 55.5 39.3 63.7 70.9.4 1.5-.5 2.9-2 3.3-.2.1-.5.1-.7.1z"/>
  <path class="st1" d="M296.9 178.6h-163c-2.5 0-4.5-2-4.5-4.5s2-4.5 4.5-4.5H297c2.5 0 4.5 2 4.5 4.5s-2.1 4.5-4.6 4.5z"/>
  <path class="st6" d="M160.1 173.5h47.1v37.6h-47.1z"/>
  <path class="st1" d="M211 214.8h-54.6v-45H211v45zm-47.1-7.4h39.7v-30.2h-39.7v30.2z"/>
  <path class="st6" d="M232 173.5h47.1v37.6H232z"/>
  <path class="st1" d="M282.8 214.8h-54.6v-45h54.6v45zm-47.1-7.4h39.7v-30.2h-39.7v30.2z"/>
  <path class="st3" d="M63.782 563.895L132.92 385.64l28.808 11.173L92.59 575.07z"/>
  <path class="st7" d="M72.925 539.16l69.137-178.256 30.487 11.824-69.14 178.256z"/>
  <ellipse transform="rotate(-2.563 157.582 366.203)" class="st7" cx="157.3" cy="366.3" rx="16.6" ry="16.6"/>
  <path class="st3" d="M277.043 394.642l28.724-11.39 70.477 177.74-28.725 11.39z"/>
  <path class="st7" d="M268.3 372.766l30.397-12.054 70.476 177.74-30.397 12.053z"/>
  <ellipse transform="rotate(-45.436 283.058 366.367)" class="st7" cx="283.1" cy="366.3" rx="16.6" ry="16.6"/>
  <path class="st7" d="M279.8 500.8l4.9-151.1-62.7 9.4h-.8l-69-9.4L164.4 502"/>
  <path class="st8" d="M281.4 454.9c33.5 20.9 53.8 304.8 53.8 347.2H109.6c0-42.4 17.5-326.3 51-347.2h120.8z"/>
</svg>
