<svg xmlns="http://www.w3.org/2000/svg" width="980" height="894" viewBox="0 0 980 894">
  <style>
    .st1{fill:#3C3C3B;} .st2{fill:#EAE5D0;} .st3{fill:#507B93;} .st4{fill:#BE1622;} .st5{fill:#A31324;} .st6{fill:#E1D8BC;} .st7{fill:#683C11;} .st8{fill:#3B363A;} .st9{fill:#FFFFFF;}
  </style>
  <path class="st1" d="M255.3 542.2h44.2v343.9h-44.2z"/>
  <path class="st1" d="M364.9 893.6c-20.4-28.3-78.7-30.8-78.7-30.8h-24.1l-6.7 26c-.1 0 108.8 6.9 109.5 4.8zM185.6 542.2h44.2v343.9h-44.2z"/>
  <path class="st1" d="M125.6 893.6c20.4-28.3 78.7-30.8 78.7-30.8h24.1l6.7 26c.1 0-108.8 6.9-109.5 4.8z"/>
  <path class="st2" d="M329.665 362.84l43.447-14.166 73.935 226.742-43.447 14.167z"/>
  <path class="st3" d="M314.228 328.79l50.482-16.462 73.935 226.742-50.482 16.46z"/>
  <ellipse transform="rotate(-60.35 340.887 324.35)" class="st3" cx="340.9" cy="324.4" rx="26.6" ry="26.6"/>
  <path class="st2" d="M42.98 577.035L111.57 348.6l43.77 13.143-68.59 228.435z"/>
  <path class="st3" d="M49.637 540.35l68.592-228.435 50.854 15.27-68.592 228.437z"/>
  <ellipse transform="rotate(-25.578 142.668 323.476)" class="st3" cx="142.7" cy="323.4" rx="26.6" ry="26.6"/>
  <path class="st3" d="M137.6 308.2h211.6v211.4H137.6z"/>
  <path class="st1" d="M137.6 505.9h211.6v68.2H137.6z"/>
  <path class="st4" d="M137.6 367.8v-69.2h211.6v69.2l-105.8 71.9"/>
  <path class="st5" d="M137.6 367.8v-69.2h105.8v141.1"/>
  <ellipse class="st2" cx="347.3" cy="188.4" rx="19.9" ry="20.8"/>
  <path class="st2" d="M349.2 275.8c0 48.1-46.4 87.1-103.7 87.1h-4.1c-57.3 0-103.7-39-103.7-87.1V123.7c0-48.1 46.4-87.1 103.7-87.1h4.1c57.3 0 103.7 39 103.7 87.1v152.1z"/>
  <path class="st6" d="M240.2 362.8c-57.3 0-103.7-39-103.7-87.1v-152c0-48.1 46.4-87.1 103.7-87.1v326.2z"/>
  <ellipse class="st6" cx="136.5" cy="188.2" rx="20.2" ry="20.6"/>
  <path class="st7" d="M242.9 2.2C214 4 125.4 3.6 125.4 97.2c0 22.5 6.9 70.9 6.9 70.9s10.7.1 14.5 12.8l6.3-.7s7.9-1.9 6.3-22.2c-.4-4.7 2.3-43.5 3.1-56.2 1.4-21 25.8-10.3 34-8.1 10.7 2.9 25.5 6.3 43.5 6.3 18.9 0 34.5-2.9 45.5-6.3 7.2-2.2 37.1-19 35.7 8.1-.4 7.8 3.2 51.3 3.3 56.2.2 19.5 6.6 22.2 6.6 22.2l6.6.7c4-12.6 15.2-12.8 15.2-12.8s7.3-48.5 7.3-70.9c.1-93.6-86.8-94-117.3-95z"/>
  <path class="st8" d="M310.5 237c0-2-1.6-3.5-3.5-3.5h-42.6c-2 0-3.5 1.6-3.5 3.5h49.6z"/>
  <path class="st8" d="M296 233.8v-26.1c0-5.3-4.6-9.6-10.4-9.6-5.7 0-10.4 4.3-10.4 9.6v26.1H296z"/>
  <path class="st9" d="M288.6 215.5c0 .8-.7 1.5-1.5 1.5s-1.5-.7-1.5-1.5v-7.7c0-.8.7-1.5 1.5-1.5s1.5.7 1.5 1.5v7.7z"/>
  <path class="st7" d="M260.8 177.7h49.7v7.4h-49.7zm-91.6 0h49.7v7.4h-49.7z"/>
  <path class="st8" d="M218.9 236.1c0-2-1.6-3.5-3.5-3.5h-42.6c-2 0-3.5 1.6-3.5 3.5h49.6z"/>
  <path class="st8" d="M205.5 234.3v-26.1c0-5.3-4.6-9.6-10.4-9.6-5.7 0-10.4 4.3-10.4 9.6v26.1h20.8z"/>
  <path class="st9" d="M198.2 216c0 .8-.7 1.5-1.5 1.5s-1.5-.7-1.5-1.5v-7.7c0-.8.7-1.5 1.5-1.5s1.5.7 1.5 1.5v7.7z"/>
  <path class="st1" d="M752.6 542.2h44.2v343.9h-44.2z"/>
  <path class="st1" d="M862.1 893.6c-20.4-28.3-78.7-30.8-78.7-30.8h-24.1l-6.7 26s108.8 6.9 109.5 4.8zM682.8 542.2H727v343.9h-44.2z"/>
  <path class="st1" d="M622.9 893.6c20.4-28.3 78.7-30.8 78.7-30.8h24.1l6.7 26s-108.8 6.9-109.5 4.8z"/>
  <path class="st2" d="M830.348 283.076L938.412 70.453l40.742 20.707L871.09 303.782z"/>
  <path class="st3" d="M810.66 314.667l108.064-212.622 47.34 24.06L858 338.727z"/>
  <ellipse transform="rotate(-15.35 835.922 323.08)" class="st3" cx="836" cy="323.1" rx="26.6" ry="26.6"/>
  <path class="st2" d="M490.842 95.27l40.244-21.657L644.11 283.636l-40.243 21.657z"/>
  <path class="st3" d="M505.597 129.51l46.76-25.165 113.025 210.023-46.76 25.164z"/>
  <ellipse transform="rotate(-70.58 639.892 323.452)" class="st3" cx="639.9" cy="323.4" rx="26.6" ry="26.6"/>
  <path class="st3" d="M634.8 308.2h211.6v211.4H634.8z"/>
  <path class="st1" d="M634.8 505.9h211.6v68.2H634.8z"/>
  <path class="st4" d="M634.8 367.8v-69.2h211.7v69.2l-105.8 71.9"/>
  <path class="st5" d="M634.8 367.8v-69.2h105.9v141.1"/>
  <ellipse class="st2" cx="844.5" cy="188.4" rx="19.9" ry="20.8"/>
  <path class="st2" d="M846.5 275.8c0 48.1-46.4 87.1-103.7 87.1h-4.1c-57.3 0-103.7-39-103.7-87.1V123.7c0-48.1 46.4-87.1 103.7-87.1h4.1c57.3 0 103.7 39 103.7 87.1v152.1z"/>
  <path class="st6" d="M737.5 362.8c-57.3 0-103.7-39-103.7-87.1v-152c0-48.1 46.4-87.1 103.7-87.1v326.2z"/>
  <ellipse class="st6" cx="633.7" cy="188.2" rx="20.2" ry="20.6"/>
  <path class="st7" d="M740.1 2.2c-28.9 1.9-117.5 1.5-117.5 95 0 22.5 6.9 70.9 6.9 70.9s10.7.1 14.5 12.8l6.3-.7s7.9-1.9 6.3-22.2c-.4-4.7 2.3-43.5 3.1-56.2 1.4-21 25.8-10.3 34-8.1 10.7 2.9 25.5 6.3 43.5 6.3 18.9 0 34.5-2.9 45.5-6.3 7.2-2.2 37.1-19 35.7 8.1-.4 7.8 3.2 51.3 3.3 56.2.2 19.5 6.6 22.2 6.6 22.2l6.6.7c4-12.6 15.2-12.8 15.2-12.8s7.3-48.5 7.3-70.9c.2-93.6-86.8-94-117.3-95z"/>
  <path class="st8" d="M807.7 237c0-2-1.6-3.5-3.5-3.5h-42.6c-2 0-3.5 1.6-3.5 3.5h49.6z"/>
  <path class="st8" d="M793.2 233.8v-26.1c0-5.3-4.6-9.6-10.4-9.6-5.7 0-10.4 4.3-10.4 9.6v26.1h20.8z"/>
  <path class="st9" d="M785.9 215.5c0 .8-.7 1.5-1.5 1.5s-1.5-.7-1.5-1.5v-7.7c0-.8.7-1.5 1.5-1.5s1.5.7 1.5 1.5v7.7z"/>
  <path class="st7" d="M758.1 177.7h49.7v7.4h-49.7zm-91.6 0h49.7v7.4h-49.7z"/>
  <path class="st8" d="M716.1 236.1c0-2-1.6-3.5-3.5-3.5H670c-2 0-3.5 1.6-3.5 3.5h49.6z"/>
  <path class="st8" d="M702.8 234.3v-26.1c0-5.3-4.6-9.6-10.4-9.6-5.7 0-10.4 4.3-10.4 9.6v26.1h20.8z"/>
  <path class="st9" d="M695.4 216c0 .8-.7 1.5-1.5 1.5s-1.5-.7-1.5-1.5v-7.7c0-.8.7-1.5 1.5-1.5s1.5.7 1.5 1.5v7.7z"/>
</svg>
