<svg xmlns="http://www.w3.org/2000/svg" width="150" height="270" viewBox="0 0 150 270">
  <style>
    .st1{fill:#575756;} .st2{fill:#7D4E24;} .st3{fill:#EAE5D0;} .st4{fill:#E1D8BC;} .st5{fill:#B17F4A;} .st6{fill:#C6C6C6;} .st7{fill:#BE1622;} .st8{fill:#5A8196;} .st9{fill:#FAC73E;} .st10{fill:#EDB63B;} .st11{fill:#4D4D4D;}
  </style>
  <g id="Stella_1_">
    <path class="st1" d="M35.2 203.2H42v65.6h-6.8z"/>
    <path class="st1" d="M17.7 269.7c4.8-6.7 18.6-7.3 18.6-7.3H42l1.6 6.2s-25.7 1.6-25.9 1.1zm31.1-66.5h6.8v65.6h-6.8z"/>
    <path class="st1" d="M73.3 269.7c-4.8-6.7-18.6-7.3-18.6-7.3H49l-1.6 6.2s25.7 1.6 25.9 1.1z"/>
    <path class="st2" d="M12.7 83.3S11 139.8 45.4 140c21.4.1 34.3-34.3 32.7-52.2-1.1-13.2-59.6-32.2-65.4-4.5z"/>
    <path class="st3" d="M40 120.1h10.4V140H40z"/>
    <path class="st4" d="M50.4 130l-10.4-.1v-3.8l10.4-.2z"/>
    <ellipse class="st3" cx="68.7" cy="92.9" rx="4.6" ry="4.8"/>
    <path class="st3" d="M69.1 106.6c0 11-10.7 20-23.8 20h-1c-13.2 0-23.8-8.9-23.8-20V71.7c0-11 10.7-20 23.8-20h1c13.2 0 23.8 8.9 23.8 20v34.9z"/>
    <path class="st4" d="M44.1 126.6c-13.2 0-23.8-8.9-23.8-20V71.7c0-11 10.7-20 23.8-20v74.9z"/>
    <ellipse class="st4" cx="20.3" cy="92.8" rx="4.6" ry="4.7"/>
    <path class="st2" d="M19 86.2C18.7 64.5 31.2 60 35 60c0 0 10.5 23.6 37.7 23.4 9.3 0 4.9-1.8 5.6-4.1 1.6-4.8-4.4-21-13.4-26.3-7.6-4.5-18.1-11.4-29.9-3.4-9.1 6.1-4.7 5.3-4.7 5.3s-10.5-2.2-15.6 10.8C10 77.6 11.5 80.9 13 86.2"/>
    <path class="st5" d="M72 74.7c-.3 0-.6-.2-.7-.5-2-7.6-7.1-13.3-15.2-16.9-6.1-2.7-11.6-3.1-11.7-3.1-.4 0-.7-.4-.6-.7 0-.4.4-.7.7-.6.2 0 5.8.4 12.2 3.2 8.4 3.7 13.9 9.9 16 17.8.1.4-.1.7-.5.8H72z"/>
    <path class="st1" d="M64.1 90.3H23.2c-.6 0-1.1-.5-1.1-1.1s.5-1.1 1.1-1.1h40.9c.6 0 1.1.5 1.1 1.1s-.4 1.1-1.1 1.1z"/>
    <path class="st6" d="M29.8 89h11.8v9.4H29.8z"/>
    <path class="st1" d="M42.6 99.4H28.9V88.1h13.7v11.3zm-11.8-1.9h10V90h-10v7.5z"/>
    <path class="st6" d="M47.8 89h11.8v9.4H47.8z"/>
    <path class="st1" d="M60.6 99.4H46.9V88.1h13.7v11.3zm-11.8-1.9h10V90h-10v7.5z"/>
    <path class="st3" d="M-.012 183.944l21.624-42.855 6.875 3.465L6.863 187.41z"/>
    <path class="st7" d="M2.934 178.036l21.624-42.855 7.32 3.698-21.623 42.855z"/>
    <ellipse transform="rotate(-87.03 28.174 136.91)" class="st7" cx="28.2" cy="136.9" rx="4.2" ry="4.2"/>
    <path class="st3" d="M65.97 140.98l.06-7.7 48 .37-.06 7.7z"/>
    <path class="st7" d="M60.016 140.925l.063-8.2 48 .37-.067 8.2z"/>
    <ellipse transform="rotate(-23.36 59.968 136.912)" class="st7" cx="60" cy="136.9" rx="4.2" ry="4.2"/>
    <path class="st7" d="M59.8 171.1l1.3-37.9-15.8 2.4h-.2l-17.3-2.4 3.1 38.2z"/>
    <path class="st8" d="M60.2 159.6c8.4 5.2 13.5 76.5 13.5 87.1H17.1c0-10.6 4.4-81.9 12.8-87.1h30.3z"/>
  </g>
  <g id="Lollipop_1_">
    <path class="st9" d="M111 68h6v51h-6z"/>
    <path class="st9" d="M114 69.9c-18.7 0-33.9-15.2-33.9-33.9S95.3 2.1 114 2.1s33.9 15.2 33.9 33.9-15.2 33.9-33.9 33.9z"/>
    <path class="st10" d="M114 4.2c17.5 0 31.8 14.2 31.8 31.8S131.5 67.8 114 67.8 82.2 53.5 82.2 36 96.5 4.2 114 4.2m0-4.2C94.1 0 78 16.1 78 36s16.1 36 36 36 36-16.1 36-36-16.1-36-36-36z"/>
    <path class="st11" d="M111 119h6v50h-6z"/>
    <path class="st9" d="M111 169h6v50h-6z"/>
    <path class="st11" d="M111 219h6v51h-6z"/>
    <path d="M109 18.6l-.5.1-1.2 5.3h-1.1l-1.1-4-1.1 4h-1.1l-1.2-5.3-.5-.1v-.7h2.2v.7l-.6.1.7 3.3 1.1-4.1h.9l1.1 4.1.7-3.3-.6-.1v-.7h2.2v.7zm.3 4.6l.6-.1v-4.8l-.6-.1v-.7h1.9V20c.1-.2.3-.4.5-.5.2-.1.4-.2.7-.2.5 0 .8.2 1.1.5s.4.8.4 1.4V23l.6.1v.7h-2.3v-.7l.5-.1v-1.8c0-.3-.1-.6-.2-.7-.1-.1-.3-.2-.6-.2-.2 0-.3 0-.4.1-.1.1-.2.1-.3.3v2.4l.5.1v.7h-2.3v-.7zm7.6.8c-.6 0-1.2-.2-1.6-.6-.4-.4-.6-.9-.6-1.6v-.2c0-.7.2-1.2.6-1.7s.9-.6 1.5-.6 1.1.2 1.4.5.5.9.5 1.5v.7H116c0 .3.1.5.3.7.2.2.4.3.7.3.3 0 .5 0 .7-.1.2-.1.4-.1.6-.3l.3.7c-.2.1-.4.3-.7.4-.3.3-.7.3-1 .3zm-.1-3.7c-.2 0-.4.1-.5.3-.1.2-.2.4-.2.7h1.5v-.1c0-.3-.1-.5-.2-.6s-.4-.3-.6-.3zm2.6 2.9l.6-.1v-2.8l-.6-.1v-.7h1.8l.1.7c.1-.2.2-.4.4-.5s.4-.2.6-.2h.4l-.1 1.1h-.5c-.2 0-.3 0-.4.1l-.3.3v2.2l.6.1v.7h-2.4v-.8zm5.5.8c-.6 0-1.2-.2-1.6-.6-.4-.4-.6-.9-.6-1.6v-.2c0-.7.2-1.2.6-1.7s.9-.6 1.5-.6 1.1.2 1.4.5.5.9.5 1.5v.7H124c0 .3.1.5.3.7.2.2.4.3.7.3.3 0 .5 0 .7-.1.2-.1.4-.1.6-.3l.3.7c-.2.1-.4.3-.7.4-.3.3-.6.3-1 .3zm-.1-3.7c-.2 0-.4.1-.5.3-.1.2-.2.4-.2.7h1.5v-.1c0-.3-.1-.5-.2-.6s-.3-.3-.6-.3zM90.6 32c0-.7.2-1.3.5-1.7s.7-.7 1.3-.7c.3 0 .5.1.7.2.2.1.4.3.5.5l.1-.6h1.1V34c0 .6-.2 1.1-.6 1.4s-1 .6-1.7.6c-.2 0-.5 0-.7-.1-.3-.1-.5-.1-.7-.3l.2-.9c.2.1.4.1.6.2.2 0 .4.1.6.1.3 0 .5-.1.7-.3s.2-.4.2-.8v-.3c-.1.2-.3.3-.5.4-.2.1-.4.1-.6.1-.6 0-1-.2-1.3-.6s-.4-.8-.4-1.5zm1.2 0c0 .4.1.7.2.9.1.2.3.3.6.3.2 0 .3 0 .5-.1s.2-.2.3-.3v-2l-.3-.3s-.3-.1-.5-.1c-.3 0-.5.1-.7.4-.1.4-.1.7-.1 1.2zm3.6-.1c0-.7.2-1.2.6-1.6.4-.4.9-.6 1.6-.6.7 0 1.2.2 1.6.6.4.4.6 1 .6 1.7s-.2 1.2-.6 1.7c-.4.4-.9.6-1.6.6-.7 0-1.2-.2-1.6-.6-.5-.5-.6-1.1-.6-1.8zm1.2.1c0 .4.1.7.2 1s.4.4.7.4c.3 0 .5-.1.7-.4.1-.2.2-.6.2-1v-.1c0-.4-.1-.7-.2-1s-.4-.4-.7-.4-.5.1-.7.4-.2.6-.2 1.1zm3.5-.1c0-.7.2-1.2.6-1.6.4-.4.9-.6 1.6-.6.7 0 1.2.2 1.6.6.4.4.6 1 .6 1.7s-.2 1.2-.6 1.7c-.4.4-.9.6-1.6.6-.7 0-1.2-.2-1.6-.6-.4-.5-.6-1.1-.6-1.8zm1.2.1c0 .4.1.7.2 1s.4.4.7.4c.3 0 .5-.1.7-.4.1-.2.2-.6.2-1v-.1c0-.4-.1-.7-.2-1s-.4-.4-.7-.4-.5.1-.7.4-.2.6-.2 1.1zm6.5 1.6c-.1.2-.3.4-.5.5-.2.1-.4.2-.7.2-.6 0-1-.2-1.3-.6-.3-.4-.5-.9-.5-1.6V32c0-.7.2-1.3.5-1.7s.7-.7 1.3-.7c.2 0 .4 0 .6.1.2.1.3.2.5.4v-1.6l-.6-.1v-.7h1.8v5.6l.6.1v.7h-1.6l-.1-.5zm-1.7-1.6c0 .4.1.7.2.9.1.2.3.3.6.3.2 0 .3 0 .5-.1l.3-.3V31c-.1-.1-.2-.3-.3-.3s-.3-.1-.5-.1c-.3 0-.5.1-.6.4-.1.2-.2.5-.2 1zm7.7-3.4v1.1h.8v.9h-.8v2.3c0 .2 0 .3.1.4.1.1.2.1.3.1h.4l.1.9c-.1 0-.3.1-.4.1h-.4c-.4 0-.7-.1-1-.3s-.3-.6-.3-1.1v-2.3h-.6v-.9h.7v-1.1h1.1zm1.3 4.8l.6-.1v-4.8l-.6-.1v-.7h1.9v2.6c.1-.2.3-.4.5-.5.2-.1.4-.2.7-.2.5 0 .8.2 1.1.5s.4.8.4 1.4v1.8l.6.1v.7H118v-.7l.5-.1v-1.8c0-.3-.1-.6-.2-.7-.1-.1-.3-.2-.6-.2-.2 0-.3 0-.4.1-.1.1-.2.1-.3.3v2.4l.5.1v.7h-2.3v-.8zm5.5 0l.6-.1v-2.8l-.6-.1v-.7h1.9v3.6l.6.1v.7h-2.4v-.7zm1.8-4.8h-1.2v-.9h1.2v.9zm.9 4.8l.6-.1v-2.8l-.6-.1v-.7h1.8l.1.6c.1-.2.3-.4.6-.5.2-.1.5-.2.7-.2.5 0 .8.1 1.1.4s.4.7.4 1.3v2l.6.1v.7h-2.3v-.7l.5-.1v-2c0-.3-.1-.5-.2-.6-.1-.1-.3-.2-.6-.2-.2 0-.3 0-.4.1l-.3.3v2.4l.5.1v.7h-2.3v-.7zm5.5-1.4c0-.7.2-1.3.5-1.7s.7-.7 1.3-.7c.3 0 .5.1.7.2.2.1.4.3.5.5l.1-.6h1.1V34c0 .6-.2 1.1-.6 1.4s-.9.5-1.5.5c-.2 0-.5 0-.7-.1-.3-.1-.5-.1-.7-.3l.2-.9c.2.1.4.1.6.2.2 0 .4.1.6.1.3 0 .5-.1.7-.3s.2-.4.2-.8v-.3c-.1.2-.3.3-.5.4-.2.1-.4.1-.6.1-.6 0-1-.2-1.3-.6s-.6-.7-.6-1.4zm1.2 0c0 .4.1.7.2.9.1.2.3.3.6.3.2 0 .3 0 .5-.1s.2-.2.3-.3v-2l-.3-.3s-.3-.1-.5-.1c-.3 0-.5.1-.7.4 0 .4-.1.7-.1 1.2zm7.3-.8h-.8l-.1-.6c-.1-.1-.2-.1-.3-.2-.1 0-.3-.1-.4-.1-.2 0-.4 0-.5.1-.1.1-.2.2-.2.4 0 .1.1.2.2.3.1.1.4.2.7.2.6.1 1 .3 1.2.5s.4.5.4.9-.2.7-.5 1c-.3.3-.8.4-1.4.4-.3 0-.7-.1-1-.2s-.5-.2-.8-.4v-1h.8l.2.6c.1.1.2.1.3.1h.4c.2 0 .4 0 .6-.1s.2-.2.2-.4c0-.1-.1-.2-.2-.3-.1-.1-.4-.2-.7-.3-.5-.1-.9-.3-1.2-.5-.3-.2-.4-.5-.4-.9s.2-.7.5-1 .8-.4 1.3-.4c.3 0 .7 0 1 .1s.6.2.7.4v1.4zM99 43.7l.6-.1v-4.8l-.6-.1V38h1.9v2.6c.1-.2.3-.4.5-.5.2-.1.4-.2.7-.2.5 0 .8.2 1.1.5s.4.8.4 1.4v1.8l.6.1v.7h-2.3v-.7l.5-.1v-1.8c0-.3-.1-.6-.2-.7-.1-.1-.3-.2-.6-.2-.2 0-.3 0-.4.1-.1.1-.2.1-.3.3v2.4l.5.1v.7H99v-.8zm8.3.7c0-.1-.1-.2-.1-.2 0-.1 0-.2-.1-.2-.1.2-.3.3-.5.4s-.4.2-.7.2c-.4 0-.8-.1-1-.4-.3-.2-.4-.6-.4-1s.2-.7.5-1c.3-.2.8-.3 1.5-.3h.6v-.4c0-.2-.1-.4-.2-.5-.1-.1-.3-.2-.6-.2h-.4c-.1 0-.2.1-.3.1l-.1.5h-.9v-1c.2-.1.5-.3.8-.4.3-.1.6-.2.9-.2.6 0 1 .1 1.4.4.3.3.5.7.5 1.2v2.3h.4v.7h-1.3zm-1-.8c.2 0 .3 0 .5-.1.1-.1.3-.2.3-.3v-.7h-.6c-.3 0-.5.1-.6.2-.1.1-.2.3-.2.4 0 .2 0 .3.1.4.2 0 .3.1.5.1zm2.8-3v-.7h1.8l.1.5c.1-.2.3-.3.5-.4.2-.1.4-.2.6-.2.6 0 1 .2 1.3.7.3.4.5 1 .5 1.7v.1c0 .7-.2 1.2-.5 1.6-.3.4-.7.6-1.3.6-.2 0-.4 0-.6-.1-.2-.1-.3-.2-.5-.4v1.3l.6.1v.7h-2.4v-.7l.6-.1v-4.5l-.7-.2zm3.5 1.6c0-.4-.1-.8-.2-1-.1-.3-.4-.4-.6-.4-.2 0-.3 0-.5.1s-.2.2-.3.3v2l.3.3c.1.1.3.1.5.1.3 0 .5-.1.6-.3.1-.3.2-.6.2-1.1zm1.6-1.6v-.7h1.8l.1.5c.1-.2.3-.3.5-.4.2-.1.4-.2.6-.2.6 0 1 .2 1.3.7.3.4.5 1 .5 1.7v.1c0 .7-.2 1.2-.5 1.6-.3.4-.7.6-1.3.6-.2 0-.4 0-.6-.1-.2-.1-.3-.2-.5-.4v1.3l.6.1v.7h-2.4v-.7l.6-.1v-4.5l-.7-.2zm3.5 1.6c0-.4-.1-.8-.2-1-.1-.3-.4-.4-.6-.4-.2 0-.3 0-.5.1s-.2.2-.3.3v2l.3.3c.1.1.3.1.5.1.3 0 .5-.1.6-.3.1-.3.2-.6.2-1.1zm3.9 2.3c-.6 0-1.2-.2-1.6-.6s-.6-.9-.6-1.6v-.2c0-.7.2-1.2.6-1.7s.9-.6 1.5-.6 1.1.2 1.4.5.5.9.5 1.5v.7h-2.7c0 .3.1.5.3.7.2.2.4.3.7.3.3 0 .5 0 .7-.1.2-.1.4-.1.6-.3l.3.7c-.2.1-.4.3-.7.4-.3.2-.6.3-1 .3zm-.1-3.8c-.2 0-.4.1-.5.3-.1.2-.2.4-.2.7h1.5v-.1c0-.3-.1-.5-.2-.6s-.3-.3-.6-.3zm2.4 3l.6-.1v-2.8l-.6-.1V40h1.8l.1.6c.1-.2.3-.4.6-.5.2-.1.5-.2.7-.2.5 0 .8.1 1.1.4s.4.7.4 1.3v2l.6.1v.7h-2.3v-.7l.5-.1v-2c0-.3-.1-.5-.2-.6-.1-.1-.3-.2-.6-.2-.2 0-.3 0-.4.1l-.3.3v2.4l.5.1v.7h-2.3v-.7zm-15.6 10.9c0 .3.2.5.5.5h7.8l-1.9 1.9c-.2.2-.2.5 0 .8l.5.5c.2.2.5.2.8 0l3.6-3.6c.1-.1.2-.2.2-.4 0-.1-.1-.3-.2-.4l-3.6-3.6c-.2-.2-.5-.2-.8 0l-.5.5c-.2.2-.2.5 0 .8l1.9 1.9h-7.8c-.3 0-.5.2-.5.5v.6zm0 0"/>
  </g>
</svg>
