<svg xmlns="http://www.w3.org/2000/svg" width="68" height="204" viewBox="0 0 68 204">
  <style>
    .st1{fill-rule:evenodd;clip-rule:evenodd;fill:#FAC73E;} .st2{fill-rule:evenodd;clip-rule:evenodd;fill:none;stroke:#FFFFFF;stroke-width:5.0371;stroke-linecap:round;stroke-linejoin:round;stroke-miterlimit:22.9256;} .st3{fill:#3C363A;} .st4{fill:#FFFFFF;} .st5{fill-rule:evenodd;clip-rule:evenodd;fill:none;stroke:#FFFFFF;stroke-width:5.037;stroke-linecap:round;stroke-linejoin:round;stroke-miterlimit:22.9256;} .st6{fill-rule:evenodd;clip-rule:evenodd;fill:#FFFFFF;} .st7{fill-rule:evenodd;clip-rule:evenodd;fill:none;stroke:#FFFFFF;stroke-width:2.0148;stroke-linecap:round;stroke-linejoin:round;stroke-miterlimit:22.9256;}
  </style>
  <path class="st1" d="M34 136c18.7 0 34-15.3 34-34S52.7 68 34 68 0 83.3 0 102s15.3 34 34 34z"/>
  <path class="st2" d="M20.5 109.1c4.8 10.8 22 10.7 27.1 0"/>
  <path class="st3" d="M29.6 100.9c0-.5-.4-1-1-1h-12c-.5 0-1 .4-1 1h14z"/>
  <path class="st3" d="M25.5 100v-7.3c0-1.5-1.3-2.7-2.9-2.7-1.6 0-2.9 1.2-2.9 2.7v7.3h5.8z"/>
  <path class="st4" d="M23.5 94.8c0 .2-.2.4-.4.4s-.4-.2-.4-.4v-2.1c0-.2.2-.4.4-.4s.4.2.4.4v2.1z"/>
  <path class="st3" d="M52.3 100.7c0-.5-.4-1-1-1H39.4c-.5 0-1 .4-1 1h13.9z"/>
  <path class="st3" d="M48.3 99.8v-7.3c0-1.5-1.3-2.7-2.9-2.7-1.6 0-2.9 1.2-2.9 2.7v7.3h5.8z"/>
  <path class="st4" d="M46.2 94.7c0 .2-.2.4-.4.4s-.4-.2-.4-.4v-2.1c0-.2.2-.4.4-.4s.4.2.4.4v2.1z"/>
  <path class="st1" d="M34 68c18.7 0 34-15.3 34-34S52.7 0 34 0 0 15.3 0 34s15.3 34 34 34z"/>
  <path class="st5" d="M21.9 42.8h24.2"/>
  <path class="st3" d="M29.6 32.6c0-.5-.4-1-1-1h-12c-.5 0-1 .4-1 1h14z"/>
  <path class="st3" d="M25.5 31.7v-7.3c0-1.5-1.3-2.7-2.9-2.7-1.6 0-2.9 1.2-2.9 2.7v7.3h5.8z"/>
  <path class="st4" d="M23.5 26.6c0 .2-.2.4-.4.4s-.4-.2-.4-.4v-2.1c0-.2.2-.4.4-.4s.4.2.4.4v2.1z"/>
  <path class="st3" d="M52.3 32.5c0-.5-.4-1-1-1H39.4c-.5 0-1 .4-1 1h13.9z"/>
  <path class="st3" d="M48.3 31.6v-7.3c0-1.5-1.3-2.7-2.9-2.7-1.6 0-2.9 1.2-2.9 2.7v7.3h5.8z"/>
  <path class="st4" d="M46.2 26.5c0 .2-.2.4-.4.4s-.4-.2-.4-.4v-2.1c0-.2.2-.4.4-.4s.4.2.4.4v2.1z"/>
  <circle class="st1" cx="34" cy="170" r="34"/>
  <path class="st6" d="M21.4 176h25.2c1.4 0 2.4 1.5 1.9 2.8-6 14.5-22.2 14.7-28.9.1-.6-1.3.4-2.9 1.8-2.9z"/>
  <path class="st7" d="M44.9 152.9l8.3 3m-38.4 0l8.3-3"/>
  <path class="st3" d="M29.6 168.9c0-.5-.4-1-1-1h-12c-.5 0-1 .4-1 1h14z"/>
  <path class="st3" d="M25.5 168v-7.3c0-1.5-1.3-2.7-2.9-2.7-1.6 0-2.9 1.2-2.9 2.7v7.3h5.8z"/>
  <path class="st4" d="M23.5 162.8c0 .2-.2.4-.4.4s-.4-.2-.4-.4v-2.1c0-.2.2-.4.4-.4s.4.2.4.4v2.1z"/>
  <path class="st3" d="M52.3 168.7c0-.5-.4-1-1-1H39.4c-.5 0-1 .4-1 1h13.9z"/>
  <path class="st3" d="M48.3 167.8v-7.3c0-1.5-1.3-2.7-2.9-2.7-1.6 0-2.9 1.2-2.9 2.7v7.3h5.8z"/>
  <path class="st4" d="M46.2 162.7c0 .2-.2.4-.4.4s-.4-.2-.4-.4v-2.1c0-.2.2-.4.4-.4s.4.2.4.4v2.1z"/>
</svg>