<svg xmlns="http://www.w3.org/2000/svg" width="135" height="440" viewBox="0 0 135 440">
  <path fill="#4D4D4D" d="M20.85 159.29l-4.766-4.764 2.514-2.514 2.25 2.25 5.553-5.552 2.515 2.514-8.066 8.067z"/>
  <path fill="none" stroke="#4D4D4D" stroke-width="2" stroke-miterlimit="10" d="M26.272 74l-8-8 8-8"/>
  <path fill="#4D4D4D" d="M15.73 18c0 .55-.9 1-2 1h-.23c-1.1 0-2-.45-2-1s.9-1 2-1h.23c1.1 0 2 .45 2 1zm5.924-1c0-1.1-.9-2-2-2h-.23c-1.1 0-2 .9-2 2v2c0 1.1.9 2 2 2h.23c1.1 0 2-.9 2-2v-2zM33.5 18c0-.55-.9-1-2-1h-6.154c-1.1 0-2 .45-2 1s.9 1 2 1H31.5c1.1 0 2-.45 2-1zm-4.23 8c0 .55.9 1 2 1h.23c1.1 0 2-.45 2-1s-.9-1-2-1h-.23c-1.1 0-2 .45-2 1zm-5.924 1c0 1.1.9 2 2 2h.23c1.1 0 2-.9 2-2v-2c0-1.1-.9-2-2-2h-.23c-1.1 0-2 .9-2 2v2zM11.5 26c0 .55.9 1 2 1h6.154c1.1 0 2-.45 2-1s-.9-1-2-1H13.5c-1.1 0-2 .45-2 1zM26.7 100.4h-8.4c-.99 0-1.8.81-1.8 1.8v15.6c0 .99.81 1.8 1.8 1.8h8.4c.99 0 1.8-.81 1.8-1.8v-15.6c0-.99-.81-1.8-1.8-1.8zm-6.6.9h4.8v.6h-4.8v-.6zm2.4 17.1c-.663 0-1.2-.537-1.2-1.2 0-.663.537-1.2 1.2-1.2.663 0 1.2.537 1.2 1.2 0 .663-.537 1.2-1.2 1.2zm4.8-3.6h-9.6v-12h9.6v12zm0 0M22.5 196.1c-1.574 0-2.85 1.277-2.85 2.85 0 1.574 1.276 2.85 2.85 2.85 1.573 0 2.85-1.276 2.85-2.85 0-1.573-1.277-2.85-2.85-2.85zm7.6-2.85h-2.28c-.313 0-.65-.243-.75-.54l-.59-1.77c-.1-.297-.436-.54-.75-.54h-6.46c-.314 0-.65.243-.75.54l-.59 1.77c-.1.297-.436.54-.75.54H14.9c-1.045 0-1.9.855-1.9 1.9v8.55c0 1.045.855 1.9 1.9 1.9h15.2c1.045 0 1.9-.855 1.9-1.9v-8.55c0-1.045-.855-1.9-1.9-1.9zm-7.6 10.45c-2.624 0-4.75-2.126-4.75-4.75 0-2.623 2.126-4.75 4.75-4.75 2.623 0 4.75 2.127 4.75 4.75 0 2.624-2.127 4.75-4.75 4.75zm6.935-7.22c-.366 0-.665-.3-.665-.666 0-.366.3-.664.665-.664.367 0 .665.298.665.664 0 .367-.298.665-.665.665zm0 0M18.806 243.23c-.68 0-1.23-.55-1.23-1.23 0-.68.55-1.23 1.23-1.23s1.23.55 1.23 1.23c0 .68-.55 1.23-1.23 1.23zm4.925-4.924c0-.68-.55-1.23-1.23-1.23-.68 0-1.23.55-1.23 1.23 0 .68.55 1.23 1.23 1.23.68 0 1.23-.55 1.23-1.23zm0 3.694c0-.68-.55-1.23-1.23-1.23-.68 0-1.23.55-1.23 1.23 0 .68.55 1.23 1.23 1.23.68 0 1.23-.55 1.23-1.23zm0 3.694c0-.68-.55-1.23-1.23-1.23-.68 0-1.23.55-1.23 1.23 0 .68.55 1.23 1.23 1.23.68 0 1.23-.55 1.23-1.23zm3.695 0c0-.68-.55-1.23-1.23-1.23-.682 0-1.232.55-1.232 1.23 0 .68.55 1.23 1.23 1.23.68 0 1.232-.55 1.232-1.23zm3.694 0c0-.68-.552-1.23-1.232-1.23-.68 0-1.23.55-1.23 1.23 0 .68.55 1.23 1.23 1.23.68 0 1.23-.55 1.23-1.23zM27.424 242c0-.68-.55-1.23-1.23-1.23-.682 0-1.232.55-1.232 1.23 0 .68.55 1.23 1.23 1.23.68 0 1.232-.55 1.232-1.23zm-11.08 3.694c0-.68-.552-1.23-1.232-1.23-.68 0-1.23.55-1.23 1.23 0 .68.55 1.23 1.23 1.23.68 0 1.23-.55 1.23-1.23zm3.692 0c0-.68-.55-1.23-1.23-1.23s-1.232.55-1.232 1.23c0 .68.55 1.23 1.23 1.23s1.232-.55 1.232-1.23zm0 0M26.194 284.77c.68 0 1.23.55 1.23 1.23 0 .68-.55 1.23-1.23 1.23s-1.23-.55-1.23-1.23c0-.68.55-1.23 1.23-1.23zm-4.925 4.924c0 .68.55 1.23 1.23 1.23.68 0 1.23-.55 1.23-1.23 0-.68-.55-1.23-1.23-1.23-.68 0-1.23.55-1.23 1.23zm0-3.694c0 .68.55 1.23 1.23 1.23.68 0 1.23-.55 1.23-1.23 0-.68-.55-1.23-1.23-1.23-.68 0-1.23.55-1.23 1.23zm0-3.694c0 .68.55 1.23 1.23 1.23.68 0 1.23-.55 1.23-1.23 0-.68-.55-1.23-1.23-1.23-.68 0-1.23.55-1.23 1.23zm-3.695 0c0 .68.55 1.23 1.23 1.23.682 0 1.232-.55 1.232-1.23 0-.68-.55-1.23-1.23-1.23-.68 0-1.232.55-1.232 1.23zm-3.694 0c0 .68.552 1.23 1.232 1.23.68 0 1.23-.55 1.23-1.23 0-.68-.55-1.23-1.23-1.23-.68 0-1.23.55-1.23 1.23zM17.576 286c0 .68.55 1.23 1.23 1.23.682 0 1.232-.55 1.232-1.23 0-.68-.55-1.23-1.23-1.23-.68 0-1.232.55-1.232 1.23zm11.08-3.694c0 .68.552 1.23 1.232 1.23.68 0 1.23-.55 1.23-1.23 0-.68-.55-1.23-1.23-1.23-.68 0-1.23.55-1.23 1.23zm-3.692 0c0 .68.55 1.23 1.23 1.23s1.232-.55 1.232-1.23c0-.68-.55-1.23-1.23-1.23s-1.232.55-1.232 1.23zm0 0M30.29 324.986l.445-.446c.038-.038.08-.036.102-.038.142-.012.3-.027.48-.06.65-.12.323-.833-.337-1.493-.66-.66-1.38-.99-1.493-.338-.034.196-.048.337-.06.48-.002.016 0 .046-.032.078l-.43.43c-.084.084-.15.02-.185-.01-1.335-1.108-2.968-1.87-4.76-2.148-.044-.007-.132-.02-.132-.108v-.266c0-.064.05-.09.075-.1.422-.19.717-.466.994-.785.63-.725-1.096-1.184-2.448-1.184-1.353 0-3.078.457-2.45 1.183.27.31.556.58.96.77.03.013.093.028.093.125v.24c0 .094-.085.116-.127.122-2.3.355-4.334 1.506-5.817 3.162-1.56 1.74-2.507 4.04-2.507 6.56 0 5.432 4.404 9.837 9.837 9.837 5.17 0 9.406-3.987 9.807-9.053.02-.26.03-.52.03-.786 0-2.26-.762-4.342-2.044-6.003-.026-.032-.078-.097-.004-.17zm.147 6.955c-.39 4.04-3.795 7.197-7.937 7.197-4.404 0-7.975-3.57-7.975-7.975 0-2.043.77-3.906 2.032-5.317 1.46-1.63 3.582-2.658 5.943-2.658 4.405 0 7.975 3.57 7.975 7.975 0 .263-.013.523-.038.78zm0 0M28.787 374.694c.3 0 .35-.28.332-.42-.416-3.125-2.993-5.568-6.18-5.775-.145-.01-.44 0-.44.29v5.495s0 .41.41.41h5.877zm1.502-5.708l.445-.446c.038-.038.08-.036.102-.038.142-.012.3-.027.48-.06.65-.12.323-.833-.337-1.493-.66-.66-1.38-.99-1.493-.338-.034.196-.048.337-.06.48-.002.016 0 .046-.032.078l-.43.43c-.084.084-.15.02-.185-.01-1.335-1.108-2.968-1.87-4.76-2.148-.044-.007-.132-.02-.132-.108v-.266c0-.064.05-.09.075-.1.422-.19.717-.466.994-.785.63-.725-1.096-1.184-2.448-1.184-1.353 0-3.078.457-2.45 1.183.27.31.556.58.96.77.03.013.093.028.093.125v.24c0 .094-.085.116-.127.122-2.3.355-4.334 1.506-5.817 3.162-1.56 1.74-2.507 4.04-2.507 6.56 0 5.432 4.404 9.837 9.837 9.837 5.17 0 9.406-3.987 9.807-9.053.02-.26.03-.52.03-.786 0-2.26-.762-4.342-2.044-6.003-.026-.032-.078-.097-.004-.17zm.147 6.955c-.39 4.04-3.795 7.197-7.937 7.197-4.404 0-7.975-3.57-7.975-7.975 0-2.043.77-3.906 2.032-5.317 1.46-1.63 3.582-2.658 5.943-2.658 4.405 0 7.975 3.57 7.975 7.975 0 .263-.013.523-.038.78zm0 0M36.894 417.027l-8.807-8.807c-.538-.537-1.41-.537-1.946 0-.536.538-.536 1.408 0 1.946l6.458 6.458H9.078c-.76 0-1.375.616-1.375 1.376 0 .76.616 1.376 1.376 1.376H32.6l-6.458 6.458c-.537.537-.537 1.408 0 1.946.27.27.62.403.973.403.352 0 .705-.134.973-.403l8.807-8.807c.537-.538.537-1.408 0-1.946zm0 0"/>
  <path fill="none" stroke="#FFF" stroke-width="2" stroke-miterlimit="10" d="M71.5 74l-8-8 8-8"/>
  <path fill="#FFF" d="M60.73 18c0 .55-.9 1-2 1h-.23c-1.1 0-2-.45-2-1s.9-1 2-1h.23c1.1 0 2 .45 2 1zm5.924-1c0-1.1-.9-2-2-2h-.23c-1.1 0-2 .9-2 2v2c0 1.1.9 2 2 2h.23c1.1 0 2-.9 2-2v-2zM78.5 18c0-.55-.9-1-2-1h-6.154c-1.1 0-2 .45-2 1s.9 1 2 1H76.5c1.1 0 2-.45 2-1zm-4.23 8c0 .55.9 1 2 1h.23c1.1 0 2-.45 2-1s-.9-1-2-1h-.23c-1.1 0-2 .45-2 1zm-5.924 1c0 1.1.9 2 2 2h.23c1.1 0 2-.9 2-2v-2c0-1.1-.9-2-2-2h-.23c-1.1 0-2 .9-2 2v2zM56.5 26c0 .55.9 1 2 1h6.154c1.1 0 2-.45 2-1s-.9-1-2-1H58.5c-1.1 0-2 .45-2 1zM65.85 159.29l-4.766-4.764 2.514-2.514 2.25 2.25 5.553-5.552 2.515 2.514-8.066 8.067zM71.7 100.4h-8.4c-.99 0-1.8.81-1.8 1.8v15.6c0 .99.81 1.8 1.8 1.8h8.4c.99 0 1.8-.81 1.8-1.8v-15.6c0-.99-.81-1.8-1.8-1.8zm-6.6.9h4.8v.6h-4.8v-.6zm2.4 17.1c-.663 0-1.2-.537-1.2-1.2 0-.663.537-1.2 1.2-1.2s1.2.537 1.2 1.2c0 .663-.537 1.2-1.2 1.2zm4.8-3.6h-9.6v-12h9.6v12zm0 0M67.5 196.1c-1.574 0-2.85 1.277-2.85 2.85 0 1.574 1.276 2.85 2.85 2.85 1.573 0 2.85-1.276 2.85-2.85 0-1.573-1.277-2.85-2.85-2.85zm7.6-2.85h-2.28c-.313 0-.65-.243-.75-.54l-.59-1.77c-.1-.297-.436-.54-.75-.54h-6.46c-.314 0-.65.243-.75.54l-.59 1.77c-.1.297-.436.54-.75.54H59.9c-1.045 0-1.9.855-1.9 1.9v8.55c0 1.045.855 1.9 1.9 1.9h15.2c1.045 0 1.9-.855 1.9-1.9v-8.55c0-1.045-.855-1.9-1.9-1.9zm-7.6 10.45c-2.624 0-4.75-2.126-4.75-4.75 0-2.623 2.126-4.75 4.75-4.75 2.623 0 4.75 2.127 4.75 4.75 0 2.624-2.127 4.75-4.75 4.75zm6.935-7.22c-.366 0-.665-.3-.665-.666 0-.366.3-.664.665-.664.367 0 .665.298.665.664 0 .367-.298.665-.665.665zm0 0M63.806 243.23c-.68 0-1.23-.55-1.23-1.23 0-.68.55-1.23 1.23-1.23s1.23.55 1.23 1.23c0 .68-.55 1.23-1.23 1.23zm4.925-4.924c0-.68-.55-1.23-1.23-1.23-.68 0-1.23.55-1.23 1.23 0 .68.55 1.23 1.23 1.23.68 0 1.23-.55 1.23-1.23zm0 3.694c0-.68-.55-1.23-1.23-1.23-.68 0-1.23.55-1.23 1.23 0 .68.55 1.23 1.23 1.23.68 0 1.23-.55 1.23-1.23zm0 3.694c0-.68-.55-1.23-1.23-1.23-.68 0-1.23.55-1.23 1.23 0 .68.55 1.23 1.23 1.23.68 0 1.23-.55 1.23-1.23zm3.695 0c0-.68-.55-1.23-1.23-1.23-.682 0-1.232.55-1.232 1.23 0 .68.55 1.23 1.23 1.23.68 0 1.232-.55 1.232-1.23zm3.694 0c0-.68-.552-1.23-1.232-1.23-.68 0-1.23.55-1.23 1.23 0 .68.55 1.23 1.23 1.23.68 0 1.23-.55 1.23-1.23zM72.424 242c0-.68-.55-1.23-1.23-1.23-.682 0-1.232.55-1.232 1.23 0 .68.55 1.23 1.23 1.23.68 0 1.232-.55 1.232-1.23zm-11.08 3.694c0-.68-.552-1.23-1.232-1.23-.68 0-1.23.55-1.23 1.23 0 .68.55 1.23 1.23 1.23.68 0 1.23-.55 1.23-1.23zm3.692 0c0-.68-.55-1.23-1.23-1.23s-1.232.55-1.232 1.23c0 .68.55 1.23 1.23 1.23s1.232-.55 1.232-1.23zm0 0M71.194 284.77c.68 0 1.23.55 1.23 1.23 0 .68-.55 1.23-1.23 1.23s-1.23-.55-1.23-1.23c0-.68.55-1.23 1.23-1.23zm-4.925 4.924c0 .68.55 1.23 1.23 1.23.68 0 1.23-.55 1.23-1.23 0-.68-.55-1.23-1.23-1.23-.68 0-1.23.55-1.23 1.23zm0-3.694c0 .68.55 1.23 1.23 1.23.68 0 1.23-.55 1.23-1.23 0-.68-.55-1.23-1.23-1.23-.68 0-1.23.55-1.23 1.23zm0-3.694c0 .68.55 1.23 1.23 1.23.68 0 1.23-.55 1.23-1.23 0-.68-.55-1.23-1.23-1.23-.68 0-1.23.55-1.23 1.23zm-3.695 0c0 .68.55 1.23 1.23 1.23.682 0 1.232-.55 1.232-1.23 0-.68-.55-1.23-1.23-1.23-.68 0-1.232.55-1.232 1.23zm-3.694 0c0 .68.552 1.23 1.232 1.23.68 0 1.23-.55 1.23-1.23 0-.68-.55-1.23-1.23-1.23-.68 0-1.23.55-1.23 1.23zM62.576 286c0 .68.55 1.23 1.23 1.23.682 0 1.232-.55 1.232-1.23 0-.68-.55-1.23-1.23-1.23-.68 0-1.232.55-1.232 1.23zm11.08-3.694c0 .68.552 1.23 1.232 1.23.68 0 1.23-.55 1.23-1.23 0-.68-.55-1.23-1.23-1.23-.68 0-1.23.55-1.23 1.23zm-3.692 0c0 .68.55 1.23 1.23 1.23s1.232-.55 1.232-1.23c0-.68-.55-1.23-1.23-1.23s-1.232.55-1.232 1.23zm0 0M75.29 324.986l.445-.446c.038-.038.08-.036.102-.038.142-.012.3-.027.48-.06.65-.12.323-.833-.337-1.493-.66-.66-1.38-.99-1.493-.338-.034.196-.048.337-.06.48-.002.016 0 .046-.032.078l-.43.43c-.084.084-.15.02-.185-.01-1.335-1.108-2.968-1.87-4.76-2.148-.044-.007-.132-.02-.132-.108v-.266c0-.064.05-.09.075-.1.422-.19.717-.466.994-.785.63-.725-1.096-1.184-2.448-1.184-1.353 0-3.078.457-2.45 1.183.27.31.556.58.96.77.03.013.093.028.093.125v.24c0 .094-.085.116-.127.122-2.3.355-4.334 1.506-5.817 3.162-1.56 1.74-2.507 4.04-2.507 6.56 0 5.432 4.404 9.837 9.837 9.837 5.17 0 9.406-3.987 9.807-9.053.02-.26.03-.52.03-.786 0-2.26-.762-4.342-2.044-6.003-.026-.032-.078-.097-.004-.17zm.147 6.955c-.39 4.04-3.795 7.197-7.937 7.197-4.404 0-7.975-3.57-7.975-7.975 0-2.043.77-3.906 2.032-5.317 1.46-1.63 3.582-2.658 5.943-2.658 4.405 0 7.975 3.57 7.975 7.975 0 .263-.013.523-.038.78zm0 0M73.787 374.694c.3 0 .35-.28.332-.42-.416-3.125-2.993-5.568-6.18-5.775-.145-.01-.44 0-.44.29v5.495s0 .41.41.41h5.877zm1.502-5.708l.445-.446c.038-.038.08-.036.102-.038.142-.012.3-.027.48-.06.65-.12.323-.833-.337-1.493-.66-.66-1.38-.99-1.493-.338-.034.196-.048.337-.06.48-.002.016 0 .046-.032.078l-.43.43c-.084.084-.15.02-.185-.01-1.335-1.108-2.968-1.87-4.76-2.148-.044-.007-.132-.02-.132-.108v-.266c0-.064.05-.09.075-.1.422-.19.717-.466.994-.785.63-.725-1.096-1.184-2.448-1.184-1.353 0-3.078.457-2.45 1.183.27.31.556.58.96.77.03.013.093.028.093.125v.24c0 .094-.085.116-.127.122-2.3.355-4.334 1.506-5.817 3.162-1.56 1.74-2.507 4.04-2.507 6.56 0 5.432 4.404 9.837 9.837 9.837 5.17 0 9.406-3.987 9.807-9.053.02-.26.03-.52.03-.786 0-2.26-.762-4.342-2.044-6.003-.026-.032-.078-.097-.004-.17zm.147 6.955c-.39 4.04-3.795 7.197-7.937 7.197-4.404 0-7.975-3.57-7.975-7.975 0-2.043.77-3.906 2.032-5.317 1.46-1.63 3.582-2.658 5.943-2.658 4.405 0 7.975 3.57 7.975 7.975 0 .263-.013.523-.038.78zm0 0M81.894 417.027l-8.807-8.807c-.538-.537-1.41-.537-1.946 0-.536.538-.536 1.408 0 1.946l6.458 6.458h-23.52c-.76 0-1.376.616-1.376 1.376 0 .76.616 1.376 1.376 1.376h23.52l-6.457 6.458c-.536.537-.536 1.408 0 1.946.27.27.622.403.974.403s.705-.134.973-.403l8.807-8.807c.538-.538.538-1.408 0-1.946zm0 0"/>
  <path fill="#C00" d="M116.7 100.4h-8.4c-.99 0-1.8.81-1.8 1.8v15.6c0 .99.81 1.8 1.8 1.8h8.4c.99 0 1.8-.81 1.8-1.8v-15.6c0-.99-.81-1.8-1.8-1.8zm-6.6.9h4.8v.6h-4.8v-.6zm2.4 17.1c-.663 0-1.2-.537-1.2-1.2 0-.663.537-1.2 1.2-1.2s1.2.537 1.2 1.2c0 .663-.537 1.2-1.2 1.2zm4.8-3.6h-9.6v-12h9.6v12zm0 0"/>
  <path fill="#009245" d="M108.806 243.23c-.68 0-1.23-.55-1.23-1.23 0-.68.55-1.23 1.23-1.23s1.23.55 1.23 1.23c0 .68-.55 1.23-1.23 1.23zm4.925-4.924c0-.68-.55-1.23-1.23-1.23-.68 0-1.23.55-1.23 1.23 0 .68.55 1.23 1.23 1.23.68 0 1.23-.55 1.23-1.23zm0 3.694c0-.68-.55-1.23-1.23-1.23-.68 0-1.23.55-1.23 1.23 0 .68.55 1.23 1.23 1.23.68 0 1.23-.55 1.23-1.23zm0 3.694c0-.68-.55-1.23-1.23-1.23-.68 0-1.23.55-1.23 1.23 0 .68.55 1.23 1.23 1.23.68 0 1.23-.55 1.23-1.23zm3.695 0c0-.68-.55-1.23-1.23-1.23-.682 0-1.232.55-1.232 1.23 0 .68.55 1.23 1.23 1.23.68 0 1.232-.55 1.232-1.23zm3.694 0c0-.68-.552-1.23-1.232-1.23-.68 0-1.23.55-1.23 1.23 0 .68.55 1.23 1.23 1.23.68 0 1.23-.55 1.23-1.23zM117.424 242c0-.68-.55-1.23-1.23-1.23-.682 0-1.232.55-1.232 1.23 0 .68.55 1.23 1.23 1.23.68 0 1.232-.55 1.232-1.23zm-11.08 3.694c0-.68-.552-1.23-1.232-1.23-.68 0-1.23.55-1.23 1.23 0 .68.55 1.23 1.23 1.23.68 0 1.23-.55 1.23-1.23zm3.692 0c0-.68-.55-1.23-1.23-1.23s-1.232.55-1.232 1.23c0 .68.55 1.23 1.23 1.23s1.232-.55 1.232-1.23zm0 0"/>
  <path fill="#F00" d="M116.194 284.77c.68 0 1.23.55 1.23 1.23 0 .68-.55 1.23-1.23 1.23s-1.23-.55-1.23-1.23c0-.68.55-1.23 1.23-1.23zm-4.925 4.924c0 .68.55 1.23 1.23 1.23.68 0 1.23-.55 1.23-1.23 0-.68-.55-1.23-1.23-1.23-.68 0-1.23.55-1.23 1.23zm0-3.694c0 .68.55 1.23 1.23 1.23.68 0 1.23-.55 1.23-1.23 0-.68-.55-1.23-1.23-1.23-.68 0-1.23.55-1.23 1.23zm0-3.694c0 .68.55 1.23 1.23 1.23.68 0 1.23-.55 1.23-1.23 0-.68-.55-1.23-1.23-1.23-.68 0-1.23.55-1.23 1.23zm-3.695 0c0 .68.55 1.23 1.23 1.23.682 0 1.232-.55 1.232-1.23 0-.68-.55-1.23-1.23-1.23-.68 0-1.232.55-1.232 1.23zm-3.694 0c0 .68.552 1.23 1.232 1.23.68 0 1.23-.55 1.23-1.23 0-.68-.55-1.23-1.23-1.23-.68 0-1.23.55-1.23 1.23zm3.695 3.694c0 .68.55 1.23 1.23 1.23.682 0 1.232-.55 1.232-1.23 0-.68-.55-1.23-1.23-1.23-.68 0-1.232.55-1.232 1.23zm11.08-3.694c0 .68.552 1.23 1.232 1.23.68 0 1.23-.55 1.23-1.23 0-.68-.55-1.23-1.23-1.23-.68 0-1.23.55-1.23 1.23zm-3.692 0c0 .68.55 1.23 1.23 1.23s1.232-.55 1.232-1.23c0-.68-.55-1.23-1.23-1.23s-1.232.55-1.232 1.23zm0 0"/>
  <path fill="#538983" d="M120.29 324.986l.445-.446c.038-.038.08-.036.102-.038.142-.012.3-.027.48-.06.65-.12.323-.833-.337-1.493-.66-.66-1.38-.99-1.493-.338-.034.196-.048.337-.06.48-.002.016 0 .046-.032.078l-.43.43c-.084.084-.15.02-.185-.01-1.335-1.108-2.968-1.87-4.76-2.148-.044-.007-.132-.02-.132-.108v-.266c0-.064.05-.09.075-.1.422-.19.717-.466.994-.785.63-.725-1.096-1.184-2.448-1.184-1.353 0-3.078.457-2.45 1.183.27.31.556.58.96.77.03.013.093.028.093.125v.24c0 .094-.085.116-.127.122-2.3.355-4.334 1.506-5.817 3.162-1.56 1.74-2.507 4.04-2.507 6.56 0 5.432 4.404 9.837 9.837 9.837 5.17 0 9.406-3.987 9.807-9.053.02-.26.03-.52.03-.786 0-2.26-.762-4.342-2.044-6.003-.026-.032-.078-.097-.004-.17zm.147 6.955c-.39 4.04-3.795 7.197-7.937 7.197-4.404 0-7.975-3.57-7.975-7.975 0-2.043.77-3.906 2.032-5.317 1.46-1.63 3.582-2.658 5.943-2.658 4.405 0 7.975 3.57 7.975 7.975 0 .263-.013.523-.038.78zm0 0M118.787 374.694c.3 0 .35-.28.332-.42-.416-3.125-2.993-5.568-6.18-5.775-.145-.01-.44 0-.44.29v5.495s0 .41.41.41h5.877zm1.502-5.708l.445-.446c.038-.038.08-.036.102-.038.142-.012.3-.027.48-.06.65-.12.323-.833-.337-1.493-.66-.66-1.38-.99-1.493-.338-.034.196-.048.337-.06.48-.002.016 0 .046-.032.078l-.43.43c-.084.084-.15.02-.185-.01-1.335-1.108-2.968-1.87-4.76-2.148-.044-.007-.132-.02-.132-.108v-.266c0-.064.05-.09.075-.1.422-.19.717-.466.994-.785.63-.725-1.096-1.184-2.448-1.184-1.353 0-3.078.457-2.45 1.183.27.31.556.58.96.77.03.013.093.028.093.125v.24c0 .094-.085.116-.127.122-2.3.355-4.334 1.506-5.817 3.162-1.56 1.74-2.507 4.04-2.507 6.56 0 5.432 4.404 9.837 9.837 9.837 5.17 0 9.406-3.987 9.807-9.053.02-.26.03-.52.03-.786 0-2.26-.762-4.342-2.044-6.003-.026-.032-.078-.097-.004-.17zm.147 6.955c-.39 4.04-3.795 7.197-7.937 7.197-4.404 0-7.975-3.57-7.975-7.975 0-2.043.77-3.906 2.032-5.317 1.46-1.63 3.582-2.658 5.943-2.658 4.405 0 7.975 3.57 7.975 7.975 0 .263-.013.523-.038.78zm0 0M126.894 417.027l-8.807-8.807c-.538-.537-1.41-.537-1.946 0-.536.538-.536 1.408 0 1.946l6.458 6.458h-23.52c-.76 0-1.376.616-1.376 1.376 0 .76.616 1.376 1.376 1.376h23.52l-6.457 6.458c-.536.537-.536 1.408 0 1.946.27.27.622.403.974.403s.705-.134.973-.403l8.807-8.807c.538-.538.538-1.408 0-1.946zm0 0"/>
</svg>