<svg xmlns="http://www.w3.org/2000/svg" width="90" height="176" viewBox="0 0 90 176">
  <path fill="#666" d="M20.964 150.93l3.072 3.07-3.072 3.07"/>
  <path fill="#4D4D4D" d="M13 111.916c0-3.014 1.435-5.678 3.63-7.434.47-.32.82 0 .676.234-1.52 3.573-.412 7.084 2.167 7.788-.76-1.813-1.115-3.865-.88-5.97.35-3.105 1.875-5.77 4.07-7.64.207-.176.413-.29.556-.262.147.03.233.115.176.32-.177.617-.292 1.258-.35 1.904-.29 2.607.293 5.066 1.493 7.17 1.812 0 2.577-2.11 2.778-3.572 0-.35.263-.584.79-.177 2.343 1.727 3.893 4.477 3.893 7.61 0 5.24-4.242 9.487-9.513 9.487-5.24.027-9.487-4.22-9.487-9.458z"/>
  <g fill="#4D4D4D">
    <path d="M21.74 67.934c0-2.465-2.005-4.47-4.47-4.47s-4.47 2.005-4.47 4.47c0 .722.172 1.405.478 2.01l3.992 8.232 3.993-8.234c.305-.604.477-1.287.477-2.008zm-4.47 2.473c-1.364 0-2.474-1.11-2.474-2.474s1.11-2.474 2.474-2.474 2.474 1.11 2.474 2.473c0 1.364-1.11 2.474-2.474 2.474zm0 0M29.936 53.824c-1.248 0-2.264 1.015-2.264 2.264 0 .366.087.71.242 1.018l2.022 4.17 2.022-4.17c.155-.307.242-.652.242-1.018 0-1.248-1.015-2.264-2.264-2.264zm0 3.517c-.69 0-1.253-.56-1.253-1.252 0-.69.562-1.253 1.253-1.253.69 0 1.253.562 1.253 1.253 0 .69-.563 1.253-1.254 1.253zm0 0M27.965 68.51c-.092-.433-.21-.856-.36-1.272-.202-.557-.444-1.1-.63-1.664-.345-1.053.252-1.93.364-2.09.195-.28.425-.537.667-.777.467-.462.98-.876 1.52-1.257-.068-.103-.132-.208-.194-.314-.774.304-4.756 1.695-4.66 4.77.02.616.26 1.203.405 1.8.07.288.132.578.17.872.015.132.025.266.036.4v-.003c0 .004.01.422-.008.603-.058.567-.142 1.14-.38 1.66-.223.484-.56.904-.974 1.237-.948.76-2.205 1.063-3.39 1.186-.057.007-.114.012-.17.017l-2.117 4.366c1.044-.065 2.086-.208 3.103-.458 1.196-.294 2.362-.74 3.406-1.398 1.044-.658 1.94-1.55 2.54-2.634.624-1.135.874-2.434.82-3.722-.015-.44-.057-.89-.15-1.32zm0 0"/>
  </g>
  <path fill="#4D4D4D" d="M22.5 11c-6.065 0-11 4.935-11 11s4.935 11 11 11 11-4.935 11-11-4.935-11-11-11zm4.626 18.346l-.474-.815c-.055-.093-.157-.15-.266-.15-.054 0-.106.013-.153.04-.07.042-.12.108-.142.188-.02.08-.01.16.032.232l.475.816c-1.06.57-2.253.925-3.518 1.01v-1.152c0-.32-.26-.58-.58-.58-.32 0-.58.26-.58.58v1.15c-1.246-.08-2.42-.428-3.47-.983l.47-.818c.04-.07.05-.153.03-.232-.02-.08-.072-.145-.143-.186-.047-.027-.098-.04-.152-.04-.11 0-.212.058-.267.153l-.47.818c-1.045-.652-1.943-1.52-2.63-2.542l.995-.574c.277-.16.372-.515.212-.792s-.514-.372-.79-.212l-.998.575c-.524-1.06-.838-2.245-.885-3.496l.945-.003c.082 0 .16-.03.216-.09.058-.057.09-.134.09-.216-.002-.168-.14-.306-.307-.306l-.947.003c.04-1.27.354-2.472.886-3.55l.997.576c.09.053.19.078.29.078.2 0 .394-.104.5-.29.16-.276.066-.63-.21-.79l-.996-.575c.677-1.008 1.56-1.866 2.586-2.515l.474.815c.027.047.065.085.112.112.093.054.212.054.306 0 .07-.042.122-.108.142-.188.02-.08.01-.16-.03-.232l-.476-.816c1.06-.57 2.252-.925 3.518-1.01v1.152c0 .32.26.58.58.58.32 0 .578-.26.578-.58v-1.15c1.246.08 2.422.428 3.47.983l-.47.82c-.083.147-.032.334.114.418.047.027.098.04.152.04.11 0 .212-.058.266-.153l.47-.818c1.045.652 1.943 1.52 2.63 2.542l-.995.574c-.277.16-.372.514-.212.79.107.187.302.29.502.29.098 0 .198-.025.29-.078l.996-.575c.525 1.063.84 2.247.886 3.498l-.945.003c-.08 0-.158.033-.216.09-.057.06-.09.136-.09.218 0 .11.06.21.155.265.045.027.097.04.15.04h.002l.946-.003c-.04 1.27-.355 2.473-.887 3.55l-.996-.574c-.277-.16-.63-.065-.79.212-.16.277-.066.63.21.79l.996.575c-.675 1.006-1.557 1.864-2.584 2.513zM26.78 18.86l-3.714 2.06c-.17-.088-.36-.14-.565-.14-.203 0-.395.052-.564.14l-3.713-2.06c-.35-.194-.794-.067-.99.284-.194.35-.067.794.284.99l3.79 2.1c.11.562.602.985 1.195.985.593 0 1.086-.424 1.196-.985l3.79-2.102c.35-.195.477-.637.282-.99-.197-.35-.64-.477-.99-.282zm0 0"/>
  <path fill="#FFF" d="M65.964 150.93l3.072 3.07-3.072 3.07M58 111.916c0-3.014 1.435-5.678 3.63-7.434.47-.32.82 0 .676.234-1.52 3.573-.412 7.084 2.167 7.788-.76-1.813-1.115-3.865-.88-5.97.35-3.105 1.875-5.77 4.07-7.64.207-.176.413-.29.556-.262.147.03.233.115.176.32-.177.617-.292 1.258-.35 1.904-.29 2.607.293 5.066 1.493 7.17 1.812 0 2.577-2.11 2.778-3.572 0-.35.263-.584.79-.177 2.343 1.727 3.893 4.477 3.893 7.61 0 5.24-4.242 9.487-9.513 9.487-5.24.027-9.487-4.22-9.487-9.458z"/>
  <g fill="#FFF">
    <path d="M66.74 67.934c0-2.465-2.005-4.47-4.47-4.47s-4.47 2.005-4.47 4.47c0 .722.172 1.405.478 2.01l3.992 8.232 3.993-8.234c.305-.604.477-1.287.477-2.008zm-4.47 2.473c-1.364 0-2.474-1.11-2.474-2.474s1.11-2.474 2.474-2.474 2.474 1.11 2.474 2.473c0 1.364-1.11 2.474-2.474 2.474zm0 0M74.936 53.824c-1.248 0-2.264 1.015-2.264 2.264 0 .366.087.71.242 1.018l2.022 4.17 2.022-4.17c.155-.307.242-.652.242-1.018 0-1.248-1.015-2.264-2.264-2.264zm0 3.517c-.69 0-1.253-.56-1.253-1.252 0-.69.562-1.253 1.253-1.253.69 0 1.253.562 1.253 1.253 0 .69-.563 1.253-1.254 1.253zm0 0M72.965 68.51c-.092-.433-.21-.856-.36-1.272-.202-.557-.444-1.1-.63-1.664-.345-1.053.252-1.93.364-2.09.195-.28.425-.537.667-.777.467-.462.98-.876 1.52-1.257-.068-.103-.132-.208-.194-.314-.774.304-4.756 1.695-4.66 4.77.02.616.26 1.203.405 1.8.07.288.132.578.17.872.015.132.025.266.036.4v-.003c0 .004.01.422-.008.603-.058.567-.142 1.14-.38 1.66-.223.484-.56.904-.974 1.237-.948.76-2.205 1.063-3.39 1.186-.057.007-.114.012-.17.017l-2.117 4.366c1.044-.065 2.086-.208 3.103-.458 1.196-.294 2.362-.74 3.406-1.398 1.044-.658 1.94-1.55 2.54-2.634.624-1.135.874-2.434.82-3.722-.015-.44-.057-.89-.15-1.32zm0 0"/>
  </g>
  <path fill="#FFF" d="M67.5 11c-6.065 0-11 4.935-11 11s4.935 11 11 11 11-4.935 11-11-4.935-11-11-11zm4.626 18.346l-.474-.815c-.055-.093-.157-.15-.266-.15-.054 0-.106.013-.153.04-.07.042-.12.108-.142.188-.02.08-.01.16.032.232l.475.816c-1.06.57-2.253.925-3.518 1.01v-1.152c0-.32-.26-.58-.58-.58s-.58.26-.58.58v1.15c-1.246-.08-2.42-.428-3.47-.983l.47-.818c.04-.07.05-.153.03-.232-.02-.08-.072-.145-.143-.186-.047-.027-.098-.04-.152-.04-.11 0-.212.058-.267.153l-.47.818c-1.045-.652-1.943-1.52-2.63-2.542l.995-.574c.277-.16.372-.515.212-.792s-.514-.372-.79-.212l-.998.575c-.524-1.06-.838-2.245-.885-3.496l.945-.003c.082 0 .16-.03.216-.09.058-.057.09-.134.09-.216-.002-.168-.14-.306-.307-.306l-.947.003c.04-1.27.354-2.472.886-3.55l.997.576c.09.053.19.078.29.078.2 0 .394-.104.5-.29.16-.276.066-.63-.21-.79l-.996-.575c.677-1.008 1.56-1.866 2.586-2.515l.474.815c.027.047.065.085.112.112.093.054.212.054.306 0 .07-.042.122-.108.142-.188.02-.08.01-.16-.03-.232l-.476-.816c1.06-.57 2.252-.925 3.518-1.01v1.152c0 .32.26.58.58.58s.578-.26.578-.58v-1.15c1.246.08 2.422.428 3.47.983l-.47.82c-.083.147-.032.334.114.418.047.027.098.04.152.04.11 0 .212-.058.266-.153l.47-.818c1.045.652 1.943 1.52 2.63 2.542l-.995.574c-.277.16-.372.514-.212.79.107.187.302.29.502.29.098 0 .198-.025.29-.078l.996-.575c.525 1.063.84 2.247.886 3.498l-.945.003c-.08 0-.158.033-.216.09-.057.06-.09.136-.09.218 0 .11.06.21.155.265.045.027.097.04.15.04h.002l.946-.003c-.04 1.27-.355 2.473-.887 3.55l-.996-.574c-.277-.16-.63-.065-.79.212-.16.277-.066.63.21.79l.996.575c-.675 1.006-1.557 1.864-2.584 2.513zM71.78 18.86l-3.714 2.06c-.17-.088-.36-.14-.565-.14-.203 0-.395.052-.564.14l-3.713-2.06c-.35-.194-.794-.067-.99.284-.194.35-.067.794.284.99l3.79 2.1c.11.562.602.985 1.195.985.593 0 1.086-.424 1.196-.985l3.79-2.102c.35-.195.477-.637.282-.99-.197-.35-.64-.477-.99-.282zm0 0"/>
</svg>