<svg xmlns="http://www.w3.org/2000/svg" width="70" height="350" viewBox="0 0 70 350">
  <style>
    .st1{fill:#009245;} .st2{fill:#FFFFFF;} .st3{fill:#666666;} .st4{fill:#CCCCCC;} .st5{fill:#333333;} .st6{fill:#4D4D4D;} .st7{fill:#FAC73E;} .st8{opacity:0.2;}
  </style>
  <g id="Completed_2_">
    <path d="M35 20.7c-7.9 0-14.3 6.4-14.3 14.3S27.1 49.3 35 49.3 49.3 42.9 49.3 35 42.9 20.7 35 20.7z" class="st1"/>
    <path d="M33.6 41.7l-5.8-5.8 2.8-2.8 3 3 7.1-7.1 2.8 2.8-9.9 9.9z" class="st2"/>
  </g>
  <g id="Dot_1_">
    <path d="M35 90.7c-7.9 0-14.3 6.4-14.3 14.3s6.4 14.3 14.3 14.3 14.3-6.4 14.3-14.3S42.9 90.7 35 90.7z" class="st3"/>
    <circle cx="35" cy="104.9" r="5" class="st4"/>
  </g>
  <g id="Marker_1_">
    <path d="M35 150c-9 0-16.3 7.2-16.3 16.1S34 199.2 34 199.2c.6 1 1.6 1 2.1 0 0 0 15.3-24.2 15.3-33.1C51.3 157.2 44 150 35 150z" class="st5"/>
    <path d="M35.3 200c0-.3.1.2.7-.7 0 0 15.3-24.2 15.3-33.1 0-8.9-7-16.1-16-16.1V200z" class="st6"/>
    <circle cx="35.3" cy="166" r="6" class="st7"/>
  </g>
  <g id="Flag_2_">
    <path d="M36.3 237.2H33v-2.6h3.3v2.6zm6.5-2.7h-3.3v2.6h3.3v-2.6zm-9.8 2.7h-3.3v2.6H33v-2.6zm6.6 0h-3.3v2.6h3.3v-2.6zm6.5 0h-3.3v2.6h3.3v-2.6zM33 242.4h-3.3v2.6H33v-2.6zm6.6 0h-3.3v2.6h3.3v-2.6zm6.5 0h-3.3v2.6h3.3v-2.6zm-9.8-2.6H33v2.6h3.3v-2.6zm6.5 0h-3.3v2.6h3.3v-2.6z" class="st2"/>
    <path d="M33 237.2h-3.3v-2.6H33v2.6zm6.6-2.7h-3.3v2.6h3.3v-2.6zm6.5 0h-3.3v2.6h3.3v-2.6zm-9.8 2.7H33v2.6h3.3v-2.6zm6.5 0h-3.3v2.6h3.3v-2.6zm-6.5 5.2H33v2.6h3.3v-2.6zm6.5 0h-3.3v2.6h3.3v-2.6zm-9.8-2.6h-3.3v2.6H33v-2.6zm6.6 0h-3.3v2.6h3.3v-2.6zm6.5 0h-3.3v2.6h3.3v-2.6zm-16.3-6.6h-2v22.2h2v-22.2z"/>
    <ellipse id="Shadow_1_" cx="29.1" cy="255.5" class="st8" rx="5.2" ry="1.3"/>
  </g>
  <path d="M49.3 315c0-7.9-6.4-14.3-14.3-14.3s-14.3 6.4-14.3 14.3 6.4 14.3 14.3 14.3 14.3-6.4 14.3-14.3z" class="st3"/>
  <path d="M27.5 315c0 .8.7 1.5 1.5 1.5h8.4l-2.3 2.3c-.6.6-.6 1.6-.1 2.2.6.6 1.5.5 2.2-.1l4.7-4.7c.6-.6.6-1.6.1-2.2l-.1-.1-4.7-4.7c-.6-.6-1.6-.6-2.1-.1-.6.6-.6 1.5.1 2.1l2.3 2.3H29c-.8 0-1.5.7-1.5 1.5zm0 0" class="st2"/>
</svg>
