<svg xmlns="http://www.w3.org/2000/svg" width="80" height="27" viewBox="0 0 80 27">
  <style>
    .st1{fill:#515150;} .st2{fill:url(#SVGID_1_);} .st3{fill:url(#SVGID_2_);} .st4{fill:url(#SVGID_3_);} .st5{fill:none;} .st6{fill:url(#SVGID_4_);} .st7{fill:#72C2AD;} .st8{fill:url(#SVGID_5_);} .st9{fill:url(#SVGID_6_);} .st10{fill:url(#SVGID_7_);} .st11{fill:url(#SVGID_8_);}
  </style>
  <path class="st1" d="M5.4 22.6l-.6 2.7H3.5L3 23.8c-.1-.3-.1-.5-.1-.7 0 .2-.1.4-.1.7l-.5 1.5H.9l-.6-2.7H0v-.8h1.2l.3 1.7c.1.3.1.6.1.8.1-.2.1-.5.2-.8l.4-1.2h1.1l.4 1.2c.1.3.1.6.2.8 0-.2.1-.5.1-.8l.3-1.7h1.2v.8h-.1zm3 2.7v-2.2c0-.4-.1-.6-.5-.6-.3 0-.5.1-.7.2v1.8h.3v.8H5.9v-.8h.3v-3.2h-.3v-.8h1.4v1.4c.3-.1.7-.2 1.1-.2 1 0 1.2.6 1.2 1.4v1.4h.3v.8H8.4zm2.6-1.5c0 .5.1.7.8.7.4 0 1 0 1.3-.1v.7c-.3.1-.8.2-1.4.2-1.3 0-1.8-.5-1.8-1.7v-.3c0-1.2.6-1.7 1.7-1.7 1.3 0 1.7.9 1.7 1.8v.4H11zm1.3-.6c0-.4-.1-.7-.6-.7s-.6.3-.6.7h1.2zm2.6-.4v1.7h.3v.8h-1.6v-.8h.3v-1.9h-.3v-.8h1.3v.3c.3-.3.8-.4 1.2-.4v.9c-.5 0-.9.1-1.2.2zm2.4 1c0 .5.1.7.8.7.4 0 1 0 1.3-.1v.7c-.3.1-.8.2-1.4.2-1.3 0-1.8-.5-1.8-1.7v-.3c0-1.2.6-1.7 1.7-1.7 1.3 0 1.7.9 1.7 1.8v.4h-2.3zm1.2-.6c0-.4-.1-.7-.6-.7s-.6.3-.6.7h1.2zm3.9 3.4c-1.1 0-1.7-.3-1.7-1.1 0-.2.1-.5.3-.7-.2-.1-.3-.3-.3-.5s.1-.4.3-.5c-.2-.2-.3-.5-.3-.8 0-.7.3-1.2 1.6-1.2h1.8v.6l-.3.1c.1.1.2.3.2.6 0 .9-.6 1.2-1.6 1.2-.3 0-.5 0-.7-.1-.1 0-.1.1-.1.2s.1.2.3.2h.5c1.2 0 1.8.2 1.8 1.1 0 .6-.7.9-1.8.9zm0-1.5h-.6c-.1.1-.2.2-.2.4 0 .3.1.5.7.5s.7-.1.7-.5c.1-.3 0-.4-.6-.4zm0-2.7c-.5 0-.6.2-.6.5s.1.5.6.5.6-.2.6-.5-.1-.5-.6-.5zm3.7 3c-1.1 0-1.7-.5-1.7-1.7v-.4c0-1.2.6-1.7 1.7-1.7s1.7.5 1.7 1.7v.4c0 1.2-.6 1.7-1.7 1.7zm.7-2.1c0-.6-.2-.8-.6-.8-.4 0-.6.2-.6.8v.4c0 .6.2.8.6.8.4 0 .6-.2.6-.8v-.4zm3 2.1c-1.1 0-1.7-.5-1.7-1.7v-.4c0-1.2.6-1.7 1.7-1.7s1.7.5 1.7 1.7v.4c0 1.2-.6 1.7-1.7 1.7zm.6-2.1c0-.6-.2-.8-.6-.8-.4 0-.6.2-.6.8v.4c0 .6.2.8.6.8.4 0 .6-.2.6-.8v-.4zm3.7 2v-.2c-.2.2-.6.3-1 .3-.8 0-1.3-.5-1.3-1.6v-.4c0-1.2.6-1.7 1.6-1.7h.7v-.6h-.3v-.7h1.4v4h.3v.8h-1.4zm0-2.7h-.5c-.4 0-.7.1-.7.8v.4c0 .6.2.8.6.8.2 0 .4 0 .6-.1v-1.9zm4.1 2.8c-.7 0-1.1-.3-1.1-1.1v-1.8l-.6-.1v-.7h.6v-.9h1.1v.9h.8v.8h-.8v1.7c0 .3 0 .3.3.3h.5v.7c-.1.1-.4.2-.8.2zm3.5-.1v-2.2c0-.4-.1-.6-.5-.6-.3 0-.5.1-.7.2v1.8h.3v.8h-1.6v-.8h.3v-3.2h-.3v-.8h1.4v1.4c.3-.1.7-.2 1.1-.2 1 0 1.2.6 1.2 1.4v1.4h.3v.8h-1.5zm1.6 0v-.8h.3v-1.9h-.3v-.8h1.4v2.7h.3v.8h-1.7zm.3-4v-.8h1.1v.8h-1.1zm4 4v-2.2c0-.4-.1-.6-.4-.6-.2 0-.5.1-.8.2v1.8h.3v.8h-1.6v-.8h.3v-1.9h-.3v-.8h1.3v.3c.4-.2.8-.4 1.1-.4 1.1 0 1.2.6 1.2 1.4v1.4h.3v.8h-1.4zm3.3 1.3c-1.1 0-1.7-.3-1.7-1.1 0-.2.1-.5.3-.7-.2-.1-.3-.3-.3-.5s.1-.4.3-.5c-.2-.2-.3-.5-.3-.8 0-.7.3-1.2 1.6-1.2h1.8v.6l-.3.1c.1.1.2.3.2.6 0 .9-.6 1.2-1.6 1.2-.3 0-.5 0-.7-.1-.1 0-.1.1-.1.2s.1.2.3.2h.5c1.2 0 1.8.2 1.8 1.1-.1.6-.7.9-1.8.9zm0-1.5h-.6c-.1.1-.2.2-.2.4 0 .3.1.5.7.5s.7-.1.7-.5c.1-.3 0-.4-.6-.4zm0-2.7c-.5 0-.6.2-.6.5s.1.5.6.5.6-.2.6-.5-.1-.5-.6-.5zm3.3 3c-.5 0-1.1-.1-1.3-.1v-.9h.7l.1.3h.4c.4 0 .5-.1.5-.3 0-.2-.1-.3-.5-.4l-.3-.1c-.7-.3-1-.5-1-1.1 0-.8.6-1 1.5-1 .5 0 1.1.1 1.3.1v.9H55l-.1-.3h-.4c-.4 0-.5 0-.5.2s.1.2.5.4l.3.1c.8.3 1 .6 1 1.1 0 .7-.5 1.1-1.6 1.1zm5.2-.1v-2.2c0-.4-.1-.6-.5-.6-.3 0-.5.1-.7.2v1.8h.3v.8h-1.6v-.8h.3v-3.2h-.3v-.8h1.4v1.4c.3-.1.7-.2 1.1-.2 1 0 1.2.6 1.2 1.4v1.4h.3v.8h-1.5zm3.8 0v-.2c-.2.2-.6.3-1.1.3-.7 0-1-.3-1-1v-.1c0-.9.7-1 1.7-1h.3V23c0-.4-.1-.5-.6-.5h-.4l-.1.3h-.7v-.9c.2-.1.8-.2 1.4-.2 1.1 0 1.5.4 1.5 1.3v1.5h.3v.8h-1.3zm-.1-1.5h-.4c-.5 0-.7.1-.7.5v.1c0 .3.2.3.4.3.3 0 .5-.1.7-.2v-.7zm1.5 2.8v-.8h.3v-3.2h-.3v-.8h1.3v.2c.3-.2.7-.3 1-.3.8 0 1.3.4 1.3 1.6v.4c0 1.2-.6 1.7-1.6 1.7-.2 0-.5 0-.6-.1v.4h.3v.8h-1.7zm2.5-3.3c0-.6-.2-.8-.6-.8-.2 0-.4 0-.6.1v1.8c.2 0 .4.1.5.1.4 0 .7-.1.7-.8v-.4zm1.4 3.3v-.8h.3v-3.2h-.3v-.8h1.3v.2c.3-.2.7-.3 1-.3.8 0 1.3.4 1.3 1.6v.4c0 1.2-.6 1.7-1.6 1.7-.2 0-.5 0-.6-.1v.4h.3v.8h-1.7zm2.5-3.3c0-.6-.2-.8-.6-.8-.2 0-.4 0-.6.1v1.8c.2 0 .4.1.5.1.4 0 .7-.1.7-.8v-.4zm2.4.5c0 .5.1.7.8.7.4 0 1 0 1.3-.1v.7c-.3.1-.8.2-1.4.2-1.3 0-1.8-.5-1.8-1.7v-.3c0-1.2.6-1.7 1.7-1.7 1.3 0 1.7.9 1.7 1.8v.4h-2.3zm1.3-.6c0-.4-.1-.7-.6-.7s-.6.3-.6.7h1.2zm3.7 2.1v-2.2c0-.4-.1-.6-.4-.6-.2 0-.5.1-.8.2v1.8h.3v.8h-1.6v-.8h.3v-1.9h-.3v-.8h1.3v.3c.4-.2.8-.4 1.1-.4 1.1 0 1.2.6 1.2 1.4v1.4h.3v.8h-1.4z"/>
  <g id="Ucan_Logo_2_">
    <path class="st1" d="M12.8 1v1.9l-.9.1v5.9c0 3.8-1.9 5.7-5.2 5.7-3.4 0-5.2-1.9-5.2-5.7V3l-1-.1V1h4.3v1.9l-.9.1v5.8c0 2.7.6 3.7 2.8 3.7 2.1 0 2.8-1 2.8-3.7V3l-1-.1V1h4.3zM17 14.6c-2.9 0-4.3-1.6-4.3-4.7V8.6C12.8 5.5 14.1 4 17 4c1.5 0 2.7.2 3.1.4v2.5h-1.6l-.1-.9h-1c-1.4 0-2.3.5-2.3 2.6v1.3c0 2.2.8 2.7 2.3 2.7.6 0 1.5 0 2.7-.1v1.8c-.4 0-1.5.3-3.1.3m10.1-.3v-.7c-.6.4-1.8.9-3.2.9-1.9 0-3-.9-3-2.9v-.4c0-2.7 1.9-3.1 4.8-3.1h1.2v-.5c0-1.4-.3-1.7-2.1-1.7-.5 0-.9 0-1.4.1l-.2.9h-1.6V4.5c.4-.2 1.9-.5 3.6-.5 3.2 0 4.1 1.1 4.1 3.7v4.7l.9.1v1.9h-3.1zM27 9.7h-1.3c-1.7 0-2.5.2-2.5 1.5v.4c0 .9.6 1.2 1.4 1.2 1 0 2-.4 2.3-.6V9.7zm11.2 4.6V7.9c0-1.5-.3-2-1.4-2-.7 0-1.6.3-2.7.7v5.7l.9.1v1.9h-4.1v-1.9l.9-.1V6.2l-.9-.1V4.2H34V5c1.1-.6 2.2-1 3.3-1 2.9 0 3.2 1.7 3.2 3.9v4.4l.9.1v1.9h-3.2z"/>
    <linearGradient id="SVGID_1_" gradientUnits="userSpaceOnUse" x1="41.945" y1="7.461" x2="51.677" y2="7.461">
      <stop offset="0" stop-color="#73C2AE"/>
      <stop offset=".534" stop-color="#73C2AE"/>
      <stop offset="1" stop-color="#73C2AE"/>
    </linearGradient>
    <path class="st2" d="M44.3 10.1V8.6c0-2.3.8-2.7 2.2-2.7.5 0 1.2.1 1.9.2v6c-.6.3-1.3.4-2.1.4-1.4.1-2-.6-2-2.4M47.4.4V2l1 .1v2c-.7-.1-1.3-.1-2.1-.1-2.6 0-4.4 1.1-4.4 4.7v1.4c0 3.1 1.4 4.5 3.8 4.5 1.2 0 2.2-.3 2.8-.8v.5h3.1v-1.9l-.9-.1V.3h-3.3z"/>
    <linearGradient id="SVGID_2_" gradientUnits="userSpaceOnUse" x1="52.2" y1="9.257" x2="61.339" y2="9.257">
      <stop offset="0" stop-color="#73C2AE"/>
      <stop offset=".534" stop-color="#73C2AE"/>
      <stop offset="1" stop-color="#73C2AE"/>
    </linearGradient>
    <path class="st3" d="M54.6 9.9V8.6c0-1.9.7-2.7 2.2-2.7 1.5.1 2.2.8 2.2 2.7v1.2c0 1.9-.7 2.7-2.2 2.7-1.6.1-2.2-.7-2.2-2.6m-2.4-1.3v1.2c0 3.2 1.6 4.7 4.6 4.7 3 0 4.6-1.5 4.6-4.7V8.6c0-3.2-1.6-4.7-4.6-4.7-3 .1-4.6 1.6-4.6 4.7"/>
    <linearGradient id="SVGID_3_" gradientUnits="userSpaceOnUse" x1="62.916" y1="9.033" x2="65.196" y2="9.033">
      <stop offset="0" stop-color="#73C2AE"/>
      <stop offset=".534" stop-color="#73C2AE"/>
      <stop offset="1" stop-color="#73C2AE"/>
    </linearGradient>
    <path class="st4" d="M62.9 8.1h2.3V10h-2.3V8.1z"/>
    <path class="st5" d="M62.9 8.1h2.3V10h-2.3z"/>
    <linearGradient id="SVGID_4_" gradientUnits="userSpaceOnUse" x1="65.924" y1="7.336" x2="70.071" y2="7.336">
      <stop offset="0" stop-color="#73C2AE"/>
      <stop offset=".534" stop-color="#73C2AE"/>
      <stop offset="1" stop-color="#73C2AE"/>
    </linearGradient>
    <path class="st6" d="M65.9 4.2v1.9l.9.1v6.2l-.9.1v1.9H70v-1.9l-.9-.1V4.2h-3.2zm.9-1.6h2.5V.4h-2.5v2.2z"/>
    <path class="st7" d="M71.9 1.7v2.5H70v1.7l1.9.1v5.6c0 2.1.8 2.9 2.8 2.9.9 0 1.8-.2 2-.3v-1.6c-.3 0-1 .1-1.5.1-.9 0-.9-.2-.9-1.1V6.1h2.5V4.2h-2.5V1.7h-2.4zm6.9 12.9c-.7 0-1.2-.6-1.2-1.2 0-.7.6-1.2 1.2-1.2.7 0 1.2.6 1.2 1.2 0 .7-.6 1.2-1.2 1.2"/>
  </g>
</svg>