<svg xmlns="http://www.w3.org/2000/svg" xmlns:xlink="http://www.w3.org/1999/xlink" viewBox="0 0 770 532" width="770" height="532">
  <path fill="#9EC46A" d="M0 0h770v532H0z"/>
  <ellipse opacity=".2" cx="233.149" cy="190.171" rx="7.971" ry="1.486"/>
  <path fill="#6B4322" d="M231.676 179.588h2.742v10.968h-2.742z"/>
  <path fill="#7E9633" d="M246.07 167.655c0-6.734-6.806-18.418-13.316-20.215-.973-1.027-1.727-1.363-2.5-1.425-2.933-.238-4.974 2.38-4.988 5.32-2.362.008-4.278 1.924-4.278 4.29 0 .696.17 1.35.464 1.934-.37-.107-.76-.167-1.166-.167-2.366 0-4.287 1.922-4.287 4.29 0 1.74 1.035 3.235 2.527 3.907-.684.76-1.102 1.76-1.102 2.864 0 1.44.71 2.71 1.796 3.487-.676.87-1.084 1.962-1.084 3.152 0 2.836 2.3 5.135 5.136 5.135.772 0 1.5-.176 2.157-.48.923 1.365 2.485 2.262 4.257 2.262 1.198 0 2.295-.413 3.168-1.1 7.304-.025 13.216-5.95 13.216-13.255"/>
  <path fill="#6B7C25" d="M246.443 167.45c1.61-.884 2.7-2.597 2.7-4.564 0-2.124-1.27-3.946-3.09-4.76.153-.448.24-.93.24-1.432 0-2.462-1.994-4.455-4.452-4.455-.224 0-.443.02-.658.054.05-.253.077-.513.077-.78 0-2.25-1.825-4.074-4.075-4.074-.706 0-1.087.18-1.665.497-.805-.317-2.197-.497-2.197-.497v33.468l-.224.004c1.17 0 2.165-.155 3.248-.44.67.736 1.563 1.203 2.637 1.203 2.028 0 3.636-1.642 3.636-3.67 0-.18-.034-.36-.06-.532l.033.002c3.18 0 5.755-2.577 5.755-5.758-.002-1.695-.742-3.212-1.905-4.266"/>
  <ellipse opacity=".2" cx="67.763" cy="164.212" rx="19.608" ry="3.471"/>
  <path fill="#6B503D" d="M65.027 151.576h5.47v12.636h-5.47z"/>
  <path fill="#7E9633" d="M92.273 129.97c0 12.935-10.487 23.423-23.424 23.423s-23.425-10.488-23.425-23.424c0-12.938 11.813-46.702 24.75-46.702s22.098 33.764 22.098 46.7z"/>
  <path fill="#6B7C25" d="M72.73 83.728c.02.244.032.496.025.76-.098 3.91-.803 7.988-.057 11.864.555 2.885 1.41 5.91 1.46 8.865.05 3.167-.308 6.477-1.995 9.253-1.134 1.868-2.814 3.586-3.69 5.592-2.81 6.438 2.198 13.883 1.777 20.373-.238 3.66-1.107 6.89-2.455 10-.334.963-.715 1.907-1.127 2.847.718.065 1.444.11 2.18.11 12.937 0 23.424-10.488 23.424-23.424 0-12.066-7.973-42.235-19.543-46.24z"/>
  <ellipse opacity=".2" cx="98.526" cy="169.228" rx="13.274" ry="2.349"/>
  <path fill="#6B503D" d="M96.675 160.675h3.703v8.554h-3.703z"/>
  <path fill="#7E9633" d="M115.118 146.048c0 8.757-7.1 15.856-15.857 15.856-8.756 0-15.855-7.1-15.855-15.856 0-8.758 7.997-31.613 16.754-31.613s14.958 22.856 14.958 31.613z"/>
  <path fill="#6B7C25" d="M101.888 114.746c.014.165.022.336.018.514-.066 2.647-.543 5.408-.04 8.032.377 1.953.956 4 .99 6 .033 2.145-.21 4.385-1.35 6.265-.77 1.264-1.906 2.428-2.498 3.785-1.903 4.358 1.487 9.398 1.202 13.79-.16 2.48-.75 4.665-1.662 6.77-.226.652-.484 1.29-.763 1.927.486.043.978.073 1.476.073 8.76 0 15.858-7.1 15.858-15.856 0-8.167-5.397-28.59-13.23-31.3z"/>
  <ellipse opacity=".2" cx="172.712" cy="59.614" rx="9.925" ry="1.757"/>
  <path fill="#6B503D" d="M171.327 53.218h2.77v6.396h-2.77z"/>
  <path fill="#7E9633" d="M185.118 42.28c0 6.55-5.308 11.857-11.857 11.857-6.547 0-11.855-5.31-11.855-11.856 0-6.547 5.98-23.638 12.528-23.638s11.185 17.09 11.185 23.64z"/>
  <path fill="#6B7C25" d="M175.226 18.875c.01.124.017.25.013.384-.05 1.978-.407 4.043-.03 6.005.28 1.46.714 2.992.74 4.487.025 1.603-.157 3.278-1.01 4.684-.574.945-1.424 1.815-1.867 2.83-1.423 3.26 1.112 7.027.9 10.312-.12 1.853-.56 3.487-1.244 5.062-.17.488-.363.965-.572 1.44.363.034.73.057 1.104.057 6.548 0 11.857-5.31 11.857-11.856-.002-6.107-4.038-21.377-9.894-23.405z"/>
  <ellipse opacity=".2" cx="136.712" cy="492.613" rx="9.925" ry="1.757"/>
  <path fill="#6B503D" d="M135.327 486.218h2.77v6.396h-2.77z"/>
  <path fill="#7E9633" d="M149.118 475.28c0 6.55-5.308 11.857-11.857 11.857-6.547 0-11.855-5.31-11.855-11.856 0-6.547 5.98-23.637 12.528-23.637s11.185 17.09 11.185 23.638z"/>
  <path fill="#6B7C25" d="M139.226 451.875c.01.124.017.25.013.384-.05 1.978-.407 4.043-.03 6.005.28 1.46.714 2.992.74 4.487.025 1.603-.157 3.278-1.01 4.684-.574.945-1.424 1.815-1.867 2.83-1.423 3.26 1.112 7.027.9 10.312-.12 1.853-.56 3.487-1.244 5.062-.17.488-.363.965-.572 1.44.363.034.73.057 1.104.057 6.548 0 11.857-5.31 11.857-11.856-.002-6.107-4.038-21.377-9.894-23.405z"/>
  <ellipse opacity=".2" cx="643.442" cy="134.857" rx="11.763" ry="2.082"/>
  <path fill="#6B503D" d="M641.8 127.277h3.283v7.58H641.8z"/>
  <path fill="#7E9633" d="M658.146 114.315c0 7.76-6.29 14.05-14.052 14.05-7.76 0-14.05-6.29-14.05-14.05 0-7.76 7.086-28.015 14.846-28.015s13.256 20.254 13.256 28.015z"/>
  <path fill="#6B7C25" d="M646.42 86.576c.014.147.02.298.017.456-.06 2.345-.482 4.793-.034 7.118.333 1.73.847 3.546.875 5.318.03 1.9-.184 3.885-1.196 5.55-.68 1.12-1.688 2.152-2.213 3.355-1.687 3.862 1.317 8.328 1.064 12.22-.143 2.197-.664 4.134-1.473 6-.2.578-.428 1.144-.675 1.708.43.04.866.067 1.308.067 7.76 0 14.052-6.29 14.052-14.05 0-7.24-4.783-25.338-11.724-27.74z"/>
  <ellipse opacity=".2" cx="457.373" cy="391.106" rx="11.848" ry="2.097"/>
  <path fill="#6B503D" d="M455.72 383.47h3.306v7.636h-3.306z"/>
  <path fill="#7E9633" d="M472.184 370.415c0 7.817-6.337 14.154-14.154 14.154s-14.154-6.338-14.154-14.155c0-7.817 7.138-28.22 14.955-28.22 7.818 0 13.354 20.403 13.354 28.22z"/>
  <path fill="#6B7C25" d="M460.374 342.474c.013.148.02.3.016.46-.06 2.36-.485 4.827-.034 7.17.335 1.742.853 3.57.882 5.356.03 1.914-.186 3.914-1.205 5.59-.686 1.13-1.7 2.168-2.23 3.38-1.698 3.89 1.33 8.39 1.074 12.31-.144 2.212-.67 4.163-1.484 6.043-.202.582-.432 1.152-.68 1.72.433.04.872.066 1.316.066 7.816 0 14.153-6.338 14.153-14.155 0-7.29-4.817-25.52-11.81-27.94z"/>
  <ellipse opacity=".2" cx="683.719" cy="91.275" rx="16.589" ry="2.936"/>
  <path fill="#6B503D" d="M681.405 80.585h4.628v10.69h-4.628z"/>
  <path fill="#7E9633" d="M704.456 62.305c0 10.944-8.873 19.817-19.818 19.817-10.944 0-19.817-8.873-19.817-19.817 0-10.945 9.996-39.51 20.94-39.51s18.696 28.565 18.696 39.51z"/>
  <path fill="#6B7C25" d="M687.92 23.183c.02.207.03.42.023.643-.083 3.308-.68 6.76-.048 10.04.47 2.44 1.194 5 1.235 7.5.043 2.68-.26 5.48-1.687 7.827-.96 1.58-2.38 3.034-3.12 4.73-2.38 5.448 1.858 11.747 1.502 17.237-.2 3.097-.936 5.83-2.077 8.46-.282.815-.605 1.613-.954 2.41.608.054 1.222.092 1.845.092 10.944 0 19.817-8.873 19.817-19.817 0-10.21-6.748-35.733-16.536-39.122z"/>
  <g>
    <ellipse opacity=".2" cx="274.752" cy="202.659" rx="12.554" ry="2.34"/>
    <path fill="#6B4322" d="M272.34 184.035h4.656v18.625h-4.656z"/>
    <path fill="#7E9633" d="M296.783 163.772c0-11.435-11.558-31.274-22.613-34.326-1.653-1.744-2.933-2.314-4.244-2.42-4.98-.404-8.445 4.042-8.47 9.033-4.01.012-7.263 3.266-7.263 7.282 0 1.183.29 2.295.79 3.286-.63-.18-1.29-.282-1.98-.282-4.02 0-7.28 3.263-7.28 7.286 0 2.953 1.76 5.49 4.29 6.633-1.16 1.292-1.87 2.99-1.87 4.863 0 2.446 1.205 4.6 3.05 5.92-1.15 1.48-1.842 3.332-1.842 5.35 0 4.816 3.907 8.72 8.722 8.72 1.31 0 2.548-.298 3.662-.814 1.57 2.318 4.222 3.84 7.23 3.84 2.034 0 3.896-.7 5.38-1.866 12.4-.04 22.44-10.1 22.44-22.506"/>
    <path fill="#6B7C25" d="M297.414 163.426c2.733-1.503 4.586-4.41 4.586-7.75 0-3.607-2.157-6.7-5.25-8.082.26-.763.408-1.58.408-2.433 0-4.18-3.385-7.564-7.56-7.564-.38 0-.753.035-1.12.093.084-.43.132-.873.132-1.325 0-3.82-3.097-6.918-6.918-6.918-1.2 0-1.846.305-2.827.843-1.367-.54-3.73-.843-3.73-.843v56.83l-.38.006c1.99 0 3.677-.263 5.516-.747 1.14 1.25 2.655 2.042 4.48 2.042 3.443 0 6.173-2.79 6.173-6.232 0-.308-.06-.61-.103-.904.026 0 .034.003.054.003 5.4 0 9.772-4.376 9.772-9.777 0-2.876-1.255-5.454-3.232-7.242"/>
  </g>
  <g>
    <ellipse opacity=".2" cx="616.452" cy="460.025" rx="13.591" ry="2.533"/>
    <path fill="#6B4322" d="M613.84 439.862h5.042v20.162h-5.04z"/>
    <path fill="#7E9633" d="M640.302 417.926c0-12.38-12.512-33.856-24.48-37.16-1.788-1.888-3.174-2.505-4.594-2.62-5.39-.437-9.143 4.376-9.168 9.78-4.34.013-7.864 3.535-7.864 7.884 0 1.28.312 2.485.854 3.557-.682-.194-1.397-.305-2.143-.305-4.35 0-7.88 3.533-7.88 7.888 0 3.196 1.904 5.945 4.646 7.18-1.258 1.4-2.025 3.238-2.025 5.264 0 2.648 1.305 4.98 3.302 6.41-1.244 1.6-1.994 3.606-1.994 5.792 0 5.212 4.23 9.44 9.44 9.44 1.42 0 2.76-.324 3.966-.882 1.7 2.51 4.57 4.158 7.827 4.158 2.2 0 4.217-.757 5.822-2.02 13.423-.046 24.29-10.935 24.29-24.366"/>
    <path fill="#6B7C25" d="M640.986 417.552c2.958-1.628 4.964-4.775 4.964-8.39 0-3.905-2.335-7.254-5.683-8.75.28-.826.44-1.71.44-2.634 0-4.525-3.664-8.19-8.184-8.19-.413 0-.816.038-1.21.1.09-.464.14-.943.14-1.432 0-4.137-3.35-7.49-7.488-7.49-1.298 0-2 .33-3.06.914-1.48-.583-4.04-.913-4.04-.913v61.522l-.41.006c2.154 0 3.98-.284 5.972-.81 1.232 1.355 2.873 2.212 4.848 2.212 3.73 0 6.684-3.02 6.684-6.746 0-.333-.065-.66-.112-.98.028 0 .036.005.06.005 5.845 0 10.578-4.737 10.578-10.584 0-3.115-1.36-5.905-3.5-7.84"/>
  </g>
  <g>
    <ellipse opacity=".2" cx="74.426" cy="461.906" rx="13.591" ry="2.533"/>
    <path fill="#6B4322" d="M71.816 441.744h5.04v20.162h-5.04z"/>
    <path fill="#7E9633" d="M98.277 419.808c0-12.38-12.512-33.856-24.48-37.16-1.788-1.888-3.174-2.505-4.594-2.62-5.39-.437-9.142 4.376-9.168 9.78-4.34.013-7.864 3.535-7.864 7.884 0 1.28.313 2.485.855 3.557-.682-.195-1.397-.306-2.143-.306-4.35 0-7.88 3.533-7.88 7.888 0 3.196 1.904 5.945 4.646 7.18-1.258 1.4-2.025 3.238-2.025 5.264 0 2.648 1.305 4.98 3.302 6.41-1.244 1.6-1.994 3.606-1.994 5.792 0 5.212 4.23 9.44 9.442 9.44 1.42 0 2.76-.324 3.965-.882 1.7 2.51 4.57 4.158 7.827 4.158 2.202 0 4.218-.757 5.823-2.02 13.422-.046 24.29-10.936 24.29-24.366"/>
    <path fill="#6B7C25" d="M98.96 419.433c2.958-1.628 4.964-4.775 4.964-8.39 0-3.905-2.335-7.254-5.683-8.75.282-.826.442-1.71.442-2.634 0-4.526-3.665-8.19-8.185-8.19-.413 0-.816.037-1.21.1.09-.465.14-.944.14-1.433 0-4.137-3.35-7.49-7.488-7.49-1.3 0-2 .33-3.062.914-1.48-.582-4.04-.912-4.04-.912v61.522l-.41.007c2.155 0 3.982-.284 5.973-.81 1.233 1.355 2.874 2.212 4.85 2.212 3.728 0 6.683-3.02 6.683-6.747 0-.333-.064-.66-.11-.98.027 0 .035.005.058.005 5.847 0 10.58-4.737 10.58-10.584 0-3.114-1.36-5.905-3.5-7.84"/>
  </g>
  <g>
    <ellipse opacity=".2" cx="677.312" cy="404.61" rx="9.313" ry="1.736"/>
    <path fill="#6B4322" d="M675.59 392.244h3.205v12.815h-3.204z"/>
    <path fill="#7E9633" d="M692.41 378.302c0-7.868-7.953-21.52-15.56-23.62-1.136-1.2-2.017-1.59-2.92-1.664-3.426-.278-5.81 2.78-5.826 6.216-2.76.01-4.998 2.248-4.998 5.01 0 .815.2 1.58.543 2.262-.434-.124-.89-.194-1.363-.194-2.765 0-5.01 2.245-5.01 5.014 0 2.032 1.212 3.78 2.954 4.564-.8.89-1.286 2.058-1.286 3.346 0 1.683.83 3.165 2.1 4.074-.792 1.017-1.268 2.292-1.268 3.68 0 3.314 2.688 6 6 6 .903 0 1.754-.204 2.52-.56 1.08 1.596 2.906 2.644 4.976 2.644 1.4 0 2.68-.48 3.7-1.284 8.53-.03 15.438-6.952 15.438-15.488"/>
    <path fill="#6B7C25" d="M692.845 378.064c1.88-1.034 3.155-3.035 3.155-5.333 0-2.48-1.484-4.61-3.612-5.56.18-.525.28-1.087.28-1.674 0-2.876-2.33-5.205-5.202-5.205-.262 0-.518.025-.77.065.057-.296.09-.6.09-.91 0-2.63-2.13-4.76-4.76-4.76-.825 0-1.27.21-1.945.58-.94-.372-2.566-.58-2.566-.58v39.102l-.26.004c1.37 0 2.53-.18 3.795-.513.782.86 1.825 1.405 3.08 1.405 2.37 0 4.248-1.92 4.248-4.288 0-.212-.04-.42-.07-.622l.036.002c3.716 0 6.724-3.01 6.724-6.727 0-1.98-.863-3.753-2.223-4.983"/>
  </g>
  <g>
    <path fill="#29ABE2" d="M245.885 380.48c-3.968-.666-7.217-1.4-7.22-1.632l-.02-.21c-1.31-13.95-26.588-22.98-56.46-20.172-29.87 2.808-53.024 16.39-51.713 30.34.84 8.92 20.044 16.29 20.044 16.29 3.756 1.44 5.09 5.415 2.963 8.83 0 0-3.044 4.888-2.5 10.673 1.928 20.52 39.12 33.807 83.068 29.676 43.95-4.13 78.013-24.115 76.085-44.636-1.756-18.687-64.248-29.16-64.248-29.16z"/>
    <defs>
      <path id="a" d="M245.885 380.48c-3.968-.666-7.217-1.4-7.22-1.632l-.02-.21c-1.31-13.95-26.588-22.98-56.46-20.172-29.87 2.808-53.024 16.39-51.713 30.34.84 8.92 20.044 16.29 20.044 16.29 3.756 1.44 5.09 5.415 2.963 8.83 0 0-3.044 4.888-2.5 10.673 1.928 20.52 39.12 33.807 83.068 29.676 43.95-4.13 78.013-24.115 76.085-44.636-1.756-18.687-64.248-29.16-64.248-29.16z"/>
    </defs>
    <clipPath id="b">
      <use xlink:href="#a" overflow="visible"/>
    </clipPath>
    <path opacity=".1" clip-path="url(#b)" d="M130.428 372.914s72.42 77.215 181.72 46.964-21.112 38.328-21.112 38.328L172.76 470.342l-34.993-28.854-14.622-37.797 1.41-19.224 5.873-11.552z"/>
  </g>
  <g>
    <path fill="#29ABE2" d="M560.138 460.268c-2.96 16.8-24.057 23.3-39.074 20.268-13.12-2.19-24.424-5.387-36.74-10.39-.97-.883-1.982-2.69-2.95-3.572-3.203-9.115-1.764-18.44 4.398-26.122 7.09-7.725 17.26-9.106 27.51-8.64 4.682.716 8.478 2.398 12.233 3.156 10.377 3.24 18.136 10.298 28.554 14.46 1.897.842 2.91 2.648 3.88 3.53.97.883 1.98 2.69 2.022 3.614.04.924.124 2.772.166 3.696z"/>
    <defs>
      <path id="c" d="M560.138 460.268c-2.96 16.8-24.057 23.3-39.074 20.268-13.12-2.19-24.424-5.387-36.74-10.39-.97-.883-1.982-2.69-2.95-3.572-3.203-9.115-1.764-18.44 4.398-26.122 7.09-7.725 17.26-9.106 27.51-8.64 4.682.716 8.478 2.398 12.233 3.156 10.377 3.24 18.136 10.298 28.554 14.46 1.897.842 2.91 2.648 3.88 3.53.97.883 1.98 2.69 2.022 3.614.04.924.124 2.772.166 3.696z"/>
    </defs>
    <clipPath id="d">
      <use xlink:href="#c" overflow="visible"/>
    </clipPath>
    <path opacity=".09" clip-path="url(#d)" d="M454.316 441.833s70.004 45.892 151.947 6.226.538 31.087.538 31.087l-88.514 31.68-37.79-9.725-16.902-19.882-11.763-31.226 2.486-8.16z"/>
  </g>
  <g>
    <path fill="#6B8C04" d="M657.76 289.9s1.942.902 2.258 2.575c.315 1.674-.133 2.74-.133 2.74s-1.668-.42-2.406-1.917c-.74-1.494.28-3.397.28-3.397zM654.575 297.852s.986-1.29 2.28-1.25c1.295.044 2.008.553 2.008.553s-.585 1.166-1.814 1.468c-1.234.3-2.475-.77-2.475-.77z"/>
    <path fill="#F2ED40" d="M662.597 295.85c.066-.588-.358-1.118-.945-1.184-.03-.004-.06 0-.09 0 .016-.057.033-.113.04-.175.065-.585-.36-1.115-.944-1.182-.473-.052-.902.21-1.087.616-.166-.175-.39-.296-.647-.326-.588-.065-1.116.358-1.183.944-.026.224.023.44.123.625-.503.036-.927.427-.986.948-.065.586.355 1.114.943 1.18.13.014.252.003.37-.026-.047.1-.084.207-.097.322-.066.586.358 1.118.944 1.184.505.056.967-.25 1.128-.71.17.234.432.4.74.435.59.066 1.117-.355 1.184-.943.032-.303-.064-.59-.245-.805.396-.12.702-.466.752-.902z"/>
    <circle fill="#42BCAA" cx="659.859" cy="296.068" r=".853"/>
    <path fill="#6B8C04" d="M671.132 292.11s-1.423 1.597-3.117 1.414c-1.696-.18-2.584-.917-2.584-.917s.884-1.477 2.53-1.75c1.645-.276 3.172 1.252 3.172 1.252zM664.445 286.757s.952 1.318.534 2.547c-.416 1.225-1.11 1.76-1.11 1.76s-.95-.9-.88-2.164c.072-1.263 1.455-2.143 1.455-2.143z"/>
    <path fill="#F2ED40" d="M664.037 295.015c.542.233 1.17-.02 1.405-.56l.028-.088c.05.03.1.064.156.087.542.234 1.17-.02 1.405-.56.188-.435.06-.92-.272-1.218.213-.11.396-.287.497-.525.234-.542-.017-1.172-.56-1.405-.207-.088-.427-.106-.634-.064.113-.492-.137-1.01-.62-1.216-.54-.232-1.17.018-1.403.56-.05.12-.075.24-.082.36-.084-.072-.176-.137-.282-.183-.543-.234-1.174.018-1.408.56-.2.467-.04.998.354 1.284-.274.096-.508.3-.632.585-.232.542.018 1.17.562 1.403.278.12.58.11.84 0 0 .414.24.807.647.982z"/>
    <circle fill="#42BCAA" cx="664.62" cy="292.332" r=".853"/>
    <path fill="#6B8C04" d="M674.126 302.016s-2.126-.238-2.957-1.724c-.832-1.488-.746-2.64-.746-2.64s1.714-.132 2.892 1.052c1.175 1.183.81 3.312.81 3.312zM674.624 293.463s-.527 1.54-1.77 1.91c-1.236.37-2.075.115-2.075.115s.183-1.293 1.255-1.968c1.07-.678 2.59-.057 2.59-.057z"/>
    <path fill="#F2ED40" d="M667.654 297.91c.124.577.692.945 1.27.82.03-.005.057-.017.088-.026.003.058.004.12.018.176.124.58.692.948 1.27.823.462-.1.787-.483.835-.93.215.115.462.158.717.104.577-.124.946-.694.82-1.27-.045-.222-.16-.41-.313-.554.466-.195.744-.697.635-1.21-.124-.58-.692-.945-1.27-.823-.128.028-.24.077-.342.143.013-.11.01-.224-.014-.337-.124-.58-.694-.947-1.27-.823-.498.106-.838.543-.845 1.03-.234-.166-.535-.24-.838-.175-.58.125-.948.69-.823 1.27.064.298.245.54.488.685-.34.242-.522.666-.428 1.097z"/>
    <circle fill="#42BCAA" cx="670.18" cy="296.833" r=".854"/>
  </g>
  <g>
    <path fill="#6B8C04" d="M453.07 289.4s1.427 1.596 1.057 3.258c-.372 1.663-1.205 2.463-1.205 2.463s-1.367-1.043-1.453-2.71c-.09-1.665 1.6-3.01 1.6-3.01zM447 295.445s1.416-.796 2.59-.245c1.17.552 1.624 1.3 1.624 1.3s-1 .84-2.246.63c-1.25-.21-1.968-1.685-1.968-1.685z"/>
    <path fill="#F2ED40" d="M455.16 296.778c.292-.513.112-1.168-.4-1.46-.028-.017-.055-.024-.083-.037.036-.045.074-.09.104-.144.294-.512.114-1.167-.397-1.46-.414-.234-.91-.163-1.242.137-.083-.227-.24-.426-.465-.555-.514-.292-1.167-.113-1.46.4-.112.194-.153.413-.134.62-.475-.165-1.02.026-1.28.482-.292.513-.114 1.163.4 1.457.112.064.23.102.35.123-.084.073-.16.158-.218.258-.293.512-.113 1.168.4 1.46.44.252.986.155 1.316-.206.064.284.24.538.508.693.514.292 1.166.114 1.46-.4.15-.264.175-.565.094-.835.414.046.83-.152 1.05-.532z"/>
    <circle fill="#42BCAA" cx="452.558" cy="295.896" r=".853"/>
    <path fill="#6B8C04" d="M464.478 296.716s-1.94.905-3.422.068c-1.487-.836-2.01-1.864-2.01-1.864s1.394-1.007 3.016-.608c1.618.398 2.416 2.404 2.416 2.404zM460.453 289.157s.353 1.587-.517 2.55c-.866.962-1.715 1.178-1.715 1.178s-.514-1.2.05-2.334c.564-1.132 2.183-1.393 2.183-1.393z"/>
    <path fill="#F2ED40" d="M456.813 296.58c.405.428 1.082.445 1.512.04.02-.022.04-.044.06-.07.032.048.066.1.11.142.404.43 1.082.446 1.51.042.345-.326.42-.822.232-1.227.24-.017.477-.107.664-.286.43-.405.45-1.083.043-1.512-.156-.163-.35-.267-.558-.31.298-.408.273-.983-.088-1.363-.406-.428-1.082-.446-1.51-.04-.095.09-.166.19-.22.3-.048-.1-.106-.197-.186-.282-.405-.43-1.084-.45-1.513-.043-.37.35-.43.9-.183 1.32-.29-.02-.584.073-.81.287-.43.407-.447 1.082-.04 1.512.208.22.49.33.772.33-.162.383-.097.84.207 1.16z"/>
    <circle fill="#42BCAA" cx="458.409" cy="294.346" r=".853"/>
    <path fill="#6B8C04" d="M463.31 307s-1.857-1.06-2.033-2.753c-.175-1.696.36-2.718.36-2.718s1.627.555 2.24 2.108c.612 1.55-.566 3.362-.566 3.362zM467.15 299.34s-1.092 1.206-2.38 1.055c-1.282-.15-1.95-.715-1.95-.715s.68-1.115 1.93-1.312c1.25-.198 2.4.973 2.4.973z"/>
    <path fill="#F2ED40" d="M458.99 300.67c-.115.578.262 1.14.843 1.256.028.005.06.006.09.01-.02.054-.044.11-.053.17-.115.58.26 1.143.84 1.257.465.09.915-.132 1.135-.523.152.19.363.327.617.378.58.114 1.144-.263 1.256-.84.046-.223.014-.44-.07-.634.508.005.96-.346 1.064-.86.115-.58-.262-1.142-.84-1.258-.13-.025-.252-.025-.372-.004.056-.097.098-.2.12-.315.116-.58-.263-1.144-.84-1.258-.5-.1-.984.167-1.184.612-.148-.246-.396-.433-.7-.493-.583-.116-1.144.26-1.258.84-.06.3.012.592.177.822-.406.087-.74.405-.825.837z"/>
    <circle fill="#42BCAA" cx="461.736" cy="300.679" r=".854"/>
  </g>
  <g>
    <path fill="#6B8C04" d="M143.438 295.873s-1.942-.9-2.258-2.574c-.315-1.675.133-2.74.133-2.74s1.668.42 2.406 1.916c.74 1.493-.282 3.397-.282 3.397zM146.624 287.92s-.986 1.292-2.28 1.25c-1.295-.043-2.008-.552-2.008-.552s.585-1.166 1.814-1.468c1.232-.3 2.474.77 2.474.77z"/>
    <path fill="#F2ED40" d="M138.602 289.923c-.066.588.358 1.118.945 1.184.03.004.06 0 .09 0-.016.057-.033.113-.04.175-.065.586.36 1.116.944 1.183.474.052.903-.21 1.088-.616.167.174.39.295.648.325.588.065 1.116-.358 1.183-.944.024-.223-.024-.44-.124-.624.503-.036.927-.427.986-.948.065-.586-.355-1.114-.943-1.18-.13-.014-.253-.003-.37.026.046-.1.083-.208.096-.323.066-.585-.358-1.117-.944-1.183-.505-.056-.967.25-1.128.71-.17-.234-.432-.4-.74-.435-.59-.065-1.117.356-1.184.944-.033.303.063.59.244.805-.397.12-.702.467-.752.903z"/>
    <circle fill="#42BCAA" cx="141.34" cy="289.705" r=".853"/>
    <path fill="#6B8C04" d="M130.067 293.664s1.423-1.598 3.117-1.415c1.696.18 2.584.916 2.584.916s-.883 1.477-2.53 1.75c-1.644.276-3.17-1.252-3.17-1.252zM136.754 299.016s-.952-1.318-.534-2.547c.415-1.226 1.11-1.76 1.11-1.76s.948.898.88 2.163c-.073 1.263-1.456 2.143-1.456 2.143z"/>
    <path fill="#F2ED40" d="M137.16 290.758c-.54-.233-1.17.02-1.404.56l-.028.088c-.05-.03-.1-.064-.156-.087-.542-.235-1.17.018-1.405.558-.187.436-.06.92.273 1.22-.213.11-.396.287-.497.524-.234.543.017 1.173.56 1.406.207.088.427.106.634.064-.112.493.138 1.01.62 1.217.54.23 1.17-.02 1.403-.56.05-.12.075-.24.082-.362.084.073.176.138.282.184.543.235 1.174-.017 1.408-.56.2-.466.04-.997-.354-1.283.273-.097.507-.3.63-.586.233-.543-.017-1.17-.56-1.404-.28-.12-.58-.11-.842 0 .002-.413-.238-.807-.645-.982z"/>
    <circle fill="#42BCAA" cx="136.579" cy="293.441" r=".853"/>
    <path fill="#6B8C04" d="M127.073 283.757s2.126.238 2.957 1.724c.83 1.49.745 2.64.745 2.64s-1.714.133-2.892-1.05c-1.175-1.183-.81-3.313-.81-3.313zM126.575 292.31s.528-1.54 1.77-1.91c1.236-.37 2.074-.115 2.074-.115s-.185 1.293-1.257 1.968c-1.07.678-2.588.057-2.588.057z"/>
    <path fill="#F2ED40" d="M133.545 287.864c-.124-.577-.692-.945-1.27-.82-.03.005-.057.017-.088.026-.002-.058-.004-.12-.018-.176-.125-.58-.693-.948-1.27-.823-.463.1-.788.484-.836.93-.215-.114-.462-.157-.717-.103-.577.124-.946.694-.82 1.27.045.222.16.41.313.554-.467.196-.745.698-.636 1.21.124.58.692.946 1.27.824.128-.028.24-.077.342-.143-.013.112-.01.225.014.338.123.58.694.947 1.27.823.497-.105.837-.542.844-1.03.234.167.535.24.838.176.58-.125.948-.69.823-1.27-.064-.298-.245-.54-.488-.685.34-.242.522-.666.428-1.096z"/>
    <circle fill="#42BCAA" cx="131.019" cy="288.94" r=".854"/>
  </g>
  <g>
    <path fill="#6B8C04" d="M279.277 469.114s-1.942-.9-2.258-2.574c-.316-1.674.132-2.74.132-2.74s1.668.42 2.406 1.917c.74 1.494-.28 3.397-.28 3.397zM282.463 461.163s-.986 1.29-2.28 1.25c-1.295-.044-2.008-.553-2.008-.553s.585-1.166 1.814-1.468c1.23-.3 2.473.77 2.473.77z"/>
    <path fill="#F2ED40" d="M274.44 463.165c-.065.588.36 1.118.946 1.184.03.003.06 0 .09 0-.016.056-.033.112-.04.174-.065.586.36 1.116.944 1.183.473.052.902-.21 1.087-.616.167.176.39.297.648.327.588.065 1.116-.358 1.183-.944.026-.224-.023-.44-.123-.625.503-.036.927-.427.986-.948.066-.586-.354-1.114-.942-1.18-.13-.014-.252-.003-.37.026.047-.1.084-.208.097-.323.066-.586-.358-1.118-.944-1.184-.504-.057-.966.248-1.127.71-.17-.235-.432-.4-.74-.436-.59-.065-1.117.356-1.184.944-.034.303.062.59.243.805-.397.12-.702.466-.752.902z"/>
    <circle fill="#42BCAA" cx="277.179" cy="462.947" r=".853"/>
    <path fill="#6B8C04" d="M265.906 466.906s1.423-1.598 3.117-1.415c1.696.18 2.584.918 2.584.918s-.883 1.477-2.53 1.75c-1.645.276-3.17-1.252-3.17-1.252zM272.593 472.258s-.952-1.318-.534-2.547c.414-1.224 1.11-1.758 1.11-1.758s.947.898.878 2.163c-.072 1.263-1.455 2.143-1.455 2.143z"/>
    <path fill="#F2ED40" d="M273 464c-.542-.233-1.17.02-1.405.56l-.028.088c-.05-.03-.1-.064-.156-.087-.54-.233-1.17.02-1.404.56-.187.436-.06.92.273 1.22-.214.11-.397.286-.498.524-.234.543.017 1.173.56 1.406.207.088.427.106.634.064-.112.493.138 1.01.62 1.217.54.233 1.17-.017 1.403-.558.05-.12.074-.24.08-.362.085.073.177.138.283.184.543.235 1.174-.017 1.408-.56.202-.466.04-.997-.353-1.283.273-.095.507-.298.63-.584.233-.543-.017-1.17-.56-1.404-.28-.12-.58-.11-.842 0 0-.414-.24-.807-.645-.982z"/>
    <circle fill="#42BCAA" cx="272.418" cy="466.683" r=".853"/>
    <path fill="#6B8C04" d="M262.912 457s2.126.237 2.957 1.723c.83 1.488.744 2.64.744 2.64s-1.714.132-2.892-1.052c-1.176-1.182-.81-3.31-.81-3.31zM262.413 465.552s.527-1.54 1.77-1.91c1.236-.37 2.074-.115 2.074-.115s-.184 1.293-1.256 1.968c-1.068.678-2.587.057-2.587.057z"/>
    <path fill="#F2ED40" d="M269.384 461.106c-.124-.577-.692-.945-1.27-.82-.03.005-.057.017-.088.026-.002-.058-.004-.12-.018-.176-.124-.58-.692-.948-1.27-.823-.462.1-.787.483-.835.93-.215-.115-.462-.158-.717-.104-.577.123-.946.693-.82 1.27.045.22.16.41.313.553-.468.195-.746.697-.637 1.21.124.58.692.945 1.27.823.128-.028.24-.077.342-.143-.013.11-.01.224.014.337.122.58.692.947 1.27.823.496-.106.836-.543.843-1.03.234.166.535.24.838.175.582-.125.95-.69.824-1.27-.064-.298-.245-.54-.488-.685.34-.243.52-.667.428-1.097z"/>
    <circle fill="#42BCAA" cx="266.858" cy="462.182" r=".854"/>
  </g>
  <g>
    <path fill="#6B8C04" d="M508.79 183.132s-1.942-.9-2.258-2.574c-.315-1.674.133-2.74.133-2.74s1.668.42 2.406 1.917c.742 1.494-.28 3.397-.28 3.397zM511.976 175.18s-.986 1.292-2.28 1.25c-1.295-.043-2.008-.552-2.008-.552s.585-1.166 1.814-1.468c1.232-.3 2.474.77 2.474.77z"/>
    <path fill="#F2ED40" d="M503.954 177.182c-.066.588.358 1.118.945 1.184.03.004.058 0 .088 0-.015.057-.032.113-.038.175-.066.587.358 1.117.943 1.184.473.052.902-.21 1.087-.616.167.175.39.296.648.326.588.065 1.116-.358 1.183-.944.027-.224-.022-.44-.122-.625.503-.036.927-.427.986-.948.065-.586-.355-1.114-.943-1.18-.128-.014-.25-.003-.37.026.048-.1.085-.208.098-.323.066-.586-.358-1.118-.944-1.184-.505-.056-.967.25-1.128.71-.17-.234-.432-.4-.74-.435-.59-.064-1.117.357-1.184.945-.033.303.063.59.244.805-.397.12-.702.467-.752.902z"/>
    <circle fill="#42BCAA" cx="506.692" cy="176.965" r=".853"/>
    <path fill="#6B8C04" d="M495.42 180.924s1.422-1.598 3.116-1.415c1.696.18 2.584.916 2.584.916s-.883 1.477-2.53 1.75c-1.645.275-3.17-1.252-3.17-1.252zM502.106 186.276s-.952-1.318-.534-2.547c.415-1.226 1.11-1.76 1.11-1.76s.948.898.88 2.163c-.073 1.263-1.456 2.143-1.456 2.143z"/>
    <path fill="#F2ED40" d="M502.513 178.018c-.542-.233-1.17.02-1.405.56l-.028.088c-.05-.03-.1-.064-.156-.087-.542-.235-1.17.018-1.405.558-.188.436-.06.92.272 1.22-.213.11-.396.286-.497.524-.234.543.017 1.173.56 1.406.207.088.427.106.634.064-.113.493.137 1.01.618 1.217.542.23 1.17-.02 1.404-.56.05-.12.075-.24.082-.362.084.073.176.138.282.184.543.235 1.174-.017 1.408-.56.2-.466.04-.997-.354-1.283.273-.097.507-.3.63-.586.233-.543-.017-1.17-.56-1.404-.28-.12-.58-.11-.842 0 0-.414-.24-.807-.645-.982z"/>
    <circle fill="#42BCAA" cx="501.931" cy="180.701" r=".853"/>
    <path fill="#6B8C04" d="M492.425 171.017s2.126.238 2.957 1.724c.83 1.49.745 2.64.745 2.64s-1.714.133-2.892-1.05c-1.176-1.184-.81-3.313-.81-3.313zM491.927 179.57s.527-1.54 1.77-1.91c1.236-.37 2.074-.115 2.074-.115s-.183 1.293-1.255 1.968c-1.07.678-2.588.057-2.588.057z"/>
    <path fill="#F2ED40" d="M498.897 175.123c-.124-.577-.692-.945-1.27-.82-.03.005-.057.017-.088.026-.003-.06-.005-.12-.02-.177-.123-.58-.69-.948-1.27-.823-.46.1-.786.483-.834.93-.215-.115-.462-.158-.717-.104-.578.124-.947.694-.822 1.27.046.222.16.41.314.554-.467.195-.745.697-.636 1.21.124.58.692.945 1.27.823.128-.028.24-.077.342-.143-.013.11-.01.224.014.337.123.58.693.947 1.27.823.497-.106.837-.543.844-1.03.234.166.535.24.838.175.58-.125.948-.69.823-1.27-.064-.298-.245-.54-.488-.685.34-.242.52-.666.427-1.097z"/>
    <circle fill="#42BCAA" cx="496.371" cy="176.2" r=".854"/>
  </g>
  <g>
    <path fill="#6B8C04" d="M340.522 102.215s-1.942-.9-2.258-2.574c-.315-1.673.133-2.738.133-2.738s1.668.42 2.406 1.916c.74 1.494-.28 3.397-.28 3.397zM343.708 94.264s-.986 1.29-2.28 1.25c-1.295-.044-2.008-.553-2.008-.553s.585-1.165 1.814-1.467c1.232-.3 2.474.77 2.474.77z"/>
    <path fill="#F2ED40" d="M335.686 96.265c-.066.588.358 1.118.945 1.184.032.003.06 0 .09 0-.015.056-.032.112-.038.174-.066.586.358 1.116.943 1.183.473.052.902-.21 1.087-.616.167.176.39.297.648.327.588.065 1.116-.358 1.183-.944.026-.224-.023-.44-.123-.625.503-.036.927-.427.986-.948.065-.586-.355-1.114-.943-1.18-.13-.014-.252-.003-.37.026.047-.1.084-.208.097-.323.066-.586-.358-1.118-.944-1.184-.505-.057-.967.248-1.128.71-.17-.235-.432-.4-.74-.436-.59-.065-1.117.356-1.184.944-.033.303.063.59.244.805-.397.12-.702.467-.752.902z"/>
    <circle fill="#42BCAA" cx="338.424" cy="96.047" r=".853"/>
    <path fill="#6B8C04" d="M327.15 100.007s1.424-1.598 3.118-1.415c1.696.18 2.584.917 2.584.917s-.883 1.476-2.53 1.75c-1.645.274-3.17-1.253-3.17-1.253zM333.838 105.36s-.952-1.32-.534-2.548c.415-1.225 1.11-1.76 1.11-1.76s.948.9.88 2.164c-.073 1.263-1.456 2.143-1.456 2.143z"/>
    <path fill="#F2ED40" d="M334.245 97.1c-.542-.232-1.17.02-1.405.562l-.028.087c-.05-.032-.1-.065-.156-.088-.542-.234-1.17.02-1.405.56-.186.435-.06.92.274 1.218-.213.11-.396.287-.497.525-.234.543.017 1.173.56 1.406.207.09.427.107.634.065-.11.493.14 1.01.62 1.217.542.232 1.17-.018 1.404-.56.05-.12.075-.24.082-.36.084.072.176.137.282.183.543.235 1.174-.017 1.408-.56.2-.466.04-.997-.354-1.283.273-.096.507-.3.63-.585.233-.543-.017-1.17-.56-1.404-.28-.12-.58-.11-.842 0 .002-.414-.238-.807-.645-.982z"/>
    <circle fill="#42BCAA" cx="333.663" cy="99.784" r=".853"/>
    <path fill="#6B8C04" d="M324.157 90.1s2.125.237 2.957 1.723c.83 1.488.745 2.64.745 2.64s-1.715.132-2.893-1.052c-1.175-1.18-.81-3.31-.81-3.31zM323.66 98.653s.527-1.54 1.77-1.91c1.235-.37 2.073-.115 2.073-.115s-.184 1.293-1.256 1.968c-1.07.677-2.588.057-2.588.057z"/>
    <path fill="#F2ED40" d="M330.63 94.206c-.125-.577-.693-.945-1.272-.82-.028.005-.056.017-.087.026-.002-.058-.003-.12-.017-.176-.124-.58-.692-.948-1.27-.823-.462.1-.787.483-.835.93-.215-.115-.462-.158-.717-.104-.576.123-.945.693-.82 1.27.046.22.16.41.314.553-.467.195-.745.697-.636 1.21.124.58.692.945 1.27.823.128-.028.24-.077.342-.143-.013.11-.01.224.014.337.123.58.693.947 1.27.823.497-.106.837-.543.844-1.03.234.166.535.24.838.175.58-.125.948-.69.823-1.27-.065-.298-.246-.54-.49-.685.34-.242.522-.666.43-1.097z"/>
    <circle fill="#42BCAA" cx="328.103" cy="95.282" r=".854"/>
  </g>
  <g>
    <defs>
      <path id="e" d="M0 0h770v154H0z"/>
    </defs>
  </g>
  <g>
    <path opacity=".2" d="M187 205.34c0 1.292-12.76 2.34-28.498 2.34-15.74 0-28.502-1.048-28.502-2.34s12.76-2.34 28.502-2.34c15.737 0 28.498 1.048 28.498 2.34z"/>
    <path fill="#D1A578" d="M184.094 183h-52.188c-1.023 0-1.852-.83-1.852-1.852 0-1.023.83-1.852 1.852-1.852h52.188c1.023 0 1.852.83 1.852 1.852 0 1.023-.83 1.852-1.852 1.852zM184.094 187.234h-52.188c-1.023 0-1.852-.83-1.852-1.852 0-1.023.83-1.852 1.852-1.852h52.188c1.023 0 1.852.83 1.852 1.852 0 1.023-.83 1.852-1.852 1.852zM184.094 191.468h-52.188c-1.023 0-1.852-.83-1.852-1.852 0-1.023.83-1.852 1.852-1.852h52.188c1.023 0 1.852.83 1.852 1.852 0 1.023-.83 1.852-1.852 1.852zM184.094 195.702h-52.188c-1.023 0-1.852-.83-1.852-1.852 0-1.024.83-1.853 1.852-1.853h52.188c1.023 0 1.852.83 1.852 1.852 0 1.023-.83 1.852-1.852 1.852z"/>
    <path fill="#8D6640" d="M184.623 198.348h-53.246c-.73 0-1.323-.592-1.323-1.323 0-.73.592-1.323 1.323-1.323h53.246c.73 0 1.323.592 1.323 1.323 0 .73-.592 1.323-1.323 1.323z"/>
    <path fill="#666" d="M138.683 198.348h4.912v7.542h-4.912zM172.736 198.348h4.912v7.542h-4.912z"/>
    <path fill="#BB8F68" d="M184.094 179.296H158V183h26.094c1.023 0 1.852-.83 1.852-1.852 0-1.023-.83-1.852-1.852-1.852zM184.094 183.53H158v3.704h26.094c1.023 0 1.852-.83 1.852-1.852 0-1.023-.83-1.853-1.852-1.853zM184.094 187.763H158v3.705h26.094c1.023 0 1.852-.83 1.852-1.852 0-1.023-.83-1.853-1.852-1.853zM184.094 191.997H158v3.705h26.094c1.023 0 1.852-.83 1.852-1.852 0-1.024-.83-1.853-1.852-1.853z"/>
    <path fill="#996E4F" d="M158 195.702h-26.623c-.73 0-1.323.592-1.323 1.323 0 .73.592 1.323 1.323 1.323H158v-2.646z"/>
  </g>
  <g>
    <path opacity=".2" d="M642.405 205.34c0 1.292-12.76 2.34-28.498 2.34-15.74 0-28.502-1.048-28.502-2.34s12.76-2.34 28.502-2.34c15.737 0 28.498 1.048 28.498 2.34z"/>
    <path fill="#D1A578" d="M639.498 183H587.31c-1.023 0-1.852-.83-1.852-1.852 0-1.023.83-1.852 1.852-1.852h52.188c1.023 0 1.852.83 1.852 1.852 0 1.023-.83 1.852-1.852 1.852zM639.498 187.234H587.31c-1.023 0-1.852-.83-1.852-1.852 0-1.023.83-1.852 1.852-1.852h52.188c1.023 0 1.852.83 1.852 1.852 0 1.023-.83 1.852-1.852 1.852zM639.498 191.468H587.31c-1.023 0-1.852-.83-1.852-1.852 0-1.023.83-1.852 1.852-1.852h52.188c1.023 0 1.852.83 1.852 1.852 0 1.023-.83 1.852-1.852 1.852zM639.498 195.702H587.31c-1.023 0-1.852-.83-1.852-1.852 0-1.024.83-1.853 1.852-1.853h52.188c1.023 0 1.852.83 1.852 1.852 0 1.023-.83 1.852-1.852 1.852z"/>
    <path fill="#8D6640" d="M640.028 198.348h-53.246c-.73 0-1.323-.592-1.323-1.323 0-.73.59-1.323 1.322-1.323h53.246c.73 0 1.323.592 1.323 1.323 0 .73-.592 1.323-1.322 1.323z"/>
    <path fill="#666" d="M594.088 198.348H599v7.542h-4.912zM628.14 198.348h4.913v7.542h-4.912z"/>
    <path fill="#BB8F68" d="M639.498 179.296h-26.094V183h26.094c1.023 0 1.852-.83 1.852-1.852 0-1.023-.83-1.852-1.852-1.852zM639.498 183.53h-26.094v3.704h26.094c1.023 0 1.852-.83 1.852-1.852 0-1.023-.83-1.853-1.852-1.853zM639.498 187.763h-26.094v3.705h26.094c1.023 0 1.852-.83 1.852-1.852 0-1.023-.83-1.853-1.852-1.853zM639.498 191.997h-26.094v3.705h26.094c1.023 0 1.852-.83 1.852-1.852 0-1.024-.83-1.853-1.852-1.853z"/>
    <path fill="#996E4F" d="M613.404 195.702H586.78c-.73 0-1.322.592-1.322 1.323 0 .73.592 1.323 1.323 1.323h26.624v-2.646z"/>
  </g>
  <g>
    <ellipse opacity=".2" cx="472.442" cy="142.857" rx="12.763" ry="2.082"/>
    <path fill="#DCB848" d="M475.447 143.07h-5.595c1.046-2.76 1.625-11.994.925-14.752h3.688c-.678 2.758-.064 11.992.982 14.75z"/>
    <path fill="#7E9633" d="M472.215 77.09l-7.567 13.09 3.807-1.362-7.38 14.89 6.063-1.864-7 13.222 4.51-1.583-8.087 16.46H490l-8.865-14.566 5.443 1.99-8.865-17.01 4.355 1.09-6.688-13.132 3.888 1.225"/>
    <path fill="#6B7C25" d="M472 77.233V130h18l-8.865-14.593 5.443 1.974-8.865-17.015 4.355 1.085-6.688-13.133 3.74 1.224"/>
  </g>
  <g>
    <ellipse opacity=".2" cx="220.592" cy="106.23" rx="10.473" ry="1.708"/>
    <path fill="#DCB848" d="M223.06 106.404h-4.592c.858-2.263 1.334-9.84.76-12.104h3.025c-.557 2.263-.053 9.84.806 12.104z"/>
    <path fill="#7E9633" d="M220.407 52.263l-6.21 10.743 3.123-1.118-6.056 12.22 4.976-1.53-5.743 10.848 3.7-1.3-6.636 13.507H235l-7.275-11.95 4.467 1.63-7.274-13.957 3.573.894-5.487-10.775 3.19 1.005"/>
    <path fill="#6B7C25" d="M220 52.382V96h15l-7.275-12.135 4.467 1.54-7.274-14.003 3.573.87-5.487-10.786 2.954 1"/>
  </g>
  <g>
    <ellipse opacity=".2" cx="447.442" cy="170.857" rx="12.763" ry="2.082"/>
    <path fill="#BE9734" d="M451.386 171.48h-6.896c1.29-3.4 2.003-14.783 1.14-18.183h4.546c-.837 3.4-.08 14.782 1.21 18.182z"/>
    <path fill="#6B7C25" d="M447.402 90.152l-9.327 16.138 4.692-1.68-9.097 18.354 7.474-2.298-8.627 16.296 5.56-1.95-9.97 20.286h41.217l-10.928-17.952 6.71 2.452-10.927-20.966 5.367 1.342-8.244-16.185 4.793 1.51"/>
    <path fill="#7E9633" d="M448 90.33V156h21.324l-10.928-18.303 6.71 2.276-10.927-21.053 5.367 1.298-8.244-16.207 5.04 1.5"/>
  </g>
  <g>
    <ellipse opacity=".2" cx="567" cy="205.357" rx="8" ry="2.582"/>
    <path fill="#A6A19D" d="M569.526 189.572c0 .627-.508 1.135-1.135 1.135h-2.8c-.626 0-1.134-.508-1.134-1.135s.508-1.135 1.135-1.135h2.8c.627 0 1.136.508 1.136 1.135z"/>
    <path fill="#BDB8B3" d="M560.99 191.4l1.15 12.516c0 .846.686 1.532 1.532 1.532h6.636c.846 0 1.532-.686 1.532-1.532l1.15-12.517h-12z"/>
    <path fill="#918E8A" d="M573.98 191.543v-.14c0-.847-.685-1.533-1.53-1.533H561.53c-.846 0-1.532.686-1.532 1.532v.14h13.98z"/>
    <path fill="#A6A19D" d="M564.393 203.425c.018.317-.173.575-.428.575s-.48-.257-.505-.575l-.802-10.4c-.024-.318.213-.576.53-.576.317 0 .59.256.608.574l.597 10.4zm1.913-10.4c-.004-.318-.265-.576-.583-.576-.317 0-.566.256-.555.574l.352 10.4c.01.32.225.576.48.576s.458-.257.453-.575l-.147-10.4zm2.51 0c.01-.318-.24-.576-.558-.576-.317 0-.577.256-.58.574l-.1 10.4c-.002.318.202.576.457.576s.47-.257.478-.575l.303-10.4zm2.51 0c.023-.318-.216-.576-.533-.576-.317 0-.588.256-.605.574l-.55 10.4c-.016.318.177.576.432.576s.48-.257.503-.575l.753-10.4z"/>
    <path fill="#A6A19D" d="M562.105 203.534l.035.537c0 .847.686 1.38 1.532 1.38h6.636c.846 0 1.532-.533 1.532-1.38l.035-.536h-9.77z"/>
  </g>
  <g>
    <path opacity=".2" d="M420.405 458.34c0 1.292-12.76 2.34-28.498 2.34-15.74 0-28.502-1.048-28.502-2.34s12.76-2.34 28.502-2.34c15.737 0 28.498 1.048 28.498 2.34z"/>
    <path fill="#D1A578" d="M417.498 436H365.31c-1.023 0-1.852-.83-1.852-1.852 0-1.023.83-1.852 1.852-1.852h52.188c1.023 0 1.852.83 1.852 1.852 0 1.023-.83 1.852-1.852 1.852zM417.498 440.234H365.31c-1.023 0-1.852-.83-1.852-1.852 0-1.023.83-1.852 1.852-1.852h52.188c1.023 0 1.852.83 1.852 1.852 0 1.023-.83 1.852-1.852 1.852zM417.498 444.468H365.31c-1.023 0-1.852-.83-1.852-1.852 0-1.023.83-1.852 1.852-1.852h52.188c1.023 0 1.852.83 1.852 1.852 0 1.023-.83 1.852-1.852 1.852zM417.498 448.702H365.31c-1.023 0-1.852-.83-1.852-1.852 0-1.024.83-1.853 1.852-1.853h52.188c1.023 0 1.852.83 1.852 1.852 0 1.023-.83 1.852-1.852 1.852z"/>
    <path fill="#8D6640" d="M418.027 451.348H364.78c-.73 0-1.322-.592-1.322-1.323 0-.73.592-1.323 1.323-1.323h53.247c.73 0 1.323.592 1.323 1.323 0 .73-.592 1.323-1.323 1.323z"/>
    <path fill="#666" d="M372.088 451.348H377v7.542h-4.912zM406.14 451.348h4.913v7.542h-4.912z"/>
    <path fill="#BB8F68" d="M417.498 432.296h-26.094V436h26.094c1.023 0 1.852-.83 1.852-1.852 0-1.023-.83-1.852-1.852-1.852zM417.498 436.53h-26.094v3.704h26.094c1.023 0 1.852-.83 1.852-1.852 0-1.023-.83-1.853-1.852-1.853zM417.498 440.763h-26.094v3.705h26.094c1.023 0 1.852-.83 1.852-1.852 0-1.023-.83-1.853-1.852-1.853zM417.498 444.997h-26.094v3.705h26.094c1.023 0 1.852-.83 1.852-1.852 0-1.024-.83-1.853-1.852-1.853z"/>
    <path fill="#996E4F" d="M391.404 448.702H364.78c-.73 0-1.322.592-1.322 1.323 0 .73.592 1.323 1.323 1.323h26.624v-2.646z"/>
  </g>
  <g>
    <ellipse opacity=".2" cx="345" cy="458.357" rx="8" ry="2.582"/>
    <path fill="#A6A19D" d="M347.525 442.572c0 .627-.508 1.135-1.135 1.135h-2.8c-.627 0-1.135-.508-1.135-1.135s.508-1.135 1.135-1.135h2.8c.627 0 1.135.508 1.135 1.135z"/>
    <path fill="#BDB8B3" d="M338.99 444.4l1.15 12.516c0 .846.686 1.532 1.532 1.532h6.636c.846 0 1.532-.686 1.532-1.532l1.15-12.517h-12z"/>
    <path fill="#918E8A" d="M351.98 444.543v-.14c0-.847-.685-1.533-1.53-1.533H339.53c-.846 0-1.532.686-1.532 1.532v.14h13.98z"/>
    <path fill="#A6A19D" d="M342.393 456.425c.018.317-.173.575-.428.575s-.48-.257-.506-.575l-.803-10.4c-.024-.318.213-.576.53-.576.317 0 .59.256.608.574l.598 10.4zm1.913-10.4c-.005-.318-.265-.576-.583-.576-.317 0-.566.256-.555.574l.352 10.4c.01.32.225.576.48.576s.458-.257.453-.575l-.147-10.4zm2.51 0c.01-.318-.24-.576-.558-.576-.317 0-.577.256-.58.574l-.1 10.4c-.002.318.202.576.457.576s.47-.257.478-.575l.303-10.4zm2.51 0c.023-.318-.216-.576-.533-.576-.317 0-.588.256-.605.574l-.55 10.4c-.016.318.177.576.432.576s.48-.257.503-.575l.753-10.4z"/>
    <path fill="#A6A19D" d="M340.105 456.534l.035.537c0 .847.686 1.38 1.532 1.38h6.636c.846 0 1.532-.533 1.532-1.38l.035-.536h-9.77z"/>
  </g>
  <g>
    <path opacity=".1" d="M584 114.34c0 3.677-15.224 6.66-33.998 6.66-18.78 0-34.002-2.983-34.002-6.66s15.224-6.66 34.002-6.66c18.774 0 33.998 2.984 33.998 6.66z"/>
    <path fill="#6C7575" d="M541.437 108.213c-2.65 0-4.808-2.074-4.914-4.72l.43-.017c.096 2.415 2.065 4.307 4.484 4.307v.43zM536.734 82.42c-.252 0-.456-.205-.456-.457v-.48c0-.25.204-.455.456-.455s.456.204.456.456v.48c0 .25-.205.455-.456.455zm0-1.177c-.133 0-.24.108-.24.24v.48c0 .133.107.24.24.24s.24-.107.24-.24v-.48c0-.132-.108-.24-.24-.24z"/>
    <path fill="#6C7575" d="M536.734 83.596c-.252 0-.456-.204-.456-.456v-.48c0-.252.204-.456.456-.456s.456.204.456.456v.48c0 .25-.205.456-.456.456zm0-1.177c-.133 0-.24.107-.24.24v.48c0 .133.107.24.24.24s.24-.107.24-.24v-.48c0-.133-.108-.24-.24-.24z"/>
    <path fill="#6C7575" d="M536.734 84.772c-.252 0-.456-.204-.456-.456v-.48c0-.25.204-.455.456-.455s.456.205.456.457v.48c0 .25-.205.455-.456.455zm0-1.176c-.133 0-.24.108-.24.24v.48c0 .133.107.24.24.24s.24-.107.24-.24v-.48c0-.132-.108-.24-.24-.24z"/>
    <path fill="#6C7575" d="M536.734 85.948c-.252 0-.456-.204-.456-.456v-.48c0-.252.204-.456.456-.456s.456.204.456.456v.48c0 .252-.205.456-.456.456zm0-1.176c-.133 0-.24.108-.24.24v.48c0 .134.107.242.24.242s.24-.108.24-.24v-.48c0-.134-.108-.242-.24-.242z"/>
    <path fill="#6C7575" d="M536.734 87.124c-.252 0-.456-.204-.456-.456v-.48c0-.25.204-.455.456-.455s.456.204.456.456v.478c0 .252-.205.456-.456.456zm0-1.176c-.133 0-.24.108-.24.24v.48c0 .133.107.24.24.24s.24-.107.24-.24v-.48c0-.132-.108-.24-.24-.24z"/>
    <path fill="#6C7575" d="M536.734 88.3c-.252 0-.456-.203-.456-.455v-.48c0-.252.204-.456.456-.456s.456.203.456.455v.48c0 .25-.205.456-.456.456zm0-1.176c-.133 0-.24.108-.24.24v.48c0 .134.107.242.24.242s.24-.108.24-.24v-.48c0-.134-.108-.242-.24-.242z"/>
    <path fill="#6C7575" d="M536.734 89.477c-.252 0-.456-.204-.456-.456v-.478c0-.252.204-.456.456-.456s.456.204.456.456v.48c0 .25-.205.455-.456.455zm0-1.176c-.133 0-.24.11-.24.242v.48c0 .132.107.24.24.24s.24-.108.24-.24v-.48c0-.133-.108-.24-.24-.24z"/>
    <path fill="#6C7575" d="M536.734 90.653c-.252 0-.456-.204-.456-.456v-.48c0-.252.204-.456.456-.456s.456.205.456.457v.48c0 .252-.205.456-.456.456zm0-1.176c-.133 0-.24.108-.24.24v.48c0 .134.107.242.24.242s.24-.11.24-.242v-.48c0-.133-.108-.24-.24-.24z"/>
    <path fill="#6C7575" d="M536.734 91.83c-.252 0-.456-.205-.456-.457v-.48c0-.25.204-.455.456-.455s.456.204.456.456v.48c0 .25-.205.455-.456.455zm0-1.177c-.133 0-.24.108-.24.24v.48c0 .133.107.24.24.24s.24-.107.24-.24v-.48c0-.132-.108-.24-.24-.24z"/>
    <path fill="#6C7575" d="M536.734 93.005c-.252 0-.456-.204-.456-.456v-.48c0-.253.204-.457.456-.457s.456.204.456.456v.48c0 .25-.205.455-.456.455zm0-1.176c-.133 0-.24.107-.24.24v.48c0 .133.107.24.24.24s.24-.107.24-.24v-.48c0-.133-.108-.24-.24-.24z"/>
    <path fill="#6C7575" d="M536.734 94.182c-.252 0-.456-.204-.456-.456v-.48c0-.25.204-.455.456-.455s.456.205.456.457v.48c0 .25-.205.455-.456.455zm0-1.177c-.133 0-.24.108-.24.24v.48c0 .133.107.24.24.24s.24-.107.24-.24v-.48c0-.132-.108-.24-.24-.24z"/>
    <path fill="#6C7575" d="M536.734 95.358c-.252 0-.456-.204-.456-.456v-.48c0-.252.204-.456.456-.456s.456.204.456.456v.48c0 .25-.205.456-.456.456zm0-1.176c-.133 0-.24.108-.24.24v.48c0 .134.107.242.24.242s.24-.108.24-.24v-.48c0-.134-.108-.242-.24-.242z"/>
    <path fill="#6C7575" d="M536.734 96.534c-.252 0-.456-.204-.456-.456v-.48c0-.25.204-.455.456-.455s.456.204.456.456v.478c0 .252-.205.456-.456.456zm0-1.176c-.133 0-.24.108-.24.24v.48c0 .133.107.24.24.24s.24-.107.24-.24v-.48c0-.132-.108-.24-.24-.24z"/>
    <path fill="#6C7575" d="M536.734 97.71c-.252 0-.456-.204-.456-.456v-.48c0-.252.204-.456.456-.456s.456.204.456.456v.48c0 .252-.205.456-.456.456zm0-1.176c-.133 0-.24.108-.24.24v.48c0 .134.107.242.24.242s.24-.108.24-.24v-.48c0-.134-.108-.242-.24-.242z"/>
    <path fill="#6C7575" d="M536.734 98.886c-.252 0-.456-.204-.456-.456v-.48c0-.25.204-.455.456-.455s.456.204.456.456v.48c0 .252-.205.456-.456.456zm0-1.176c-.133 0-.24.108-.24.24v.48c0 .133.107.24.24.24s.24-.107.24-.24v-.48c0-.132-.108-.24-.24-.24z"/>
    <path fill="#6C7575" d="M536.734 100.063c-.252 0-.456-.204-.456-.456v-.48c0-.252.204-.456.456-.456s.456.205.456.457v.48c0 .25-.205.456-.456.456zm0-1.177c-.133 0-.24.108-.24.24v.48c0 .134.107.242.24.242s.24-.108.24-.24v-.48c0-.134-.108-.242-.24-.242z"/>
    <path fill="#6C7575" d="M536.734 101.24c-.252 0-.456-.205-.456-.457v-.48c0-.25.204-.455.456-.455s.456.204.456.456v.48c0 .25-.205.455-.456.455zm0-1.177c-.133 0-.24.108-.24.24v.48c0 .133.107.24.24.24s.24-.107.24-.24v-.48c0-.132-.108-.24-.24-.24z"/>
    <path fill="#6C7575" d="M536.734 102.415c-.252 0-.456-.204-.456-.456v-.48c0-.253.204-.457.456-.457s.456.204.456.456v.48c0 .25-.205.455-.456.455zm0-1.176c-.133 0-.24.107-.24.24v.48c0 .133.107.24.24.24s.24-.107.24-.24v-.48c0-.133-.108-.24-.24-.24z"/>
    <path fill="#6C7575" d="M536.734 103.59c-.252 0-.456-.203-.456-.455v-.48c0-.25.204-.455.456-.455s.456.204.456.456v.48c0 .25-.205.455-.456.455zm0-1.175c-.133 0-.24.108-.24.24v.48c0 .133.107.24.24.24s.24-.107.24-.24v-.48c0-.132-.108-.24-.24-.24z"/>
    <g>
      <path fill="#8A9596" d="M536.742 81.458c-.632 0-1.146-.514-1.146-1.146V79.03h.646v1.283c0 .276.225.5.5.5.277 0 .5-.224.5-.5V79.03h.647v1.283c-.002.63-.516 1.145-1.148 1.145z"/>
    </g>
    <g>
      <circle fill="#8A9596" cx="536.733" cy="103.484" r=".506"/>
    </g>
    <g>
      <path fill="#6C7575" d="M541.437 108.213c2.65 0 4.808-2.074 4.914-4.72l-.43-.017c-.095 2.415-2.064 4.307-4.483 4.307v.43z"/>
      <path fill="#8A9596" d="M545.315 104.817c-.63 1.606-2.152 2.643-3.878 2.643-1.725 0-3.247-1.037-3.878-2.643l-1.002.393c.793 2.02 2.708 3.326 4.88 3.326 2.17 0 4.085-1.305 4.878-3.326l-1-.393z"/>
      <path fill="#6C7575" d="M546.14 82.42c-.252 0-.456-.205-.456-.457v-.48c0-.25.204-.455.456-.455s.456.204.456.456v.48c0 .25-.204.455-.456.455zm0-1.177c-.133 0-.24.108-.24.24v.48c0 .133.107.24.24.24s.24-.107.24-.24v-.48c0-.132-.107-.24-.24-.24z"/>
      <path fill="#6C7575" d="M546.14 83.596c-.252 0-.456-.204-.456-.456v-.48c0-.252.204-.456.456-.456s.456.204.456.456v.48c0 .25-.204.456-.456.456zm0-1.177c-.133 0-.24.107-.24.24v.48c0 .133.107.24.24.24s.24-.107.24-.24v-.48c0-.133-.107-.24-.24-.24z"/>
      <path fill="#6C7575" d="M546.14 84.772c-.252 0-.456-.204-.456-.456v-.48c0-.25.204-.455.456-.455s.456.205.456.457v.48c0 .25-.204.455-.456.455zm0-1.176c-.133 0-.24.108-.24.24v.48c0 .133.107.24.24.24s.24-.107.24-.24v-.48c0-.132-.107-.24-.24-.24z"/>
      <path fill="#6C7575" d="M546.14 85.948c-.252 0-.456-.204-.456-.456v-.48c0-.252.204-.456.456-.456s.456.204.456.456v.48c0 .252-.204.456-.456.456zm0-1.176c-.133 0-.24.108-.24.24v.48c0 .134.107.242.24.242s.24-.108.24-.24v-.48c0-.134-.107-.242-.24-.242z"/>
      <path fill="#6C7575" d="M546.14 87.124c-.252 0-.456-.204-.456-.456v-.48c0-.25.204-.455.456-.455s.456.204.456.456v.478c0 .252-.204.456-.456.456zm0-1.176c-.133 0-.24.108-.24.24v.48c0 .133.107.24.24.24s.24-.107.24-.24v-.48c0-.132-.107-.24-.24-.24z"/>
      <path fill="#6C7575" d="M546.14 88.3c-.252 0-.456-.203-.456-.455v-.48c0-.252.204-.456.456-.456s.456.203.456.455v.48c0 .25-.204.456-.456.456zm0-1.176c-.133 0-.24.108-.24.24v.48c0 .134.107.242.24.242s.24-.108.24-.24v-.48c0-.134-.107-.242-.24-.242z"/>
      <path fill="#6C7575" d="M546.14 89.477c-.252 0-.456-.204-.456-.456v-.478c0-.252.204-.456.456-.456s.456.204.456.456v.48c0 .25-.204.455-.456.455zm0-1.176c-.133 0-.24.11-.24.242v.48c0 .132.107.24.24.24s.24-.108.24-.24v-.48c0-.133-.107-.24-.24-.24z"/>
      <path fill="#6C7575" d="M546.14 90.653c-.252 0-.456-.204-.456-.456v-.48c0-.252.204-.456.456-.456s.456.205.456.457v.48c0 .252-.204.456-.456.456zm0-1.176c-.133 0-.24.108-.24.24v.48c0 .134.107.242.24.242s.24-.11.24-.242v-.48c0-.133-.107-.24-.24-.24z"/>
      <path fill="#6C7575" d="M546.14 91.83c-.252 0-.456-.205-.456-.457v-.48c0-.25.204-.455.456-.455s.456.204.456.456v.48c0 .25-.204.455-.456.455zm0-1.177c-.133 0-.24.108-.24.24v.48c0 .133.107.24.24.24s.24-.107.24-.24v-.48c0-.132-.107-.24-.24-.24z"/>
      <path fill="#6C7575" d="M546.14 93.005c-.252 0-.456-.204-.456-.456v-.48c0-.253.204-.457.456-.457s.456.204.456.456v.48c0 .25-.204.455-.456.455zm0-1.176c-.133 0-.24.107-.24.24v.48c0 .133.107.24.24.24s.24-.107.24-.24v-.48c0-.133-.107-.24-.24-.24z"/>
      <path fill="#6C7575" d="M546.14 94.182c-.252 0-.456-.204-.456-.456v-.48c0-.25.204-.455.456-.455s.456.205.456.457v.48c0 .25-.204.455-.456.455zm0-1.177c-.133 0-.24.108-.24.24v.48c0 .133.107.24.24.24s.24-.107.24-.24v-.48c0-.132-.107-.24-.24-.24z"/>
      <path fill="#6C7575" d="M546.14 95.358c-.252 0-.456-.204-.456-.456v-.48c0-.252.204-.456.456-.456s.456.204.456.456v.48c0 .25-.204.456-.456.456zm0-1.176c-.133 0-.24.108-.24.24v.48c0 .134.107.242.24.242s.24-.108.24-.24v-.48c0-.134-.107-.242-.24-.242z"/>
      <path fill="#6C7575" d="M546.14 96.534c-.252 0-.456-.204-.456-.456v-.48c0-.25.204-.455.456-.455s.456.204.456.456v.478c0 .252-.204.456-.456.456zm0-1.176c-.133 0-.24.108-.24.24v.48c0 .133.107.24.24.24s.24-.107.24-.24v-.48c0-.132-.107-.24-.24-.24z"/>
      <path fill="#6C7575" d="M546.14 97.71c-.252 0-.456-.204-.456-.456v-.48c0-.252.204-.456.456-.456s.456.204.456.456v.48c0 .252-.204.456-.456.456zm0-1.176c-.133 0-.24.108-.24.24v.48c0 .134.107.242.24.242s.24-.108.24-.24v-.48c0-.134-.107-.242-.24-.242z"/>
      <path fill="#6C7575" d="M546.14 98.886c-.252 0-.456-.204-.456-.456v-.48c0-.25.204-.455.456-.455s.456.204.456.456v.48c0 .252-.204.456-.456.456zm0-1.176c-.133 0-.24.108-.24.24v.48c0 .133.107.24.24.24s.24-.107.24-.24v-.48c0-.132-.107-.24-.24-.24z"/>
      <path fill="#6C7575" d="M546.14 100.063c-.252 0-.456-.204-.456-.456v-.48c0-.252.204-.456.456-.456s.456.205.456.457v.48c0 .25-.204.456-.456.456zm0-1.177c-.133 0-.24.108-.24.24v.48c0 .134.107.242.24.242s.24-.108.24-.24v-.48c0-.134-.107-.242-.24-.242z"/>
      <path fill="#6C7575" d="M546.14 101.24c-.252 0-.456-.205-.456-.457v-.48c0-.25.204-.455.456-.455s.456.204.456.456v.48c0 .25-.204.455-.456.455zm0-1.177c-.133 0-.24.108-.24.24v.48c0 .133.107.24.24.24s.24-.107.24-.24v-.48c0-.132-.107-.24-.24-.24z"/>
      <path fill="#6C7575" d="M546.14 102.415c-.252 0-.456-.204-.456-.456v-.48c0-.253.204-.457.456-.457s.456.204.456.456v.48c0 .25-.204.455-.456.455zm0-1.176c-.133 0-.24.107-.24.24v.48c0 .133.107.24.24.24s.24-.107.24-.24v-.48c0-.133-.107-.24-.24-.24z"/>
      <path fill="#6C7575" d="M546.14 103.59c-.252 0-.456-.203-.456-.455v-.48c0-.25.204-.455.456-.455s.456.204.456.456v.48c0 .25-.204.455-.456.455zm0-1.175c-.133 0-.24.108-.24.24v.48c0 .133.107.24.24.24s.24-.107.24-.24v-.48c0-.132-.107-.24-.24-.24z"/>
      <g>
        <path fill="#8A9596" d="M546.13 81.458c-.63 0-1.145-.514-1.145-1.146V79.03h.646v1.283c0 .276.226.5.5.5.277 0 .502-.224.502-.5V79.03h.646v1.283c0 .63-.515 1.145-1.147 1.145z"/>
      </g>
      <g>
        <circle fill="#8A9596" cx="546.14" cy="103.484" r=".506"/>
      </g>
    </g>
    <g>
      <path fill="#6C7575" d="M559.512 108.213c-2.65 0-4.808-2.074-4.914-4.72l.43-.017c.096 2.415 2.065 4.307 4.484 4.307v.43zM554.81 82.42c-.253 0-.457-.205-.457-.457v-.48c0-.25.204-.455.456-.455s.455.204.455.456v.48c0 .25-.205.455-.456.455zm0-1.177c-.134 0-.242.108-.242.24v.48c0 .133.108.24.24.24s.242-.107.242-.24v-.48c0-.132-.108-.24-.24-.24z"/>
      <path fill="#6C7575" d="M554.81 83.596c-.253 0-.457-.204-.457-.456v-.48c0-.252.204-.456.456-.456s.455.204.455.456v.48c0 .25-.205.456-.456.456zm0-1.177c-.134 0-.242.107-.242.24v.48c0 .133.108.24.24.24s.242-.107.242-.24v-.48c0-.133-.108-.24-.24-.24z"/>
      <path fill="#6C7575" d="M554.81 84.772c-.253 0-.457-.204-.457-.456v-.48c0-.25.204-.455.456-.455s.455.205.455.457v.48c0 .25-.205.455-.456.455zm0-1.176c-.134 0-.242.108-.242.24v.48c0 .133.108.24.24.24s.242-.107.242-.24v-.48c0-.132-.108-.24-.24-.24z"/>
      <path fill="#6C7575" d="M554.81 85.948c-.253 0-.457-.204-.457-.456v-.48c0-.252.204-.456.456-.456s.455.204.455.456v.48c0 .252-.205.456-.456.456zm0-1.176c-.134 0-.242.108-.242.24v.48c0 .134.108.242.24.242s.242-.108.242-.24v-.48c0-.134-.108-.242-.24-.242z"/>
      <path fill="#6C7575" d="M554.81 87.124c-.253 0-.457-.204-.457-.456v-.48c0-.25.204-.455.456-.455s.455.204.455.456v.478c0 .252-.205.456-.456.456zm0-1.176c-.134 0-.242.108-.242.24v.48c0 .133.108.24.24.24s.242-.107.242-.24v-.48c0-.132-.108-.24-.24-.24z"/>
      <path fill="#6C7575" d="M554.81 88.3c-.253 0-.457-.203-.457-.455v-.48c0-.252.204-.456.456-.456s.455.203.455.455v.48c0 .25-.205.456-.456.456zm0-1.176c-.134 0-.242.108-.242.24v.48c0 .134.108.242.24.242s.242-.108.242-.24v-.48c0-.134-.108-.242-.24-.242z"/>
      <path fill="#6C7575" d="M554.81 89.477c-.253 0-.457-.204-.457-.456v-.478c0-.252.204-.456.456-.456s.455.204.455.456v.48c0 .25-.205.455-.456.455zm0-1.176c-.134 0-.242.11-.242.242v.48c0 .132.108.24.24.24s.242-.108.242-.24v-.48c0-.133-.108-.24-.24-.24z"/>
      <path fill="#6C7575" d="M554.81 90.653c-.253 0-.457-.204-.457-.456v-.48c0-.252.204-.456.456-.456s.455.205.455.457v.48c0 .252-.205.456-.456.456zm0-1.176c-.134 0-.242.108-.242.24v.48c0 .134.108.242.24.242s.242-.11.242-.242v-.48c0-.133-.108-.24-.24-.24z"/>
      <path fill="#6C7575" d="M554.81 91.83c-.253 0-.457-.205-.457-.457v-.48c0-.25.204-.455.456-.455s.455.204.455.456v.48c0 .25-.205.455-.456.455zm0-1.177c-.134 0-.242.108-.242.24v.48c0 .133.108.24.24.24s.242-.107.242-.24v-.48c0-.132-.108-.24-.24-.24z"/>
      <path fill="#6C7575" d="M554.81 93.005c-.253 0-.457-.204-.457-.456v-.48c0-.253.204-.457.456-.457s.455.204.455.456v.48c0 .25-.205.455-.456.455zm0-1.176c-.134 0-.242.107-.242.24v.48c0 .133.108.24.24.24s.242-.107.242-.24v-.48c0-.133-.108-.24-.24-.24z"/>
      <path fill="#6C7575" d="M554.81 94.182c-.253 0-.457-.204-.457-.456v-.48c0-.25.204-.455.456-.455s.455.205.455.457v.48c0 .25-.205.455-.456.455zm0-1.177c-.134 0-.242.108-.242.24v.48c0 .133.108.24.24.24s.242-.107.242-.24v-.48c0-.132-.108-.24-.24-.24z"/>
      <path fill="#6C7575" d="M554.81 95.358c-.253 0-.457-.204-.457-.456v-.48c0-.252.204-.456.456-.456s.455.204.455.456v.48c0 .25-.205.456-.456.456zm0-1.176c-.134 0-.242.108-.242.24v.48c0 .134.108.242.24.242s.242-.108.242-.24v-.48c0-.134-.108-.242-.24-.242z"/>
      <path fill="#6C7575" d="M554.81 96.534c-.253 0-.457-.204-.457-.456v-.48c0-.25.204-.455.456-.455s.455.204.455.456v.478c0 .252-.205.456-.456.456zm0-1.176c-.134 0-.242.108-.242.24v.48c0 .133.108.24.24.24s.242-.107.242-.24v-.48c0-.132-.108-.24-.24-.24z"/>
      <path fill="#6C7575" d="M554.81 97.71c-.253 0-.457-.204-.457-.456v-.48c0-.252.204-.456.456-.456s.455.204.455.456v.48c0 .252-.205.456-.456.456zm0-1.176c-.134 0-.242.108-.242.24v.48c0 .134.108.242.24.242s.242-.108.242-.24v-.48c0-.134-.108-.242-.24-.242z"/>
      <path fill="#6C7575" d="M554.81 98.886c-.253 0-.457-.204-.457-.456v-.48c0-.25.204-.455.456-.455s.455.204.455.456v.48c0 .252-.205.456-.456.456zm0-1.176c-.134 0-.242.108-.242.24v.48c0 .133.108.24.24.24s.242-.107.242-.24v-.48c0-.132-.108-.24-.24-.24z"/>
      <path fill="#6C7575" d="M554.81 100.063c-.253 0-.457-.204-.457-.456v-.48c0-.252.204-.456.456-.456s.455.205.455.457v.48c0 .25-.205.456-.456.456zm0-1.177c-.134 0-.242.108-.242.24v.48c0 .134.108.242.24.242s.242-.108.242-.24v-.48c0-.134-.108-.242-.24-.242z"/>
      <path fill="#6C7575" d="M554.81 101.24c-.253 0-.457-.205-.457-.457v-.48c0-.25.204-.455.456-.455s.455.204.455.456v.48c0 .25-.205.455-.456.455zm0-1.177c-.134 0-.242.108-.242.24v.48c0 .133.108.24.24.24s.242-.107.242-.24v-.48c0-.132-.108-.24-.24-.24z"/>
      <path fill="#6C7575" d="M554.81 102.415c-.253 0-.457-.204-.457-.456v-.48c0-.253.204-.457.456-.457s.455.204.455.456v.48c0 .25-.205.455-.456.455zm0-1.176c-.134 0-.242.107-.242.24v.48c0 .133.108.24.24.24s.242-.107.242-.24v-.48c0-.133-.108-.24-.24-.24z"/>
      <path fill="#6C7575" d="M554.81 103.59c-.253 0-.457-.203-.457-.455v-.48c0-.25.204-.455.456-.455s.455.204.455.456v.48c0 .25-.205.455-.456.455zm0-1.175c-.134 0-.242.108-.242.24v.48c0 .133.108.24.24.24s.242-.107.242-.24v-.48c0-.132-.108-.24-.24-.24z"/>
      <g>
        <path fill="#8A9596" d="M554.818 81.458c-.632 0-1.146-.514-1.146-1.146V79.03h.646v1.283c0 .276.225.5.5.5.277 0 .502-.224.502-.5V79.03h.646v1.283c-.002.63-.517 1.145-1.148 1.145z"/>
      </g>
      <g>
        <circle fill="#8A9596" cx="554.809" cy="103.484" r=".506"/>
      </g>
      <g>
        <path fill="#6C7575" d="M559.512 108.213c2.65 0 4.808-2.074 4.914-4.72l-.43-.017c-.096 2.415-2.065 4.307-4.484 4.307v.43z"/>
        <path fill="#8A9596" d="M563.39 104.817c-.63 1.606-2.152 2.643-3.878 2.643-1.725 0-3.247-1.037-3.878-2.643l-1 .393c.792 2.02 2.707 3.326 4.878 3.326 2.17 0 4.086-1.305 4.88-3.326l-1.002-.393z"/>
        <path fill="#6C7575" d="M564.216 82.42c-.252 0-.456-.205-.456-.457v-.48c0-.25.204-.455.456-.455s.456.204.456.456v.48c0 .25-.205.455-.456.455zm0-1.177c-.133 0-.24.108-.24.24v.48c0 .133.107.24.24.24s.24-.107.24-.24v-.48c0-.132-.108-.24-.24-.24z"/>
        <path fill="#6C7575" d="M564.216 83.596c-.252 0-.456-.204-.456-.456v-.48c0-.252.204-.456.456-.456s.456.204.456.456v.48c0 .25-.205.456-.456.456zm0-1.177c-.133 0-.24.107-.24.24v.48c0 .133.107.24.24.24s.24-.107.24-.24v-.48c0-.133-.108-.24-.24-.24z"/>
        <path fill="#6C7575" d="M564.216 84.772c-.252 0-.456-.204-.456-.456v-.48c0-.25.204-.455.456-.455s.456.205.456.457v.48c0 .25-.205.455-.456.455zm0-1.176c-.133 0-.24.108-.24.24v.48c0 .133.107.24.24.24s.24-.107.24-.24v-.48c0-.132-.108-.24-.24-.24z"/>
        <path fill="#6C7575" d="M564.216 85.948c-.252 0-.456-.204-.456-.456v-.48c0-.252.204-.456.456-.456s.456.204.456.456v.48c0 .252-.205.456-.456.456zm0-1.176c-.133 0-.24.108-.24.24v.48c0 .134.107.242.24.242s.24-.108.24-.24v-.48c0-.134-.108-.242-.24-.242z"/>
        <path fill="#6C7575" d="M564.216 87.124c-.252 0-.456-.204-.456-.456v-.48c0-.25.204-.455.456-.455s.456.204.456.456v.478c0 .252-.205.456-.456.456zm0-1.176c-.133 0-.24.108-.24.24v.48c0 .133.107.24.24.24s.24-.107.24-.24v-.48c0-.132-.108-.24-.24-.24z"/>
        <path fill="#6C7575" d="M564.216 88.3c-.252 0-.456-.203-.456-.455v-.48c0-.252.204-.456.456-.456s.456.203.456.455v.48c0 .25-.205.456-.456.456zm0-1.176c-.133 0-.24.108-.24.24v.48c0 .134.107.242.24.242s.24-.108.24-.24v-.48c0-.134-.108-.242-.24-.242z"/>
        <path fill="#6C7575" d="M564.216 89.477c-.252 0-.456-.204-.456-.456v-.478c0-.252.204-.456.456-.456s.456.204.456.456v.48c0 .25-.205.455-.456.455zm0-1.176c-.133 0-.24.11-.24.242v.48c0 .132.107.24.24.24s.24-.108.24-.24v-.48c0-.133-.108-.24-.24-.24z"/>
        <path fill="#6C7575" d="M564.216 90.653c-.252 0-.456-.204-.456-.456v-.48c0-.252.204-.456.456-.456s.456.205.456.457v.48c0 .252-.205.456-.456.456zm0-1.176c-.133 0-.24.108-.24.24v.48c0 .134.107.242.24.242s.24-.11.24-.242v-.48c0-.133-.108-.24-.24-.24z"/>
        <path fill="#6C7575" d="M564.216 91.83c-.252 0-.456-.205-.456-.457v-.48c0-.25.204-.455.456-.455s.456.204.456.456v.48c0 .25-.205.455-.456.455zm0-1.177c-.133 0-.24.108-.24.24v.48c0 .133.107.24.24.24s.24-.107.24-.24v-.48c0-.132-.108-.24-.24-.24z"/>
        <path fill="#6C7575" d="M564.216 93.005c-.252 0-.456-.204-.456-.456v-.48c0-.253.204-.457.456-.457s.456.204.456.456v.48c0 .25-.205.455-.456.455zm0-1.176c-.133 0-.24.107-.24.24v.48c0 .133.107.24.24.24s.24-.107.24-.24v-.48c0-.133-.108-.24-.24-.24z"/>
        <path fill="#6C7575" d="M564.216 94.182c-.252 0-.456-.204-.456-.456v-.48c0-.25.204-.455.456-.455s.456.205.456.457v.48c0 .25-.205.455-.456.455zm0-1.177c-.133 0-.24.108-.24.24v.48c0 .133.107.24.24.24s.24-.107.24-.24v-.48c0-.132-.108-.24-.24-.24z"/>
        <path fill="#6C7575" d="M564.216 95.358c-.252 0-.456-.204-.456-.456v-.48c0-.252.204-.456.456-.456s.456.204.456.456v.48c0 .25-.205.456-.456.456zm0-1.176c-.133 0-.24.108-.24.24v.48c0 .134.107.242.24.242s.24-.108.24-.24v-.48c0-.134-.108-.242-.24-.242z"/>
        <path fill="#6C7575" d="M564.216 96.534c-.252 0-.456-.204-.456-.456v-.48c0-.25.204-.455.456-.455s.456.204.456.456v.478c0 .252-.205.456-.456.456zm0-1.176c-.133 0-.24.108-.24.24v.48c0 .133.107.24.24.24s.24-.107.24-.24v-.48c0-.132-.108-.24-.24-.24z"/>
        <path fill="#6C7575" d="M564.216 97.71c-.252 0-.456-.204-.456-.456v-.48c0-.252.204-.456.456-.456s.456.204.456.456v.48c0 .252-.205.456-.456.456zm0-1.176c-.133 0-.24.108-.24.24v.48c0 .134.107.242.24.242s.24-.108.24-.24v-.48c0-.134-.108-.242-.24-.242z"/>
        <path fill="#6C7575" d="M564.216 98.886c-.252 0-.456-.204-.456-.456v-.48c0-.25.204-.455.456-.455s.456.204.456.456v.48c0 .252-.205.456-.456.456zm0-1.176c-.133 0-.24.108-.24.24v.48c0 .133.107.24.24.24s.24-.107.24-.24v-.48c0-.132-.108-.24-.24-.24z"/>
        <path fill="#6C7575" d="M564.216 100.063c-.252 0-.456-.204-.456-.456v-.48c0-.252.204-.456.456-.456s.456.205.456.457v.48c0 .25-.205.456-.456.456zm0-1.177c-.133 0-.24.108-.24.24v.48c0 .134.107.242.24.242s.24-.108.24-.24v-.48c0-.134-.108-.242-.24-.242z"/>
        <path fill="#6C7575" d="M564.216 101.24c-.252 0-.456-.205-.456-.457v-.48c0-.25.204-.455.456-.455s.456.204.456.456v.48c0 .25-.205.455-.456.455zm0-1.177c-.133 0-.24.108-.24.24v.48c0 .133.107.24.24.24s.24-.107.24-.24v-.48c0-.132-.108-.24-.24-.24z"/>
        <path fill="#6C7575" d="M564.216 102.415c-.252 0-.456-.204-.456-.456v-.48c0-.253.204-.457.456-.457s.456.204.456.456v.48c0 .25-.205.455-.456.455zm0-1.176c-.133 0-.24.107-.24.24v.48c0 .133.107.24.24.24s.24-.107.24-.24v-.48c0-.133-.108-.24-.24-.24z"/>
        <path fill="#6C7575" d="M564.216 103.59c-.252 0-.456-.203-.456-.455v-.48c0-.25.204-.455.456-.455s.456.204.456.456v.48c0 .25-.205.455-.456.455zm0-1.175c-.133 0-.24.108-.24.24v.48c0 .133.107.24.24.24s.24-.107.24-.24v-.48c0-.132-.108-.24-.24-.24z"/>
        <g>
          <path fill="#8A9596" d="M564.207 81.458c-.632 0-1.146-.514-1.146-1.146V79.03h.647v1.283c0 .276.225.5.5.5.277 0 .502-.224.502-.5V79.03h.645v1.283c-.002.63-.516 1.145-1.148 1.145z"/>
        </g>
        <g>
          <circle fill="#8A9596" cx="564.216" cy="103.484" r=".506"/>
        </g>
      </g>
    </g>
    <g>
      <path fill="#E34B4B" d="M527.843 79.524h1.564v31.364h-1.564z"/>
      <path fill="#656D6E" d="M529.36 109.99h-1.47c-.704 0-1.274.57-1.274 1.273h4.017c0-.703-.57-1.273-1.272-1.273z"/>
      <g>
        <path fill="#E34B4B" d="M571.54 79.524h1.565v31.364h-1.564z"/>
        <path fill="#656D6E" d="M571.588 109.99h1.472c.703 0 1.273.57 1.273 1.273h-4.017c0-.703.57-1.273 1.272-1.273z"/>
      </g>
    </g>
    <g>
      <path fill="#FF5B5B" d="M521.303 115.773h1.368l6.394-37.156h-1.368"/>
      <path fill="#656D6E" d="M522.923 114.5h-1.472c-.702 0-1.272.57-1.272 1.274h4.017c0-.704-.57-1.273-1.272-1.273z"/>
      <g>
        <path fill="#FF5B5B" d="M579.646 115.773h-1.368l-6.393-37.156h1.368"/>
        <path fill="#656D6E" d="M578.026 114.5h1.472c.703 0 1.273.57 1.273 1.274h-4.016c0-.704.57-1.273 1.272-1.273z"/>
      </g>
    </g>
    <path fill="#656D6E" d="M575.91 78.617c0 .5-.407.907-.908.907h-49.055c-.5 0-.907-.406-.907-.907 0-.5.406-.907.907-.907h49.055c.5 0 .907.407.907.907z"/>
  </g>
</svg>