<svg xmlns="http://www.w3.org/2000/svg" width="135" height="968" viewBox="0 0 135 968">
  <style>
    .st1{fill:#FFFFFF;} .st2{fill:#4D4D4D;} .st3{fill:#538881;}
  </style>
  <path id="Dashboard_7_" class="st1" d="M22 21h-6v-5h6v5zm7-5h-6v8h6v-8zm0 9h-6v3h6v-3zm-7-3h-6v6h6v-6z"/>
  <path class="st1" d="M30 59.5c0 .8-.9 1.5-2 1.5H17c-1.1 0-2-.7-2-1.5s.9-1.5 2-1.5h11c1.1 0 2 .7 2 1.5zm0 4c0-.8-.9-1.5-2-1.5H17c-1.1 0-2 .7-2 1.5s.9 1.5 2 1.5h11c1.1 0 2-.7 2-1.5zm0 4c0-.8-.9-1.5-2-1.5H17c-1.1 0-2 .7-2 1.5s.9 1.5 2 1.5h11c1.1 0 2-.7 2-1.5zm-4 4c0-.8-.9-1.5-2-1.5h-7c-1.1 0-2 .7-2 1.5s.9 1.5 2 1.5h7c1.1 0 2-.7 2-1.5z" id="Newsfeed_14_"/>
  <path id="Adventures_7_" class="st1" d="M31 102c-.1-.1-.2-.1-.3 0l-16 8.5c-.1.1-.2.2-.1.3 0 .1.1.2.3.2H22v6.7c0 .1.1.2.2.3h.1c.1 0 .2-.1.2-.1l8.6-15.5c0-.2 0-.3-.1-.4z"/>
  <path id="Events_7_" class="st1" d="M32 148.7c0-1.1-.9-1.7-2-1.7H15c-1.1 0-2 .6-2 1.7v1.3h19v-1.3zm-12.5.4c-.3 0-.6-.3-.6-.6s.3-.6.6-.6.6.3.6.6-.3.6-.6.6zm-2 0c-.3 0-.6-.3-.6-.6s.3-.6.6-.6.6.3.6.6-.3.6-.6.6zm-2 0c-.3 0-.6-.3-.6-.6s.3-.6.6-.6.6.3.6.6-.3.6-.6.6zM13 151v9c0 1.1.9 2 2 2h15c1.1 0 2-.9 2-2v-9H13zm4 9h-2v-2h2v2zm0-3h-2v-2h2v2zm0-3h-2v-2h2v2zm3 6h-2v-2h2v2zm0-3h-2v-2h2v2zm0-3h-2v-2h2v2zm3 6h-2v-2h2v2zm0-3h-2v-2h2v2zm0-3h-2v-2h2v2zm3 6h-2v-2h2v2zm0-3h-2v-2h2v2zm0-3h-2v-2h2v2zm3 6h-2v-2h2v2zm0-3h-2v-2h2v2zm0-3h-2v-2h2v2z"/>
  <path id="Leaderboards_7_" class="st1" d="M26 203v5.7c0 .1-.1.2-.2.3h-.1c-.1 0-.2 0-.2-.1l-2.9-3.4-2.9 3.4c-.1.1-.2.1-.3.1-.1 0-.2-.2-.2-.3V203c.4.1.9.1 1.3 0 .5.6 1.1 1.2 2.2 1.2s1.5-.6 2.1-1.2c.2.1.7.1 1.2 0zm3-5.3v-.3c0-.1 0-.1-.1-.2v-.1c0-.1-.1-.1-.1-.2v-.1c0-.1-.1-.1-.1-.2v-.1l-.2-.2.2-.2v-.1s.1-.1.1-.2v-.1c0-.1.1-.1.1-.2v-.1c0-.1 0-.1.1-.2v-1c0-.1 0-.2-.1-.3 0-.1-.1-.2-.1-.2v-.1c0-.1-.1-.1-.1-.1s0-.1-.1-.1l-.1-.1s0-.1-.1-.1l-.1-.1s-.1 0-.1-.1l-.1-.1s-.1 0-.1-.1l-.1-.1h-.1c-.1 0-.1 0-.2-.1h-.1c-.1 0-.2 0-.3-.1v-1c0-.1 0-.1-.1-.2v-.1c0-.1-.1-.1-.1-.2v-.1c0-.1-.1-.1-.1-.2v-.1l-.1-.1-.1-.1-.2-.2c-.1-.1-.2-.1-.2-.1-.1 0-.1-.1-.2-.1-.3-.1-.7 0-1.1 0h-.2c-.1 0-.2.1-.3.1 0-.1-.1-.2-.1-.2s0-.1-.1-.1l-.1-.1-.1-.1-.1-.1-.1-.1s-.1-.1-.2-.1h-.1c-.1 0-.1-.1-.2-.1h-.1c-.1 0-.1 0-.2-.1h-1.4c-.1 0-.1 0-.2.1h-.1c-.1 0-.1.1-.2.1h-.1c-.1 0-.1.1-.2.1h-.1l-.1.1-.1.1-.1.1-.1.1c-.1.1-.1.1-.1.2-.1 0-.2-.1-.3-.1h-.2c-.4 0-.7-.1-1.1 0-.1 0-.1 0-.2.1-.1 0-.2.1-.2.1l-.2.2-.1.1-.1.1-.1.1-.1.1v.1c0 .1-.1.1-.1.2v.1c0 .1 0 .1-.1.2v1c-.1 0-.2 0-.3.1h-.1c-.1 0-.1 0-.2.1h-.1c-.1 0-.1 0-.1.1 0 0-.1 0-.1.1l-.1.1s-.1 0-.1.1l-.1.1-.1.1-.1.1s0 .1-.1.1c0 0-.1.1-.1.2v.1c0 .1-.1.2-.1.2 0 .1 0 .2-.1.3v1c0 .1 0 .1.1.2v.1c0 .1.1.1.1.2v.1c0 .1.1.1.1.2v.1l.2.2-.2.2v.1l-.1.1v.1c0 .1-.1.1-.1.2v.1c0 .1 0 .1-.1.2v1c0 .1 0 .2.1.3 0 .1.1.2.1.2v.1c0 .1.1.1.1.2 0 0 0 .1.1.1l.1.1s0 .1.1.1l.1.1s.1 0 .1.1l.1.1s.1 0 .1.1l.1.1h.1c.1 0 .1 0 .2.1h.1c.1 0 .2 0 .3.1v1c0 .1 0 .1.1.2v.1c0 .1.1.1.1.2v.1c0 .1.1.1.1.1l.1.1.1.1.1.1.2.2c.1.1.2.1.2.1.1 0 .1.1.2.1h-.1c1 .1.9.1 1.4 0h.1c.1 0 .2 0 .3.1.4.5 1 .9 1.7.9s1.3-.3 1.7-.9c.1-.1.2-.2.4-.1.5.2.9.2 1.4 0 .1 0 .1-.1.2-.1s.2-.1.2-.1l.2-.2.1-.1.1-.1.1-.1.1-.1v-.1s.1-.1.1-.2v-.1c0-.1 0-.1.1-.2v-.9c.1 0 .2 0 .3-.1h.1c.1 0 .1 0 .2-.1h.1c.1 0 .1 0 .1-.1 0 0 .1 0 .1-.1l.1-.1s.1 0 .1-.1l.1-.1s0-.1.1-.1l.1-.1s0-.1.1-.1l.1-.1v-.1c0-.1.1-.2.1-.2v-.7c.5-.1.5-.2.5-.3zm-4.5-.6l.5 2.8-2.5-1.3-2.5 1.3.5-2.8-2-1.9 2.8-.4 1.2-2.5 1.2 2.5 2.8.4-2 1.9z"/>
  <path id="Rewards_7_" class="st1" d="M31 238v3h-5v-3h5zm-17 3h5v-3h-5v3zm12.7-6.9c-.4-.4-.9-.6-1.5-.6s-1.1.2-1.5.6c-.5.5-1 2.1-1.3 3.1-.3-1.1-.8-2.6-1.3-3.1-.4-.4-.9-.6-1.5-.6s-1.1.2-1.5.6c-.8.8-.8 2.1 0 2.9.4.4 1.1.6 2 .9H20v3h5v-3h-.3c.9-.3 1.6-.6 2-.9.8-.7.8-2.1 0-2.9zm-8.1 2.6c-.6-.6-.6-1.5 0-2.1.3-.3.7-.4 1.1-.4.4 0 .8.2 1.1.4.5.5 1 2.3 1.3 3.4-1.1-.3-3-.9-3.5-1.3zm4.3 1.3c.3-1.1.9-3 1.3-3.4.3-.3.7-.4 1.1-.4.4 0 .8.2 1.1.4.6.6.6 1.5 0 2.1-.5.4-2.4 1-3.5 1.3zM14 250h5v-8h-5v8zm12 0h5v-8h-5v8zm-6 0h5v-8h-5v8z"/>
  <path id="Your_Stats_7_" class="st1" d="M27.8 283h1.4c.4 0 .8.3.8.8v9.7h.7c.1 0 .3.1.3.2s-.1.2-.3.2H14.3c-.1 0-.3-.1-.3-.2s.1-.2.3-.2h.7v-2.7c0-.4.3-.8.8-.8h1.4c.4 0 .8.3.8.8v2.7h1v-5.7c0-.4.3-.8.8-.8h1.4c.4 0 .8.3.8.8v5.7h1v-4.7c0-.4.3-.8.8-.8h1.4c.4 0 .8.3.8.8v4.7h1v-9.7c0-.5.3-.8.8-.8zm-11.3 2.1c-.8 0-1.4.6-1.4 1.4s.6 1.4 1.4 1.4 1.4-.6 1.4-1.4-.6-1.4-1.4-1.4zm4-3c-.8 0-1.4.6-1.4 1.4s.6 1.4 1.4 1.4 1.4-.6 1.4-1.4-.6-1.4-1.4-1.4zm4 1c-.8 0-1.4.6-1.4 1.4s.6 1.4 1.4 1.4 1.4-.6 1.4-1.4-.6-1.4-1.4-1.4zm4-5c-.8 0-1.4.6-1.4 1.4s.6 1.4 1.4 1.4 1.4-.6 1.4-1.4-.6-1.4-1.4-1.4zm-7.9 5.7l4 1 4.1-5.1-.4-.3-3.9 4.9-4-1-4.1 3.1.3.4 4-3z"/>
  <path id="Dashboard_6_" class="st1" d="M22 21h-6v-5h6v5zm7-5h-6v8h6v-8zm0 9h-6v3h6v-3zm-7-3h-6v6h6v-6z"/>
  <path class="st1" d="M30 59.5c0 .8-.9 1.5-2 1.5H17c-1.1 0-2-.7-2-1.5s.9-1.5 2-1.5h11c1.1 0 2 .7 2 1.5zm0 4c0-.8-.9-1.5-2-1.5H17c-1.1 0-2 .7-2 1.5s.9 1.5 2 1.5h11c1.1 0 2-.7 2-1.5zm0 4c0-.8-.9-1.5-2-1.5H17c-1.1 0-2 .7-2 1.5s.9 1.5 2 1.5h11c1.1 0 2-.7 2-1.5zm-4 4c0-.8-.9-1.5-2-1.5h-7c-1.1 0-2 .7-2 1.5s.9 1.5 2 1.5h7c1.1 0 2-.7 2-1.5z" id="Newsfeed_12_"/>
  <path id="Adventures_6_" class="st1" d="M31 102c-.1-.1-.2-.1-.3 0l-16 8.5c-.1.1-.2.2-.1.3 0 .1.1.2.3.2H22v6.7c0 .1.1.2.2.3h.1c.1 0 .2-.1.2-.1l8.6-15.5c0-.2 0-.3-.1-.4z"/>
  <path id="Events_6_" class="st1" d="M32 148.7c0-1.1-.9-1.7-2-1.7H15c-1.1 0-2 .6-2 1.7v1.3h19v-1.3zm-12.5.4c-.3 0-.6-.3-.6-.6s.3-.6.6-.6.6.3.6.6-.3.6-.6.6zm-2 0c-.3 0-.6-.3-.6-.6s.3-.6.6-.6.6.3.6.6-.3.6-.6.6zm-2 0c-.3 0-.6-.3-.6-.6s.3-.6.6-.6.6.3.6.6-.3.6-.6.6zM13 151v9c0 1.1.9 2 2 2h15c1.1 0 2-.9 2-2v-9H13zm4 9h-2v-2h2v2zm0-3h-2v-2h2v2zm0-3h-2v-2h2v2zm3 6h-2v-2h2v2zm0-3h-2v-2h2v2zm0-3h-2v-2h2v2zm3 6h-2v-2h2v2zm0-3h-2v-2h2v2zm0-3h-2v-2h2v2zm3 6h-2v-2h2v2zm0-3h-2v-2h2v2zm0-3h-2v-2h2v2zm3 6h-2v-2h2v2zm0-3h-2v-2h2v2zm0-3h-2v-2h2v2z"/>
  <path id="Leaderboards_6_" class="st1" d="M26 203v5.7c0 .1-.1.2-.2.3h-.1c-.1 0-.2 0-.2-.1l-2.9-3.4-2.9 3.4c-.1.1-.2.1-.3.1-.1 0-.2-.2-.2-.3V203c.4.1.9.1 1.3 0 .5.6 1.1 1.2 2.2 1.2s1.5-.6 2.1-1.2c.2.1.7.1 1.2 0zm3-5.3v-.3c0-.1 0-.1-.1-.2v-.1c0-.1-.1-.1-.1-.2v-.1c0-.1-.1-.1-.1-.2v-.1l-.2-.2.2-.2v-.1s.1-.1.1-.2v-.1c0-.1.1-.1.1-.2v-.1c0-.1 0-.1.1-.2v-1c0-.1 0-.2-.1-.3 0-.1-.1-.2-.1-.2v-.1c0-.1-.1-.1-.1-.1s0-.1-.1-.1l-.1-.1s0-.1-.1-.1l-.1-.1s-.1 0-.1-.1l-.1-.1s-.1 0-.1-.1l-.1-.1h-.1c-.1 0-.1 0-.2-.1h-.1c-.1 0-.2 0-.3-.1v-1c0-.1 0-.1-.1-.2v-.1c0-.1-.1-.1-.1-.2v-.1c0-.1-.1-.1-.1-.2v-.1l-.1-.1-.1-.1-.2-.2c-.1-.1-.2-.1-.2-.1-.1 0-.1-.1-.2-.1-.3-.1-.7 0-1.1 0h-.2c-.1 0-.2.1-.3.1 0-.1-.1-.2-.1-.2s0-.1-.1-.1l-.1-.1-.1-.1-.1-.1-.1-.1s-.1-.1-.2-.1h-.1c-.1 0-.1-.1-.2-.1h-.1c-.1 0-.1 0-.2-.1h-1.4c-.1 0-.1 0-.2.1h-.1c-.1 0-.1.1-.2.1h-.1c-.1 0-.1.1-.2.1h-.1l-.1.1-.1.1-.1.1-.1.1c-.1.1-.1.1-.1.2-.1 0-.2-.1-.3-.1h-.2c-.4 0-.7-.1-1.1 0-.1 0-.1 0-.2.1-.1 0-.2.1-.2.1l-.2.2-.1.1-.1.1-.1.1-.1.1v.1c0 .1-.1.1-.1.2v.1c0 .1 0 .1-.1.2v1c-.1 0-.2 0-.3.1h-.1c-.1 0-.1 0-.2.1h-.1c-.1 0-.1 0-.1.1 0 0-.1 0-.1.1l-.1.1s-.1 0-.1.1l-.1.1-.1.1-.1.1s0 .1-.1.1c0 0-.1.1-.1.2v.1c0 .1-.1.2-.1.2 0 .1 0 .2-.1.3v1c0 .1 0 .1.1.2v.1c0 .1.1.1.1.2v.1c0 .1.1.1.1.2v.1l.2.2-.2.2v.1l-.1.1v.1c0 .1-.1.1-.1.2v.1c0 .1 0 .1-.1.2v1c0 .1 0 .2.1.3 0 .1.1.2.1.2v.1c0 .1.1.1.1.2 0 0 0 .1.1.1l.1.1s0 .1.1.1l.1.1s.1 0 .1.1l.1.1s.1 0 .1.1l.1.1h.1c.1 0 .1 0 .2.1h.1c.1 0 .2 0 .3.1v1c0 .1 0 .1.1.2v.1c0 .1.1.1.1.2v.1c0 .1.1.1.1.1l.1.1.1.1.1.1.2.2c.1.1.2.1.2.1.1 0 .1.1.2.1h-.1c1 .1.9.1 1.4 0h.1c.1 0 .2 0 .3.1.4.5 1 .9 1.7.9s1.3-.3 1.7-.9c.1-.1.2-.2.4-.1.5.2.9.2 1.4 0 .1 0 .1-.1.2-.1s.2-.1.2-.1l.2-.2.1-.1.1-.1.1-.1.1-.1v-.1s.1-.1.1-.2v-.1c0-.1 0-.1.1-.2v-.9c.1 0 .2 0 .3-.1h.1c.1 0 .1 0 .2-.1h.1c.1 0 .1 0 .1-.1 0 0 .1 0 .1-.1l.1-.1s.1 0 .1-.1l.1-.1s0-.1.1-.1l.1-.1s0-.1.1-.1l.1-.1v-.1c0-.1.1-.2.1-.2v-.7c.5-.1.5-.2.5-.3zm-4.5-.6l.5 2.8-2.5-1.3-2.5 1.3.5-2.8-2-1.9 2.8-.4 1.2-2.5 1.2 2.5 2.8.4-2 1.9z"/>
  <path id="Rewards_6_" class="st1" d="M31 238v3h-5v-3h5zm-17 3h5v-3h-5v3zm12.7-6.9c-.4-.4-.9-.6-1.5-.6s-1.1.2-1.5.6c-.5.5-1 2.1-1.3 3.1-.3-1.1-.8-2.6-1.3-3.1-.4-.4-.9-.6-1.5-.6s-1.1.2-1.5.6c-.8.8-.8 2.1 0 2.9.4.4 1.1.6 2 .9H20v3h5v-3h-.3c.9-.3 1.6-.6 2-.9.8-.7.8-2.1 0-2.9zm-8.1 2.6c-.6-.6-.6-1.5 0-2.1.3-.3.7-.4 1.1-.4.4 0 .8.2 1.1.4.5.5 1 2.3 1.3 3.4-1.1-.3-3-.9-3.5-1.3zm4.3 1.3c.3-1.1.9-3 1.3-3.4.3-.3.7-.4 1.1-.4.4 0 .8.2 1.1.4.6.6.6 1.5 0 2.1-.5.4-2.4 1-3.5 1.3zM14 250h5v-8h-5v8zm12 0h5v-8h-5v8zm-6 0h5v-8h-5v8z"/>
  <path id="Your_Stats_6_" class="st1" d="M27.8 283h1.4c.4 0 .8.3.8.8v9.7h.7c.1 0 .3.1.3.2s-.1.2-.3.2H14.3c-.1 0-.3-.1-.3-.2s.1-.2.3-.2h.7v-2.7c0-.4.3-.8.8-.8h1.4c.4 0 .8.3.8.8v2.7h1v-5.7c0-.4.3-.8.8-.8h1.4c.4 0 .8.3.8.8v5.7h1v-4.7c0-.4.3-.8.8-.8h1.4c.4 0 .8.3.8.8v4.7h1v-9.7c0-.5.3-.8.8-.8zm-11.3 2.1c-.8 0-1.4.6-1.4 1.4s.6 1.4 1.4 1.4 1.4-.6 1.4-1.4-.6-1.4-1.4-1.4zm4-3c-.8 0-1.4.6-1.4 1.4s.6 1.4 1.4 1.4 1.4-.6 1.4-1.4-.6-1.4-1.4-1.4zm4 1c-.8 0-1.4.6-1.4 1.4s.6 1.4 1.4 1.4 1.4-.6 1.4-1.4-.6-1.4-1.4-1.4zm4-5c-.8 0-1.4.6-1.4 1.4s.6 1.4 1.4 1.4 1.4-.6 1.4-1.4-.6-1.4-1.4-1.4zm-7.9 5.7l4 1 4.1-5.1-.4-.3-3.9 4.9-4-1-4.1 3.1.3.4 4-3z"/>
  <path id="Search_3_" class="st1" d="M32.5 337.2l-3.7-3.7c.9-1.4 1.5-3.1 1.5-4.9 0-4.8-3.9-8.6-8.6-8.6s-8.6 3.9-8.6 8.6 3.9 8.6 8.6 8.6c1.8 0 3.5-.6 4.9-1.5l3.7 3.7c.3.3.7.5 1.1.5s.8-.2 1.1-.5c.7-.5.7-1.5 0-2.2zm-7-3.3c-1.1.8-2.4 1.3-3.8 1.3-3.6 0-6.5-2.9-6.5-6.5s2.9-6.5 6.5-6.5 6.5 2.9 6.5 6.5c0 1.4-.5 2.7-1.3 3.8l-1.4 1.4z"/>
  <path id="Notifications_3_" class="st1" d="M30.5 378H29v-6.4c0-3.1-2.2-5.8-5.2-6.3v-.1c0-.6-.5-1.2-1.1-1.2s-1.2.5-1.2 1.2l-.1.1c-3 .5-5.4 3.2-5.4 6.3v6.4h-1.1c-.2 0-.9.2-.9.4v2.3c0 .2.7.3.9.3h5.2c0 1 1.1 2.7 2.5 2.7s2.5-1.7 2.5-2.7h5.4c.2 0 .5-.1.5-.3v-2.3c0-.2-.3-.4-.5-.4z"/>
  <path class="st1" d="M33 411c0 1.1-.9 2-2 2H15c-1.1 0-2-.9-2-2s.9-2 2-2h16c1.1 0 2 .9 2 2zm0 6c0-1.1-.9-2-2-2H15c-1.1 0-2 .9-2 2s.9 2 2 2h16c1.1 0 2-.9 2-2zm0 6c0-1.1-.9-2-2-2H15c-1.1 0-2 .9-2 2s.9 2 2 2h16c1.1 0 2-.9 2-2z" id="Menu_6_"/>
  <path id="Close_3_" class="st1" d="M24 462l7 7-1 1-7-7-7 7-1-1 7-7-7-7 1-1 7 7 7-7 1 1-7 7z"/>
  <path id="Profile_3_" class="st1" d="M29.4 511c-.3-.2-.6-.4-1-.6-1.1-.6-2.4-1.2-3.5-1.7v-1.6l.3-.3c0-.1.1-.1.1-.2s.1-.1.1-.2v-.1c0-.1.1-.2.1-.3v-.1c0-.1.1-.2.1-.4 0-.1.1-.3.1-.4v-.6c.2-.1.3-.2.4-.4 0-.1.1-.1.1-.2 0 0 0-.1.1-.2v-1c0-.1-.1-.2-.1-.3 0-.1-.1-.2-.1-.2l-.2-.2c0-.1.1-.2.1-.3.1-.2.1-.4.2-.5 0-.2.1-.4.1-.5 0-.3 0-.7-.1-1-.3-1.1-1.6-1.8-3.4-1.8h-1.3c-.1 0-.2.1-.3.1-.1 0-.2.1-.3.1h-.1c-.5.2-.9.5-1.2.9 0 .1-.1.1-.1.2h-.6c-.1 0-.1.1-.2.1s-.1.1-.1.1l-.1.1c0 .1-.1.1-.1.2v1.1c0 .1 0 .1.1.2v.1c.1.2.2.4.2.5-.1.1-.3.2-.4.4-.2.2-.3.6-.3.9v.5c0 .1.1.2.1.3v.1c0 .1.1.2.1.2l.1.1s.1.1.2.1.1.1.2.1v.5c.2 1.1.7 1.6 1 1.8v1.5c-1.2.5-2.5 1.1-3.5 1.7-.4.2-.7.4-1 .6-.7.5-1.1.9-1.1 1.2v2.4c0 .2.2.4.4.4h15.2c.2 0 .4-.2.4-.4v-2.4c.4.3 0-.1-.7-.6z"/>
  <path id="Settings_3_" class="st1" d="M30.2 639.5l-.9-.3c.1-.7 0-1.3-.1-2l.9-.4c.5-.2.8-.9.5-1.4l-.5-1.1c-.2-.5-.9-.8-1.4-.5l-.9.4c-.4-.5-.9-1-1.5-1.3l.3-.9c.2-.6-.1-1.2-.6-1.4l-1.1-.4c-.5-.2-1.2.1-1.4.6l-.3.9c-.7-.1-1.3 0-2 .1l-.4-.9c-.2-.5-.9-.8-1.4-.5l-1.1.5c-.5.2-.8.9-.5 1.4l.4.9c-.5.4-1 .9-1.3 1.5l-.9-.3c-.5-.2-1.2.1-1.4.6l-.4 1.1c-.1.3-.1.6 0 .8.1.3.3.5.6.6l.9.3c-.1.7 0 1.3.1 2l-.9.4c-.5.2-.8.9-.5 1.4l.5 1.1c.2.5.9.8 1.4.5l.9-.4c.4.5.9 1 1.5 1.3l-.3.9c-.1.3-.1.6 0 .8.1.3.3.5.6.6l1.1.4c.3.1.6.1.8 0 .3-.1.5-.3.6-.6l.3-.9c.7.1 1.3 0 2-.1l.4.9c.2.5.9.8 1.4.5l1.1-.5c.5-.2.8-.9.5-1.4l-.4-.9c.5-.4 1-.9 1.3-1.5l.9.3c.3.1.6.1.8 0 .3-.1.5-.3.6-.6l.4-1.1c.2-.6 0-1.2-.6-1.4zm-5.9 2.8c-.6.3-1.2.4-1.8.4-1.7 0-3.2-1-3.9-2.5-1-2.1 0-4.7 2.1-5.6.6-.3 1.2-.4 1.8-.4 1.7 0 3.2 1 3.9 2.5.9 2.1 0 4.6-2.1 5.6zm0 0"/>
  <path id="Help_3_" class="st1" d="M31.5 770c0 5-4 9-9 9s-9-4-9-9 4-9 9-9 9 4 9 9zm-8.3 2.1v-.4c.1-.5.3-.9.6-1.2l.6-.6c.5-.4.8-.8 1-1.2.2-.4.3-.7.3-1.2 0-.9-.3-1.6-.8-2.1-.6-.5-1.4-.7-2.4-.7s-1.8.3-2.4.8c-.6.5-.9 1.2-.9 2.2h2.1c0-.4.1-.7.3-.9s.5-.3.9-.3c.7 0 1.1.4 1.1 1.2 0 .3-.1.5-.2.8s-.4.6-.9.9c-.4.4-.7.8-.9 1.2-.2.4-.2.9-.2 1.6h1.8zm-1.8 2.9c.2.2.5.3.8.3.3 0 .6-.1.8-.3.2-.2.3-.5.3-.8 0-.3-.1-.6-.3-.8-.2-.2-.5-.3-.8-.3-.3 0-.6.1-.8.3-.2.2-.3.5-.3.8 0 .4.1.6.3.8z"/>
  <path id="Log_Out_3_" class="st1" d="M26.2 819.3h-7.5v-10.6h7.5l.3-.3v-1.1l-.3-.3h-8.9l-.3.3v13.5l.3.3h8.9l.3-.3v-1.1l-.3-.4zm5.3-5.5l-4-4H27l-1 1v.4l1.8 1.8H20l-.3.3v1.5l.3.2h7.9l-1.8 1.8v.4l1.2 1 4.3-4.3-.1-.1zm0 0"/>
  <path id="Apps_3_" class="st1" d="M28 713H17c-.9 0-1.7 1.1-1.7 2v21.3c0 .9.7 1.7 1.7 1.7h11c.9 0 1.7-.7 1.7-1.7V715c-.1-.9-.8-2-1.7-2zm-7.3 1h3.5c.1.6.2.7.2.8 0 .1-.1.2-.2.2h-3.5c-.1 0-.2-.1-.2-.2s.1-.2.2-.2v-.6zm1.8 23.2c-.5 0-.8-.4-.8-.8 0-.5.4-.8.8-.8.5 0 .8.4.8.8 0 .5-.3.8-.8.8zm6-2.2h-12v-19h12v19zm0 0"/>
  <path id="Arrow_Down_3_" class="st1" d="M20 856h6l-3 4z"/>
  <path id="Admin_5_" class="st1" d="M32 683.4c-.4 0-.7-.2-1-.4-.2-.3-.4-.6-.4-1s.1-.7.4-1c.2-.3.6-.4 1-.4h.1c.3-.1.5-.3.4-.6-.1-.6-.3-1.3-.6-1.9-.3-.6-.6-1.2-.9-1.7l-.1-.1c-.2-.2-.5-.2-.7 0-.3.3-.6.4-1 .4-.3 0-.7-.1-1-.4-.3-.3-.4-.6-.4-1 0-.3.1-.7.4-1 0 0 0-.1.1-.1.2-.2.1-.6-.1-.7-.5-.4-1.1-.7-1.7-.9-.6-.2-1.2-.4-1.9-.6h-.1c-.3 0-.5.2-.5.5 0 .4-.2.7-.4 1-.2.2-.6.4-1 .4s-.7-.2-1-.4c-.2-.2-.4-.6-.4-1v-.1c-.1-.3-.3-.5-.6-.4-.7.1-1.3.3-1.9.6-.6.2-1.2.6-1.7.9 0 0-.1 0-.1.1-.2.2-.2.5 0 .7.3.3.4.6.4 1s-.1.7-.4 1c-.3.3-.6.4-1 .4s-.7-.1-1-.4c0 0-.1 0-.1-.1-.2-.2-.6-.1-.7.1-.4.5-.7 1.1-.9 1.7-.2.6-.4 1.2-.6 1.9v.1c0 .3.2.5.5.5.4 0 .7.2 1 .4.2.3.4.6.4 1s-.1.7-.4 1c-.2.2-.6.4-1 .4H13c-.3.1-.5.3-.4.6.1.6.3 1.3.6 1.9.2.6.6 1.2.9 1.7 0 0 0 .1.1.1.2.2.5.2.7 0 .3-.3.6-.4 1-.4.3 0 .7.1 1 .4.3.3.4.6.4 1 0 .3-.1.7-.4 1l-.1.1c-.2.2-.1.6.1.7.5.4 1.1.7 1.7.9.6.3 1.2.4 1.9.6h.1c.3 0 .5-.2.5-.5 0-.4.2-.7.4-1 .2-.2.6-.4 1-.4s.7.1 1 .4c.2.2.4.6.4 1v.1c.1.3.3.5.6.4.7-.1 1.3-.3 1.9-.6.6-.2 1.2-.6 1.7-.9 0 0 .1 0 .1-.1.2-.2.2-.5 0-.7-.3-.3-.4-.6-.4-1 0-.3.1-.7.4-1 .3-.3.6-.4 1-.4.3 0 .7.1 1 .4 0 0 .1 0 .1.1.2.2.6.1.7-.1.4-.5.7-1.1.9-1.7.2-.6.4-1.2.6-1.9v-.1c0-.3-.2-.5-.5-.5zm-5.4 2.7c-1 1-2.5 1.7-4.1 1.7-1.6 0-3-.6-4.1-1.7-1-1-1.7-2.5-1.7-4.1 0-1.6.6-3 1.7-4.1 1-1 2.5-1.7 4.1-1.7 1.6 0 3 .6 4.1 1.7 1 1 1.7 2.5 1.7 4.1-.1 1.6-.7 3-1.7 4.1z"/>
  <path id="Users_3_" class="st1" d="M27.1 552.2c-.1 0-.1 0-.2-.1-.8-.4-1.8-.9-2.7-1.3v-1.1s.1 0 .1-.1c.2-.2.5-.5.6-1.2v-.6s.1 0 .1-.1c.2-.1.3-.3.3-.6v-.5c0-.2-.1-.4-.2-.6-.1-.1-.1-.2-.2-.2 0-.1.1-.1.1-.2.1-.1.1-.3.1-.4 0-.1.1-.3.1-.4v-.4c0-.1 0-.2-.1-.3 0-.1 0-.1-.1-.2v-.1s0-.1-.1-.1c-.1-.2-.3-.3-.5-.5l-.1-.1c-.4-.2-.9-.3-1.3-.4h-1.4c-.1 0-.1 0-.2.1-.1 0-.1 0-.2.1h-.1c-.4.2-.7.4-.9.7l-.1.1h-.5c-.1 0-.1 0-.1.1 0 0-.1 0-.1.1l-.1.1c0 .1-.1.1-.1.2v.8c0 .1 0 .1.1.2s.1.3.2.4c-.1.1-.2.1-.2.2-.1.2-.2.4-.2.6v.5l.3.6s.1 0 .1.1v.4c.1.9.5 1.2.7 1.4v1.2c-.9.4-1.9.8-2.7 1.3-.3.2-.5.3-.7.4-.6.4-.8.7-.8.9v3.3c0 .2.1.3.3.3H28v-3.6c.5-.1.1-.5-.9-1z"/>
  <g id="Groups_3_">
    <path class="st1" d="M28.6 596.9c-.4-.1-.9-.3-1.4-.5v-.7c.3-.1.7-.5.8-1.3.2-.2.3-.5.3-.9 0-.1 0-.3-.1-.5 0-.1-.1-.1-.1-.2.2-.3.4-.7.2-1.2-.2-.7-1.1-.9-1.8-.9-.6 0-1.4.2-1.8.7-.3 0-.5.1-.6.2-.2.3 0 .8.1 1.2l-.2.2c-.1.2-.1.4-.1.5 0 .4.1.7.3.9.1.8.5 1.2.9 1.3v.7c-.2.1-.4.1-.5.2.7.5 1 .9 1 1.3v3.1H30c.1 0 .3-.1.3-.3v-2.9c0-.3-.5-.5-1.7-.9z"/>
    <path class="st1" d="M24 596.9c-.1 0-.1 0-.1-.1-.7-.4-1.5-.8-2.3-1.1v-1l.1-.1c.2-.2.4-.5.5-1v-.4s.1 0 .1-.1c.1-.1.2-.3.3-.5v-.3c0-.2 0-.4-.1-.5 0-.1-.1-.1-.2-.2 0-.1 0-.1.1-.2 0-.1.1-.2.1-.4 0-.1.1-.2.1-.3v-.9s0-.1-.1-.1c-.1-.1-.2-.3-.4-.4 0 0-.1 0-.1-.1-.3-.2-.7-.3-1.1-.3h-1.5c-.1 0-.1 0-.2.1h-.1c-.3.1-.6.3-.8.6 0 0 0 .1-.1.1h-.4s-.1 0-.1.1c0 0 0 .1-.1.1 0 0-.1.1-.1.2v.6c0 .1 0 .1.1.2 0 .1.1.2.1.3-.1 0-.1.1-.2.2s-.1.3-.1.5v.3c.1.2.2.4.3.5 0 0 .1 0 .1.1v.4c.1.7.4 1.1.6 1.2v1c-.8.3-1.6.7-2.3 1.1-.2.1-.4.3-.6.4-.5.3-.7.6-.7.8v2.8c0 .1.1.3.3.3h10v-3.1c.1 0-.3-.3-1.1-.8z"/>
  </g>
  <g id="Reports_3_">
    <path class="st1" d="M26 909.1v2.9l4-4.1-2.9.1c-.6 0-1.1.5-1.1 1.1z"/>
    <path class="st1" d="M28.9 892H16.1c-.6 0-1.1.5-1.1 1.1v17.8c0 .6.5 1.1 1.1 1.1H25v-3.9c0-.6.5-1.1 1.1-1.1H30v-13.9c0-.6-.5-1.1-1.1-1.1zm-5.9 2h5v1h-5v-1zm0 2h5v1h-5v-1zm0 2h5v1h-5v-1zm-2-2.7h1v3.7h-1v-3.7zm-2 1.2h1v2.5h-1v-2.5zm-2-3h1v5.5h-1v-5.5zm5.6 15.9c0 .3-.4.6-.6.6h-5.3c-.2 0-.2-.3-.2-.6v-.8c0-.3.2-.6.4-.6h5.3c.2 0 .4.3.4.6v.8zm5.6-3.7c0 .2-.4.3-.6.3H16.7c-.2 0-.2-.1-.2-.3v-.4c0-.2.2-.3.4-.3h10.9c.2 0 .4.1.4.3v.4zm0-2c0 .2-.4.3-.6.3H16.7c-.2 0-.2-.1-.2-.3v-.4c0-.2.2-.3.4-.3h10.9c.2 0 .4.1.4.3v.4zm0-2c0 .2-.4.3-.6.3H16.7c-.2 0-.2-.1-.2-.3v-.4c0-.2.2-.3.4-.3h10.9c.2 0 .4.1.4.3v.4z"/>
  </g>
  <path id="Home_3_" class="st1" d="M31.7 944.5l-8.1-7.3c-.2-.2-.4-.2-.7-.2-.2 0-.5.1-.6.2l-8.1 7.3c-.4.3-.4.9-.1 1.3l.2.3c.3.4.8.5 1 .3.2-.2.6-.3.6-.3v8.1c0 .5.4.9.9.9h3.3c.5 0 .8-.4.8-.9v-5.1h4v5.1c0 .5.3.9.8.9H29c.5 0 .9-.4.9-.9V946l.6.3c.2.2.7 0 1-.3l.2-.3c.4-.3.4-.9 0-1.2z"/>
  <path id="Dashboard_3_" class="st2" d="M67 21h-6v-5h6v5zm7-5h-6v8h6v-8zm0 9h-6v3h6v-3zm-7-3h-6v6h6v-6z"/>
  <path class="st2" d="M75 59.5c0 .8-.9 1.5-2 1.5H62c-1.1 0-2-.7-2-1.5s.9-1.5 2-1.5h11c1.1 0 2 .7 2 1.5zm0 4c0-.8-.9-1.5-2-1.5H62c-1.1 0-2 .7-2 1.5s.9 1.5 2 1.5h11c1.1 0 2-.7 2-1.5zm0 4c0-.8-.9-1.5-2-1.5H62c-1.1 0-2 .7-2 1.5s.9 1.5 2 1.5h11c1.1 0 2-.7 2-1.5zm-4 4c0-.8-.9-1.5-2-1.5h-7c-1.1 0-2 .7-2 1.5s.9 1.5 2 1.5h7c1.1 0 2-.7 2-1.5z" id="Newsfeed_9_"/>
  <path id="Adventures_3_" class="st2" d="M76 102c-.1-.1-.2-.1-.3 0l-16 8.5c-.1.1-.2.2-.1.3 0 .1.1.2.3.2H67v6.7c0 .1.1.2.2.3h.1c.1 0 .2-.1.2-.1l8.6-15.5c0-.2 0-.3-.1-.4z"/>
  <path id="Events_3_" class="st2" d="M77 148.7c0-1.1-.9-1.7-2-1.7H60c-1.1 0-2 .6-2 1.7v1.3h19v-1.3zm-12.5.4c-.3 0-.6-.3-.6-.6s.3-.6.6-.6.6.3.6.6-.3.6-.6.6zm-2 0c-.3 0-.6-.3-.6-.6s.3-.6.6-.6.6.3.6.6-.3.6-.6.6zm-2 0c-.3 0-.6-.3-.6-.6s.3-.6.6-.6.6.3.6.6-.3.6-.6.6zM58 151v9c0 1.1.9 2 2 2h15c1.1 0 2-.9 2-2v-9H58zm4 9h-2v-2h2v2zm0-3h-2v-2h2v2zm0-3h-2v-2h2v2zm3 6h-2v-2h2v2zm0-3h-2v-2h2v2zm0-3h-2v-2h2v2zm3 6h-2v-2h2v2zm0-3h-2v-2h2v2zm0-3h-2v-2h2v2zm3 6h-2v-2h2v2zm0-3h-2v-2h2v2zm0-3h-2v-2h2v2zm3 6h-2v-2h2v2zm0-3h-2v-2h2v2zm0-3h-2v-2h2v2z"/>
  <path id="Leaderboards_3_" class="st2" d="M71 203v5.7c0 .1-.1.2-.2.3h-.1c-.1 0-.2 0-.2-.1l-2.9-3.4-2.9 3.4c-.1.1-.2.1-.3.1-.1 0-.2-.2-.2-.3V203c.4.1.9.1 1.3 0 .5.6 1.1 1.2 2.2 1.2s1.5-.6 2.1-1.2c.2.1.7.1 1.2 0zm3-5.3v-.3c0-.1 0-.1-.1-.2v-.1c0-.1-.1-.1-.1-.2v-.1c0-.1-.1-.1-.1-.2v-.1l-.2-.2.2-.2v-.1s.1-.1.1-.2v-.1c0-.1.1-.1.1-.2v-.1c0-.1 0-.1.1-.2v-1c0-.1 0-.2-.1-.3 0-.1-.1-.2-.1-.2v-.1c0-.1-.1-.1-.1-.1s0-.1-.1-.1l-.1-.1s0-.1-.1-.1l-.1-.1s-.1 0-.1-.1l-.1-.1s-.1 0-.1-.1l-.1-.1h-.1c-.1 0-.1 0-.2-.1h-.1c-.1 0-.2 0-.3-.1v-1c0-.1 0-.1-.1-.2v-.1c0-.1-.1-.1-.1-.2v-.1c0-.1-.1-.1-.1-.2v-.1l-.1-.1-.1-.1-.2-.2c-.1-.1-.2-.1-.2-.1-.1 0-.1-.1-.2-.1-.3-.1-.7 0-1.1 0h-.2c-.1 0-.2.1-.3.1 0-.1-.1-.2-.1-.2s0-.1-.1-.1l-.1-.1-.1-.1-.1-.1-.1-.1s-.1-.1-.2-.1h-.1c-.1 0-.1-.1-.2-.1h-.1c-.1 0-.1 0-.2-.1h-1.4c-.1 0-.1 0-.2.1h-.1c-.1 0-.1.1-.2.1h-.1c-.1 0-.1.1-.2.1h-.1l-.1.1-.1.1-.1.1-.1.1c-.1.1-.1.1-.1.2-.1 0-.2-.1-.3-.1h-.2c-.4 0-.7-.1-1.1 0-.1 0-.1 0-.2.1-.1 0-.2.1-.2.1l-.2.2-.1.1-.1.1-.1.1-.1.1v.1c0 .1-.1.1-.1.2v.1c0 .1 0 .1-.1.2v1c-.1 0-.2 0-.3.1h-.1c-.1 0-.1 0-.2.1h-.1c-.1 0-.1 0-.1.1 0 0-.1 0-.1.1l-.1.1s-.1 0-.1.1l-.1.1-.1.1-.1.1s0 .1-.1.1c0 0-.1.1-.1.2v.1c0 .1-.1.2-.1.2 0 .1 0 .2-.1.3v1c0 .1 0 .1.1.2v.1c0 .1.1.1.1.2v.1c0 .1.1.1.1.2v.1l.2.2-.2.2v.1l-.1.1v.1c0 .1-.1.1-.1.2v.1c0 .1 0 .1-.1.2v1c0 .1 0 .2.1.3 0 .1.1.2.1.2v.1c0 .1.1.1.1.2 0 0 0 .1.1.1l.1.1s0 .1.1.1l.1.1s.1 0 .1.1l.1.1s.1 0 .1.1l.1.1h.1c.1 0 .1 0 .2.1h.1c.1 0 .2 0 .3.1v1c0 .1 0 .1.1.2v.1c0 .1.1.1.1.2v.1c0 .1.1.1.1.1l.1.1.1.1.1.1.2.2c.1.1.2.1.2.1.1 0 .1.1.2.1h-.1c1 .1.9.1 1.4 0h.1c.1 0 .2 0 .3.1.4.5 1 .9 1.7.9s1.3-.3 1.7-.9c.1-.1.2-.2.4-.1.5.2.9.2 1.4 0 .1 0 .1-.1.2-.1s.2-.1.2-.1l.2-.2.1-.1.1-.1.1-.1.1-.1v-.1s.1-.1.1-.2v-.1c0-.1 0-.1.1-.2v-.9c.1 0 .2 0 .3-.1h.1c.1 0 .1 0 .2-.1h.1c.1 0 .1 0 .1-.1 0 0 .1 0 .1-.1l.1-.1s.1 0 .1-.1l.1-.1s0-.1.1-.1l.1-.1s0-.1.1-.1l.1-.1v-.1c0-.1.1-.2.1-.2v-.7c.5-.1.5-.2.5-.3zm-4.5-.6l.5 2.8-2.5-1.3-2.5 1.3.5-2.8-2-1.9 2.8-.4 1.2-2.5 1.2 2.5 2.8.4-2 1.9z"/>
  <path id="Rewards_3_" class="st2" d="M76 238v3h-5v-3h5zm-17 3h5v-3h-5v3zm12.7-6.9c-.4-.4-.9-.6-1.5-.6s-1.1.2-1.5.6c-.5.5-1 2.1-1.3 3.1-.3-1.1-.8-2.6-1.3-3.1-.4-.4-.9-.6-1.5-.6s-1.1.2-1.5.6c-.8.8-.8 2.1 0 2.9.4.4 1.1.6 2 .9H65v3h5v-3h-.3c.9-.3 1.6-.6 2-.9.8-.7.8-2.1 0-2.9zm-8.1 2.6c-.6-.6-.6-1.5 0-2.1.3-.3.7-.4 1.1-.4.4 0 .8.2 1.1.4.5.5 1 2.3 1.3 3.4-1.1-.3-3-.9-3.5-1.3zm4.3 1.3c.3-1.1.9-3 1.3-3.4.3-.3.7-.4 1.1-.4.4 0 .8.2 1.1.4.6.6.6 1.5 0 2.1-.5.4-2.4 1-3.5 1.3zM59 250h5v-8h-5v8zm12 0h5v-8h-5v8zm-6 0h5v-8h-5v8z"/>
  <path id="Your_Stats_3_" class="st2" d="M72.8 283h1.4c.4 0 .8.3.8.8v9.7h.7c.1 0 .3.1.3.2s-.1.2-.3.2H59.3c-.1 0-.3-.1-.3-.2s.1-.2.3-.2h.7v-2.7c0-.4.3-.8.8-.8h1.4c.4 0 .8.3.8.8v2.7h1v-5.7c0-.4.3-.8.8-.8h1.4c.4 0 .8.3.8.8v5.7h1v-4.7c0-.4.3-.8.8-.8h1.4c.4 0 .8.3.8.8v4.7h1v-9.7c0-.5.3-.8.8-.8zm-11.3 2.1c-.8 0-1.4.6-1.4 1.4s.6 1.4 1.4 1.4 1.4-.6 1.4-1.4-.6-1.4-1.4-1.4zm4-3c-.8 0-1.4.6-1.4 1.4s.6 1.4 1.4 1.4 1.4-.6 1.4-1.4-.6-1.4-1.4-1.4zm4 1c-.8 0-1.4.6-1.4 1.4s.6 1.4 1.4 1.4 1.4-.6 1.4-1.4-.6-1.4-1.4-1.4zm4-5c-.8 0-1.4.6-1.4 1.4s.6 1.4 1.4 1.4 1.4-.6 1.4-1.4-.6-1.4-1.4-1.4zm-7.9 5.7l4 1 4.1-5.1-.4-.3-3.9 4.9-4-1-4.1 3.1.3.4 4-3z"/>
  <path id="Dashboard_2_" class="st2" d="M67 21h-6v-5h6v5zm7-5h-6v8h6v-8zm0 9h-6v3h6v-3zm-7-3h-6v6h6v-6z"/>
  <path class="st2" d="M75 59.5c0 .8-.9 1.5-2 1.5H62c-1.1 0-2-.7-2-1.5s.9-1.5 2-1.5h11c1.1 0 2 .7 2 1.5zm0 4c0-.8-.9-1.5-2-1.5H62c-1.1 0-2 .7-2 1.5s.9 1.5 2 1.5h11c1.1 0 2-.7 2-1.5zm0 4c0-.8-.9-1.5-2-1.5H62c-1.1 0-2 .7-2 1.5s.9 1.5 2 1.5h11c1.1 0 2-.7 2-1.5zm-4 4c0-.8-.9-1.5-2-1.5h-7c-1.1 0-2 .7-2 1.5s.9 1.5 2 1.5h7c1.1 0 2-.7 2-1.5z" id="Newsfeed_2_"/>
  <path id="Adventures_2_" class="st2" d="M76 102c-.1-.1-.2-.1-.3 0l-16 8.5c-.1.1-.2.2-.1.3 0 .1.1.2.3.2H67v6.7c0 .1.1.2.2.3h.1c.1 0 .2-.1.2-.1l8.6-15.5c0-.2 0-.3-.1-.4z"/>
  <path id="Events_2_" class="st2" d="M77 148.7c0-1.1-.9-1.7-2-1.7H60c-1.1 0-2 .6-2 1.7v1.3h19v-1.3zm-12.5.4c-.3 0-.6-.3-.6-.6s.3-.6.6-.6.6.3.6.6-.3.6-.6.6zm-2 0c-.3 0-.6-.3-.6-.6s.3-.6.6-.6.6.3.6.6-.3.6-.6.6zm-2 0c-.3 0-.6-.3-.6-.6s.3-.6.6-.6.6.3.6.6-.3.6-.6.6zM58 151v9c0 1.1.9 2 2 2h15c1.1 0 2-.9 2-2v-9H58zm4 9h-2v-2h2v2zm0-3h-2v-2h2v2zm0-3h-2v-2h2v2zm3 6h-2v-2h2v2zm0-3h-2v-2h2v2zm0-3h-2v-2h2v2zm3 6h-2v-2h2v2zm0-3h-2v-2h2v2zm0-3h-2v-2h2v2zm3 6h-2v-2h2v2zm0-3h-2v-2h2v2zm0-3h-2v-2h2v2zm3 6h-2v-2h2v2zm0-3h-2v-2h2v2zm0-3h-2v-2h2v2z"/>
  <path id="Leaderboards_2_" class="st2" d="M71 203v5.7c0 .1-.1.2-.2.3h-.1c-.1 0-.2 0-.2-.1l-2.9-3.4-2.9 3.4c-.1.1-.2.1-.3.1-.1 0-.2-.2-.2-.3V203c.4.1.9.1 1.3 0 .5.6 1.1 1.2 2.2 1.2s1.5-.6 2.1-1.2c.2.1.7.1 1.2 0zm3-5.3v-.3c0-.1 0-.1-.1-.2v-.1c0-.1-.1-.1-.1-.2v-.1c0-.1-.1-.1-.1-.2v-.1l-.2-.2.2-.2v-.1s.1-.1.1-.2v-.1c0-.1.1-.1.1-.2v-.1c0-.1 0-.1.1-.2v-1c0-.1 0-.2-.1-.3 0-.1-.1-.2-.1-.2v-.1c0-.1-.1-.1-.1-.1s0-.1-.1-.1l-.1-.1s0-.1-.1-.1l-.1-.1s-.1 0-.1-.1l-.1-.1s-.1 0-.1-.1l-.1-.1h-.1c-.1 0-.1 0-.2-.1h-.1c-.1 0-.2 0-.3-.1v-1c0-.1 0-.1-.1-.2v-.1c0-.1-.1-.1-.1-.2v-.1c0-.1-.1-.1-.1-.2v-.1l-.1-.1-.1-.1-.2-.2c-.1-.1-.2-.1-.2-.1-.1 0-.1-.1-.2-.1-.3-.1-.7 0-1.1 0h-.2c-.1 0-.2.1-.3.1 0-.1-.1-.2-.1-.2s0-.1-.1-.1l-.1-.1-.1-.1-.1-.1-.1-.1s-.1-.1-.2-.1h-.1c-.1 0-.1-.1-.2-.1h-.1c-.1 0-.1 0-.2-.1h-1.4c-.1 0-.1 0-.2.1h-.1c-.1 0-.1.1-.2.1h-.1c-.1 0-.1.1-.2.1h-.1l-.1.1-.1.1-.1.1-.1.1c-.1.1-.1.1-.1.2-.1 0-.2-.1-.3-.1h-.2c-.4 0-.7-.1-1.1 0-.1 0-.1 0-.2.1-.1 0-.2.1-.2.1l-.2.2-.1.1-.1.1-.1.1-.1.1v.1c0 .1-.1.1-.1.2v.1c0 .1 0 .1-.1.2v1c-.1 0-.2 0-.3.1h-.1c-.1 0-.1 0-.2.1h-.1c-.1 0-.1 0-.1.1 0 0-.1 0-.1.1l-.1.1s-.1 0-.1.1l-.1.1-.1.1-.1.1s0 .1-.1.1c0 0-.1.1-.1.2v.1c0 .1-.1.2-.1.2 0 .1 0 .2-.1.3v1c0 .1 0 .1.1.2v.1c0 .1.1.1.1.2v.1c0 .1.1.1.1.2v.1l.2.2-.2.2v.1l-.1.1v.1c0 .1-.1.1-.1.2v.1c0 .1 0 .1-.1.2v1c0 .1 0 .2.1.3 0 .1.1.2.1.2v.1c0 .1.1.1.1.2 0 0 0 .1.1.1l.1.1s0 .1.1.1l.1.1s.1 0 .1.1l.1.1s.1 0 .1.1l.1.1h.1c.1 0 .1 0 .2.1h.1c.1 0 .2 0 .3.1v1c0 .1 0 .1.1.2v.1c0 .1.1.1.1.2v.1c0 .1.1.1.1.1l.1.1.1.1.1.1.2.2c.1.1.2.1.2.1.1 0 .1.1.2.1h-.1c1 .1.9.1 1.4 0h.1c.1 0 .2 0 .3.1.4.5 1 .9 1.7.9s1.3-.3 1.7-.9c.1-.1.2-.2.4-.1.5.2.9.2 1.4 0 .1 0 .1-.1.2-.1s.2-.1.2-.1l.2-.2.1-.1.1-.1.1-.1.1-.1v-.1s.1-.1.1-.2v-.1c0-.1 0-.1.1-.2v-.9c.1 0 .2 0 .3-.1h.1c.1 0 .1 0 .2-.1h.1c.1 0 .1 0 .1-.1 0 0 .1 0 .1-.1l.1-.1s.1 0 .1-.1l.1-.1s0-.1.1-.1l.1-.1s0-.1.1-.1l.1-.1v-.1c0-.1.1-.2.1-.2v-.7c.5-.1.5-.2.5-.3zm-4.5-.6l.5 2.8-2.5-1.3-2.5 1.3.5-2.8-2-1.9 2.8-.4 1.2-2.5 1.2 2.5 2.8.4-2 1.9z"/>
  <path id="Rewards_2_" class="st2" d="M76 238v3h-5v-3h5zm-17 3h5v-3h-5v3zm12.7-6.9c-.4-.4-.9-.6-1.5-.6s-1.1.2-1.5.6c-.5.5-1 2.1-1.3 3.1-.3-1.1-.8-2.6-1.3-3.1-.4-.4-.9-.6-1.5-.6s-1.1.2-1.5.6c-.8.8-.8 2.1 0 2.9.4.4 1.1.6 2 .9H65v3h5v-3h-.3c.9-.3 1.6-.6 2-.9.8-.7.8-2.1 0-2.9zm-8.1 2.6c-.6-.6-.6-1.5 0-2.1.3-.3.7-.4 1.1-.4.4 0 .8.2 1.1.4.5.5 1 2.3 1.3 3.4-1.1-.3-3-.9-3.5-1.3zm4.3 1.3c.3-1.1.9-3 1.3-3.4.3-.3.7-.4 1.1-.4.4 0 .8.2 1.1.4.6.6.6 1.5 0 2.1-.5.4-2.4 1-3.5 1.3zM59 250h5v-8h-5v8zm12 0h5v-8h-5v8zm-6 0h5v-8h-5v8z"/>
  <path id="Your_Stats_2_" class="st2" d="M72.8 283h1.4c.4 0 .8.3.8.8v9.7h.7c.1 0 .3.1.3.2s-.1.2-.3.2H59.3c-.1 0-.3-.1-.3-.2s.1-.2.3-.2h.7v-2.7c0-.4.3-.8.8-.8h1.4c.4 0 .8.3.8.8v2.7h1v-5.7c0-.4.3-.8.8-.8h1.4c.4 0 .8.3.8.8v5.7h1v-4.7c0-.4.3-.8.8-.8h1.4c.4 0 .8.3.8.8v4.7h1v-9.7c0-.5.3-.8.8-.8zm-11.3 2.1c-.8 0-1.4.6-1.4 1.4s.6 1.4 1.4 1.4 1.4-.6 1.4-1.4-.6-1.4-1.4-1.4zm4-3c-.8 0-1.4.6-1.4 1.4s.6 1.4 1.4 1.4 1.4-.6 1.4-1.4-.6-1.4-1.4-1.4zm4 1c-.8 0-1.4.6-1.4 1.4s.6 1.4 1.4 1.4 1.4-.6 1.4-1.4-.6-1.4-1.4-1.4zm4-5c-.8 0-1.4.6-1.4 1.4s.6 1.4 1.4 1.4 1.4-.6 1.4-1.4-.6-1.4-1.4-1.4zm-7.9 5.7l4 1 4.1-5.1-.4-.3-3.9 4.9-4-1-4.1 3.1.3.4 4-3z"/>
  <path id="Search_2_" class="st2" d="M77.5 337.2l-3.7-3.7c.9-1.4 1.5-3.1 1.5-4.9 0-4.8-3.9-8.6-8.6-8.6s-8.6 3.9-8.6 8.6 3.9 8.6 8.6 8.6c1.8 0 3.5-.6 4.9-1.5l3.7 3.7c.3.3.7.5 1.1.5s.8-.2 1.1-.5c.7-.5.7-1.5 0-2.2zm-7-3.3c-1.1.8-2.4 1.3-3.8 1.3-3.6 0-6.5-2.9-6.5-6.5s2.9-6.5 6.5-6.5 6.5 2.9 6.5 6.5c0 1.4-.5 2.7-1.3 3.8l-1.4 1.4z"/>
  <path id="Notifications_2_" class="st2" d="M75.5 378H74v-6.4c0-3.1-2.2-5.8-5.2-6.3v-.1c0-.6-.5-1.2-1.1-1.2-.6 0-1.2.5-1.2 1.2l-.1.1c-3 .5-5.4 3.2-5.4 6.3v6.4h-1.1c-.2 0-.9.2-.9.4v2.3c0 .2.7.3.9.3h5.2c0 1 1.1 2.7 2.5 2.7s2.5-1.7 2.5-2.7h5.4c.2 0 .5-.1.5-.3v-2.3c0-.2-.3-.4-.5-.4z"/>
  <path class="st2" d="M78 411c0 1.1-.9 2-2 2H60c-1.1 0-2-.9-2-2s.9-2 2-2h16c1.1 0 2 .9 2 2zm0 6c0-1.1-.9-2-2-2H60c-1.1 0-2 .9-2 2s.9 2 2 2h16c1.1 0 2-.9 2-2zm0 6c0-1.1-.9-2-2-2H60c-1.1 0-2 .9-2 2s.9 2 2 2h16c1.1 0 2-.9 2-2z" id="Menu_2_"/>
  <path id="Close_2_" class="st2" d="M69 462l7 7-1 1-7-7-7 7-1-1 7-7-7-7 1-1 7 7 7-7 1 1-7 7z"/>
  <path id="Profile_2_" class="st2" d="M74.4 511c-.3-.2-.6-.4-1-.6-1.1-.6-2.4-1.2-3.5-1.7v-1.6l.3-.3c0-.1.1-.1.1-.2s.1-.1.1-.2v-.1c0-.1.1-.2.1-.3v-.1c0-.1.1-.2.1-.4 0-.1.1-.3.1-.4v-.6c.2-.1.3-.2.4-.4 0-.1.1-.1.1-.2 0 0 0-.1.1-.2v-1c0-.1-.1-.2-.1-.3 0-.1-.1-.2-.1-.2l-.2-.2c0-.1.1-.2.1-.3.1-.2.1-.4.2-.5 0-.2.1-.4.1-.5 0-.3 0-.7-.1-1-.3-1.1-1.6-1.8-3.4-1.8h-1.3c-.1 0-.2.1-.3.1-.1 0-.2.1-.3.1h-.1c-.5.2-.9.5-1.2.9 0 .1-.1.1-.1.2h-.6c-.1 0-.1.1-.2.1s-.1.1-.1.1l-.1.1c0 .1-.1.1-.1.2v1.1c0 .1 0 .1.1.2v.1c.1.2.2.4.2.5-.1.1-.3.2-.4.4-.2.2-.3.6-.3.9v.5c0 .1.1.2.1.3v.1c0 .1.1.2.1.2l.1.1s.1.1.2.1.1.1.2.1v.5c.2 1.1.7 1.6 1 1.8v1.5c-1.2.5-2.5 1.1-3.5 1.7-.4.2-.7.4-1 .6-.7.5-1.1.9-1.1 1.2v2.4c0 .2.2.4.4.4h15.2c.2 0 .4-.2.4-.4v-2.4c.4.3 0-.1-.7-.6z"/>
  <path id="Settings_2_" class="st2" d="M75.2 639.5l-.9-.3c.1-.7 0-1.3-.1-2l.9-.4c.5-.2.8-.9.5-1.4l-.5-1.1c-.2-.5-.9-.8-1.4-.5l-.9.4c-.4-.5-.9-1-1.5-1.3l.3-.9c.2-.6-.1-1.2-.6-1.4l-1.1-.4c-.5-.2-1.2.1-1.4.6l-.3.9c-.7-.1-1.3 0-2 .1l-.4-.9c-.2-.5-.9-.8-1.4-.5l-1.1.5c-.5.2-.8.9-.5 1.4l.4.9c-.5.4-1 .9-1.3 1.5l-.9-.3c-.5-.2-1.2.1-1.4.6l-.4 1.1c-.1.3-.1.6 0 .8.1.3.3.5.6.6l.9.3c-.1.7 0 1.3.1 2l-.9.4c-.5.2-.8.9-.5 1.4l.5 1.1c.2.5.9.8 1.4.5l.9-.4c.4.5.9 1 1.5 1.3l-.3.9c-.1.3-.1.6 0 .8.1.3.3.5.6.6l1.1.4c.3.1.6.1.8 0 .3-.1.5-.3.6-.6l.3-.9c.7.1 1.3 0 2-.1l.4.9c.2.5.9.8 1.4.5l1.1-.5c.5-.2.8-.9.5-1.4l-.4-.9c.5-.4 1-.9 1.3-1.5l.9.3c.3.1.6.1.8 0 .3-.1.5-.3.6-.6l.4-1.1c.2-.6 0-1.2-.6-1.4zm-5.9 2.8c-.6.3-1.2.4-1.8.4-1.7 0-3.2-1-3.9-2.5-1-2.1 0-4.7 2.1-5.6.6-.3 1.2-.4 1.8-.4 1.7 0 3.2 1 3.9 2.5.9 2.1 0 4.6-2.1 5.6zm0 0"/>
  <path id="Help_2_" class="st2" d="M76.5 770c0 5-4 9-9 9s-9-4-9-9 4-9 9-9 9 4 9 9zm-8.3 2.1v-.4c.1-.5.3-.9.6-1.2l.6-.6c.5-.4.8-.8 1-1.2.2-.4.3-.7.3-1.2 0-.9-.3-1.6-.8-2.1-.6-.5-1.4-.7-2.4-.7s-1.8.3-2.4.8c-.6.5-.9 1.2-.9 2.2h2.1c0-.4.1-.7.3-.9.2-.2.5-.3.9-.3.7 0 1.1.4 1.1 1.2 0 .3-.1.5-.2.8s-.4.6-.9.9c-.4.4-.7.8-.9 1.2-.2.4-.2.9-.2 1.6h1.8zm-1.8 2.9c.2.2.5.3.8.3.3 0 .6-.1.8-.3.2-.2.3-.5.3-.8 0-.3-.1-.6-.3-.8-.2-.2-.5-.3-.8-.3-.3 0-.6.1-.8.3-.2.2-.3.5-.3.8 0 .4.1.6.3.8z"/>
  <path id="Log_Out_2_" class="st2" d="M71.2 819.3h-7.5v-10.6h7.5l.3-.3v-1.1l-.3-.3h-8.9l-.3.3v13.5l.3.3h8.9l.3-.3v-1.1l-.3-.4zm5.3-5.5l-4-4H72l-1 1v.4l1.8 1.8H65l-.3.3v1.5l.3.2h7.9l-1.8 1.8v.4l1.2 1 4.3-4.3-.1-.1zm0 0"/>
  <path id="Apps_2_" class="st2" d="M73 713H62c-.9 0-1.7 1.1-1.7 2v21.3c0 .9.7 1.7 1.7 1.7h11c.9 0 1.7-.7 1.7-1.7V715c-.1-.9-.8-2-1.7-2zm-7.3 1h3.5c.1.6.2.7.2.8 0 .1-.1.2-.2.2h-3.5c-.1 0-.2-.1-.2-.2s.1-.2.2-.2v-.6zm1.8 23.2c-.5 0-.8-.4-.8-.8 0-.5.4-.8.8-.8.5 0 .8.4.8.8 0 .5-.3.8-.8.8zm6-2.2h-12v-19h12v19zm0 0"/>
  <path id="Arrow_Down_2_" class="st2" d="M65 856h6l-3 4z"/>
  <path id="Admin_4_" class="st2" d="M77 683.4c-.4 0-.7-.2-1-.4-.2-.3-.4-.6-.4-1s.1-.7.4-1c.2-.3.6-.4 1-.4h.1c.3-.1.5-.3.4-.6-.1-.6-.3-1.3-.6-1.9-.3-.6-.6-1.2-.9-1.7l-.1-.1c-.2-.2-.5-.2-.7 0-.3.3-.6.4-1 .4-.3 0-.7-.1-1-.4-.3-.3-.4-.6-.4-1 0-.3.1-.7.4-1 0 0 0-.1.1-.1.2-.2.1-.6-.1-.7-.5-.4-1.1-.7-1.7-.9-.6-.2-1.2-.4-1.9-.6h-.1c-.3 0-.5.2-.5.5 0 .4-.2.7-.4 1-.2.2-.6.4-1 .4s-.7-.2-1-.4c-.2-.2-.4-.6-.4-1v-.1c-.1-.3-.3-.5-.6-.4-.7.1-1.3.3-1.9.6-.6.2-1.2.6-1.7.9 0 0-.1 0-.1.1-.2.2-.2.5 0 .7.3.3.4.6.4 1s-.1.7-.4 1c-.3.3-.6.4-1 .4s-.7-.1-1-.4c0 0-.1 0-.1-.1-.2-.2-.6-.1-.7.1-.4.5-.7 1.1-.9 1.7-.2.6-.4 1.2-.6 1.9v.1c0 .3.2.5.5.5.4 0 .7.2 1 .4.2.3.4.6.4 1s-.1.7-.4 1c-.2.2-.6.4-1 .4H58c-.3.1-.5.3-.4.6.1.6.3 1.3.6 1.9.2.6.6 1.2.9 1.7 0 0 0 .1.1.1.2.2.5.2.7 0 .3-.3.6-.4 1-.4.3 0 .7.1 1 .4.3.3.4.6.4 1 0 .3-.1.7-.4 1l-.1.1c-.2.2-.1.6.1.7.5.4 1.1.7 1.7.9.6.3 1.2.4 1.9.6h.1c.3 0 .5-.2.5-.5 0-.4.2-.7.4-1 .2-.2.6-.4 1-.4s.7.1 1 .4c.2.2.4.6.4 1v.1c.1.3.3.5.6.4.7-.1 1.3-.3 1.9-.6.6-.2 1.2-.6 1.7-.9 0 0 .1 0 .1-.1.2-.2.2-.5 0-.7-.3-.3-.4-.6-.4-1 0-.3.1-.7.4-1 .3-.3.6-.4 1-.4.3 0 .7.1 1 .4 0 0 .1 0 .1.1.2.2.6.1.7-.1.4-.5.7-1.1.9-1.7.2-.6.4-1.2.6-1.9v-.1c0-.3-.2-.5-.5-.5zm-5.4 2.7c-1 1-2.5 1.7-4.1 1.7-1.6 0-3-.6-4.1-1.7-1-1-1.7-2.5-1.7-4.1 0-1.6.6-3 1.7-4.1 1-1 2.5-1.7 4.1-1.7 1.6 0 3 .6 4.1 1.7 1 1 1.7 2.5 1.7 4.1-.1 1.6-.7 3-1.7 4.1z"/>
  <path id="Users_2_" class="st2" d="M72.1 552.2c-.1 0-.1 0-.2-.1-.8-.4-1.8-.9-2.7-1.3v-1.1s.1 0 .1-.1c.2-.2.5-.5.6-1.2v-.6s.1 0 .1-.1c.2-.1.3-.3.3-.6v-.5c0-.2-.1-.4-.2-.6-.1-.1-.1-.2-.2-.2 0-.1.1-.1.1-.2.1-.1.1-.3.1-.4 0-.1.1-.3.1-.4v-.4c0-.1 0-.2-.1-.3 0-.1 0-.1-.1-.2v-.1s0-.1-.1-.1c-.1-.2-.3-.3-.5-.5l-.1-.1c-.4-.2-.9-.3-1.3-.4h-1.4c-.1 0-.1 0-.2.1-.1 0-.1 0-.2.1h-.1c-.4.2-.7.4-.9.7l-.1.1h-.5c-.1 0-.1 0-.1.1 0 0-.1 0-.1.1l-.1.1c0 .1-.1.1-.1.2v.8c0 .1 0 .1.1.2s.1.3.2.4c-.1.1-.2.1-.2.2-.1.2-.2.4-.2.6v.5l.3.6s.1 0 .1.1v.4c.1.9.5 1.2.7 1.4v1.2c-.9.4-1.9.8-2.7 1.3-.3.2-.5.3-.7.4-.6.4-.8.7-.8.9v3.3c0 .2.1.3.3.3H73v-3.6c.5-.1.1-.5-.9-1z"/>
  <g id="Groups_2_">
    <path class="st2" d="M73.6 596.9c-.4-.1-.9-.3-1.4-.5v-.7c.3-.1.7-.5.8-1.3.2-.2.3-.5.3-.9 0-.1 0-.3-.1-.5 0-.1-.1-.1-.1-.2.2-.3.4-.7.2-1.2-.2-.7-1.1-.9-1.8-.9-.6 0-1.4.2-1.8.7-.3 0-.5.1-.6.2-.2.3 0 .8.1 1.2l-.2.2c-.1.2-.1.4-.1.5 0 .4.1.7.3.9.1.8.5 1.2.9 1.3v.7c-.2.1-.4.1-.5.2.7.5 1 .9 1 1.3v3.1H75c.1 0 .3-.1.3-.3v-2.9c0-.3-.5-.5-1.7-.9z"/>
    <path class="st2" d="M69 596.9c-.1 0-.1 0-.1-.1-.7-.4-1.5-.8-2.3-1.1v-1l.1-.1c.2-.2.4-.5.5-1v-.4s.1 0 .1-.1c.1-.1.2-.3.3-.5v-.3c0-.2 0-.4-.1-.5 0-.1-.1-.1-.2-.2 0-.1 0-.1.1-.2 0-.1.1-.2.1-.4 0-.1.1-.2.1-.3v-.9s0-.1-.1-.1c-.1-.1-.2-.3-.4-.4 0 0-.1 0-.1-.1-.3-.2-.7-.3-1.1-.3h-1.5c-.1 0-.1 0-.2.1h-.1c-.3.1-.6.3-.8.6 0 0 0 .1-.1.1h-.4s-.1 0-.1.1c0 0 0 .1-.1.1 0 0-.1.1-.1.2v.6c0 .1 0 .1.1.2 0 .1.1.2.1.3-.1 0-.1.1-.2.2s-.1.3-.1.5v.3c.1.2.2.4.3.5 0 0 .1 0 .1.1v.4c.1.7.4 1.1.6 1.2v1c-.8.3-1.6.7-2.3 1.1-.2.1-.4.3-.6.4-.5.3-.7.6-.7.8v2.8c0 .1.1.3.3.3h10v-3.1c.1 0-.3-.3-1.1-.8z"/>
  </g>
  <g id="Reports_2_">
    <path class="st2" d="M71 909.1v2.9l4-4.1-2.9.1c-.6 0-1.1.5-1.1 1.1z"/>
    <path class="st2" d="M73.9 892H61.1c-.6 0-1.1.5-1.1 1.1v17.8c0 .6.5 1.1 1.1 1.1H70v-3.9c0-.6.5-1.1 1.1-1.1H75v-13.9c0-.6-.5-1.1-1.1-1.1zm-5.9 2h5v1h-5v-1zm0 2h5v1h-5v-1zm0 2h5v1h-5v-1zm-2-2.7h1v3.7h-1v-3.7zm-2 1.2h1v2.5h-1v-2.5zm-2-3h1v5.5h-1v-5.5zm5.6 15.9c0 .3-.4.6-.6.6h-5.3c-.2 0-.2-.3-.2-.6v-.8c0-.3.2-.6.4-.6h5.3c.2 0 .4.3.4.6v.8zm5.6-3.7c0 .2-.4.3-.6.3H61.7c-.2 0-.2-.1-.2-.3v-.4c0-.2.2-.3.4-.3h10.9c.2 0 .4.1.4.3v.4zm0-2c0 .2-.4.3-.6.3H61.7c-.2 0-.2-.1-.2-.3v-.4c0-.2.2-.3.4-.3h10.9c.2 0 .4.1.4.3v.4zm0-2c0 .2-.4.3-.6.3H61.7c-.2 0-.2-.1-.2-.3v-.4c0-.2.2-.3.4-.3h10.9c.2 0 .4.1.4.3v.4z"/>
  </g>
  <path id="Home_2_" class="st2" d="M76.7 944.5l-8.1-7.3c-.2-.2-.4-.2-.7-.2-.2 0-.5.1-.6.2l-8.1 7.3c-.4.3-.4.9-.1 1.3l.2.3c.3.4.8.5 1 .3.2-.2.6-.3.6-.3v8.1c0 .5.4.9.9.9h3.3c.5 0 .8-.4.8-.9v-5.1h4v5.1c0 .5.3.9.8.9H74c.5 0 .9-.4.9-.9V946l.6.3c.2.2.7 0 1-.3l.2-.3c.4-.3.4-.9 0-1.2z"/>
  <path id="Admin_3_" class="st3" d="M122 683.4c-.4 0-.7-.2-1-.4-.2-.3-.4-.6-.4-1s.1-.7.4-1c.2-.3.6-.4 1-.4h.1c.3-.1.5-.3.4-.6-.1-.6-.3-1.3-.6-1.9-.3-.6-.6-1.2-.9-1.7l-.1-.1c-.2-.2-.5-.2-.7 0-.3.3-.6.4-1 .4-.3 0-.7-.1-1-.4-.3-.3-.4-.6-.4-1 0-.3.1-.7.4-1 0 0 0-.1.1-.1.2-.2.1-.6-.1-.7-.5-.4-1.1-.7-1.7-.9-.6-.2-1.2-.4-1.9-.6h-.1c-.3 0-.5.2-.5.5 0 .4-.2.7-.4 1-.2.2-.6.4-1 .4s-.7-.2-1-.4c-.2-.2-.4-.6-.4-1v-.1c-.1-.3-.3-.5-.6-.4-.7.1-1.3.3-1.9.6-.6.2-1.2.6-1.7.9 0 0-.1 0-.1.1-.2.2-.2.5 0 .7.3.3.4.6.4 1s-.1.7-.4 1c-.3.3-.6.4-1 .4s-.7-.1-1-.4c0 0-.1 0-.1-.1-.2-.2-.6-.1-.7.1-.4.5-.7 1.1-.9 1.7-.2.6-.4 1.2-.6 1.9v.1c0 .3.2.5.5.5.4 0 .7.2 1 .4.2.3.4.6.4 1s-.1.7-.4 1c-.2.2-.6.4-1 .4h-.1c-.3.1-.5.3-.4.6.1.6.3 1.3.6 1.9.2.6.6 1.2.9 1.7 0 0 0 .1.1.1.2.2.5.2.7 0 .3-.3.6-.4 1-.4.3 0 .7.1 1 .4.3.3.4.6.4 1 0 .3-.1.7-.4 1l-.1.1c-.2.2-.1.6.1.7.5.4 1.1.7 1.7.9.6.3 1.2.4 1.9.6h.1c.3 0 .5-.2.5-.5 0-.4.2-.7.4-1 .2-.2.6-.4 1-.4s.7.1 1 .4c.2.2.4.6.4 1v.1c.1.3.3.5.6.4.7-.1 1.3-.3 1.9-.6.6-.2 1.2-.6 1.7-.9 0 0 .1 0 .1-.1.2-.2.2-.5 0-.7-.3-.3-.4-.6-.4-1 0-.3.1-.7.4-1 .3-.3.6-.4 1-.4.3 0 .7.1 1 .4 0 0 .1 0 .1.1.2.2.6.1.7-.1.4-.5.7-1.1.9-1.7.2-.6.4-1.2.6-1.9v-.1c0-.3-.2-.5-.5-.5zm-5.4 2.7c-1 1-2.5 1.7-4.1 1.7-1.6 0-3-.6-4.1-1.7-1-1-1.7-2.5-1.7-4.1 0-1.6.6-3 1.7-4.1 1-1 2.5-1.7 4.1-1.7 1.6 0 3 .6 4.1 1.7 1 1 1.7 2.5 1.7 4.1-.1 1.6-.7 3-1.7 4.1z"/>
</svg>
