<svg xmlns="http://www.w3.org/2000/svg" width="180" height="132" viewBox="0 0 180 132">
  <path fill="#4D4D4D" d="M17.62 108.165l3.644 3.736v5.084h-.03V117H18.25v-2.193l-3.05-4.025c-.122-.15-.2-.336-.2-.538v-6.186c0-.485.392-.877.877-.877s.877.393.877.878v3.57c-.21.047-.412.134-.572.296-.47.453-.48 1.202-.026 1.67l1.662 1.71.227-.223-1.662-1.702c-.336-.346-.325-.898.016-1.228.102-.103.23-.174.365-.21.144-.042.295-.047.44-.016.158.04.302.122.416.24zm10.61 0L24.59 111.9v5.084h.025V117H27.6v-2.193l3.05-4.025c.124-.15.202-.336.202-.538v-6.186c0-.485-.392-.877-.877-.877s-.877.393-.877.878v3.57c.21.047.412.134.572.296.47.453.48 1.202.026 1.67l-1.662 1.71-.227-.223 1.662-1.702c.335-.346.324-.898-.017-1.232-.103-.1-.23-.17-.366-.207-.144-.042-.295-.047-.44-.016-.16.04-.303.122-.416.24zm-5.304 1.393c.955 0 1.76-.346 2.436-1.017.675-.674 1.01-1.48 1.01-2.44 0-.95-.335-1.764-1.01-2.435-.676-.676-1.48-1.007-2.436-1.007-.955 0-1.77.33-2.436 1.007-.68.67-1.01 1.486-1.01 2.436 0 .96.33 1.766 1.01 2.44.666.672 1.48 1.018 2.436 1.018zm0 0M31.126 15.632c-.795-1.045-2.047-1.646-3.83-1.837-.143-.015-.296-.024-.452-.024-1.58 0-3.153.742-4.133 1.92-.98-1.178-2.552-1.92-4.13-1.92-.157 0-.31.01-.456.025-1.78.19-3.03.792-3.826 1.837-.79 1.036-1.046 2.44-.764 4.173.106.643.397 1.322.817 2.018h2.632l.277-4.408c.02-.348.287-.63.632-.676.346-.045.674.162.783.493l2.092 6.375L21.927 19c.082-.32.37-.546.702-.548h.003c.33 0 .62.223.703.543l.74 2.824.67-1.095c.115-.185.305-.31.52-.34.214-.03.43.037.59.184l.77.702h1.364c.4 0 .727.325.727.727 0 .4-.325.726-.727.726h-1.648c-.182 0-.357-.068-.49-.19l-.327-.3-1.1 1.794c-.153.248-.44.38-.727.34-.288-.044-.523-.254-.596-.536l-.456-1.736-1.083 4.3c-.08.313-.356.536-.68.548h-.025c-.313 0-.592-.2-.69-.5L18.47 21.28l-.083 1.316c-.025.383-.343.68-.726.68H15.38c1.26 1.577 2.953 3.17 4.44 4.568l.06.056c.727.687 1.357 1.28 1.767 1.72.055.062.555.61 1.102.61.55 0 1.038-.556 1.082-.61.436-.47 1.143-1.14 1.84-1.8 2.588-2.455 5.808-5.51 6.216-8.014.284-1.734.028-3.137-.762-4.174zm0 0M31.332 70.704c0 .21-.176.38-.395.38h-5.355c-1.906 0-2.598.86-2.598.86l-.088.12-.04.056c-.183.247-.45.002-.45 0l-.124-.153c-.092-.11-.792-.882-2.486-.882h-5.522c-.218 0-.394-.172-.394-.382v-11.39c0-.21.176-.38.394-.38h4.287c3.19 0 3.492 1.81 3.512 2.336v7.922c0 .576.274.683.43.7h.23c.158-.017.41-.11.41-.56v-8.165h-.004c.024-.66.28-2.235 2.2-2.235h5.6c.22 0 .395.17.395.38v11.392zm1.42-9.537h-.02c-.36.002-.416-.31-.422-.456v-2.27c0-.243-.197-.44-.44-.44h-6.495c-1.63 0-2.238.604-2.39.794l-.04.057v.002l-.13.176c-.17.237-.322.136-.394.06l-.245-.308-.12-.147C21.85 58.42 21.316 58 20.26 58h-6.92c-.24 0-.438.197-.438.44v2.242c0 .392-.213.472-.344.484h-.098c-.107.006-.354.07-.354.525v10.69c0 .264.213.476.475.476h6.317c2.015 0 2.893.76 3.156 1.05l.15.187s.403.455.828 0l.09-.103.113-.132c.003-.004.03-.034.07-.075.336-.327 1.176-.928 2.82-.928h6.508c.263 0 .475-.212.475-.475V61.588c0-.387-.28-.42-.354-.42zm0 0"/>
  <path fill="#EB4182" d="M62.515 108.165l3.643 3.736v5.084h-.03V117h-2.983v-2.193l-3.05-4.025c-.123-.15-.2-.336-.2-.538v-6.186c0-.485.39-.877.876-.877s.878.393.878.878v3.57c-.21.047-.412.134-.572.296-.47.453-.48 1.202-.026 1.67l1.662 1.71.227-.223-1.663-1.702c-.336-.346-.325-.898.016-1.228.103-.103.23-.174.366-.21.143-.042.294-.047.438-.016.16.04.303.122.417.24zm10.61 0l-3.643 3.736v5.084h.025V117h2.988v-2.193l3.05-4.025c.123-.15.2-.336.2-.538v-6.186c0-.485-.39-.877-.876-.877s-.878.393-.878.878v3.57c.21.047.412.134.572.296.47.453.48 1.202.026 1.67l-1.662 1.71-.227-.223 1.663-1.702c.336-.346.325-.898-.016-1.232-.103-.1-.23-.17-.366-.207-.143-.042-.294-.047-.438-.016-.16.04-.303.122-.417.24zm-5.305 1.393c.955 0 1.76-.346 2.436-1.017.675-.674 1.01-1.48 1.01-2.44 0-.95-.335-1.764-1.01-2.435-.676-.676-1.48-1.007-2.436-1.007-.955 0-1.77.33-2.436 1.007-.68.67-1.01 1.486-1.01 2.436 0 .96.33 1.766 1.01 2.44.666.672 1.48 1.018 2.436 1.018zm0 0"/>
  <path fill="#90489A" d="M76.02 15.632c-.795-1.045-2.047-1.646-3.83-1.837-.143-.015-.296-.024-.452-.024-1.58 0-3.153.742-4.133 1.92-.98-1.178-2.553-1.92-4.132-1.92-.156 0-.308.01-.455.025-1.78.19-3.03.792-3.826 1.837-.79 1.036-1.046 2.44-.764 4.173.106.643.397 1.322.817 2.018h2.63l.278-4.408c.022-.348.288-.63.633-.676.346-.045.674.162.783.493l2.09 6.375L66.823 19c.08-.32.37-.546.7-.548h.005c.33 0 .62.223.703.543l.74 2.824.67-1.095c.115-.185.305-.31.52-.34.214-.03.43.037.59.184l.77.702h1.364c.4 0 .727.325.727.727 0 .4-.324.726-.726.726h-1.648c-.182 0-.357-.068-.49-.19l-.327-.3-1.102 1.794c-.152.248-.438.38-.726.34-.288-.044-.523-.254-.596-.536l-.456-1.736-1.083 4.3c-.08.313-.356.536-.68.548h-.025c-.313 0-.592-.2-.69-.5l-1.696-5.166-.083 1.316c-.024.383-.342.68-.725.68h-2.285c1.26 1.577 2.954 3.17 4.44 4.568l.06.056c.728.687 1.358 1.28 1.768 1.72.056.062.556.61 1.103.61.55 0 1.04-.556 1.083-.61.436-.47 1.143-1.14 1.84-1.8 2.588-2.455 5.808-5.51 6.216-8.014.284-1.734.028-3.137-.762-4.174zm0 0"/>
  <path fill="#1EACD6" d="M76.332 70.704c0 .21-.176.38-.395.38h-5.355c-1.906 0-2.598.86-2.598.86l-.088.12-.04.056c-.183.247-.45.002-.45 0l-.124-.153c-.092-.11-.792-.882-2.486-.882h-5.522c-.218 0-.394-.172-.394-.382v-11.39c0-.21.176-.38.394-.38h4.287c3.19 0 3.492 1.81 3.512 2.336v7.922c0 .576.274.683.43.7h.23c.158-.017.41-.11.41-.56v-8.165h-.004c.024-.66.28-2.235 2.2-2.235h5.6c.22 0 .395.17.395.38v11.392zm1.42-9.537h-.02c-.36.002-.416-.31-.422-.456v-2.27c0-.243-.197-.44-.44-.44h-6.495c-1.63 0-2.238.604-2.39.794l-.04.057v.002l-.13.176c-.17.237-.322.136-.394.06l-.245-.308-.12-.147C66.85 58.42 66.316 58 65.26 58h-6.92c-.24 0-.438.197-.438.44v2.242c0 .392-.213.472-.344.484h-.098c-.107.006-.354.07-.354.525v10.69c0 .264.213.476.475.476h6.317c2.015 0 2.893.76 3.156 1.05l.15.187s.403.455.828 0l.09-.103.113-.132c.003-.004.03-.034.07-.075.336-.327 1.176-.928 2.82-.928h6.508c.263 0 .475-.212.475-.475V61.588c0-.387-.28-.42-.354-.42zm0 0"/>
  <path fill="#FFF" d="M107.195 108.165l3.643 3.736v5.084h-.03V117h-2.983v-2.193l-3.05-4.025c-.123-.15-.2-.336-.2-.538v-6.186c0-.485.39-.877.876-.877s.878.393.878.878v3.57c-.21.047-.412.134-.572.296-.47.453-.48 1.202-.026 1.67l1.662 1.71.227-.223-1.663-1.702c-.336-.346-.325-.898.016-1.228.103-.103.23-.174.366-.21.143-.042.294-.047.438-.016.16.04.303.122.417.24zm10.61 0l-3.643 3.736v5.084h.025V117h2.988v-2.193l3.05-4.025c.123-.15.2-.336.2-.538v-6.186c0-.485-.39-.877-.876-.877s-.878.393-.878.878v3.57c.21.047.412.134.572.296.47.453.48 1.202.026 1.67l-1.662 1.71-.227-.223 1.663-1.702c.336-.346.325-.898-.016-1.232-.103-.1-.23-.17-.366-.207-.143-.042-.294-.047-.438-.016-.16.04-.303.122-.417.24zm-5.305 1.393c.955 0 1.76-.346 2.436-1.017.675-.674 1.01-1.48 1.01-2.44 0-.95-.335-1.764-1.01-2.435-.676-.676-1.48-1.007-2.436-1.007-.955 0-1.77.33-2.436 1.007-.68.67-1.01 1.486-1.01 2.436 0 .96.33 1.766 1.01 2.44.666.672 1.48 1.018 2.436 1.018zm0 0M120.915 15.632c-.795-1.045-2.047-1.646-3.83-1.837-.143-.015-.296-.024-.452-.024-1.58 0-3.153.742-4.133 1.92-.98-1.178-2.553-1.92-4.132-1.92-.156 0-.308.01-.455.025-1.78.19-3.03.792-3.826 1.837-.79 1.036-1.046 2.44-.764 4.173.105.643.397 1.322.817 2.018h2.63l.278-4.408c.022-.348.288-.63.633-.676.347-.045.675.162.784.493l2.092 6.375 1.16-4.607c.082-.32.37-.546.702-.548h.004c.33 0 .62.223.703.543l.74 2.824.67-1.095c.115-.185.305-.31.52-.34.214-.03.43.037.59.184l.77.702h1.364c.4 0 .726.325.726.727 0 .4-.325.726-.727.726h-1.65c-.18 0-.356-.068-.49-.19l-.326-.3-1.1 1.794c-.153.248-.44.38-.727.34-.288-.044-.523-.254-.596-.536l-.455-1.736-1.083 4.3c-.08.313-.356.536-.68.548h-.025c-.313 0-.592-.2-.69-.5l-1.696-5.166-.082 1.316c-.024.383-.342.68-.725.68h-2.285c1.26 1.577 2.954 3.17 4.44 4.568l.06.056c.728.687 1.358 1.28 1.768 1.72.055.062.555.61 1.102.61.55 0 1.04-.556 1.083-.61.437-.47 1.144-1.14 1.842-1.8 2.587-2.455 5.807-5.51 6.215-8.014.283-1.734.027-3.137-.762-4.174zm0 0M121.226 70.704c0 .21-.176.38-.395.38h-5.354c-1.906 0-2.598.86-2.598.86l-.088.12-.04.056c-.183.247-.45.002-.45 0l-.124-.153c-.092-.11-.792-.882-2.486-.882h-5.522c-.218 0-.394-.172-.394-.382v-11.39c0-.21.176-.38.394-.38h4.287c3.19 0 3.49 1.81 3.51 2.336v7.922c0 .576.275.683.43.7h.23c.16-.017.41-.11.41-.56v-8.165h-.003c.024-.66.28-2.235 2.2-2.235h5.6c.22 0 .395.17.395.38v11.392zm1.42-9.537h-.02c-.36.002-.416-.31-.422-.456v-2.27c0-.243-.197-.44-.44-.44h-6.495c-1.63 0-2.24.604-2.39.794l-.04.057v.002l-.13.176c-.172.237-.323.136-.395.06l-.246-.308-.122-.147c-.204-.215-.737-.634-1.793-.634h-6.92c-.242 0-.44.196-.44.438v2.243c0 .393-.212.473-.343.485h-.098c-.107.006-.354.07-.354.525v10.69c0 .263.213.475.475.475h6.316c2.016 0 2.894.76 3.157 1.05l.15.187s.403.455.828 0l.09-.103.112-.133c.003-.004.03-.034.07-.075.336-.327 1.176-.928 2.82-.928h6.508c.262 0 .474-.212.474-.475V61.587c0-.387-.28-.42-.355-.42zm0 0"/>
  <path fill="#538983" d="M165.915 15.632c-.795-1.045-2.047-1.646-3.83-1.837-.143-.015-.296-.024-.452-.024-1.58 0-3.153.742-4.133 1.92-.98-1.178-2.553-1.92-4.132-1.92-.156 0-.308.01-.455.025-1.78.19-3.03.792-3.826 1.837-.79 1.036-1.046 2.44-.764 4.173.105.643.397 1.322.817 2.018h2.63l.278-4.408c.022-.348.288-.63.633-.676.347-.045.675.162.784.493l2.092 6.375 1.16-4.607c.082-.32.37-.546.702-.548h.004c.33 0 .62.223.703.543l.74 2.824.67-1.095c.115-.185.305-.31.52-.34.214-.03.43.037.59.184l.77.702h1.364c.4 0 .726.325.726.727 0 .4-.325.726-.727.726h-1.65c-.18 0-.356-.068-.49-.19l-.326-.3-1.1 1.794c-.153.248-.44.38-.727.34-.288-.044-.523-.254-.596-.536l-.455-1.736-1.083 4.3c-.08.313-.356.536-.68.548h-.025c-.313 0-.592-.2-.69-.5l-1.696-5.166-.082 1.316c-.024.383-.342.68-.725.68h-2.285c1.26 1.577 2.954 3.17 4.44 4.568l.06.056c.728.687 1.358 1.28 1.768 1.72.055.062.555.61 1.102.61.55 0 1.04-.556 1.083-.61.437-.47 1.144-1.14 1.842-1.8 2.587-2.455 5.807-5.51 6.215-8.014.283-1.734.027-3.137-.762-4.174zm0 0M166.226 70.704c0 .21-.176.38-.395.38h-5.354c-1.906 0-2.598.86-2.598.86l-.088.12-.04.056c-.183.247-.45.002-.45 0l-.124-.153c-.092-.11-.792-.882-2.486-.882h-5.522c-.218 0-.394-.172-.394-.382v-11.39c0-.21.176-.38.394-.38h4.287c3.19 0 3.49 1.81 3.51 2.336v7.922c0 .576.275.683.43.7h.23c.16-.017.41-.11.41-.56v-8.165h-.003c.024-.66.28-2.235 2.2-2.235h5.6c.22 0 .395.17.395.38v11.392zm1.42-9.537h-.02c-.36.002-.416-.31-.422-.456v-2.27c0-.243-.197-.44-.44-.44h-6.495c-1.63 0-2.24.604-2.39.794l-.04.057v.002l-.13.176c-.172.237-.323.136-.395.06l-.246-.308-.122-.147c-.204-.215-.737-.634-1.793-.634h-6.92c-.243 0-.44.196-.44.438v2.243c0 .393-.213.473-.344.485h-.097c-.107.006-.354.07-.354.525v10.69c0 .263.212.475.474.475h6.316c2.015 0 2.893.76 3.156 1.05l.15.187s.403.455.828 0l.09-.103.112-.133c.003-.004.03-.034.07-.075.336-.327 1.176-.928 2.82-.928h6.508c.262 0 .474-.212.474-.475V61.587c.002-.387-.278-.42-.353-.42zm0 0M152.195 108.165l3.643 3.736v5.084h-.03V117h-2.983v-2.193l-3.05-4.025c-.123-.15-.2-.336-.2-.538v-6.186c0-.485.39-.877.876-.877s.878.393.878.878v3.57c-.21.047-.412.134-.572.296-.47.453-.48 1.202-.026 1.67l1.662 1.71.227-.223-1.663-1.702c-.336-.346-.325-.898.016-1.228.103-.103.23-.174.366-.21.143-.042.294-.047.438-.016.16.04.303.122.417.24zm10.61 0l-3.643 3.736v5.084h.025V117h2.988v-2.193l3.05-4.025c.123-.15.2-.336.2-.538v-6.186c0-.485-.39-.877-.876-.877s-.878.393-.878.878v3.57c.21.047.412.134.572.296.47.453.48 1.202.026 1.67l-1.662 1.71-.227-.223 1.663-1.702c.336-.346.325-.898-.016-1.232-.103-.1-.23-.17-.366-.207-.143-.042-.294-.047-.438-.016-.16.04-.303.122-.417.24zm-5.305 1.393c.955 0 1.76-.346 2.436-1.017.675-.674 1.01-1.48 1.01-2.44 0-.95-.335-1.764-1.01-2.435-.676-.676-1.48-1.007-2.436-1.007-.955 0-1.77.33-2.436 1.007-.68.67-1.01 1.486-1.01 2.436 0 .96.33 1.766 1.01 2.44.666.672 1.48 1.018 2.436 1.018zm0 0"/>
</svg>