<svg xmlns="http://www.w3.org/2000/svg" width="278" height="50" viewBox="0 0 278 50">
  <style>
    .st1{fill:#007E45;} .st2{fill:#009245;} .st3{fill:#FFFFFF;} .st4{fill:#006837;} .st5{fill:#FAC73E;}
  </style>
  <path class="st1" d="M30 50H0l7.2-21L0 8h30m219 42h29l-7.2-21L278 8h-29"/>
  <path class="st2" d="M22 0h235v43H22z"/>
  <path class="st3" d="M97.3 28.7H95v-5.8h-6v5.8h-2.3V15.2H89v5.9h6v-5.9h2.3M108 27.6c-.1-.4-.1-.8-.1-1.2v-4.5c0-1.1-.4-2-1.1-2.6-.7-.6-1.7-.9-2.8-.9-1.2 0-2.2.3-2.9.9-.8.6-1.1 1.3-1.1 2.1v.1h2.2c0-.4.2-.7.5-1 .3-.2.7-.4 1.2-.4.6 0 1 .1 1.3.4.3.3.5.7.5 1.2v.9h-1.8c-1.4 0-2.5.3-3.2.8-.8.5-1.2 1.3-1.2 2.3 0 .9.3 1.7.8 2.2.6.5 1.4.8 2.4.8.6 0 1.2-.2 1.7-.5s.9-.7 1.2-1.2c0 .2.1.5.1.7.1.2.1.5.2.7h2.3c-.1-.1-.2-.5-.2-.8zm-2.4-1.9c-.1.4-.5.7-.9 1-.5.3-1 .4-1.5.4s-.8-.1-1.1-.3c-.3-.2-.4-.5-.4-.9s.2-.8.6-1.1c.4-.3.9-.5 1.5-.5h1.8v1.4zm4.8-11.5h2.3v14.5h-2.3zm4.9 0h2.3v14.5h-2.3zm17.1 5.7c-.8-1-1.9-1.4-3.4-1.4-1.4 0-2.5.5-3.4 1.4-.8 1-1.2 2.2-1.2 3.7v.2c0 1.5.4 2.7 1.2 3.7.8 1 2 1.4 3.4 1.4s2.6-.5 3.4-1.4c.8-1 1.2-2.2 1.2-3.7v-.2c.1-1.5-.4-2.8-1.2-3.7zm-1 3.8c0 1-.2 1.8-.6 2.4-.4.6-1 .9-1.8.9s-1.4-.3-1.8-.9c-.4-.6-.6-1.4-.6-2.4v-.2c0-1 .2-1.7.6-2.4.4-.6 1-.9 1.8-.9s1.4.3 1.8.9c.4.6.6 1.4.6 2.4v.2zm5 5v-8.4h-1.5v-1.7h1.5v-1.2c0-1.1.3-2 .9-2.6.6-.6 1.4-.9 2.5-.9.2 0 .4 0 .7.1.2 0 .5.1.8.1l-.2 1.7c-.1 0-.3 0-.4-.1h-.5c-.5 0-.9.1-1.1.4-.2.3-.4.7-.4 1.2v1.2h2v1.7h-2v8.4h-2.3zm19.1-5.8h-5.9v5.8h-2.3V15.2h9.1V17h-6.8v4.1h5.9m10.1 6.5c-.1-.4-.1-.8-.1-1.2v-4.5c0-1.1-.4-2-1.1-2.6-.7-.6-1.7-.9-2.8-.9-1.2 0-2.2.3-2.9.9-.8.6-1.1 1.3-1.1 2.1v.1h2.2c0-.4.2-.7.5-1 .3-.2.7-.4 1.2-.4.6 0 1 .1 1.3.4s.5.7.5 1.2v.9h-1.8c-1.4 0-2.5.3-3.2.8-.8.5-1.2 1.3-1.2 2.3 0 .9.3 1.7.8 2.2.6.5 1.4.8 2.4.8.6 0 1.2-.2 1.7-.5s.9-.7 1.2-1.2c0 .2.1.5.1.7.1.2.1.5.2.7h2.3c0-.1-.1-.5-.2-.8zm-2.3-1.9c-.1.4-.5.7-.9 1-.5.3-1 .4-1.5.4s-.8-.1-1.1-.3c-.3-.2-.4-.5-.4-.9s.2-.8.6-1.1c.4-.3.9-.5 1.5-.5h1.8v1.4zm6.7-7.1l.1 1.3c.3-.5.7-.8 1.2-1.1.5-.3 1.1-.4 1.7-.4.7 0 1.2.1 1.7.4.5.3.8.7 1.1 1.3.3-.6.7-1 1.2-1.3.5-.3 1.1-.5 1.8-.5 1 0 1.8.3 2.4 1 .6.7.9 1.7.9 3.1v6.1h-2.3v-6.1c0-.9-.1-1.5-.4-1.8-.3-.3-.7-.5-1.3-.5-.5 0-.9.1-1.2.4s-.6.6-.7 1v6.9h-2.3v-6.1c0-.8-.2-1.4-.5-1.8-.3-.4-.7-.5-1.3-.5-.5 0-.8.1-1.2.3-.3.2-.6.4-.8.7v7.4h-2.3v-10h2.2zm22.7 5.7V23c0-1.4-.4-2.5-1.1-3.3-.7-.8-1.8-1.2-3.1-1.2s-2.3.5-3.2 1.4c-.8 1-1.3 2.2-1.3 3.6v.4c0 1.5.4 2.7 1.3 3.6.8.9 2 1.4 3.4 1.4.8 0 1.5-.1 2.2-.3.6-.2 1.1-.5 1.5-.8l-.7-1.5c-.4.3-.8.5-1.3.6-.4.1-1 .2-1.6.2-.8 0-1.4-.3-1.8-.8-.4-.5-.7-1.2-.7-2h6.4zm-5.6-3.4c.4-.4.8-.7 1.4-.7.7 0 1.1.2 1.5.6.3.4.5.9.5 1.6v.2h-4c.1-.7.3-1.2.6-1.7z"/>
  <path class="st4" d="M21.4 43h9.1v7m226.1-7h-8v7"/>
  <path class="st5" d="M74.9 16.1l1.3 3.9h4.1L77 22.7l1.2 4.1-3.3-2.4-3.3 2.5 1.2-4.2-3.3-2.7h4.1m132-3.9l1.3 3.9h4.1l-3.4 2.7 1.3 4.1-3.3-2.4-3.4 2.5 1.3-4.2-3.3-2.7h4.1m-162.8.9h20.1v1H41.5zM217 21h20v1h-20z"/>
</svg>
