<svg xmlns="http://www.w3.org/2000/svg" width="222" height="40" viewBox="0 0 222 40">
  <style>
    .st0{fill:#007E45;} .st1{fill:#006837;} .st2{fill:#009245;} .st3{fill:#FFFFFF;} .st4{fill:#FAC73E;}
  </style>
  <path class="st0" d="M23.6 40H0l5.8-17L0 6h23.6m175 34H222l-5.8-17L222 6h-23.4"/>
  <path class="st1" d="M17.1 34.4h7.2V40m180.6-5.6h-6.4V40"/>
  <path class="st2" d="M16.6 0h189v34h-189z"/>
  <path class="st3" d="M79.9 21.1h-1.7v-4.3h-4.5v4.3H72v-10h1.7v4.4h4.5v-4.4h1.7v10zm6.5 0c-.1-.2-.1-.4-.1-.5s-.1-.4-.1-.5c-.2.3-.5.6-.9.9s-.8.4-1.3.4c-.8 0-1.4-.2-1.8-.6-.4-.4-.6-.9-.6-1.6 0-.7.3-1.3.9-1.7.6-.4 1.4-.6 2.4-.6h1.3V16c0-.4-.1-.7-.3-.9-.2-.2-.6-.3-1-.3s-.7.1-.9.3c-.2.2-.3.4-.3.7H82c0-.6.2-1.1.8-1.6.6-.5 1.3-.7 2.2-.7.9 0 1.6.2 2.1.7.5.4.8 1.1.8 1.9v3.3c0 .3 0 .6.1.9 0 .3.1.6.2.8h-1.8zm-2.1-1.2c.4 0 .8-.1 1.1-.3.3-.2.6-.5.7-.7v-1.1h-1.3c-.5 0-.9.1-1.1.4s-.4.5-.4.8c0 .3.1.5.3.7s.4.2.7.2zm7 1.2h-1.7V10.4h1.7v10.7zm3.7 0h-1.7V10.4H95v10.7zm5-3.8c0-1.1.3-2 .9-2.7.6-.7 1.4-1.1 2.5-1.1s1.9.4 2.5 1.1c.6.7.9 1.6.9 2.7v.1c0 1.1-.3 2-.9 2.7-.6.7-1.4 1-2.5 1s-1.9-.4-2.5-1.1c-.6-.7-.9-1.6-.9-2.7zm1.7.1c0 .7.1 1.3.4 1.8.3.5.7.7 1.3.7.6 0 1-.2 1.3-.7.3-.5.4-1 .4-1.8v-.1c0-.7-.1-1.3-.4-1.7-.3-.5-.7-.7-1.3-.7-.6 0-1 .2-1.3.7-.3.5-.4 1-.4 1.7v.1zm7.1 3.7v-6.2h-1.1v-1.2h1.1v-.9c0-.8.2-1.4.7-1.9.4-.4 1.1-.7 1.9-.7h.5c.2 0 .3.1.6.1l-.2 1.3h-.7c-.4 0-.6.1-.8.3s-.3.5-.3.9v.9h1.5v1.2h-1.5v6.2h-1.7zm14.2-4.3h-4.4v4.3h-1.7v-10h6.7v1.3h-5.1v3.1h4.4v1.3zm6 4.3c-.1-.2-.1-.4-.1-.5 0-.2-.1-.4-.1-.5-.2.3-.5.6-.9.9-.4.2-.8.4-1.3.4-.8 0-1.4-.2-1.8-.6s-.6-.9-.6-1.6c0-.7.3-1.3.9-1.7s1.4-.6 2.4-.6h1.3V16c0-.4-.1-.7-.3-.9-.2-.2-.6-.3-1-.3s-.7.1-.9.3c-.2.2-.3.4-.3.7h-1.6c0-.6.2-1.1.8-1.6.6-.5 1.3-.7 2.2-.7.9 0 1.6.2 2.1.7.5.4.8 1.1.8 1.9v3.3c0 .3 0 .6.1.9 0 .3.1.6.2.8H129zm-2-1.2c.4 0 .8-.1 1.1-.3.3-.2.6-.5.7-.7v-1.1h-1.3c-.5 0-.9.1-1.1.4s-.4.5-.4.8c0 .3.1.5.3.7s.3.2.7.2zm6.7-6.3l.1 1c.2-.4.5-.6.9-.8s.8-.3 1.3-.3.9.1 1.2.3c.3.2.6.5.8 1 .2-.4.5-.7.9-1s.8-.3 1.3-.3c.7 0 1.3.3 1.8.8.4.5.6 1.3.6 2.3v4.5H141v-4.5c0-.6-.1-1.1-.3-1.3-.2-.3-.5-.4-1-.4-.4 0-.7.1-.9.3-.2.2-.4.5-.5.8v5.1h-1.7v-4.5c0-.6-.1-1-.3-1.3s-.5-.4-1-.4c-.3 0-.6.1-.9.2-.2.1-.4.3-.6.6v5.4h-1.7v-7.4h1.6zm13.9 7.6c-1.1 0-1.9-.3-2.5-1-.6-.7-.9-1.6-.9-2.7v-.3c0-1.1.3-2 .9-2.7s1.4-1.1 2.3-1.1c1 0 1.8.3 2.3.9.5.6.8 1.4.8 2.4v1h-4.6c0 .6.2 1.1.5 1.4.3.4.8.6 1.3.6.4 0 .8-.1 1.2-.2.3-.1.6-.3.9-.5l.5 1.1c-.3.2-.6.5-1.1.6-.5.4-1 .5-1.6.5zm-.2-6.4c-.4 0-.8.2-1 .5-.3.3-.4.7-.5 1.2h2.9v-.2c0-.5-.1-.9-.4-1.2-.2-.1-.5-.3-1-.3z"/>
  <path class="st4" d="M59.8 12.9l1 3.1h3.3l-2.6 2.2 1 3.3-2.7-1.8-2.7 1.9 1.1-3.4-2.7-2.2h3.3m105.4-3.1l1 3.1h3.3l-2.7 2.2 1 3.3-2.6-1.8-2.7 1.9 1-3.4-2.6-2.2h3.2m-130 .9h16.1v.8H33.1zm140.5.1h16v1h-16z"/>
</svg>
