<svg xmlns="http://www.w3.org/2000/svg" width="233" height="163" viewBox="0 0 233 163">
  <style>
    .st1{opacity:0.7;fill:#FFFFFF;}
  </style>
  <path id="Cloud_4_" class="st1" d="M103.7 36.2c-15.9 0-28.7 13-28.7 28.9 0 16 12.9 28.9 28.8 28.9H213c11 0 20-9 20-20.2s-9-20.2-20.1-20.2c-.6 0-1.2 0-1.8.1-3.9-12.8-15.7-22.2-29.7-22.2h-1.3c-3.3-18-19-31.6-37.8-31.6-20.5.1-37.2 16.1-38.6 36.3zm0 0"/>
  <path id="Cloud_2_" class="st1" d="M8.3 146.5c-4.6 0-8.3 3.7-8.3 8.3 0 4.6 3.7 8.3 8.3 8.3l1.5-.1h33.5l1.4.1c4.6 0 8.3-3.7 8.3-8.3 0-3.9-2.8-7.2-6.4-8 .2-.9.3-1.8.3-2.7 0-6.6-5.4-12-12.1-12-4.8 0-9 2.8-11 6.8-1.5-.8-3.2-1.3-5-1.3-5.3 0-9.6 3.9-10.2 9h-.3v-.1zm0 0"/>
</svg>