<svg xmlns="http://www.w3.org/2000/svg" width="143" height="163" viewBox="0 0 143 163">
  <style>
    .st1{opacity:0.7;fill:#FFFFFF;}
  </style>
  <path id="Cloud_3_" class="st1" d="M16.5 28.9C7.4 28.9 0 36.4 0 45.5 0 54.6 7.4 62 16.5 62l2.9-.1h66.3l2.7.1c9.1 0 16.5-7.4 16.5-16.5 0-7.8-5.5-14.4-12.8-16.1.4-1.7.6-3.5.6-5.4C92.8 10.8 82 0 68.8 0 59.2 0 51 5.5 47.1 13.6c-3-1.6-6.4-2.6-10-2.6-10.4 0-19 7.9-20.2 18h-.4v-.1zm0 0"/>
  <path id="Cloud_1_" class="st1" d="M134.7 146.5h-.2c-.6-5-4.9-9-10.2-9-1.8 0-3.5.5-5 1.3-2-4-6.1-6.8-11-6.8-6.7 0-12.1 5.4-12.1 12 0 .9.1 1.8.3 2.7-3.7.8-6.4 4.1-6.4 8 0 4.6 3.7 8.3 8.3 8.3l1.4-.1h33.5l1.5.1c4.6 0 8.3-3.7 8.3-8.3-.1-4.5-3.8-8.2-8.4-8.2zm0 0"/>
</svg>