<svg xmlns="http://www.w3.org/2000/svg" width="79" height="94" viewBox="0 0 79 94">
  <style>
    .st1{fill:#BE9734;} .st2{fill:#7E9633;} .st3{fill:#6B7C25;} .st4{fill:#88B74A;} .st5{fill:#95C95B;}
  </style>
  <path class="st1" d="M27.7 94h-7.1c1.3-3.5 2.1-15.3 1.2-18.8h4.7c-.9 3.5-.1 15.3 1.2 18.8z"/>
  <path class="st2" d="M42.3 60.3c0-9.4-9.5-25.7-18.6-28.2-1.4-1.4-2.4-1.9-3.5-2-4.1-.3-6.9 3.3-7 7.4-3.3 0-6 2.7-6 6 0 1 .2 1.9.6 2.7-.4-.1-.9-.2-1.5-.2-3.3 0-6 2.7-6 6 0 2.4 1.4 4.5 3.5 5.4-1 1.1-1.5 2.5-1.5 4 0 2 1 3.8 2.5 4.9-.9 1.2-1.5 2.7-1.5 4.4 0 4 3.2 7.2 7.2 7.2 1.1 0 2.1-.2 3-.7 1.3 1.9 3.5 3.2 5.9 3.2 1.7 0 3.2-.6 4.4-1.5 10.2-.1 18.5-8.4 18.5-18.6"/>
  <path class="st3" d="M42.8 60c2.2-1.2 3.8-3.6 3.8-6.4 0-3-1.8-5.5-4.3-6.6.2-.6.3-1.3.3-2 0-3.4-2.8-6.2-6.2-6.2-.3 0-.6 0-.9.1.1-.4.1-.7.1-1.1 0-3.1-2.5-5.7-5.7-5.7-1 0-1.5.3-2.3.7-1.1-.4-3.1-.4-3.1-.4v46.4h-.3c1.6 0 3-.2 4.5-.6.9 1 2.2 1.7 3.7 1.7 2.8 0 5.1-2.3 5.1-5.1 0-.3 0-.5-.1-.7 4.4 0 8-3.6 8-8 0-2.5-1-4.6-2.6-6.1"/>
  <path class="st1" d="M58.3 92.5h-7.8c1.5-3.9 2.3-16.7 1.3-20.6H57c-1 3.9-.1 16.8 1.3 20.6z"/>
  <path class="st4" d="M53.8.4L43.3 18.7l5.3-1.9-10.3 20.8 8.4-2.6L37 53.4l6.3-2.2-11.3 23h46.7L66.3 53.9l7.6 2.7-12.4-23.7 6.1 1.5-9.4-18.3 5.5 1.7"/>
  <path class="st5" d="M54 .6V74h25L66.6 53.8l7.6 2.8-12.4-23.7 6.1 1.5-9.3-18.3 5.3 1.7"/>
</svg>