<svg xmlns="http://www.w3.org/2000/svg" width="103" height="65" viewBox="0 0 103 65">
  <style>
    .st1{fill:#DCB848;} .st2{fill:#88B74A;} .st3{fill:#95C95B;} .st4{fill:#BE9734;} .st5{fill:#7E9633;} .st6{fill:#6B7C25;}
  </style>
  <path class="st1" d="M41.7 65h-4.8c.9-1.8 1.4-8 .8-9.8h3.1c-.5 1.8 0 8 .9 9.8z"/>
  <path class="st2" d="M52.9 43.3c0 7.5-6.1 13.5-13.5 13.5-7.5 0-13.5-6.1-13.5-13.5 0-7.5 6.8-26.9 14.3-26.9s12.7 19.4 12.7 26.9z"/>
  <path class="st3" d="M41.6 16.6v.4c-.1 2.3-.5 4.6 0 6.8.3 1.7.8 3.4.8 5.1 0 1.8-.2 3.7-1.2 5.3-.7 1.1-1.6 2.1-2.1 3.2-1.6 3.7 1.3 8 1 11.8-.1 2.1-.6 4-1.4 5.8-.2.6-.4 1.1-.7 1.6.4 0 .8.1 1.3.1 7.5 0 13.5-6.1 13.5-13.5.1-6.9-4.5-24.3-11.2-26.6z"/>
  <path class="st4" d="M21.4 65h-7c1.3-3.5 2-15.1 1.2-18.6h4.6c-.9 3.5-.1 15.1 1.2 18.6z"/>
  <path class="st5" d="M35.7 36c0 9.8-8 17.8-17.8 17.8S.1 45.8.1 36 9.1.6 18.9.6 35.7 26.2 35.7 36z"/>
  <path class="st6" d="M20.8.9v.6c-.1 3-.6 6.1 0 9 .4 2.2 1.1 4.5 1.1 6.7 0 2.4-.2 4.9-1.5 7-.9 1.4-2.1 2.7-2.8 4.2-2.1 4.9 1.7 10.6 1.4 15.5-.2 2.8-.8 5.2-1.9 7.6-.3.7-.5 1.4-.9 2.2.5 0 1.1.1 1.7.1 9.8 0 17.8-8 17.8-17.8 0-9.2-6.1-32.1-14.9-35.1z"/>
  <g id="Bush_4_">
    <path class="st2" d="M54.7 63h27.8c1.4-1 1.6-3.8.6-4.5-.4-.3-.9 0-1.5.3 0-1.5-.4-2.5-1.3-2.9-1-.4-2.4.5-3.6 2.1-.2-4.4-2.4-7.9-5.1-7.9-2.1 0-4 2.3-4.7 5.4-.9-1.6-2.2-2.6-3.6-2.6-2.2 0-4 2.3-4.5 5.4-.9-1.2-2-1.8-3-1.6-1.6.5-2.3 2.8-1.4 5.9 0 .4.1.4.3.4z"/>
    <path class="st3" d="M83.1 58.5c-.4-.3-.9 0-1.5.3 0-1.5-.4-2.5-1.3-2.9-1-.4-2.4.5-3.6 2.1-.2-4.4-2.6-7.9-5.3-7.9-.8 0-1.4.3-2.4.9v12h13.5c1.3-1 1.6-3.8.6-4.5z"/>
  </g>
  <g id="Bush_1_">
    <path class="st5" d="M100.8 63c2-1 2.6-5.1 1.2-6.2-1-.8-2.7-.1-4.4 1.1.8-3.1.4-5.7-1.4-6.6-1.2-.6-2.7-.2-4.2.9-.8-4.4-2.9-7.5-5.4-7.5-3.1 0-5.6 4.9-5.8 11-1-.9-2.2-1.4-3.1-1-1.4.5-2 2.5-1.7 4.9-1.5-.2-2.7-.6-3.3.3-.6 1-.3 3.1.7 3.1h27.4z"/>
    <path class="st6" d="M102 56.8c-1-.8-2.7-.1-4.4 1.1.8-3.1.4-5.7-1.4-6.6-1.2-.6-2.7-.2-4.2.9-.8-4.2-3-7.1-5-7.4V63h13.8c2-1 2.6-5.1 1.2-6.2z"/>
  </g>
</svg>