<svg xmlns="http://www.w3.org/2000/svg" width="770" height="453" viewBox="0 0 770 453">
  <style>
    .st1{opacity:0.7;fill:url(#SVGID_1_);} .st2{opacity:0.7;fill:url(#SVGID_2_);}
  </style>
  <linearGradient id="SVGID_1_" gradientUnits="userSpaceOnUse" x1="385" y1="741.788" x2="385" y2="-311.16">
    <stop offset="0" stop-color="#FFF"/>
    <stop offset=".548" stop-color="#C9F3FF"/>
  </linearGradient>
  <path class="st1" d="M425.8 162.8L578 0h-51.2L417.6 150.2 498.6 0h-38.7l-49.1 121.2L439.8 0h-31.6l-18 119.9L398.3 0h-29.6l3.5 100L357.9 0h-32.5l25.7 109.5L307.3 0h-31.8l76 137.6L249.3 0h-54.5l147.3 157.1L128.8 0H23.6l302.1 173L0 50.1v73.6l326.2 81.2L0 192.4v59.9l311.8-23.8L0 299.9V372l319.4-121.7L0 435.5V453h87.9l254.2-187.8L166.5 453h63l105.2-140.4L258 453h40.2l54.1-132.8L321 453h31.1L370 322.1 363.2 453h36.9l-4.4-125.1L413.5 453h29l-33.2-134.8 56 134.8h42.2l-86.9-158.6L538.1 453h58.5L425.8 270.8 673.1 453H770v-9.8l-316.5-177L770 379.6v-72l-308.9-63.2L770 260.6V198l-328.3 12.7 328.3-82V55.8L439.6 186.9 755.8 0H646.2"/>
</svg>