<svg xmlns="http://www.w3.org/2000/svg" width="320" height="287" viewBox="0 0 320 287">
  <style>
    .st0{fill:#C9F3FF;} .st1{opacity:0.3;fill:#A4A6A9;} .st2{fill:#6B503D;} .st3{fill:#7E9633;} .st4{fill:#6B7C25;} .st5{fill:#6B4322;} .st6{fill:#D1A578;} .st7{fill:#8D6640;} .st8{fill:#666666;} .st9{fill:#BB8F68;} .st10{fill:#996E4F;} .st11{fill:#FFFFFF;} .st12{fill:#CAB384;} .st13{opacity:0.2;} .st14{fill:#3C3C3B;} .st15{fill:#EAE5D0;} .st16{fill:#507B93;} .st17{fill:#BE1622;} .st18{fill:#A31324;} .st19{fill:#E1D8BC;} .st20{fill:#683C11;} .st21{fill:#3B363A;}
  </style>
  <path class="st0" d="M3.9 200.5c3.2 0 5.8 4.4 7.7 9.5.3-.7.7-1.4 1.1-1.9-1.7-1.2-2.9-3.3-2.9-5.6 0-1.8.7-3.4 1.8-4.6-2.4-1.1-4-3.5-4-6.2 0-3.8 3.1-6.9 6.9-6.9.6 0 1.3.1 1.9.3-.5-.9-.7-2-.7-3.1 0-3.8 3.1-6.9 6.8-6.9 0-4.7 3.3-8.9 8-8.5 1.2.1 2.4.6 4 2.3l.9.3s2.2 0 3.5.5c.9-.5 1.5-.8 2.7-.8 3.6 0 6.5 2.9 6.5 6.5 0 .4 0 .8-.1 1.2.3-.1.7-.1 1.1-.1 3.9 0 7.1 3.2 7.1 7.1 0 .8-.1 1.6-.4 2.3 2.9 1.3 4.9 4.2 4.9 7.6 0 3.1-1.7 5.9-4.3 7.3 1.9 1.7 3 4.1 3 6.8 0 5.1-4.1 9.2-9.2 9.2h-.1c0 .3.1.6.1.9 0 .8-.1 1.5-.4 2.2h3v10.2h10.7v-15.7h4.4v-10.6h2v10.6h4.4V237h.8l6-18.6 14.7 2.9v-10.1h3.6V222l4.6.9v-7.7h3.6v8.4l3.4.7v-11.8h2.3l-9.2-17.1.3-.2-1.7-3.2 3.9-2.1 1.7 3.2.4-.2 7.9 14.7V203c-1.1 0-2-.9-2-2 0-1 .7-1.8 1.6-2 0-.1-.7-4.7-.7-6.9 0-9.1 8.6-9.1 11.4-9.2 3 .1 11.4.1 11.4 9.2 0 2.2-.7 6.9-.7 6.9h-.1c.8.2 1.5 1 1.5 2s-.8 1.9-1.7 2v3.4l.1-.2v-1.6h.8l6.1-12 .3.1 1.6-3.2 4 2-1.6 3.2.4.2-4.9 9.6h1.9v-2.9h14.2V191h6.3v-9.8h3.6v9.8h6.1v13.7h4.8v-22.5h2.2v3h37.5v24h-14.3v6.9h5.4v11.2h24.9v-22.5h7.4v22.5h4.8v-19.4h7.4v19.4h17.8v-16.8h8.7v-17h7.4v17h5.4v-9.6h2.2v-1.5h3.6v1.5h3.2v-4.3h3.6v4.3h2.5v-7.2h3.6v7.2h2.9v16h3.2V0H0v202.6c1.2-1.3 2.5-2.1 3.9-2.1zm289.5-43.8c.3-1.9 1.9-3.4 3.9-3.4.7 0 1.3.2 1.9.5.7-1.5 2.3-2.5 4.1-2.5 2.5 0 4.5 2 4.5 4.5 0 .3 0 .7-.1 1 1.4.3 2.4 1.5 2.4 3 0 1.7-1.4 3.1-3.1 3.1h-13.5c-1.7 0-3.1-1.4-3.1-3.1 0-1.7 1.3-3.1 3-3.1zM246.6 175h.2c.4-1.2 1.5-2.1 2.9-2.1h.1c.3-1.7 1.8-3 3.7-3 2 0 3.6 1.5 3.7 3.5 1.5 0 2.8 1.2 2.8 2.8 0 1.5-1.2 2.8-2.8 2.8h-10.6c-1.1 0-1.9-.9-1.9-1.9 0-1.3.9-2.1 1.9-2.1zM77.8 156.9c.3-4.4 4-7.9 8.5-7.9 4.1 0 7.6 3 8.3 6.9h.3c3.1 0 5.7 2 6.5 4.9h.4c2.4 0 4.4 2 4.4 4.4 0 2.4-2 4.4-4.4 4.4h-24c-3.5 0-6.3-2.8-6.3-6.3s2.8-6.4 6.3-6.4zM29 224.1v5.9h3.2c.2-2 .3-4.5.2-6.5-1 .4-2 .6-3.1.6H29zm-15.2-4.7v2c0 .2.1.4.1.6 0 1.7-.1 3.3-1.1 4.8v1.3h5v-6.8c-1-.2-3.1-.9-4.3-1.9.2-.1.3 0 .3 0z"/>
  <path class="st0" d="M185 209v5h10v-5h-4.7M70 214v-10h-2v10h-5v16H53v-10h-3.3c-.8 2-2.9 3.6-5.4 3.6-1.7 0-3.1-.8-4.2-2-1 .3-2 .4-3 .6-.1 4.4.3 10.7 1.1 14.8H74v-23h-4z"/>
  <path class="st1" d="M70 214v-10h-2v10h-5v16H53v-10h-3.3c-.8 2-2.9 3.6-5.4 3.6-1.7 0-3.1-.8-4.2-2-1 .3-2 .4-3 .6-.1 4.4.3 10.7 1.1 14.8H74v-23h-4z"/>
  <path class="st0" d="M137.1 204.7v1.6l.8-1.6"/>
  <path class="st1" d="M137.1 204.7v1.6l.8-1.6"/>
  <path class="st0" d="M176 205v-14h-6v-10h-4v10h-6v11h-14v3h-2.3l-5.6 10.9v-.1c-.3.4-1.1.6-1.1.8V237h44v-32h-5z"/>
  <path class="st1" d="M176 205v-14h-6v-10h-4v10h-6v11h-14v3h-2.3l-5.6 10.9v-.1c-.3.4-1.1.6-1.1.8V237h44v-32h-5z"/>
  <path class="st0" d="M29 230v-5.9c-3-.1-5-1.5-6.4-3.6-1 .5-2.3.8-3.6.8h-1v6.8h-5v-1.3c-2 3.3-5 5.7-9 5.9v4.4h27.4c.4-1.9.7-4 .8-7H29z"/>
  <path class="st1" d="M29 230v-5.9c-3-.1-5-1.5-6.4-3.6-1 .5-2.3.8-3.6.8h-1v6.8h-5v-1.3c-2 3.3-5 5.7-9 5.9v4.4h27.4c.4-1.9.7-4 .8-7H29z"/>
  <path class="st0" d="M116 232v-15.2l-.2-.1c-.5-.2-.8-.5-1.1-.9l-.1-.2c-.1-.1-.1-.5-.2-.6l-1.5-3H111v12.3l-4-.7V215h-3v7.9l-5-.9v-11h-3v10.3l-14.9-2.9-6.2 18.6H116v-5z"/>
  <path class="st1" d="M116 232v-15.2l-.2-.1c-.5-.2-.8-.5-1.1-.9l-.1-.2c-.1-.1-.1-.5-.2-.6l-1.5-3H111v12.3l-4-.7V215h-3v7.9l-5-.9v-11h-3v10.3l-14.9-2.9-6.2 18.6H116v-5z"/>
  <path class="st0" d="M286.9 220c-.8 0-1.4-.7-1.4-1.5s.6-1.5 1.4-1.5H317v-16h-3v-7h-4v7h-2v-5h-4v5h-3v-2h-3v2h-3v9h-5v-17h-7v17h-9v17h-18v-19h-7v19h-5v-22h-8v22h-25v-11h-5v-7h-11v5h-10v-5h-2v28h109v-6h-5.5c-.6 0-1-.4-1-1s.5-1 1-1h.4c-.8 0-1.9-.5-1.9-1.3v-.2c0-.8 1.1-1.6 1.9-1.6H320h-33c-.8 0-1.9-.6-1.9-1.4v-.1c0-.8 1.1-1.5 1.9-1.5h33-33c-.8 0-1.9-.7-1.9-1.5-.1-.7 1-1.4 1.8-1.4H320h-33.1z"/>
  <path class="st1" d="M286.9 220c-.8 0-1.4-.7-1.4-1.5s.6-1.5 1.4-1.5H317v-16h-3v-7h-4v7h-2v-5h-4v5h-3v-2h-3v2h-3v9h-5v-17h-7v17h-9v17h-18v-19h-7v19h-5v-22h-8v22h-25v-11h-5v-7h-11v5h-10v-5h-2v28h109v-6h-5.5c-.6 0-1-.4-1-1s.5-1 1-1h.4c-.8 0-1.4-.5-1.4-1.3v-.2c0-.8.6-1.6 1.4-1.6H320h-33c-.8 0-1.4-.6-1.4-1.4v-.1c0-.8.6-1.5 1.4-1.5h33-33c-.8 0-1.4-.7-1.4-1.5-.1-.7.5-1.4 1.3-1.4H320h-33.1z"/>
  <path class="st0" d="M306.8 231H296v6h22v-6"/>
  <path class="st1" d="M306.8 231H296v6h22v-6"/>
  <path class="st0" d="M1 232.5c0-.1-.5-.2-1-.3v4.8h1v-4.5z"/>
  <path class="st1" d="M1 232.5c0-.1-.5-.2-1-.3v4.8h1v-4.5z"/>
  <path class="st2" d="M3.2 232.7c-.3 0-.7 0-1-.1H2c-.3 0 0-.1-1-.1v4.5h3v-4.4s-.5.1-.8.1z"/>
  <path class="st3" d="M13.9 220.1v-.3.3zm0 .6v-.3.3zm-.1-1.4s0 .1 0 0c0 .1 0 0 0 0zm.2 2.1v-.2.2zM2.2 232.6c.2-.4.4-.9.5-1.3.6-1.4 1-2.9 1.1-4.6.2-3-2.1-6.4-.8-9.3.4-.9 1.2-1.7 1.7-2.6.8-1.3.9-2.8.9-4.2 0-1.4-.4-2.7-.7-4.1-.3-1.8 0-3.6 0-5.4 0-.1.2-.2.2-.3 2.7.9 4.7 4.9 6.7 9.2-2-5-4.7-9.5-7.9-9.5-1.3 0-2.9.8-4.1 2.1v29.6c.5.2 1 .3 1.5.3.4 0 .7.1.9.1z"/>
  <path class="st4" d="M3.2 232.7H4c3.9-.3 7.2-2.6 8.9-5.9.7-1.4 1.1-3 1.1-4.8v-2.7c-1.8-1.5-2.9-3.8-2.9-6.3 0-1.1.2-2.1.6-3.1-1.6-4.4-3.8-8.3-6.5-9.2v.3c0 1.8-.4 3.7 0 5.4.3 1.3.6 2.7.7 4.1 0 1.5-.1 3-.9 4.2-.5.9-1.3 1.6-1.7 2.6-1.3 3 1 6.4.8 9.3-.1 1.7-.5 3.2-1.1 4.6-.2.4-.3.9-.5 1.3.1.1.4.2.7.2z"/>
  <path class="st5" d="M36.9 222.2c-.6.1-.9.1-1.9.1h-.7c-.6.5-1.2.8-1.9 1.1 0 2 0 4.3-.2 6.6-.2 2.5-.5 5-.8 6.9h6.8c-.8-3.9-1.4-10.2-1.3-14.7z"/>
  <path class="st3" d="M13.8 219.3c1.2 1 2.8 1.7 4.4 1.9h.9c1.2 0 2.4-.3 3.5-.8 1.4 2.1 3.8 3.5 6.4 3.6h.4c1.1 0 2.2-.2 3.1-.6.7-.3 1.3-.7 1.9-1.1h.7v-53.2c0-.1-.5-.2-.8-.3-1.6-1.6-2.7-2.2-4-2.3-4.7-.4-7.9 3.8-8 8.5-3.8 0-6.8 3.1-6.8 6.9 0 1.1.3 2.2.7 3.1-.6-.2-1.2-.3-1.9-.3-3.8 0-6.9 3.1-6.9 6.9 0 2.8 1.7 5.2 4 6.2-1.1 1.2-1.8 2.8-1.8 4.6 0 2.3 1.4 4.3 3.1 5.6-.5.6-.9 1.2-.9 1.9-1 1-.9 2-.9 3.1.2 2.6 1.1 4.8 2.9 6.3z"/>
  <path class="st4" d="M34.8 222.4h.4-.4zm.2-.1c1 0 1.4 0 1.9-.1 1-.1 2-.3 3-.6 1.1 1.2 2.5 1.9 4.2 1.9 2.5 0 4.6-1.5 5.4-3.7.3-.7.4-1.4.4-2.2 0-.3-.1-.6-.1-.9h.1c5.1 0 9.2-4.1 9.2-9.2 0-2.7-1.2-5.1-3-6.8 2.6-1.4 4.3-4.2 4.3-7.3 0-3.4-2-6.3-4.9-7.6.2-.7.4-1.5.4-2.3 0-3.9-3.2-7.1-7.1-7.1-.4 0-.7 0-1.1.1.1-.4.1-.8.1-1.2 0-3.6-2.9-6.5-6.5-6.5-1.1 0-1.8.3-2.8.8-1.3-.5-3.6-.5-3.6-.5v53.2z"/>
  <path class="st6" d="M285.5 218.5c0 .8.6 1.5 1.4 1.5H307v-3h-20.1c-.8 0-1.4.7-1.4 1.5zm1.4 1.5c-.8 0-1.4.6-1.4 1.4v.1c0 .8.6 1.5 1.4 1.5H307v-3h-20.1z"/>
  <path class="st6" d="M286.9 223c-.8 0-1.4.7-1.4 1.5s.6 1.4 1.4 1.4H307v-3h-20.1zm20.1 3h-20.1c-.8 0-1.4.8-1.4 1.6s.6 1.4 1.4 1.4H307v-3z"/>
  <path class="st7" d="M307 231h13v-2h-13"/>
  <path class="st8" d="M292 231h4v6h-4zm26 0h2v6h-2z"/>
  <path class="st9" d="M307 217v3h13v-3h-3.2m-9.8 3h13v3h-13zm0 3h13v3h-13zm0 3h13v3h-13z"/>
  <path class="st10" d="M307 231v-2h-20.5c-.6 0-1 .4-1 1s.5 1 1 1H307z"/>
  <path class="st11" d="M77.8 170h24c2.4 0 4.4-2.2 4.4-4.6 0-2.4-2-4.5-4.4-4.5h-.4c-.9-2.8-3.5-4.9-6.5-4.9h-.3c-.7-3.9-4.2-6.9-8.3-6.9-4.5 0-8.2 4-8.5 8-3.5 0-6.3 3-6.3 6.5 0 3.4 2.8 6.4 6.3 6.4zm215.6-7.1l.5.1h12.4l.5-.1c1.7 0 3.1-1.4 3.1-3.1 0-1.5-1-2.7-2.4-3 .1-.3.1-.7.1-1 0-2.5-2-4.5-4.5-4.5-1.8 0-3.3 1-4.1 2.5-.6-.3-1.2-.3-1.9-.3-2 0-3.6 1.5-3.8 3.5h-.1c-1.7 0-3.1 1.3-3.1 3 .3 1.7 1.6 2.9 3.3 2.9zM246.6 179h10.6c1.5 0 2.8-1.5 2.8-3s-1.2-3-2.8-3c-.1-2-1.7-3.3-3.7-3.3-1.8 0-3.3 1.4-3.7 3.1h-.1c-1.4 0-2.5.9-2.9 2.2h-.2c-1.1 0-1.9.9-1.9 2s.9 2 1.9 2z"/>
  <path class="st12" d="M125 263.9h3V239h-3v24.9z"/>
  <path class="st12" d="M320 237H183v27.4c11 .2 19.2 2.5 19.2 5.2 0 2.9-9.4 5.2-21 5.2s-20.8-2.3-20.8-5.2c0-2.9 8.6-5.2 20.6-5.2V237h-44v2h-5v25c10 .5 18.2 2.8 18.2 5.6 0 3.1-10.1 5.7-22.7 5.7s-22.8-2.5-22.8-5.7c0-2.6 7.3-4.8 16.3-5.5V239h-5v-2H0v50h320v-50z"/>
  <path class="st12" d="M138.4 269.7c-.1.2-10.6-.4-10.6-.4l.1-.2h.1V264h-3v3.3l.7 2s-10.5.7-10.6.5c1.3-1.7 3.9-2.5 5.9-2.8v-2.8c-9 .7-16.3 2.9-16.3 5.5 0 3.1 10.2 5.7 22.8 5.7s22.7-2.5 22.7-5.7c0-2.7-8.2-5-18.2-5.6v2.8c2 .2 5.1.9 6.4 2.8z"/>
  <path class="st13" d="M138.4 269.7c-.1.2-10.6-.4-10.6-.4l.1-.2h.1V264h-3v3.3l.7 2s-10.5.7-10.6.5c1.3-1.7 3.9-2.5 5.9-2.8v-2.8c-9 .7-16.3 2.9-16.3 5.5 0 3.1 10.2 5.7 22.8 5.7s22.7-2.5 22.7-5.7c0-2.7-8.2-5-18.2-5.6v2.8c2 .2 5.1.9 6.4 2.8z"/>
  <path class="st14" d="M128 263.9v5.1h-.1l.6-2h2.3s.1-.3 1.1-.2V239h-4v24.9z"/>
  <path class="st14" d="M138.5 269.7c-1.4-1.9-4.6-2.5-6.4-2.7-.8-.1-1.3 0-1.3 0h-2.3l-.6 2.1-.1.2c.1 0 10.6.6 10.7.4zm-15.6-2.7h2.3l-.2.2V239h-4v27.9c1-.2 1.9.1 1.9.1z"/>
  <path class="st14" d="M122.9 267s-.8-.1-1.8.1c-1.8.3-4.6 1-5.8 2.7.1.2 10.7-.5 10.7-.5l-.5-1.9-.1-.4h-2.5z"/>
  <path class="st15" d="M144.275 192.83l1.632-3.208 3.922 1.993-1.634 3.21z"/>
  <path class="st16" d="M137 209.6c0 .7-.1 1.5-.3 2.2.1 0 .2.2.3.2h.1v-.2c1 .3 1.2.9 1.5 1.7.2.8 0 1.6-.4 2.2h.1l5.6-11 4.9-9.6-.4-.2-4-2-.3-.1-6.1 12-.8 1.6-.1.2v3z"/>
  <path class="st16" d="M138.5 213.5c-.2-.8-.5-1.4-1.5-1.7v4.7c0-.2.8-.5 1.1-.9.4-.5.6-1.3.4-2.1zm-1.8-1.8c-.1.1-.1.1 0 0l.3.1c-.1 0-.2 0-.3-.1z"/>
  <path class="st15" d="M102.423 192.07l3.874-2.086 1.706 3.17-3.874 2.085z"/>
  <path class="st16" d="M114.5 213.4c.3-1 1-1.6 2-1.7-.2-.7-.5-1.4-.5-2.1v-2l-7.8-14.7-.3.2-3.9 2.1-.3.2 9.2 17.1 1.5 2.8c-.1-.6-.2-1.3.1-1.9zm.3 2.4c0-.1-.1-.1-.1-.2l.1.2z"/>
  <path class="st16" d="M116 212.8v-.8h.7v-.2c-1 .1-1.8.7-2.2 1.7-.2.6-.2 1.3.1 1.9.1.1.1.2.2.3 0 .1.1.1.1.2.3.4.5.7 1 .9.1 0 .2.1.2.1v-4.1zm10.5 12.7l-10.5-6.9V232h21v-13.4"/>
  <path class="st14" d="M137 232h-21v7h21v-5.7"/>
  <path class="st17" d="M137 212.8v-.9.2h-.4c-1.2 3-5.1 6-9.7 6h.1v7.5l10-7v-5.8z"/>
  <path class="st18" d="M127 225.5V218h-.5l-.5.1c-4 0-8.2-3.1-9.3-6.1h-.7v6.6l11 6.9z"/>
  <path class="st15" d="M137 203.1c1-.1 1.7-1 1.7-2 0-.9-.6-1.7-1.5-2-.1 0-.3 0-.3.1v3.9z"/>
  <path class="st15" d="M135.9 200.4l-.6-.1s-.6-.3-.6-2.2c0-.5-.4-4.7-.3-5.5.1-2.6-3-1-3.7-.8-1.1.3-2.6.6-4.6.6v25.5l.5-.1h.4c4.7 0 8.6-2.6 9.7-6.2v-.1c.2-.7.3-1.4.3-2.1V199c0 .3-.9.6-1.1 1.4zm-7.9-.4h5v1h-5v-1zm.7 5h1.3v-2c0-.5.4-.9 1-.9s1 .4 1 .9v2h.9c.2 0 .3 1 .3 1h-4.8s.2-1 .3-1z"/>
  <path class="st19" d="M116 209.6c0 .7.3 1.4.5 2.1l-.1.1c1.2 3.6 5.6 6.2 9.6 6.2v-25h.4c-1.7 0-3.2-.6-4.2-.9-.8-.2-3.2-1.4-3.3.7-.1 1.2-.3 4.9-.3 5.4.1 1.4-.2 1.9-.5 2 .1.3 0 .5 0 .8 0 1.1-1.1 2-2.1 2v6.6zm3-9.6h5v1h-5v-1zm.8 5h1.2v-2c0-.5.4-.9 1-.9s1 .4 1 .9v2h1c.2 0 .3 1 .3 1h-4.8s.1-1 .3-1z"/>
  <path class="st19" d="M118.3 201.1c0-.3-.1-.6-.2-.9l-.1.1-.6.1c-.4-1.2-1.4-1.2-1.4-1.2-.9.2-1.6 1-1.6 2 0 1.1.9 2 2 2 1-.1 1.9-1 1.9-2.1z"/>
  <path class="st20" d="M117.3 200.4l.6-.1s.1 0 .1-.1c.2-.2.6-.7.5-2.1 0-.5.2-4.2.3-5.5.1-2 2.5-.8 3.3-.5 1 .3 2.5.9 4.2.9 1.8 0 3.3-.5 4.4-.9.7-.2 3.6-2 3.5.7 0 .8.3 4.9.3 5.4 0 1.9.6 2.1.6 2.1l.6.1c.2-.8.8-1.1 1.1-1.2.1 0 .2-.1.3-.1h.1s.7-4.7.7-6.9c0-9.1-8.5-9.1-11.4-9.2-2.8.2-11.4.1-11.4 9.2 0 2.2.7 6.8.7 6.9s1.1.1 1.5 1.3z"/>
  <path class="st21" d="M132.9 205h-.9v1h-2v-1h-1.3c-.2 0-.3 1-.3 1h4.8s-.1-1-.3-1z"/>
  <path class="st21" d="M132 206v-3c0-.5-.4-.9-1-.9s-1 .4-1 .9v3h2zm-1.2-3c0-.1.1-.1.1-.1l.1.1v.7c0 .1-.1.1-.1.1l-.1-.1v-.7z"/>
  <path class="st11" d="M131 203.9c.1 0 .1-.1.1-.1v-.8c0-.1-.1-.1-.1-.1l-.1.1v.7c-.1.1 0 .2.1.2z"/>
  <path class="st20" d="M128 200h5v1h-5zm-9 0h5v1h-5z"/>
  <path class="st21" d="M124 205h-1v1h-2v-1h-1.2c-.2 0-.3 1-.3 1h4.8s-.1-1-.3-1z"/>
  <path class="st21" d="M123 206v-3c0-.5-.4-.9-1-.9s-1 .4-1 .9v3h2zm-1-2.9c0-.1.1-.1.1-.1l.1.1v.7c0 .1-.1.1-.1.1l-.1-.1v-.7z"/>
  <path class="st11" d="M122.2 203.9c.1 0 .1-.1.1-.1v-.7c0-.1-.1-.1-.1-.1l-.1.1v.7c-.1.1 0 .1.1.1z"/>
  <path class="st12" d="M181 270v-5.7c-12 .1-20.7 2.4-20.7 5.2 0 2.9 9.3 5.2 20.9 5.2s21-2.3 21-5.2c0-2.8-8.3-5-19.3-5.2v5.6H181z"/>
  <path class="st13" d="M181 270v-5.7c-12 .1-20.7 2.4-20.7 5.2 0 2.9 9.3 5.2 20.9 5.2s21-2.3 21-5.2c0-2.8-8.3-5-19.3-5.2v5.6H181z"/>
  <path d="M183 185h7v6h-7z"/>
  <path class="st11" d="M190 185h8v6h-8z"/>
  <path d="M198 185h7v6h-7z"/>
  <path class="st11" d="M205 185h8v6h-8z"/>
  <path d="M213 185h7v6h-7z"/>
  <path class="st11" d="M183 191h7v6h-7z"/>
  <path d="M190 191h8v6h-8z"/>
  <path class="st11" d="M198 191h7v6h-7z"/>
  <path d="M205 191h8v6h-8z"/>
  <path class="st11" d="M213 191h7v6h-7zm-23 12h-7v6h7"/>
  <path d="M198 203h-8v6h8"/>
  <path class="st11" d="M198 203h7v6h-7z"/>
  <path d="M205 203v6h8v-6"/>
  <path class="st11" d="M213 203h7v6h-7z"/>
  <path d="M183 197h7v6h-7z"/>
  <path class="st11" d="M190 197h8v6h-8z"/>
  <path d="M198 197h7v6h-7z"/>
  <path class="st11" d="M205 197h8v6h-8z"/>
  <path d="M213 197h7v6h-7zm-30 9.2v-22.5s-.4-1.5-1-1.5-1 1.4-1 3v81.7s.4 2.6 1 2.6 1-1.2 1-2.6v-60.7z"/>
</svg>