<svg xmlns="http://www.w3.org/2000/svg" width="320" height="287" viewBox="0 0 320 287">
  <style>
    .st0{fill:#C9F3FF;} .st1{opacity:0.3;fill:#A4A6A9;} .st2{fill:#6B503D;} .st3{fill:#7E9633;} .st4{fill:#6B7C25;} .st5{fill:#6B4322;} .st6{fill:#D1A578;} .st7{fill:#8D6640;} .st8{fill:#666666;} .st9{fill:#BB8F68;} .st10{fill:#996E4F;} .st11{fill:#CAB384;} .st12{opacity:0.2;} .st13{fill:#FFFFFF;} .st14{fill:#3C3C3B;} .st15{fill:#EAE5D0;} .st16{fill:#507B93;} .st17{fill:#BE1622;} .st18{fill:#A31324;} .st19{fill:#E1D8BC;} .st20{fill:#683C11;} .st21{fill:#3B363A;}
  </style>
  <path class="st0" d="M29 190.7v6h3.3c.2-2.3.3-4.5.2-6.6-1 .4-2 .6-3.1.6H29zM13.8 186v2.6c0 1.7-.4 3.3-1.1 4.7v1.3h5.4v-6.7c-1.5-.2-3.1-.9-4.3-1.9zm-9.9-18.8c3.2 0 5.8 4.4 7.7 9.4.3-.7.7-1.4 1.1-1.9-1.7-1.2-2.9-3.3-2.9-5.6 0-1.8.7-3.4 1.8-4.6-2.4-1.1-4-3.5-4-6.2 0-3.8 3.1-6.8 6.9-6.8.6 0 1.3.1 1.9.3-.5-.9-.7-2-.7-3.1 0-3.8 3.1-6.8 6.8-6.8 0-4.7 3.3-8.9 8-8.5 1.2.1 2.4.6 4 2.3l.9.3s2.2 0 3.5.5c.9-.5 1.5-.8 2.7-.8 3.6 0 6.5 2.9 6.5 6.5 0 .4 0 .8-.1 1.2.3-.1.7-.1 1.1-.1 3.9 0 7.1 3.2 7.1 7.1 0 .8-.1 1.6-.4 2.3 2.9 1.3 4.9 4.2 4.9 7.6 0 3.1-1.7 5.9-4.3 7.3 1.9 1.7 3 4.1 3 6.8 0 5.1-4.1 9.2-9.2 9.2h-.1c0 .3.1.6.1.8 0 .8-.1 1.5-.4 2.2h3v10.2h10.7V181h4.4v-10.6h2V181h4.4v22h1l5.9-17.9 14.7 2.9v-10.1h3.6v10.7l4.6.9v-7.7h3.6v8.4l3.4.7v-11.7h7.3v13.2l9.6 1.9V180h4.3v-2.8h5.1v-5.7h8.5v-2.9h5.6V164c-.9 0-1.6-.7-1.6-1.6 0-.8.5-1.4 1.2-1.6 0-.1-.5-3.8-.5-5.5 0-7.2 6.8-7.2 9.1-7.3 1.4 0 4.5.1 6.7 1.8v-1.9h3.6v9.8h6.1v13.7h9.4v9.6h10.1v-5.7h10.7v7.4h5.4v11.1h21.7c-.1-.3-.2-.6-.2-.9 0-.5.2-.9.5-1.3-.7-.3-1.1-1-1.1-1.8 0-1.1.9-1.9 1.9-1.9.2 0 .4 0 .5.1-.1-.3-.2-.6-.2-.9 0-1 .8-1.8 1.8-1.9v-13.9h7.4v14.3h.2c1.1 0 2 .9 2 2 0 .2 0 .4-.1.6.8.4 1.4 1.2 1.4 2.1 0 .9-.5 1.7-1.2 2.1.4.3.7.8.8 1.3h1.8v-19.3h7.4v19.3h2.6c-.1-.1-.1-.2-.1-.4 0-.4.3-.8.8-.8h14.2v-15.7h8.7v-16.9h7.4v16.9h5.4v-9.6h2.2v-1.5h3.6v1.5h3.2v-4.3h3.6v4.3h2.5V160h3.6v7.2h2.9v16.5h3.2V0H0v169.2c1.2-1.2 2.5-2 3.9-2zm251.5-44.1c.3-1.9 1.9-3.4 3.9-3.4.7 0 1.3.2 1.9.5.7-1.5 2.3-2.5 4.1-2.5 2.5 0 4.5 2 4.5 4.5 0 .3 0 .7-.1 1 1.4.3 2.4 1.5 2.4 3 0 1.7-1.4 3.1-3.1 3.1h-13.5c-1.7 0-3.1-1.4-3.1-3.1 0-1.7 1.3-3.1 3-3.1zm-148.1.2c.3-4.4 4-7.9 8.5-7.9 4.1 0 7.6 3 8.3 6.9h.3c3.1 0 5.7 2 6.5 4.9h.4c2.4 0 4.4 2 4.4 4.4 0 2.4-2 4.4-4.4 4.4h-24c-3.5 0-6.3-2.8-6.3-6.3s2.8-6.4 6.3-6.4z"/>
  <path class="st0" d="M151.3 192.2v-11l-2.9 9.5-.2-.1-.8 2.7-3.4-1 .8-2.7-.3-.1 5.3-17.6c.2-.4.5-.8 1-1 .2-.1.4-.2.7-.2-.2-.5-.3-1.1-.3-1.7v-.7h-5.6v2.9h-8.5v5.7H132v2.8h-4.3V194l-9.6-1.9v-13.2h-7.3v11.7l-3.4-.7v-8.4h-3.6v7.7l-4.6-.9v-10.7h-3.6v10.1l-14.7-2.9-5.8 18.2h80v-10.8h-3.8z"/>
  <path class="st1" d="M151.3 192.2v-11l-2.9 9.5-.2-.1-.8 2.7-3.4-1 .8-2.7-.3-.1 5.3-17.6c.2-.4.5-.8 1-1 .2-.1.4-.2.7-.2-.2-.5-.3-1.1-.3-1.7v-.7h-5.6v2.9h-8.5v5.7H132v2.8h-4.3V194l-9.6-1.9v-13.2h-7.3v11.7l-3.4-.7v-8.4h-3.6v7.7l-4.6-.9v-10.7h-3.6v10.1l-14.7-2.9-5.8 18.2h80v-10.8h-3.8z"/>
  <path class="st0" d="M158.4 192.2h2V203h-2z"/>
  <path class="st1" d="M158.4 192.2h2V203h-2z"/>
  <path class="st0" d="M270 200.5h-5.9v2.5H276v-2.5"/>
  <path class="st1" d="M270 200.5h-5.9v2.5H276v-2.5"/>
  <path class="st0" d="M239.4 198.9c-.3.1-.6.2-.9.2-.8 0-1.5-.4-1.9-1-.3.1-.6.2-1 .2-1.3 0-2.3-1-2.3-2.3 0-.5.2-1 .5-1.4-.3-.2-.5-.4-.6-.7h-21.7v-11.1h-5.4v-7.4h-10.7v5.7h-10.1v-9.6h-9.4v-13.7h-6.1V148h-3.6v1.9c1.4 1.1 2.4 2.8 2.4 5.6 0 1.7-.6 5.5-.6 5.5h-.1c.7.2 1.2.8 1.2 1.6s-.6 1.5-1.4 1.6v5.2c0 .6-.1 1.2-.3 1.7h.3c.1 0 .3.1.4.2.4.2.6.5.8.9l.1.2c0 .1.1.2.1.3l5.6 17.1-.2.1.9 2.7-3.4 1.1-.9-2.7-.3.1-3-9.2v10.7H164V203h75c.3-1 .4-2.8.4-4.1z"/>
  <path class="st1" d="M239.4 198.9c-.3.1-.6.2-.9.2-.8 0-1.5-.4-1.9-1-.3.1-.6.2-1 .2-1.3 0-2.3-1-2.3-2.3 0-.5.2-1 .5-1.4-.3-.2-.5-.4-.6-.7h-21.7v-11.1h-5.4v-7.4h-10.7v5.7h-10.1v-9.6h-9.4v-13.7h-6.1V148h-3.6v1.9c1.4 1.1 2.4 2.8 2.4 5.6 0 1.7-.6 5.5-.6 5.5h-.1c.7.2 1.2.8 1.2 1.6s-.6 1.5-1.4 1.6v5.2c0 .6-.1 1.2-.3 1.7h.3c.1 0 .3.1.4.2.4.2.6.5.8.9l.1.2c0 .1.1.2.1.3l5.6 17.1-.2.1.9 2.7-3.4 1.1-.9-2.7-.3.1-3-9.2v10.7H164V203h75c.3-1 .4-2.8.4-4.1z"/>
  <path class="st0" d="M238.8 182.9c.3 0 .7.2 1.1.6.1 0 .2.1.3.1 0 0 .6 0 1 .1.3-.1.4-.2.8-.2 1 0 1.8.8 1.8 1.8v.4h.1v-14.3h-7.4v13.9h.2c-.2-1.3.7-2.5 2.1-2.4z"/>
  <path class="st1" d="M238.8 182.9c.3 0 .7.2 1.1.6.1 0 .2.1.3.1 0 0 .6 0 1 .1.3-.1.4-.2.8-.2 1 0 1.8.8 1.8 1.8v.4h.1v-14.3h-7.4v13.9h.2c-.2-1.3.7-2.5 2.1-2.4z"/>
  <path class="st0" d="M69.7 181v-10.6h-2V181h-4.4v15.7H52.6v-10.2h-3c-.8 2.2-2.9 3.7-5.4 3.7-1.7 0-3.1-.7-4.2-1.9-1 .3-2 .5-3 .6-.1 4.2.3 10.1 1 14.1h36v-22h-4.3z"/>
  <path class="st1" d="M69.7 181v-10.6h-2V181h-4.4v15.7H52.6v-10.2h-3c-.8 2.2-2.9 3.7-5.4 3.7-1.7 0-3.1-.7-4.2-1.9-1 .3-2 .5-3 .6-.1 4.2.3 10.1 1 14.1h36v-22h-4.3z"/>
  <path class="st0" d="M29 196.7v-6c-2.7-.1-5-1.5-6.4-3.6-1 .5-2.2.8-3.5.8h-.9v6.7h-5.4v-1.3c-1.6 3.3-5 5.7-8.9 5.9v3.8h27.5c.3-1.8.6-4 .7-6.3H29z"/>
  <path class="st1" d="M29 196.7v-6c-2.7-.1-5-1.5-6.4-3.6-1 .5-2.2.8-3.5.8h-.9v6.7h-5.4v-1.3c-1.6 3.3-5 5.7-8.9 5.9v3.8h27.5c.3-1.8.6-4 .7-6.3H29z"/>
  <path class="st0" d="M316.8 167.4h-2.9v-7.2h-3.6v7.2h-2.5v-4.3h-3.6v4.3H301v-1.5h-3.6v1.5h-2.2v9.6H290v-16.9h-7.4V177h-8.7v15.7h6.9c.4 0 .8.3.8.8 0 .4-.3.8-.8.8h-21.5c-.3 0-.5-.2-.6-.4h-2.6v-19.3h-7.4v19.3h-1.8c0 .2.1.4.1.6 0 1.4-1.2 2.6-2.6 2.6v.2c0 .9-.7 1.7-1.6 1.7-.5 0-.9-.2-1.2-.5-.3.1-.6.1-.8.2 0 1.4.1 3.3.4 4.5h21v-2.5h-3c-.3 0-.5-.2-.5-.5s.2-.5.5-.5h.2c-.4 0-.8-.3-.8-.8 0-.4.3-.8.8-.8h21.3c.4 0 .8.3.8.8 0 .4-.3.8-.8.8h.2c.3 0 .5.2.5.5s-.2.5-.5.5H278v2.5h22.6v-18.8h.6v.8h10v6.4h-10V203H320v-19.1h-3.2v-16.5zm-35.3 29.5c0 .3-.2.6-.5.7-.1 0-.2.1-.3.1h-21.4c-.4 0-.8-.3-.8-.8 0-.4.3-.8.8-.8h21.4c.1 0 .2 0 .3.1.3.1.5.4.5.7zm0-1.7c0 .3-.2.6-.5.7-.1 0-.2.1-.3.1h-21.4c-.4 0-.8-.3-.8-.8 0-.4.3-.8.8-.8h21.4c.1 0 .2 0 .3.1.3.1.5.4.5.7z"/>
  <path class="st1" d="M316.8 167.4h-2.9v-7.2h-3.6v7.2h-2.5v-4.3h-3.6v4.3H301v-1.5h-3.6v1.5h-2.2v9.6H290v-16.9h-7.4V177h-8.7v15.7h6.9c.4 0 .8.3.8.8 0 .4-.3.8-.8.8h-21.5c-.3 0-.5-.2-.6-.4h-2.6v-19.3h-7.4v19.3h-1.8c0 .2.1.4.1.6 0 1.4-1.2 2.6-2.6 2.6v.2c0 .9-.7 1.7-1.6 1.7-.5 0-.9-.2-1.2-.5-.3.1-.6.1-.8.2 0 1.4.1 3.3.4 4.5h21v-2.5h-3c-.3 0-.5-.2-.5-.5s.2-.5.5-.5h.2c-.4 0-.8-.3-.8-.8 0-.4.3-.8.8-.8h21.3c.4 0 .8.3.8.8 0 .4-.3.8-.8.8h.2c.3 0 .5.2.5.5s-.2.5-.5.5H278v2.5h22.6v-18.8h.6v.8h10v6.4h-10V203H320v-19.1h-3.2v-16.5zm-35.3 29.5c0 .3-.2.6-.5.7-.1 0-.2.1-.3.1h-21.4c-.4 0-.8-.3-.8-.8 0-.4.3-.8.8-.8h21.4c.1 0 .2 0 .3.1.3.1.5.4.5.7zm0-1.7c0 .3-.2.6-.5.7-.1 0-.2.1-.3.1h-21.4c-.4 0-.8-.3-.8-.8 0-.4.3-.8.8-.8h21.4c.1 0 .2 0 .3.1.3.1.5.4.5.7z"/>
  <path class="st0" d="M1.5 199.1l-1.5-.3v4.2h1.5v-3.9z"/>
  <path class="st1" d="M1.5 199.1l-1.5-.3v4.2h1.5v-3.9z"/>
  <path class="st2" d="M3.2 199.3c-.3 0-.7 0-1-.1-.3 0-.5-.1-.8-.1v3.9H4v-3.8c-.3 0-.5.1-.8.1z"/>
  <path class="st3" d="M13.9 186.7v-.3.3zm0 .7v-.3.3zm.1.6v-.2.2zm-.2-2.1c0 .1 0 .1 0 0 0 .1 0 .1 0 0zM2.2 199.2c.2-.4.4-.9.5-1.3.6-1.4 1-2.9 1.1-4.6.2-3-2.1-6.4-.8-9.3.4-.9 1.2-1.7 1.7-2.6.8-1.3.9-2.8.9-4.2 0-1.4-.4-2.7-.7-4.1-.3-1.8 0-3.6 0-5.4v-.3c2.7.9 4.9 4.8 6.5 9.2-1.8-5-4.5-9.4-7.7-9.4-1.3 0-2.6.8-3.9 2v29.5c.5.2 1 .3 1.5.3.4.1.7.2.9.2z"/>
  <path class="st4" d="M3.2 199.3H4c3.9-.3 7.2-2.6 8.9-5.9.7-1.4 1.1-3 1.1-4.7V186c-1.8-1.5-2.9-3.7-2.9-6.2 0-1.1.2-2.1.6-3.1-1.6-4.4-3.8-8.3-6.5-9.2v.3c0 1.8-.4 3.7 0 5.4.3 1.3.6 2.7.7 4.1 0 1.4-.1 3-.9 4.2-.5.9-1.3 1.6-1.7 2.6-1.3 2.9 1 6.4.8 9.3-.1 1.7-.5 3.2-1.1 4.6-.2.4-.3.9-.5 1.3.1-.1.4 0 .7 0z"/>
  <path class="st5" d="M37 188.9c-.6.1-1.2.1-1.9.1h-.4.4-.7c-.6.5-1.3.8-2 1.1 0 2-.1 4.3-.2 6.6-.2 2.3-.4 4.5-.7 6.3H38c-.7-4-1.1-9.9-1-14.1z"/>
  <path class="st3" d="M13.8 185.9c1.2 1 2.8 1.7 4.4 1.9h.9c1.2 0 2.4-.3 3.5-.8 1.4 2.1 3.8 3.5 6.4 3.6h.4c1.1 0 2.2-.2 3.1-.6.7-.3 1.4-.7 2-1.1h.7v-53.1l-.9-.3c-1.6-1.6-2.8-2.2-4-2.3-4.7-.4-8 3.8-8 8.5-3.8 0-6.8 3.1-6.8 6.8 0 1.1.3 2.2.7 3.1-.6-.2-1.2-.3-1.9-.3-3.8 0-6.9 3.1-6.9 6.8 0 2.8 1.7 5.2 4 6.2-1.1 1.2-1.8 2.8-1.8 4.6 0 2.3 1.1 4.3 2.9 5.6-.5.6-.8 1.2-1.1 1.9-.4 1-.6 2-.6 3.1.1 2.7 1.2 4.9 3 6.4z"/>
  <path class="st4" d="M34.8 189h.4-.4zm.4-.1c.6 0 1.3 0 1.9-.1 1-.1 2-.3 3-.6 1.1 1.2 2.5 1.9 4.2 1.9 2.5 0 4.6-1.5 5.4-3.7.3-.7.4-1.4.4-2.2 0-.3-.1-.6-.1-.8h.1c5.1 0 9.2-4.1 9.2-9.2 0-2.7-1.2-5.1-3-6.8 2.6-1.4 4.3-4.1 4.3-7.3 0-3.4-2-6.3-4.9-7.6.2-.7.4-1.5.4-2.3 0-3.9-3.2-7.1-7.1-7.1-.4 0-.7 0-1.1.1.1-.4.1-.8.1-1.2 0-3.6-2.9-6.5-6.5-6.5-1.1 0-1.7.3-2.7.8-1.3-.5-3.5-.5-3.5-.5v53.1z"/>
  <path class="st5" d="M240.7 198.5h-.6.1-.2l-.6.3c0 1.3-.1 3.1-.4 4.1h2c-.2-1-.4-3-.3-4.4z"/>
  <path class="st3" d="M233.8 194.6c-.3.4-.5.9-.5 1.4 0 1.3 1 2.3 2.3 2.3.3 0 .7-.1 1-.2.4.6 1.1 1 1.9 1 .3 0 .6-.1.9-.2l.6-.3h.2v-15c-.1 0-.2-.1-.3-.1-.4-.5-.8-.6-1.1-.6-1.3-.1-2.2 1.1-2.3 2.4h-.2c-1 .1-1.8.9-1.8 1.9 0 .3.1.6.2.9-.2 0-.3-.1-.5-.1-1.1 0-1.9.9-1.9 1.9 0 .8.5 1.5 1.1 1.8-.3.3-.5.8-.5 1.3 0 .3.1.6.2.9.2.2.4.5.7.7zm6.8 4c-.1 0-.1 0 0 0-.1 0-.1 0 0 0z"/>
  <path class="st4" d="M243.7 185.4c0-1-.8-1.8-1.8-1.8-.3 0-.5.1-.8.2-.4-.1-1-.1-1-.1v15h.5c.3 0 .6-.1.8-.2.3.3.7.5 1.2.5.9 0 1.6-.7 1.6-1.7v-.2c1.4 0 2.6-1.2 2.6-2.6 0-.2 0-.4-.1-.6-.1-.5-.4-1-.8-1.3.7-.4 1.2-1.2 1.2-2.1 0-1-.6-1.8-1.4-2.1.1-.2.1-.4.1-.6 0-1.1-.9-2-2-2h-.3c.2-.2.2-.3.2-.4zm-3.5 13.2z"/>
  <path class="st6" d="M259.3 194.2H270v-1.5h-10.7c-.4 0-.8.3-.8.8 0 .1 0 .3.1.4.2.2.4.3.7.3zm0 .2c-.4 0-.8.3-.8.8 0 .4.3.8.8.8H270v-1.5h-10.7zm21.4 0c.1 0 .2 0 .3.1-.1 0-.2-.1-.3-.1zm.3.1c.3.1.5.4.5.7 0-.3-.2-.6-.5-.7zm-.3 1.5c.1 0 .2 0 .3-.1-.1 0-.2.1-.3.1zm.3 1.6c.3-.1.5-.4.5-.7 0 .3-.2.6-.5.7zm-.3-1.4c.1 0 .2 0 .3.1-.1-.1-.2-.1-.3-.1zm.3 0c.3.1.5.4.5.7 0-.3-.2-.6-.5-.7zm-.3 1.5c.1 0 .2 0 .3-.1-.1.1-.2.1-.3.1zm-21.4-1.5c-.4 0-.8.3-.8.8 0 .4.3.8.8.8H270v-1.5h-10.7zm21.4 3.2c.4 0 .8-.3.8-.8 0 .5-.4.8-.8.8z"/>
  <path class="st6" d="M281.5 198.7c0-.4-.3-.8-.8-.8.4 0 .8.3.8.8zm-11.5-.8h-10.7c-.4 0-.8.3-.8.8 0 .4.3.8.8.8H270v-1.6z"/>
  <path class="st7" d="M270 199.4v1.1h10.9c.3 0 .5-.2.5-.5s-.2-.5-.5-.5H270z"/>
  <path class="st8" d="M262.1 200.5h2v2.5h-2zm13.9 0h2v2.5h-2z"/>
  <path class="st9" d="M270 194.2h10.7c.4 0 .8-.3.8-.8 0-.4-.3-.8-.8-.8H270v1.6zm11 .3c-.1 0-.2-.1-.3-.1H270v1.5h10.7c.1 0 .2 0 .3-.1.3-.1.5-.4.5-.7s-.2-.5-.5-.6zm0 1.7c-.1 0-.2-.1-.3-.1H270v1.5h10.7c.1 0 .2 0 .3-.1.3-.1.5-.4.5-.7 0-.2-.2-.5-.5-.6zm-.3 3.2c.4 0 .8-.3.8-.8s-.3-.8-.8-.8H270v1.5h10.7z"/>
  <path class="st10" d="M270 200.5v-1.1h-10.9c-.3 0-.5.2-.5.5s.2.5.5.5H270z"/>
  <path class="st11" d="M320 203h-18.7v3.4c2.9.1 5.2.7 5.2 1.4 0 .8-2.5 1.4-5.7 1.4-3.1 0-5.7-.6-5.7-1.4 0-.8 2.5-1.4 5.5-1.4V203H163.9v10.5c9 .4 15.8 2.4 15.8 4.8 0 2.7-8.8 4.9-19.6 4.9s-19.6-2.2-19.6-4.9c0-2.3 6.2-4.2 14.6-4.7V203H0v84h320v-84z"/>
  <path class="st11" d="M158.4 213.4h2V203h-2v10.4zm142.3-5.5v-1.4c-3.1 0-5.5.6-5.5 1.4 0 .8 2.5 1.4 5.7 1.4 3.1 0 5.7-.6 5.7-1.4 0-.7-2.3-1.4-5.2-1.4v1.4h-.7z"/>
  <path class="st12" d="M300.7 207.9v-1.4c-3.1 0-5.5.6-5.5 1.4 0 .8 2.5 1.4 5.7 1.4 3.1 0 5.7-.6 5.7-1.4 0-.7-2.3-1.4-5.2-1.4v1.4h-.7z"/>
  <path d="M301.3 185h2v1.6h-2z"/>
  <path class="st13" d="M303.3 185h2v1.6h-2z"/>
  <path d="M305.3 185h2v1.6h-2z"/>
  <path class="st13" d="M307.4 185h2v1.6h-2z"/>
  <path d="M309.4 185h2v1.6h-2z"/>
  <path class="st13" d="M301.3 186.6h2v1.6h-2z"/>
  <path d="M303.3 186.6h2v1.6h-2z"/>
  <path class="st13" d="M305.3 186.6h2v1.6h-2z"/>
  <path d="M307.4 186.6h2v1.6h-2z"/>
  <path class="st13" d="M309.4 186.6h2v1.6h-2zm-8.1 3.3h2v1.6h-2z"/>
  <path d="M303.3 189.9h2v1.6h-2z"/>
  <path class="st13" d="M305.3 189.9h2v1.6h-2z"/>
  <path d="M307.4 189.9h2v1.6h-2z"/>
  <path class="st13" d="M309.4 189.9h2v1.6h-2z"/>
  <path d="M301.3 188.2h2v1.6h-2z"/>
  <path class="st13" d="M303.3 188.2h2v1.6h-2z"/>
  <path d="M305.3 188.2h2v1.6h-2z"/>
  <path class="st13" d="M307.4 188.2h2v1.6h-2z"/>
  <path d="M309.4 188.2h2v1.6h-2zm-8.1 2.5v-6s-.1-.4-.3-.4-.3 1.4-.3 3v19.8s.1.7.3.7.3-.3.3-.7v-16.4z"/>
  <path class="st13" d="M107.3 136h24c2.4 0 4.4-2 4.4-4.4 0-2.4-2-4.4-4.4-4.4h-.4c-.9-2.8-3.5-4.9-6.5-4.9h-.3c-.7-3.9-4.2-6.9-8.3-6.9-4.5 0-8.2 3.5-8.5 7.9-3.5 0-6.3 2.8-6.3 6.3 0 3.6 2.8 6.4 6.3 6.4zm148.1-6.7h13.4c1.7 0 3.1-1.4 3.1-3.1 0-1.5-1-2.7-2.4-3 .1-.3.1-.7.1-1 0-2.5-2-4.5-4.5-4.5-1.8 0-3.3 1-4.1 2.5-.6-.3-1.2-.5-1.9-.5-2 0-3.6 1.5-3.8 3.4h-.1c-1.7 0-3.1 1.4-3.1 3.1.3 1.7 1.6 3.1 3.3 3.1z"/>
  <path class="st11" d="M168.9 216.9c-.1.2-8.5-.4-8.5-.4l.1-.2h-.1v-2.9h-2v1.5l.4 1.6s-8.4.5-8.5.4c1-1.4 3.2-2 4.6-2.2v-1.1c-8.4.6-14.6 2.5-14.6 4.7 0 2.7 8.8 4.9 19.6 4.9s19.6-2.2 19.6-4.9c0-2.4-6.8-4.4-15.8-4.8v1.1c1.6.2 4.1.8 5.2 2.3z"/>
  <path class="st12" d="M168.9 216.9c-.1.2-8.5-.4-8.5-.4l.1-.2h-.1v-2.9h-2v1.5l.4 1.6s-8.4.5-8.5.4c1-1.4 3.2-2 4.6-2.2v-1.1c-8.4.6-14.6 2.5-14.6 4.7 0 2.7 8.8 4.9 19.6 4.9s19.6-2.2 19.6-4.9c0-2.4-6.8-4.4-15.8-4.8v1.1c1.6.2 4.1.8 5.2 2.3z"/>
  <path class="st14" d="M160.4 192.2v24.1h.1l.5-1.8h1.9s.4 0 1 .1v-22.4h-3.5z"/>
  <path class="st14" d="M168.9 216.9c-1.1-1.5-3.6-2.1-5.1-2.3-.6-.1-1-.1-1-.1h-1.9l-.5 1.8-.1.2c.1 0 8.5.5 8.6.4zm-12.4-2.4h1.9l.1.4v-22.7H155v22.4c.9-.1 1.5-.1 1.5-.1z"/>
  <path class="st14" d="M156.5 214.5s-.6 0-1.5.2c-1.5.2-3.6.8-4.6 2.2.1.2 8.5-.4 8.5-.4l-.4-1.6-.1-.4h-1.9z"/>
  <path class="st15" d="M170.93 190.618l3.326-1.085.9 2.757-3.328 1.085z"/>
  <path class="st16" d="M168.8 173.9c-.3.5-.7.8-1.1.9v6.7l3 9.2.3-.1 3.4-1.1.2-.1-5.6-17.1c.1.6.1 1.1-.2 1.6zm.1-1.9c0 .1 0 .1.1.2l-.1-.2z"/>
  <path class="st16" d="M167.7 174.8c.5-.2.9-.5 1.1-.9.3-.5.3-1 .2-1.5 0-.1-.1-.2-.1-.3 0-.1 0-.1-.1-.2-.2-.3-.5-.7-.8-.9-.1-.1-.2-.1-.4-.2v4zm-.2-3.9s-.1 0 0 0h-.1.1z"/>
  <path class="st15" d="M144.027 192.39l.834-2.777 3.356 1.007-.834 2.778z"/>
  <path class="st16" d="M151.3 176.3v-1.4c-.6-.1-1.2-.5-1.5-1.1-.3-.6-.3-1.2 0-1.8l-5.3 17.6.3.1 3.4 1 .2.1 2.9-9.5v-5z"/>
  <path class="st16" d="M149.9 173.7c.3.6.8 1 1.5 1.1v-3.9h.2v-.1c-.2 0-.4.1-.7.2-.4.2-.8.6-1 1-.3.5-.3 1.1 0 1.7zm17.8 2.6l-8.2 5.5-8.2-5.5v10.6h16.4v-5.4"/>
  <path class="st14" d="M151.3 188v4.2h16.4v-5.3h-16.4"/>
  <path class="st17" d="M159.7 175.9h-.2v5.9l8.2-5.6v-5.3h-.3c-.9 2.9-4 5-7.7 5z"/>
  <path class="st18" d="M151.3 171.6v4.6l8.2 5.6v-5.9h-.3c-3.7 0-6.8-2.1-7.7-5h-.2v.7z"/>
  <path class="st15" d="M167.7 164c.8-.1 1.4-.8 1.4-1.6s-.5-1.4-1.2-1.6h-.2v3.2zm-.9-2.2l-.5-.1s-.5-.2-.5-1.7c0-.4-.3-3.7-.3-4.3.1-2.1-2.2-.8-2.8-.6-.9.3-2.1.5-3.5.5v20.3h.5c3.7 0 6.8-2.1 7.7-5 .2-.6.3-1.1.3-1.7v-8.3c-.3.1-.7.3-.9.9zm-5.7 4.1h.8v-2c0-.4.4-.7.8-.7s.8.3.8.7v2h.8c.2 0 .3.1.3.3h-3.8c0-.2.2-.3.3-.3zm-.3-3.8v-.6h3.8v.6h-3.8z"/>
  <path class="st19" d="M151.5 170.8v.1c.9 2.9 4 5 7.7 5v-20.3c-1.4 0-2.5-.3-3.4-.5-.6-.2-2.5-1-2.6.6-.1 1-.3 4-.2 4.3.1 1.1-.2 1.5-.4 1.6.1.2.2.4.2.7 0 .9-.7 1.6-1.6 1.6v5.2c0 .6.1 1.2.3 1.7zm2.3-9.2h3.8v.6h-3.8v-.6zm.2 4.2h.9v-1.9c0-.4.4-.7.8-.7s.8.3.8.7v1.9h.8c.2 0 .3.1.3.3h-3.8c0-.2.1-.3.2-.3z"/>
  <path class="st19" d="M152.8 162.4c0-.2-.1-.5-.2-.7l-.1.1-.5.1c-.3-1-1.1-1-1.1-1-.7.2-1.2.8-1.2 1.6 0 .9.7 1.6 1.6 1.6.8-.1 1.5-.9 1.5-1.7z"/>
  <path class="st20" d="M152 161.8l.5-.1s.1 0 .1-.1c.2-.1.5-.5.4-1.6 0-.4.2-3.4.2-4.3.1-1.6 2-.8 2.6-.6.8.2 2 .5 3.4.5 1.5 0 2.7-.2 3.5-.5.6-.2 2.9-1.5 2.8.6 0 .6.3 4 .3 4.3 0 1.5.5 1.7.5 1.7l.5.1c.2-.6.6-.8.9-.9h.3s.6-3.7.6-5.5c0-2.8-1-4.5-2.4-5.6-2.2-1.7-5.3-1.7-6.7-1.8-2.2.1-9.1.1-9.1 7.3 0 1.7.5 5.4.5 5.5s.8 0 1.1 1z"/>
  <path class="st21" d="M164.7 166.1c0-.2-.1-.3-.3-.3h-3.2c-.2 0-.3.1-.3.3h3.8z"/>
  <path class="st21" d="M163.6 165.9v-2c0-.4-.4-.7-.8-.7s-.8.3-.8.7v2h1.6zm-.8-2c0-.1.1-.1.1-.1.1 0 .1.1.1.1v.6c0 .1-.1.1-.1.1-.1 0-.1-.1-.1-.1v-.6z"/>
  <path class="st13" d="M162.9 164.6c.1 0 .1-.1.1-.1v-.6c0-.1-.1-.1-.1-.1-.1 0-.1.1-.1.1v.6c0 .1 0 .1.1.1z"/>
  <path class="st20" d="M160.8 161.6h3.8v.6h-3.8zm-7 0h3.8v.6h-3.8z"/>
  <path class="st21" d="M157.3 165.8h-.8v.1H155v-.1h-1c-.2 0-.3.1-.3.3h3.8c.1-.2 0-.3-.2-.3z"/>
  <path class="st21" d="M156.6 165.9v-2c0-.4-.4-.7-.8-.7s-.8.3-.8.7v2h1.6zm-.8-2c0-.1.1-.1.1-.1.1 0 .1.1.1.1v.6c0 .1-.1.1-.1.1-.1 0-.1-.1-.1-.1v-.6z"/>
  <path class="st13" d="M155.9 164.6c.1 0 .1-.1.1-.1v-.6c0-.1-.1-.1-.1-.1-.1 0-.1.1-.1.1v.6c0 .1 0 .1.1.1z"/>
</svg>