<svg xmlns="http://www.w3.org/2000/svg" width="770" height="453" viewBox="0 0 770 453">
  <style>
    .st0{fill:#C9F3FF;} .st1{opacity:0.3;fill:#A4A6A9;} .st2{fill:#6B503D;} .st3{fill:#7E9633;} .st4{fill:#6B7C25;} .st5{fill:#6B4322;} .st6{fill:#D1A578;} .st7{fill:#8D6640;} .st8{fill:#666666;} .st9{fill:#BB8F68;} .st10{fill:#996E4F;} .st11{fill:#CAB384;} .st12{opacity:0.2;} .st13{fill:#FFFFFF;} .st14{fill:#3C3C3B;} .st15{fill:#EAE5D0;} .st16{fill:#507B93;} .st17{fill:#BE1622;} .st18{fill:#A31324;} .st19{fill:#E1D8BC;} .st20{fill:#683C11;} .st21{fill:#3B363A;}
  </style>
  <path class="st0" d="M33.2 317.9c0 .3.1.6.1.9 0 .3.1.5.1.7 0 .3.1.6.1.9 0 .2 0 .4.1.6 0 .3 0 .6.1 1v1.9c0 4.1-1 8-2.7 11.5v3h12.9v-16.1c-4.1-.4-7.7-2.1-10.7-4.6v.2zm36.6 11.3v14.3h7.8c.4-5.4.6-10.9.6-15.8-2.3 1-4.8 1.5-7.5 1.5-.3.1-.6.1-.9 0zM9.3 272.6c7.6 0 14.1 10.6 18.4 22.7.7-1.7 1.6-3.3 2.7-4.7-4.2-3-6.9-7.9-6.9-13.4 0-4.2 1.6-8.1 4.2-11-5.7-2.6-9.7-8.3-9.7-15 0-9.1 7.4-16.5 16.5-16.5 1.6 0 3.1.2 4.5.6-1.1-2.2-1.8-4.8-1.8-7.4 0-9.1 7.4-16.4 16.5-16.5.1-11.3 7.9-21.3 19.2-20.4 3 .2 5.9 1.5 9.6 5.5.7.2 1.5.4 2.2.7 0 0 5.4 0 8.5 1.2 2.2-1.2 3.7-1.9 6.4-1.9 8.7 0 15.7 7 15.7 15.6 0 1-.1 2-.3 3 .8-.1 1.7-.2 2.5-.2 9.5 0 17.1 7.7 17.1 17.1 0 1.9-.3 3.8-.9 5.5 7 3.1 11.9 10.1 11.9 18.3 0 7.6-4.2 14.1-10.4 17.5 4.5 4 7.3 9.9 7.3 16.4 0 12.2-9.9 22.1-22.2 22.1h-.1c.1.7.2 1.3.2 2 0 1.8-.4 3.6-1 5.2h7.2v24.5h25.7v-37.8h10.5v-25.5h4.8v25.5h10.5v54h2.1l14.4-44.2 35.5 6.9v-24.2h8.6v25.9l11 2.2v-18.5h8.6V328l8.1 1.6v-28.2h17.7v31.7l23.2 4.5v-34.5h10.4v-6.7H330v-13.7h20.5v-7h17.4v-3c-1.7 0-3.1-1.4-3.1-3.2 0-1.5 1.1-2.8 2.5-3.1 0-.2-1.1-7.5-1.1-10.9 0-14.4 13.6-14.3 18-14.6 3.5.1 11.7.2 15.7 6v-20.8h8.6v23.5h14.7v33h22.6v23.1h24.3V292H496v17.8h12.9v26.8h52.3c-.3-.6-.5-1.3-.5-2.1 0-1.2.5-2.3 1.2-3.1-1.6-.7-2.7-2.3-2.7-4.2 0-2.6 2.1-4.6 4.7-4.6.4 0 .9.1 1.3.2-.3-.6-.5-1.3-.5-2.1 0-2.4 1.9-4.4 4.3-4.6v-33.5h17.9v34.5h.5c2.7 0 4.8 2.2 4.8 4.8 0 .5-.1 1.1-.3 1.6 2 .9 3.4 2.9 3.4 5.2 0 2.1-1.2 4-2.9 4.9.9.8 1.6 1.9 1.9 3.2h4.2v-46.5h17.9v46.5h6.2c-.2-.3-.3-.6-.3-.9 0-1 .8-1.8 1.8-1.8H659v-37.7h20.9v-40.7h17.9v40.7h12.9v-23.1h5.3v-3.7h8.6v3.7h7.7V263h8.6v10.2h6v-17.3h8.6v17.3h7v39.6h7.6V0H0v277.5c2.9-3 6.1-4.9 9.3-4.9zm605.4-35.2h.2c.5-4.5 4.4-8.1 9.1-8.1 1.6 0 3.1.4 4.5 1.2 1.7-3.6 5.5-6.1 9.8-6.1 6 0 10.8 4.8 10.8 10.8 0 .8-.1 1.6-.3 2.4 3.3.8 5.8 3.7 5.8 7.2 0 4.1-3.3 7.4-7.4 7.4h-32.5c-4.1 0-7.4-3.3-7.4-7.4-.1-4 3.3-7.4 7.4-7.4zm-356.4.6c.7-10.6 9.6-19.1 20.4-19.1 10 0 18.3 7.2 20 16.6h.7c7.4 0 13.7 4.9 15.8 11.7h1c5.9 0 10.6 4.8 10.6 10.6 0 5.9-4.8 10.6-10.6 10.6h-57.8c-8.4 0-15.2-6.8-15.2-15.2-.2-8.3 6.6-15.2 15.1-15.2z"/>
  <path class="st0" d="M576 348.9c-.7.3-1.4.4-2.1.4-1.9 0-3.6-1-4.6-2.4-.7.3-1.5.5-2.3.5-3.1 0-5.6-2.5-5.6-5.6 0-1.3.4-2.5 1.2-3.4-.6-.4-1.1-1-1.5-1.7h-52.3v-26.8h-12.9v-17.8H470v13.7h-24.3v-23.1h-22.6v-33h-14.7v-23.5h-8.6V247c1.4 2.1 2.3 4.8 2.3 8.6 0 3.5-1.1 10.9-1.1 10.9h-.2c1.3.3 2.3 1.6 2.3 3.1 0 1.7-1.2 3-2.7 3.2V283c0 1.2-.2 2.4-.6 3.5h.6v.1c.3.1.5.2.7.3.7.4 1.3 1 1.6 1.7l.1.3c.1.2.1.4.2.6l11 33.9-.5.2 1.8 5.4-6.7 2.2-1.8-5.4-.6.2-6-18.3v21.2h-7.6v31h182.1c.9-2.2 1.4-7.3 1.3-11z"/>
  <path class="st1" d="M576 348.9c-.7.3-1.4.4-2.1.4-1.9 0-3.6-1-4.6-2.4-.7.3-1.5.5-2.3.5-3.1 0-5.6-2.5-5.6-5.6 0-1.3.4-2.5 1.2-3.4-.6-.4-1.1-1-1.5-1.7h-52.3v-26.8h-12.9v-17.8H470v13.7h-24.3v-23.1h-22.6v-33h-14.7v-23.5h-8.6V247c1.4 2.1 2.3 4.8 2.3 8.6 0 3.5-1.1 10.9-1.1 10.9h-.2c1.3.3 2.3 1.6 2.3 3.1 0 1.7-1.2 3-2.7 3.2V283c0 1.2-.2 2.4-.6 3.5h.6v.1c.3.1.5.2.7.3.7.4 1.3 1 1.6 1.7l.1.3c.1.2.1.4.2.6l11 33.9-.5.2 1.8 5.4-6.7 2.2-1.8-5.4-.6.2-6-18.3v21.2h-7.6v31h182.1c.9-2.2 1.4-7.3 1.3-11z"/>
  <path class="st0" d="M69.8 343.6v-14.3c-6.4-.3-12.1-3.7-15.5-8.7-2.5 1.2-5.3 1.8-8.3 1.8-.7 0-1.4 0-2.1-.1v16.1H31v-3c-4 8-12 13.6-21.3 14.2v10.1h66c.8-4.6 1.5-10.3 2-16.2h-7.9z"/>
  <path class="st1" d="M69.8 343.6v-14.3c-6.4-.3-12.1-3.7-15.5-8.7-2.5 1.2-5.3 1.8-8.3 1.8-.7 0-1.4 0-2.1-.1v16.1H31v-3c-4 8-12 13.6-21.3 14.2v10.1h66c.8-4.6 1.5-10.3 2-16.2h-7.9z"/>
  <path class="st0" d="M3.6 349.4c-1.2-.2-2.4-.5-3.6-.9v11.2h3.6v-10.3z"/>
  <path class="st1" d="M3.6 349.4c-1.2-.2-2.4-.5-3.6-.9v11.2h3.6v-10.3z"/>
  <path class="st0" d="M368 328.8V307l-5.7 19-.5-.1-1.6 5.5-6.7-2 1.6-5.5-.6-.2 10.5-35.1h.1c.4-.8 1-1.5 1.9-1.9.4-.2.9-.3 1.3-.4-.3-1.1-.5-2.1-.5-3.3v-7.3h-17.4v7h-20.5v13.7h-12.3v6.7h-10.4v34.5l-23.2-4.5v-31.7h-17.7v28.2l-8.1-1.6v-20.1h-8.6v18.5l-11-2.2v-25.9H230v24.2l-35.5-6.9-14.4 44.2h195v-31H368z"/>
  <path class="st1" d="M368 328.8V307l-5.7 19-.5-.1-1.6 5.5-6.7-2 1.6-5.5-.6-.2 10.5-35.1h.1c.4-.8 1-1.5 1.9-1.9.4-.2.9-.3 1.3-.4-.3-1.1-.5-2.1-.5-3.3v-7.3h-17.4v7h-20.5v13.7h-12.3v6.7h-10.4v34.5l-23.2-4.5v-31.7h-17.7v28.2l-8.1-1.6v-20.1h-8.6v18.5l-11-2.2v-25.9H230v24.2l-35.5-6.9-14.4 44.2h195v-31H368z"/>
  <path class="st0" d="M762.4 273.2h-7v-17.3h-8.6v17.3h-6V263h-8.6v10.2h-7.7v-3.7h-8.6v3.7h-5.3v23.1h-12.9v-40.7h-17.9v40.7h-20.9V334h16.5c1 0 1.8.8 1.8 1.8s-.8 1.8-1.8 1.8H624c-.7 0-1.3-.4-1.6-.9h-6.2v-46.5h-17.9v46.5H594c.1.5.2.9.2 1.4 0 3.4-2.8 6.2-6.2 6.2 0 .2.1.4.1.6 0 2.2-1.7 4-3.9 4-1.2 0-2.1-.5-2.9-1.3-.7.2-1.3.3-2 .4-.1 3.7.4 9.4 1.2 11.7h50.3v-7h-7.2c-.7 0-1.3-.6-1.3-1.3s.6-1.3 1.3-1.3h.5c-1 0-1.8-.8-1.8-1.8s.8-1.8 1.8-1.8h51.4c1 0 1.8.8 1.8 1.8s-.8 1.8-1.8 1.8h.5c.7 0 1.3.6 1.3 1.3s-.6 1.3-1.3 1.3h-6.9v7h54.4v-27.3h1.4v2h24.5V350h-24.5v9.7H770v-47h-7.6v-39.5zm-85.2 71c0 1-.8 1.8-1.8 1.8H624c-1 0-1.8-.8-1.8-1.8s.8-1.8 1.8-1.8h51.4c.5 0 1 .2 1.3.5.3.3.5.8.5 1.3zm0-4.2c0 1-.8 1.8-1.8 1.8H624c-1 0-1.8-.8-1.8-1.8s.8-1.8 1.8-1.8h51.4c.5 0 1 .2 1.3.5.3.4.5.8.5 1.3z"/>
  <path class="st1" d="M762.4 273.2h-7v-17.3h-8.6v17.3h-6V263h-8.6v10.2h-7.7v-3.7h-8.6v3.7h-5.3v23.1h-12.9v-40.7h-17.9v40.7h-20.9V334h16.5c1 0 1.8.8 1.8 1.8s-.8 1.8-1.8 1.8H624c-.7 0-1.3-.4-1.6-.9h-6.2v-46.5h-17.9v46.5H594c.1.5.2.9.2 1.4 0 3.4-2.8 6.2-6.2 6.2 0 .2.1.4.1.6 0 2.2-1.7 4-3.9 4-1.2 0-2.1-.5-2.9-1.3-.7.2-1.3.3-2 .4-.1 3.7.4 9.4 1.2 11.7h50.3v-7h-7.2c-.7 0-1.3-.6-1.3-1.3s.6-1.3 1.3-1.3h.5c-1 0-1.8-.8-1.8-1.8s.8-1.8 1.8-1.8h51.4c1 0 1.8.8 1.8 1.8s-.8 1.8-1.8 1.8h.5c.7 0 1.3.6 1.3 1.3s-.6 1.3-1.3 1.3h-6.9v7h54.4v-27.3h1.4v2h24.5V350h-24.5v9.7H770v-47h-7.6v-39.5zm-85.2 71c0 1-.8 1.8-1.8 1.8H624c-1 0-1.8-.8-1.8-1.8s.8-1.8 1.8-1.8h51.4c.5 0 1 .2 1.3.5.3.3.5.8.5 1.3zm0-4.2c0 1-.8 1.8-1.8 1.8H624c-1 0-1.8-.8-1.8-1.8s.8-1.8 1.8-1.8h51.4c.5 0 1 .2 1.3.5.3.4.5.8.5 1.3z"/>
  <path class="st0" d="M649.7 352.8h-14.2v7h28.7v-7"/>
  <path class="st1" d="M649.7 352.8h-14.2v7h28.7v-7"/>
  <path class="st0" d="M574.5 310.4c.8.1 1.7.4 2.7 1.5.2.1.4.1.6.2 0 0 1.5 0 2.4.3.6-.3 1-.5 1.8-.5 2.4 0 4.4 2 4.4 4.4 0 .3 0 .6-.1.8h.2v-34.5h-17.9v33.5h.4c.1-3.1 2.4-6 5.5-5.7z"/>
  <path class="st1" d="M574.5 310.4c.8.1 1.7.4 2.7 1.5.2.1.4.1.6.2 0 0 1.5 0 2.4.3.6-.3 1-.5 1.8-.5 2.4 0 4.4 2 4.4 4.4 0 .3 0 .6-.1.8h.2v-34.5h-17.9v33.5h.4c.1-3.1 2.4-6 5.5-5.7z"/>
  <path class="st0" d="M382.1 328.8h3.9v31h-3.9z"/>
  <path class="st1" d="M382.1 328.8h3.9v31h-3.9z"/>
  <path class="st0" d="M167.6 305.8v-25.5h-4.8v25.5h-10.5v37.8h-25.7v-24.5h-7.2c-2 5.2-7 8.9-13 8.9-4.1 0-7.6-1.8-10.2-4.6-2.4.6-4.8 1.1-7.2 1.4-.3 10.5.8 25.3 2.6 35h86.5v-54h-10.5z"/>
  <path class="st1" d="M167.6 305.8v-25.5h-4.8v25.5h-10.5v37.8h-25.7v-24.5h-7.2c-2 5.2-7 8.9-13 8.9-4.1 0-7.6-1.8-10.2-4.6-2.4.6-4.8 1.1-7.2 1.4-.3 10.5.8 25.3 2.6 35h86.5v-54h-10.5z"/>
  <path class="st2" d="M7.8 349.8c-1.4 0-2.8-.1-4.2-.3v10.4h6v-10.1c-.6-.1-1.2 0-1.8 0z"/>
  <path class="st3" d="M33.5 321.2c0-.2 0-.4-.1-.6.1.1.1.4.1.6zm-.1-1.6c0-.2-.1-.5-.1-.7.1.2.1.5.1.7zm-.2-1.9zm.4 4.9v-.5.5zM7.8 349.8c-.8 0-1.6 0-2.4-.1.5-1 .9-2.1 1.2-3.1 1.5-3.4 2.4-7 2.7-11 .5-7.1-5.1-15.3-2-22.4 1-2.2 2.8-4.1 4.1-6.2 1.9-3.1 2.3-6.7 2.2-10.2-.1-3.3-1-6.6-1.6-9.8-.8-4.3 0-8.8.1-13.1v-.8c6.4 2.2 11.8 11.6 15.6 22.2-4.3-12.1-10.8-22.7-18.4-22.7-3.2 0-6.3 1.9-9.3 4.9v71.1c1.2.4 2.4.7 3.6.9 1.4.2 2.8.3 4.2.3z"/>
  <path class="st4" d="M31 335.5c1.7-3.5 2.7-7.3 2.7-11.5v-1.9c0-.3 0-.6-.1-1 0-.2 0-.4-.1-.6 0-.3-.1-.6-.1-.9 0-.2-.1-.5-.1-.7 0-.3-.1-.6-.1-.9v-.2c-4.3-3.6-7-9-7-15 0-2.6.5-5.1 1.5-7.4-3.8-10.5-9.2-20-15.6-22.2v.8c-.1 4.3-.9 8.8-.1 13.1.6 3.2 1.6 6.5 1.6 9.8.1 3.5-.3 7.1-2.2 10.2-1.3 2.1-3.1 3.9-4.1 6.2-3.1 7.1 2.4 15.3 2 22.4-.3 4-1.2 7.6-2.7 11-.4 1.1-.8 2.1-1.2 3.1.8.1 1.6.1 2.4.1.6 0 1.2 0 1.8-.1 9.4-.7 17.4-6.4 21.4-14.3z"/>
  <path class="st5" d="M89.1 324.8c-1.7.2-3.5.3-5.3.3h.9c-.6 0-1.2 0-1.8.1-1.4 1.1-3 2-4.7 2.7 0 4.9-.2 10.4-.6 15.8-.4 5.9-1.1 11.6-2 16.2h16.1c-1.8-9.8-2.9-24.7-2.6-35.1z"/>
  <path class="st3" d="M33.2 317.7c3 2.5 6.6 4.2 10.7 4.6.7.1 1.4.1 2.1.1 3 0 5.8-.7 8.3-1.8 3.4 5 9 8.4 15.5 8.7h.9c2.7 0 5.2-.5 7.5-1.5 1.7-.7 3.3-1.6 4.7-2.7.6 0 1.2 0 1.8-.1V197.2c-.7-.3-1.5-.5-2.2-.7-3.7-3.9-6.7-5.2-9.6-5.5-11.3-.9-19.1 9.1-19.2 20.4-9.1 0-16.5 7.4-16.5 16.5 0 2.7.7 5.2 1.8 7.4-1.4-.4-2.9-.6-4.5-.6-9.1 0-16.5 7.4-16.5 16.5 0 6.7 4 12.4 9.7 15-2.6 2.9-4.2 6.8-4.2 11 0 5.5 2.7 10.4 6.9 13.4-1.1 1.4-2 3-2.7 4.7-.9 2.3-1.5 4.8-1.5 7.4 0 6 2.7 11.4 7 15z"/>
  <path class="st4" d="M84.7 325l-.9.1c1.9 0 3.6-.1 5.3-.3 2.4-.3 4.7-.7 7.2-1.4 2.6 2.8 6 4.6 10.2 4.6 6 0 11-3.7 13-8.9.6-1.6 1-3.4 1-5.2 0-.7-.1-1.4-.2-2h.1c12.2 0 22.2-9.9 22.2-22.1 0-6.5-2.8-12.3-7.3-16.4 6.2-3.4 10.4-10 10.4-17.5 0-8.2-4.9-15.2-11.9-18.3.6-1.7.9-3.6.9-5.5 0-9.5-7.7-17.1-17.1-17.1-.9 0-1.7.1-2.5.2.2-1 .3-2 .3-3 0-8.6-7-15.6-15.7-15.6-2.7 0-4.2.7-6.4 1.9-3.1-1.2-8.5-1.2-8.5-1.2V325z"/>
  <path class="st5" d="M579.1 348.1c-.4 0-.8.1-1.3.1h-.2.2-.5c-.4.3-.9.6-1.3.8 0 3.7-.4 8.8-1.2 10.9h5.4c-.7-2.4-1.2-8.1-1.1-11.8z"/>
  <path class="st3" d="M562.6 338.5c-.7.9-1.2 2.1-1.2 3.4 0 3.1 2.5 5.6 5.6 5.6.8 0 1.6-.2 2.3-.5 1 1.5 2.7 2.4 4.6 2.4.8 0 1.5-.2 2.1-.4.5-.2.9-.4 1.3-.8h.5v-36c-.2-.1-.4-.1-.6-.2-1.1-1.1-1.9-1.5-2.7-1.5-3.2-.3-5.4 2.6-5.4 5.8h-.4c-2.4.2-4.3 2.2-4.3 4.6 0 .8.2 1.5.5 2.1-.4-.1-.8-.2-1.3-.2-2.6 0-4.7 2.1-4.7 4.6 0 1.9 1.1 3.5 2.7 4.2-.7.8-1.2 1.9-1.2 3.1 0 .8.2 1.5.5 2.1.6.6 1.1 1.2 1.7 1.7z"/>
  <path class="st4" d="M586.5 316.3c0-2.4-2-4.4-4.4-4.4-.8 0-1.2.2-1.8.5-.9-.3-2.4-.3-2.4-.3v36c.4 0 .9 0 1.3-.1.7-.1 1.3-.2 2-.4.7.8 1.7 1.3 2.9 1.3 2.2 0 3.9-1.8 3.9-4 0-.2 0-.4-.1-.6 3.5 0 6.2-2.8 6.2-6.2 0-.5-.1-1-.2-1.4-.3-1.2-1-2.3-1.9-3.2 1.7-1 2.9-2.8 2.9-4.9 0-2.3-1.4-4.3-3.4-5.2.2-.5.3-1 .3-1.6 0-2.7-2.2-4.8-4.8-4.8h-.7c.2-.1.2-.4.2-.7zm-8.6 31.9z"/>
  <path class="st6" d="M624 337.7h25.7V334H624c-1 0-1.8.8-1.8 1.8 0 .3.1.6.3.9.2.6.8 1 1.5 1zm0 .5c-1 0-1.8.8-1.8 1.8s.8 1.8 1.8 1.8h25.7v-3.6H624zm51.4 3.6c1 0 1.8-.8 1.8-1.8 0 1-.8 1.8-1.8 1.8zm1.8-1.8c0-.5-.2-1-.5-1.3.3.4.5.8.5 1.3zm-1.8-1.8c.5 0 1 .2 1.3.5-.3-.3-.8-.5-1.3-.5zm-51.4 4.2c-1 0-1.8.8-1.8 1.8s.8 1.8 1.8 1.8h25.7v-3.6H624zm51.4 3.6c1 0 1.8-.8 1.8-1.8 0 1-.8 1.8-1.8 1.8zm0-3.6c.5 0 1 .2 1.3.5-.3-.3-.8-.5-1.3-.5zm1.8 1.8c0-.5-.2-1-.5-1.3.3.3.5.8.5 1.3zm-27.5 6v-3.6H624c-1 0-1.8.8-1.8 1.8s.8 1.8 1.8 1.8h25.7zm27.5-1.9c0-1-.8-1.8-1.8-1.8 1 0 1.8.8 1.8 1.8zm-1.8 1.9c1 0 1.8-.8 1.8-1.8 0 1-.8 1.8-1.8 1.8z"/>
  <path class="st7" d="M649.7 350.2v2.6h26.2c.7 0 1.3-.6 1.3-1.3s-.6-1.3-1.3-1.3h-26.2z"/>
  <path class="st8" d="M630.6 352.8h4.8v7h-4.8zm33.6 0h4.8v7h-4.8z"/>
  <path class="st9" d="M649.7 337.7h25.7c1 0 1.8-.8 1.8-1.8s-.8-1.8-1.8-1.8h-25.7v3.6zm25.7.5h-25.7v3.6h25.7c1 0 1.8-.8 1.8-1.8 0-.5-.2-1-.5-1.3s-.8-.5-1.3-.5zm0 4.2h-25.7v3.6h25.7c1 0 1.8-.8 1.8-1.8 0-.5-.2-1-.5-1.3s-.8-.5-1.3-.5zm0 7.8c1 0 1.8-.8 1.8-1.8s-.8-1.8-1.8-1.8h-25.7v3.6h25.7z"/>
  <path class="st10" d="M649.7 352.8v-2.6h-26.2c-.7 0-1.3.6-1.3 1.3s.6 1.3 1.3 1.3h26.2z"/>
  <path class="st11" d="M770 359.8h-45.1v26.3c7 .1 12.6 1.6 12.6 3.4 0 1.9-6.1 3.4-13.7 3.4s-13.7-1.5-13.7-3.4 5.9-3.4 13.3-3.4v-26.3H392.8v8.9c17.4 1 30.4 4.8 30.4 9.5 0 5.4-17.4 9.7-38.8 9.7s-38.8-4.3-38.8-9.7c0-4.6 12.7-8.4 29.7-9.4v-8.9H0V453h770v-93.2z"/>
  <path class="st11" d="M382.1 368.4h3.9v-8.6h-3.9v8.6zm20.8 9.5c-.1.3-16.8-.7-16.8-.7l.1-.4h-.2v-8.3h-3.9v5.5l.8 3.2s-16.7 1.1-16.8.7c2-2.8 6.3-3.9 9.2-4.4v-4.8c-17 1-29.7 4.9-29.7 9.4 0 5.4 17.4 9.7 38.8 9.7s38.8-4.3 38.8-9.7c0-4.6-13-8.5-30.4-9.5v4.7c2.9.4 7.9 1.5 10.1 4.6z"/>
  <path class="st12" d="M402.9 377.9c-.1.3-16.8-.7-16.8-.7l.1-.4h-.2v-8.3h-3.9v5.5l.8 3.2s-16.7 1.1-16.8.7c2-2.8 6.3-3.9 9.2-4.4v-4.8c-17 1-29.7 4.9-29.7 9.4 0 5.4 17.4 9.7 38.8 9.7s38.8-4.3 38.8-9.7c0-4.6-13-8.5-30.4-9.5v4.7c2.9.4 7.9 1.5 10.1 4.6z"/>
  <path class="st11" d="M723.5 389.5v-3.4c-7.4 0-13.3 1.6-13.3 3.4 0 1.9 6.1 3.4 13.7 3.4s13.7-1.5 13.7-3.4c0-1.8-5.5-3.3-12.6-3.4v3.4h-1.5z"/>
  <path class="st12" d="M723.5 389.5v-3.4c-7.4 0-13.3 1.6-13.3 3.4 0 1.9 6.1 3.4 13.7 3.4s13.7-1.5 13.7-3.4c0-1.8-5.5-3.3-12.6-3.4v3.4h-1.5z"/>
  <path d="M724.9 334.4h4.9v3.9h-4.9z"/>
  <path class="st13" d="M729.8 334.4h4.9v3.9h-4.9z"/>
  <path d="M734.7 334.4h4.9v3.9h-4.9z"/>
  <path class="st13" d="M739.6 334.4h4.9v3.9h-4.9z"/>
  <path d="M744.5 334.4h4.9v3.9h-4.9z"/>
  <path class="st13" d="M724.9 338.3h4.9v3.9h-4.9z"/>
  <path d="M729.8 338.3h4.9v3.9h-4.9z"/>
  <path class="st13" d="M734.7 338.3h4.9v3.9h-4.9z"/>
  <path d="M739.6 338.3h4.9v3.9h-4.9z"/>
  <path class="st13" d="M744.5 338.3h4.9v3.9h-4.9zm-19.6 7.9h4.9v3.9h-4.9z"/>
  <path d="M729.8 346.2h4.9v3.9h-4.9z"/>
  <path class="st13" d="M734.7 346.2h4.9v3.9h-4.9z"/>
  <path d="M739.6 346.2h4.9v3.9h-4.9z"/>
  <path class="st13" d="M744.5 346.2h4.9v3.9h-4.9z"/>
  <path d="M724.9 342.3h4.9v3.9h-4.9z"/>
  <path class="st13" d="M729.8 342.3h4.9v3.9h-4.9z"/>
  <path d="M734.7 342.3h4.9v3.9h-4.9z"/>
  <path class="st13" d="M739.6 342.3h4.9v3.9h-4.9z"/>
  <path d="M744.5 342.3h4.9v3.9h-4.9zm-19.6 5.8v-14.6s-.3-1-.7-1-.7 1.4-.7 3v52.3s.3 1.7.7 1.7.7-.8.7-1.7v-39.7z"/>
  <path class="st13" d="M258.3 268.5h57.8c5.9 0 10.6-4.8 10.6-10.6 0-5.9-4.8-10.6-10.6-10.6h-1c-2-6.8-8.3-11.7-15.8-11.7h-.7c-1.8-9.5-10.1-16.6-20-16.6-10.8 0-19.7 8.4-20.3 19.1-8.4 0-15.2 6.8-15.2 15.2-.1 8.4 6.7 15.2 15.2 15.2zm356.4-16.2h32.4c4.1 0 7.4-3.3 7.4-7.4 0-3.5-2.5-6.5-5.8-7.2.2-.8.3-1.6.3-2.4 0-6-4.9-10.8-10.8-10.8-4.3 0-8 2.5-9.8 6.1-1.3-.7-2.8-1.2-4.5-1.2-4.7 0-8.6 3.5-9.1 8.1h-.2c-4.1 0-7.4 3.3-7.4 7.5 0 4 3.4 7.3 7.5 7.3z"/>
  <path class="st14" d="M386 328.8v47.9h.1l.9-3.6h3.7s.8 0 2.1.2v-44.6H386z"/>
  <path class="st14" d="M402.9 377.9c-2.2-3-7.2-4.1-10-4.5-1.2-.2-2.1-.2-2.1-.2h-3.7l-.9 3.6-.1.4c-.1-.1 16.6 1 16.8.7zm-24.7-4.8h3.7l.2.8v-45.1h-6.8v44.7c1.7-.3 2.9-.4 2.9-.4z"/>
  <path class="st14" d="M378.2 373.1s-1.2.1-2.9.3c-2.9.5-7.2 1.6-9.2 4.4.1.3 16.8-.7 16.8-.7l-.8-3.2-.2-.8h-3.7z"/>
  <path class="st15" d="M406.974 325.71l6.655-2.17 1.764 5.42-6.655 2.17z"/>
  <path class="st16" d="M402.7 292.5c-.5.9-1.3 1.5-2.3 1.8v13.3l6 18.3.6-.2 6.7-2.2.5-.2-11-33.9c.2 1.1 0 2.2-.5 3.1zm.1-3.9c0 .1.1.2.1.3l-.1-.3zm-2.7-2.1h-.2.2z"/>
  <path class="st16" d="M400.4 294.3c.9-.3 1.8-.9 2.3-1.8.5-.9.6-2 .4-2.9 0-.2-.1-.4-.2-.6 0-.1-.1-.2-.1-.3-.3-.7-.9-1.3-1.6-1.7-.2-.1-.5-.2-.7-.3v7.6z"/>
  <path class="st15" d="M353.428 329.19l1.64-5.46 6.704 2.014-1.64 5.46z"/>
  <path class="st16" d="M368 297.1v-2.8c-1.2-.2-2.3-1-2.9-2.2-.6-1.2-.5-2.4 0-3.5h-.1l-10.5 35.1.6.2 6.7 2 .5.1 5.7-19v-9.9z"/>
  <path class="st16" d="M365.1 292.1c.6 1.2 1.7 2 2.9 2.2v-7.8h.4c0-.1 0-.1-.1-.2-.4 0-.9.2-1.3.4-.9.4-1.5 1.1-1.9 1.9-.5 1.1-.6 2.3 0 3.5zm35.3 5l-16.2 11.1-16.2-11.1v21.2h32.4v-10.7"/>
  <path class="st14" d="M368 320.4v8.4h32.4v-10.5H368"/>
  <path class="st17" d="M384.5 296.4h-.3v11.8l16.2-11v-10.7h-.6c-1.8 5.7-7.9 9.9-15.3 9.9z"/>
  <path class="st18" d="M368 288v9.1l16.2 11v-11.8h-.5c-7.3 0-13.5-4.2-15.4-9.9h-.3v1.6z"/>
  <path class="st15" d="M400.4 272.7c1.5-.2 2.7-1.5 2.7-3.2 0-1.5-1-2.7-2.3-3.1-.1 0-.2 0-.4.1v6.2z"/>
  <path class="st15" d="M398.7 268.4l-1-.1s-1-.4-1-3.4c0-.7-.6-7.4-.5-8.6.2-4.2-4.4-1.6-5.5-1.2-1.7.5-4.1 1-7 1v40.3h.8c7.3 0 13.5-4.2 15.4-9.9.4-1.1.6-2.3.6-3.5v-16.4c-.6.2-1.4.6-1.8 1.8zm-11.8-.4h7.6v1.1h-7.6V268zm.5 8.5h1.7v-4c0-.8.7-1.5 1.6-1.5.9 0 1.6.7 1.6 1.5v4h1.7c.3 0 .5.2.5.5h-7.6c0-.2.2-.5.5-.5z"/>
  <path class="st19" d="M368.3 286.3c0 .1 0 .1.1.2 1.8 5.7 8 9.9 15.4 9.9V256c-2.8 0-5-.5-6.7-1-1.3-.3-5-2-5.2 1.2-.1 1.9-.5 7.9-.5 8.6.2 2.2-.4 3-.7 3.3.2.4.3.9.3 1.4 0 1.7-1.4 3.2-3.1 3.2V283c-.1 1.1.1 2.2.4 3.3zm11.6-9.9c.3 0 .5.2.5.5h-7.6c0-.3.2-.5.5-.5h1.9v-3.7c0-.8.7-1.5 1.6-1.5.9 0 1.6.7 1.6 1.5v3.7h1.5zm-7.1-8.4h7.6v1.1h-7.6V268z"/>
  <path class="st19" d="M370.9 269.6c0-.5-.1-.9-.3-1.4-.1.1-.2.1-.2.1l-1 .1c-.6-1.9-2.2-2-2.2-2-1.4.3-2.5 1.6-2.5 3.1 0 1.7 1.4 3.2 3.1 3.2 1.7 0 3.1-1.4 3.1-3.1z"/>
  <path class="st20" d="M369.4 268.4l1-.1s.1 0 .2-.1c.3-.3.9-1 .7-3.3-.1-.7.4-6.7.5-8.6.2-3.2 4-1.6 5.2-1.2 1.6.4 3.9 1 6.7 1 2.9 0 5.3-.4 7-1 1.1-.3 5.7-2.9 5.5 1.2-.1 1.2.5 7.9.5 8.6 0 3 1 3.4 1 3.4l1 .1c.4-1.2 1.2-1.7 1.7-1.8.2-.1.3-.1.4-.1h.2s1.1-7.4 1.1-10.9c0-3.7-.9-6.5-2.3-8.6-4-5.8-12.2-5.9-15.7-6-4.4.3-18 .2-18 14.6 0 3.4 1 10.7 1.1 10.9s1.6 0 2.2 1.9z"/>
  <path class="st21" d="M394 276.5h-6.6c-.3 0-.5.2-.5.5h7.6c0-.2-.2-.5-.5-.5z"/>
  <path class="st21" d="M392.3 276.6v-4c0-.8-.7-1.5-1.6-1.5-.9 0-1.6.7-1.6 1.5v4h3.2zm-1.6-4c0-.1.1-.2.2-.2s.2.1.2.2v1.2c0 .1-.1.2-.2.2s-.2-.1-.2-.2v-1.2z"/>
  <path class="st13" d="M390.9 274c.1 0 .2-.1.2-.2v-1.2c0-.1-.1-.2-.2-.2s-.2.1-.2.2v1.2c0 .1.1.2.2.2z"/>
  <path class="st20" d="M386.9 268h7.6v1.1h-7.6zm-14.1 0h7.6v1.1h-7.6z"/>
  <path class="st21" d="M375.2 276.6v-.3h-1.9c-.3 0-.5.2-.5.5h7.6c0-.3-.2-.5-.5-.5h-1.5v.3h-3.2z"/>
  <path class="st21" d="M378.4 272.6c0-.8-.7-1.5-1.6-1.5-.9 0-1.6.7-1.6 1.5v4h3.2v-4zm-1.6.1c0-.1.1-.2.2-.2s.2.1.2.2v1.2c0 .1-.1.2-.2.2s-.2-.1-.2-.2v-1.2z"/>
  <path class="st13" d="M377 274.1c.1 0 .2-.1.2-.2v-1.2c0-.1-.1-.2-.2-.2s-.2.1-.2.2v1.2c0 .1.1.2.2.2z"/>
</svg>