<svg xmlns="http://www.w3.org/2000/svg" width="320" height="412" viewBox="0 0 320 412">
  <style>
    .st0{fill:#C9F3FF;} .st1{fill:none;} .st2{opacity:0.34;fill:#A4A6A9;} .st3{fill:#DCB848;} .st4{fill:#88B74A;} .st5{fill:#95C95B;} .st6{fill:#BE9734;} .st7{fill:#7E9633;} .st8{fill:#6B7C25;} .st9{fill:#CAB384;} .st10{fill:none;stroke:#FFFFFF;stroke-width:5.1711;stroke-miterlimit:10;} .st11{fill:#FFFFFF;} .st12{fill:#FF5A1F;} .st13{fill:#FFC034;} .st14{fill:#83DEEF;} .st15{fill:#454C53;} .st16{fill:#E7F3E8;} .st17{fill:#666666;} .st18{fill:none;stroke:#73C2AE;stroke-miterlimit:10;} .st19{fill:#F15A24;} .st20{font-family:&apos;RobotoSlab-Bold&apos;;} .st21{font-size:7.6538px;} .st22{opacity:0.1;} .st23{fill:#3C3C3B;} .st24{fill:#EAE5D0;} .st25{fill:#507B93;} .st26{fill:#BE1622;} .st27{fill:#A31324;} .st28{fill:#E1D8BC;} .st29{fill:#683C11;} .st30{fill:#3B363A;}
  </style>
  <path class="st0" d="M0 0h320v403H0z"/>
  <path class="st1" d="M1 351v-22h1v-16h4v16h3v-16h3v-7h4v7h2v-5h4v5h3v-2h3v2h2v9h6v-17h7v17h9v17h17v-19h7v19h5v-23h7v23h25v-11h5v-8h11v6h9v-10h10v-13h15v11h14v2h9v6h5v3h4v13.9l9-1.8V324h8v11.7l3-.7v-8h3v7.3l5-.9V323h3v9.8l14.9-2.9 7.1 20.7V326h4v-10h2v10h4v15h11v-10h17v10h6v-12h10v10h6v-10h3v10h2v-13h7v-53H0v78"/>
  <path class="st2" d="M313 339h-2v-10h-3v10h-6v-10h-10v12h-6v-10h-17v10h-11v-15h-4v-10h-2v10h-4v24.6l-7.1-20.7-14.9 2.9V323h-3v10.4l-5 .9V327h-3v8l-3 .7V324h-8v13.1l-9 1.8V325h-4v-3h-5v-6h-9v-2h-14v-11h-15v13h-10v10h-9v-6h-11v8h-5v11H88v-23h-7v23h-5v-19h-7v19H52v-17h-9v-17h-7v17h-6v-9h-2v-2h-3v2h-3v-5h-4v5h-2v-7h-4v7H9v16H6v-16H2v16H1v22H0v1h320v-26h-7"/>
  <g id="Tree_2_">
    <path class="st3" d="M37.2 352.5h-3.8c.7-1.5 1.1-6.4.6-7.8h2.5c-.4 1.4 0 6.3.7 7.8z"/>
    <path class="st4" d="M46.1 335.2c0 6-4.8 10.8-10.8 10.8-6 0-10.8-4.8-10.8-10.8 0-6 5.4-21.5 11.4-21.5s10.2 15.5 10.2 21.5z"/>
    <path class="st5" d="M37.1 313.9v.4c0 1.8-.4 3.7 0 5.5.3 1.3.7 2.7.7 4.1 0 1.5-.1 3-.9 4.3-.5.9-1.3 1.7-1.7 2.6-1.3 3 1 6.4.8 9.4-.1 1.7-.5 3.2-1.1 4.6-.2.4-.3.9-.5 1.3.3 0 .7.1 1 .1 6 0 10.8-4.8 10.8-10.8-.1-5.8-3.7-19.7-9.1-21.5z"/>
  </g>
  <g id="Tree_1_">
    <path class="st6" d="M21 352.5h-5.6c1.1-2.8 1.6-12.1.9-14.8H20c-.7 2.7 0 12 1 14.8z"/>
    <path class="st7" d="M32.4 329.3c0 7.8-6.4 14.2-14.2 14.2-7.8 0-14.2-6.4-14.2-14.2 0-7.8 7.2-28.3 15-28.3s13.4 20.5 13.4 28.3z"/>
    <path class="st8" d="M20.6 301.3v.5c-.1 2.4-.5 4.8 0 7.2.3 1.7.9 3.6.9 5.4 0 1.9-.2 3.9-1.2 5.6-.7 1.1-1.7 2.2-2.2 3.4-1.7 3.9 1.3 8.4 1.1 12.4-.1 2.2-.7 4.2-1.5 6.1-.2.6-.4 1.2-.7 1.7.4 0 .9.1 1.3.1 7.8 0 14.2-6.4 14.2-14.2-.1-7.5-4.9-25.8-11.9-28.2z"/>
  </g>
  <g id="Bush_2_">
    <path class="st4" d="M47.7 353h22.2c1.1-2.2 1.3-4 .5-4.5-.3-.2-.7-.4-1.2-.3 0-1.2-.3-2.3-1-2.6-.8-.3-2 .3-2.9 1.5-.2-3.6-1.9-6.4-4.1-6.4-1.7 0-3.2 1.8-3.8 4.3-.7-1.3-1.7-2.1-2.9-2.1-1.7 0-3.2 1.8-3.6 4.3-.7-1-1.6-1.5-2.4-1.2-1.3.4-1.8 3.1-1.1 5.7.1.3.2.2.3 1.3z"/>
    <path class="st5" d="M70.4 348.5c-.3-.2-.7-.4-1.2-.3 0-1.2-.3-2.3-1-2.6-.8-.3-2 .3-2.9 1.5-.2-3.6-2.2-6.4-4.3-6.4-.6 0-1 .2-2 .6V353h10.9c1.1-2.2 1.3-4 .5-4.5z"/>
  </g>
  <g id="Bush_1_">
    <path class="st7" d="M84.6 353c1.6-2.2 2.1-5 .9-5.9-.8-.6-2.2-.5-3.5.4.7-2.5.3-4.8-1.1-5.5-.9-.5-2.2-.3-3.4.6-.7-3.5-2.4-6-4.3-6-2.5 0-4.5 3.9-4.6 8.8-.8-.8-1.7-1.1-2.5-.8-1.1.4-1.6 2-1.4 3.9-1.2-.1-2.2.5-2.6 1.2-.5.8-.3 2.3.5 3.4h22z"/>
    <path class="st8" d="M85.5 347.1c-.8-.6-2.2-.5-3.5.4.7-2.5.3-4.8-1.1-5.5-.9-.5-2.4-.3-3.6.6-.6-3.3-2.3-5.8-4.3-6V353h11.6c1.6-2.2 2-5 .9-5.9z"/>
  </g>
  <path id="Ground_1_" class="st9" d="M0 352h320v60H0z"/>
  <g id="Airplane_1_">
    <path class="st10" d="M227.8 36.9l.8 2.9"/>
    <path class="st11" d="M242.5 34.4c-.5-3.6-.1-9.2.3-10.8 0 0 .7 8.5.1 11"/>
    <path class="st11" d="M242.4 34.5c-.3 3.7.5 9.2 1.1 10.8 0 0 .1-8.5-.7-11"/>
    <path class="st11" d="M235.2 31.3s3.5.5 4.8.7c1.8.2 3.7 1.1 2.6 3.3-1.1 2.3-4.4 3.1-9.7 2.8-5.3-.3-28.9-4.3-28.9-4.3v-2l-1.4-5.8h3.1l5 4.8 11.1.2c.3-1.4.6-2.2 1.3-3.9.4-.9 1.6-.8 4.6-.8 3 0 6-.3 6.4 1 .3 1.1 1.1 4 1.1 4z"/>
    <path class="st12" d="M235.2 31.2c-.2-.6-.9-2.9-1.2-3.9-.4-1.3-3.4-1-6.4-1-1.7 0-2.8 0-3.5.1v4.8h11.1z"/>
    <path class="st13" d="M207.1 27.7l-1.5-1.4h-3l.5 1.4zm35 8.4c.2-.2.4-.5.5-.8.1-.1.1-.2.1-.3h-31c2 .3 4.3.7 6.6 1.1h23.8zm.8-1.9c0-.5-.2-.9-.5-1.2h-37.8v.8s.9.2 2.4.4h35.9z"/>
    <path class="st12" d="M242.2 32.7s-.9 1.5.2 3.1c0 0 1.3-.5 1.3-1.6s-1.5-1.5-1.5-1.5z"/>
    <path class="st14" d="M233.2 30H225v-2h7.6-.1z"/>
    <circle class="st15" cx="228.6" cy="40.6" r="2"/>
    <circle class="st11" cx="228.6" cy="40.6" r="1.1"/>
    <circle class="st15" cx="238.4" cy="39.4" r="1.4"/>
    <circle class="st11" cx="238.4" cy="39.4" r=".8"/>
    <path class="st16" d="M238.7 26.6c.4 0 .7-.3.7-.7 0-.4-.3-.7-.7-.7l-21.9.4c-.4 0-.7.3-.7.7l22.6.3z"/>
    <path class="st14" d="M153.5 32.8h51.2V34h-51.2z"/>
    <path class="st14" d="M147.542 28.145l.848-.85 5.798 5.8-.848.848z"/>
    <path class="st14" d="M148.227 39.323l-.848-.85 5.792-5.797.85.85z"/>
    <path class="st17" d="M147.7 44.3h-.2c-.3 0-.5-.2-.5-.5V23c0-.3.2-.5.5-.5h.2c.3 0 .5.2.5.5v20.8c0 .3-.3.5-.5.5z"/>
    <path class="st11" d="M76 42c14-1 28-1 42 1 10 0 19 1 29-1V23c-20 5-40-3-61-1-3 1-7 1-10 1 4 6 3 13 0 19z"/>
    <path class="st18" d="M76 25c21-3 41 3 62 2 3 0 6-1 9-2"/>
    <path class="st1" d="M76.3 35.1c7.7-.6 15.3-1.8 23.6-1.2 14.1 1.2 27.1 4.1 41.2 2.4 1.8-.6 4.1-.6 5.9-1.2"/>
    <text transform="rotate(-4.154 515.184 -1149.5)">
      <tspan x="0" y="0" class="st19 st20 st21">W</tspan><tspan x="7.3" y="0" class="st19 st20 st21" rotate="3.2">e</tspan><tspan x="11.3" y=".3" class="st19 st20 st21" rotate="5.7">l</tspan><tspan x="13.7" y=".5" class="st19 st20 st21" rotate="7.9">l</tspan><tspan x="16.1" y=".9" class="st19 st20 st21" rotate="9.5"> </tspan><tspan x="17.9" y="1.1" class="st19 st20 st21" rotate="10.3">d</tspan><tspan x="22.3" y="2" class="st19 st20 st21" rotate="11">o</tspan><tspan x="26.5" y="2.8" class="st19 st20 st21" rotate="11">n</tspan><tspan x="31.3" y="3.7" class="st19 st20 st21" rotate="10.4">e</tspan><tspan x="35.3" y="4.4" class="st19 st20 st21" rotate="9.6"> </tspan><tspan x="37.2" y="4.8" class="st19 st20 st21" rotate="8.3">y</tspan><tspan x="41.8" y="5.4" class="st19 st20 st21" rotate="6">o</tspan><tspan x="46.2" y="5.9" class="st19 st20 st21" rotate="3">u</tspan><tspan x="51.1" y="6.1" class="st19 st20 st21" rotate=".4">!</tspan>
    </text>
    <path class="st18" d="M76 40c10-1 19-2 29-1 14 3 28 3 42 1"/>
  </g>
  <g id="Derek_2_">
    <ellipse id="Shadow_4_" class="st22" cx="126.8" cy="363.1" rx="29" ry="5.5"/>
  </g>
  <g id="Flag_1_">
    <ellipse id="Shadow_3_" class="st22" cx="183.9" cy="363.1" rx="22.1" ry="5.5"/>
    <path d="M185 252.5h9.9v7.9H185z"/>
    <path class="st11" d="M194.9 252.5h9.9v7.9h-9.9z"/>
    <path d="M204.8 252.5h9.9v7.9h-9.9z"/>
    <path class="st11" d="M214.7 252.5h9.9v7.9h-9.9z"/>
    <path d="M224.6 252.5h9.9v7.9h-9.9z"/>
    <path class="st11" d="M185 260.4h9.9v7.9H185z"/>
    <path d="M194.9 260.4h9.9v7.9h-9.9z"/>
    <path class="st11" d="M204.8 260.4h9.9v7.9h-9.9z"/>
    <path d="M214.7 260.4h9.9v7.9h-9.9z"/>
    <path class="st11" d="M224.6 260.4h9.9v7.9h-9.9zM185 276.3h9.9v7.9H185z"/>
    <path d="M194.9 276.3h9.9v7.9h-9.9z"/>
    <path class="st11" d="M204.8 276.3h9.9v7.9h-9.9z"/>
    <path d="M214.7 276.3h9.9v7.9h-9.9z"/>
    <path class="st11" d="M224.6 276.3h9.9v7.9h-9.9z"/>
    <path d="M185 268.3h9.9v7.9H185z"/>
    <path class="st11" d="M194.9 268.3h9.9v7.9h-9.9z"/>
    <path d="M204.8 268.3h9.9v7.9h-9.9z"/>
    <path class="st11" d="M214.7 268.3h9.9v7.9h-9.9z"/>
    <path d="M224.6 268.3h9.9v7.9h-9.9zM185 360.6c0 1.6-.6 3-1.4 3-.8 0-1.4-1.4-1.4-3v-109c0-1.7.6-3 1.4-3 .8 0 1.4 1.3 1.4 3v109z"/>
  </g>
  <path class="st23" d="M128.4 311.7h6.4v50.1h-6.4z"/>
  <path class="st23" d="M144.3 362.9c-3-4.1-11.5-4.5-11.5-4.5h-3.5l-1 3.8c.1 0 15.9 1 16 .7zm-26.1-51.2h6.4v50.1h-6.4z"/>
  <path class="st23" d="M109.5 362.9c3-4.1 11.5-4.5 11.5-4.5h3.5l1 3.8c-.1 0-15.9 1-16 .7z"/>
  <path class="st24" d="M139.7 273.903l15.768-31.024 5.973 3.03-15.762 31.024z"/>
  <path class="st25" d="M136.813 278.51l15.767-31.024 6.865 3.49L143.677 282z"/>
  <ellipse transform="rotate(-15.35 140.515 279.77)" class="st25" cx="140.5" cy="279.8" rx="3.9" ry="3.9"/>
  <path class="st24" d="M90.256 246.535l5.9-3.175 16.492 30.645-5.9 3.175z"/>
  <path class="st25" d="M92.314 251.534l6.78-3.65 16.492 30.646-6.78 3.65z"/>
  <ellipse transform="rotate(-70.58 111.938 279.827)" class="st25" cx="111.9" cy="279.8" rx="3.9" ry="3.9"/>
  <path class="st25" d="M111.2 277.6H142v30.8h-30.8z"/>
  <path class="st23" d="M111.2 306.4H142v9.9h-30.8z"/>
  <path class="st26" d="M111.2 286.3v-10.1h30.9v10.1l-15.5 10.5"/>
  <path class="st27" d="M111.2 286.3v-10.1h15.4v20.6"/>
  <ellipse class="st24" cx="141.8" cy="260.1" rx="2.9" ry="3"/>
  <path class="st24" d="M142.1 272.9c0 7-6.8 12.7-15.1 12.7h-.6c-8.4 0-15.1-5.7-15.1-12.7v-22.2c0-7 6.8-12.7 15.1-12.7h.6c8.4 0 15.1 5.7 15.1 12.7v22.2z"/>
  <path class="st28" d="M126.2 285.6c-8.4 0-15.1-5.7-15.1-12.7v-22.2c0-7 6.8-12.7 15.1-12.7v47.6z"/>
  <ellipse class="st28" cx="111" cy="260.1" rx="2.9" ry="3"/>
  <path class="st29" d="M126.5 233c-4.2.3-17.1.2-17.1 13.9 0 3.3 1 10.3 1 10.3s1.6 0 2.1 1.9l.9-.1s1.2-.3.9-3.2c-.1-.7.3-6.3.5-8.2.2-3.1 3.8-1.5 5-1.2 1.6.4 3.7.9 6.3.9 2.8 0 5-.4 6.6-.9 1-.3 5.4-2.8 5.2 1.2-.1 1.1.5 7.5.5 8.2 0 2.8 1 3.2 1 3.2l1 .1c.6-1.8 2.2-1.9 2.2-1.9s1.1-7.1 1.1-10.3c0-13.7-12.7-13.8-17.2-13.9z"/>
  <path class="st30" d="M136.4 267.2c0-.3-.2-.5-.5-.5h-6.2c-.3 0-.5.2-.5.5h7.2z"/>
  <path class="st30" d="M134.3 266.8V263c0-.8-.7-1.4-1.5-1.4s-1.5.6-1.5 1.4v3.8h3z"/>
  <path class="st11" d="M133.2 264.1c0 .1-.1.2-.2.2s-.2-.1-.2-.2V263c0-.1.1-.2.2-.2s.2.1.2.2v1.1z"/>
  <path class="st29" d="M129.2 258.6h7.2v1.1h-7.2zm-13.4 0h7.2v1.1h-7.2z"/>
  <path class="st30" d="M123.1 267.1c0-.3-.2-.5-.5-.5h-6.2c-.3 0-.5.2-.5.5h7.2z"/>
  <path class="st30" d="M121.1 266.8V263c0-.8-.7-1.4-1.5-1.4s-1.5.6-1.5 1.4v3.8h3z"/>
  <path class="st11" d="M120 264.2c0 .1-.1.2-.2.2s-.2-.1-.2-.2v-1.1c0-.1.1-.2.2-.2s.2.1.2.2v1.1z"/>
</svg>
