<svg xmlns="http://www.w3.org/2000/svg" xmlns:xlink="http://www.w3.org/1999/xlink" width="1170" height="563" viewBox="0 0 1170 563">
  <style>
    .st0{fill:#C9F3FF;} .st1{fill:#D4F6FF;} .st2{fill:#CAB384;} .st3{fill:#A67C52;} .st4{fill:#C69C6D;} .st5{opacity:0.4;fill:#A67C52;} .st6{fill:#39B54A;} .st7{fill:#E5E5E5;} .st8{fill:#B8492E;} .st9{fill:#F15A24;} .st10{fill:#718C74;} .st11{fill:#29ABE2;} .st12{fill:#F8AF49;} .st13{fill:#FFFFFF;} .st14{fill-rule:evenodd;clip-rule:evenodd;fill:#FFFFFF;} .st15{fill-rule:evenodd;clip-rule:evenodd;fill:#6DBCC3;} .st16{opacity:8.000000e-02;fill-rule:evenodd;clip-rule:evenodd;fill:#3D3D3D;} .st17{fill:#6DBCC3;} .st18{fill:#F2F2F2;} .st19{opacity:0.1;} .st20{fill:#8CC63F;} .st21{fill:#D1E8B2;} .st22{fill:#F9BDA7;} .st23{fill:#FBB03B;} .st24{fill:#FDDFB1;} .st25{fill:#A9DDF3;} .st26{fill:url(#SVGID_1_);} .st27{fill:url(#SVGID_2_);} .st28{fill:url(#SVGID_3_);} .st29{fill:url(#SVGID_4_);} .st30{fill:url(#SVGID_5_);} .st31{fill:url(#SVGID_6_);} .st32{fill:#DD8317;} .st33{fill:#4D4D4D;} .st34{fill:#998675;} .st35{fill:#333333;} .st36{fill:#E6E6E6;} .st37{fill:#453E42;} .st38{fill:#221F1F;} .st39{fill:#EAEAEA;} .st40{fill:#D91E32;} .st41{fill:#CCCCCC;} .st42{fill:#808080;} .st43{fill:#507B93;} .st44{fill:#BE1622;} .st45{fill:#A31324;} .st46{fill:#EAE5D0;} .st47{fill:#E1D8BC;} .st48{fill:#683C11;} .st49{fill:#3B363A;} .st50{fill:#1A1A1A;} .st51{fill:#666666;} .st52{fill:#ABDACE;} .st53{fill:url(#SVGID_7_);} .st54{fill:#E07B3A;} .st55{fill:url(#SVGID_8_);} .st56{clip-path:url(#SVGID_10_);fill:#FBEF66;} .st57{clip-path:url(#SVGID_10_);fill:#D2BC2D;} .st58{fill:#41B166;} .st59{fill:none;stroke:#404041;stroke-width:4.8792;stroke-linecap:round;stroke-linejoin:round;stroke-miterlimit:10;} .st60{clip-path:url(#SVGID_12_);fill:#1A1A1A;} .st61{display:none;opacity:0.4;clip-path:url(#SVGID_12_);fill:#FFFFFF;} .st62{fill:#58595B;} .st63{fill:#404041;} .st64{clip-path:url(#SVGID_14_);fill:#231F20;} .st65{display:none;opacity:0.4;clip-path:url(#SVGID_14_);fill:#FFFFFF;} .st66{fill:#2B944E;} .st67{opacity:0.4;fill:#FFFFFF;} .st68{fill:#999999;} .st69{fill:none;stroke:#C69C6D;stroke-miterlimit:10;} .st70{fill:#90E7FF;} .st71{fill:#3C3C3B;} .st72{fill:#575756;} .st73{fill:#7D4E24;} .st74{fill:#B17F4A;} .st75{fill:#C6C6C6;} .st76{fill:#5A8196;} .st77{fill:url(#SVGID_15_);} .st78{fill:url(#SVGID_16_);} .st79{fill:url(#SVGID_17_);} .st80{fill:url(#SVGID_18_);} .st81{fill:url(#SVGID_19_);} .st82{fill:url(#SVGID_20_);} .st83{fill:url(#SVGID_21_);} .st84{fill:url(#SVGID_22_);} .st85{clip-path:url(#SVGID_24_);fill:#FBEF66;} .st86{clip-path:url(#SVGID_24_);fill:#D2BC2D;} .st87{clip-path:url(#SVGID_26_);fill:#1A1A1A;} .st88{display:none;opacity:0.4;clip-path:url(#SVGID_26_);fill:#FFFFFF;} .st89{clip-path:url(#SVGID_28_);fill:#231F20;} .st90{display:none;opacity:0.4;clip-path:url(#SVGID_28_);fill:#FFFFFF;}
  </style>
  <path id="Wall_1_" class="st0" d="M0 0h1170v563H0z"/>
  <path id="Wall_Pattern_1_" class="st1" d="M1170 563h-10V0h10v563zM1150 0h-10v563h10V0zm-20 0h-10v563h10V0zm-20 0h-10v563h10V0zm-20 0h-10v563h10V0zm-20 0h-10v563h10V0zm-20 0h-10v563h10V0zm-20 0h-10v563h10V0zm-20 0h-10v563h10V0zm-20 0h-10v563h10V0zm-20 0h-10v563h10V0zm-20 0h-10v563h10V0zm-20 0h-10v563h10V0zm-20 0h-10v563h10V0zm-20 0h-10v563h10V0zm-20 0h-10v563h10V0zm-20 0h-10v563h10V0zm-20 0h-10v563h10V0zm-20 0h-10v563h10V0zm-20 0h-10v563h10V0zm-20 0h-10v563h10V0zm-20 0h-10v563h10V0zm-20 0h-10v563h10V0zm-20 0h-10v563h10V0zm-20 0h-10v563h10V0zm-20 0h-10v563h10V0zm-20 0h-10v563h10V0zm-20 0h-10v563h10V0zm-20 0h-10v563h10V0zm-20 0h-10v563h10V0zm-20 0h-10v563h10V0zm-20 0h-10v563h10V0zm-20 0h-10v563h10V0zm-20 0h-10v563h10V0zm-20 0h-10v563h10V0zm-20 0h-10v563h10V0zm-20 0h-10v563h10V0zm-20 0h-10v563h10V0zm-20 0h-10v563h10V0zm-20 0h-10v563h10V0zm-20 0h-10v563h10V0zm-20 0h-10v563h10V0zm-20 0h-10v563h10V0zm-20 0h-10v563h10V0zm-20 0h-10v563h10V0zm-20 0h-10v563h10V0zm-20 0h-10v563h10V0zm-20 0h-10v563h10V0zm-20 0h-10v563h10V0zm-20 0h-10v563h10V0zm-20 0h-10v563h10V0zm-20 0h-10v563h10V0zm-20 0h-10v563h10V0zm-20 0h-10v563h10V0zM90 0H80v563h10V0zM70 0H60v563h10V0zM50 0H40v563h10V0zM30 0H20v563h10V0zM10 0H0v563h10V0z"/>
  <path id="Floor_1_" class="st2" d="M0 481h1170v82H0z"/>
  <g id="Desk_1_">
    <path class="st3" d="M585 302h437v19H585z"/>
    <path class="st4" d="M608 321v160h48v-19h294v19h48V321z"/>
    <path class="st5" d="M998 321H608v40z"/>
  </g>
  <g id="Cup__x2B__Pens_1_">
    <path class="st6" d="M996.522 267.832l1.992-.177 2.15 24.305-1.99.176z"/>
    <path class="st7" d="M998.7 292.1c0 .5.5 1 1.1.9.5 0 1-.5.9-1.1l-2 .2zm-1.7-27.6l-.5 3.4 2-.2-1-3.3h-.2c-.2.1-.2.1-.3.1z"/>
    <path class="st8" d="M997 264.5h.4l-.3-1-.1 1z"/>
    <path class="st9" d="M998.847 269.628l1.987-.23 2.81 24.238-1.988.23z"/>
    <path class="st7" d="M1001.6 293.8c.1.5.6.9 1.1.9.5-.1.9-.6.9-1.1l-2 .2zm-2.4-27.6l-.4 3.4 2-.2-1.1-3.2h-.5z"/>
    <path class="st10" d="M999.2 266.2h.4l-.3-1-.1 1z"/>
    <path class="st11" d="M1004.697 295.173l3.858-24.092 1.975.32-3.858 24.09z"/>
    <path class="st7" d="M1004.7 295.1c-.1.5.3 1.1.8 1.1.5.1 1.1-.3 1.1-.8l-1.9-.3zm5.1-27.2l-1.3 3.2 1.9.3-.2-3.4h-.2c0-.1-.1-.1-.2-.1z"/>
    <path class="st12" d="M1009.8 267.9c.1 0 .1 0 .2.1h.2l-.1-1-.3.9z"/>
    <path class="st13" d="M994.8 278.8l2.3 23.2h12.5l2.4-23.2z"/>
  </g>
  <g id="Computer_1_">
    <path class="st14" d="M705.4 261.3v-113c0-2.4 2-4.4 4.4-4.4h185.1c2.4 0 4.4 2 4.4 4.4v113H705.4z"/>
    <path class="st14" d="M894.9 278.7H709.8c-2.4 0-4.4-2-4.4-4.4v-13.1h193.9v13.1c0 2.5-2 4.4-4.4 4.4z"/>
    <path class="st14" d="M771.5 301.6v-2.4l7.7-.9 5.3-20.1h39.1l5.3 20.1 7.7.9v2.4h-65.1z"/>
    <path class="st15" d="M893.3 151.5v102.1H711.4V151.5h181.9z"/>
    <path class="st16" d="M783.7 281.9l.7-3.8h39.1l.7 3.8h-40.5z"/>
    <path class="st17" d="M880 176v77.6h13.3V151.5H880zm-155-24.5h-13.6v102.1H725V176z"/>
    <path class="st18" d="M744 187.5c0-.7-.5-1.5-1.3-1.5h-.7v3h.8c.8 0 1.2-.8 1.2-1.5zm10 1.4c.5 0 .8-.4.8-.9s-.3-.9-.8-.9c-.3 0-.6.2-.7.4v1.1c.1.1.4.3.7.3zm3.6-1c0-.5-.3-.9-.8-.9s-.8.4-.8.9.3.9.8.9c.5.1.8-.4.8-.9zm1.3.5c0 .3.2.5.6.5.3 0 .5-.1.7-.3v-.5c-.1-.2-.4-.3-.7-.3-.4.1-.6.3-.6.6zm-24.9.5c.5 0 .8-.4.8-.9s-.3-.9-.8-.9-.8.4-.8.9c0 .4.3.9.8.9zm30 0c.3 0 .6-.2.7-.4v-1.1c-.1-.2-.4-.4-.7-.4-.5 0-.8.4-.8.9 0 .6.3 1 .8 1zm-18.6-.5c0 .3.2.5.6.5.3 0 .5-.1.7-.3v-.5c-.1-.2-.4-.3-.7-.3-.4.1-.6.3-.6.6z"/>
    <path class="st18" d="M725 176v78h155v-78H725zm7 11.7v1.3h-1v-1.3l-.9-1.7h.5l1 1.6 1-1.6h.5l-1.1 1.7zm2-1c.7 0 1.2.6 1.2 1.3 0 .7-.5 1.3-1.2 1.3s-1.2-.6-1.2-1.3c0-.8.5-1.3 1.2-1.3zm92 6.3v35h-96v-35h96zm-89.6-4.1c.3 0 .6-.2.6-.4V187h1v2h-1v-.2c0 .2-.2.4-.5.4-.5 0-.5-.2-.5-.8V187v1.3c0 .5.1.6.4.6zm3.6-2.2v.4h-.2c-.2 0-.8.2-.8.4v1.6-2 .1c0-.3 0-.5 1-.5zm6.2.3c-.3 0-.6.1-.8.3l-.2-.3c.3-.3.5-.4.9-.4.5 0 .9.2.9.8v1.5-.1c-1 .2-.7.3-1 .3-.4 0-.9-.3-.9-.8s.6-.8 1-.8c.3 0-.1.1.9.3v-.4c0-.2-.4-.4-.8-.4zm2.3 1.1c-.4-.1-.9-.2-.9-.7 0-.4.3-.7.9-.7.4 0 .7.2.9.4l-.2.3c-.1-.2-.4-.3-.7-.3-.3 0-.5.2-.5.4s.3.3.6.4c.4.1.9.2.9.8 0 .4-.3.7-1 .7-.4 0-.7-.1-1-.4l.2-.3c.2.2.5.3.8.3.4 0 .6-.2.6-.4 0-.4-.3-.4-.6-.5zm7.1-.2c0-.7.5-1.3 1.2-1.3s1.2.6 1.2 1.3c0 .7-.5 1.3-1.2 1.3s-1.2-.6-1.2-1.3zm3.9-.9c-.3 0-.5.1-.7.3l-.2-.3c.3-.3.8-.4 1.2-.4.5 0 1.2.2 1.2.8v1.5h-1v-.1c0 .2-.4.3-.7.3-.4 0-.8-.3-.8-.8s.4-.8.8-.8c.3 0 .7.1.7.3v-.4c0-.2-.2-.4-.5-.4zm15.5-8h13v1h-13v-1zm-10 0h7v1h-7v-1zm-1 7.7c.3 0 1 .2 1 .4V186v3-.2c0 .2-.6.4-1 .4-.6 0-1.1-.5-1.1-1.3.1-.7.5-1.2 1.1-1.2zm-2 .4h.3c-.2 0-.3.2-.3.4v1.6h-1v-2h1v-.4.4zm-9-8.1h9v1h-9v-1zm0 7v1.1c0-.3.6-.4.9-.4.6 0 1.1.5 1.1 1.3s-.5 1.3-1.2 1.3c-.3 0-.9-.2-.9-.4v.2-3.1zm-3 0v1.1c1-.2.7-.4 1-.4.5 0 1 .2 1 .8v1.6-1.4c0-.4-.6-.6-.9-.6-.3 0-.1.2-1.1.4v1.6-3.1zm-6-7h6v1h-6v-1zm-2 7h.8c1 0 1.7.6 1.7 1.5 0 1-.7 1.5-1.7 1.5h-.8v-3zm-12-7h10v1h-10v-1zm34 70h-34v-17h34v17zm37 0h-34v-17h34v17zm37 0h-33v-17h33v17zm38 0h-34v-17h34v17zm-46-21v-35h46v35h-46z"/>
    <path d="M865 241.8v-.6c0-.2-.7-.4-.8-.4s-.1.5-.1 1 0 1 .1 1 .8-.2.8-.4v-.6z" class="st19"/>
    <path class="st20" d="M865 241.5v-.6c0-.2-.7-.4-.8-.4s-.1.5-.1 1 0 1 .1 1 .8-.2.8-.4v-.6z"/>
    <path d="M851.8 241.2c.4 0 .7-.5.7-1.2v-.4c0-.6-.3-.7-.6-.1l-.4.7c-.2.6-.2 1 .3 1z" class="st19"/>
    <path class="st20" d="M851.8 240.8c.4 0 .7-.5.7-1.2v-.4c0-.6-.3-.7-.6-.1l-.4.7c-.2.6-.2 1 .3 1z"/>
    <path d="M862.4 242.9c.4 0 .7-.5.7-1.1 0-.6-.2-1.1-.7-1.1-.4 0-.7.5-.7 1.1 0 .6.3 1.1.7 1.1z" class="st19"/>
    <path class="st20" d="M862.4 242.5c.4 0 .7-.5.7-1.1 0-.6-.2-1.1-.7-1.1-.4 0-.7.5-.7 1.1 0 .6.3 1.1.7 1.1z"/>
    <path d="M843.3 232.1c-.6 0-1.2.5-1.2 1.2v14.5c0 .6.5 1.2 1.2 1.2h31.1c.6 0 1.2-.5 1.2-1.2v-14.5c0-.6-.5-1.2-1.2-1.2h-31.1zm3.8 6c.4 0 .7.3.7.7 0 .4-.3.7-.7.7s-.7-.3-.7-.7c0-.4.3-.7.7-.7zm-.1 4c0 .5-.3.9-.6.8s-1.2-.7-1.2-1.2v-1h.1s.3 0 .6.1 1.1.7 1.1 1.3zm-1-1.5c-.3-.1-.6-.1-.6-.2v-.1s.1-.1.2-.3c.1-.1 1-.3 1.2-.1h.4c.2-.1.6-.2.9-.1s.5.5.5.5v.1l-.6.2h-2zm3 1.1c0 .5-.2 1-.5 1s-1.3-.1-1.3-.6.5-1.1 1.1-1.3h.6c0-.1.1.3.1.9zm4.7-.2c0 .2-.1.3-.3.3s-.3.3-.3.7c0 .4-.1.7-.3.7s-.3-.3-.3-.7c0-.4-.5-.7-1-.7-.6 0-1-.1-1-.3 0-.2.3-.7.6-1.3l.8-1.4c.3-.6.8-1 1-1s.4.5.4 1.2v1.1c0 .6.1 1.2.3 1.2s.1 0 .1.2zm18.5.4c-.3-.1-.7-.3-.7-.8 0-.4.3-.7.7-.7h.3c.2.1.4.3.3.4 0 .1-.2 0-.4-.1h-.2c-.2 0-.4.2-.4.4s.2.4.5.5c.3.2.7.3.7.8 0 .4-.3.7-.8.7h-.3c-.2-.2-.4-.4-.3-.4 0-.1.2 0 .4.2h.3c.3 0 .5-.2.5-.4-.1-.3-.4-.4-.6-.6zm-2.4-.2c0-.6.3-1.2.7-1.2.4 0 .7.1.7.1s-.2.1-.5.1-.5.2-.5.4.2.4.5.4.5.1.5.1-.2.1-.5.1-.5.2-.5.5.2.5.5.5.5.1.5.1-.3.1-.7.1c-.4 0-.7-.5-.7-1.2zm-1.6 0c0-.6.1-1.2.2-1.2s.2.5.2 1.2.2 1.2.5 1.2.5.1.5.1-.3.1-.6.1-.6-.5-.6-1.2v-.2zm-2.2-.3c0-.5.1-.9.2-.9s.2.4.2.9.1 1.1.2 1.5h.6c.1-.3.2-1 .2-1.5s.1-.9.2-.9.2.4.2.9-.1 1.3-.3 1.8h-1c-.4-.5-.5-1.3-.5-1.8zm-2.2.3c0-.6.2-1.2.3-1.2s.8.2 1.4.5v1.4c-.6.3-1.2.5-1.4.5s-.3-.5-.3-1.2zm-1.4-1.2c.6 0 1 .6 1 1.3 0 .7-.4 1.3-1 1.3s-1-.6-1-1.3c0-.7.4-1.3 1-1.3zm-3.5 1.2c0-.6.1-1.2.2-1.2s.4.4.5.9c.2.5.4.5.6 0 .2-.5.4-.9.5-.9.1 0 .2.5.2 1.2v.3c0 .6-.1 1.2-.2 1.2s-.2-.5-.2-1-.2-.6-.3 0c-.2.6-.4 1-.4 1l-.4-1s-.3-.6-.3 0-.1 1-.2 1-.2-.5-.2-1.2v-.3zm-2.6.9c.6 0 1 .1 1 .3 0 .2-.5.3-1.2.3h-.7c-.6 0-1.2-.1-1.2-.3 0-.1.3-.7.8-1.1 0 0 1.5-1.8 1.5-2.5 0-.6-.4-.9-.8-.9h-.5c-.3.4-.7.6-.8.5-.1-.1.2-.6.6-1h.7c.8 0 1.5.5 1.5 1.4 0 .9-1.3 2.5-1.3 2.5-.4.4-.2.8.4.8z" class="st19"/>
    <path class="st20" d="M843.3 231.7c-.6 0-1.2.5-1.2 1.2v14.5c0 .6.5 1.2 1.2 1.2h31.1c.6 0 1.2-.5 1.2-1.2v-14.5c0-.6-.5-1.2-1.2-1.2h-31.1zm3.8 6c.4 0 .7.3.7.7 0 .4-.3.7-.7.7s-.7-.3-.7-.7c0-.4.3-.7.7-.7zm-.1 4c0 .5-.3.9-.6.8s-1.2-.7-1.2-1.2v-1h.1s.3 0 .6.1 1.1.8 1.1 1.3zm-1-1.5c-.3-.1-.6-.1-.6-.2v-.1s.1-.1.2-.3c.1-.1 1-.3 1.2-.1h.4c.2-.1.6-.2.9-.1s.5.5.5.5v.1l-.6.2h-2zm3 1.1c0 .5-.2 1-.5 1s-1.3-.1-1.3-.6.5-1.1 1.1-1.3h.6c0-.1.1.4.1.9zm4.7-.2c0 .2-.1.3-.3.3s-.3.3-.3.7-.1.7-.3.7-.3-.3-.3-.7-.5-.7-1-.7c-.6 0-1-.1-1-.3s.3-.7.6-1.3l.8-1.4c.3-.6.8-1 1-1s.4.5.4 1.2v1.1c0 .6.1 1.2.3 1.2s.1.1.1.2zm18.5.5c-.3-.1-.7-.3-.7-.8 0-.4.3-.7.7-.7h.3c.2.1.4.3.3.4 0 .1-.2 0-.4-.1h-.2c-.2 0-.4.2-.4.4s.2.4.5.5c.3.2.7.3.7.8 0 .4-.3.7-.8.7h-.3c-.2-.2-.4-.4-.3-.4 0-.1.2 0 .4.2h.3c.3 0 .5-.2.5-.4-.1-.4-.4-.5-.6-.6zm-2.4-.3c0-.6.3-1.2.7-1.2.4 0 .7.1.7.1s-.2.1-.5.1-.5.2-.5.4.2.4.5.4.5.1.5.1-.2.1-.5.1-.5.2-.5.5.2.5.5.5.5.1.5.1-.3.1-.7.1c-.4 0-.7-.5-.7-1.2zm-1.6 0c0-.6.1-1.2.2-1.2s.2.5.2 1.2.2 1.2.5 1.2.5.1.5.1-.3.1-.6.1-.6-.5-.6-1.2v-.2zm-2.2-.3c0-.5.1-.9.2-.9s.2.4.2.9.1 1.1.2 1.5h.6c.1-.3.2-1 .2-1.5s.1-.9.2-.9.2.4.2.9-.1 1.3-.3 1.8h-1c-.4-.5-.5-1.3-.5-1.8zm-2.2.3c0-.6.2-1.2.3-1.2s.8.2 1.4.5v1.4c-.6.3-1.2.5-1.4.5s-.3-.5-.3-1.2zm-1.4-1.2c.6 0 1 .6 1 1.3 0 .7-.4 1.3-1 1.3s-1-.6-1-1.3c0-.7.4-1.3 1-1.3zm-3.5 1.2c0-.6.1-1.2.2-1.2s.4.4.5.9c.2.5.4.5.6 0s.4-.9.5-.9c.1 0 .2.5.2 1.2v.3c0 .6-.1 1.2-.2 1.2s-.2-.5-.2-1-.2-.6-.3 0c-.2.6-.4 1-.4 1l-.4-1s-.3-.6-.3 0-.1 1-.2 1-.2-.5-.2-1.2v-.3zm-2.6.9c.6 0 1 .1 1 .3s-.5.3-1.2.3h-.7c-.6 0-1.2-.1-1.2-.3s.3-.7.8-1.1c0 0 1.5-1.8 1.5-2.5 0-.6-.4-.9-.8-.9h-.5c-.3.4-.7.6-.8.5-.1-.1.2-.6.6-1h.7c.8 0 1.5.5 1.5 1.4 0 .9-1.3 2.5-1.3 2.5-.4.4-.2.8.4.8z"/>
    <path class="st13" d="M853 237h-.7l-2.3 3.8v.2h3v2-2h1-1v-4zm0 4h-2l2-2.9v2.9zm2.8-3.6c-.7 0-1.2.3-1.5.8l.4.4c.3-.4.6-.7 1.1-.7.5 0 .7.3.7.9 0 .8-.5 1.4-2.5 3.4v.8h3v-1h-1.8c1.4-2 2.1-2.4 2.1-3.3 0-.9-.7-1.3-1.5-1.3zm3.2 3.3l.9 2.3h.1l1-2.3v2.3-3h-.5l-.6 1.9-.6-1.9h-.3v3zm3.4 2.1c.6 0 1-.6 1-1.3 0-.7-.4-1.3-1-1.3s-1 .6-1 1.3c0 .7.4 1.3 1 1.3zm0-2.4c.4 0 .7.5.7 1.1 0 .6-.2 1.1-.7 1.1-.4 0-.7-.5-.7-1.1 0-.6.3-1.1.7-1.1zm3.1 1.1c0-.7-.4-1.5-1-1.5h-.5v3h.5c.7 0 1-.8 1-1.5zM864 240h.5c.5 0 .7.4.7 1s-.2 1-.7 1h-.5v-2zm3 2.8c.5 0 1-.3 1-.9V240h-1v1.9c0 .4-.2.6-.5.6s-.5-.2-.5-.6V240v1.9c0 .6.5.9 1 .9zm2-.8v-2h-1v3h1zm2 0h-1 1v-1h-1v-1h1-1v3h1zm1.2.5c-.3 0-.5-.1-.6-.3l-.2.2c.2.2.4.3.8.3.5 0 .8-.3.8-.7 0-.5-.4-.7-.7-.8-.3-.1-.5-.2-.5-.5 0-.2.2-.4.4-.4s.4.1.5.2l.2-.2c-.2-.2-.4-.3-.7-.3-.4 0-.7.3-.7.7 0 .5.3.6.7.8.3.1.5.3.5.5 0 .3-.2.5-.5.5z"/>
    <path class="st21" d="M845.3 240c-.1 0-.3.3-.3.3v1.9c1 0 1 .2 2 .4v-1.9c-1-.2-1.1-.7-1.7-.7z"/>
    <path class="st21" d="M848.8 240c0-.4-.5-.6-1.1-.7-.1.1-.3.2-.6.2-.2 0-.6-.1-.8-.2-.6.1-1.3.2-1.3.6v.1l.2.1c.6 0 1.3.2 1.8.4.5-.2 1.2-.4 1.7-.4l.1-.1z"/>
    <ellipse class="st21" cx="847.1" cy="238.4" rx=".7" ry=".7"/>
    <path class="st21" d="M847 240.7v1.9c1-.3 1-.4 2-.4v-1.9h-.3c-.5.1-.7.2-1.7.4z"/>
    <path d="M827.4 241h.4c.3-1 .5-1.5.4-2.1 0 0-.1-.4-.8-.4-.6 0-.9.7-.9 1.3 0 .7.5 1.2.9 1.2z" class="st19"/>
    <path class="st9" d="M827.4 240h.4c.3 0 .5-1.2.4-1.8 0 0-.1-.3-.8-.3-.6 0-.9.5-.9 1.1 0 .8.5 1 .9 1z"/>
    <path d="M823.6 241h.4c.3-1 .5-1.5.4-2.1 0 0-.1-.4-.8-.4-.6 0-.9.7-.9 1.3 0 .7.4 1.2.9 1.2z" class="st19"/>
    <path class="st9" d="M823.6 240h.4c.3 0 .5-1.2.4-1.8 0 0-.1-.3-.8-.3-.6 0-.9.5-.9 1.1 0 .8.4 1 .9 1z"/>
    <path d="M804.8 247.8c0 .6.5 1.2 1.2 1.2h31.1c.6 0 1.2-.5 1.2-1.2v-14.5c0-.6-.5-1.2-1.2-1.2H806c-.6 0-1.2.5-1.2 1.2v14.5zm24.9-6.1c0-.6.1-1.2.2-1.2s.4.4.5.9c.2.5.4.5.6 0 .2-.5.4-.9.5-.9.1 0 .2.5.2 1.2v.3c0 .6-.1 1.2-.2 1.2s-.2-.5-.2-1-.2-.6-.3 0c-.2.6-.4 1-.4 1l-.4-1c-.2-.6-.3-.6-.3 0s-.1 1-.2 1-.2-.5-.2-1.2v-.3zm-2.3-3.9c1.3 0 1.7 1.3 1.7 2.7 0 1.4-.5 2.7-1.8 2.7h-.6c-.4-.4-.6-.8-.5-.9.1-.1.4 0 .6.3h.4c.9 0 1-1 1-1l.2-1.2s-.3.3-.6.7h-.5c-.8 0-1.4-.6-1.4-1.7 0-.8.5-1.6 1.5-1.6zm-3.9 0c1.3 0 1.7 1.3 1.7 2.7 0 1.4-.5 2.7-1.8 2.7h-.6c-.4-.4-.6-.8-.5-.9.1-.1.4 0 .6.3h.4c.9 0 1-1 1-1l.2-1.2s-.3.3-.6.7h-.5c-.8 0-1.4-.6-1.4-1.7 0-.8.6-1.6 1.5-1.6zm-3.9 2.9h-.2c-.1 0-.3-.1-.3-.3 0-.2.1-.3.3-.3h.1c.5 0 1-.3 1-.9 0-.6-.4-.9-.9-.9h-.5c-.3.3-.7.6-.8.5-.1-.1.2-.5.6-1h.7c.9 0 1.5.5 1.5 1.4v.7c-.5.3-.5.8.1 1.1v.8c0 .9-.6 1.5-1.6 1.5h-.8c-.4-.5-.7-.9-.6-1 .1-.1.5.1.8.5h.5c.6 0 1-.4 1-1 .2-.9-.3-1.1-.9-1.1zm-3.6-2.9c.8 0 1.5.5 1.5 1.4 0 .9-1.3 2.5-1.3 2.5-.4.5-.3.9.3.9s1 .1 1 .3c0 .2-.5.3-1.2.3h-.7c-.6 0-1.2-.1-1.2-.3 0-.1.3-.7.8-1.1 0 0 1.5-1.8 1.5-2.5 0-.6-.4-.9-.8-.9h-.5c-.3.4-.7.6-.8.5-.1-.1.2-.6.6-1 0-.1.1-.1.8-.1zm-5.4.6c.2 0 .4.3.3.5 0 .2-.3.4-.5.3-.2 0-.4-.3-.3-.5.1-.2.3-.3.5-.3zm-2.6 3.3c.1-.1.4-.1.6-.2s.5-.2.6-.4c.1-.2.2-.3.2-.4l-.2-.2.1-.1.2-.4s.1-.4 0-.4-.3.1-.4.1c-.1.1-.3.2-.5.2l-.1-.1-.1-.1c.1-.1.2-.3.4-.4.1-.1.3-.2.3-.2h.1s.2 0 .3.1.4 0 .5 0h.1l.1.1c0 .2.1.3.2.4.1.1.2.1.3 0s.3-.1.5-.1v.2c-.1.1-.3.2-.5.3-.2.1-.3.1-.4.1 0 0-.1-.1-.2-.1l-.1-.1-.2.2c-.1.2 0 .4.2.5.2.1.4.2.4.3s.1.1.1.1l.2.6s.2.6.2.8h-.2c-.1-.1-.3-.4-.4-.7-.1-.3-.3-.6-.5-.7-.2-.1-.4 0-.5.2-.1.2-.2.4-.3.4 0 0-.1.1-.2.1h-1.2v-.1h.4z" class="st19"/>
    <path class="st9" d="M804.8 247.4c0 .6.5 1.2 1.2 1.2h31.1c.6 0 1.2-.5 1.2-1.2v-14.5c0-.6-.5-1.2-1.2-1.2H806c-.6 0-1.2.5-1.2 1.2v14.5zm24.9-6.1c0-.6.1-1.2.2-1.2s.4.4.5.9.4.5.6 0 .4-.9.5-.9c.1 0 .2.5.2 1.2v.3c0 .6-.1 1.2-.2 1.2s-.2-.5-.2-1-.2-.6-.3 0c-.2.6-.4 1-.4 1l-.4-1c-.2-.6-.3-.6-.3 0s-.1 1-.2 1-.2-.5-.2-1.2v-.3zm-2.3-3.9c1.3 0 1.7 1.3 1.7 2.7 0 1.4-.5 2.7-1.8 2.7h-.6c-.4-.4-.6-.8-.5-.9.1-.1.4 0 .6.3h.4c.9 0 1-1 1-1l.2-1.2s-.3.3-.6.7h-.5c-.8 0-1.4-.6-1.4-1.7 0-.8.5-1.6 1.5-1.6zm-3.9 0c1.3 0 1.7 1.3 1.7 2.7 0 1.4-.5 2.7-1.8 2.7h-.6c-.4-.4-.6-.8-.5-.9.1-.1.4 0 .6.3h.4c.9 0 1-1 1-1l.2-1.2s-.3.3-.6.7h-.5c-.8 0-1.4-.6-1.4-1.7 0-.8.6-1.6 1.5-1.6zm-3.9 2.9h-.2c-.1 0-.3-.1-.3-.3s.1-.3.3-.3h.1c.5 0 1-.3 1-.9 0-.6-.4-.9-.9-.9h-.5c-.3.3-.7.6-.8.5-.1-.1.2-.5.6-1h.7c.9 0 1.5.5 1.5 1.4v.7c-.5.3-.5.8.1 1.1v.8c0 .9-.6 1.5-1.6 1.5h-.8c-.4-.5-.7-.9-.6-1 .1-.1.5.1.8.5h.5c.6 0 1-.4 1-1 .2-.8-.3-1.1-.9-1.1zm-3.6-2.9c.8 0 1.5.5 1.5 1.4 0 .9-1.3 2.5-1.3 2.5-.4.5-.3.9.3.9s1 .1 1 .3-.5.3-1.2.3h-.7c-.6 0-1.2-.1-1.2-.3s.3-.7.8-1.1c0 0 1.5-1.8 1.5-2.5 0-.6-.4-.9-.8-.9h-.5c-.3.4-.7.6-.8.5-.1-.1.2-.6.6-1 0-.1.1-.1.8-.1zm-5.4.6c.2 0 .4.3.3.5 0 .2-.3.4-.5.3-.2 0-.4-.3-.3-.5.1-.2.3-.3.5-.3zm-2.6 3.4c.1-.1.4-.1.6-.2s.5-.2.6-.4c.1-.2.2-.3.2-.4s-.1-.1-.2-.2l.1-.1.2-.4s.1-.4 0-.4-.3.1-.4.1c-.1.1-.3.2-.5.2l-.1-.1-.1-.1c.1-.1.2-.3.4-.4s.3-.2.3-.2h.1s.2 0 .3.1.4 0 .5 0h.1l.1.1c0 .2.1.3.2.4.1.1.2.1.3 0s.3-.1.5-.1v.2c-.1.1-.3.2-.5.3-.2.1-.3.1-.4.1s-.1-.1-.2-.1l-.1-.1-.2.2c-.1.2 0 .4.2.5s.4.2.4.3.1.1.1.1l.2.6s.2.6.2.8h-.2c-.1-.1-.3-.4-.4-.7-.1-.3-.3-.6-.5-.7-.2-.1-.4 0-.5.2s-.2.4-.3.4c0 0-.1.1-.2.1h-1.2v-.1h.4z"/>
    <path class="st13" d="M815.9 237.9c.5 0 .6.3.6.9 0 .8-.6 1.4-2.6 3.4v.8h3v-1h-1.6c1.4-2 2.1-2.4 2.1-3.3 0-.9-.7-1.4-1.5-1.4-.7 0-1.2.3-1.5.9l.4.4c.3-.4.7-.7 1.1-.7zm3.8 4.4c-.5 0-.9-.3-1.1-.7l-.4.4c.3.5.8.9 1.6.9 1 0 1.6-.6 1.6-1.5 0-.8-.5-1.2-1-1.3.5-.1.9-.6.9-1.2 0-.9-.6-1.4-1.5-1.4-.7 0-1.2.3-1.5.8l.4.4c.3-.4.6-.6 1.1-.6.5 0 .9.3.9.9 0 .6-.5.9-1.1.9h-.5v.6h.5c.5 0 1.1.2 1.1 1-.1.4-.4.8-1 .8zm3.9-1.5c.5 0 .4-.4 1.4-.8v.2c0 1-.5 2.1-1.4 2.1-.4 0-.8-.2-1-.5l-.4.4c.3.4.6.7 1.2.7 1.3 0 1.8-1.3 1.8-2.7 0-1.4-.4-2.7-1.7-2.7-1 0-1.4.8-1.4 1.7 0 1 .8 1.6 1.5 1.6zm0-2.9c.7 0 1 .9 1 1.5-.2.4-.5.8-1 .8s-.9-.3-.9-1.2c0-.5.2-1.1.9-1.1zm3.5 2.9c.5 0 .9-.4.9-.8v.2c0 1-.1 2.1-.9 2.1-.4 0-.6-.2-.8-.5l-.3.4c.3.4.7.7 1.3.7 1.3 0 1.8-1.3 1.8-2.7 0-1.4-.4-2.7-1.7-2.7-1 0-1.6.8-1.6 1.7 0 1 .5 1.6 1.3 1.6zm.4-2.9c.7 0 1 .9 1 1.5-.2.4-.5.8-1 .8s-.9-.3-.9-1.2c-.1-.5.2-1.1.9-1.1zm2.5 2.8l.7 2.3h.2l1.1-2.3v2.3-3h-.6l-.6 1.9-.6-1.9h-.2v3z"/>
    <ellipse transform="rotate(-79.123 810.623 238.446)" class="st22" cx="810.6" cy="238.5" rx=".4" ry=".4"/>
    <path class="st22" d="M808.3 241.7l.9-.1c.1 0 .2 0 .2-.1l.4-.7.6.4.3.9c0 .1.2.2.3.1.1 0 .2-.2.1-.3l-.4-1s0-.1-.1-.1l-.1-.1-.7-.5.3-.6.1.2c.1.1.1.1.2.1l.6-.2c.1 0 .2-.2.1-.3 0-.1-.2-.2-.3-.1l-.5.2-.2-.3c0-.1-.1-.3-.2-.4h-.3l-.6-.1h-.2l-.5.4c-.1.1-.1.2 0 .3.1.1.2.1.3 0l.5-.3.3.1-.4.7v.1c-.1.1 0 .3.1.3l-.4.7-.8.1c-.1 0-.2.1-.2.3.4.2.5.3.6.3z"/>
    <path d="M784.1 242.7c.5 0 .9-.3.9-.9v-.7c-.5-.2-1.3-.2-1.9 0v.7c0 .5.4.9 1 .9z" class="st19"/>
    <path class="st23" d="M784.1 242.3c.5 0 .9-.3.9-.9v-.7c-.5-.2-1.3-.2-1.9 0v.7c0 .5.4.9 1 .9z"/>
    <path d="M784.9 239.2c0-.5-.3-.9-.9-.9-.5 0-.9.3-.9.9v.7c.5.2 1.3.2 1.7 0 .1-.1.1-.1.1-.7z" class="st19"/>
    <path class="st23" d="M784.9 238.8c0-.5-.3-.9-.9-.9-.5 0-.9.3-.9.9v.7c.5.2 1.3.2 1.7 0 .1 0 .1 0 .1-.7z"/>
    <path d="M775.4 241c0 .5.4.9.9.9s.9-.4.9-.9-.4-.9-.9-.9h-.1c-.1 0-.1.2 0 .5.1.2.2.5.2.6h-.3s-.2-.3-.3-.5-.4-.2-.6 0c.2 0 .2 0 .2.3z" class="st19"/>
    <path class="st23" d="M775.4 240.6c0 .5.4.9.9.9s.9-.4.9-.9-.4-.9-.9-.9h-.1c-.1 0-.1.2 0 .5s.2.5.2.6h-.3s-.2-.3-.3-.5-.4-.2-.6 0c.2 0 .2 0 .2.3z"/>
    <path d="M767.4 247.8c0 .6.5 1.2 1.2 1.2h31.1c.6 0 1.2-.5 1.2-1.2v-14.5c0-.6-.5-1.2-1.2-1.2h-31.1c-.6 0-1.2.5-1.2 1.2v14.5zm25.9-6.1c0-.6.1-1.2.2-1.2s.4.4.5.9c.2.5.4.5.6 0 .2-.5.4-.9.5-.9.1 0 .2.5.2 1.2v.3c0 .6-.1 1.2-.2 1.2s-.2-.5-.2-1-.2-.6-.3 0c-.2.6-.4 1-.4 1l-.4-1c-.2-.6-.3-.6-.3 0s-.1 1-.2 1-.2-.5-.2-1.2v-.3zm-2.3-1h-.2c-.1 0-.3-.1-.3-.3 0-.2.1-.3.3-.3h.1c.5 0 1-.3 1-.9 0-.6-.4-.9-.9-.9h-.5c-.3.3-.7.6-.8.5-.1-.1.2-.5.6-1h.7c.9 0 1.5.5 1.5 1.4v.7c-.5.3-.5.8.1 1.1v.8c0 .9-.6 1.5-1.6 1.5h-.8c-.4-.5-.7-.9-.6-1 .1-.1.5.1.8.5h.5c.6 0 1-.4 1-1 .1-.9-.3-1.1-.9-1.1zm-4.8-2.6c0-.2.5-.3 1.2-.3h.6c.6 0 1.2.1 1.2.2s-.2.7-.4 1.3l-.9 2.7c-.2.6-.5 1.1-.7 1.1s-.2-.5 0-1.1l.9-2.5c.2-.6-.1-1.1-.7-1.1s-1.2-.1-1.2-.3zm-3.6 1c0-.9.7-1.3 1.5-1.3s1.5.4 1.5 1.3v.7c-.5.3-.5.9 0 1.3 0 0 .1.1.1.8 0 .9-.7 1.4-1.6 1.4-.9 0-1.6-.5-1.6-1.4 0-.7.1-.8.1-.8.5-.4.5-.9 0-1.3v-.7zm-2.2-.6c.3-.4.8-.7.9-.7s.3.5.3 1.2v3c0 .6-.1 1.2-.3 1.2s-.3-.5-.3-1.2v-2.1c0-.6-.2-1-.4-.7-.2.2-.5.4-.6.2-.2-.2 0-.5.4-.9zm-8.1 1.3h.2c.2.1.5.1.6-.1.1-.1.2-.4.2-.4 0-.1-.1-.2-.2-.2s-.2 0-.3-.1v-.2c.1 0 .3-.1.6-.1.2 0 .5 0 .6.1v.2c-.1 0-.2.1-.3.1-.1 0-.1.1-.1.1 0 .1.4.1.9.1h1.3c.1 0 .1-.2 0-.2s-.2 0-.3-.1v-.2c.1 0 .3-.1.4-.1s.3 0 .4.1v.5c-.4.2-.7.3-.8.3s0 .1 0 .1c0 .1.2.1.4 0h.2c.7 0 1.2.6 1.2 1.2 0 .7-.6 1.2-1.2 1.2-.7 0-1.2-.6-1.2-1.2v-.4c.3-.3.5-.6.4-.7 0-.1-.3.2-.6.5-.3.4-.6.7-.6.7h-.3c-.2 0-.5.5-.8 1 0 0 0 .1-.7.1s-1.2-.6-1.2-1.2.6-1.1 1.2-1.1z" class="st19"/>
    <path class="st23" d="M767.4 247.4c0 .6.5 1.2 1.2 1.2h31.1c.6 0 1.2-.5 1.2-1.2v-14.5c0-.6-.5-1.2-1.2-1.2h-31.1c-.6 0-1.2.5-1.2 1.2v14.5zm25.9-6.1c0-.6.1-1.2.2-1.2s.4.4.5.9c.2.5.4.5.6 0 .2-.5.4-.9.5-.9.1 0 .2.5.2 1.2v.3c0 .6-.1 1.2-.2 1.2s-.2-.5-.2-1-.2-.6-.3 0c-.2.6-.4 1-.4 1l-.4-1c-.2-.6-.3-.6-.3 0s-.1 1-.2 1-.2-.5-.2-1.2v-.3zm-2.3-1h-.2c-.1 0-.3-.1-.3-.3s.1-.3.3-.3h.1c.5 0 1-.3 1-.9 0-.6-.4-.9-.9-.9h-.5c-.3.3-.7.6-.8.5-.1-.1.2-.5.6-1h.7c.9 0 1.5.5 1.5 1.4v.7c-.5.3-.5.8.1 1.1v.8c0 .9-.6 1.5-1.6 1.5h-.8c-.4-.5-.7-.9-.6-1 .1-.1.5.1.8.5h.5c.6 0 1-.4 1-1 .1-.8-.3-1.1-.9-1.1zm-4.8-2.6c0-.2.5-.3 1.2-.3h.6c.6 0 1.2.1 1.2.2s-.2.7-.4 1.3l-.9 2.7c-.2.6-.5 1.1-.7 1.1s-.2-.5 0-1.1l.9-2.5c.2-.6-.1-1.1-.7-1.1s-1.2-.1-1.2-.3zm-3.6 1c0-.9.7-1.3 1.5-1.3s1.5.4 1.5 1.3v.7c-.5.3-.5.9 0 1.3 0 0 .1.1.1.8 0 .9-.7 1.4-1.6 1.4-.9 0-1.6-.5-1.6-1.4 0-.7.1-.8.1-.8.5-.4.5-.9 0-1.3v-.7zm-2.2-.6c.3-.4.8-.7.9-.7s.3.5.3 1.2v3c0 .6-.1 1.2-.3 1.2s-.3-.5-.3-1.2v-2.1c0-.6-.2-1-.4-.7s-.5.4-.6.2c-.2-.1 0-.5.4-.9zm-8.1 1.3h.2c.2.1.5.1.6-.1.1-.1.2-.4.2-.4s-.1-.2-.2-.2-.2 0-.3-.1v-.2c.1 0 .3-.1.6-.1.2 0 .5 0 .6.1v.2c-.1 0-.2.1-.3.1-.1 0-.1.1-.1.1 0 .1.4.1.9.1h1.3c.1 0 .1-.2 0-.2s-.2 0-.3-.1v-.2c.1 0 .3-.1.4-.1s.3 0 .4.1v.5c-.4.2-.7.3-.8.3s0 .1 0 .1c0 .1.2.1.4 0h.2c.7 0 1.2.6 1.2 1.2 0 .7-.6 1.2-1.2 1.2-.7 0-1.2-.6-1.2-1.2v-.4c.3-.3.5-.6.4-.7s-.3.2-.6.5c-.3.4-.6.7-.6.7h-.3c-.2 0-.5.5-.8 1 0 0 0 .1-.7.1s-1.2-.6-1.2-1.2c0-.5.6-1.1 1.2-1.1z"/>
    <path d="M772.3 241.9h.5c.2-.4.2-.8 0-.8h-.6v-.2c0-.1.2-.3.3-.5s.2-.4 0-.5h-.2c-.5 0-.9.4-.9.9 0 .7.4 1.1.9 1.1z" class="st19"/>
    <path class="st23" d="M772.3 241.6h.5c.2-.4.2-.8 0-.8h-.6v-.2c0-.1.2-.3.3-.5s.2-.4 0-.5h-.2c-.5 0-.9.4-.9.9 0 .6.4 1.1.9 1.1z"/>
    <path d="M774.6 240.2c.2-.3.2-.5-.2-.5s-.5.2-.4.5c.1.3.4.3.6 0z" class="st19"/>
    <path class="st23" d="M774.6 239.8c.2-.3.2-.5-.2-.5s-.5.2-.4.5c.1.3.4.3.6 0z"/>
    <path d="M773.7 240.3c-.1-.3-.3-.4-.3-.3-.1.1-.1.3 0 .4.1.1.3.5.4.5s0-.3-.1-.6z" class="st19"/>
    <path class="st23" d="M773.7 239.9c-.1-.3-.3-.4-.3-.3-.1.1-.1.3 0 .4s.3.5.4.5 0-.3-.1-.6z"/>
    <path d="M772.9 240.9c.2 0 .3-.1.2-.2 0-.1-.2-.2-.3-.1-.1.2 0 .3.1.3z" class="st19"/>
    <path class="st23" d="M772.9 240.5c.2 0 .3-.1.2-.2 0-.1-.2-.2-.3-.1-.1.2 0 .3.1.3z"/>
    <path class="st13" d="M781 238.3v4.7h1v-6h-1l-1.3 1.5.4.6zm1.5 3.1c0 .9.6 1.4 1.6 1.4.9 0 1.6-.5 1.6-1.4 0-.7-.5-1.2-1-1.4.5-.2 1-.6 1-1.3 0-.9-.7-1.3-1.5-1.3s-1.5.4-1.5 1.3c0 .7.5 1.1 1 1.3-.7.2-1.2.7-1.2 1.4zm.7-2.6c0-.5.3-.9.9-.9.5 0 .9.3.9.9 0 .7-.7.9-.9 1-.3-.1-.9-.3-.9-1zm.9 1.5c.2 0 .9.4.9 1.1 0 .6-.4.9-.9.9s-.9-.3-.9-.9c-.1-.7.6-1.1.9-1.1zm2.7 2.7h.6l1.6-5.1v-.9h-3v1h2.4zm4.3-.7c-.5 0-.9-.3-1.1-.7l-.4.4c.3.5.8.9 1.6.9 1 0 1.6-.6 1.6-1.5 0-.8-.5-1.2-1-1.3.5-.1.9-.6.9-1.2 0-.9-.6-1.4-1.5-1.4-.7 0-1.2.3-1.5.8l.4.4c.3-.4.6-.6 1.1-.6.5 0 .9.3.9.9 0 .6-.2.9-.8.9h-.2v.6h.2c.5 0 .9.2.9 1-.1.4-.5.8-1.1.8zm2.9-1.6l.3 2.3h.2l.5-2.3v2.3-3l-.6 1.9-.6-1.9h-.8v3h1z"/>
    <path class="st24" d="M774 240.7l-.1-.2h-.4v.4h.6c0-.1-.1-.2-.1-.2zm-.8-.9l.3-.4-.1-.3v-.1l-.5.5c.2.2.3.2.3.3zm-1 .9c0 .1.1.1.1.1h.9v-.4h-.6l.4-.4-.2-.2-.6.7v.2zm1.6-1.7l.1.2h1.3l-.9 1.1.1.3c0 .1 0 .1-.1.2l1.1-1.4-.1-.2v-.1h-1.7l.2-.1z"/>
    <path class="st24" d="M772.3 241.9c.6 0 1.1-.5 1.2-1.1v-.4c0-.3-.1-.5-.3-.7-.1-.1-.2-.1-.2-.2-.2-.1-.4-.2-.6-.2-.7 0-1.2.6-1.2 1.2-.1.8.5 1.4 1.1 1.4zm0-2.2c.2 0 .3.1.5.1.1.1.2.1.2.2.1.1.2.3.2.4v.4c-.1.4-.4.8-.9.8s-.9-.4-.9-.9c0-.6.4-1 .9-1zm2 .9l-.1-.3-.4-1.1-.1-.2c0 .1 0 .2-.1.2s-.1 0-.1-.1l.1.3.4 1.1.1.2c0 .1.1.1.1.1.1-.1.1-.2.1-.2zm2-.9c.5 0 .9.4.9.9s-.4.9-.9.9-.9-.4-.9-.9c0-.3.1-.5.3-.7l-.1-.3c-.3.2-.5.6-.5 1 0 .7.6 1.2 1.2 1.2.7 0 1.2-.6 1.2-1.2 0-.7-.6-1.2-1.2-1.2-.2 0-.3 0-.5.1l.2.3c.1-.1.2-.1.3-.1zm-1-.6s0-.1 0 0c0-.1 0 0 0 0zm0-.1c.1 0 0 0 0 0z"/>
    <path class="st24" d="M775.4 239.3c-.1 0-.1-.1-.1-.1l.1.2.2.3.1.3.4.8c0 .1.1.1.1.1h.1c.1 0 .1-.1.1-.2l-.4-.8-.2-.3-.1-.2h-.3zm.6-.2c0 .1-.1.2-.2.2.4 0 .7-.3.7-.7 0 .1-.1.2-.2.2h-.2c-.1.1-.2.2-.3.2.1-.1.2 0 .2.1z"/>
    <path class="st24" d="M775.3 239s0 .1 0 0l-.1.1c0 .1.1.1.1.1h.4c.1 0 .2-.1.2-.2s-.1-.2-.2-.2l-.4.2c.1-.1.1 0 0 0zm1.2-.4c0-.1-.1-.2-.2-.2h-.5c-.1 0-.2.1-.2.2s.1.2.2.2h.5l.2-.2zm-3 .5c0 .1.1.1.1.1.1 0 .1-.1.1-.2v-.1l-.1-.2h-.3l.2.4zm.4-.4c.1 0 .2-.1.2-.2s-.1-.2-.2-.2h-.9c-.1 0-.2.1-.2.2s.1.2.2.2h.9z"/>
    <path d="M730.1 247.8c0 .6.5 1.2 1.2 1.2h31.1c.6 0 1.2-.5 1.2-1.2v-14.5c0-.6-.5-1.2-1.2-1.2h-31.1c-.6 0-1.2.5-1.2 1.2v14.5zm5.3-5.9c0 .1-.1.2-.3.2l-.2.1c-.1 0-.3-.1-.4-.1l-.1-.1-.1-.2c0-.4.2-.7.4-.7.3 0 .5.1.6.3v.2c.1 0 .1.1.1.3zm19.3-.2c0-.6.1-1.2.2-1.2s.4.4.5.9c.2.5.4.5.6 0 .2-.5.4-.9.5-.9.1 0 .2.5.2 1.2v.3c0 .6-.1 1.2-.2 1.2s-.2-.5-.2-1-.2-.6-.3 0c-.2.6-.4 1-.4 1l-.4-1c-.2-.6-.3-.6-.3 0s-.1 1-.2 1-.2-.5-.2-1.2v-.3zm-2.3-1h-.2c-.1 0-.3-.1-.3-.3 0-.2.1-.3.3-.3h.1c.5 0 1-.3 1-.9 0-.6-.4-.9-.9-.9h-.5c-.3.3-.7.6-.8.5-.1-.1.2-.5.6-1h.7c.9 0 1.5.5 1.5 1.4v.7c-.5.3-.5.8.1 1.1v.8c0 .9-.6 1.5-1.6 1.5h-.8c-.4-.5-.7-.9-.6-1 .1-.1.5.1.8.5h.5c.6 0 1-.4 1-1 .1-.9-.4-1.1-.9-1.1zm-5.2.8c0-.2.3-.7.6-1.3l.8-1.4c.3-.6.8-1 1-1s.4.5.4 1.2v1.1c0 .6.1 1.2.3 1.2s.3.1.3.3c0 .2-.1.3-.3.3s-.3.3-.3.7c0 .4-.1.7-.3.7-.2 0-.3-.3-.3-.7 0-.4-.5-.7-1-.7-.7-.1-1.2-.2-1.2-.4zm-2.2-.8h-.2c-.1 0-.3-.1-.3-.3 0-.2.1-.3.3-.3h.1c.5 0 1-.3 1-.9 0-.6-.4-.9-.9-.9h-.5c-.3.3-.7.6-.8.5-.1-.1.2-.5.6-1h.7c.9 0 1.5.5 1.5 1.4v.7c-.5.3-.5.8.1 1.1v.8c0 .9-.6 1.5-1.6 1.5h-.8c-.4-.5-.7-.9-.6-1 .1-.1.5.1.8.5h.5c.6 0 1-.4 1-1 .1-.9-.4-1.1-.9-1.1zm-3.7-2.9c.8 0 1.5.5 1.5 1.4 0 .9-1.3 2.5-1.3 2.5-.4.5-.3.9.3.9s1 .1 1 .3c0 .2-.5.3-1.2.3h-.6c-.6 0-1.2-.1-1.2-.3 0-.1.3-.7.8-1.1 0 0 1.5-1.8 1.5-2.5 0-.6-.4-.9-.8-.9h-.5c-.3.4-.7.6-.8.5-.1-.1.2-.6.6-1 0-.1 0-.1.7-.1zm-5.1 1.3c.1-.1.3-.3.5-.2.1 0 .3.1.4.1.1.1.2.3.3.6.1.5 0 .6-.1 1.2l-.1.3c-.2.3-.5.5-.7.5-.2-.1-.4-.3-.4-.6l-.1-.2c-.1-.2-.1-.5-.1-.8 0-.4.1-.6.3-.9zm-.5 3.2v-.1c.1-.2.3-.3.6-.2.2.1.4.4.3.8l-.2.2-.1.1c-.1 0-.3.1-.4.1l-.2-.1c-.1-.1-.2-.2-.2-.3.1-.2.2-.3.2-.5zm-1.6-3.7l.3-.6c.1-.1.2-.1.4-.1s.4.1.5.3c.2.3.2.5.2.9 0 .3-.1.6-.2.8l-.1.2c0 .3-.2.5-.4.5s-.5-.2-.6-.5v-.3c-.3-.6-.3-.8-.1-1.2z" class="st19"/>
    <path class="st11" d="M730.1 247.4c0 .6.5 1.2 1.2 1.2h31.1c.6 0 1.2-.5 1.2-1.2v-14.5c0-.6-.5-1.2-1.2-1.2h-31.1c-.6 0-1.2.5-1.2 1.2v14.5zm5.3-5.9c0 .1-.1.2-.3.2l-.2.1c-.1 0-.3-.1-.4-.1l-.1-.1-.1-.2c0-.4.2-.7.4-.7s.5.1.6.3v.2c.1 0 .1.2.1.3zm19.3-.2c0-.6.1-1.2.2-1.2s.4.4.5.9.4.5.6 0 .4-.9.5-.9c.1 0 .2.5.2 1.2v.3c0 .6-.1 1.2-.2 1.2s-.2-.5-.2-1-.2-.6-.3 0c-.2.6-.4 1-.4 1l-.4-1c-.2-.6-.3-.6-.3 0s-.1 1-.2 1-.2-.5-.2-1.2v-.3zm-2.3-1h-.2c-.1 0-.3-.1-.3-.3s.1-.3.3-.3h.1c.5 0 1-.3 1-.9 0-.6-.4-.9-.9-.9h-.5c-.3.3-.7.6-.8.5-.1-.1.2-.5.6-1h.7c.9 0 1.5.5 1.5 1.4v.7c-.5.3-.5.8.1 1.1v.8c0 .9-.6 1.5-1.6 1.5h-.8c-.4-.5-.7-.9-.6-1 .1-.1.5.1.8.5h.5c.6 0 1-.4 1-1 .1-.8-.4-1.1-.9-1.1zm-5.2.8c0-.2.3-.7.6-1.3l.8-1.4c.3-.6.8-1 1-1s.4.5.4 1.2v1.1c0 .6.1 1.2.3 1.2s.3.1.3.3-.1.3-.3.3-.3.3-.3.7-.1.7-.3.7c-.2 0-.3-.3-.3-.7s-.5-.7-1-.7c-.7-.1-1.2-.2-1.2-.4zm-2.2-.8h-.2c-.1 0-.3-.1-.3-.3s.1-.3.3-.3h.1c.5 0 1-.3 1-.9 0-.6-.4-.9-.9-.9h-.5c-.3.3-.7.6-.8.5-.1-.1.2-.5.6-1h.7c.9 0 1.5.5 1.5 1.4v.7c-.5.3-.5.8.1 1.1v.8c0 .9-.6 1.5-1.6 1.5h-.8c-.4-.5-.7-.9-.6-1 .1-.1.5.1.8.5h.5c.6 0 1-.4 1-1 .1-.8-.4-1.1-.9-1.1zm-3.7-2.9c.8 0 1.5.5 1.5 1.4 0 .9-1.3 2.5-1.3 2.5-.4.5-.3.9.3.9s1 .1 1 .3-.5.3-1.2.3h-.6c-.6 0-1.2-.1-1.2-.3s.3-.7.8-1.1c0 0 1.5-1.8 1.5-2.5 0-.6-.4-.9-.8-.9h-.5c-.3.4-.7.6-.8.5s.2-.6.6-1c0-.1 0-.1.7-.1zm-5.1 1.4c.1-.1.3-.3.5-.2.1 0 .3.1.4.1.1.1.2.3.3.6.1.5 0 .6-.1 1.2l-.1.3c-.2.3-.5.5-.7.5-.2-.1-.4-.3-.4-.6l-.1-.2c-.1-.2-.1-.5-.1-.8 0-.5.1-.6.3-.9zm-.5 3.1v-.1c.1-.2.3-.3.6-.2.2.1.4.4.3.8l-.2.2-.1.1c-.1 0-.3.1-.4.1l-.2-.1c-.1-.1-.2-.2-.2-.3.1-.2.2-.3.2-.5zm-1.6-3.7l.3-.6c.1-.1.2-.1.4-.1s.4.1.5.3c.2.3.2.5.2.9 0 .3-.1.6-.2.8l-.1.2c0 .3-.2.5-.4.5s-.5-.2-.6-.5v-.3c-.3-.6-.3-.7-.1-1.2z"/>
    <path d="M749.3 239.7c0-.6-.3-.7-.6-.1l-.4.7c-.3.6-.2 1 .2 1s.7-.5.7-1.2v-.4z" class="st19"/>
    <path class="st11" d="M749.3 239.3c0-.6-.3-.7-.6-.1l-.4.7c-.3.6-.2 1 .2 1s.7-.5.7-1.2v-.4z"/>
    <path class="st13" d="M741.3 237.9c.5 0 .9.3.9.9 0 .8-.2 1.4-2.2 3.4v.8h3v-1h-2.3c1.4-2 2.1-2.4 2.1-3.3 0-.9-.7-1.4-1.5-1.4-.7 0-1.2.3-1.5.9l.4.4c.2-.4.6-.7 1.1-.7zm3.7 4.4c-.5 0-.9-.3-1.1-.7l-.4.4c.3.5.8.9 1.6.9 1 0 1.6-.6 1.6-1.5 0-.8-.5-1.2-1-1.3.5-.1.9-.6.9-1.2 0-.9-.6-1.4-1.5-1.4-.7 0-1.2.3-1.5.8l.4.4c.3-.4.6-.6 1.1-.6.5 0 .9.3.9.9 0 .6-.2.9-.7.9h-.2v.6h.2c.5 0 .9.2.9 1-.1.4-.5.8-1.2.8zm4 .7h1v-6h-.9l-2.1 3.8v.2h2v2zm-1.2-2l1.2-2.9v2.9h-1.2zm4.6 1.3c-.5 0-.9-.3-1.1-.7l-.4.4c.3.5.8.9 1.6.9 1 0 1.6-.6 1.6-1.5 0-.8-.5-1.2-1-1.3.5-.1.9-.6.9-1.2 0-.9-.6-1.4-1.5-1.4-.7 0-1.2.3-1.5.8l.4.4c.3-.4.6-.6 1.1-.6.5 0 .9.3.9.9 0 .6-.4.9-.9.9h-.4v.6h.4c.5 0 1 .2 1 1-.1.4-.4.8-1.1.8zm2.6-1.6l.7 2.3h.1l.2-2.3v2.3h1v-3h-.6l-.7 1.9-.6-1.9h-.1v3z"/>
    <path class="st25" d="M734.3 240.2l.9-.1s0-.5.1-.6c.1-.2.2-.5.2-.8 0-.4 0-.6-.2-.9-.1-.2-.3-.3-.5-.3-.1 0-.3 0-.4.1-.2.1-.3.3-.3.6-.1.5-.1.6 0 1.2 0 .2.2.8.2.8zm1.7.8l.9.2s.3-.6.3-.8c.1-.5.2-.7.1-1.2 0-.2-.1-.5-.3-.6-.1-.1-.2-.1-.4-.1s-.4.1-.5.2c-.2.3-.3.5-.3.9 0 .3.1.6.1.8.2.2.1.6.1.6zm-.1 1.7c.2.1.3.1.3.1.1 0 .2-.1.3-.2.2-.2.3-.9.3-.9l-.9-.2s-.1.3-.2.5-.1.3-.1.5c.1 0 .2.1.3.2zm-.7-2.1l-.9.1s0 .7.2.9c.1.1.2.2.3.2h.3c.1 0 .2-.1.3-.2v-.5c-.1-.2-.2-.5-.2-.5z"/>
    <path d="M831.1 193c-.6 0-1.2.5-1.2 1.2v33.1c0 .6.5 1.2 1.2 1.2h43.3c.6 0 1.2-.5 1.2-1.2v-33.1c0-.6-.5-1.2-1.2-1.2h-43.3zm34.8 19.4c0 .3-.5.5-.6.7-.1.3.3.6.2.9-.1.3-.6.4-.6.7-.1.3.2.7.1.9-.1.3-.6.3-.7.6-.1.2.1.7 0 .9-.1.2-.6.3-.8.5-.1.2.1.7-.1.9-.2.2-.7.2-.8.4-.2.2 0 .7-.2.9-.2.2-.7.1-.9.3-.2.2-.1.7-.3.9-.2.2-.7 0-.9.2-.2.2-.2.7-.4.8-.2.1-.7-.1-.9 0-.2.1-.3.6-.5.8-.2.1-.7-.2-.9-.1-.3.1-.4.6-.6.7-.3.1-.6-.3-.9-.2-.3.1-.4.6-.7.6-.3.1-.6-.3-.9-.3-.3 0-.5.5-.8.5-.3 0-.6-.4-.8-.4-.3 0-.6.4-.8.4-.3 0-.5-.5-.8-.5-.3 0-.6.4-.9.3-.3-.1-.4-.5-.7-.6-.3-.1-.7.3-.9.2-.3-.1-.4-.6-.6-.7-.3-.1-.7.2-.9.1-.2-.1-.3-.6-.5-.8-.2-.1-.7.1-.9 0-.2-.1-.2-.7-.4-.8-.2-.2-.7 0-.9-.2-.2-.2-.1-.7-.3-.9-.2-.2-.7-.1-.9-.3-.2-.2 0-.7-.2-.9-.2-.2-.7-.2-.8-.4-.2-.2 0-.7-.1-.9-.1-.2-.7-.2-.8-.5-.1-.2.1-.7 0-.9-.1-.2-.6-.3-.7-.6-.1-.3.2-.7.1-.9-.1-.3-.6-.4-.6-.7-.1-.3.3-.6.2-.9-.1-.3-.5-.5-.6-.7 0-.3.4-.6.4-.9 0-.3-.5-.5-.5-.8 0-.3.4-.5.5-.8 0-.3-.4-.6-.4-.9 0-.3.5-.5.6-.7.1-.3-.3-.6-.2-.9.1-.3.6-.4.6-.7.1-.3-.2-.7-.1-.9.1-.3.6-.3.7-.6.1-.2-.1-.7 0-.9.1-.2.6-.3.8-.5.1-.2-.1-.7.1-.9.2-.2.7-.2.8-.4.2-.2 0-.7.2-.9.2-.2.7-.1.9-.3.2-.2.1-.7.3-.9.2-.2.7 0 .9-.2.2-.2.2-.7.4-.8.2-.1.7.1.9 0 .2-.1.3-.6.5-.8.2-.1.7.2.9.1.3-.1.4-.6.6-.7.3-.1.6.3.9.2.3-.1.4-.6.7-.6.3-.1.6.3.9.3.3 0 .5-.5.8-.5.3 0 .6.4.8.4.3 0 .6-.4.8-.4.3 0 .5.5.8.5.3 0 .6-.4.9-.3.3.1.4.5.7.6.3.1.7-.3.9-.2.3.1.4.6.6.7.3.1.7-.2.9-.1.2.1.3.6.5.8.2.1.7-.1.9 0 .2.1.2.7.4.8.2.2.7 0 .9.2.2.2.1.7.3.9.2.2.7.1.9.3.2.2 0 .7.2.9.2.2.7.2.8.4.2.2 0 .7.1.9.1.2.7.2.8.5.1.2-.1.7 0 .9.1.2.6.3.7.6.1.3-.2.7-.1.9.1.3.6.4.6.7.1.3-.3.6-.2.9.1.3.5.5.6.7 0 .3-.4.6-.4.9 0 .3.5.5.5.8 0 .3-.4.5-.5.8 0 .3.5.6.4.9z" class="st19"/>
    <path class="st13" d="M831.1 192.6c-.6 0-1.2.5-1.2 1.2v33.1c0 .6.5 1.2 1.2 1.2h43.3c.6 0 1.2-.5 1.2-1.2v-33.1c0-.6-.5-1.2-1.2-1.2h-43.3zm34.8 19.4c0 .3-.5.5-.6.7-.1.3.3.6.2.9-.1.3-.6.4-.6.7-.1.3.2.7.1.9-.1.3-.6.3-.7.6-.1.2.1.7 0 .9-.1.2-.6.3-.8.5-.1.2.1.7-.1.9-.2.2-.7.2-.8.4-.2.2 0 .7-.2.9-.2.2-.7.1-.9.3-.2.2-.1.7-.3.9-.2.2-.7 0-.9.2-.2.2-.2.7-.4.8-.2.1-.7-.1-.9 0-.2.1-.3.6-.5.8-.2.1-.7-.2-.9-.1-.3.1-.4.6-.6.7-.3.1-.6-.3-.9-.2-.3.1-.4.6-.7.6-.3.1-.6-.3-.9-.3-.3 0-.5.5-.8.5-.3 0-.6-.4-.8-.4-.3 0-.6.4-.8.4-.3 0-.5-.5-.8-.5-.3 0-.6.4-.9.3-.3-.1-.4-.5-.7-.6-.3-.1-.7.3-.9.2-.3-.1-.4-.6-.6-.7-.3-.1-.7.2-.9.1-.2-.1-.3-.6-.5-.8-.2-.1-.7.1-.9 0-.2-.1-.2-.7-.4-.8-.2-.2-.7 0-.9-.2-.2-.2-.1-.7-.3-.9-.2-.2-.7-.1-.9-.3-.2-.2 0-.7-.2-.9-.2-.2-.7-.2-.8-.4-.2-.2 0-.7-.1-.9-.1-.2-.7-.2-.8-.5-.1-.2.1-.7 0-.9-.1-.2-.6-.3-.7-.6-.1-.3.2-.7.1-.9-.1-.3-.6-.4-.6-.7-.1-.3.3-.6.2-.9-.1-.3-.5-.5-.6-.7 0-.3.4-.6.4-.9 0-.3-.5-.5-.5-.8 0-.3.4-.5.5-.8 0-.3-.4-.6-.4-.9 0-.3.5-.5.6-.7.1-.3-.3-.6-.2-.9.1-.3.6-.4.6-.7.1-.3-.2-.7-.1-.9.1-.3.6-.3.7-.6.1-.2-.1-.7 0-.9.1-.2.6-.3.8-.5.1-.2-.1-.7.1-.9.2-.2.7-.2.8-.4.2-.2 0-.7.2-.9.2-.2.7-.1.9-.3.2-.2.1-.7.3-.9.2-.2.7 0 .9-.2.2-.2.2-.7.4-.8.2-.1.7.1.9 0 .2-.1.3-.6.5-.8.2-.1.7.2.9.1.3-.1.4-.6.6-.7.3-.1.6.3.9.2.3-.1.4-.6.7-.6.3-.1.6.3.9.3.3 0 .5-.5.8-.5.3 0 .6.4.8.4.3 0 .6-.4.8-.4.3 0 .5.5.8.5.3 0 .6-.4.9-.3.3.1.4.5.7.6.3.1.7-.3.9-.2.3.1.4.6.6.7.3.1.7-.2.9-.1.2.1.3.6.5.8.2.1.7-.1.9 0 .2.1.2.7.4.8.2.2.7 0 .9.2.2.2.1.7.3.9.2.2.7.1.9.3.2.2 0 .7.2.9.2.2.7.2.8.4.2.2 0 .7.1.9.1.2.7.2.8.5.1.2-.1.7 0 .9.1.2.6.3.7.6.1.3-.2.7-.1.9.1.3.6.4.6.7.1.3-.3.6-.2.9.1.3.5.5.6.7 0 .3-.4.6-.4.9 0 .3.5.5.5.8 0 .3-.4.5-.5.8 0 .3.5.6.4.9z"/>
    <path d="M865.6 209.9c0-.3.4-.6.4-.9 0-.3-.5-.5-.6-.7-.1-.3.3-.6.2-.9-.1-.3-.6-.4-.6-.7-.1-.3.2-.7.1-.9-.1-.3-.6-.3-.7-.6-.1-.2.1-.7 0-.9-.1-.2-.6-.3-.8-.5-.1-.2.1-.7-.1-.9-.2-.2-.7-.2-.8-.4-.2-.2 0-.7-.2-.9-.2-.2-.7-.1-.9-.3-.2-.2-.1-.7-.3-.9-.2-.2-.7 0-.9-.2-.2-.2-.2-.7-.4-.8-.2-.1-.7.1-.9 0-.2-.1-.3-.6-.5-.8-.2-.1-.7.2-.9.1-.3-.1-.4-.6-.6-.7-.3-.1-.6.3-.9.2-.3-.1-.4-.6-.7-.6-.3-.1-.6.3-.9.3-.3 0-.5-.5-.8-.5-.3 0-.6.4-.8.4-.3 0-.6-.4-.8-.4-.3 0-.5.5-.8.5-.3 0-.6-.4-.9-.3-.3.1-.4.5-.7.6-.3.1-.7-.3-.9-.2-.3.1-.4.6-.6.7-.3.1-.7-.2-.9-.1-.2.1-.3.6-.5.8-.2.1-.7-.1-.9 0-.2.1-.2.7-.4.8-.2.2-.7 0-.9.2-.2.2-.1.7-.3.9-.2.2-.7.1-.9.3-.2.2 0 .7-.2.9-.2.2-.7.2-.8.4-.2.2 0 .7-.1.9-.1.2-.7.2-.8.5-.1.2.1.7 0 .9-.1.2-.6.3-.7.6-.1.3.2.7.1.9-.1.3-.6.4-.6.7-.1.3.3.6.2.9-.1.3-.5.5-.6.7 0 .3.4.6.4.9 0 .3-.5.5-.5.8 0 .3.4.5.5.8 0 .3-.4.6-.4.9 0 .3.5.5.6.7.1.3-.3.6-.2.9.1.3.6.4.6.7.1.3-.2.7-.1.9.1.3.6.3.7.6.1.2-.1.7 0 .9.1.2.6.3.8.5.1.2-.1.7.1.9.2.2.7.2.8.4.2.2 0 .7.2.9.2.2.7.1.9.3.2.2.1.7.3.9.2.2.7 0 .9.2.2.2.2.7.4.8.2.1.7-.1.9 0 .2.1.3.6.5.8.2.1.7-.2.9-.1.3.1.4.6.6.7.3.1.6-.3.9-.2.3.1.4.6.7.6.3.1.6-.3.9-.3.3 0 .5.5.8.5.3 0 .6-.4.8-.4.3 0 .6.4.8.4.3 0 .5-.5.8-.5.3 0 .6.4.9.3.3-.1.4-.5.7-.6.3-.1.7.3.9.2.3-.1.4-.6.6-.7.3-.1.7.2.9.1.2-.1.3-.6.5-.8.2-.1.7.1.9 0 .2-.1.2-.7.4-.8.2-.2.7 0 .9-.2.2-.2.1-.7.3-.9.2-.2.7-.1.9-.3.2-.2 0-.7.2-.9.2-.2.7-.2.8-.4.2-.2 0-.7.1-.9.1-.2.7-.2.8-.5.1-.2-.1-.7 0-.9.1-.2.6-.3.7-.6.1-.3-.2-.7-.1-.9.1-.3.6-.4.6-.7.1-.3-.3-.6-.2-.9.1-.3.5-.5.6-.7 0-.3-.4-.6-.4-.9 0-.3.5-.5.5-.8-.1-.2-.5-.5-.5-.8zM852.7 223c-6.8 0-12.2-5.5-12.2-12.2s5.5-12.2 12.2-12.2c6.8 0 12.2 5.5 12.2 12.2s-5.4 12.2-12.2 12.2z" class="st19"/>
    <path class="st13" d="M865.6 209.5c0-.3.4-.6.4-.9 0-.3-.5-.5-.6-.7-.1-.3.3-.6.2-.9-.1-.3-.6-.4-.6-.7-.1-.3.2-.7.1-.9-.1-.3-.6-.3-.7-.6-.1-.2.1-.7 0-.9-.1-.2-.6-.3-.8-.5-.1-.2.1-.7-.1-.9-.2-.2-.7-.2-.8-.4-.2-.2 0-.7-.2-.9-.2-.2-.7-.1-.9-.3-.2-.2-.1-.7-.3-.9-.2-.2-.7 0-.9-.2-.2-.2-.2-.7-.4-.8-.2-.1-.7.1-.9 0-.2-.1-.3-.6-.5-.8-.2-.1-.7.2-.9.1-.3-.1-.4-.6-.6-.7-.3-.1-.6.3-.9.2-.3-.1-.4-.6-.7-.6-.3-.1-.6.3-.9.3-.3 0-.5-.5-.8-.5-.3 0-.6.4-.8.4-.3 0-.6-.4-.8-.4-.3 0-.5.5-.8.5-.3 0-.6-.4-.9-.3-.3.1-.4.5-.7.6-.3.1-.7-.3-.9-.2-.3.1-.4.6-.6.7-.3.1-.7-.2-.9-.1-.2.1-.3.6-.5.8-.2.1-.7-.1-.9 0-.2.1-.2.7-.4.8-.2.2-.7 0-.9.2-.2.2-.1.7-.3.9-.2.2-.7.1-.9.3-.2.2 0 .7-.2.9-.2.2-.7.2-.8.4-.2.2 0 .7-.1.9-.1.2-.7.2-.8.5-.1.2.1.7 0 .9-.1.2-.6.3-.7.6-.1.3.2.7.1.9-.1.3-.6.4-.6.7-.1.3.3.6.2.9-.1.3-.5.5-.6.7 0 .3.4.6.4.9 0 .3-.5.5-.5.8 0 .3.4.5.5.8 0 .3-.4.6-.4.9 0 .3.5.5.6.7.1.3-.3.6-.2.9.1.3.6.4.6.7.1.3-.2.7-.1.9.1.3.6.3.7.6.1.2-.1.7 0 .9.1.2.6.3.8.5.1.2-.1.7.1.9.2.2.7.2.8.4.2.2 0 .7.2.9.2.2.7.1.9.3.2.2.1.7.3.9.2.2.7 0 .9.2.2.2.2.7.4.8.2.1.7-.1.9 0 .2.1.3.6.5.8.2.1.7-.2.9-.1.3.1.4.6.6.7.3.1.6-.3.9-.2.3.1.4.6.7.6.3.1.6-.3.9-.3.3 0 .5.5.8.5.3 0 .6-.4.8-.4.3 0 .6.4.8.4.3 0 .5-.5.8-.5.3 0 .6.4.9.3.3-.1.4-.5.7-.6.3-.1.7.3.9.2.3-.1.4-.6.6-.7.3-.1.7.2.9.1.2-.1.3-.6.5-.8.2-.1.7.1.9 0 .2-.1.2-.7.4-.8.2-.2.7 0 .9-.2.2-.2.1-.7.3-.9.2-.2.7-.1.9-.3.2-.2 0-.7.2-.9.2-.2.7-.2.8-.4.2-.2 0-.7.1-.9.1-.2.7-.2.8-.5.1-.2-.1-.7 0-.9.1-.2.6-.3.7-.6.1-.3-.2-.7-.1-.9.1-.3.6-.4.6-.7.1-.3-.3-.6-.2-.9.1-.3.5-.5.6-.7 0-.3-.4-.6-.4-.9 0-.3.5-.5.5-.8-.1-.2-.5-.5-.5-.8zm-12.9 13.1c-6.8 0-12.2-5.5-12.2-12.2s5.5-12.2 12.2-12.2c6.8 0 12.2 5.5 12.2 12.2s-5.4 12.2-12.2 12.2z"/>
    <linearGradient id="SVGID_1_" gradientUnits="userSpaceOnUse" x1="852.749" y1="223.597" x2="852.749" y2="197.092">
      <stop offset="0" stop-color="#F7931E"/>
      <stop offset="1" stop-color="#FBB03B"/>
    </linearGradient>
    <path class="st26" d="M865.6 209.5c0-.3.4-.6.4-.9 0-.3-.5-.5-.6-.7-.1-.3.3-.6.2-.9-.1-.3-.6-.4-.6-.7-.1-.3.2-.7.1-.9-.1-.3-.6-.3-.7-.6-.1-.2.1-.7 0-.9-.1-.2-.6-.3-.8-.5-.1-.2.1-.7-.1-.9-.2-.2-.7-.2-.8-.4-.2-.2 0-.7-.2-.9-.2-.2-.7-.1-.9-.3-.2-.2-.1-.7-.3-.9-.2-.2-.7 0-.9-.2-.2-.2-.2-.7-.4-.8-.2-.1-.7.1-.9 0-.2-.1-.3-.6-.5-.8-.2-.1-.7.2-.9.1-.3-.1-.4-.6-.6-.7-.3-.1-.6.3-.9.2-.3-.1-.4-.6-.7-.6-.3-.1-.6.3-.9.3-.3 0-.5-.5-.8-.5-.3 0-.6.4-.8.4-.3 0-.6-.4-.8-.4-.3 0-.5.5-.8.5-.3 0-.6-.4-.9-.3-.3.1-.4.5-.7.6-.3.1-.7-.3-.9-.2-.3.1-.4.6-.6.7-.3.1-.7-.2-.9-.1-.2.1-.3.6-.5.8-.2.1-.7-.1-.9 0-.2.1-.2.7-.4.8-.2.2-.7 0-.9.2-.2.2-.1.7-.3.9-.2.2-.7.1-.9.3-.2.2 0 .7-.2.9-.2.2-.7.2-.8.4-.2.2 0 .7-.1.9-.1.2-.7.2-.8.5-.1.2.1.7 0 .9-.1.2-.6.3-.7.6-.1.3.2.7.1.9-.1.3-.6.4-.6.7-.1.3.3.6.2.9-.1.3-.5.5-.6.7 0 .3.4.6.4.9 0 .3-.5.5-.5.8 0 .3.4.5.5.8 0 .3-.4.6-.4.9 0 .3.5.5.6.7.1.3-.3.6-.2.9.1.3.6.4.6.7.1.3-.2.7-.1.9.1.3.6.3.7.6.1.2-.1.7 0 .9.1.2.6.3.8.5.1.2-.1.7.1.9.2.2.7.2.8.4.2.2 0 .7.2.9.2.2.7.1.9.3.2.2.1.7.3.9.2.2.7 0 .9.2.2.2.2.7.4.8.2.1.7-.1.9 0 .2.1.3.6.5.8.2.1.7-.2.9-.1.3.1.4.6.6.7.3.1.6-.3.9-.2.3.1.4.6.7.6.3.1.6-.3.9-.3.3 0 .5.5.8.5.3 0 .6-.4.8-.4.3 0 .6.4.8.4.3 0 .5-.5.8-.5.3 0 .6.4.9.3.3-.1.4-.5.7-.6.3-.1.7.3.9.2.3-.1.4-.6.6-.7.3-.1.7.2.9.1.2-.1.3-.6.5-.8.2-.1.7.1.9 0 .2-.1.2-.7.4-.8.2-.2.7 0 .9-.2.2-.2.1-.7.3-.9.2-.2.7-.1.9-.3.2-.2 0-.7.2-.9.2-.2.7-.2.8-.4.2-.2 0-.7.1-.9.1-.2.7-.2.8-.5.1-.2-.1-.7 0-.9.1-.2.6-.3.7-.6.1-.3-.2-.7-.1-.9.1-.3.6-.4.6-.7.1-.3-.3-.6-.2-.9.1-.3.5-.5.6-.7 0-.3-.4-.6-.4-.9 0-.3.5-.5.5-.8-.1-.2-.5-.5-.5-.8zm-12.9 13.1c-6.8 0-12.2-5.5-12.2-12.2s5.5-12.2 12.2-12.2c6.8 0 12.2 5.5 12.2 12.2s-5.4 12.2-12.2 12.2z"/>
    <linearGradient id="SVGID_2_" gradientUnits="userSpaceOnUse" x1="847.632" y1="200.907" x2="847.632" y2="200.298">
      <stop offset="0" stop-color="#FBB03B"/>
      <stop offset="1" stop-color="#F7931E"/>
    </linearGradient>
    <path class="st27" d="M847.9 200.4c-.1-.1-.2-.2-.4-.1l-.2.1.2.5.2-.1c.2-.1.3-.2.2-.4z"/>
    <linearGradient id="SVGID_3_" gradientUnits="userSpaceOnUse" x1="854.825" y1="200.398" x2="854.825" y2="199.261">
      <stop offset="0" stop-color="#FBB03B"/>
      <stop offset="1" stop-color="#F7931E"/>
    </linearGradient>
    <path class="st28" d="M854.7 200.4c.3.1.6-.1.6-.5.1-.3-.1-.6-.4-.7s-.6.1-.6.4c-.1.4.1.7.4.8z"/>
    <linearGradient id="SVGID_4_" gradientUnits="userSpaceOnUse" x1="854.93" y1="221.368" x2="854.93" y2="220.231">
      <stop offset="0" stop-color="#FBB03B"/>
      <stop offset="1" stop-color="#F7931E"/>
    </linearGradient>
    <path class="st29" d="M854.8 220.2c-.3.1-.5.3-.4.7.1.3.3.5.6.5.3-.1.5-.3.4-.7 0-.3-.3-.5-.6-.5z"/>
    <linearGradient id="SVGID_5_" gradientUnits="userSpaceOnUse" x1="852.749" y1="222.589" x2="852.749" y2="198.101">
      <stop offset="0" stop-color="#FBB03B"/>
      <stop offset="1" stop-color="#F7931E"/>
    </linearGradient>
    <path class="st30" d="M852.7 198.1c-6.8 0-12.2 5.5-12.2 12.2s5.5 12.2 12.2 12.2c6.8 0 12.2-5.5 12.2-12.2s-5.4-12.2-12.2-12.2zm7.3 3.3l-.2.2-.5-.4-.3.3.4.3-.2.2-.4-.3-.3.4.6.4-.2.2-.8-.6 1-1.3.9.6zm1.7 8.9c0 2.1-.7 4-1.9 5.5-1.6 2.1-4.2 3.5-7.1 3.5-2.8 0-5.3-1.3-7-3.3-1.3-1.5-2-3.5-2-5.7 0-5 4-9 9-9 5 .1 9 4.1 9 9zm-4-9.9c.1-.2.4-.3.7-.1.3.2.3.4.3.4l-.2.1s-.1-.2-.2-.3c-.1-.1-.3 0-.3.1-.1.3.6.6.3 1-.1.2-.4.3-.7.2-.3-.2-.4-.5-.4-.5l.2-.1s.1.2.3.3c.1.1.2.1.3-.1.2-.2-.5-.5-.3-1zm-1.8-.1l.4-1 .3.1-.4 1c-.1.2 0 .4.2.4.2.1.4 0 .5-.2l.4-1 .3.1-.4 1c-.1.3-.5.5-.8.3-.5 0-.6-.3-.5-.7zm-1.9-.6c.1-.5.5-.7 1-.7.5.1.8.5.7 1-.1.5-.5.8-1 .7-.5-.1-.8-.6-.7-1zm-1.9-.9h.3l.3.8c0 .1.1.2.1.2s0-.1.1-.2l.3-.8h.3l.1 1.6h-.3l-.1-.9v-.3l-.1.2-.3.6h-.3l-.3-.6c0-.1-.1-.3-.1-.3v.3l-.1.9h-.3l.4-1.5zm-2.1.3l.3.4c.1.1.1.2.1.2s0-.1.1-.2l.1-.5.3-.1-.3 1 .1.7-.3.1-.1-.7-.7-.8.4-.1zm-.6.2l.1.2-.6.2.1.4.5-.2.1.2-.5.2.1.4.7-.2.1.2-.9.3-.5-1.5.8-.2zm-2 .8c.2-.1.2-.1.3-.1.2 0 .3.1.4.3.1.2.1.4 0 .5h.1l.6.4-.3.2-.6-.4-.3.1.3.5-.3.1-.7-1.4.5-.2zm-1.5.9c.3-.2.6-.2.6-.2v.3s-.2 0-.4.1c-.3.2-.3.5-.1.8.2.3.5.3.8.1.2-.1.2-.4.2-.4l-.1-.2-.2.1-.2-.2.4-.3.5.7-.2.1v-.2s0 .2-.3.4c-.3.3-.8.2-1.1-.2-.3-.1-.3-.6.1-.9zm-1.4 2.1c0-.1.1-.1.2 0 .1 0 .1.1 0 .2-1.2 1.4-2.1 3.1-2.5 5 0 .1-.1.1-.2.1s-.1-.1-.1-.2c.4-1.9 1.3-3.7 2.6-5.1zm-3.3 7.9l.2-.7-.6-.4h.7l.2-.7.2.7h.7l-.6.4.2.7-.6-.4-.4.4zm3.6 6.8c-.1.1-.1 0-.2 0-1.4-1.5-2.3-3.4-2.7-5.4 0-.1 0-.1.1-.2.1 0 .1 0 .2.1.4 1.9 1.3 3.7 2.6 5.2.1.1.1.2 0 .3zm1.7 2.3l.1-.1s-.2 0-.5-.1c-.4-.2-.5-.7-.2-1.1.3-.4.8-.5 1.2-.2.3.2.4.5.4.5l-.2.1s-.1-.2-.3-.4c-.3-.2-.6-.1-.8.1-.2.3-.1.6.1.8.2.1.4.1.4.1l.1-.2-.2-.1.1-.2.4.3-.5.7-.1-.2zm1.7.2v.7l-.3-.1v-.7l-.3-.1-.3.5-.3-.1.7-1.5.5.2c.2.1.2.1.3.2.1.1.1.3 0 .5s-.3.3-.4.3l.1.1c0-.1 0-.1 0 0zm1.8-.2l-.6-.2-.1.4.5.2-.1.2-.5-.2-.2.5.7.2-.1.2-1-.3.5-1.5.9.3v.2zm.8.9l-.1.7-.3-.1.1-.7-.4-1 .3.1.2.5c0 .1.1.2.1.2s.1-.1.1-.2l.3-.4.3.1-.6.8zm2.7.8l-.1-.9v-.3s0 .2-.1.3l-.3.6h-.3l-.3-.6c0-.1-.1-.3-.1-.3v.3l-.1.9h-.3l.1-1.6h.3l.3.8c0 .1.1.2.1.2s0-.1.1-.2l.3-.8h.3l.2 1.6h-.1zm1.6-.2c-.5.1-.9-.2-1-.7-.1-.5.2-.9.7-1 .5-.1.9.2 1 .6.1.6-.2 1-.7 1.1zm1.9-.5c-.4.1-.7 0-.8-.3l-.4-1 .3-.1.4 1c.1.2.3.3.5.2.2-.1.3-.2.2-.5l-.4-1 .3-.1.4 1c0 .3-.2.6-.5.8zm1.5-.7c-.3.2-.6.1-.6.1v-.3s.2.1.4 0c.1-.1.2-.2.1-.3-.1-.3-.8.2-1-.3-.1-.2 0-.5.3-.7.3-.2.5-.1.5-.1v.3s-.2 0-.4.1c-.1.1-.2.2-.1.3.1.3.8-.2 1 .3.1.1.1.4-.2.6zm.8-.5l-1-1.3.8-.6.1.2-.6.4.2.3.4-.3.1.2-.4.3.3.4.6-.4.1.2-.6.6zm1.5-2.1c-.1.1-.1.1-.2 0s-.1-.1 0-.2c1.4-1.5 2.3-3.3 2.7-5.3 0-.1.1-.1.2-.1s.1.1.1.2c-.4 2-1.3 3.9-2.8 5.4zm3.1-7.9h.7l-.6.4.2.7-.6-.4-.6.4.2-.7-.6-.4h.7l.2-.7.4.7zm-.4-1.5c-.1 0-.1 0-.2-.1-.4-1.9-1.3-3.7-2.6-5.1v-.2c.1-.1.1 0 .2 0 1.3 1.5 2.2 3.3 2.6 5.2.1.1 0 .2 0 .2z"/>
    <linearGradient id="SVGID_6_" gradientUnits="userSpaceOnUse" x1="848.09" y1="219.926" x2="848.09" y2="219.32">
      <stop offset="0" stop-color="#FBB03B"/>
      <stop offset="1" stop-color="#F7931E"/>
    </linearGradient>
    <path class="st31" d="M848.4 219.8c.1-.1 0-.3-.2-.4l-.2-.1-.2.5.2.1c.2.1.3 0 .4-.1z"/>
    <path class="st32" d="M842.1 208.3c.1 0 .1 0 .2-.1.4-1.8 1.2-3.6 2.5-5v-.2c-.1-.1-.1 0-.2 0-1.3 1.5-2.1 3.2-2.5 5.1-.2.1-.1.2 0 .2zm.1 4.1c0-.1-.1-.1-.2-.1s-.1.1-.1.2c.4 2 1.3 3.8 2.7 5.4.1.1.1.1.2 0s.1-.1 0-.2c-1.3-1.6-2.2-3.4-2.6-5.3zm21.3-.2c-.1 0-.1 0-.2.1-.4 2-1.3 3.8-2.7 5.3-.1.1 0 .1 0 .2.1.1.1 0 .2 0 1.4-1.5 2.4-3.4 2.8-5.5l-.1-.1zm-2.7-9.2c-.1.1-.1.1 0 .2 1.3 1.4 2.2 3.2 2.6 5.1 0 .1.1.1.2.1s.1-.1.1-.2c-.4-2-1.3-3.8-2.6-5.2-.2-.1-.3-.1-.3 0z"/>
    <path class="st33" d="M850.2 213.9c0-.3 0-.6.1-.8 0-.1 0-.2.1-.3.1-.2.1-.4.2-.5v-.1l-.2-.2-.2-.2-.3-.3c-.1-.1-.1-.2-.2-.2 0-.1-.1-.1-.1-.2h-.4c-1.3 0-2.5-1.3-2.5-2.8s1.3-2.2 2.5-2.2v-.1h.5c.1 0 .2 0 .2.1.1 0 .1 0 .2.1.1 0 .1.1.2.1s.1.1.2.1l.2.2.1.1c.1.1.2.2.2.3 0 .1.1.1.1.2s.1.1.1.2.1.2.1.2v.1h.1c.1 0 .2 0 .2-.1h.6l.1-.3c.1 0 .2-.3.3-.3v.2c.4 0 .9.2 1.4.4.3-1.1 1.2-1.8 2.2-1.8 1.3 0 2.5.9 2.5 2.4s-1.3 2.9-2.5 2.9h-.5c-.3.4-.6.7-1 1.1.2.5.4 1.1.4 1.7v.6c.5.1 1.1.2 1.6.3v-.1c0-.1-.1-.3-.2-.4-.1-.1-.2-.2-.4-.3-.1-.1-.3-.2-.4-.3-.1-.1-.2-.2-.3-.4 0-.1-.1-.2 0-.3 0-.1.1-.2.1-.2l.1-.1h.4c.2 0 .3.1.4.2.1.1.3.2.4.3l.2.2c.1.1.2.1.2.1h.2l.1-.1v-.5c0-.1-.1-.2-.1-.3-.1-.2-.2-.3-.3-.5l.4.4c.1.1.1.2.1.3 0 .1.1.2.1.3v.2s0 .1-.1.1l-.1.1h-.2c-.1 0-.2-.1-.3-.1-.1-.1-.2-.1-.2-.2-.1-.1-.3-.2-.4-.3-.1-.1-.3-.2-.4-.2h-.2c-.1 0-.1.1-.2.1 0 .1-.1.1-.1.2v.2c.1.1.2.3.3.4.1.1.2.2.4.3.1.1.3.2.4.3.1.1.2.3.3.4v.2c.8.2 1.6.5 2.3.8 1.2-1.5 1.8-3.3 1.8-5.2 0-2.3-.9-4.4-2.5-6-1.6-1.6-3.7-2.5-6-2.5s-4.4.9-6 2.5c-1.6 1.6-2.5 3.7-2.5 6 0 2 .7 3.9 2 5.4 1.2-.6 2.5-1 3.9-1.2.3-.3.3-.5.3-.7z"/>
    <path d="M852.7 201.4c-5 0-9 4-9 9 0 2.2.8 4.1 2 5.7.2-.1.3-.2.5-.3-1.3-1.5-2-3.4-2-5.4 0-2.3.9-4.4 2.5-6 1.6-1.6 3.7-2.5 6-2.5s4.4.9 6 2.5c1.6 1.6 2.5 3.7 2.5 6 0 1.9-.6 3.8-1.8 5.2.2.1.3.1.5.2 1.2-1.5 1.9-3.4 1.9-5.5-.1-4.9-4.1-8.9-9.1-8.9z"/>
    <path class="st34" d="M857.1 214.8v.3c0 .1-.1.2-.1.3l-.2.2c-.2.1-.4.1-.5.1-.2 0-.3-.1-.5-.2s-.3-.3-.5-.4c-.1.4-.3 1-.5 1H851c-.3 0-.5-.9-.6-1.5-1.4.2-2.7.7-3.9 1.3-.2.1-.3.2-.5.3 1.6 2 4.1 3.3 7 3.3 2.9 0 5.5-1.4 7.1-3.5-.2-.1-.3-.2-.5-.2-1-.5-1.7-.8-2.5-1z"/>
    <path class="st34" d="M855.4 214.9c.1.1.2.2.4.3.1 0 .1.1.2.1h.6c.1-.1.2-.2.2-.3v-.4c-.5-.1-1-.2-1.6-.3v.3c.1.2.2.2.2.3z"/>
    <path class="st13" d="M857.7 201.5c-.2-.1-.3-.3-.3-.3l-.2.1s.1.3.4.5c.3.2.6.1.7-.2.3-.5-.4-.8-.3-1 .1-.1.2-.1.3-.1.2.1.2.3.2.3l.2-.1s-.1-.2-.3-.4c-.3-.2-.6-.1-.7.1-.2.4.4.8.3 1-.1.1-.2.2-.3.1zm-1.4-.4c.4.1.7 0 .8-.3l.4-1-.3-.1-.4 1c-.1.2-.3.3-.5.2-.2-.1-.3-.2-.2-.4l.4-1-.3-.1-.4 1c0 .3.1.6.5.7zm-9.4 1.3c.2-.2.3-.4.3-.4v.2l.2-.1-.5-.7-.4.3.2.2.2-.1.1.2s0 .2-.2.4-.6.1-.8-.1c-.2-.2-.2-.6.1-.8.2-.2.4-.1.4-.1v-.3s-.3 0-.6.2c-.4.3-.5.8-.2 1.2.4.1.9.1 1.2-.1zm1.1-.7l-.3-.5.3-.1.6.4.3-.2-.6-.4h-.1c.1-.1.1-.3 0-.5s-.3-.3-.4-.3c-.1 0-.2 0-.3.1l-.5.2.7 1.4.3-.1zm-.7-1.2l.2-.1c.2-.1.3-.1.4.1.1.1 0 .3-.1.3l-.2.1-.3-.4zm2.6.3v-.2l-.7.2-.2-.4.6-.2-.1-.2-.5.2-.2-.4.6-.2v-.3l-1 .3.6 1.6zm4.8-.1c.5.1.9-.2 1-.7.1-.5-.2-.9-.7-1-.5-.1-.9.2-1 .7-.1.4.2.9.7 1zm-.4-1c.1-.3.3-.5.6-.4s.5.3.4.7c-.1.3-.3.5-.6.5-.3-.2-.5-.5-.4-.8zm-3.8 1l.3-.1-.1-.7.3-1-.3.1-.1.5c0 .1-.1.2-.1.2s-.1-.1-.1-.2l-.3-.4-.3.1.7.8v.7zm1.8-1.2v-.3c.1.1.1.2 0 .3l.3.6h.3l.3-.6c0-.1.1-.2.1-.2v.3l.1.9h.3l-.1-1.6h-.3l-.3.8c0 .1-.1.2-.1.2s0-.1-.1-.2l-.3-.8h-.3l-.2 1.6h.3v-1zm-3.7 20.4c.1-.2.1-.4 0-.5-.1-.1-.1-.1-.3-.2l-.5-.2-.7 1.5.3.1.3-.5.3.1v.7l.3.1v-.8c.1 0 .3-.1.3-.3zm-.6 0l-.2-.1.2-.5.2.1c.2.1.2.2.2.4-.1.1-.2.2-.4.1zm11.4-.4l-.3-.4.5-.3-.2-.2-.4.3-.3-.3.6-.4-.2-.2-.8.6 1 1.3.8-.6-.2-.2zm-12.6-.3l-.1.2.2.1-.1.2s-.2 0-.4-.1c-.3-.2-.3-.5-.1-.8.2-.3.5-.3.8-.1.2.1.3.4.3.4l.2-.1s-.1-.3-.4-.5c-.4-.3-.9-.2-1.2.2-.3.4-.2.9.2 1.1.3.2.5.1.5.1v.2l.2.1.5-.7-.6-.3zm8 .8c-.5.1-.8.5-.7 1 .1.5.5.8 1 .7.5-.1.8-.5.7-1-.1-.5-.6-.8-1-.7zm.2 1.4c-.3.1-.6-.1-.6-.5-.1-.3.1-.6.4-.7.3-.1.6.1.6.4.1.4-.1.7-.4.8zm4.1-18.7l.1-.2-.6-.4.3-.4.4.3.2-.2-.4-.3.2-.3.6.4.1-.2-.8-.6-.9 1.3zm-5.7 17.5l-.4.8c0 .1-.1.2-.1.2s0-.1-.1-.2l-.3-.8h-.3l-.1 1.6h.3l.1-.9v-.3s.1.2.1.3l.3.6h.3l.3-.6c0-.1.1-.3.1-.3v.3l.1.9h.3l-.2-1.6h-.4zm-4.8.9l1 .3.1-.2-.7-.2.1-.5.6.2v-.2l-.5-.2.2-.4.6.2.1-.2-1-.3z"/>
    <path class="st13" d="M850.8 220.5c-.1.1-.1.2-.1.2s0-.1-.1-.2l-.2-.5-.3-.1.4 1-.1.7.3.1.1-.7.7-.8-.3-.1-.4.4zm6.9-1.1c-.1-.1 0-.2.1-.3.2-.1.4-.1.4-.1v-.3s-.2-.1-.5.1-.4.4-.3.7c.2.4.9 0 1 .3.1.1 0 .2-.1.3-.2.1-.4 0-.4 0v.3s.3.1.6-.1.4-.5.2-.7c-.3-.3-.9.1-1-.2zm-.7-.1l-.3.1.4 1c.1.2 0 .4-.2.5-.2.1-.4 0-.5-.2l-.4-1-.3.1.4 1c.1.3.5.5.8.3.4-.1.5-.5.4-.8l-.3-1z"/>
    <path class="st32" d="M842.1 210.3l.6-.4h-.7l-.2-.7-.3.7h-.7l.6.4-.2.7.6-.4.5.4zm20.6-.4l.6.4-.3.7.6-.4.6.4-.2-.7.6-.4h-.7l-.3-.7-.2.7z"/>
    <path class="st35" d="M857 214.7v-.1c-.1-.2-.2-.3-.3-.4-.1-.1-.3-.2-.4-.3-.1-.1-.3-.2-.4-.3-.1-.1-.2-.2-.3-.4v-.2c0-.1 0-.1.1-.2 0 0 .1-.1.2-.1h.2c.1 0 .3.1.4.2.1.1.3.2.4.3.1.1.2.1.2.2.1.1.2.1.3.1h.2c.1 0 .1 0 .1-.1l.1-.1v-.2c0-.1 0-.2-.1-.3 0-.1-.1-.2-.1-.3-.1-.2-.2-.3-.4-.4.1.1.2.3.3.5 0 .1.1.2.1.3 0 .1.1.2 0 .3v.2s0 .1-.1.1h-.2c-.1 0-.2-.1-.2-.1l-.2-.2c-.1-.1-.3-.2-.4-.3-.1-.1-.3-.2-.4-.2h-.4s-.1 0-.1.1c-.1.1-.1.1-.1.2v.3c.1.2.2.3.3.4.1.1.3.2.4.3.1.1.3.2.4.3.1.1.2.2.2.4v.5c0 .1-.1.2-.2.3-.1.1-.3.1-.4 0h-.2c-.1 0-.1-.1-.2-.1-.1-.1-.2-.2-.4-.3l-.2-.2c0 .1 0 .2-.1.3.1.1.3.3.5.4.1.1.3.2.5.2s.4 0 .5-.1c.1 0 .2-.1.2-.2.1-.1.1-.2.1-.3v-.3c.2-.1.2-.1.1-.2.1.1.1.1 0 0z"/>
    <path class="st18" d="M850.2 213.1c0 .2-.1.5-.1.7.1-.2.1-.4.1-.7zm.1-.2c.1-.2.1-.4.2-.5-.1.1-.1.3-.2.5zm2.7 3.1c0-.2.2-.4.3-.4.1 0 .3.1.3.3.1-1.8 1.6-2.1 1.6-2.1 0-.6-.2-1.2-.4-1.7-.7.7-1.4 1.3-1.9 1.6.1.1.3.2.3.4 0 .3-.3.5-.3.5v1.4h.7-.6zm.7 0h.1-.1zm-3.8-10c.1 0 .1.1.2.1-.1 0-.1-.1-.2-.1zm-.4-.1zm.8.3c.1 0 .1.1.2.1-.1 0-.1 0-.2-.1zm.7.8c0 .1.1.1.1.2 0-.1-.1-.2-.1-.2zm.2.4c0 .1.1.2.1.2 0-.1-.1-.2-.1-.2zm-2.1-1.6zm0 5.3zm1.5-4.6l.1.1s0-.1-.1-.1zm5.8.6c.8 0 1.6.6 1.6 1.4 0 .9-.8 1.8-1.6 1.8h-.1c-.1.2-.2.4-.4.7.1 0 .3.1.5.1 1.3 0 2.5-1.5 2.5-2.9s-1.3-2.4-2.5-2.4c-1.1 0-1.9.8-2.2 1.9.3.1.6.2.9.4.2-.6.7-1 1.3-1z"/>
    <path class="st36" d="M858 208.6c0-.9-.8-1.4-1.6-1.4-.6 0-1.1.4-1.3 1 .8.4 1.5 1.2 1.2 2.2h.1c.8 0 1.6-.9 1.6-1.8z"/>
    <path class="st37" d="M853.7 216c0-.2-.2-.3-.3-.3-.2 0-.3.2-.3.4l.6-.1z"/>
    <path class="st13" d="M849.9 211.5c-.1-.1-.1-.2-.2-.2l.2.2zm1.9-3.9h.2-.2zm.3-.1zm-1.7 4.5l-.2-.2c0 .1.1.1.2.2zm2.1-4.5h.3-.3zm-1.1.2c.1 0 .2 0 .2-.1 0 0-.1.1-.2.1zm1.3-.2zm.3 6.2l.1.1c.5-.4 1.1-1 1.8-1.6.4-.4.7-.8 1-1.1.2-.2.3-.5.4-.7.3-1.1-.4-1.8-1.2-2.2-.3-.2-.5-.3-.8-.4-.5-.2-1.3-.2-1.3-.2v6.1zm2-4.4c.3 0 .6.3.6.6s-.3.6-.6.6-.6-.3-.6-.6c-.1-.3.2-.6.6-.6z"/>
    <path class="st35" d="M852.7 214.7c.2 0 .4-.2.4-.5 0-.2-.1-.3-.1-.4-.1-.1-.2-.1-.3-.1v1z"/>
    <path class="st36" d="M854.3 209.9c0 .3.3.6.6.6s.6-.3.6-.6-.3-.6-.6-.6-.6.3-.6.6zm.5-.3c.1-.1.3 0 .4.1.1.1 0 .3-.1.4-.1.1-.3 0-.4-.1-.1-.1 0-.3.1-.4z"/>
    <ellipse transform="rotate(-28.213 854.958 209.923)" class="st38" cx="855" cy="209.9" rx=".3" ry=".3"/>
    <path class="st13" d="M850.2 213.8c0 .1 0 .1 0 0 0 .1 0 .1 0 0zm5.1.6v-.6s-1.5.3-1.6 2.1v.1h1c.2 0 .3-.6.5-1 0-.1 0-.2.1-.3-.1-.1 0-.2 0-.3z"/>
    <path class="st33" d="M852 207.6h.1c0-.1 0-.1-.1 0z"/>
    <path class="st19" d="M852 207.6h.1c0-.1 0-.1-.1 0z"/>
    <path class="st33" d="M850.1 206.1c.1 0 .1.1.2.1-.1 0-.1-.1-.2-.1z"/>
    <path class="st19" d="M850.1 206.1c.1 0 .1.1.2.1-.1 0-.1-.1-.2-.1z"/>
    <path class="st33" d="M849.1 211.1h.4c0 .1.1.1.1.2 0-.1-.1-.1-.1-.2h-.4z"/>
    <path class="st19" d="M849.1 211.1h.4c0 .1.1.1.1.2 0-.1-.1-.1-.1-.2h-.4z"/>
    <path class="st33" d="M852.4 207.5h.1-.1z"/>
    <path class="st19" d="M852.4 207.5h.1-.1z"/>
    <path class="st33" d="M850.8 206.6c.1.1.2.2.2.3-.1-.1-.1-.2-.2-.3z"/>
    <path class="st19" d="M850.8 206.6c.1.1.2.2.2.3-.1-.1-.1-.2-.2-.3z"/>
    <path class="st33" d="M851.1 207.2c0 .1.1.1.1.2 0-.1-.1-.2-.1-.2z"/>
    <path class="st19" d="M851.1 207.2c0 .1.1.1.1.2 0-.1-.1-.2-.1-.2z"/>
    <path class="st33" d="M850.5 206.3l.2.2c-.1-.1-.2-.1-.2-.2z"/>
    <path class="st19" d="M850.5 206.3l.2.2c-.1-.1-.2-.1-.2-.2z"/>
    <path class="st33" d="M846.6 208.2c0-1.5 1.3-2.2 2.5-2.2-1.3 0-2.5.8-2.5 2.2 0 1.5 1.3 2.8 2.5 2.8-1.3 0-2.5-1.3-2.5-2.8z"/>
    <path class="st19" d="M846.6 208.2c0-1.5 1.3-2.2 2.5-2.2-1.3 0-2.5.8-2.5 2.2 0 1.5 1.3 2.8 2.5 2.8-1.3 0-2.5-1.3-2.5-2.8z"/>
    <path class="st33" d="M849.7 205.9c.1 0 .2.1.2.1s-.1-.1-.2-.1z"/>
    <path class="st19" d="M849.7 205.9c.1 0 .2.1.2.1s-.1-.1-.2-.1z"/>
    <path class="st33" d="M851.4 207.7h-.1v-.1.1h.1z"/>
    <path class="st19" d="M851.4 207.7h-.1v-.1.1h.1z"/>
    <path class="st33" d="M849.1 205.8h.4-.4z"/>
    <path class="st19" d="M849.1 205.8h.4-.4z"/>
    <path class="st33" d="M850.4 212l.2.2v.1s0-.1.1-.1c-.2-.1-.3-.1-.3-.2z"/>
    <path class="st19" d="M850.4 212l.2.2v.1s0-.1.1-.1c-.2-.1-.3-.1-.3-.2z"/>
    <path class="st33" d="M850.1 211.8l-.3-.3.3.3z"/>
    <path class="st19" d="M850.1 211.8l-.3-.3.3.3z"/>
    <path class="st33" d="M850.2 213.1c0-.1 0-.2.1-.3 0 .2 0 .2-.1.3z"/>
    <path class="st19" d="M850.2 213.1c0-.1 0-.2.1-.3 0 .2 0 .2-.1.3z"/>
    <path class="st34" d="M850.2 214.5c.1.6.3 1.1.6 1.5-.2-.3-.3-.6-.4-1-.1-.1-.2-.3-.2-.5z"/>
    <path class="st19" d="M850.2 214.5c.1.6.3 1.1.6 1.5-.2-.3-.3-.6-.4-1-.1-.1-.2-.3-.2-.5z"/>
    <path class="st18" d="M851.8 216h-.1.1z"/>
    <path class="st19" d="M851.8 216h-.1.1z"/>
    <path class="st18" d="M852.9 214.7c-.2 0-.5-.2-.5-.5 0-.1 0-.3.1-.4-.5-.3-1.2-1-1.9-1.6 0 0 0 .1-.1.1-.1.2-.1.4-.2.5 0 .1 0 .2-.1.3 0 .2-.1.5-.1.7 0 0 1.5.3 1.6 2.1 0-.2-.1-.3.1-.3s.1.2.1.4h-.2 1.2v-1.3c.1 0 0 0 0 0z"/>
    <path class="st19" d="M852.9 214.7c-.2 0-.5-.2-.5-.5 0-.1 0-.3.1-.4-.5-.3-1.2-1-1.9-1.6 0 0 0 .1-.1.1-.1.2-.1.4-.2.5 0 .1 0 .2-.1.3 0 .2-.1.5-.1.7 0 0 1.5.3 1.6 2.1 0-.2-.1-.3.1-.3s.1.2.1.4h-.2 1.2v-1.3c.1 0 0 0 0 0z"/>
    <path class="st18" d="M850.8 216c-.2-.3-.3-.6-.4-1 0 .4.2.8.4 1z"/>
    <path class="st19" d="M850.8 216c-.2-.3-.3-.6-.4-1 0 .4.2.8.4 1z"/>
    <path class="st18" d="M849.2 210.4c-.1 0-.1 0 0 0-.9-.1-1.7-1-1.7-1.8 0-.9.8-1.4 1.6-1.4.6 0 1.1.4 1.3 1 .3-.2.6-.3.9-.4v-.1c0-.1 0-.2-.1-.2 0-.1-.1-.1-.1-.2s-.1-.1-.1-.2c-.1-.1-.2-.2-.2-.3l-.1-.1-.2-.2s-.1-.1-.2-.1-.1-.1-.2-.1-.1-.1-.2-.1-.2-.1-.2-.1h-.5c-1.3 0-2.5.9-2.5 2.4s1.3 2.9 2.5 2.9h.4c-.2-.6-.4-.8-.4-1z"/>
    <path class="st19" d="M849.2 210.4c-.1 0-.1 0 0 0-.9-.1-1.7-1-1.7-1.8 0-.9.8-1.4 1.6-1.4.6 0 1.1.4 1.3 1 .3-.2.6-.3.9-.4v-.1c0-.1 0-.2-.1-.2 0-.1-.1-.1-.1-.2s-.1-.1-.1-.2c-.1-.1-.2-.2-.2-.3l-.1-.1-.2-.2s-.1-.1-.2-.1-.1-.1-.2-.1-.1-.1-.2-.1-.2-.1-.2-.1h-.5c-1.3 0-2.5.9-2.5 2.4s1.3 2.9 2.5 2.9h.4c-.2-.6-.4-.8-.4-1z"/>
    <path class="st36" d="M849.1 207.1c-.8 0-1.6.6-1.6 1.4 0 .9.8 1.8 1.6 1.8h.1c-.3-1.1.4-1.8 1.2-2.2-.2-.6-.7-1-1.3-1z"/>
    <path class="st19" d="M849.1 207.1c-.8 0-1.6.6-1.6 1.4 0 .9.8 1.8 1.6 1.8h.1c-.3-1.1.4-1.8 1.2-2.2-.2-.6-.7-1-1.3-1z"/>
    <path class="st37" d="M852.4 216c0-.2-.1-.4-.3-.4-.2 0-.3.1-.3.3l.6.1z"/>
    <path class="st19" d="M852.4 216c0-.2-.1-.4-.3-.4-.2 0-.3.1-.3.3l.6.1z"/>
    <path class="st13" d="M852.5 213.8c.1-.1.3-.1.4-.1h.1V207h-.3c-.1 0-.2.2-.3.3l-.1.1c-.1 0-.1.1-.2.1 0 0-.1 0-.1.1-.1 0-.1 0-.2.1h-.1c-.1 0-.2 0-.2.1h-.1c-.3.1-.6.2-.9.4-.8.5-1.5 1.2-1.2 2.2v.1c0 .2.2.4.4.6 0 .1.1.1.1.2.1.1.1.2.2.2l.3.3.2.2.2.2c.5.6 1.3 1.3 1.8 1.6zm-2-3.3c-.3 0-.6-.3-.6-.6s.3-.6.6-.6.6.3.6.6c0 .4-.2.6-.6.6z"/>
    <path class="st19" d="M852.5 213.8c.1-.1.3-.1.4-.1h.1V207h-.3c-.1 0-.2.2-.3.3l-.1.1c-.1 0-.1.1-.2.1 0 0-.1 0-.1.1-.1 0-.1 0-.2.1h-.1c-.1 0-.2 0-.2.1h-.1c-.3.1-.6.2-.9.4-.8.5-1.5 1.2-1.2 2.2v.1c0 .2.2.4.4.6 0 .1.1.1.1.2.1.1.1.2.2.2l.3.3.2.2.2.2c.5.6 1.3 1.3 1.8 1.6zm-2-3.3c-.3 0-.6-.3-.6-.6s.3-.6.6-.6.6.3.6.6c0 .4-.2.6-.6.6z"/>
    <path class="st36" d="M851.1 209.9c0-.3-.3-.6-.6-.6s-.6.3-.6.6.3.6.6.6c.4 0 .6-.2.6-.6zm-.8.3c-.1-.1-.2-.3-.1-.4.1-.1.3-.2.4-.1.1.1.2.3.1.4 0 .1-.2.1-.4.1z"/>
    <path class="st19" d="M851.1 209.9c0-.3-.3-.6-.6-.6s-.6.3-.6.6.3.6.6.6c.4 0 .6-.2.6-.6zm-.8.3c-.1-.1-.2-.3-.1-.4.1-.1.3-.2.4-.1.1.1.2.3.1.4 0 .1-.2.1-.4.1z"/>
    <path class="st35" d="M852.7 213.7c-.1 0-.2.1-.3.1-.1.1-.1.2-.1.4 0 .3.2.5.4.5v-1z"/>
    <path class="st19" d="M852.7 213.7c-.1 0-.2.1-.3.1-.1.1-.1.2-.1.4 0 .3.2.5.4.5v-1z"/>
    <ellipse transform="rotate(-61.785 850.43 209.89)" class="st38" cx="850.5" cy="209.9" rx=".3" ry=".3"/>
    <ellipse transform="rotate(-61.785 850.43 209.89)" class="st19" cx="850.5" cy="209.9" rx=".3" ry=".3"/>
    <path class="st13" d="M851.8 216c-.1-1.9-1.6-2.2-1.6-2.2h-.1s-.1 0-.1.1c0 .2.1.4.1.6 0 .2.1.4.2.5.1.4.3.9.5.9h.9l.1.1z"/>
    <path class="st19" d="M851.8 216c-.1-1.9-1.6-2.2-1.6-2.2h-.1s-.1 0-.1.1c0 .2.1.4.1.6 0 .2.1.4.2.5.1.4.3.9.5.9h.9l.1.1zm-121.7 10.9c0 .6.5 1.2 1.2 1.2h93.2c.6 0 1.2-.5 1.2-1.2v-32.7c0-.6-.5-1.2-1.2-1.2h-93.2c-.6 0-1.2.5-1.2 1.2v32.7zm88.3-8.8V200c0-.6.1-1.3.1-1.4.1-.2.7-.3 1.1-.3s.8.1 1 .1c.2.1.3 1 .3 1.6v22.1c0 .6-.5 1.2-1.2 1.2h-.2c-.6 0-1.2-.5-1.2-1.2v-4zm-7 0V200c0-.6.1-1.3.1-1.4s.7-.3 1.1-.3c.4 0 .8.1 1 .1.2.1.3 1 .3 1.6v22.1c0 .6-.5 1.2-1.2 1.2h-.2c-.6 0-1.2-.5-1.2-1.2v-4zm-6.9-10.5v-7.7c0-.6.1-1.3.1-1.4.1-.2.7-.3 1.1-.3.4 0 .8.1 1 .1.2.1.3 1 .3 1.6v22.2c0 .6-.5 1.2-1.2 1.2h-.2c-.6 0-1.2-.5-1.2-1.2v-14.5zm-7 10.5V200c0-.6.1-1.3.1-1.4s.7-.3 1.1-.3c.4 0 .8.1 1 .1.2.1.3 1 .3 1.6v22.1c0 .6-.5 1.2-1.2 1.2h-.2c-.6 0-1.2-.5-1.2-1.2v-4zm-6.9 3.1v-21.3c0-.6.1-1.3.1-1.4.1-.2.7-.3 1.1-.3.4 0 .8.1 1 .1.2.1.3 1 .3 1.6v22.2c0 .6-.5 1.2-1.2 1.2h-.2c-.6 0-1.2-.5-1.2-1.2v-.9zm-7.2-3.2v-18.1c0-.6.1-1.3.1-1.4.1-.2.7-.3 1.1-.3.4 0 .8.1 1 .1.2.1.3 1 .3 1.6V222c0 .6-.5 1.2-1.2 1.2h-.2c-.6 0-1.2-.5-1.2-1.2v-4zm-6.9-10.4v-7.7c0-.6.1-1.3.1-1.4.1-.2.7-.3 1.1-.3.4 0 .8.1 1 .1s.3 1 .3 1.6v22.2c0 .6-.5 1.2-1.2 1.2h-.2c-.6 0-1.2-.5-1.2-1.2v-14.5zm-6.9 10.4v-18.1c0-.6.1-1.3.1-1.4.1-.2.7-.3 1.1-.3.4 0 .8.1 1 .1.2.1.3 1 .3 1.6V222c0 .6-.5 1.2-1.2 1.2h-.2c-.6 0-1.2-.5-1.2-1.2v-4zm-6.9 3.8v-21.9c0-.6.1-1.3.1-1.4.1-.2.7-.3 1.1-.3.4 0 .8.1 1 .1.2.1.3 1 .3 1.6v22.2c0 .6-.5 1.2-1.2 1.2h-.2c-.6 0-1.2-.5-1.2-1.2v-.3zm-7.1-3.8v-18.1c0-.6.1-1.3.1-1.4.1-.2.7-.3 1.1-.3s.8.1 1 .1.3 1 .3 1.6V222c0 .6-.5 1.2-1.2 1.2h-.2c-.6 0-1.2-.5-1.2-1.2v-4zm-6.8 2.2v-20.3c0-.6.1-1.3.1-1.4.1-.2.7-.3 1.1-.3s.8.1 1 .1c.2.1.3 1 .3 1.6v22.2c0 .6-.5 1.2-1.2 1.2h-.2c-.6 0-1.2-.5-1.2-1.2v-1.9zm-7-2.2v-18.1c0-.6.1-1.3.1-1.4.1-.2.7-.3 1.1-.3.4 0 .8.1 1 .1.2.1.3 1 .3 1.6V222c0 .6-.5 1.2-1.2 1.2h-.1c-.6 0-1.2-.5-1.2-1.2v-4zm-6.9-10.4v-7.7c0-.6.1-1.3.1-1.4.1-.2.7-.3 1.1-.3.4 0 .8.1 1 .1.2.1.3 1 .3 1.6v22.2c0 .6-.5 1.2-1.2 1.2h-.2c-.6 0-1.2-.5-1.2-1.2v-14.5z"/>
    <path class="st13" d="M730.1 226.5c0 .6.5 1.2 1.2 1.2h93.2c.6 0 1.2-.5 1.2-1.2v-32.7c0-.6-.5-1.2-1.2-1.2h-93.2c-.6 0-1.2.5-1.2 1.2v32.7zm88.3-8.8v-18.1c0-.6.1-1.3.1-1.4.1-.2.7-.3 1.1-.3s.8.1 1 .1c.2.1.3 1 .3 1.6v22.1c0 .6-.5 1.2-1.2 1.2h-.2c-.6 0-1.2-.5-1.2-1.2v-4zm-7 0v-18.1c0-.6.1-1.3.1-1.4s.7-.3 1.1-.3c.4 0 .8.1 1 .1.2.1.3 1 .3 1.6v22.1c0 .6-.5 1.2-1.2 1.2h-.2c-.6 0-1.2-.5-1.2-1.2v-4zm-6.9-10.5v-7.7c0-.6.1-1.3.1-1.4.1-.2.7-.3 1.1-.3.4 0 .8.1 1 .1.2.1.3 1 .3 1.6v22.2c0 .6-.5 1.2-1.2 1.2h-.2c-.6 0-1.2-.5-1.2-1.2v-14.5zm-7 10.5v-18.1c0-.6.1-1.3.1-1.4s.7-.3 1.1-.3c.4 0 .8.1 1 .1.2.1.3 1 .3 1.6v22.1c0 .6-.5 1.2-1.2 1.2h-.2c-.6 0-1.2-.5-1.2-1.2v-4zm-6.9 3.1v-21.3c0-.6.1-1.3.1-1.4.1-.2.7-.3 1.1-.3.4 0 .8.1 1 .1.2.1.3 1 .3 1.6v22.2c0 .6-.5 1.2-1.2 1.2h-.2c-.6 0-1.2-.5-1.2-1.2v-.9zm-7.2-3.1v-18.1c0-.6.1-1.3.1-1.4.1-.2.7-.3 1.1-.3.4 0 .8.1 1 .1.2.1.3 1 .3 1.6v22.1c0 .6-.5 1.2-1.2 1.2h-.2c-.6 0-1.2-.5-1.2-1.2v-4zm-6.9-10.5v-7.7c0-.6.1-1.3.1-1.4.1-.2.7-.3 1.1-.3.4 0 .8.1 1 .1s.3 1 .3 1.6v22.2c0 .6-.5 1.2-1.2 1.2h-.2c-.6 0-1.2-.5-1.2-1.2v-14.5zm-6.9 10.5v-18.1c0-.6.1-1.3.1-1.4s.7-.3 1.1-.3c.4 0 .8.1 1 .1.2.1.3 1 .3 1.6v22.1c0 .6-.5 1.2-1.2 1.2h-.2c-.6 0-1.2-.5-1.2-1.2v-4zm-6.9 3.7v-21.9c0-.6.1-1.3.1-1.4.1-.2.7-.3 1.1-.3.4 0 .8.1 1 .1.2.1.3 1 .3 1.6v22.2c0 .6-.5 1.2-1.2 1.2h-.2c-.6 0-1.2-.5-1.2-1.2v-.3zm-7.1-3.7v-18.1c0-.6.1-1.3.1-1.4s.7-.3 1.1-.3.8.1 1 .1.3 1 .3 1.6v22.1c0 .6-.5 1.2-1.2 1.2h-.2c-.6 0-1.2-.5-1.2-1.2v-4zm-6.8 2.1v-20.3c0-.6.1-1.3.1-1.4s.7-.3 1.1-.3.8.1 1 .1c.2.1.3 1 .3 1.6v22.2c0 .6-.5 1.2-1.2 1.2h-.2c-.6 0-1.2-.5-1.2-1.2v-1.9zm-7-2.1v-18.1c0-.6.1-1.3.1-1.4.1-.2.7-.3 1.1-.3.4 0 .8.1 1 .1.2.1.3 1 .3 1.6v22.1c0 .6-.5 1.2-1.2 1.2h-.1c-.6 0-1.2-.5-1.2-1.2v-4zm-6.9-10.5v-7.7c0-.6.1-1.3.1-1.4.1-.2.7-.3 1.1-.3.4 0 .8.1 1 .1.2.1.3 1 .3 1.6v22.2c0 .6-.5 1.2-1.2 1.2h-.2c-.6 0-1.2-.5-1.2-1.2v-14.5z"/>
    <path class="st39" d="M737 198.6c0-.3-.3-.6-.6-.6h-.9c-.3 0-.6.3-.6.6v6.9c0 .3.3.6.6.6h.9c.3 0 .6-.3.6-.6v-6.9z"/>
    <path class="st40" d="M737 206c0-.3.1-1-.2-1h-1.4c-.3 0-.4.7-.4 1v17h2v-17z"/>
    <path class="st39" d="M744 198.6c0-.3-.3-.6-.6-.6h-.9c-.3 0-.6.3-.6.6v16.9c0 .3.3.6.6.6h.9c.3 0 .6-.3.6-.6v-16.9z"/>
    <path class="st40" d="M744 216.5c0-.3 0-.5-.3-.5h-1.4c-.3 0-.4.2-.4.5v6.5h2v-6.5z"/>
    <path class="st39" d="M751 198.6c0-.3-.3-.6-.6-.6h-.9c-.3 0-.6.3-.6.6v18.9c0 .3.3.6.6.6h.9c.3 0 .6-.3.6-.6v-18.9z"/>
    <path class="st40" d="M751 218.6c0-.3 0-.6-.3-.6h-1.4c-.3 0-.3.3-.3.6v4.4h2v-4.4z"/>
    <path class="st39" d="M758 198.6c0-.3-.3-.6-.6-.6h-.9c-.3 0-.6.3-.6.6v16.9c0 .3.3.6.6.6h.9c.3 0 .6-.3.6-.6v-16.9z"/>
    <path class="st40" d="M758 216.5c0-.3-.1-.5-.4-.5h-1.4c-.3 0-.2.2-.2.5v6.5h2v-6.5z"/>
    <path class="st39" d="M765 198.6c0-.3-.3-.6-.6-.6h-.9c-.3 0-.6.3-.6.6v20.9c0 .3.3.6.6.6h.9c.3 0 .6-.3.6-.6v-20.9z"/>
    <path class="st40" d="M765 220.2c0-.3-.1-.2-.4-.2h-1.4c-.3 0-.2-.1-.2.2v2.8h2v-2.8z"/>
    <path class="st39" d="M772 198.6c0-.3-.3-.6-.6-.6h-.9c-.3 0-.6.3-.6.6v16.9c0 .3.3.6.6.6h.9c.3 0 .6-.3.6-.6v-16.9z"/>
    <path class="st40" d="M772 216.5c0-.3-.2-.5-.5-.5h-1.4c-.3 0-.1.2-.1.5v6.5h2v-6.5z"/>
    <path class="st39" d="M779 198.6c0-.3-.3-.6-.6-.6h-.9c-.3 0-.6.3-.6.6v6.9c0 .3.3.6.6.6h.9c.3 0 .6-.3.6-.6v-6.9z"/>
    <path class="st40" d="M779 206c0-.3-.2-1-.5-1h-1.4c-.3 0-.1.7-.1 1v17h2v-17z"/>
    <path class="st39" d="M785 198.6c0-.3-.3-.6-.6-.6h-.9c-.3 0-.6.3-.6.6v16.9c0 .3.3.6.6.6h.9c.3 0 .6-.3.6-.6v-16.9z"/>
    <path class="st40" d="M786 216.5c0-.3-.3-.5-.6-.5H784c-.3 0-1 .2-1 .5v6.5h3v-6.5z"/>
    <path class="st39" d="M793 198.6c0-.3-.3-.6-.6-.6h-.9c-.3 0-.6.3-.6.6v19.9c0 .3.3.6.6.6h.9c.3 0 .6-.3.6-.6v-19.9z"/>
    <path class="st40" d="M793 219.7c0-.3-.2-.7-.5-.7h-1.4c-.3 0-.2.4-.2.7v3.3h2v-3.3z"/>
    <path class="st39" d="M800 198.6c0-.3-.3-.6-.6-.6h-.9c-.3 0-.6.3-.6.6v16.9c0 .3.3.6.6.6h.9c.3 0 .6-.3.6-.6v-16.9z"/>
    <path class="st40" d="M800 216.6c0-.3-.2-.6-.6-.6H798c-.3 0-.1.2-.1.6v6.4h2v-6.4z"/>
    <path class="st39" d="M806 198.6c0-.3-.3-.6-.6-.6h-.9c-.3 0-.6.3-.6.6v6.9c0 .3.3.6.6.6h.9c.3 0 .6-.3.6-.6v-6.9z"/>
    <path class="st40" d="M807 206.1c0-.3-.3-.1-.6-.1H805c-.3 0-1-.2-1 .1V223h3v-16.9z"/>
    <path class="st39" d="M813 198.6c0-.3-.3-.6-.6-.6h-.9c-.3 0-.6.3-.6.6v16.9c0 .3.3.6.6.6h.9c.3 0 .6-.3.6-.6v-16.9z"/>
    <path class="st40" d="M814 216.6c0-.3-.4-.6-.7-.6h-1.4c-.3 0-.9.2-.9.6v6.4h3v-6.4z"/>
    <path class="st39" d="M820 198.6c0-.3-.3-.6-.6-.6h-.9c-.3 0-.6.3-.6.6v16.9c0 .3.3.6.6.6h.9c.3 0 .6-.3.6-.6v-16.9z"/>
    <path class="st40" d="M821 216.6c0-.3-.4-.6-.7-.6H819c-.3 0-1 .2-1 .6v6.4h3v-6.4z"/>
    <path class="st35" d="M880 176v-25H725v25h155zm-102-9h-9v-2h9v2zm-1-7h24v3h-24v-3zm-26 0h24v3h-24v-3zm0 5h16v2h-16v-2zm-12.1-10.7c4.9 0 8.8 3.9 8.8 8.8 0 2.3-.9 4.3-2.2 5.9-.4.4-.8.8-1.3 1.2-.6.4-1.1.8-1.8 1-1.1.5-2.2.7-3.5.7-1.2 0-2.4-.3-3.5-.7-.7-.3-1.3-.7-1.8-1.1-.5-.4-.9-.8-1.3-1.2-1.4-1.6-2.2-3.6-2.2-5.8 0-4.8 3.9-8.8 8.8-8.8z"/>
    <path class="st41" d="M751 160h24v3h-24zm26 0h24v3h-24z"/>
    <path class="st42" d="M751 165h16v2h-16zm18 0h9v2h-9z"/>
    <path class="st18" d="M742 171.2c1-.3 1.2-.6 1.8-1l-1.8-1.9v2.9z"/>
    <path class="st18" d="M735 166c.2-.1.1-.2.3-.2-.1-.2-.3-.5-.3-.7v-2.2h.2c-.4 0-.6-.3-.6-.7 0-.3.3-.6.6-.7s-.2-1.6-.2-2.3c0-3.1 2.9-3.1 3.9-3.1s3.9 0 3.9 3.1c0 .7-.2 2.3-.2 2.3h-.1c.3.1.3.3.3.7 0 .4.2.6-.8.7v2.2c0 .3.1.6.1.8l.2.1h-.3v-.1s.4.1.5.1h.1l.1.1h.1l2.7 2.9c1.4-1.6 2.2-3.6 2.2-5.9 0-4.9-3.9-8.8-8.8-8.8s-8.8 3.9-8.8 8.8c0 2.2.8 4.3 2.2 5.8l2.7-2.9z"/>
    <path class="st18" d="M733.2 170.2c.6.4 1.8.8 1.8 1.1v-3.1l-1.8 2z"/>
    <path class="st43" d="M742.7 166l.1.1-.1-.1zm.1.8c0 .4.2.7-.8.8v.8l2 1.9c.5-.4 1-.7 1.4-1.2l-2.7-2.9c.1.1.1.3.1.6zm-.5-1z"/>
    <path class="st43" d="M742.4 167.5c.3-.1.6-.4.6-.8 0-.2-.1-.5-.2-.6l-.1-.1c-.1-.1-.2-.1-.3-.1v1.6zm-7.4.6v-.6c0-.1-.5-.4-.5-.8 0-.3.2-.5.4-.7l-2.7 3c.4.4.6.8 1.1 1.2l1.7-2.1z"/>
    <path class="st43" d="M734.7 166.7c0 .4.3.8.7.8v-1.6h.1c-.2 0-.3.1-.5.2-.2 0-.3.3-.3.6zm7.3 1.4l-3.5 2.4-3.5-2.4v3.1c1 .5 2.3.7 3.5.7 1.2 0 2.5-.3 3.5-.7v-3.1z"/>
    <path class="st44" d="M739 168v2.5l3-2.4v-2.3.1h.3c-.4 1.1-1.8 2.1-3.3 2.1z"/>
    <path class="st45" d="M738.8 168h.2c-2 0-3.1-1-3.5-2h-.5v2.1l4 2.4V168h-.2z"/>
    <path class="st46" d="M742.4 162.9c.3 0 .6-.3.6-.7 0-.3-.2-.6-.5-.7h-.1v1.4zm-.6-.9h-.1s-.2-.1-.2-.7c0-.2-.1-1.6-.1-1.8 0-.9-.8-.3-1.1-.3-.4.1-1.4.2-1.4.2v8.7h-.2.2c1.6 0 2.9-.9 3.3-2.1h-.2c.1-.2-.1-.5-.1-.8v-3.5c.1-.1 0 0-.1.3zm-2.3-.1h1.6v.2h-1.6v-.2zm.1 1.8h.4v-.9c0-.2.2-.3.3-.3s.3.1.3.3v.9h.4c.1 0 .1.1.1.1h-1.6c0-.1 0-.1.1-.1z"/>
    <path class="st47" d="M739 168v-9h-.2c-.6 0-1.1 0-1.4-.1-.3-.1-1.1-.3-1.1.3 0 .4-.1 1.7-.1 1.9 0 .5-.1.7-.2.7 0 .1-.1.2-.1.3 0 .4.1.7-.9.7v2.2c0 .2.2.5.3.7h.2c.4 1.4 1.5 2.3 3.5 2.3zm-2.5-6.1h1.6v.2h-1.6v-.2zm.1 1.8h.4v-.8c0-.2.2-.3.3-.3.2 0 .3.1.3.3v.8h.3c.1 0 .1.1.1.1h-1.6c.1-.1.1-.1.2-.1z"/>
    <path class="st47" d="M736 162.2c0-.1 0-.2-.1-.3h-.2c-.1-.4-.4-.4-.4-.4-.3.1-.6.3-.6.7 0 .4.3.7.7.7.3 0 .6-.3.6-.7z"/>
    <path class="st48" d="M735.7 162h.2c.1-.1.2-.2.2-.7 0-.2.1-1.4.1-1.8 0-.7.9-.5 1.1-.4.4.1.8.1 1.4.1.6 0 1.1.1 1.5-.1.2-.1 1.2-.5 1.2.3 0 .3.1 1.7.1 1.9 0 .6.2.7.2.7h.2c.1-.3.3-.3.4-.4h.2s.2-1.6.2-2.3c0-3.1-2.9-3.1-3.9-3.1-1 .1-3.9 0-3.9 3.1 0 .7.2 2.3.2 2.3.2 0 .5 0 .6.4z"/>
    <path class="st49" d="M741 163.7h-1.4c-.1 0-.1.1-.1.1h1.6c0-.1 0-.1-.1-.1zm-.4 0v-.9c0-.2-.2-.3-.3-.3s-.3.1-.3.3v.9h.6zm-.3-.8c0-.1 0-.1 0 0 .1-.1.1-.1 0 0l.1.3v-.3z"/>
    <path class="st13" d="M740.4 163.1v-.3.3c-.1 0-.1.1 0 0 0 .1 0 0 0 0z"/>
    <path class="st48" d="M739.5 161.9h1.6v.2h-1.6zm-3 0h1.6v.2h-1.6z"/>
    <path class="st49" d="M738 163.7h-.3v.1h-.7v-.1h-.4c-.1 0-.1.1-.1.1h1.6c0-.1-.1-.1-.1-.1zm-.3 0v-.9c0-.2-.2-.3-.3-.3-.2 0-.3.1-.3.3v.9h.6zm-.4-.8c0-.1 0-.1 0 0 .1-.1.1-.1 0 0l.1.3v-.3z"/>
    <path class="st13" d="M737.4 163.1v-.3.3c-.1 0-.1.1 0 0 0 .1 0 0 0 0z"/>
    <path class="st35" d="M730 179h10v1h-10z"/>
    <path class="st41" d="M744 179h6v1h-6zm9 0h9v1h-9zm12 0h7v1h-7zm10 0h13v1h-13z"/>
    <path class="st50" d="M746 187.6c-.4 0-.9.3-.9.8s.6.8 1 .8c.3 0-.1-.1.9-.3v.1-1.5c0-.6-.4-.8-.9-.8-.4 0-.7.1-1 .4l.2.3c.2-.2.6-.3.9-.3.4 0 .8.2.8.5v.4c-1-.3-.7-.4-1-.4zm.6 1c-.1.2-.4.3-.7.3-.4 0-.6-.2-.6-.5s.2-.5.6-.5c.3 0 .5.1.7.3v.4zm1.9.3c-.3 0-.6-.2-.8-.3l-.2.3c.2.3.6.4 1 .4.6 0 1-.3 1-.7 0-.5-.5-.7-.9-.8-.3-.1-.6-.1-.6-.4 0-.2.2-.4.5-.4s.6.1.7.3l.2-.3c-.2-.2-.5-.4-.9-.4-.6 0-.9.3-.9.7 0 .5.5.6.9.7.3.1.6.2.6.4 0 .3-.2.5-.6.5zM736 187v1.4c0 .5-.1.8.5.8.4 0 .5-.2.5-.4v.2h1v-2h-1v1.5c0 .2-.3.4-.6.4s-.4-.1-.4-.6V187zm-4.3.6l-1.1-1.6h-.5l.9 1.7v1.3h1v-1.3l1.2-1.7h-.5zm7.3-.6v2-1.6c0-.2.5-.4.8-.4h.2v-.4c-1 0-1 .2-1 .4zm20.3.6c-.4 0-.8.3-.8.8s.4.8.8.8c.3 0 .7-.1.7-.3v.1h1v-1.5c0-.6-.7-.8-1.2-.8-.4 0-.8.1-1.1.4l.1.3c.2-.2.3-.3.6-.3.4 0 .5.2.5.5v.4c.1-.3-.3-.4-.6-.4zm.9 1c-.1.2-.4.3-.7.3-.4 0-.6-.2-.6-.5s.2-.5.6-.5c.3 0 .5.1.7.3v.4zm-2.2-.7c0-.7-.5-1.3-1.2-1.3s-1.2.6-1.2 1.3c0 .7.5 1.3 1.2 1.3s1.2-.6 1.2-1.3zm-2 0c0-.5.3-.9.8-.9s.8.4.8.9-.3.9-.8.9c-.5.1-.8-.4-.8-.9zm8 1.3c.3 0 1-.2 1-.4v.2-3 1.1c0-.3-.6-.4-1-.4-.6 0-1.1.5-1.1 1.3.1.7.5 1.2 1.1 1.2zm0-2.2c.3 0 .6.2.7.4v1.1c-.1.2-.4.4-.7.4-.5 0-.8-.4-.8-.9 0-.6.3-1 .8-1zm-19.5.5c0-1-.7-1.5-1.7-1.5h-.8v3h.8c1 0 1.7-.5 1.7-1.5zM742 186h.8c.8 0 1.3.8 1.3 1.5s-.5 1.5-1.3 1.5h-.8v-3zm-8 3.2c.7 0 1.2-.6 1.2-1.3 0-.7-.5-1.3-1.2-1.3s-1.2.6-1.2 1.3c0 .7.5 1.3 1.2 1.3zm0-2.2c.5 0 .8.4.8.9s-.3.9-.8.9-.8-.4-.8-.9c0-.4.3-.9.8-.9zm16 .4c1-.2.8-.4 1.1-.4.3 0 .9.1.9.6v1.4-1.6c0-.5-.4-.8-1-.8-.4 0 0 .2-1 .4v-1 3-1.6zm3 1.4c0 .2.6.4.9.4.6 0 1.1-.5 1.1-1.3s-.5-1.3-1.2-1.3c-.3 0-.9.2-.9.4v-1 3-.2zm.3-1.4c.1-.2.4-.4.7-.4.5 0 .8.4.8.9s-.3.9-.8.9c-.3 0-.6-.2-.7-.4v-1zm8.7-.3v-.1h-1v2h1v-1.6c0-.2 0-.4.3-.4 0 .1-.3.1-.3.1v-.4.4z"/>
  </g>
  <g id="Phone_1_">
    <path class="st51" d="M915.6 256.4h-19.2c-1.8 0-3.3 1.5-3.3 3.3v39c0 1.8 1.5 3.3 3.3 3.3h19.2c1.8 0 3.3-1.5 3.3-3.3v-39c0-1.8-1.5-3.3-3.3-3.3z"/>
    <path class="st52" d="M895.5 262h20.9v31.4h-20.9z"/>
    <path class="st13" d="M910.4 259.8h-8.9v-1h8.9v1zm3-1.3c-.5 0-.9.4-.9.9s.4.9.9.9.9-.4.9-.9-.5-.9-.9-.9zM910 296h-8.1v2.5h8.1V296z"/>
    <g id="Badge_1_">
      <linearGradient id="SVGID_7_" gradientUnits="userSpaceOnUse" x1="905.998" y1="270.379" x2="905.998" y2="284.919">
        <stop offset=".381" stop-color="#FFF"/>
        <stop offset="1" stop-color="#E6E7E8"/>
      </linearGradient>
      <circle class="st53" cx="906" cy="277.6" r="7.3"/>
      <path class="st13" d="M905.9 285.4c1.8 0 3.4-.8 4.6-2-1.1-1.3-2.7-2-4.6-2s-3.4.8-4.6 2c1.2 1.2 2.8 2 4.6 2z"/>
      <path class="st54" d="M913.5 277.7c0 1.6-.5 3.1-1.4 4.4-.9 1.2-2.1 2.2-3.5 2.7-1.5.5-3.1.6-4.6.2-1.5-.4-2.8-1.3-3.7-2.5-2-2.4-2.2-6-.6-8.7.8-1.3 2-2.3 3.3-3 1.4-.7 3.1-.8 4.6-.5 1.5.3 2.9 1.1 3.9 2.2 1.1 1.1 1.8 2.5 2 4-.1.4-.1.8 0 1.2 0 .3.5.3.5 0 0-1.6-.5-3.1-1.4-4.5-.9-1.3-2.1-2.3-3.5-2.9-1.5-.6-3.1-.8-4.7-.5-1.5.3-2.9 1.1-4.1 2.1-2.3 2.2-3 5.8-1.8 8.7.6 1.4 1.6 2.7 2.8 3.6 1.3.9 2.8 1.4 4.4 1.5 3.2.1 6.2-1.8 7.5-4.7.5-1 .7-2.2.7-3.3.1-.3-.4-.3-.4 0z"/>
      <linearGradient id="SVGID_8_" gradientUnits="userSpaceOnUse" x1="905.975" y1="270.12" x2="905.975" y2="285.269">
        <stop offset="0" stop-color="#E07B3A"/>
        <stop offset=".755" stop-color="#893D1E"/>
        <stop offset="1" stop-color="#782516"/>
      </linearGradient>
      <path class="st55" d="M913.1 277.7c0 1.5-.5 2.9-1.3 4.1-.8 1.2-2 2.1-3.3 2.5-1.4.5-2.9.6-4.4.2-1.4-.4-2.6-1.2-3.5-2.3-1.9-2.3-2.1-5.6-.6-8.2.7-1.2 1.9-2.2 3.2-2.8 1.3-.6 2.9-.8 4.3-.5 1.4.3 2.7 1 3.7 2.1 1 1 1.7 2.4 1.9 3.8-.1.4 0 .7 0 1.1 0 .3.5.3.5 0 0-1.5-.4-3-1.3-4.2-.8-1.2-2-2.2-3.3-2.7-1.4-.6-3-.8-4.5-.5-1.4.3-2.8 1-3.8 2-2.2 2.1-2.9 5.4-1.7 8.2.5 1.4 1.5 2.5 2.7 3.4 1.2.9 2.7 1.3 4.2 1.4 3 .1 5.8-1.7 7.1-4.4.5-1 .7-2.1.7-3.2-.1-.3-.6-.3-.6 0z"/>
      <defs>
        <path id="SVGID_9_" d="M910.3 278.8l-1.8-1.9v-1.2c0-1-.8-1.8-1.8-1.8h-1.3c-1 0-1.8.8-1.8 1.8v1.4l-1.7 1.6c-.1.1-.1.2 0 .3 0 .1.1.1.2.1s.1 0 .2-.1l1.3-1.3v2.2c0 .9.6 1.6 1.5 1.7v.8c0 .1.1.2.2.2s.2-.1.2-.2v-.8h.6v.8c0 .1.1.2.2.2s.2-.1.2-.2v-.8h.1c1 0 1.8-.8 1.8-1.8v-2.4l1.4 1.5c0 .1.1.1.2.1s.1 0 .2-.1c.2.2.2 0 .1-.1z"/>
      </defs>
      <clipPath id="SVGID_10_">
        <use xlink:href="#SVGID_9_" overflow="visible"/>
      </clipPath>
      <path class="st56" d="M900.2 272.9h12.4v10.7h-12.4z"/>
      <path class="st57" d="M906 273h6.6v10.7H906z"/>
      <path class="st58" d="M902.3 278.2s.1 0 0 0l.1-.4s0-.1-.1-.1c0 0-.1 0-.1.1l.1.4c-.1 0-.1 0 0 0zm0 1.4c-.1 0-.1 0 0 0l-.1.4s0 .1.1.1c0 0 .1 0 .1-.1l-.1-.4c.1 0 0 0 0 0zm-.8-1.6h-.1v.1l.3.3h.2v-.1l-.4-.3zm1.3 1.4h-.1v.1l.3.3h.2v-.1l-.4-.3zm-1.2-.5s-.1-.1 0 0l-.4-.1s-.1 0-.1.1c0 0 0 .1.1.1l.4-.1c-.1.1 0 .1 0 0zm1.8-.1h-.4s-.1 0-.1.1c0 0 0 .1.1.1h.4v-.2c0 .1 0 0 0 0zm-1.8.6l-.3.3v.1h.2l.3-.3v-.1c-.1-.1-.1-.1-.2 0zm7.8-.5s-.1-.1 0 0l-.4-.1s-.1 0-.1.1c0 0 0 .1.1.1l.4-.1c-.1.1 0 .1 0 0zm1.3 0c0 .1.1.1 0 0l.4.1s.1 0 .1-.1c0 0 0-.1-.1-.1l-.4.1c.1-.1 0 0 0 0zm-1.5.8v.1h.1l.3-.3v-.2h-.1l-.3.4zm1.3-1.3v.1h.1l.3-.3v-.2h-.1l-.3.4zm-.4 1.2s-.1.1 0 0l-.1.4s0 .1.1.1c0 0 .1 0 .1-.1l-.1-.4c.1.1 0 0 0 0zm-.1-1.8v.4s0 .1.1.1c0 0 .1 0 .1-.1v-.4h-.2c.1 0 0 0 0 0zm.5 1.7l.3.3h.1v-.2l-.3-.3h-.1v.2z"/>
      <path class="st59" d="M905.7 278.2s.1.2.3.2c.2 0 .4-.2.4-.2"/>
      <defs>
        <path id="SVGID_11_" d="M905.3 275.9h-1v1c0 .4.3.8.8.8h.2c.4 0 .8-.3.8-.8v-1h-.8z"/>
      </defs>
      <clipPath id="SVGID_12_">
        <use xlink:href="#SVGID_11_" overflow="visible"/>
      </clipPath>
      <path class="st60" d="M903.9 275h2.3v2.7h-2.3z"/>
      <path class="st61" d="M904.14 275.047l.243-.176 1.94 2.67-.243.18z"/>
      <circle class="st62" cx="904.8" cy="276.9" r=".2"/>
      <circle class="st13" cx="904.9" cy="276.8" r=".1"/>
      <path class="st63" d="M908.5 275.9h-4.8s-.1 0-.1-.1c0 0 0-.1.1-.1h4.8c.1.1.1.1 0 .2.1 0 .1 0 0 0z"/>
      <defs>
        <path id="SVGID_13_" d="M907.2 275.9h-1v1c0 .4.3.8.8.8h.2c.4 0 .8-.3.8-.8v-1h-.8z"/>
      </defs>
      <clipPath id="SVGID_14_">
        <use xlink:href="#SVGID_13_" overflow="visible"/>
      </clipPath>
      <path class="st64" d="M905.9 275.1h2.3v2.7h-2.3z"/>
      <path class="st65" d="M906.077 274.997l.243-.176 1.94 2.67-.244.18z"/>
      <circle class="st62" cx="906.7" cy="276.9" r=".2"/>
      <circle class="st13" cx="906.8" cy="276.8" r=".1"/>
      <path class="st58" d="M906.7 271.8v.5c0 .3-.2.5-.5.5h-.4c-.3 0-.5-.2-.5-.5v-.5l.3.2.3-.2.3.3.5-.3z"/>
      <path class="st66" d="M907 272.2v1.3c0 .4-.3.7-.7.7h-.5c-.4 0-.7-.3-.7-.7v-1.3l.5.4.5-.4.5.4.4-.4z"/>
      <path class="st58" d="M907.6 272.7v.9c0 .6-.5 1.1-1.1 1.1h-.8c-.6 0-1.1-.5-1.1-1.1v-.9l.8.6.8-.6.7.6.7-.6z"/>
      <path class="st67" d="M905.6 275.9h.3v.6zm1.9 0h.3v.6z"/>
      <path class="st66" d="M906.8 273.3l-.7-.6v2h.4c.6 0 1.1-.5 1.1-1.1v-.9l-.8.6zm-.4-1.2l-.3-.3v.8h.2c.3 0 .5 0 .5-.5v-.4l-.4.4z"/>
      <path class="st58" d="M905.6 272.6l-.5-.4v1.3c0 .4.3.7.7.7h.3v-1.9l-.5.3z"/>
    </g>
  </g>
  <g id="Lamp_1_">
    <path class="st23" d="M667.7 244.1c-3.2 2.2-7.6 1.3-9.8-1.9l11.7-7.9c2.2 3.3 1.4 7.7-1.9 9.8z"/>
    <path class="st13" d="M604 249.1l1.3 1.9 2 3 1.3 1.9 24.4 36.2c-6.2 1.6-10.6 5.4-11.1 9.9h35.7c-.6-5.4-6.9-9.8-15.1-10.6l-27-40.1 31.8-21.4 1.3 18.7 21.2-14.3 9.4-6.4-20.9-10.2-7.6-11.3-11.3 7.6 5.2 7.7-40.6 27.4zm10.1.3l-2-3 33.6-22.7 1.2 1.7.1 1.8-32.9 22.2zm-3.6 5.2l3-2 26.1 38.6c-1.4 0-2.8.1-4.1.3l-25-36.9zm-3.3-4.9l3-2 2 3-3 2-2-3z"/>
  </g>
  <g id="Photo_Frame_1_">
    <path class="st68" d="M975 105h108v74H975z"/>
    <path class="st69" d="M980 106l49-22m49 22l-49-22"/>
    <path class="st68" d="M975 105h108v74H975z"/>
    <path class="st70" d="M979 109h100v66H979z"/>
    <path class="st4" d="M979 161h100v14H979z"/>
    <circle class="st51" cx="1029" cy="84" r="2"/>
    <path class="st71" d="M1018.7 149.5h2.3v18.1h-2.3z"/>
    <path class="st71" d="M1024.5 168c-1.1-1.5-4.1-1.6-4.1-1.6h-1.3l-.4 1.4c0-.1 5.8.3 5.8.2zm-9.4-18.5h2.3v18.1h-2.3z"/>
    <path class="st71" d="M1011.9 168c1.1-1.5 4.1-1.6 4.1-1.6h1.3l.4 1.4c0-.1-5.7.3-5.8.2z"/>
    <path class="st46" d="M1022.878 135.867l5.663-11.144 2.14 1.087-5.66 11.144z"/>
    <path class="st43" d="M1021.78 137.537l5.663-11.144 2.496 1.27-5.67 11.143z"/>
    <ellipse transform="rotate(-15.35 1023.09 138.017)" class="st43" cx="1023.1" cy="138" rx="1.4" ry="1.4"/>
    <path class="st46" d="M1004.976 126.01l2.114-1.138 5.924 11.008-2.114 1.137z"/>
    <path class="st43" d="M1005.794 127.785l2.465-1.327 5.92 11.008-2.468 1.327z"/>
    <ellipse transform="rotate(-70.58 1012.808 138.046)" class="st43" cx="1012.8" cy="138" rx="1.4" ry="1.4"/>
    <path class="st43" d="M1012.6 137.2h11.1v11.1h-11.1z"/>
    <path class="st71" d="M1012.6 147.6h11.1v3.6h-11.1z"/>
    <path class="st44" d="M1012.6 140.4v-3.7h11.1v3.7l-5.6 3.7z"/>
    <path class="st45" d="M1012.6 140.4v-3.7h5.5v7.4z"/>
    <ellipse class="st46" cx="1023.6" cy="130.9" rx="1" ry="1.1"/>
    <path class="st46" d="M1023.7 135.5c0 2.5-2.4 4.6-5.4 4.6h-.2c-3 0-5.4-2-5.4-4.6v-8c0-2.5 2.4-4.6 5.4-4.6h.2c3 0 5.4 2 5.4 4.6v8z"/>
    <path class="st47" d="M1018 140.1c-3 0-5.4-2-5.4-4.6v-8c0-2.5 2.4-4.6 5.4-4.6v17.2z"/>
    <ellipse class="st47" cx="1012.5" cy="130.9" rx="1.1" ry="1.1"/>
    <path class="st48" d="M1018.1 121.2c-1.5.1-6.2.1-6.2 5 0 1.2.4 3.7.4 3.7s.6 0 .8.7h.3s.4-.1.3-1.2c0-.2.1-2.3.2-3 .1-1.1 1.4-.5 1.8-.4.6.2 1.3.3 2.3.3 1 0 1.8-.2 2.4-.3.4-.1 2-1 1.9.4 0 .4.2 2.7.2 3 0 1 .3 1.2.3 1.2h.3c.2-.7.8-.7.8-.7s.4-2.5.4-3.7c0-5-4.6-5-6.2-5z"/>
    <path class="st49" d="M1021.6 133.5c0-.1-.1-.2-.2-.2h-2.2c-.1 0-.2.1-.2.2h2.6z"/>
    <path class="st49" d="M1020.9 133.3V132c0-.3-.2-.5-.5-.5s-.5.2-.5.5v1.4h1z"/>
    <path class="st13" d="M1020.5 132.4c-.1.1-.2 0-.2 0v-.4s0-.1.1-.1c0 0 .1 0 .1.1v.4z"/>
    <path class="st48" d="M1019 130.4h2.6v.4h-2.6zm-4.8 0h2.6v.4h-2.6z"/>
    <path class="st49" d="M1016.8 133.4c0-.1-.1-.2-.2-.2h-2.2c-.1 0-.2.1-.2.2h2.6z"/>
    <path class="st49" d="M1016.1 133.3V132c0-.3-.2-.5-.5-.5s-.5.2-.5.5v1.4h1z"/>
    <path class="st13" d="M1015.7 132.4s0 .1 0 0c-.1.1-.2 0-.2 0v-.4s0-.1.1-.1c0 0 .1 0 .1.1v.4z"/>
    <path class="st72" d="M1039.2 154.1h1.4v13.7h-1.4z"/>
    <path class="st72" d="M1035.5 168c1-1.4 3.9-1.5 3.9-1.5h1.2l.3 1.3c0-.1-5.3.3-5.4.2zm6.5-13.9h1.4v13.7h-1.4z"/>
    <path class="st72" d="M1047.2 168c-1-1.4-3.9-1.5-3.9-1.5h-1.2l-.3 1.3c-.1-.1 5.3.3 5.4.2z"/>
    <path class="st73" d="M1034.5 129s-.4 11.8 6.8 11.9c4.5 0 7.2-7.2 6.9-10.9-.3-2.9-12.5-6.9-13.7-1z"/>
    <path class="st46" d="M1040.2 136.7h2.2v4.2h-2.2z"/>
    <path class="st47" d="M1042.4 138.7h-2.2v-.8h2.2z"/>
    <ellipse class="st46" cx="1046.2" cy="131" rx="1" ry="1"/>
    <path class="st46" d="M1046.3 133.8c0 2.3-2.2 4.2-5 4.2h-.2c-2.8 0-5-1.9-5-4.2v-7.3c0-2.3 2.2-4.2 5-4.2h.2c2.8 0 5 1.9 5 4.2v7.3z"/>
    <path class="st47" d="M1041.1 138c-2.8 0-5-1.9-5-4.2v-7.3c0-2.3 2.2-4.2 5-4.2V138z"/>
    <ellipse class="st47" cx="1036.1" cy="131" rx="1" ry="1"/>
    <path class="st73" d="M1035.8 129.6c-.1-4.6 2.6-5.5 3.3-5.5 0 0 2.2 4.9 7.9 4.9 2 0 1-.4 1.2-.9.3-1-.9-4.4-2.8-5.5-1.6-.9-3.8-2.4-6.3-.7-1.9 1.3-1 1.1-1 1.1s-2.2-.5-3.3 2.3c-1 2.5-.7 3.2-.4 4.3"/>
    <path class="st74" d="M1046.9 127.2c-.1 0-.1 0-.1-.1-.4-1.6-1.5-2.8-3.2-3.5-1.3-.6-2.4-.6-2.4-.6-.1 0-.1-.1-.1-.2s.1-.1.2-.1c0 0 1.2.1 2.5.7 1.8.8 2.9 2.1 3.3 3.7-.1 0-.1 0-.2.1z"/>
    <path class="st72" d="M1045.2 130.4h-8.6c-.1 0-.2-.1-.2-.2s.1-.2.2-.2h8.6c.1 0 .2.1.2.2.1.1 0 .2-.2.2z"/>
    <path class="st75" d="M1038.1 130.2h2.5v2h-2.5z"/>
    <path class="st72" d="M1040.7 132.3h-2.9V130h2.9v2.3zm-2.4-.4h2.1v-1.6h-2.1v1.6z"/>
    <path class="st75" d="M1041.8 130.2h2.5v2h-2.5z"/>
    <path class="st72" d="M1044.5 132.3h-2.9V130h2.9v2.3zm-2.5-.4h2.1v-1.6h-2.1v1.6z"/>
    <path class="st46" d="M1032.974 150.733l3.616-9.323 1.492.58-3.616 9.322z"/>
    <path class="st44" d="M1033.412 149.343l3.616-9.323 1.584.614-3.616 9.323z"/>
    <ellipse transform="rotate(-2.6 1037.914 140.283)" class="st44" cx="1037.9" cy="140.3" rx=".9" ry=".9"/>
    <path class="st46" d="M1044.223 141.8l1.488-.59 3.69 9.296-1.49.59z"/>
    <path class="st44" d="M1043.753 140.723l1.58-.626 3.686 9.296-1.587.626z"/>
    <ellipse transform="rotate(-45.434 1044.586 140.288)" class="st44" cx="1044.5" cy="140.3" rx=".9" ry=".9"/>
    <path class="st44" d="M1044.3 147.3l.3-7.9-3.3.5-3.7-.5.7 8z"/>
    <path class="st76" d="M1044.4 144.9c1.8 1.1 2.8 16 2.8 18.2h-11.8c0-2.2.9-17.1 2.7-18.2h6.3z"/>
  </g>
</svg>
