<svg xmlns="http://www.w3.org/2000/svg" xmlns:xlink="http://www.w3.org/1999/xlink" width="1170" height="563" viewBox="0 0 1170 563">
  <style>
    .st0{fill:#C9F3FF;} .st1{fill:none;} .st2{opacity:0.2;fill:#A4A6A9;enable-background:new ;} .st3{fill:#CAB384;} .st4{fill:#DCB848;} .st5{fill:#88B74A;} .st6{fill:#95C95B;} .st7{fill:#BE9734;} .st8{fill:#7E9633;} .st9{fill:#6B7C25;} .st10{fill:#FFFFFF;} .st11{fill:#736357;} .st12{fill:#998675;} .st13{opacity:0.2;enable-background:new ;} .st14{enable-background:new ;} .st15{fill:#FAC73E;} .st16{fill:#5E5D5D;} .st17{opacity:0.1;enable-background:new ;} .st18{fill:#3C3C3B;} .st19{fill:#EAE5D0;} .st20{fill:#507B93;} .st21{fill:#BE1622;} .st22{fill:#A31324;} .st23{fill:#E1D8BC;} .st24{fill:#683C11;} .st25{fill:#3B363A;} .st26{fill:#FBB03B;} .st27{fill:#F7931E;} .st28{fill:#AA998C;} .st29{opacity:0.49;clip-path:url(#SVGID_16_);fill:#736357;enable-background:new ;} .st30{opacity:0.74;clip-path:url(#SVGID_18_);fill:#736357;enable-background:new ;} .st31{clip-path:url(#SVGID_20_);fill:#736357;} .st32{clip-path:url(#SVGID_22_);fill:#534741;} .st33{opacity:0.7;fill:#FFFFFF;enable-background:new ;} .st34{opacity:0.15;enable-background:new ;} .st35{fill:url(#SVGID_23_);} .st36{fill:#F4BA18;} .st37{fill:url(#SVGID_24_);} .st38{fill:#FBEF66;} .st39{clip-path:url(#SVGID_28_);fill:#FBEF66;} .st40{clip-path:url(#SVGID_30_);fill:#FBEF66;} .st41{fill:#D2BC2D;} .st42{clip-path:url(#SVGID_32_);fill:#D2BC2D;} .st43{clip-path:url(#SVGID_34_);fill:#D2BC2D;} .st44{clip-path:url(#SVGID_36_);fill:#D2BC2D;} .st45{clip-path:url(#SVGID_38_);fill:#D2BC2D;} .st46{clip-path:url(#SVGID_40_);fill:#FBEF66;} .st47{clip-path:url(#SVGID_42_);fill:#FBEF66;} .st48{clip-path:url(#SVGID_44_);fill:#FBEF66;} .st49{fill:#41B166;} .st50{fill:#2B944E;} .st51{clip-path:url(#SVGID_46_);fill:#A04630;} .st52{clip-path:url(#SVGID_48_);fill:#722A1E;} .st53{fill:#404041;} .st54{clip-path:url(#SVGID_50_);fill:#404041;} .st55{clip-path:url(#SVGID_52_);fill:#FFFFFF;} .st56{fill:#58595B;} .st57{fill:none;stroke:#404041;stroke-width:9.1212;stroke-linecap:round;stroke-linejoin:round;stroke-miterlimit:10;} .st58{fill:#1A1A1A;} .st59{fill:url(#SVGID_53_);} .st60{fill:#91BAD7;} .st61{fill:url(#SVGID_54_);} .st62{clip-path:url(#SVGID_56_);fill:#A04630;} .st63{clip-path:url(#SVGID_58_);fill:#722A1E;} .st64{clip-path:url(#SVGID_60_);fill:#58595B;} .st65{clip-path:url(#SVGID_62_);fill:#404041;} .st66{clip-path:url(#SVGID_64_);fill:#404041;} .st67{clip-path:url(#SVGID_66_);fill:#F27246;} .st68{clip-path:url(#SVGID_68_);fill:#D45D3A;} .st69{clip-path:url(#SVGID_70_);fill:#58595B;} .st70{clip-path:url(#SVGID_72_);fill:#404041;} .st71{clip-path:url(#SVGID_74_);fill:#F27246;} .st72{clip-path:url(#SVGID_76_);fill:#D45D3A;} .st73{clip-path:url(#SVGID_78_);fill:#404041;} .st74{clip-path:url(#SVGID_80_);fill:#58595B;} .st75{clip-path:url(#SVGID_82_);fill:#404041;} .st76{clip-path:url(#SVGID_84_);fill:#58595B;} .st77{clip-path:url(#SVGID_86_);fill:#F27246;} .st78{clip-path:url(#SVGID_88_);fill:#D45D3A;} .st79{fill:#A04630;} .st80{fill:url(#SVGID_89_);} .st81{fill:#E07B3A;} .st82{fill:url(#SVGID_90_);} .st83{clip-path:url(#SVGID_92_);fill:#FBEF66;} .st84{clip-path:url(#SVGID_94_);fill:#D2BC2D;} .st85{fill:none;stroke:#404041;stroke-width:9.8397;stroke-linecap:round;stroke-linejoin:round;stroke-miterlimit:10;} .st86{clip-path:url(#SVGID_96_);fill:#1A1A1A;} .st87{display:none;opacity:0.4;clip-path:url(#SVGID_98_);fill:#FFFFFF;enable-background:new ;} .st88{clip-path:url(#SVGID_100_);fill:#231F20;} .st89{display:none;opacity:0.4;clip-path:url(#SVGID_102_);fill:#FFFFFF;enable-background:new ;} .st90{opacity:0.4;fill:#FFFFFF;enable-background:new ;} .st91{opacity:0.49;clip-path:url(#SVGID_104_);fill:#736357;enable-background:new ;} .st92{opacity:0.74;clip-path:url(#SVGID_106_);fill:#736357;enable-background:new ;} .st93{clip-path:url(#SVGID_108_);fill:#736357;} .st94{clip-path:url(#SVGID_110_);fill:#534741;} .st95{fill:url(#SVGID_111_);} .st96{fill:url(#SVGID_112_);} .st97{clip-path:url(#SVGID_114_);fill:#FBEF66;} .st98{clip-path:url(#SVGID_116_);fill:#FBEF66;} .st99{clip-path:url(#SVGID_118_);fill:#D2BC2D;} .st100{clip-path:url(#SVGID_120_);fill:#D2BC2D;} .st101{clip-path:url(#SVGID_122_);fill:#D2BC2D;} .st102{clip-path:url(#SVGID_124_);fill:#D2BC2D;} .st103{clip-path:url(#SVGID_126_);fill:#FBEF66;} .st104{clip-path:url(#SVGID_128_);fill:#FBEF66;} .st105{clip-path:url(#SVGID_130_);fill:#FBEF66;} .st106{clip-path:url(#SVGID_132_);fill:#A04630;} .st107{clip-path:url(#SVGID_134_);fill:#722A1E;} .st108{clip-path:url(#SVGID_136_);fill:#404041;} .st109{clip-path:url(#SVGID_138_);fill:#FFFFFF;} .st110{fill:url(#SVGID_139_);} .st111{fill:url(#SVGID_140_);} .st112{clip-path:url(#SVGID_142_);fill:#A04630;} .st113{clip-path:url(#SVGID_144_);fill:#722A1E;} .st114{clip-path:url(#SVGID_146_);fill:#58595B;} .st115{clip-path:url(#SVGID_148_);fill:#404041;} .st116{clip-path:url(#SVGID_150_);fill:#404041;} .st117{clip-path:url(#SVGID_152_);fill:#F27246;} .st118{clip-path:url(#SVGID_154_);fill:#D45D3A;} .st119{clip-path:url(#SVGID_156_);fill:#58595B;} .st120{clip-path:url(#SVGID_158_);fill:#404041;} .st121{clip-path:url(#SVGID_160_);fill:#F27246;} .st122{clip-path:url(#SVGID_162_);fill:#D45D3A;} .st123{clip-path:url(#SVGID_164_);fill:#404041;} .st124{clip-path:url(#SVGID_166_);fill:#58595B;} .st125{clip-path:url(#SVGID_168_);fill:#404041;} .st126{clip-path:url(#SVGID_170_);fill:#58595B;} .st127{clip-path:url(#SVGID_172_);fill:#F27246;} .st128{clip-path:url(#SVGID_174_);fill:#D45D3A;} .st129{fill:url(#SVGID_175_);} .st130{fill:url(#SVGID_176_);} .st131{clip-path:url(#SVGID_178_);fill:#FBEF66;} .st132{clip-path:url(#SVGID_180_);fill:#D2BC2D;} .st133{clip-path:url(#SVGID_182_);fill:#1A1A1A;} .st134{display:none;opacity:0.4;clip-path:url(#SVGID_184_);fill:#FFFFFF;enable-background:new ;} .st135{clip-path:url(#SVGID_186_);fill:#231F20;} .st136{display:none;opacity:0.4;clip-path:url(#SVGID_188_);fill:#FFFFFF;enable-background:new ;}
  </style>
  <path class="st0" d="M0 0h1170v563H0V0z"/>
  <path class="st1" d="M756 507H0v33h1170v-33M6 363h9v4h5v24h13v-42h18v42h21v40h43v-47h18v47h12v-54h18v54h60v-27h13v-18h26v14h25v-23h23v-34h14v-23h9v23h15v27h35v7h20v14h13v6h10v35.2l24-4.6V396h17v28.1l8-1.6V402h9v18.8l11-2.2V393h9v23.9l35.5-6.9 16.5 51v-61h11v-26h5v26h10v38h26v-25h43v25h14v-29h26v24h13v-25h9v25h4v-33h26v63h13v3h18v-50h4v-36h8v36h8v-36h6v-16h8v16h5v-10h8v10h7v-4h8v4h5v21h12v-38h16v38h19v37h40v-43h16v43h11v-50h16v50h55v-25h12v-16h23v13h23v-22h20v-30h14v-21h8v21h14v24h30V0H0v367h6"/>
  <path class="st2" d="M756 466v-3h-13v-63h-26v33h-4v-25h-9v25h-13v-24h-26v29h-14v-25h-43v25h-26v-38h-10v-26h-5v26h-11v61l-16.5-51-35.5 6.9V393h-9v25.6l-11 2.2V402h-9v20.5l-8 1.6V396h-17v31.6l-24 4.6V397h-10v-6h-13v-14h-20v-7h-35v-27h-15v-23h-9v23h-14v34h-23v23h-25v-14h-26v18h-13v27h-60v-54h-18v54h-12v-47h-18v47H72v-40H51v-42H33v42H20v-24h-5v-4H6v4H0v140h756m384-149h-14v-21h-8v21h-14v30h-20v22h-23v-13h-23v16h-12v25h-55v-50h-16v50h-11v-43h-16v43h-40v-37h-19v-38h-16v38h-12v-21h-5v-4h-8v4h-7v-10h-8v10h-5v-16h-8v16h-6v36h-8v-36h-8v36h-4v50h-18v41h414V382h-30"/>
  <path id="Ground_2_" class="st3" d="M0 481h1170v82H0v-82z"/>
  <g id="Tree_4_">
    <path class="st4" d="M73.4 483h-4.5c.8-1.7 1.3-7.6.8-9.3h3c-.6 1.7-.1 7.6.7 9.3z"/>
    <path class="st5" d="M84 462.3c0 7.1-5.8 12.9-12.9 12.9s-12.9-5.8-12.9-12.9 6.5-25.7 13.6-25.7S84 455.2 84 462.3z"/>
    <path class="st6" d="M73.3 436.9v.4c-.1 2.1-.4 4.4 0 6.5.3 1.6.8 3.2.8 4.9 0 1.7-.2 3.6-1.1 5.1-.6 1-1.5 2-2 3.1-1.5 3.5 1.2 7.6 1 11.2-.1 2-.6 3.8-1.3 5.5-.2.5-.4 1-.6 1.6.4 0 .8.1 1.2.1 7.1 0 12.9-5.8 12.9-12.9-.2-6.7-4.6-23.3-10.9-25.5z"/>
  </g>
  <g id="Tree_3_">
    <path class="st7" d="M54.1 483h-6.7c1.3-3.3 1.9-14.4 1.1-17.7h4.4c-.8 3.3-.1 14.4 1.2 17.7z"/>
    <path class="st8" d="M67.6 455.4c0 9.3-7.6 16.9-16.9 16.9s-16.9-7.6-16.9-16.9 8.5-33.7 17.9-33.7 15.9 24.3 15.9 33.7z"/>
    <path class="st9" d="M53.5 422v.5c-.1 2.8-.6 5.8 0 8.6.4 2.1 1 4.3 1.1 6.4 0 2.3-.2 4.7-1.4 6.7-.8 1.3-2 2.6-2.7 4-2 4.7 1.6 10 1.3 14.7-.2 2.6-.8 5-1.8 7.2-.2.7-.5 1.4-.8 2.1.5 0 1 .1 1.6.1 9.3 0 16.9-7.6 16.9-16.9-.1-8.8-5.8-30.6-14.2-33.4z"/>
  </g>
  <g id="Bush_4_">
    <path class="st5" d="M1078.5 482h47.6c2.3-3.7 2.8-7.5 1-8.7-.7-.4-1.6-.4-2.6 0 .1-2.6-.7-4.6-2.2-5.2-1.8-.7-4.2.7-6.2 3.4-.4-7.6-4.1-13.6-8.7-13.6-3.7 0-6.8 3.8-8.1 9.3-1.5-2.7-3.7-4.5-6.2-4.5-3.7 0-6.9 3.9-7.8 9.2-1.6-2-3.4-3.1-5.1-2.7-2.8.8-3.9 5.7-2.4 11.1.3.7.5.5.7 1.7z"/>
    <path class="st6" d="M1127.1 473.3c-.7-.4-1.6-.4-2.6 0 .1-2.6-.7-4.6-2.2-5.2-1.8-.7-4.2.7-6.2 3.4-.4-7.6-4-13.6-8.5-13.6-1.3 0-2.6.5-3.6 1.5V482h22.1c2.3-3.7 2.8-7.5 1-8.7z"/>
  </g>
  <g id="Bush_3_">
    <path class="st8" d="M1157.5 482c3.5-3.7 4.4-9.7 2-11.6-1.7-1.4-4.6-.6-7.6 1.4 1.4-5.4.6-10-2.4-11.5-2-1.1-4.6-.4-7.3 1.4-1.4-7.5-5-12.9-9.3-12.9-5.3 0-9.6 8.3-9.9 18.8-1.8-1.6-3.7-2.3-5.3-1.7-2.4.9-3.5 4.3-3 8.5-2.6-.3-4.7 0-5.6 1.5-1.1 1.7-.5 5.1 1.2 6.3h47.2v-.2z"/>
    <path class="st9" d="M1159.5 470.4c-1.7-1.4-4.6-.6-7.6 1.4 1.4-5.4.6-10-2.4-11.5-2-1.1-5-.4-7.6 1.4-1.3-7.1-4-12.3-9-12.8V482h24.5c3.5-3.7 4.5-9.7 2.1-11.6z"/>
  </g>
  <g id="Scoreboard_2_">
    <path class="st10" d="M1015 384H857V228c0-5.5 4.5-10 10-10h138c5.5 0 10 4.5 10 10v156z"/>
    <path class="st11" d="M998.7 253.9H873.3c-3.3 0-6 2.7-6 6V308c3.3 0 6 2.7 6 6h125.4c0-3.3 2.7-6 6-6v-48.1c0-3.3-2.7-6-6-6zm0 61.1H873.3c0 3.3-2.7 6-6 6v48.1c0 3.3 2.7 6 6 6h125.4c3.3 0 6-2.7 6-6V321c-3.3 0-6-2.7-6-6z"/>
    <path class="st12" d="M873 314h125.7v1H873v-1z"/>
    <path d="M914.4 320l3.9-37.1h35.5v9.7h-26.2l-2 16.8c1.3-1 2.9-1.8 4.6-2.4 1.7-.6 3.7-1 5.9-1 6.3-.1 11.2 1.9 14.8 6 3.6 4.1 5.3 9.6 5.3 16.7 0 6.6-1.9 12-5.6 16.1s-9.2 6.3-16.3 6.3c-5.9 0-10.9-1.6-15-4.9-4.1-3.2-6-7.8-5.9-13.8l.1-.2 10.5-.4c0 3.2 1 5.8 2.9 7.6 1.9 1.8 4.4 2.7 7.4 2.7 3.5 0 6.1-1.2 8-3.7 1.8-2.4 2.7-5.7 2.7-9.7 0-4.1-.9-7.4-2.8-9.9s-4.6-3.8-8-3.8c-3.1 0-5.4.5-6.8 1.5-1.5 1-2.6 2.5-3.3 4.3l-9.7-.8z" class="st13"/>
    <path class="st14 st15" d="M914.4 317l3.9-37.1h35.5v9.7h-26.2l-2 16.8c1.3-1 2.9-1.8 4.6-2.4 1.7-.6 3.7-1 5.9-1 6.3-.1 11.2 1.9 14.8 6 3.6 4.1 5.3 9.6 5.3 16.7 0 6.6-1.9 12-5.6 16.1s-9.2 6.3-16.3 6.3c-5.9 0-10.9-1.6-15-4.9-4.1-3.2-6-7.8-5.9-13.8l.1-.2 10.5-.4c0 3.2 1 5.8 2.9 7.6 1.9 1.8 4.4 2.7 7.4 2.7 3.5 0 6.1-1.2 8-3.7 1.8-2.4 2.7-5.7 2.7-9.7 0-4.1-.9-7.4-2.8-9.9s-4.6-3.8-8-3.8c-3.1 0-5.4.5-6.8 1.5-1.5 1-2.6 2.5-3.3 4.3l-9.7-.8z"/>
    <path class="st14 st16" d="M883.5 240h-3.3l-.7 2H878l3.1-8.5h1.3l3.1 8.5h-1.4l-.6-2zm-3-1.2h2.5l-1.2-3.6-1.3 3.6zm5.6.1c0-1 .2-1.8.7-2.4s1-.9 1.8-.9c.3 0 .7.1.9.2s.5.3.7.6v-3.5h1.4v9.1h-1.2l-.1-.8c-.2.3-.4.5-.7.7s-.6.2-1 .2c-.8 0-1.4-.3-1.8-.8s-.7-1.3-.7-2.2v-.2zm1.5.1c0 .6.1 1.1.3 1.4s.6.5 1.1.5c.3 0 .6-.1.8-.2s.4-.3.5-.6v-2.8c-.1-.2-.3-.4-.5-.5s-.5-.2-.8-.2c-.5 0-.8.2-1.1.6s-.3.9-.3 1.6v.2zm7.8.9l.1.5.1-.5 1.3-4.2h1.5l-2.2 6.3H895l-2.3-6.3h1.5l1.2 4.2zm6.5 2.2c-.9 0-1.6-.3-2.1-.9s-.8-1.3-.8-2.3v-.2c0-.9.3-1.7.8-2.3s1.2-.9 2-.9c.9 0 1.5.3 2 .8s.7 1.2.7 2.1v.8h-4c0 .5.2.9.4 1.2s.6.5 1.1.5c.4 0 .7 0 1-.1s.5-.2.8-.4l.5.9c-.2.2-.6.4-.9.5s-1 .3-1.5.3zm-.1-5.4c-.4 0-.6.1-.9.4s-.4.6-.4 1.1h2.5v-.1c0-.4-.1-.7-.3-1s-.5-.4-.9-.4zm5-1l.1.9c.2-.3.5-.6.8-.8s.7-.3 1.1-.3c.7 0 1.2.2 1.5.6s.6 1 .6 1.9v4h-1.4v-4c0-.5-.1-.8-.3-1s-.5-.3-.9-.3c-.3 0-.5.1-.7.2s-.4.3-.5.5v4.6h-1.4v-6.3h1.1zm7.3-1.6v1.5h1.1v1.1h-1.1v3.5c0 .3.1.4.2.6s.3.2.5.2h.2s.1 0 .2-.1l.2 1c-.1.1-.3.1-.4.2s-.3.1-.5.1c-.5 0-.9-.2-1.2-.5s-.4-.8-.4-1.4v-3.5h-1v-1.1h1v-1.5h1.2zm6.4 7c-.2.3-.5.6-.8.8s-.7.3-1.1.3c-.7 0-1.2-.2-1.6-.7s-.6-1.1-.6-2v-3.8h1.4v3.8c0 .6.1.9.3 1.2s.5.3.8.3c.3 0 .6-.1.9-.2s.4-.3.5-.5v-4.6h1.4v6.3h-1.2v-.9zm6-4.2h-.6c-.3 0-.5.1-.7.2s-.3.3-.4.5v4.4h-1.4v-6.3h1.3l.1.9c.2-.3.4-.6.6-.8s.5-.3.9-.3h.4l-.2 1.4zm3.7 5.2c-.9 0-1.6-.3-2.1-.9s-.8-1.3-.8-2.3v-.2c0-.9.3-1.7.8-2.3s1.2-.9 2-.9c.9 0 1.5.3 2 .8s.7 1.2.7 2.1v.8h-4c0 .5.2.9.4 1.2s.6.5 1.1.5c.4 0 .7 0 1-.1s.5-.2.8-.4l.5.9c-.2.2-.6.4-.9.5s-1 .3-1.5.3zm-.2-5.4c-.4 0-.6.1-.9.4s-.4.6-.4 1.1h2.5v-.1c0-.4-.1-.7-.3-1s-.5-.4-.9-.4zm12.4 2.3c0 .9-.2 1.7-.7 2.2s-1 .8-1.8.8c-.4 0-.7-.1-1-.2s-.5-.3-.7-.6v3.1h-1.4v-8.8h1.2l.1.8c.2-.3.4-.5.7-.7s.6-.2 1-.2c.8 0 1.4.3 1.8.9s.7 1.4.7 2.4v.3zm-1.4-.1c0-.6-.1-1.2-.4-1.6-.2-.4-.6-.6-1.1-.6-.3 0-.5.1-.8.2s-.4.3-.5.5v2.9c.1.2.3.4.5.5s.5.2.8.2c.5 0 .8-.2 1.1-.5.2-.4.4-.8.4-1.4v-.2zm2.3-.1c0-.9.3-1.7.8-2.3.5-.6 1.2-.9 2.1-.9.9 0 1.6.3 2.1.9.5.6.8 1.4.8 2.3v.1c0 1-.3 1.7-.8 2.3-.5.6-1.2.9-2.1.9-.9 0-1.6-.3-2.1-.9-.5-.6-.8-1.4-.8-2.3v-.1zm1.5.1c0 .6.1 1.1.4 1.5.2.4.6.6 1.1.6.5 0 .9-.2 1.1-.6.2-.4.4-.9.4-1.5v-.1c0-.6-.1-1.1-.4-1.5-.2-.4-.6-.6-1.1-.6-.5 0-.9.2-1.1.6-.2.4-.4.9-.4 1.5v.1zm7.1-4.8h-1.4v-1.2h1.4v1.2zm0 7.9h-1.4v-6.3h1.4v6.3zm2.9-6.3l.1.9c.2-.3.5-.6.8-.8s.7-.3 1.1-.3c.7 0 1.2.2 1.5.6s.6 1 .6 1.9v4h-1.4v-4c0-.5-.1-.8-.3-1s-.5-.3-.9-.3c-.3 0-.5.1-.7.2s-.4.3-.5.5v4.6h-1.4v-6.3h1.1zm7.3-1.6v1.5h1.1v1.1h-1.1v3.5c0 .3.1.4.2.6s.3.2.5.2h.2s.1 0 .2-.1l.2 1c-.1.1-.3.1-.4.2s-.3.1-.5.1c-.5 0-.9-.2-1.2-.5s-.4-.8-.4-1.4v-3.5h-1v-1.1h1v-1.5h1.2zm6 6.2c0-.2-.1-.4-.3-.5s-.5-.3-1-.4c-.8-.2-1.3-.4-1.7-.7s-.6-.7-.6-1.2.2-1 .7-1.4 1-.6 1.8-.6 1.4.2 1.8.6.7.9.7 1.4H968c0-.3-.1-.5-.3-.7s-.5-.3-.8-.3c-.3 0-.6.1-.8.2s-.3.3-.3.6.1.4.3.5.5.2 1 .3c.8.2 1.4.4 1.8.7s.6.7.6 1.2c0 .6-.2 1-.7 1.4s-1.1.5-1.9.5c-.8 0-1.5-.2-2-.6s-.7-.9-.7-1.5h1.3c0 .4.1.6.4.8s.6.3.9.3c.4 0 .7-.1.8-.2s.5-.2.5-.4z"/>
    <path class="st12" d="M877 384h6v97h-6v-97zm111 0h6v97h-6v-97z"/>
    <circle class="st12" cx="995" cy="262" r="2"/>
    <circle class="st12" cx="876" cy="262" r="2"/>
    <circle class="st12" cx="995" cy="367" r="2"/>
    <circle class="st12" cx="876" cy="367" r="2"/>
  </g>
  <ellipse id="Shadow_10_" class="st17" cx="723.8" cy="497.6" rx="29" ry="5.5"/>
  <path class="st18" d="M726.4 445.9h6.5v50.9h-6.5v-50.9z"/>
  <path class="st18" d="M742.6 497.9c-3-4.2-11.7-4.6-11.7-4.6h-3.6l-1 3.9c.1 0 16.2 1 16.3.7zm-26.5-52h6.5v50.9h-6.5v-50.9z"/>
  <path class="st18" d="M707.2 497.9c3-4.2 11.7-4.6 11.7-4.6h3.6l1 3.9c-.1 0-16.2 1-16.3.7z"/>
  <path class="st19" d="M737.9 407.5l16-31.5 6.1 3.1-16 31.5-6.1-3.1z"/>
  <path class="st20" d="M735 412.3l16-31.5 7 3.6-16 31.5-7-3.6z"/>
  <ellipse transform="rotate(-15.35 738.746 413.522)" class="st20" cx="738.7" cy="413.5" rx="3.9" ry="3.9"/>
  <path class="st19" d="M687.7 379.8l6-3.2 16.7 31.1-6 3.2-16.7-31.1z"/>
  <path class="st20" d="M689.8 384.9l7-3.7 16.7 31.1-7 3.7-16.7-31.1z"/>
  <ellipse transform="rotate(-70.58 709.75 413.57)" class="st20" cx="709.7" cy="413.6" rx="3.9" ry="3.9"/>
  <path class="st20" d="M709 411.3h31.3v31.3H709v-31.3z"/>
  <path class="st18" d="M709 440.6h31.3v10.1H709v-10.1z"/>
  <path class="st21" d="M709 420.1v-10.2h31.3v10.2l-15.7 10.7"/>
  <path class="st22" d="M709 420.1v-10.2h15.6v20.9"/>
  <ellipse class="st19" cx="740" cy="393.6" rx="2.9" ry="3.1"/>
  <path class="st19" d="M740.3 406.5c0 7.1-6.9 12.9-15.4 12.9h-.6c-8.5 0-15.4-5.8-15.4-12.9V384c0-7.1 6.9-12.9 15.4-12.9h.6c8.5 0 15.4 5.8 15.4 12.9v22.5z"/>
  <path class="st23" d="M724.2 419.4c-8.5 0-15.4-5.8-15.4-12.9V384c0-7.1 6.9-12.9 15.4-12.9v48.3z"/>
  <ellipse class="st23" cx="708.8" cy="393.5" rx="3" ry="3"/>
  <path class="st24" d="M724.5 366c-4.3.3-17.4.2-17.4 14.1 0 3.3 1 10.5 1 10.5s1.6 0 2.1 1.9l.9-.1s1.2-.3.9-3.3c-.1-.7.3-6.4.5-8.3.2-3.1 3.8-1.5 5-1.2 1.6.4 3.8.9 6.4.9 2.8 0 5.1-.4 6.7-.9 1.1-.3 5.5-2.8 5.3 1.2-.1 1.2.5 7.6.5 8.3 0 2.9 1 3.3 1 3.3l1 .1c.6-1.9 2.3-1.9 2.3-1.9s1.1-7.2 1.1-10.5c.1-13.9-12.7-13.9-17.3-14.1z"/>
  <path class="st25" d="M734.6 400.8c0-.3-.2-.5-.5-.5h-6.3c-.3 0-.5.2-.5.5h7.3zm-2.2-.5v-3.9c0-.8-.7-1.4-1.5-1.4s-1.5.6-1.5 1.4v3.9h3z"/>
  <path class="st10" d="M731.3 397.6c0 .1-.1.2-.2.2s-.2-.1-.2-.2v-1.1c0-.1.1-.2.2-.2s.2.1.2.2v1.1z"/>
  <path class="st24" d="M727.2 392h7.3v1.1h-7.3V392zm-13.6 0h7.3v1.1h-7.3V392z"/>
  <path class="st25" d="M721 400.6c0-.3-.2-.5-.5-.5h-6.3c-.3 0-.5.2-.5.5h7.3z"/>
  <path class="st25" d="M719 400.4v-3.9c0-.8-.7-1.4-1.5-1.4s-1.5.6-1.5 1.4v3.9h3z"/>
  <path class="st10" d="M717.9 397.7c0 .1-.1.2-.2.2s-.2-.1-.2-.2v-1.1c0-.1.1-.2.2-.2s.2.1.2.2v1.1z"/>
  <g id="Flag_1_">
    <ellipse id="Shadow_6_" class="st17" cx="780.9" cy="497.6" rx="22.1" ry="5.5"/>
    <path d="M782 386.9h9.9v7.9H782v-7.9z"/>
    <path class="st10" d="M791.9 386.9h9.9v7.9h-9.9v-7.9z"/>
    <path d="M801.8 386.9h9.9v7.9h-9.9v-7.9z"/>
    <path class="st10" d="M811.7 386.9h9.9v7.9h-9.9v-7.9z"/>
    <path d="M821.6 386.9h9.9v7.9h-9.9v-7.9z"/>
    <path class="st10" d="M782 394.8h9.9v7.9H782v-7.9z"/>
    <path d="M791.9 394.8h9.9v7.9h-9.9v-7.9z"/>
    <path class="st10" d="M801.8 394.8h9.9v7.9h-9.9v-7.9z"/>
    <path d="M811.7 394.8h9.9v7.9h-9.9v-7.9z"/>
    <path class="st10" d="M821.6 394.8h9.9v7.9h-9.9v-7.9zM782 410.6h9.9v7.9H782v-7.9z"/>
    <path d="M791.9 410.6h9.9v7.9h-9.9v-7.9z"/>
    <path class="st10" d="M801.8 410.6h9.9v7.9h-9.9v-7.9z"/>
    <path d="M811.7 410.6h9.9v7.9h-9.9v-7.9z"/>
    <path class="st10" d="M821.6 410.6h9.9v7.9h-9.9v-7.9z"/>
    <path d="M782 402.7h9.9v7.9H782v-7.9z"/>
    <path class="st10" d="M791.9 402.7h9.9v7.9h-9.9v-7.9z"/>
    <path d="M801.8 402.7h9.9v7.9h-9.9v-7.9z"/>
    <path class="st10" d="M811.7 402.7h9.9v7.9h-9.9v-7.9z"/>
    <path d="M821.6 402.7h9.9v7.9h-9.9v-7.9zM782 495.1c0 1.6-.6 3-1.4 3s-1.4-1.4-1.4-3V385.9c0-1.6.6-3 1.4-3s1.4 1.4 1.4 3v109.2z"/>
  </g>
  <path class="st26" d="M986.3 216.7c-.2 0-.2-.1-.2-.1V213c0-.1.1-.1.1-.1h.1c.1 0 .1.1.1.1l-.1 3.7c.2-.1.1 0 0 0z"/>
  <path class="st26" d="M985 217s0-.1-.1-.1c0-.1 0-.1.1-.2.7-.3 1.4-.3 2.1 0 .1 0 .1.1.1.2v.1c0 .1-.1.1-.2.1-.6-.3-1.2-.3-1.8 0-.1 0-.2 0-.2-.1z"/>
  <g id="Foot2_1_">
    <path class="st26" d="M987 216.5s0-.1-.1-.1c0-.1 0-.1.1-.2.7-.3 1.4-.3 2.1 0 .1 0 .1.1.1.2v.1c0 .1-.1.1-.2.1-.6-.3-1.2-.3-1.8 0-.1-.1-.2-.1-.2-.1z"/>
    <path class="st26" d="M988.3 216.3c-.2 0-.2-.1-.2-.1v-3.3c0-.1.1-.1.1-.1h.1c.1 0 .1.1.1.1v3.3s0 .1-.1.1z"/>
  </g>
  <g id="Beak_1_">
    <path class="st26" d="M971.3 203.4l2.8-1.1-.4 2.8-2.4-1.7z"/>
    <path class="st27" d="M971.3 203.4h2.7l-.3 1.7-2.4-1.7z"/>
  </g>
  <g id="Body_1_">
    <path class="st12" d="M974.8 201.1c.5-.6 5.2-6.6 14.2 3.6 7 8 8.3 6.5 11 6.9.7.1-13.5 5.4-22 .5-7.7-4.4-3.7-10.3-3.2-11z"/>
    <path id="SVGID_12_" class="st28" d="M974.8 201.1c.5-.6 5.2-6.6 14.2 3.6 7 8 8.3 6.5 11 6.9.7.1-13.5 5.4-22 .5-7.7-4.4-3.7-10.3-3.2-11z"/>
    <defs>
      <path id="SVGID_14_" d="M974.8 201.1c.5-.6 5.2-6.6 14.2 3.6 7 8 8.3 6.5 11 6.9.7.1-13.5 5.4-22 .5-7.7-4.4-3.7-10.3-3.2-11z"/>
    </defs>
    <clipPath id="SVGID_16_">
      <use xlink:href="#SVGID_14_" overflow="visible"/>
    </clipPath>
    <path class="st29" d="M973.9 202.4c.5-.6 5.2-6.6 14.2 3.6 7 8 10.8 5 13.5 5.4.7.1-15.9 6.9-24.5 2-7.7-4.4-3.7-10.4-3.2-11z"/>
  </g>
  <g id="Wings_1_">
    <path class="st28" d="M980.9 205.6c2.1 1 5.7 7.5 5.7 7.5s-7.3 1-9.4 0-2.9-3.5-1.9-5.6 3.5-3 5.6-1.9z"/>
    <defs>
      <path id="SVGID_17_" d="M980.9 205.6c2.1 1 5.7 7.5 5.7 7.5s-7.3 1-9.4 0-2.9-3.5-1.9-5.6 3.5-3 5.6-1.9z"/>
    </defs>
    <clipPath id="SVGID_18_">
      <use xlink:href="#SVGID_17_" overflow="visible"/>
    </clipPath>
    <path class="st30" d="M988.8 210.2c-3.3 1.5-4.7 1.1-8.2.7-3.6-.4-6.3-2.2-6.1-4s3.3-2.9 6.8-2.5c3.5.5 9.1 5 7.5 5.8z"/>
  </g>
  <defs>
    <ellipse id="SVGID_19_" transform="rotate(-16.784 976.29 202.98)" cx="976.3" cy="202.9" rx=".7" ry=".7"/>
  </defs>
  <clipPath id="SVGID_20_">
    <use xlink:href="#SVGID_19_" overflow="visible"/>
  </clipPath>
  <ellipse id="Eye_1_" transform="rotate(-8.39 976.383 202.915)" class="st31" cx="976.3" cy="202.9" rx=".7" ry=".7"/>
  <defs>
    <ellipse id="SVGID_21_" transform="rotate(-8.39 976.383 202.915)" cx="976.3" cy="202.9" rx=".7" ry=".7"/>
  </defs>
  <clipPath id="SVGID_22_">
    <use xlink:href="#SVGID_21_" overflow="visible"/>
  </clipPath>
  <ellipse class="st32" cx="976.3" cy="202.5" rx="1" ry=".8"/>
  <path id="Cloud_6_" class="st33" d="M312.7 55.2c-9.8 0-17.7 8-17.7 17.8s7.9 17.8 17.8 17.8h67.4c6.8 0 12.4-5.5 12.4-12.4S387 66 380.2 66c-.4 0-.8 0-1.1.1-2.4-7.9-9.7-13.6-18.4-13.6h-.8c-2-11-11.7-19.4-23.4-19.4-12.6-.1-22.9 9.7-23.8 22.1z"/>
  <path id="Cloud_5_" class="st33" d="M97.3 102.5c-6.2 0-11.3 5.1-11.3 11.3S91.1 125 97.3 125l2-.1h45.2l1.8.1c6.2 0 11.3-5 11.3-11.3 0-5.3-3.7-9.8-8.7-11 .3-1.2.4-2.4.4-3.7 0-9.1-7.3-16.4-16.4-16.4-6.5 0-12.1 3.8-14.8 9.3-2-1.1-4.3-1.8-6.8-1.8-7.1 0-13 5.4-13.7 12.2h-.3v.2z"/>
  <path id="Cloud_4_" class="st33" d="M1028.2 128.5c-6.8 0-12.3 5.5-12.3 12.3s5.5 12.3 12.3 12.3l2.2-.1h49.3l2 .1c6.8 0 12.3-5.5 12.3-12.3 0-5.8-4.1-10.7-9.5-12 .3-1.3.4-2.6.4-4 0-9.9-8-17.9-17.9-17.9-7.1 0-13.2 4.1-16.1 10.1-2.2-1.2-4.7-1.9-7.4-1.9-7.8 0-14.1 5.9-15 13.4h-.3z"/>
  <g id="Badge_6_">
    <path id="Shadow_5_" class="st34" d="M888 181.1c0-16-4.8-31.8-13.7-45.1-8.7-12.9-21.1-23.3-35.4-29.4-15.1-6.5-31.7-8.2-47.8-5.1-15.4 2.9-29.8 10.7-41 21.6-23.3 22.6-30.7 58.2-18.6 88.2 5.9 14.6 15.9 27.1 28.7 36.2 13 9.3 28.8 14.3 44.7 14.7 32.1.9 62.4-18.2 75.8-47.3 4.8-10.6 7.3-22.1 7.3-33.8"/>
    <linearGradient id="SVGID_23_" gradientUnits="userSpaceOnUse" x1="807.5" y1="456.8" x2="807.5" y2="310" gradientTransform="matrix(1 0 0 -1 0 564)">
      <stop offset=".381" stop-color="#FFF"/>
      <stop offset="1" stop-color="#E6E7E8"/>
    </linearGradient>
    <circle class="st35" cx="807.5" cy="180.6" r="73.4"/>
    <path class="st10" d="M807.2 256.1c18.3 0 34.8-8 46.1-20.7-11.3-12.7-27.8-20.7-46.1-20.7s-34.8 8-46.1 20.7c11.4 12.7 27.8 20.7 46.1 20.7z"/>
    <path class="st36" d="M882.7 181.1c0 15.8-5 31.1-14 44-8.7 12.4-21.5 22-35.7 27.3-15 5.5-31.6 6.1-47 1.7-14.8-4.2-28-13-37.8-24.8-20.4-24.5-22.7-60.4-6.3-87.6 7.9-13.1 19.8-23.5 33.7-29.9 14.4-6.6 30.9-8.3 46.4-5.1 15.2 3.1 29 10.9 39.7 22 10.7 11.2 17.7 25.6 20.1 40.9.7 3.8.9 7.7.9 11.5 0 3.4 5.3 3.4 5.3 0 0-16-4.8-31.8-13.7-45.1-8.7-12.9-21.1-23.3-35.4-29.4-15.1-6.5-31.7-8.2-47.8-5.1-15.4 2.9-29.8 10.7-41 21.6-23.3 22.6-30.7 58.2-18.6 88.2 5.9 14.6 15.9 27.1 28.7 36.2 13 9.3 28.8 14.3 44.7 14.7 32.1.9 62.4-18.2 75.8-47.3 4.9-10.6 7.3-22.2 7.4-33.8-.1-3.4-5.4-3.4-5.4 0z"/>
    <linearGradient id="SVGID_24_" gradientUnits="userSpaceOnUse" x1="807.381" y1="459.402" x2="807.381" y2="306.274" gradientTransform="matrix(1 0 0 -1 0 564)">
      <stop offset="0" stop-color="#F4BA18"/>
      <stop offset=".755" stop-color="#CC8229"/>
      <stop offset="1" stop-color="#B56027"/>
    </linearGradient>
    <path class="st37" d="M878.8 181.1c0 14.9-4.7 29.3-13.2 41.5-8.2 11.7-20.2 20.8-33.7 25.7-14.2 5.2-29.8 5.7-44.3 1.6-14-3.9-26.4-12.3-35.7-23.4-19.3-23.1-21.4-57-5.9-82.6 7.5-12.4 18.7-22.2 31.8-28.2 13.6-6.2 29.2-7.8 43.8-4.8 14.3 2.9 27.4 10.3 37.5 20.8 10.1 10.6 16.7 24.1 19 38.5.4 3.6.7 7.2.7 10.9 0 3.2 5 3.2 5 0 0-15.1-4.5-30-12.9-42.6-8.2-12.2-19.9-21.9-33.3-27.7-14.2-6.1-29.9-7.7-45.1-4.8-14.6 2.8-28.1 10.1-38.7 20.4-21.9 21.3-28.9 54.9-17.6 83.2 5.5 13.8 15 25.6 27.1 34.2 12.3 8.7 27.1 13.5 42.1 13.9 30.3.8 58.9-17.2 71.5-44.6 4.6-10 6.9-20.9 7-31.9-.2-3.4-5.1-3.4-5.1-.1z"/>
    <path id="SVGID_10_" class="st38" d="M772.1 220c0 .7.3 1.4.8 1.9 1 1 2.7.9 3.6-.1l20.5-21.6c1-1 .9-2.7-.1-3.6-1-1-2.7-.9-3.6.1l-20.5 21.6c-.5.4-.7 1-.7 1.7z"/>
    <defs>
      <path id="SVGID_26_" d="M772.1 220c0 .7.3 1.4.8 1.9 1 1 2.7.9 3.6-.1l20.5-21.6c1-1 .9-2.7-.1-3.6-1-1-2.7-.9-3.6.1l-20.5 21.6c-.5.4-.7 1-.7 1.7z"/>
    </defs>
    <clipPath id="SVGID_28_">
      <use xlink:href="#SVGID_26_" overflow="visible"/>
    </clipPath>
    <path class="st39" d="M763.9 216.2l30.4-27.2 11.7 13-30.4 27.2-11.7-13z"/>
    <defs>
      <path id="SVGID_29_" d="M772.1 220c0 .7.3 1.4.8 1.9 1 1 2.7.9 3.6-.1l20.5-21.6c1-1 .9-2.7-.1-3.6-1-1-2.7-.9-3.6.1l-20.5 21.6c-.5.4-.7 1-.7 1.7z"/>
    </defs>
    <clipPath id="SVGID_30_">
      <use xlink:href="#SVGID_29_" overflow="visible"/>
    </clipPath>
    <path class="st40" d="M763.9 216.2l30.4-27.2 11.7 13-30.4 27.2-11.7-13z"/>
    <path id="SVGID_8_" class="st41" d="M815.1 213.8c.3-.3.7-.4 1.2-.4.9 0 1.6.6 1.6 1.3l-.1 15.3c0 .7-.7 1.3-1.6 1.3-.9 0-1.6-.6-1.6-1.3l.1-15.3c0-.3.1-.6.4-.9z"/>
    <defs>
      <path id="SVGID_31_" d="M815.1 213.8c.3-.3.7-.4 1.2-.4.9 0 1.6.6 1.6 1.3l-.1 15.3c0 .7-.7 1.3-1.6 1.3-.9 0-1.6-.6-1.6-1.3l.1-15.3c0-.3.1-.6.4-.9z"/>
    </defs>
    <clipPath id="SVGID_32_">
      <use xlink:href="#SVGID_31_" overflow="visible"/>
    </clipPath>
    <path class="st42" d="M822.6 232.4l-10.8.7-2-20.8 10.9-.7 1.9 20.8z"/>
    <defs>
      <path id="SVGID_33_" d="M815.1 213.8c.3-.3.7-.4 1.2-.4.9 0 1.6.6 1.6 1.3l-.1 15.3c0 .7-.7 1.3-1.6 1.3-.9 0-1.6-.6-1.6-1.3l.1-15.3c0-.3.1-.6.4-.9z"/>
    </defs>
    <clipPath id="SVGID_34_">
      <use xlink:href="#SVGID_33_" overflow="visible"/>
    </clipPath>
    <path class="st43" d="M822.6 232.4l-10.8.7-2-20.8 10.9-.7 1.9 20.8z"/>
    <path id="SVGID_6_" class="st41" d="M843.5 220c0 .7-.3 1.4-.8 1.9-1 1-2.7.9-3.6-.1l-20.5-21.6c-1-1-.9-2.7.1-3.6 1-1 2.7-.9 3.6.1l20.5 21.6c.4.4.7 1 .7 1.7z"/>
    <defs>
      <path id="SVGID_35_" d="M843.5 220c0 .7-.3 1.4-.8 1.9-1 1-2.7.9-3.6-.1l-20.5-21.6c-1-1-.9-2.7.1-3.6 1-1 2.7-.9 3.6.1l20.5 21.6c.4.4.7 1 .7 1.7z"/>
    </defs>
    <clipPath id="SVGID_36_">
      <use xlink:href="#SVGID_35_" overflow="visible"/>
    </clipPath>
    <path class="st44" d="M809.7 202.1l11.7-13 30.4 27.2-11.7 13-30.4-27.2z"/>
    <defs>
      <path id="SVGID_37_" d="M843.5 220c0 .7-.3 1.4-.8 1.9-1 1-2.7.9-3.6-.1l-20.5-21.6c-1-1-.9-2.7.1-3.6 1-1 2.7-.9 3.6.1l20.5 21.6c.4.4.7 1 .7 1.7z"/>
    </defs>
    <clipPath id="SVGID_38_">
      <use xlink:href="#SVGID_37_" overflow="visible"/>
    </clipPath>
    <path class="st45" d="M809.7 202.1l11.7-13 30.4 27.2-11.7 13-30.4-27.2z"/>
    <path id="SVGID_5_" class="st38" d="M803.2 222.4h8.6c6.3 0 13.5-2.2 11.4-11.4l-6.7-28.1s-1.8-10-9.1-10c-7.5 0-9.2 10.1-9.2 10.1l-6.4 27.9c-2.8 9.3 5.1 11.5 11.4 11.5z"/>
    <defs>
      <path id="SVGID_39_" d="M803.2 222.4h8.6c6.3 0 13.5-2.2 11.4-11.4l-6.7-28.1s-1.8-10-9.1-10c-7.5 0-9.2 10.1-9.2 10.1l-6.4 27.9c-2.8 9.3 5.1 11.5 11.4 11.5z"/>
    </defs>
    <clipPath id="SVGID_40_">
      <use xlink:href="#SVGID_39_" overflow="visible"/>
    </clipPath>
    <path class="st46" d="M786.5 167.7h44v66h-44v-66z"/>
    <path class="st41" d="M811.9 222.2c6.3 0 13.5-2.2 11.4-11.4l-6.7-28.1s-1.8-10-9.1-10v49.4l4.4.1z"/>
    <path id="SVGID_4_" class="st38" d="M797.5 213.5c.3-.3.7-.4 1.2-.4.9 0 1.6.6 1.6 1.3l-.1 15.3c0 .7-.7 1.3-1.6 1.3-.9 0-1.6-.6-1.6-1.3l.1-15.3c0-.3.2-.7.4-.9z"/>
    <defs>
      <path id="SVGID_41_" d="M797.5 213.5c.3-.3.7-.4 1.2-.4.9 0 1.6.6 1.6 1.3l-.1 15.3c0 .7-.7 1.3-1.6 1.3-.9 0-1.6-.6-1.6-1.3l.1-15.3c0-.3.2-.7.4-.9z"/>
    </defs>
    <clipPath id="SVGID_42_">
      <use xlink:href="#SVGID_41_" overflow="visible"/>
    </clipPath>
    <path class="st47" d="M805 232.1l-10.8.7-1.9-20.8 10.8-.7 1.9 20.8z"/>
    <defs>
      <path id="SVGID_43_" d="M797.5 213.5c.3-.3.7-.4 1.2-.4.9 0 1.6.6 1.6 1.3l-.1 15.3c0 .7-.7 1.3-1.6 1.3-.9 0-1.6-.6-1.6-1.3l.1-15.3c0-.3.2-.7.4-.9z"/>
    </defs>
    <clipPath id="SVGID_44_">
      <use xlink:href="#SVGID_43_" overflow="visible"/>
    </clipPath>
    <path class="st48" d="M805 232.1l-10.8.7-1.9-20.8 10.8-.7 1.9 20.8z"/>
    <path class="st49" d="M790 216.3h10.7v-20.7h-9.5l-6.3 6.5 7.7 5.4-2.6 8.8z"/>
    <path class="st50" d="M824.8 216.3h-10.7v-20.7h9.4l6.4 6.5-7.8 5.4 2.7 8.8z"/>
    <defs>
      <path id="SVGID_45_" d="M844 168.4c0 1.7-2.5 3.3-2.7 5s1.7 3.9 1.3 5.5c-.5 1.7-3.3 2.5-3.9 4.1-.7 1.6.6 4.2-.3 5.6-.9 1.5-3.8 1.5-4.9 2.8-1.1 1.3-.6 4.2-1.8 5.3-1.3 1.2-4.1.4-5.5 1.3-1.4 1-1.7 3.9-3.3 4.6-1.5.7-4-.8-5.6-.3s-2.8 3.2-4.5 3.4c-1.7.3-3.6-2-5.3-2s-3.6 2.2-5.3 2c-1.7-.3-2.9-2.9-4.5-3.4s-4.1 1-5.6.3-1.9-3.6-3.3-4.6c-1.4-1-4.2-.2-5.5-1.3-1.3-1.2-.7-4-1.8-5.3s-4-1.4-4.9-2.8c-.9-1.5.4-4.1-.3-5.6-.7-1.6-3.5-2.4-3.9-4.1-.5-1.6 1.5-3.8 1.3-5.5s-2.7-3.2-2.7-5c0-1.7 2.5-3.3 2.7-5s-1.7-3.9-1.3-5.5c.5-1.7 3.3-2.5 3.9-4.1.7-1.6-.6-4.2.3-5.6.9-1.5 3.8-1.5 4.9-2.8 1.1-1.3.6-4.2 1.8-5.3 1.3-1.2 4.1-.4 5.5-1.3 1.4-1 1.7-3.9 3.3-4.6 1.5-.7 4 .8 5.6.3s2.8-3.2 4.5-3.4c1.7-.3 3.6 2 5.3 2s3.6-2.2 5.3-2c1.7.3 2.9 2.9 4.5 3.4s4.1-1 5.6-.3 1.9 3.6 3.3 4.6c1.4 1 4.2.2 5.5 1.3 1.3 1.2.7 4 1.8 5.3s4 1.4 4.9 2.8c.9 1.5-.4 4.1.3 5.6.7 1.6 3.5 2.4 3.9 4.1.5 1.6-1.5 3.8-1.3 5.5s2.7 3.2 2.7 5z"/>
    </defs>
    <clipPath id="SVGID_46_">
      <use xlink:href="#SVGID_45_" overflow="visible"/>
    </clipPath>
    <path class="st51" d="M755.7 115.8h101.6V209H755.7v-93.2z"/>
    <defs>
      <path id="SVGID_47_" d="M844 168.4c0 1.7-2.5 3.3-2.7 5s1.7 3.9 1.3 5.5c-.5 1.7-3.3 2.5-3.9 4.1-.7 1.6.6 4.2-.3 5.6-.9 1.5-3.8 1.5-4.9 2.8-1.1 1.3-.6 4.2-1.8 5.3-1.3 1.2-4.1.4-5.5 1.3-1.4 1-1.7 3.9-3.3 4.6-1.5.7-4-.8-5.6-.3s-2.8 3.2-4.5 3.4c-1.7.3-3.6-2-5.3-2s-3.6 2.2-5.3 2c-1.7-.3-2.9-2.9-4.5-3.4s-4.1 1-5.6.3-1.9-3.6-3.3-4.6c-1.4-1-4.2-.2-5.5-1.3-1.3-1.2-.7-4-1.8-5.3s-4-1.4-4.9-2.8c-.9-1.5.4-4.1-.3-5.6-.7-1.6-3.5-2.4-3.9-4.1-.5-1.6 1.5-3.8 1.3-5.5s-2.7-3.2-2.7-5c0-1.7 2.5-3.3 2.7-5s-1.7-3.9-1.3-5.5c.5-1.7 3.3-2.5 3.9-4.1.7-1.6-.6-4.2.3-5.6.9-1.5 3.8-1.5 4.9-2.8 1.1-1.3.6-4.2 1.8-5.3 1.3-1.2 4.1-.4 5.5-1.3 1.4-1 1.7-3.9 3.3-4.6 1.5-.7 4 .8 5.6.3s2.8-3.2 4.5-3.4c1.7-.3 3.6 2 5.3 2s3.6-2.2 5.3-2c1.7.3 2.9 2.9 4.5 3.4s4.1-1 5.6-.3 1.9 3.6 3.3 4.6c1.4 1 4.2.2 5.5 1.3 1.3 1.2.7 4 1.8 5.3s4 1.4 4.9 2.8c.9 1.5-.4 4.1.3 5.6.7 1.6 3.5 2.4 3.9 4.1.5 1.6-1.5 3.8-1.3 5.5s2.7 3.2 2.7 5z"/>
    </defs>
    <clipPath id="SVGID_48_">
      <use xlink:href="#SVGID_47_" overflow="visible"/>
    </clipPath>
    <path class="st52" d="M807.4 115.8h49.9V209h-49.9v-93.2z"/>
    <circle class="st38" cx="807.5" cy="168.4" r="27.2"/>
    <path class="st41" d="M807.5 195.6c15 0 27.2-12.2 27.2-27.2s-12.2-27.2-27.2-27.2v54.4z"/>
    <circle class="st53" cx="794.6" cy="157.8" r="6.1"/>
    <defs>
      <circle id="SVGID_49_" cx="807.5" cy="181.2" r="8.5"/>
    </defs>
    <clipPath id="SVGID_50_">
      <use xlink:href="#SVGID_49_" overflow="visible"/>
    </clipPath>
    <path class="st54" d="M797.7 174.9h22.8V194h-22.8v-19.1z"/>
    <defs>
      <circle id="SVGID_51_" cx="807.5" cy="181.2" r="8.5"/>
    </defs>
    <clipPath id="SVGID_52_">
      <use xlink:href="#SVGID_51_" overflow="visible"/>
    </clipPath>
    <path class="st55" d="M798.9 174.8c0 1.5.7 3.6 1.5 4.6s2.1 1 2.9 0c.8-1 2-1 2.8 0 .7 1 2 1 2.7 0s1.9-1 2.6 0c.6 1 1.8 1 2.5 0s1.5-3.1 1.7-4.6-1.6-2.8-4.2-2.8h-7.9c-2.5 0-4.6 1.3-4.6 2.8zm14 14.8c0-1-.4-2.3-1-3-.5-.6-1.4-.6-1.9 0s-1.3.6-1.8 0-1.3-.6-1.7 0c-.5.6-1.2.6-1.6 0s-1.1-.6-1.6 0-.9 2-1.1 3c-.1 1 1.8 1.8 4.3 1.8h1.8c2.6 0 4.6-.8 4.6-1.8z"/>
    <path class="st53" d="M810.4 162.6h-6c-4.9 0-9.1 2.1-7.5 5.4l3.9 5.9s1.3 2.5 6.3 2.8h.7c5.2-.2 6.4-2.8 6.4-2.8l3.7-5.8c1.9-3.4-2.6-5.5-7.5-5.5z"/>
    <path class="st56" d="M807.1 162.6h-2.7c-4.9 0-9.1 2.1-7.5 5.4l3.9 5.9s1.3 2.5 6.3 2.8h.3v-14.1h-.3z"/>
    <circle class="st10" cx="818.4" cy="157.8" r="4.3"/>
    <circle class="st53" cx="819.7" cy="156.4" r="1.4"/>
    <path class="st57" d="M781.2 161.2s22.1 2.3 22.1-19.2"/>
    <path class="st58" d="M827 169.9l-2.1 2.1-2.1-2.1c-.2-.2-.5-.2-.7 0s-.2.5 0 .7l2.1 2.1-2.1 2.1c-.2.2-.2.5 0 .7s.5.2.7 0l2.1-2.1 2.1 2.1c.2.2.5.2.7 0s.2-.5 0-.7l-2.1-2.1 2.1-2.1c.2-.2.2-.5 0-.7s-.6-.2-.7 0zm-35 0l-2.1 2.1-2.1-2.1c-.2-.2-.5-.2-.7 0s-.2.5 0 .7l2.1 2.1-2.1 2.1c-.2.2-.2.5 0 .7s.5.2.7 0l2.1-2.1 2.1 2.1c.2.2.5.2.7 0s.2-.5 0-.7l-2.1-2.1 2.1-2.1c.2-.2.2-.5 0-.7s-.5-.2-.7 0z"/>
  </g>
  <g id="Badge_5_">
    <path id="Shadow_4_" class="st34" d="M804.9 267.5c0-13.9-4.1-27.5-11.9-39.1-7.5-11.2-18.2-20.1-30.6-25.5-13-5.6-27.5-7.1-41.4-4.4-13.4 2.5-25.8 9.2-35.5 18.7-20.1 19.6-26.6 50.4-16.1 76.4 5.1 12.6 13.8 23.5 24.8 31.4 11.3 8 24.9 12.4 38.7 12.8 27.8.8 54-15.8 65.6-41 4.2-9.2 6.3-19.2 6.4-29.3"/>
    <linearGradient id="SVGID_53_" gradientUnits="userSpaceOnUse" x1="735.1" y1="360.6" x2="735.1" y2="233.4" gradientTransform="matrix(1 0 0 -1 0 564)">
      <stop offset=".381" stop-color="#FFF"/>
      <stop offset="1" stop-color="#E6E7E8"/>
    </linearGradient>
    <circle class="st59" cx="735.1" cy="267" r="63.6"/>
    <path class="st10" d="M734.5 334.4c15.9 0 30.1-6.9 39.9-17.9-9.8-11-24-17.9-39.9-17.9s-30.1 6.9-39.9 17.9c9.8 11 24.1 17.9 39.9 17.9z"/>
    <path class="st60" d="M800.3 267.5c0 13.7-4.3 26.9-12.2 38.1-7.6 10.8-18.6 19.1-30.9 23.6-13 4.8-27.3 5.2-40.7 1.5-12.8-3.6-24.2-11.3-32.8-21.5-17.7-21.2-19.6-52.3-5.4-75.8 6.9-11.4 17.2-20.3 29.2-25.9 12.4-5.7 26.8-7.2 40.2-4.4 13.1 2.7 25.1 9.4 34.4 19.1 9.3 9.7 15.3 22.2 17.4 35.4.6 3.2.8 6.6.8 9.9 0 2.9 4.6 2.9 4.6 0 0-13.9-4.1-27.5-11.9-39.1-7.5-11.2-18.2-20.1-30.6-25.5-13-5.6-27.5-7.1-41.4-4.4-13.4 2.5-25.8 9.2-35.5 18.7-20.1 19.6-26.6 50.4-16.1 76.4 5.1 12.6 13.8 23.5 24.8 31.4 11.3 8 24.9 12.4 38.7 12.8 27.8.8 54-15.8 65.6-41 4.2-9.2 6.4-19.2 6.4-29.3 0-3-4.6-3-4.6 0z"/>
    <linearGradient id="SVGID_54_" gradientUnits="userSpaceOnUse" x1="734.955" y1="362.902" x2="734.955" y2="230.477" gradientTransform="matrix(1 0 0 -1 0 564)">
      <stop offset="0" stop-color="#91BAD7"/>
      <stop offset=".73" stop-color="#5C7F94"/>
    </linearGradient>
    <path class="st61" d="M796.9 267.4c0 12.9-4 25.4-11.5 35.9-7.1 10.1-17.5 18-29.1 22.3-12.3 4.5-25.8 4.9-38.3 1.4-12.1-3.4-22.9-10.6-30.9-20.2-16.7-20-18.5-49.3-5.1-71.5 6.5-10.7 16.2-19.2 27.6-24.4 11.7-5.4 25.3-6.8 37.9-4.2 12.4 2.5 23.7 8.9 32.4 18 8.8 9.1 14.4 20.9 16.4 33.4.4 3.1.6 6.2.6 9.3 0 2.8 4.3 2.8 4.3 0 0-13.1-3.9-26-11.2-36.9-7.1-10.6-17.2-19-28.9-24-12.3-5.3-25.9-6.7-39-4.2-12.6 2.4-24.3 8.7-33.5 17.6-19 18.4-25.1 47.5-15.2 72 4.8 11.9 13 22.1 23.4 29.6 10.6 7.6 23.5 11.7 36.5 12 26.2.7 51-14.9 61.9-38.6 4-8.7 6-18.1 6-27.6 0-2.7-4.3-2.6-4.3.1z"/>
    <path class="st53" d="M740 311.6c-.9 0-1.6-.7-1.6-1.6v-12.3c0-.9.7-1.6 1.6-1.6.9 0 1.6.7 1.6 1.6V310c0 .9-.7 1.6-1.6 1.6z"/>
    <path class="st56" d="M727.1 311.8c-.9 0-1.6-.7-1.6-1.6v-12.3c0-.9.7-1.6 1.6-1.6.9 0 1.6.7 1.6 1.6v12.3c0 .9-.7 1.6-1.6 1.6z"/>
    <defs>
      <path id="SVGID_55_" d="M767 269.4c0 1.6-2.2 3-2.5 4.5-.2 1.6 1.6 3.5 1.2 5-.4 1.5-3 2.3-3.6 3.7-.6 1.4.6 3.8-.3 5.1-.8 1.3-3.5 1.4-4.5 2.6s-.5 3.8-1.7 4.9-3.7.3-5 1.2c-1.3.9-1.6 3.5-3 4.2s-3.6-.7-5.1-.3c-1.5.5-2.5 2.9-4.1 3.1-1.5.2-3.2-1.8-4.8-1.8s-3.3 2-4.8 1.8c-1.6-.2-2.6-2.7-4.1-3.1-1.5-.5-3.7 1-5.1.3-1.4-.7-1.7-3.3-3-4.2-1.3-.9-3.8-.2-5-1.2-1.2-1.1-.7-3.7-1.7-4.9-1-1.2-3.6-1.2-4.5-2.6-.8-1.3.4-3.7-.3-5.1-.6-1.4-3.2-2.2-3.6-3.7-.4-1.5 1.4-3.5 1.2-5s-2.5-2.9-2.5-4.5 2.2-3 2.5-4.5c.2-1.6-1.6-3.5-1.2-5 .4-1.5 3-2.3 3.6-3.7.6-1.4-.6-3.8.3-5.1.8-1.3 3.5-1.4 4.5-2.6 1-1.2.5-3.8 1.7-4.9 1.2-1.1 3.7-.3 5-1.2s1.6-3.5 3-4.2 3.6.7 5.1.3c1.5-.5 2.5-2.9 4.1-3.1 1.5-.2 3.2 1.8 4.8 1.8s3.3-2 4.8-1.8c1.6.2 2.6 2.7 4.1 3.1 1.5.5 3.7-1 5.1-.3 1.4.7 1.7 3.3 3 4.2s3.8.2 5 1.2c1.2 1.1.7 3.7 1.7 4.9s3.6 1.2 4.5 2.6c.8 1.3-.4 3.7.3 5.1.6 1.4 3.2 2.2 3.6 3.7.4 1.5-1.4 3.5-1.2 5 .3 1.5 2.5 2.9 2.5 4.5z"/>
    </defs>
    <clipPath id="SVGID_56_">
      <use xlink:href="#SVGID_55_" overflow="visible"/>
    </clipPath>
    <path class="st62" d="M685.7 219H778v91.3h-92.3V219z"/>
    <defs>
      <path id="SVGID_57_" d="M767 269.4c0 1.6-2.2 3-2.5 4.5-.2 1.6 1.6 3.5 1.2 5-.4 1.5-3 2.3-3.6 3.7-.6 1.4.6 3.8-.3 5.1-.8 1.3-3.5 1.4-4.5 2.6s-.5 3.8-1.7 4.9-3.7.3-5 1.2c-1.3.9-1.6 3.5-3 4.2s-3.6-.7-5.1-.3c-1.5.5-2.5 2.9-4.1 3.1-1.5.2-3.2-1.8-4.8-1.8s-3.3 2-4.8 1.8c-1.6-.2-2.6-2.7-4.1-3.1-1.5-.5-3.7 1-5.1.3-1.4-.7-1.7-3.3-3-4.2-1.3-.9-3.8-.2-5-1.2-1.2-1.1-.7-3.7-1.7-4.9-1-1.2-3.6-1.2-4.5-2.6-.8-1.3.4-3.7-.3-5.1-.6-1.4-3.2-2.2-3.6-3.7-.4-1.5 1.4-3.5 1.2-5s-2.5-2.9-2.5-4.5 2.2-3 2.5-4.5c.2-1.6-1.6-3.5-1.2-5 .4-1.5 3-2.3 3.6-3.7.6-1.4-.6-3.8.3-5.1.8-1.3 3.5-1.4 4.5-2.6 1-1.2.5-3.8 1.7-4.9 1.2-1.1 3.7-.3 5-1.2s1.6-3.5 3-4.2 3.6.7 5.1.3c1.5-.5 2.5-2.9 4.1-3.1 1.5-.2 3.2 1.8 4.8 1.8s3.3-2 4.8-1.8c1.6.2 2.6 2.7 4.1 3.1 1.5.5 3.7-1 5.1-.3 1.4.7 1.7 3.3 3 4.2s3.8.2 5 1.2c1.2 1.1.7 3.7 1.7 4.9s3.6 1.2 4.5 2.6c.8 1.3-.4 3.7.3 5.1.6 1.4 3.2 2.2 3.6 3.7.4 1.5-1.4 3.5-1.2 5 .3 1.5 2.5 2.9 2.5 4.5z"/>
    </defs>
    <clipPath id="SVGID_58_">
      <use xlink:href="#SVGID_57_" overflow="visible"/>
    </clipPath>
    <path class="st63" d="M733.7 219h44.2v91.3h-44.2V219z"/>
    <path id="SVGID_3_" class="st56" d="M702.5 289c0 .7.3 1.3.8 1.8 1 .9 2.5.9 3.5-.1l19.5-20.6c.9-1 .9-2.5-.1-3.5-1-.9-2.5-.9-3.5.1l-19.5 20.6c-.5.5-.7 1.1-.7 1.7z"/>
    <defs>
      <path id="SVGID_59_" d="M702.5 289c0 .7.3 1.3.8 1.8 1 .9 2.5.9 3.5-.1l19.5-20.6c.9-1 .9-2.5-.1-3.5-1-.9-2.5-.9-3.5.1l-19.5 20.6c-.5.5-.7 1.1-.7 1.7z"/>
    </defs>
    <clipPath id="SVGID_60_">
      <use xlink:href="#SVGID_59_" overflow="visible"/>
    </clipPath>
    <path class="st64" d="M694.6 285.4l29-26 11.1 12.4-29 26-11.1-12.4z"/>
    <path id="SVGID_2_" class="st53" d="M765.6 289c0 .7-.3 1.3-.8 1.8-1 .9-2.5.9-3.5-.1l-19.5-20.6c-.9-1-.9-2.5.1-3.5 1-.9 2.5-.9 3.5.1l19.5 20.6c.4.5.7 1.1.7 1.7z"/>
    <defs>
      <path id="SVGID_61_" d="M765.6 289c0 .7-.3 1.3-.8 1.8-1 .9-2.5.9-3.5-.1l-19.5-20.6c-.9-1-.9-2.5.1-3.5 1-.9 2.5-.9 3.5.1l19.5 20.6c.4.5.7 1.1.7 1.7z"/>
    </defs>
    <clipPath id="SVGID_62_">
      <use xlink:href="#SVGID_61_" overflow="visible"/>
    </clipPath>
    <path class="st65" d="M733.2 271.9l11.1-12.4 29 26-11.1 12.4-29-26z"/>
    <defs>
      <path id="SVGID_63_" d="M765.6 289c0 .7-.3 1.3-.8 1.8-1 .9-2.5.9-3.5-.1l-19.5-20.6c-.9-1-.9-2.5.1-3.5 1-.9 2.5-.9 3.5.1l19.5 20.6c.4.5.7 1.1.7 1.7z"/>
    </defs>
    <clipPath id="SVGID_64_">
      <use xlink:href="#SVGID_63_" overflow="visible"/>
    </clipPath>
    <path class="st66" d="M733.2 271.9l11.1-12.4 29 26-11.1 12.4-29-26z"/>
    <defs>
      <path id="SVGID_65_" d="M729.7 298.1h8.3c6 0 12.9-2.1 10.9-10.9l-6.4-26.8s-1.7-9.5-8.7-9.5c-7.2 0-8.8 9.6-8.8 9.6l-6.1 26.7c-2.7 8.8 4.8 10.9 10.8 10.9z"/>
    </defs>
    <clipPath id="SVGID_66_">
      <use xlink:href="#SVGID_65_" overflow="visible"/>
    </clipPath>
    <path class="st67" d="M713 258h44v8h-44v-8z"/>
    <defs>
      <path id="SVGID_67_" d="M729.7 298.1h8.3c6 0 12.9-2.1 10.9-10.9l-6.4-26.8s-1.7-9.5-8.7-9.5c-7.2 0-8.8 9.6-8.8 9.6l-6.1 26.7c-2.7 8.8 4.8 10.9 10.8 10.9z"/>
    </defs>
    <clipPath id="SVGID_68_">
      <use xlink:href="#SVGID_67_" overflow="visible"/>
    </clipPath>
    <path class="st68" d="M733.8 257.3h22v8.6h-22v-8.6z"/>
    <defs>
      <path id="SVGID_69_" d="M729.7 298.1h8.3c6 0 12.9-2.1 10.9-10.9l-6.4-26.8s-1.7-9.5-8.7-9.5c-7.2 0-8.8 9.6-8.8 9.6l-6.1 26.7c-2.7 8.8 4.8 10.9 10.8 10.9z"/>
    </defs>
    <clipPath id="SVGID_70_">
      <use xlink:href="#SVGID_69_" overflow="visible"/>
    </clipPath>
    <path class="st69" d="M713 266h44v8h-44v-8z"/>
    <defs>
      <path id="SVGID_71_" d="M729.7 298.1h8.3c6 0 12.9-2.1 10.9-10.9l-6.4-26.8s-1.7-9.5-8.7-9.5c-7.2 0-8.8 9.6-8.8 9.6l-6.1 26.7c-2.7 8.8 4.8 10.9 10.8 10.9z"/>
    </defs>
    <clipPath id="SVGID_72_">
      <use xlink:href="#SVGID_71_" overflow="visible"/>
    </clipPath>
    <path class="st70" d="M733 266h24v8h-24v-8z"/>
    <defs>
      <path id="SVGID_73_" d="M729.7 298.1h8.3c6 0 12.9-2.1 10.9-10.9l-6.4-26.8s-1.7-9.5-8.7-9.5c-7.2 0-8.8 9.6-8.8 9.6l-6.1 26.7c-2.7 8.8 4.8 10.9 10.8 10.9z"/>
    </defs>
    <clipPath id="SVGID_74_">
      <use xlink:href="#SVGID_73_" overflow="visible"/>
    </clipPath>
    <path class="st71" d="M713 274h44v10h-44v-10zm0 16h44v10h-44v-10z"/>
    <defs>
      <path id="SVGID_75_" d="M729.7 298.1h8.3c6 0 12.9-2.1 10.9-10.9l-6.4-26.8s-1.7-9.5-8.7-9.5c-7.2 0-8.8 9.6-8.8 9.6l-6.1 26.7c-2.7 8.8 4.8 10.9 10.8 10.9z"/>
    </defs>
    <clipPath id="SVGID_76_">
      <use xlink:href="#SVGID_75_" overflow="visible"/>
    </clipPath>
    <path class="st72" d="M733 274h24v10h-24v-10zm0 18h24v8h-24v-8z"/>
    <defs>
      <path id="SVGID_77_" d="M729.7 298.1h8.3c6 0 12.9-2.1 10.9-10.9l-6.4-26.8s-1.7-9.5-8.7-9.5c-7.2 0-8.8 9.6-8.8 9.6l-6.1 26.7c-2.7 8.8 4.8 10.9 10.8 10.9z"/>
    </defs>
    <clipPath id="SVGID_78_">
      <use xlink:href="#SVGID_77_" overflow="visible"/>
    </clipPath>
    <path class="st73" d="M733 284h24v8h-24v-8z"/>
    <defs>
      <path id="SVGID_79_" d="M729.7 298.1h8.3c6 0 12.9-2.1 10.9-10.9l-6.4-26.8s-1.7-9.5-8.7-9.5c-7.2 0-8.8 9.6-8.8 9.6l-6.1 26.7c-2.7 8.8 4.8 10.9 10.8 10.9z"/>
    </defs>
    <clipPath id="SVGID_80_">
      <use xlink:href="#SVGID_79_" overflow="visible"/>
    </clipPath>
    <path class="st74" d="M713.7 245.8h42v12.7h-42v-12.7z"/>
    <defs>
      <path id="SVGID_81_" d="M729.7 298.1h8.3c6 0 12.9-2.1 10.9-10.9l-6.4-26.8s-1.7-9.5-8.7-9.5c-7.2 0-8.8 9.6-8.8 9.6l-6.1 26.7c-2.7 8.8 4.8 10.9 10.8 10.9z"/>
    </defs>
    <clipPath id="SVGID_82_">
      <use xlink:href="#SVGID_81_" overflow="visible"/>
    </clipPath>
    <path class="st75" d="M733.8 245.8h22v12.7h-22v-12.7z"/>
    <defs>
      <path id="SVGID_83_" d="M729.7 298.1h8.3c6 0 12.9-2.1 10.9-10.9l-6.4-26.8s-1.7-9.5-8.7-9.5c-7.2 0-8.8 9.6-8.8 9.6l-6.1 26.7c-2.7 8.8 4.8 10.9 10.8 10.9z"/>
    </defs>
    <clipPath id="SVGID_84_">
      <use xlink:href="#SVGID_83_" overflow="visible"/>
    </clipPath>
    <path class="st76" d="M713 284h20v8h-20v-8z"/>
    <defs>
      <path id="SVGID_85_" d="M756.7 240.5l-1.4-1.4.3-.9 2.1-10.4c.4-2.1-.9-3.2-2.9-2.5l-8.5 3.2c-.4.2-.8.4-1 .6l-1.4-1.4c-3.5-3.5-16.9-3.5-20.4 0l-1.5 1.5c-.3-.3-.6-.5-1.1-.7l-8.5-3.2c-2-.8-3.3.4-2.9 2.5l2.1 10.4c.1.4.2.7.3 1l-1.3 1.3c-3.5 3.5-3.5 9.1 0 12.6l12.9 12.9c7.2 8.5 13.6 8.6 20.4 0l12.9-12.9c3.4-3.5 3.4-9.2-.1-12.6z"/>
    </defs>
    <clipPath id="SVGID_86_">
      <use xlink:href="#SVGID_85_" overflow="visible"/>
    </clipPath>
    <path class="st77" d="M698.8 221.1h82.5v55.3h-82.5v-55.3z"/>
    <defs>
      <path id="SVGID_87_" d="M756.7 240.5l-1.4-1.4.3-.9 2.1-10.4c.4-2.1-.9-3.2-2.9-2.5l-8.5 3.2c-.4.2-.8.4-1 .6l-1.4-1.4c-3.5-3.5-16.9-3.5-20.4 0l-1.5 1.5c-.3-.3-.6-.5-1.1-.7l-8.5-3.2c-2-.8-3.3.4-2.9 2.5l2.1 10.4c.1.4.2.7.3 1l-1.3 1.3c-3.5 3.5-3.5 9.1 0 12.6l12.9 12.9c7.2 8.5 13.6 8.6 20.4 0l12.9-12.9c3.4-3.5 3.4-9.2-.1-12.6z"/>
    </defs>
    <clipPath id="SVGID_88_">
      <use xlink:href="#SVGID_87_" overflow="visible"/>
    </clipPath>
    <path class="st78" d="M733.7 221.1h47.6v55.3h-47.6v-55.3z"/>
    <path class="st79" d="M752.2 234c.6.6 1.2.4 1.4-.4l.8-4.1c.2-.8-.4-1.3-1.2-1l-3.4 1.3c-.8.3-1 1-.4 1.6l2.8 2.6zm-37.5-.2c-.6.6-1.2.4-1.3-.4l-.8-4c-.2-.8.3-1.2 1.1-.9l3.2 1.2c.8.3.9 1 .3 1.6l-2.5 2.5z"/>
    <path class="st53" d="M736.5 243.8h-5.7c-4.6 0-8.7 2-7.2 5.2l3.7 5.6s1.2 2.4 6 2.6h.7c5-.2 6.1-2.7 6.1-2.7l3.5-5.5c1.8-3.1-2.5-5.2-7.1-5.2z"/>
    <path class="st79" d="M733.5 263.3c-2.5 0-4.3-1.8-4.3-1.9-.4-.4-.3-1 0-1.3.4-.4 1-.3 1.3 0 0 0 1.3 1.3 3 1.3s3.4-1.4 3.4-1.4c.4-.3 1-.3 1.3.1s.3 1-.1 1.3c-.1.2-2.1 1.9-4.6 1.9z"/>
    <path class="st56" d="M712.5 254.8l8.4-2.4-3.2 7.7-5.2-5.3z"/>
    <circle class="st10" cx="721.2" cy="239.7" r="4.1"/>
    <circle class="st53" cx="722.5" cy="238.4" r="1.3"/>
    <circle class="st10" cx="746.2" cy="239.7" r="4.1"/>
    <circle class="st53" cx="747.5" cy="238.4" r="1.3"/>
    <path class="st53" d="M748.8 260.9l-2.5-8.4 7.7 3.2-5.2 5.2zm-3.1 3.1l-1.3-4.4 4 1.7-2.7 2.7z"/>
    <path class="st56" d="M720.8 263.1l1.3-4.3-4 1.6 2.7 2.7zm12.6-19.2h-2.6c-4.6 0-8.7 2-7.2 5.2l3.7 5.6s1.2 2.4 6 2.6h.3v-13.4h-.2z"/>
  </g>
  <g id="Badge_4_">
    <path id="Shadow_3_" class="st34" d="M700.6 217.6c0-11.3-3.4-22.4-9.6-31.7-6.1-9.1-14.8-16.3-24.9-20.7-10.6-4.5-22.3-5.7-33.6-3.6-10.8 2.1-20.9 7.5-28.8 15.2-16.4 15.9-21.6 40.9-13.1 62 4.1 10.3 11.2 19.1 20.2 25.5 9.1 6.5 20.2 10 31.4 10.4 22.6.6 43.9-12.8 53.3-33.3 3.3-7.5 5-15.6 5.1-23.8"/>
    <linearGradient id="SVGID_89_" gradientUnits="userSpaceOnUse" x1="643.9" y1="398.3" x2="643.9" y2="295.1" gradientTransform="matrix(1 0 0 -1 0 564)">
      <stop offset=".381" stop-color="#FFF"/>
      <stop offset="1" stop-color="#E6E7E8"/>
    </linearGradient>
    <circle class="st80" cx="643.9" cy="217.3" r="51.6"/>
    <path class="st10" d="M643.4 272.1c12.9 0 24.4-5.6 32.4-14.5-7.9-8.9-19.5-14.5-32.4-14.5s-24.4 5.6-32.4 14.5c8 8.8 19.5 14.5 32.4 14.5z"/>
    <path class="st81" d="M696.8 217.6c0 11.1-3.5 21.9-9.9 30.9-6.1 8.7-15.1 15.5-25.1 19.2-10.6 3.9-22.2 4.3-33 1.2-10.4-2.9-19.7-9.1-26.6-17.4-14.4-17.2-15.9-42.5-4.4-61.6 5.6-9.2 14-16.5 23.7-21 10.1-4.6 21.8-5.8 32.6-3.6 10.7 2.2 20.4 7.7 27.9 15.5 7.6 7.9 12.4 18 14.1 28.7.6 2.7.7 5.4.7 8.1 0 2.4 3.7 2.4 3.7 0 0-11.3-3.4-22.4-9.6-31.7-6.1-9.1-14.8-16.3-24.9-20.7-10.6-4.5-22.3-5.7-33.6-3.6-10.8 2.1-20.9 7.5-28.8 15.2-16.4 15.9-21.6 40.9-13.1 62 4.1 10.3 11.2 19.1 20.2 25.5 9.1 6.5 20.2 10 31.4 10.4 22.6.6 43.9-12.8 53.3-33.3 3.4-7.5 5.2-15.6 5.2-23.8 0-2.4-3.7-2.4-3.8 0z"/>
    <linearGradient id="SVGID_90_" gradientUnits="userSpaceOnUse" x1="643.852" y1="400.164" x2="643.852" y2="292.58" gradientTransform="matrix(1 0 0 -1 0 564)">
      <stop offset="0" stop-color="#E07B3A"/>
      <stop offset=".755" stop-color="#893D1E"/>
      <stop offset="1" stop-color="#782516"/>
    </linearGradient>
    <path class="st82" d="M694.1 217.6c0 10.5-3.3 20.6-9.3 29.2-5.8 8.2-14.2 14.6-23.7 18.1-10 3.7-20.9 4-31.1 1.2-9.8-2.8-18.6-8.6-25.1-16.4-13.6-16.2-15-40-4.2-58.1 5.2-8.7 13.2-15.6 22.4-19.8 9.5-4.4 20.5-5.5 30.8-3.4 10 2 19.2 7.2 26.3 14.6 7.1 7.4 11.7 17 13.3 27.1.4 2.4.6 4.9.6 7.5 0 2.3 3.5 2.3 3.5 0 0-10.6-3.2-21.1-9.1-29.9-5.7-8.6-14-15.4-23.4-19.5-10-4.3-21-5.4-31.7-3.4-10.2 1.9-19.8 7.1-27.2 14.3-15.4 15-20.3 38.6-12.3 58.5 3.9 9.7 10.5 18 19 24 8.6 6.1 19.1 9.5 29.6 9.8 21.3.6 41.4-12.1 50.2-31.4 3.2-7 4.9-14.7 4.9-22.4 0-2.3-3.5-2.3-3.5 0z"/>
    <defs>
      <path id="SVGID_91_" d="M674.6 225.7L662 212.4v-8.5c0-6.8-5.6-12.4-12.4-12.4H640c-6.8 0-12.4 5.6-12.4 12.4V214l-11.9 11.3c-.7.7-.7 1.8-.1 2.5.3.4.8.5 1.3.5.4 0 .9-.2 1.2-.5l9.5-9v15.9c0 6.2 4.6 11.4 10.5 12.3v5.9c0 1 .8 1.7 1.7 1.7 1 0 1.7-.8 1.7-1.7v-5.8h4v5.8c0 1 .8 1.7 1.7 1.7 1 0 1.7-.8 1.7-1.7v-5.8h.5c6.8 0 12.4-5.6 12.4-12.4v-17.2l10.1 10.7c.3.4.8.5 1.3.5.4 0 .9-.2 1.2-.5.8-.7.8-1.8.2-2.5z"/>
    </defs>
    <clipPath id="SVGID_92_">
      <use xlink:href="#SVGID_91_" overflow="visible"/>
    </clipPath>
    <path class="st83" d="M602.4 183.6h88.3v76.3h-88.3v-76.3z"/>
    <defs>
      <path id="SVGID_93_" d="M674.6 225.7L662 212.4v-8.5c0-6.8-5.6-12.4-12.4-12.4H640c-6.8 0-12.4 5.6-12.4 12.4V214l-11.9 11.3c-.7.7-.7 1.8-.1 2.5.3.4.8.5 1.3.5.4 0 .9-.2 1.2-.5l9.5-9v15.9c0 6.2 4.6 11.4 10.5 12.3v5.9c0 1 .8 1.7 1.7 1.7 1 0 1.7-.8 1.7-1.7v-5.8h4v5.8c0 1 .8 1.7 1.7 1.7 1 0 1.7-.8 1.7-1.7v-5.8h.5c6.8 0 12.4-5.6 12.4-12.4v-17.2l10.1 10.7c.3.4.8.5 1.3.5.4 0 .9-.2 1.2-.5.8-.7.8-1.8.2-2.5z"/>
    </defs>
    <clipPath id="SVGID_94_">
      <use xlink:href="#SVGID_93_" overflow="visible"/>
    </clipPath>
    <path class="st84" d="M643.7 184h46.6v76.3h-46.6V184z"/>
    <path class="st49" d="M617.5 221.2c.3 0 .6-.3.6-.6V218c0-.3-.3-.6-.6-.6s-.6.3-.6.6v2.6c.1.3.3.6.6.6zm0 9.6c-.3 0-.6.3-.6.6v2.6c0 .3.3.6.6.6s.6-.3.6-.6v-2.6c0-.4-.2-.6-.6-.6zm-5.7-11c-.2-.2-.6-.2-.8 0s-.2.6 0 .8l2 2c.1.1.3.2.4.2.1 0 .3-.1.4-.2.2-.2.2-.6 0-.8l-2-2zm9.6 9.6c-.2-.2-.6-.2-.8 0s-.2.6 0 .8l2 2c.1.1.3.2.4.2.1 0 .3-.1.4-.2.2-.2.2-.6 0-.8l-2-2zm-8.9-3.1c0-.3-.3-.6-.6-.6h-2.6c-.3 0-.6.3-.6.6s.3.6.6.6h2.6c.3-.1.6-.3.6-.6zm12.7-.6h-2.6c-.3 0-.6.3-.6.6s.3.6.6.6h2.6c.3 0 .6-.3.6-.6 0-.4-.3-.6-.6-.6zm-12.1 3.7l-2 2c-.2.2-.2.6 0 .8.1.1.3.2.4.2s.3-.1.4-.2l2-2c.2-.2.2-.6 0-.8-.3-.3-.6-.3-.8 0zm54.9-3.1c0-.3-.3-.6-.6-.6h-2.6c-.3 0-.6.3-.6.6s.3.6.6.6h2.6c.3-.1.6-.3.6-.6zm9.6 0c0 .3.3.6.6.6h2.6c.3 0 .6-.3.6-.6s-.3-.6-.6-.6h-2.6c-.4 0-.6.2-.6.6zm-11.1 5.7c-.2.2-.2.6 0 .8s.6.2.8 0l2-2c.1-.1.2-.3.2-.4 0-.1-.1-.3-.2-.4-.2-.2-.6-.2-.8 0l-2 2zm9.7-9.7c-.2.2-.2.6 0 .8s.6.2.8 0l2-2c.1-.1.2-.3.2-.4 0-.1-.1-.3-.2-.4-.2-.2-.6-.2-.8 0l-2 2zm-3.2 9c-.3 0-.6.3-.6.6v2.6c0 .3.3.6.6.6s.6-.3.6-.6v-2.6c0-.3-.2-.6-.6-.6zm-.5-12.7v2.6c0 .3.3.6.6.6s.6-.3.6-.6v-2.6c0-.3-.3-.6-.6-.6-.4 0-.6.3-.6.6zm3.7 12.1l2 2c.2.2.6.2.8 0 .1-.1.2-.3.2-.4 0-.1-.1-.3-.2-.4l-2-2c-.2-.2-.6-.2-.8 0-.3.3-.3.6 0 .8z"/>
    <path class="st85" d="M641.8 221s1 1.1 2.4 1.1 2.7-1.1 2.7-1.1"/>
    <defs>
      <path id="SVGID_95_" d="M638.7 204.6H632v6.6c0 3 2.4 5.4 5.4 5.4h1.3c3 0 5.4-2.4 5.4-5.4v-6.6h-5.4z"/>
    </defs>
    <clipPath id="SVGID_96_">
      <use xlink:href="#SVGID_95_" overflow="visible"/>
    </clipPath>
    <path class="st86" d="M629.3 198.8h16.4V218h-16.4v-19.2z"/>
    <defs>
      <path id="SVGID_97_" d="M638.7 204.6H632v6.6c0 3 2.4 5.4 5.4 5.4h1.3c3 0 5.4-2.4 5.4-5.4v-6.6h-5.4z"/>
    </defs>
    <clipPath id="SVGID_98_">
      <use xlink:href="#SVGID_97_" overflow="visible"/>
    </clipPath>
    <path class="st87" d="M631.1 198.4l1.6-1.2 13.6 18.8-1.6 1.2-13.6-18.8z"/>
    <circle class="st56" cx="635.4" cy="211.6" r="1.6"/>
    <circle class="st10" cx="635.9" cy="211.1" r=".5"/>
    <path class="st53" d="M662 205h-34.4c-.2 0-.4-.2-.4-.4s.2-.4.4-.4H662c.2 0 .4.2.4.4s-.2.4-.4.4z"/>
    <defs>
      <path id="SVGID_99_" d="M652.2 204.7h-6.6v6.6c0 3 2.4 5.4 5.4 5.4h1.3c3 0 5.4-2.4 5.4-5.4v-6.7l-5.5.1z"/>
    </defs>
    <clipPath id="SVGID_100_">
      <use xlink:href="#SVGID_99_" overflow="visible"/>
    </clipPath>
    <path class="st88" d="M642.9 198.8h16.4V218h-16.4v-19.2z"/>
    <defs>
      <path id="SVGID_101_" d="M652.2 204.7h-6.6v6.6c0 3 2.4 5.4 5.4 5.4h1.3c3 0 5.4-2.4 5.4-5.4v-6.7l-5.5.1z"/>
    </defs>
    <clipPath id="SVGID_102_">
      <use xlink:href="#SVGID_101_" overflow="visible"/>
    </clipPath>
    <path class="st89" d="M644.8 198.5l1.6-1.2 13.6 18.8-1.6 1.2-13.6-18.8z"/>
    <circle class="st56" cx="649" cy="211.7" r="1.6"/>
    <circle class="st10" cx="649.5" cy="211.2" r=".5"/>
    <path class="st49" d="M648.9 176v3.4c0 1.8-1.5 3.3-3.3 3.3h-2.5c-1.8 0-3.3-1.5-3.3-3.3V176l2.3 1.8 2.4-1.8 2.2 1.9 2.2-1.9z"/>
    <path class="st50" d="M651 178.8v9c0 2.7-2.2 4.8-4.8 4.8h-3.7c-2.7 0-4.8-2.2-4.8-4.8v-9l3.4 2.6 3.5-2.6 3.2 2.8 3.2-2.8z"/>
    <path class="st49" d="M655.1 181.8v6.6c0 4.3-3.5 7.8-7.8 7.8h-5.9c-4.3 0-7.8-3.5-7.8-7.8v-6.6l5.4 4.2 5.6-4.2 5.2 4.5 5.3-4.5z"/>
    <path class="st90" d="M640.8 205h2.6v4l-2.6-4zm13.6 0h2.5v4l-2.5-4z"/>
    <path class="st50" d="M649.8 186.3l-5.2-4.5-.3.2v14.2h3c4.3 0 7.8-3.5 7.8-7.8v-6.6l-5.3 4.5z"/>
    <path class="st50" d="M646.7 177.8l-2.2-1.9-.1.1v5.9h1.2c1.8 0 3.2.1 3.2-3.2V176l-2.1 1.8z"/>
    <path class="st49" d="M641.1 181.4l-3.4-2.6v9c0 2.7 2.2 4.8 4.8 4.8h1.9v-13.7l-3.3 2.5z"/>
  </g>
</svg>
