<svg xmlns="http://www.w3.org/2000/svg" xmlns:xlink="http://www.w3.org/1999/xlink" width="320" height="412" viewBox="0 0 320 412">
  <style>
    .st0{fill:#C9F3FF;} .st1{fill:#D4F6FF;} .st2{fill:#CAB384;} .st3{fill:#39B54A;} .st4{fill:#E5E5E5;} .st5{fill:#B8492E;} .st6{fill:#F15A24;} .st7{fill:#718C74;} .st8{fill:#29ABE2;} .st9{fill:#F8AF49;} .st10{fill:#FFFFFF;} .st11{fill:#A67C52;} .st12{fill:#C69C6D;} .st13{opacity:0.4;fill:#A67C52;} .st14{fill-rule:evenodd;clip-rule:evenodd;fill:#FFFFFF;} .st15{fill-rule:evenodd;clip-rule:evenodd;fill:#6DBCC3;} .st16{opacity:8.000000e-02;fill-rule:evenodd;clip-rule:evenodd;fill:#3D3D3D;} .st17{fill:#6DBCC3;} .st18{fill:#F2F2F2;} .st19{opacity:0.1;} .st20{fill:#8CC63F;} .st21{fill:#D1E8B2;} .st22{fill:#F9BDA7;} .st23{fill:#FBB03B;} .st24{fill:#FDDFB1;} .st25{fill:#A9DDF3;} .st26{fill:url(#SVGID_1_);} .st27{fill:url(#SVGID_2_);} .st28{fill:url(#SVGID_3_);} .st29{fill:url(#SVGID_4_);} .st30{fill:url(#SVGID_5_);} .st31{fill:url(#SVGID_6_);} .st32{fill:#DD8317;} .st33{fill:#4D4D4D;} .st34{fill:#998675;} .st35{fill:#333333;} .st36{fill:#E6E6E6;} .st37{fill:#453E42;} .st38{fill:#221F1F;} .st39{fill:#EAEAEA;} .st40{fill:#D91E32;} .st41{fill:#CCCCCC;} .st42{fill:#808080;} .st43{fill:#507B93;} .st44{fill:#BE1622;} .st45{fill:#A31324;} .st46{fill:#EAE5D0;} .st47{fill:#E1D8BC;} .st48{fill:#683C11;} .st49{fill:#3B363A;} .st50{fill:#1A1A1A;} .st51{fill:#666666;} .st52{fill:#ABDACE;} .st53{fill:url(#SVGID_7_);} .st54{fill:#E07B3A;} .st55{fill:url(#SVGID_8_);} .st56{clip-path:url(#SVGID_10_);fill:#FBEF66;} .st57{clip-path:url(#SVGID_10_);fill:#D2BC2D;} .st58{fill:#41B166;} .st59{fill:#404041;} .st60{clip-path:url(#SVGID_12_);fill:#1A1A1A;} .st61{display:none;opacity:0.4;clip-path:url(#SVGID_12_);fill:#FFFFFF;} .st62{fill:#58595B;} .st63{clip-path:url(#SVGID_14_);fill:#231F20;} .st64{display:none;opacity:0.4;clip-path:url(#SVGID_14_);fill:#FFFFFF;} .st65{fill:#2B944E;} .st66{opacity:0.4;fill:#FFFFFF;} .st67{fill:url(#SVGID_15_);} .st68{fill:url(#SVGID_16_);} .st69{fill:url(#SVGID_17_);} .st70{fill:url(#SVGID_18_);} .st71{fill:url(#SVGID_19_);} .st72{fill:url(#SVGID_20_);} .st73{fill:url(#SVGID_21_);} .st74{fill:url(#SVGID_22_);} .st75{clip-path:url(#SVGID_24_);fill:#FBEF66;} .st76{clip-path:url(#SVGID_24_);fill:#D2BC2D;} .st77{clip-path:url(#SVGID_26_);fill:#1A1A1A;} .st78{display:none;opacity:0.4;clip-path:url(#SVGID_26_);fill:#FFFFFF;} .st79{clip-path:url(#SVGID_28_);fill:#231F20;} .st80{display:none;opacity:0.4;clip-path:url(#SVGID_28_);fill:#FFFFFF;}
  </style>
  <path class="st0" d="M0 0h320v403H0z"/>
  <path class="st1" d="M310 352h-10V0h10v352zM290 0h-10v352h10V0zm-20 0h-10v352h10V0zm-20 0h-10v352h10V0zm-20 0h-10v352h10V0zm-20 0h-10v352h10V0zm-20 0h-10v352h10V0zm-20 0h-10v352h10V0zm-20 0h-10v352h10V0zm-20 0h-10v352h10V0zm-20 0h-10v352h10V0zM90 0H80v352h10V0zM70 0H60v352h10V0zM50 0H40v352h10V0zM30 0H20v352h10V0zM10 0H0v352h10V0z"/>
  <path class="st2" d="M0 352h320v60H0z"/>
  <g id="Cup__x2B__Pens_1_">
    <path class="st3" d="M248.112 255.955l.897-.08.97 10.958-.9.08z"/>
    <path class="st4" d="M249 266.9c0 .2.2.4.5.4.2 0 .4-.2.4-.5l-.9.1zm-.7-12.4l-.2 1.5.9-.1-.5-1.5h-.1l-.1.1z"/>
    <path class="st5" d="M248.3 254.5h.2l-.1-.4-.1.4z"/>
    <path class="st6" d="M249.078 256.81l.894-.105 1.266 10.927-.894.104z"/>
    <path class="st4" d="M250.4 267.7c0 .2.3.4.5.4s.4-.3.4-.5l-.9.1zm-1.1-12.5l-.2 1.5.9-.1-.5-1.5h-.1l-.1.1z"/>
    <path class="st7" d="M249.3 255.2h.2l-.2-.4v.4z"/>
    <path class="st8" d="M251.788 268.294l1.74-10.86.888.14-1.74 10.862z"/>
    <path class="st4" d="M251.8 268.3c0 .2.1.5.4.5.2 0 .5-.1.5-.4l-.9-.1zm2.3-12.3l-.6 1.4.9.1-.1-1.5h-.2z"/>
    <path class="st9" d="M254.1 256h.2v-.5l-.2.5z"/>
    <path class="st10" d="M247.3 260.9l1 10.5h5.7l1.1-10.5z"/>
  </g>
  <g id="Table_1_">
    <path class="st11" d="M61 271h197v9H61z"/>
    <path class="st12" d="M71 280v72h22v-8h133v8h22v-72z"/>
    <path class="st13" d="M248.7 280H71v18z"/>
  </g>
  <g id="Computer_2_">
    <path class="st14" d="M116.6 253v-51c0-1.1.9-2 2-2h83.6c1.1 0 2 .9 2 2v51h-87.6zm85.6 7.9h-83.6c-1.1 0-2-.9-2-2V253h87.5v5.9c.1 1.1-.8 2-1.9 2z"/>
    <path class="st14" d="M146.5 271.2v-1.1l3.5-.4 2.4-9.1H170l2.4 9.1 3.5.4v1.1h-29.4z"/>
    <path class="st15" d="M201.4 203.5v46.1h-82.1v-46.1h82.1z"/>
    <path class="st16" d="M152 262.3l.3-1.7H170l.3 1.7H152z"/>
    <path class="st17" d="M195.5 214.5v35.1h5.9v-46.1h-5.9zm-70-11h-6.2v46.1h6.2v-35.1z"/>
    <path class="st18" d="M134.1 219.7c0-.3-.2-.7-.6-.7h-.3v1.4h.3c.4 0 .6-.4.6-.7zm4.5.6c.2 0 .4-.2.4-.4s-.1-.4-.4-.4c-.1 0-.3.1-.3.2v.5c0 .1.1.1.3.1zm1.6-.4c0-.2-.1-.4-.4-.4-.2 0-.4.2-.4.4s.1.4.4.4c.3 0 .4-.2.4-.4zm.6.2c0 .1.1.2.3.2.1 0 .2 0 .3-.1v-.2c-.1-.1-.2-.1-.3-.1-.2 0-.3.1-.3.2zm-11.2.2c.2 0 .4-.2.4-.4s-.1-.4-.4-.4c-.2 0-.4.2-.4.4s.1.4.4.4zm13.5 0c.1 0 .3-.1.3-.2v-.5c-.1-.1-.2-.2-.3-.2-.2 0-.4.2-.4.4 0 .4.2.5.4.5zm-8.4-.2c0 .1.1.2.3.2.1 0 .2 0 .3-.1v-.2c-.1-.1-.2-.1-.3-.1-.2 0-.3.1-.3.2z"/>
    <path class="st18" d="M125 215v35h70v-35h-70zm3.6 4.8v.6h-.5v-.6l-.4-.8h.2l.5.7.5-.7h.2l-.5.8zm1-.5c.3 0 .5.3.5.6s-.2.6-.5.6-.5-.3-.5-.6c-.1-.3.1-.6.5-.6zM171 223v15h-43v-15h43zm-40.4-2.7c.1 0 .3-.1.3-.2v-.7h.5v.9h-.5v-.1c0 .1-.1.2-.2.2-.2 0-.2-.1-.2-.3v-.7.6c-.1.3 0 .3.1.3zm1.6-1v.2h-.1c-.1 0-.3.1-.3.2v.7-.9.1c0-.2 0-.3.4-.3zm2.8.2c-.1 0-.3 0-.4.2l-.1-.1c.1-.1.2-.2.4-.2s.4.1.4.4v.7-.1c-.5.1-.3.2-.4.2-.2 0-.4-.1-.4-.4 0-.2.3-.4.4-.4.1 0 0 0 .4.1v-.2c.1-.1-.1-.2-.3-.2zm1.1.5c-.2 0-.4-.1-.4-.3 0-.2.1-.3.4-.3.2 0 .3.1.4.2l-.1.1c-.1-.1-.2-.1-.3-.1-.1 0-.2.1-.2.2s.1.1.3.2c.2 0 .4.1.4.3 0 .2-.1.3-.4.3-.2 0-.3-.1-.4-.2l.1-.1c.1.1.2.2.4.2s.3-.1.3-.2c-.2-.3-.4-.3-.5-.3zm3.2-.1c0-.3.2-.6.5-.6s.5.3.5.6-.2.6-.5.6-.5-.3-.5-.6zm1.7-.4c-.1 0-.2 0-.3.2l-.1-.1c.1-.1.4-.2.5-.2.2 0 .5.1.5.4v.7h-.5v-.1c0 .1-.2.2-.3.2-.2 0-.4-.1-.4-.4 0-.2.2-.4.4-.4.1 0 .3 0 .3.1v-.2c.2-.1.1-.2-.1-.2zm7-3.5h6v1h-6v-1zm-5 0h3v1h-3v-1zm.1 3.3c.1 0 .4.1.4.2v-.5 1.4-.1c0 .1-.3.2-.4.2-.3 0-.5-.2-.5-.6 0-.3.2-.6.5-.6zm-.9.2h.1c-.1 0-.1.1-.1.2v.7h-.5v-.9h.5v-.2.2zM138 216h4v1h-4v-1zm.1 3v.5c0-.1.3-.2.4-.2.3 0 .5.2.5.6 0 .4-.2.6-.5.6-.2 0-.4-.1-.4-.2v.1-1.4zm-1.3 0v.5c.5-.1.3-.2.5-.2s.4.1.4.3v.7-.6c0-.2-.3-.2-.4-.2-.1 0 0 .1-.5.2v.7-1.4zm-2.8-3h3v1h-3v-1zm-.9 3h.3c.5 0 .8.2.8.7 0 .4-.3.7-.8.7h-.3V219zm-5.1-3h4v1h-4v-1zm15 32h-15v-8h15v8zm17 0h-16v-8h16v8zm16 0h-15v-8h15v8zm17 0h-15v-8h15v8zm-20-10v-15h20v15h-20z"/>
    <path d="M188.8 244.2v-.3l-.4-.2s-.1.2-.1.5 0 .5.1.5.2-.1.4-.2v-.3z" class="st19"/>
    <path class="st20" d="M188.8 244.1v-.3l-.4-.2s-.1.2-.1.5 0 .5.1.5.2-.1.4-.2v-.3z"/>
    <path d="M182.7 244c.2 0 .3-.2.3-.5v-.2c0-.3-.1-.3-.3-.1l-.2.3c0 .3 0 .5.2.5z" class="st19"/>
    <path class="st20" d="M182.7 243.8c.2 0 .3-.2.3-.5v-.2c0-.3-.1-.3-.3-.1l-.2.3c0 .3 0 .5.2.5z"/>
    <path d="M187.5 244.7c.2 0 .3-.2.3-.5s-.1-.5-.3-.5c-.2 0-.3.2-.3.5s.1.5.3.5z" class="st19"/>
    <path class="st20" d="M187.5 244.6c.2 0 .3-.2.3-.5s-.1-.5-.3-.5c-.2 0-.3.2-.3.5 0 .2.1.5.3.5z"/>
    <path d="M178.9 239.8c-.3 0-.5.2-.5.5v6.6c0 .3.2.5.5.5H193c.3 0 .5-.2.5-.5v-6.6c0-.3-.2-.5-.5-.5h-14.1zm1.7 2.8c.2 0 .3.1.3.3 0 .2-.1.3-.3.3s-.3-.1-.3-.3c0-.2.1-.3.3-.3zm0 1.7c0 .2-.1.4-.3.3s-.5-.3-.5-.5v-.4h.3c.1.1.5.4.5.6zm-.5-.6c-.1 0-.3-.1-.3-.1s0-.1.1-.1c.1-.1.5-.1.5-.1h.2c.1-.1.3-.1.4 0 .1 0 .2.2.2.2s-.1 0-.3.1h-.8zm1.4.5c0 .2-.1.4-.2.5-.1 0-.6 0-.6-.3 0-.2.2-.5.5-.6h.2c0-.1.1.1.1.4zm2.1-.1c0 .1-.1.1-.1.1-.1 0-.1.1-.1.3 0 .2-.1.3-.1.3s-.1-.1-.1-.3c0-.2-.2-.3-.5-.3s-.5-.1-.5-.1.1-.3.3-.6l.3-.6c.1-.3.3-.5.4-.5.1 0 .2.2.2.5v.5c0 .3.1.5.1.5 0 .1.1.1.1.2zm8.3.2c-.1-.1-.3-.1-.3-.3 0-.2.1-.3.3-.3h.1c.1.1.2.1.1.2h-.3c-.1 0-.2.1-.2.2s.1.2.2.2c.1.1.3.1.3.4 0 .2-.1.3-.4.3h-.2l-.2-.2s.1 0 .2.1h.1c.1 0 .2-.1.2-.2.4-.3.2-.4.1-.4zm-1-.1c0-.3.1-.5.3-.5s.3 0 .3.1-.1.1-.2.1-.2.1-.2.2.1.2.2.2.2 0 .2.1c0 0-.1.1-.2.1s-.2.1-.2.2.1.2.2.2.2 0 .2.1c0 0-.1.1-.3.1s-.3-.2-.3-.5v-.4zm-.8 0c0-.3 0-.5.1-.5 0 0 .1.2.1.5s.1.5.2.5.2 0 .2.1c0 0-.1.1-.3.1s-.3-.2-.3-.5v-.2zm-1-.1c0-.2 0-.4.1-.4s.1.2.1.4 0 .5.1.7h.2c0-.1.1-.5.1-.7s0-.4.1-.4c0 0 .1.2.1.4s-.1.6-.1.8h-.4c-.2-.3-.3-.6-.3-.8zm-.9.1c0-.3.1-.5.2-.5s.4.1.6.2v.6c-.3.1-.5.2-.6.2-.1 0-.2-.2-.2-.5zm-.7-.6c.3 0 .4.3.4.6s-.2.6-.4.6c-.3 0-.4-.3-.4-.6s.1-.6.4-.6zm-1.6.6c0-.3 0-.5.1-.5s.2.2.2.4c.1.2.2.2.3 0l.2-.4s.1.2.1.5v.1c0 .3 0 .5-.1.5s-.1-.2-.1-.5-.1-.3-.2 0-.2.5-.2.5-.1-.2-.2-.5-.2-.3-.2 0 0 .5-.1.5-.1-.2-.1-.5v-.1zm-1.2.4c.3 0 .5.1.5.1 0 .1-.2.1-.5.1h-.3c-.3 0-.5-.1-.5-.1s.2-.3.3-.5c0 0 .7-.8.7-1.1 0-.3-.2-.4-.4-.4h-.2c-.2.2-.3.3-.4.2-.1 0 .1-.3.3-.5h.3c.4 0 .7.2.7.7 0 .4-.6 1.1-.6 1.1-.2.2-.1.4.1.4z" class="st19"/>
    <path class="st20" d="M178.9 239.7c-.3 0-.5.2-.5.5v6.6c0 .3.2.5.5.5H193c.3 0 .5-.2.5-.5v-6.6c0-.3-.2-.5-.5-.5h-14.1zm1.7 2.7c.2 0 .3.1.3.3 0 .2-.1.3-.3.3s-.3-.1-.3-.3c0-.2.1-.3.3-.3zm0 1.8c0 .2-.1.4-.3.3s-.5-.3-.5-.5v-.4h.3c.1 0 .5.3.5.6zm-.5-.7c-.1 0-.3-.1-.3-.1s0-.1.1-.1c.1-.1.5-.1.5-.1h.2c.1-.1.3-.1.4 0l.2.2s-.1 0-.3.1h-.8zm1.4.5c0 .2-.1.4-.2.5-.1 0-.6 0-.6-.3 0-.2.2-.5.5-.6h.2s.1.2.1.4zm2.1-.1c0 .1-.1.1-.1.1-.1 0-.1.1-.1.3s-.1.3-.1.3-.1-.1-.1-.3-.2-.3-.5-.3-.5-.1-.5-.1.1-.3.3-.6l.3-.6c.1-.3.3-.5.4-.5.1 0 .2.2.2.5v.5c0 .3.1.5.1.5 0 .1.1.1.1.2zm8.3.2c-.1-.1-.3-.1-.3-.3 0-.2.1-.3.3-.3h.1c.1.1.2.1.1.2h-.3c-.1 0-.2.1-.2.2s.1.2.2.2c.1.1.3.1.3.4 0 .2-.1.3-.4.3h-.2l-.2-.2s.1 0 .2.1h.1c.1 0 .2-.1.2-.2.4-.3.2-.3.1-.4zm-1-.1c0-.3.1-.5.3-.5s.3 0 .3.1-.1.1-.2.1-.2.1-.2.2.1.2.2.2.2 0 .2.1-.1.1-.2.1-.2.1-.2.2.1.2.2.2.2 0 .2.1c0 0-.1.1-.3.1s-.3-.2-.3-.5v-.4zm-.8 0c0-.3 0-.5.1-.5 0 0 .1.2.1.5s.1.5.2.5.2 0 .2.1c0 0-.1.1-.3.1s-.3-.2-.3-.5v-.2zm-1-.1c0-.2 0-.4.1-.4s.1.2.1.4 0 .5.1.7h.2c0-.1.1-.5.1-.7 0-.2 0-.4.1-.4 0 0 .1.2.1.4s-.1.6-.1.8h-.4c-.2-.2-.3-.6-.3-.8zm-.9.1c0-.3.1-.5.2-.5s.4.1.6.2v.6c-.3.1-.5.2-.6.2-.1 0-.2-.2-.2-.5zm-.7-.5c.3 0 .4.3.4.6s-.2.6-.4.6c-.3 0-.4-.3-.4-.6 0-.4.1-.6.4-.6zm-1.6.5c0-.3 0-.5.1-.5s.2.2.2.4.2.2.3 0l.2-.4s.1.2.1.5v.1c0 .3 0 .5-.1.5s-.1-.2-.1-.5-.1-.3-.2 0-.2.5-.2.5-.1-.2-.2-.5-.2-.3-.2 0 0 .5-.1.5-.1-.2-.1-.5v-.1zm-1.2.4c.3 0 .5.1.5.1 0 .1-.2.1-.5.1h-.3c-.3 0-.5-.1-.5-.1s.2-.3.3-.5c0 0 .7-.8.7-1.1 0-.3-.2-.4-.4-.4h-.2c-.2.2-.3.3-.4.2s.1-.3.3-.5h.3c.4 0 .7.2.7.7 0 .4-.6 1.1-.6 1.1-.2.2-.1.4.1.4z"/>
    <path class="st10" d="M183 242l-1 1.8v.2h1v.8-.8h.7-.7v-2zm.3 1.9h-.9l.9-1.3v1.3z"/>
    <path class="st10" d="M184.5 242.2c-.3 0-.5.1-.7.4l.2.2c.1-.2.3-.3.5-.3s0 .1 0 .4c0 .4-.5.6-1.5 1.5v.6h2.2-1c.6-1 .9-1.4.9-1.8.1-.4-.2-1-.6-1zm1.5 1.5l.4 1.1.5-1.1v1.1-1.4h-.2l-.3.9-.3-.9h-.1v1.4zm1.5 1c.3 0 .4-.3.4-.6s-.2-.6-.4-.6c-.3 0-.4.3-.4.6s.1.6.4.6zm0-1.1c.2 0 .3.2.3.5s-.1.5-.3.5c-.2 0-.3-.2-.3-.5s.1-.5.3-.5zm1.4.5c0-.3-.2-.7-.5-.7h-.2v1.4h.2c.4 0 .5-.4.5-.7zm-.7-.7h.2c.2 0 .3.2.3.5s-.1.5-.3.5h-.2v-1zm1.4 1.3c.2 0 .5-.1.5-.4v-.9h-.5v.9c0 .2-.1.3-.2.3s-.2-.1-.2-.3v-.9.9c-.1.2.2.4.4.4z"/>
    <path class="st10" d="M190.5 244.3v-.9h-.5v1.4h.5zm.9 0h-.5.5v-.4h-.5v-.5h.5-.5v1.4h.5zm.5.3c-.1 0-.2-.1-.3-.1l-.1.1c.1.1.2.1.3.1.2 0 .4-.2.4-.3 0-.2-.2-.3-.3-.4-.1-.1-.2-.1-.2-.2s.1-.2.2-.2.2 0 .2.1l.1-.1c-.1-.1-.2-.1-.3-.1-.2 0-.3.1-.3.3 0 .2.2.3.3.3.1.1.2.1.2.2.1.2 0 .3-.2.3z"/>
    <path class="st21" d="M179.8 243.4l-.1.1v.9c.5 0 .5.1.9.2v-.9c-.5-.1-.5-.3-.8-.3z"/>
    <path class="st21" d="M181.3 243.4c0-.2-.2-.3-.5-.3-.1.1-.2.1-.3.1-.1 0-.3 0-.4-.1-.3.1-.6.1-.6.3l.1.1c.3 0 .6.1.8.2.4-.2.7-.3.9-.3z"/>
    <circle class="st21" cx="180.6" cy="242.7" r=".3"/>
    <path class="st21" d="M180.6 243.7v.9c.5-.1.5-.2.9-.2v-.9h-.1c-.3.1-.4.2-.8.2z"/>
    <path d="M171.7 243.7h.2c.1-.2.2-.6.2-.9 0 0 0-.2-.4-.2-.3 0-.4.3-.4.5 0 .4.2.6.4.6z" class="st19"/>
    <path class="st6" d="M171.7 243.5h.2c.1-.2.2-.6.2-.9 0 0 0-.2-.4-.2-.3 0-.4.3-.4.5 0 .5.2.6.4.6z"/>
    <path d="M170 243.7h.2c.1-.2.2-.6.2-.9 0 0 0-.2-.4-.2-.3 0-.4.3-.4.5 0 .4.1.6.4.6z" class="st19"/>
    <path class="st6" d="M170 243.5h.2c.1-.2.2-.6.2-.9 0 0 0-.2-.4-.2-.3 0-.4.3-.4.5 0 .5.1.6.4.6z"/>
    <path d="M161.5 246.9c0 .3.2.5.5.5h14.1c.3 0 .5-.2.5-.5v-6.6c0-.3-.2-.5-.5-.5H162c-.3 0-.5.2-.5.5v6.6zm11.3-2.7c0-.3 0-.5.1-.5s.2.2.2.4c.1.2.2.2.3 0l.2-.4s.1.2.1.5v.1c0 .3 0 .5-.1.5s-.1-.2-.1-.5-.1-.3-.2 0-.2.5-.2.5-.1-.2-.2-.5-.2-.3-.2 0 0 .5-.1.5c0 0-.1-.2-.1-.5v-.1zm-1.1-1.8c.6 0 .8.6.8 1.2s-.2 1.2-.8 1.2h-.3c-.2-.2-.3-.3-.2-.4 0-.1.2 0 .3.1h.2c.4 0 .4-.4.4-.4 0-.3.1-.5.1-.6s-.1.1-.3.3h-.2c-.3 0-.6-.3-.6-.8-.1-.2.2-.6.6-.6zm-1.7 0c.6 0 .8.6.8 1.2s-.2 1.2-.8 1.2h-.3c-.2-.2-.3-.3-.2-.4s.2 0 .3.1h.2c.4 0 .4-.4.4-.4 0-.3.1-.5.1-.6s-.1.1-.3.3h-.2c-.3 0-.6-.3-.6-.8-.1-.2.1-.6.6-.6zm-1.8 1.3c-.1 0-.1 0 0 0-.1 0-.2-.1-.2-.1 0-.1.1-.1.1-.1h.1c.2 0 .4-.1.4-.4 0-.3-.2-.4-.4-.4h-.2c-.1.2-.3.2-.4.2s.1-.2.3-.4h.3c.4 0 .7.2.7.6v.3c-.2.1-.2.4 0 .5v.3c0 .4-.3.7-.7.7h-.4c-.2-.2-.3-.4-.3-.5s.2.1.4.2h.2c.3 0 .4-.2.4-.5.2-.3 0-.4-.3-.4zm-1.7-1.3c.4 0 .7.2.7.7 0 .4-.6 1.1-.6 1.1-.2.2-.1.4.1.4.3 0 .5.1.5.1 0 .1-.2.1-.5.1h-.3c-.3 0-.5-.1-.5-.1s.2-.3.3-.5c0 0 .7-.8.7-1.1 0-.3-.2-.4-.4-.4h-.2c-.2.2-.3.3-.4.2-.1 0 .1-.3.3-.5h.3zm-2.4.3c.1 0 .2.1.2.2s-.1.2-.2.2-.2-.1-.2-.2c0-.2.1-.2.2-.2zm-1.1 1.5c.1 0 .2-.1.3-.1.1 0 .2-.1.3-.2 0-.1.1-.2.1-.2s0-.1-.1-.1c0 0 0-.1.1-.2 0-.1.1-.2 0-.2s-.1 0-.2.1c-.1 0-.2.1-.2.1l.2-.2.1-.1h.5c0 .1.1.2.1.2h.4s-.1.1-.2.1-.2.1-.2.1h-.1s-.1 0-.1.1 0 .2.1.2c.1.1.2.1.2.1s.1.1.1.3c0 .1.1.3.1.3h-.2s-.1-.2-.2-.3c0-.1-.1-.3-.2-.3-.1-.1-.2 0-.2.1s-.1.2-.1.2h-.6c0 .1 0 .1 0 0z" class="st19"/>
    <path class="st6" d="M161.5 246.8c0 .3.2.5.5.5h14.1c.3 0 .5-.2.5-.5v-6.6c0-.3-.2-.5-.5-.5H162c-.3 0-.5.2-.5.5v6.6zm11.3-2.8c0-.3 0-.5.1-.5s.2.2.2.4c.1.2.2.2.3 0l.2-.4s.1.2.1.5v.1c0 .3 0 .5-.1.5s-.1-.2-.1-.5-.1-.3-.2 0-.2.5-.2.5-.1-.2-.2-.5-.2-.3-.2 0 0 .5-.1.5c0 0-.1-.2-.1-.5v-.1zm-1.1-1.8c.6 0 .8.6.8 1.2s-.2 1.2-.8 1.2h-.3c-.2-.2-.3-.3-.2-.4 0-.1.2 0 .3.1h.2c.4 0 .4-.4.4-.4 0-.3.1-.5.1-.6l-.3.3h-.2c-.3 0-.6-.3-.6-.8-.1-.2.2-.6.6-.6zm-1.7 0c.6 0 .8.6.8 1.2s-.2 1.2-.8 1.2h-.3c-.2-.2-.3-.3-.2-.4s.2 0 .3.1h.2c.4 0 .4-.4.4-.4 0-.3.1-.5.1-.6l-.3.3h-.2c-.3 0-.6-.3-.6-.8-.1-.2.1-.6.6-.6zm-1.8 1.4c-.1 0-.1 0 0 0-.1 0-.2-.1-.2-.1 0-.1.1-.1.1-.1h.1c.2 0 .4-.1.4-.4 0-.3-.2-.4-.4-.4h-.2c-.1.2-.3.2-.4.2s.1-.2.3-.4h.3c.4 0 .7.2.7.6v.3c-.2.1-.2.4 0 .5v.3c0 .4-.3.7-.7.7h-.4c-.2-.2-.3-.4-.3-.5.1 0 .2.1.4.2h.2c.3 0 .4-.2.4-.5.2-.3 0-.4-.3-.4zm-1.7-1.4c.4 0 .7.2.7.7 0 .4-.6 1.1-.6 1.1-.2.2-.1.4.1.4.3 0 .5.1.5.1 0 .1-.2.1-.5.1h-.3c-.3 0-.5-.1-.5-.1s.2-.3.3-.5c0 0 .7-.8.7-1.1 0-.3-.2-.4-.4-.4h-.2c-.2.2-.3.3-.4.2-.1 0 .1-.3.3-.5h.3zm-2.4.3c.1 0 .2.1.2.2s-.1.2-.2.2-.2-.1-.2-.2.1-.2.2-.2zM163 244c.1 0 .2-.1.3-.1.1 0 .2-.1.3-.2 0-.1.1-.2.1-.2s0-.1-.1-.1c0 0 0-.1.1-.2 0-.1.1-.2 0-.2s-.1 0-.2.1c-.1 0-.2.1-.2.1l.2-.2c.1 0 .1-.1.1-.1h.5c0 .1.1.2.1.2h.4s-.1.1-.2.1-.2.1-.2.1h-.1s-.1 0-.1.1 0 .2.1.2c.1.1.2.1.2.1s.1.1.1.3c0 .1.1.3.1.3h-.2s-.1-.2-.2-.3c0-.1-.1-.3-.2-.3-.1-.1-.2 0-.2.1s-.1.2-.1.2h-.6c0 .1 0 .1 0 0z"/>
    <path class="st10" d="M166.5 242.5c.2 0-.1.1-.1.4 0 .4-.5.6-1.5 1.5v.6h2.2-.9c.6-1 .9-1.4.9-1.8 0-.4-.3-.8-.7-.8-.3 0-.5.1-.7.3l.2.1c.2-.2.4-.3.6-.3zm1.7 1.9c-.2 0-.4-.1-.5-.3l-.2.2c.1.2.4.4.7.4.5 0 .7-.3.7-.7 0-.3-.2-.6-.5-.6.2-.1.4-.3.4-.6 0-.4-.3-.6-.7-.6-.3 0-.5.1-.7.4l.2.2c.1-.2.3-.3.5-.3s.4.1.4.4c0 .3-.2.4-.4.4h-.2v.3h.2c.2 0 .5.1.5.4.1.3-.1.4-.4.4zm1.5-.6c.2 0 .3-.2.3-.4v.1c0 .4.1 1-.3 1-.2 0-.2-.1-.3-.2l-.1.2c.1.2.3.3.6.3.6 0 .8-.6.8-1.2s-.2-1.2-.7-1.2c-.4 0-.8.4-.8.8 0 .3.1.6.5.6zm.3-1.3c.3 0 .4.4.4.7-.1.2-.2.4-.4.4s-.4-.1-.4-.5.1-.6.4-.6zm1.6 1.3c.2 0 .4-.2.4-.4v.1c0 .4 0 1-.4 1-.2 0-.3-.1-.4-.2l-.1.2c.1.2.3.3.6.3.6 0 .8-.6.8-1.2s-.2-1.2-.8-1.2c-.4 0-.7.4-.7.8 0 .3.2.6.6.6zm.1-1.3c.3 0 .4.4.4.7-.1.2-.2.4-.4.4s-.4-.1-.4-.5.1-.6.4-.6zm1.2 1.2l.3 1.1h.1l.5-1.1v1.1-1.4h-.3l-.3.9-.2-.9h-.1v1.4z"/>
    <ellipse transform="rotate(-79.123 164.123 242.725)" class="st22" cx="164.1" cy="242.7" rx=".2" ry=".2"/>
    <path class="st22" d="M163.1 244.2h.4s.1 0 .1-.1l.2-.3.3.2.2.4c0 .1.1.1.1.1.1 0 .1-.1.1-.1l-.2-.4-.3-.2.1-.3.1.1h.1l.3-.1.1-.1-.1-.1-.2.1-.1-.1c0-.1 0-.1-.1-.2h-.5l-.2.2s-.1.1 0 .1c0 0 .1.1.1 0l.2-.2h.1l-.2.3v.2l-.2.3h-.4c-.1 0-.1.1-.1.1s0 .1.1.1z"/>
    <path d="M152.1 244.6c.2 0 .4-.2.4-.4v-.3c-.2-.1-.6-.1-.8 0v.3c0 .3.2.4.4.4z" class="st19"/>
    <path class="st23" d="M152.1 244.4c.2 0 .4-.2.4-.4v-.3c-.2-.1-.6-.1-.8 0v.3c0 .3.2.4.4.4z"/>
    <path d="M152.5 243c0-.2-.2-.4-.4-.4s-.4.2-.4.4v.3c.2.1.6.1.8 0v-.3z" class="st19"/>
    <path class="st23" d="M152.5 242.9c0-.2-.2-.4-.4-.4s-.4.2-.4.4v.3c.2.1.6.1.8 0v-.3z"/>
    <path d="M148.2 243.9c0 .2.2.4.4.4s.4-.2.4-.4-.2-.4-.4-.4h-.1c-.1 0 0 .1 0 .2s.1.2.1.3c0 0-.1-.1-.1-.2s-.2-.1-.3 0v.1z" class="st19"/>
    <path class="st23" d="M148.2 243.7c0 .2.2.4.4.4s.4-.2.4-.4-.2-.4-.4-.4h-.1c-.1 0 0 .1 0 .2s.1.2.1.3c0 0-.1-.1-.1-.2s-.2-.1-.3 0v.1z"/>
    <path d="M144.6 246.9c0 .3.2.5.5.5h14.1c.3 0 .5-.2.5-.5v-6.6c0-.3-.2-.5-.5-.5h-14.1c-.3 0-.5.2-.5.5v6.6zm11.7-2.7c0-.3 0-.5.1-.5s.2.2.2.4c.1.2.2.2.3 0l.2-.4s.1.2.1.5v.1c0 .3 0 .5-.1.5s-.1-.2-.1-.5-.1-.3-.2 0-.2.5-.2.5-.1-.2-.2-.5-.2-.3-.2 0 0 .5-.1.5c0 0-.1-.2-.1-.5v-.1zm-1-.5c-.1 0-.1 0 0 0-.1 0-.2-.1-.2-.1 0-.1.1-.1.1-.1h.1c.2 0 .4-.1.4-.4 0-.3-.2-.4-.4-.4h-.2c-.1.2-.3.2-.4.2s.1-.2.3-.4h.3c.4 0 .7.2.7.6v.3c-.2.1-.2.4 0 .5v.3c0 .4-.3.7-.7.7h-.4c-.2-.2-.3-.4-.3-.5.1 0 .2.1.4.2h.2c.3 0 .4-.2.4-.5.1-.3-.1-.4-.3-.4zm-2.2-1.1c0-.1.2-.1.5-.1h.3c.3 0 .5 0 .5.1s-.1.3-.2.6l-.4 1.2c-.1.3-.2.5-.3.5s-.1-.2 0-.5l.4-1.1c.1-.3-.1-.5-.3-.5s-.5-.2-.5-.2zm-1.6.4c0-.4.3-.6.7-.6.3 0 .7.2.7.6v.3c-.2.2-.2.4 0 .6v.3c0 .4-.3.6-.7.6-.4 0-.7-.2-.7-.6v-.3c.2-.2.2-.4 0-.6v-.3zm-1-.3c.2-.2.3-.3.4-.3s.1.2.1.5v1.3c0 .3-.1.5-.1.5s-.1-.2-.1-.5v-1c0-.3-.1-.4-.2-.3s-.2.2-.3.1 0-.1.2-.3zm-3.7.6h.1c.1.1.2 0 .3 0s.1-.2.1-.2l-.1-.1h-.1.5v.1s.2.1.4.1h.7s.1-.1 0-.1h-.1.4v.2c-.2.1-.3.1-.3.1v.1h.3c.3 0 .6.2.6.6 0 .3-.2.6-.6.6-.3 0-.6-.2-.6-.6v-.2c.1-.1.2-.3.2-.3s-.2.1-.3.2l-.3.3h-.1s-.2.2-.4.5h-.3c-.3 0-.6-.2-.6-.6-.3-.4-.1-.7.2-.7z" class="st19"/>
    <path class="st23" d="M144.6 246.8c0 .3.2.5.5.5h14.1c.3 0 .5-.2.5-.5v-6.6c0-.3-.2-.5-.5-.5h-14.1c-.3 0-.5.2-.5.5v6.6zm11.7-2.8c0-.3 0-.5.1-.5s.2.2.2.4.2.2.3 0l.2-.4s.1.2.1.5v.1c0 .3 0 .5-.1.5s-.1-.2-.1-.5-.1-.3-.2 0-.2.5-.2.5-.1-.2-.2-.5-.2-.3-.2 0 0 .5-.1.5c0 0-.1-.2-.1-.5v-.1zm-1-.4c-.1 0-.1 0 0 0-.1 0-.2-.1-.2-.1 0-.1.1-.1.1-.1h.1c.2 0 .4-.1.4-.4 0-.3-.2-.4-.4-.4h-.2c-.1.2-.3.2-.4.2s.1-.2.3-.4h.3c.4 0 .7.2.7.6v.3c-.2.1-.2.4 0 .5v.3c0 .4-.3.7-.7.7h-.4c-.2-.2-.3-.4-.3-.5.1 0 .2.1.4.2h.2c.3 0 .4-.2.4-.5.1-.3-.1-.4-.3-.4zm-2.2-1.2c0-.1.2-.1.5-.1h.3c.3 0 .5 0 .5.1s-.1.3-.2.6l-.4 1.2c-.1.3-.2.5-.3.5s-.1-.2 0-.5l.4-1.1c.1-.3-.1-.5-.3-.5s-.5-.1-.5-.2zm-1.6.4c0-.4.3-.6.7-.6.3 0 .7.2.7.6v.3c-.2.2-.2.4 0 .6v.3c0 .4-.3.6-.7.6-.4 0-.7-.2-.7-.6v-.3c.2-.2.2-.4 0-.6v-.3zm-1-.2c.2-.2.3-.3.4-.3s.1.2.1.5v1.3c0 .3-.1.5-.1.5s-.1-.2-.1-.5v-1c0-.3-.1-.4-.2-.3-.1.1-.2.2-.3.1s0-.2.2-.3zm-3.7.5h.1c.1.1.2 0 .3 0s.1-.2.1-.2l-.1-.1h-.1.5v.1s.2.1.4.1h.7s.1-.1 0-.1h-.1.4v.2c-.2.1-.3.1-.3.1v.1h.3c.3 0 .6.2.6.6 0 .3-.2.6-.6.6-.3 0-.6-.2-.6-.6v-.2c.1-.1.2-.3.2-.3s-.2.1-.3.2l-.3.3h-.1s-.2.2-.4.5h-.3c-.3 0-.6-.2-.6-.6-.3-.4-.1-.7.2-.7z"/>
    <path d="M146.8 244.3h.2c.1-.2.1-.3 0-.3h-.3s.1-.1.1-.2c.1-.1.1-.2 0-.2h-.1c-.2 0-.4.2-.4.4.1.1.3.3.5.3z" class="st19"/>
    <path class="st23" d="M146.8 244.1h.2c.1-.2.1-.3 0-.3h-.3s.1-.1.1-.2.1-.2 0-.2h-.1c-.2 0-.4.2-.4.4.1.1.3.3.5.3z"/>
    <path d="M147.9 243.5c.1-.1.1-.2-.1-.2s-.2.1-.2.2.2.1.3 0z" class="st19"/>
    <path class="st23" d="M147.9 243.3c.1-.1.1-.2-.1-.2s-.2.1-.2.2c0 .2.2.2.3 0z"/>
    <path d="M147.5 243.6c0-.1-.1-.2-.2-.2s0 .1 0 .2.1.2.2.2 0-.1 0-.2z" class="st19"/>
    <path class="st23" d="M147.5 243.4c0-.1-.1-.2-.2-.2v.2c0 .1.1.2.2.2s0-.1 0-.2z"/>
    <path d="M147.1 243.8c.1 0 .1 0 .1-.1 0 0-.1-.1-.1.1-.1 0 0 0 0 0z" class="st19"/>
    <path class="st23" d="M147.1 243.6c.1 0 .1 0 .1-.1 0 0-.1 0-.1.1-.1 0 0 0 0 0z"/>
    <path class="st10" d="M151 242.6v2-2.6h-.2l-.6.7.3.3zm.4 1.5c0 .4.3.6.7.6.4 0 .7-.2.7-.6 0-.3-.2-.5-.5-.6.2-.1.4-.3.4-.6 0-.4-.3-.6-.7-.6-.3 0-.7.2-.7.6 0 .3.2.5.4.6 0 0-.3.2-.3.6zm.3-1.2c0-.2.2-.4.4-.4s.4.2.4.4c0 .3-.3.4-.4.4-.1 0-.4-.1-.4-.4zm.4.6c.1 0 .4.2.4.5s-.2.4-.4.4-.4-.2-.4-.4c0-.3.3-.4.4-.5zm1.3 1.5h.3l.3-2.5v-.5h-1v1h1.1zm1.9-.6c-.2 0-.4-.1-.5-.3l-.2.2c.1.2.4.4.7.4.5 0 .7-.3.7-.7 0-.3-.2-.6-.5-.6.2-.1.4-.3.4-.6 0-.4-.3-.6-.7-.6-.3 0-.5.1-.7.4l.2.2c.1-.2.3-.3.5-.3s.4.1.4.4c0 .3-.2.4-.5.4h-.2v.3h.2c.2 0 .5.1.5.4.1.3 0 .4-.3.4zm1.3-.7l.2 1.1.3-1.1v1.1-1.4l-.3.9-.3-.9h-.3v1.4h.4z"/>
    <path class="st24" d="M147.6 243.7l-.2-.1v.2l.2-.1c0 .1 0 .1 0 0zm-.4-.4l.1-.2v-.1l-.2.2.1.1zm-.4.4c0 .1 0 .1 0 0h.5v-.2h-.3l.2-.2-.1-.1-.3.5zm.7-.7l.6.1-.4.5v.2l.5-.6v-.1l-.7-.1z"/>
    <path class="st24" d="M146.8 244.3c.3 0 .5-.2.5-.5v-.2c0-.1-.1-.2-.1-.3l-.1-.1c-.1-.1-.2-.1-.3-.1-.3 0-.6.2-.6.6.1.3.3.6.6.6zm0-1c.1 0 .1 0 .2.1l.1.1c0 .1.1.1.1.2v.2c0 .2-.2.3-.4.3s-.4-.2-.4-.4c0-.3.2-.5.4-.5zm.9.4v-.1l-.2-.5v-.1.1h-.1v.1l.2.5v.1l.1-.1c0 .1 0 .1 0 0 0 .1 0 .1 0 0zm.9-.4c.2 0 .4.2.4.4s-.2.4-.4.4-.4-.2-.4-.4c0-.1.1-.2.2-.3l-.1-.1c-.1.1-.2.3-.2.4 0 .3.2.6.6.6.3 0 .6-.2.6-.6 0-.3-.2-.6-.6-.6h-.2l.1.1c-.1.1 0 .1 0 .1zm-.4-.3zm0-.1s0 .1 0 0z"/>
    <path class="st24" d="M148.2 243.1c0-.1 0-.1 0 0l.1.2.1.1.2.4h.1v-.1l-.2-.4-.1-.1-.1-.1h-.1zm.3-.1s-.1.1 0 0c.1.1.2-.1.2-.2 0 0 0 .1-.1.1h-.1v.1c-.1-.1 0 0 0 0z"/>
    <path class="st24" d="M148.2 243v.1h.2s.1 0 .1-.1c0 0 0-.1-.1-.1l-.2.1c0-.1 0-.1 0 0 0-.1 0-.1 0 0zm.5-.2c0-.1 0-.1 0 0l-.3-.1s-.1 0-.1.1c0 0 0 .1.1.1h.2l.1-.1zm-1.3.2c0 .1 0 .1 0 0 0 .1 0 .1 0 0h.1v-.1h-.1v.1zm.1-.2c.1 0 .1 0 0 0 .1-.1 0-.1 0-.1h-.4s-.1 0-.1.1c0 0 0 .1.1.1h.4v-.1z"/>
    <path d="M127.8 246.9c0 .3.2.5.5.5h14.1c.3 0 .5-.2.5-.5v-6.6c0-.3-.2-.5-.5-.5h-14.1c-.3 0-.5.2-.5.5v6.6zm2.4-2.6s0 .1-.1.1h-.1s-.1 0-.2-.1l-.1-.1c0-.2.1-.3.2-.3s.2 0 .2.1v.1c.1 0 .1.1.1.2zm8.7-.1c0-.3 0-.5.1-.5s.2.2.2.4c.1.2.2.2.3 0l.2-.4s.1.2.1.5v.1c0 .3 0 .5-.1.5 0 0-.1-.2-.1-.5s-.1-.3-.2 0-.2.5-.2.5-.1-.2-.2-.5-.2-.3-.2 0 0 .5-.1.5-.1-.2-.1-.5v-.1zm-1.1-.5c-.1 0-.2-.1-.2-.1 0-.1.1-.1.1-.1h.1c.2 0 .4-.1.4-.4 0-.3-.2-.4-.4-.4h-.2c-.1.2-.3.2-.4.2s.1-.2.3-.4h.3c.4 0 .7.2.7.6v.3c-.2.1-.2.4 0 .5v.3c0 .4-.3.7-.7.7h-.4c-.2-.2-.3-.4-.3-.5s.2.1.4.2h.2c.3 0 .4-.2.4-.5.2-.3 0-.4-.3-.4zm-2.3.4c0-.1.1-.3.3-.6l.3-.6c.1-.3.3-.5.4-.5.1 0 .2.2.2.5v.5c0 .3.1.5.1.5.1 0 .1.1.1.1 0 .1-.1.1-.1.1-.1 0-.1.1-.1.3 0 .2-.1.3-.1.3-.1 0-.1-.1-.1-.3 0-.2-.2-.3-.5-.3s-.5.1-.5 0zm-1-.4c-.1 0-.1 0 0 0-.1 0-.2-.1-.2-.1 0-.1.1-.1.1-.1h.1c.2 0 .4-.1.4-.4 0-.3-.2-.4-.4-.4h-.2c-.1.2-.3.2-.4.2s.1-.2.3-.4h.3c.4 0 .7.2.7.6v.3c-.2.1-.2.4 0 .5v.3c0 .4-.3.7-.7.7h-.4c-.2-.2-.3-.4-.3-.5s.2.1.4.2h.2c.3 0 .4-.2.4-.5.1-.3-.1-.4-.3-.4zm-1.7-1.3c.4 0 .7.2.7.7 0 .4-.6 1.1-.6 1.1-.2.2-.1.4.1.4.3 0 .5.1.5.1 0 .1-.2.1-.5.1h-.3c-.3 0-.5-.1-.5-.1s.2-.3.3-.5c0 0 .7-.8.7-1.1 0-.3-.2-.4-.4-.4h-.2c-.2.2-.3.3-.4.2-.1 0 .1-.3.3-.5h.3zm-2.3.6c0-.1.1-.1.2-.1s.1 0 .2.1.1.2.1.3v.6c-.1.1-.2.2-.3.2-.1 0-.2-.1-.2-.3v-.1c0-.1-.1-.2-.1-.4 0-.1 0-.1.1-.3zm-.2 1.5c0-.1 0-.1 0 0 .1-.1.2-.2.3-.2.1 0 .2.2.2.4l-.1.1h-.3c-.1 0-.1-.1-.1-.1v-.2zm-.7-1.7c0-.1.1-.2.1-.3.1 0 .1-.1.2 0 .1 0 .2.1.2.1.1.1.1.2.1.4 0 .1-.1.3-.1.3v.1c0 .1-.1.2-.2.2s-.2-.1-.3-.2v-.1c-.1-.2-.1-.3 0-.5z" class="st19"/>
    <path class="st8" d="M127.8 246.8c0 .3.2.5.5.5h14.1c.3 0 .5-.2.5-.5v-6.6c0-.3-.2-.5-.5-.5h-14.1c-.3 0-.5.2-.5.5v6.6zm2.4-2.7s0 .1-.1.1h-.1s-.1 0-.2-.1l-.1-.1c0-.2.1-.3.2-.3s.2 0 .2.1v.1c.1.1.1.1.1.2zm8.7-.1c0-.3 0-.5.1-.5s.2.2.2.4c.1.2.2.2.3 0l.2-.4s.1.2.1.5v.1c0 .3 0 .5-.1.5 0 0-.1-.2-.1-.5s-.1-.3-.2 0-.2.5-.2.5-.1-.2-.2-.5-.2-.3-.2 0 0 .5-.1.5-.1-.2-.1-.5v-.1zm-1.1-.4c-.1 0-.2-.1-.2-.1 0-.1.1-.1.1-.1h.1c.2 0 .4-.1.4-.4 0-.3-.2-.4-.4-.4h-.2c-.1.2-.3.2-.4.2s.1-.2.3-.4h.3c.4 0 .7.2.7.6v.3c-.2.1-.2.4 0 .5v.3c0 .4-.3.7-.7.7h-.4c-.2-.2-.3-.4-.3-.5.1 0 .2.1.4.2h.2c.3 0 .4-.2.4-.5.2-.3 0-.4-.3-.4zm-2.3.3c0-.1.1-.3.3-.6l.3-.6c.1-.3.3-.5.4-.5.1 0 .2.2.2.5v.5c0 .3.1.5.1.5.1 0 .1.1.1.1 0 .1-.1.1-.1.1-.1 0-.1.1-.1.3s-.1.3-.1.3c-.1 0-.1-.1-.1-.3s-.2-.3-.5-.3-.5.1-.5 0zm-1-.3c-.1 0-.1 0 0 0-.1 0-.2-.1-.2-.1 0-.1.1-.1.1-.1h.1c.2 0 .4-.1.4-.4 0-.3-.2-.4-.4-.4h-.2c-.1.2-.3.2-.4.2s.1-.2.3-.4h.3c.4 0 .7.2.7.6v.3c-.2.1-.2.4 0 .5v.3c0 .4-.3.7-.7.7h-.4c-.2-.2-.3-.4-.3-.5.1 0 .2.1.4.2h.2c.3 0 .4-.2.4-.5.1-.3-.1-.4-.3-.4zm-1.7-1.4c.4 0 .7.2.7.7 0 .4-.6 1.1-.6 1.1-.2.2-.1.4.1.4.3 0 .5.1.5.1 0 .1-.2.1-.5.1h-.3c-.3 0-.5-.1-.5-.1s.2-.3.3-.5c0 0 .7-.8.7-1.1 0-.3-.2-.4-.4-.4h-.2c-.2.2-.3.3-.4.2s.1-.3.3-.5h.3zm-2.3.7c0-.1.1-.1.2-.1s.1 0 .2.1.1.2.1.3v.6c-.1.1-.2.2-.3.2-.1 0-.2-.1-.2-.3v-.1c0-.1-.1-.2-.1-.4 0-.1 0-.2.1-.3zm-.2 1.4c0-.1 0-.1 0 0 .1-.1.2-.2.3-.2.1 0 .2.2.2.4l-.1.1h-.3c-.1 0-.1-.1-.1-.1v-.2zm-.7-1.7c0-.1.1-.2.1-.3.1 0 .1-.1.2 0 .1 0 .2.1.2.1.1.1.1.2.1.4 0 .1-.1.3-.1.3v.1c0 .1-.1.2-.2.2s-.2-.1-.3-.2v-.1c-.1-.2-.1-.3 0-.5z"/>
    <path d="M136.4 243.3c0-.3-.1-.3-.3-.1l-.2.3c-.1.3-.1.5.1.5s.3-.2.3-.5v-.2z" class="st19"/>
    <path class="st8" d="M136.4 243.1c0-.3-.1-.3-.3-.1l-.2.3c-.1.3-.1.5.1.5s.3-.2.3-.5v-.2z"/>
    <path class="st10" d="M132.8 242.5c.2 0 .3.1.3.4 0 .4-.1.6-1.1 1.5v.6h1.2-.7c.6-1 .9-1.4.9-1.8 0-.4-.3-.8-.7-.8-.3 0-.5.1-.7.3l.2.1c.2-.2.4-.3.6-.3zm1.7 1.9c-.2 0-.4-.1-.5-.3l-.2.2c.1.2.4.4.7.4.5 0 .7-.3.7-.7 0-.3-.2-.6-.5-.6.2-.1.4-.3.4-.6 0-.4-.3-.6-.7-.6-.3 0-.5.1-.7.4l.2.2c.1-.2.3-.3.5-.3s.4.1.4.4c0 .3-.3.4-.6.4h-.3v.3h.3c.2 0 .5.1.5.4.2.3.1.4-.2.4z"/>
    <path class="st10" d="M136 245h1v-1.1.4-2.3h-.7l-1.3 1.8v.2h1v1zm-.2-1.1l.6-1.3v1.3h-.6z"/>
    <path class="st10" d="M137.9 244.4c-.2 0-.4-.1-.5-.3l-.2.2c.1.2.4.4.7.4.5 0 .7-.3.7-.7 0-.3-.2-.6-.5-.6.2-.1.4-.3.4-.6 0-.4-.3-.6-.7-.6-.3 0-.5.1-.7.4l.2.2c.1-.2.3-.3.5-.3s.4.1.4.4c0 .3-.5.4-.8.4h-.5v.3h.5c.2 0 .6.1.6.4.1.3.1.4-.1.4zm1.1-.7l.3 1.1h.1l.1-1.1v1.1h.4v-1.4h-.3l-.3.9-.2-.9h-.1v1.4z"/>
    <path class="st25" d="M129.7 243.5l.4-.1v-.3c0-.1.1-.2.1-.3 0-.2 0-.3-.1-.4 0-.1-.1-.1-.2-.1h-.2c-.1.1-.1.1-.1.3-.1.2-.1.3 0 .5 0 .1.1.4.1.4zm.8.4l.4.1s.1-.3.2-.4c.1-.2.1-.3 0-.5 0-.1 0-.2-.1-.3 0 0-.1-.1-.2-.1s-.2 0-.2.1c-.1.1-.1.2-.1.4 0 .1 0 .3.1.4-.1.1-.1.3-.1.3zm-.1.7h.1c.1 0 .1 0 .1-.1.1-.1.1-.4.1-.4l-.4-.1s-.1.1-.1.2v.2c.1.2.1.2.2.2zm-.3-.9l-.4.1s0 .3.1.4l.1.1h.2c.1 0 .1-.1.1-.1v-.2c-.1-.2-.1-.3-.1-.3z"/>
    <path d="M173.4 222.2c-.3 0-.5.2-.5.5v14.9c0 .3.2.5.5.5H193c.3 0 .5-.2.5-.5v-14.9c0-.3-.2-.5-.5-.5h-19.6zm15.7 8.7c0 .1-.2.2-.3.3 0 .1.1.3.1.4 0 .1-.3.2-.3.3 0 .1.1.3.1.4 0 .1-.3.2-.3.3-.1.1.1.3 0 .4-.1.1-.3.1-.4.2-.1.1 0 .3 0 .4-.1.1-.3.1-.4.2-.1.1 0 .3-.1.4-.1.1-.3 0-.4.1-.1.1-.1.3-.1.4-.1.1-.3 0-.4.1-.1.1-.1.3-.2.4-.1.1-.3 0-.4 0-.1.1-.1.3-.2.3-.1.1-.3-.1-.4 0-.1 0-.2.3-.3.3-.1 0-.3-.1-.4-.1-.1 0-.2.2-.3.3-.1 0-.3-.2-.4-.1-.1 0-.2.2-.4.2-.1 0-.3-.2-.4-.2-.1 0-.3.2-.4.2-.1 0-.2-.2-.4-.2-.1 0-.3.2-.4.1-.1 0-.2-.2-.3-.3-.1 0-.3.1-.4.1-.1 0-.2-.3-.3-.3-.1 0-.3.1-.4 0-.1-.1-.1-.3-.2-.3-.1-.1-.3 0-.4 0-.1-.1-.1-.3-.2-.4-.1-.1-.3 0-.4-.1-.1-.1-.1-.3-.1-.4-.1-.1-.3 0-.4-.1-.1-.1 0-.3-.1-.4-.1-.1-.3-.1-.4-.2-.1-.1 0-.3 0-.4-.1-.1-.3-.1-.4-.2-.1-.1.1-.3 0-.4-.1-.1-.3-.1-.3-.3 0-.1.1-.3.1-.4 0-.1-.3-.2-.3-.3 0-.1.1-.3.1-.4 0-.1-.2-.2-.3-.3 0-.1.2-.3.2-.4 0-.1-.2-.2-.2-.4 0-.1.2-.2.2-.4 0-.1-.2-.3-.2-.4 0-.1.2-.2.3-.3 0-.1-.1-.3-.1-.4 0-.1.3-.2.3-.3 0-.1-.1-.3-.1-.4 0-.1.3-.2.3-.3.1-.1-.1-.3 0-.4.1-.1.3-.1.4-.2.1-.1 0-.3 0-.4.1-.1.3-.1.4-.2.1-.1 0-.3.1-.4.1-.1.3 0 .4-.1.1-.1.1-.3.1-.4.1-.1.3 0 .4-.1.1-.1.1-.3.2-.4.1-.1.3 0 .4 0 .1-.1.1-.3.2-.3.1-.1.3.1.4 0 .1 0 .2-.3.3-.3.1 0 .3.1.4.1.1 0 .2-.2.3-.3.1 0 .3.2.4.1.1 0 .2-.2.4-.2.1 0 .3.2.4.2.1 0 .3-.2.4-.2.1 0 .2.2.4.2.1 0 .3-.2.4-.1.1 0 .2.2.3.3.1 0 .3-.1.4-.1.1 0 .2.3.3.3.1 0 .3-.1.4 0 .1.1.1.3.2.3.1.1.3 0 .4 0 .1.1.1.3.2.4.1.1.3 0 .4.1.1.1.1.3.1.4.1.1.3 0 .4.1.1.1 0 .3.1.4.1.1.3.1.4.2.1.1 0 .3 0 .4.1.1.3.1.4.2.1.1-.1.3 0 .4.1.1.3.1.3.3 0 .1-.1.3-.1.4 0 .1.3.2.3.3 0 .1-.1.3-.1.4 0 .1.2.2.3.3 0 .1-.2.3-.2.4 0 .1.2.2.2.4 0 .1-.2.2-.2.4s.2.3.2.4z" class="st19"/>
    <path class="st10" d="M173.4 222c-.3 0-.5.2-.5.5v14.9c0 .3.2.5.5.5H193c.3 0 .5-.2.5-.5v-14.9c0-.3-.2-.5-.5-.5h-19.6zm15.7 8.8c0 .1-.2.2-.3.3 0 .1.1.3.1.4 0 .1-.3.2-.3.3 0 .1.1.3.1.4 0 .1-.3.2-.3.3-.1.1.1.3 0 .4-.1.1-.3.1-.4.2-.1.1 0 .3 0 .4-.1.1-.3.1-.4.2-.1.1 0 .3-.1.4-.1.1-.3 0-.4.1-.1.1-.1.3-.1.4-.1.1-.3 0-.4.1-.1.1-.1.3-.2.4-.1.1-.3 0-.4 0-.1.1-.1.3-.2.3-.1.1-.3-.1-.4 0-.1 0-.2.3-.3.3-.1 0-.3-.1-.4-.1-.1 0-.2.2-.3.3-.1 0-.3-.2-.4-.1-.1 0-.2.2-.4.2-.1 0-.3-.2-.4-.2-.1 0-.3.2-.4.2-.1 0-.2-.2-.4-.2-.1 0-.3.2-.4.1-.1 0-.2-.2-.3-.3-.1 0-.3.1-.4.1-.1 0-.2-.3-.3-.3-.1 0-.3.1-.4 0-.1-.1-.1-.3-.2-.3-.1-.1-.3 0-.4 0-.1-.1-.1-.3-.2-.4-.1-.1-.3 0-.4-.1-.1-.1-.1-.3-.1-.4-.1-.1-.3 0-.4-.1-.1-.1 0-.3-.1-.4-.1-.1-.3-.1-.4-.2-.1-.1 0-.3 0-.4-.1-.1-.3-.1-.4-.2-.1-.1.1-.3 0-.4-.1-.1-.3-.1-.3-.3 0-.1.1-.3.1-.4 0-.1-.3-.2-.3-.3 0-.1.1-.3.1-.4 0-.1-.2-.2-.3-.3 0-.1.2-.3.2-.4 0-.1-.2-.2-.2-.4 0-.1.2-.2.2-.4 0-.1-.2-.3-.2-.4 0-.1.2-.2.3-.3 0-.1-.1-.3-.1-.4 0-.1.3-.2.3-.3 0-.1-.1-.3-.1-.4 0-.1.3-.2.3-.3.1-.1-.1-.3 0-.4.1-.1.3-.1.4-.2.1-.1 0-.3 0-.4.1-.1.3-.1.4-.2.1-.1 0-.3.1-.4.1-.1.3 0 .4-.1.1-.1.1-.3.1-.4.1-.1.3 0 .4-.1.1-.1.1-.3.2-.4.1-.1.3 0 .4 0 .1-.1.1-.3.2-.3.1-.1.3.1.4 0 .1 0 .2-.3.3-.3.1 0 .3.1.4.1.1 0 .2-.2.3-.3.1 0 .3.2.4.1.1 0 .2-.2.4-.2.1 0 .3.2.4.2.1 0 .3-.2.4-.2.1 0 .2.2.4.2.1 0 .3-.2.4-.1.1 0 .2.2.3.3.1 0 .3-.1.4-.1.1 0 .2.3.3.3.1 0 .3-.1.4 0 .1.1.1.3.2.3.1.1.3 0 .4 0 .1.1.1.3.2.4.1.1.3 0 .4.1.1.1.1.3.1.4.1.1.3 0 .4.1.1.1 0 .3.1.4.1.1.3.1.4.2.1.1 0 .3 0 .4.1.1.3.1.4.2.1.1-.1.3 0 .4.1.1.3.1.3.3 0 .1-.1.3-.1.4 0 .1.3.2.3.3 0 .1-.1.3-.1.4 0 .1.2.2.3.3 0 .1-.2.3-.2.4 0 .1.2.2.2.4 0 .1-.2.2-.2.4 0 .1.2.3.2.4z"/>
    <path d="M188.9 229.8c0-.1.2-.3.2-.4 0-.1-.2-.2-.3-.3 0-.1.1-.3.1-.4 0-.1-.3-.2-.3-.3 0-.1.1-.3.1-.4 0-.1-.3-.2-.3-.3-.1-.1.1-.3 0-.4-.1-.1-.3-.1-.4-.2-.1-.1 0-.3 0-.4-.1-.1-.3-.1-.4-.2-.1-.1 0-.3-.1-.4-.1-.1-.3 0-.4-.1-.1-.1-.1-.3-.1-.4-.1-.1-.3 0-.4-.1-.1-.1-.1-.3-.2-.4-.1-.1-.3 0-.4 0-.1-.1-.1-.3-.2-.3-.1-.1-.3.1-.4 0-.1 0-.2-.3-.3-.3-.1 0-.3.1-.4.1-.1 0-.2-.2-.3-.3-.1 0-.3.2-.4.1-.1 0-.2-.2-.4-.2-.1 0-.3.2-.4.2-.1 0-.3-.2-.4-.2-.1 0-.2.2-.4.2-.1 0-.3-.2-.4-.1-.1 0-.2.2-.3.3-.1 0-.3-.1-.4-.1-.1 0-.2.3-.3.3-.1 0-.3-.1-.4 0-.1.1-.1.3-.2.3-.1.1-.3 0-.4 0-.1.1-.1.3-.2.4-.1.1-.3 0-.4.1-.1.1-.1.3-.1.4-.1.1-.3 0-.4.1-.1.1 0 .3-.1.4-.1.1-.3.1-.4.2-.1.1 0 .3 0 .4-.1.1-.3.1-.4.2-.1.1.1.3 0 .4-.1.1-.3.1-.3.3 0 .1.1.3.1.4 0 .1-.3.2-.3.3 0 .1.1.3.1.4 0 .1-.2.2-.3.3 0 .1.2.3.2.4 0 .1-.2.2-.2.4 0 .1.2.2.2.4 0 .1-.2.3-.2.4 0 .1.2.2.3.3 0 .1-.1.3-.1.4 0 .1.3.2.3.3 0 .1-.1.3-.1.4 0 .1.3.2.3.3.1.1-.1.3 0 .4.1.1.3.1.4.2.1.1 0 .3 0 .4.1.1.3.1.4.2.1.1 0 .3.1.4.1.1.3 0 .4.1.1.1.1.3.1.4.1.1.3 0 .4.1.1.1.1.3.2.4.1.1.3 0 .4 0 .1.1.1.3.2.3.1.1.3-.1.4 0 .1 0 .2.3.3.3.1 0 .3-.1.4-.1.1 0 .2.2.3.3.1 0 .3-.2.4-.1.1 0 .2.2.4.2.1 0 .3-.2.4-.2.1 0 .3.2.4.2.1 0 .2-.2.4-.2.1 0 .3.2.4.1.1 0 .2-.2.3-.3.1 0 .3.1.4.1.1 0 .2-.3.3-.3.1 0 .3.1.4 0 .1-.1.1-.3.2-.3.1-.1.3 0 .4 0 .1-.1.1-.3.2-.4.1-.1.3 0 .4-.1.1-.1.1-.3.1-.4.1-.1.3 0 .4-.1.1-.1 0-.3.1-.4.1-.1.3-.1.4-.2.1-.1 0-.3 0-.4.1-.1.3-.1.4-.2.1-.1-.1-.3 0-.4.1-.1.3-.1.3-.3 0-.1-.1-.3-.1-.4 0-.1.3-.2.3-.3 0-.1-.1-.3-.1-.4 0-.1.2-.2.3-.3 0-.1-.2-.3-.2-.4 0-.1.2-.2.2-.4 0-.1-.2-.2-.2-.4zm-5.7 5.9c-3.1 0-5.5-2.5-5.5-5.5s2.5-5.5 5.5-5.5c3.1 0 5.5 2.5 5.5 5.5s-2.5 5.5-5.5 5.5z" class="st19"/>
    <path class="st10" d="M188.9 229.7c0-.1.2-.3.2-.4 0-.1-.2-.2-.3-.3 0-.1.1-.3.1-.4 0-.1-.3-.2-.3-.3 0-.1.1-.3.1-.4 0-.1-.3-.2-.3-.3-.1-.1.1-.3 0-.4-.1-.1-.3-.1-.4-.2-.1-.1 0-.3 0-.4-.1-.1-.3-.1-.4-.2-.1-.1 0-.3-.1-.4-.1-.1-.3 0-.4-.1-.1-.1-.1-.3-.1-.4-.1-.1-.3 0-.4-.1-.1-.1-.1-.3-.2-.4-.1-.1-.3 0-.4 0-.1-.1-.1-.3-.2-.3-.1-.1-.3.1-.4 0-.1 0-.2-.3-.3-.3-.1 0-.3.1-.4.1-.1 0-.2-.2-.3-.3-.1 0-.3.2-.4.1-.1 0-.2-.2-.4-.2-.1 0-.3.2-.4.2-.1 0-.3-.2-.4-.2-.1 0-.2.2-.4.2-.1 0-.3-.2-.4-.1-.1 0-.2.2-.3.3-.1 0-.3-.1-.4-.1-.1 0-.2.3-.3.3-.1 0-.3-.1-.4 0-.1.1-.1.3-.2.3-.1.1-.3 0-.4 0-.1.1-.1.3-.2.4-.1.1-.3 0-.4.1-.1.1-.1.3-.1.4-.1.1-.3 0-.4.1-.1.1 0 .3-.1.4-.1.1-.3.1-.4.2-.1.1 0 .3 0 .4-.1.1-.3.1-.4.2-.1.1.1.3 0 .4-.1.1-.3.1-.3.3 0 .1.1.3.1.4 0 .1-.3.2-.3.3 0 .1.1.3.1.4 0 .1-.2.2-.3.3 0 .1.2.3.2.4 0 .1-.2.2-.2.4 0 .1.2.2.2.4 0 .1-.2.3-.2.4 0 .1.2.2.3.3 0 .1-.1.3-.1.4 0 .1.3.2.3.3 0 .1-.1.3-.1.4 0 .1.3.2.3.3.1.1-.1.3 0 .4.1.1.3.1.4.2.1.1 0 .3 0 .4.1.1.3.1.4.2.1.1 0 .3.1.4.1.1.3 0 .4.1.1.1.1.3.1.4.1.1.3 0 .4.1.1.1.1.3.2.4.1.1.3 0 .4 0 .1.1.1.3.2.3.1.1.3-.1.4 0 .1 0 .2.3.3.3.1 0 .3-.1.4-.1.1 0 .2.2.3.3.1 0 .3-.2.4-.1.1 0 .2.2.4.2.1 0 .3-.2.4-.2.1 0 .3.2.4.2.1 0 .2-.2.4-.2.1 0 .3.2.4.1.1 0 .2-.2.3-.3.1 0 .3.1.4.1.1 0 .2-.3.3-.3.1 0 .3.1.4 0 .1-.1.1-.3.2-.3.1-.1.3 0 .4 0 .1-.1.1-.3.2-.4.1-.1.3 0 .4-.1.1-.1.1-.3.1-.4.1-.1.3 0 .4-.1.1-.1 0-.3.1-.4.1-.1.3-.1.4-.2.1-.1 0-.3 0-.4.1-.1.3-.1.4-.2.1-.1-.1-.3 0-.4.1-.1.3-.1.3-.3 0-.1-.1-.3-.1-.4 0-.1.3-.2.3-.3 0-.1-.1-.3-.1-.4 0-.1.2-.2.3-.3 0-.1-.2-.3-.2-.4 0-.1.2-.2.2-.4s-.2-.3-.2-.4zm-5.7 5.9c-3.1 0-5.5-2.5-5.5-5.5 0-3.1 2.5-5.5 5.5-5.5 3.1 0 5.5 2.5 5.5 5.5s-2.5 5.5-5.5 5.5z"/>
    <linearGradient id="SVGID_1_" gradientUnits="userSpaceOnUse" x1="183.154" y1="236.007" x2="183.154" y2="224.039">
      <stop offset="0" stop-color="#F7931E"/>
      <stop offset="1" stop-color="#FBB03B"/>
    </linearGradient>
    <path class="st26" d="M188.9 229.7c0-.1.2-.3.2-.4 0-.1-.2-.2-.3-.3 0-.1.1-.3.1-.4 0-.1-.3-.2-.3-.3 0-.1.1-.3.1-.4 0-.1-.3-.2-.3-.3-.1-.1.1-.3 0-.4-.1-.1-.3-.1-.4-.2-.1-.1 0-.3 0-.4-.1-.1-.3-.1-.4-.2-.1-.1 0-.3-.1-.4-.1-.1-.3 0-.4-.1-.1-.1-.1-.3-.1-.4-.1-.1-.3 0-.4-.1-.1-.1-.1-.3-.2-.4-.1-.1-.3 0-.4 0-.1-.1-.1-.3-.2-.3-.1-.1-.3.1-.4 0-.1 0-.2-.3-.3-.3-.1 0-.3.1-.4.1-.1 0-.2-.2-.3-.3-.1 0-.3.2-.4.1-.1 0-.2-.2-.4-.2-.1 0-.3.2-.4.2-.1 0-.3-.2-.4-.2-.1 0-.2.2-.4.2-.1 0-.3-.2-.4-.1-.1 0-.2.2-.3.3-.1 0-.3-.1-.4-.1-.1 0-.2.3-.3.3-.1 0-.3-.1-.4 0-.1.1-.1.3-.2.3-.1.1-.3 0-.4 0-.1.1-.1.3-.2.4-.1.1-.3 0-.4.1-.1.1-.1.3-.1.4-.1.1-.3 0-.4.1-.1.1 0 .3-.1.4-.1.1-.3.1-.4.2-.1.1 0 .3 0 .4-.1.1-.3.1-.4.2-.1.1.1.3 0 .4-.1.1-.3.1-.3.3 0 .1.1.3.1.4 0 .1-.3.2-.3.3 0 .1.1.3.1.4 0 .1-.2.2-.3.3 0 .1.2.3.2.4 0 .1-.2.2-.2.4 0 .1.2.2.2.4 0 .1-.2.3-.2.4 0 .1.2.2.3.3 0 .1-.1.3-.1.4 0 .1.3.2.3.3 0 .1-.1.3-.1.4 0 .1.3.2.3.3.1.1-.1.3 0 .4.1.1.3.1.4.2.1.1 0 .3 0 .4.1.1.3.1.4.2.1.1 0 .3.1.4.1.1.3 0 .4.1.1.1.1.3.1.4.1.1.3 0 .4.1.1.1.1.3.2.4.1.1.3 0 .4 0 .1.1.1.3.2.3.1.1.3-.1.4 0 .1 0 .2.3.3.3.1 0 .3-.1.4-.1.1 0 .2.2.3.3.1 0 .3-.2.4-.1.1 0 .2.2.4.2.1 0 .3-.2.4-.2.1 0 .3.2.4.2.1 0 .2-.2.4-.2.1 0 .3.2.4.1.1 0 .2-.2.3-.3.1 0 .3.1.4.1.1 0 .2-.3.3-.3.1 0 .3.1.4 0 .1-.1.1-.3.2-.3.1-.1.3 0 .4 0 .1-.1.1-.3.2-.4.1-.1.3 0 .4-.1.1-.1.1-.3.1-.4.1-.1.3 0 .4-.1.1-.1 0-.3.1-.4.1-.1.3-.1.4-.2.1-.1 0-.3 0-.4.1-.1.3-.1.4-.2.1-.1-.1-.3 0-.4.1-.1.3-.1.3-.3 0-.1-.1-.3-.1-.4 0-.1.3-.2.3-.3 0-.1-.1-.3-.1-.4 0-.1.2-.2.3-.3 0-.1-.2-.3-.2-.4 0-.1.2-.2.2-.4s-.2-.3-.2-.4zm-5.7 5.9c-3.1 0-5.5-2.5-5.5-5.5 0-3.1 2.5-5.5 5.5-5.5 3.1 0 5.5 2.5 5.5 5.5s-2.5 5.5-5.5 5.5z"/>
    <linearGradient id="SVGID_2_" gradientUnits="userSpaceOnUse" x1="180.843" y1="225.762" x2="180.843" y2="225.487">
      <stop offset="0" stop-color="#FBB03B"/>
      <stop offset="1" stop-color="#F7931E"/>
    </linearGradient>
    <path class="st27" d="M181 225.6c0-.1-.1-.1-.2 0h-.1l.1.2.1-.1c.1 0 .1-.1.1-.1z"/>
    <linearGradient id="SVGID_3_" gradientUnits="userSpaceOnUse" x1="184.091" y1="225.532" x2="184.091" y2="225.019">
      <stop offset="0" stop-color="#FBB03B"/>
      <stop offset="1" stop-color="#F7931E"/>
    </linearGradient>
    <path class="st28" d="M184 225.5c.1 0 .3-.1.3-.2s-.1-.3-.2-.3-.3.1-.3.2c0 .2.1.3.2.3z"/>
    <linearGradient id="SVGID_4_" gradientUnits="userSpaceOnUse" x1="184.138" y1="235" x2="184.138" y2="234.487">
      <stop offset="0" stop-color="#FBB03B"/>
      <stop offset="1" stop-color="#F7931E"/>
    </linearGradient>
    <path class="st29" d="M184.1 234.5c-.1 0-.2.2-.2.3 0 .1.2.2.3.2.1 0 .2-.2.2-.3-.1-.2-.2-.2-.3-.2z"/>
    <linearGradient id="SVGID_5_" gradientUnits="userSpaceOnUse" x1="183.154" y1="235.552" x2="183.154" y2="224.495">
      <stop offset="0" stop-color="#FBB03B"/>
      <stop offset="1" stop-color="#F7931E"/>
    </linearGradient>
    <path class="st30" d="M183.2 224.5c-3.1 0-5.5 2.5-5.5 5.5 0 3.1 2.5 5.5 5.5 5.5 3.1 0 5.5-2.5 5.5-5.5s-2.5-5.5-5.5-5.5zm3.2 1.5l-.3-.1-.1.1.2.1-.1.1-.2-.1-.1.2.3.2-.1.1-.4-.3.4-.6.4.3zm.8 4c0 .9-.3 1.8-.8 2.5-.7 1-1.9 1.6-3.2 1.6-1.3 0-2.4-.6-3.1-1.5-.6-.7-.9-1.6-.9-2.6 0-2.2 1.8-4.1 4.1-4.1 2.1.1 3.9 1.9 3.9 4.1zm-1.8-4.5c.1-.1.2-.1.3-.1l.2.2-.1.1s0-.1-.1-.1h-.1c-.1.1.3.3.1.5-.1.1-.2.1-.3.1l-.2-.2.1-.1s0 .1.1.2h.1c.1-.2-.2-.4-.1-.6zm-.8 0l.2-.4h.1l-.2.4c0 .1 0 .2.1.2s.2 0 .2-.1l.2-.4h.1l-.2.4c-.1.2-.2.2-.4.2-.1 0-.2-.2-.1-.3zm-.9-.3c0-.2.2-.3.4-.3s.3.2.3.4-.2.3-.4.3-.3-.2-.3-.4zm-.8-.4h.1l.1.4.1-.4h.1v.7h-.1v-.5.1l-.1.3h-.1l-.1-.3v-.1.5h-.1l.1-.7zm-1 .2l.2.2.1.1v-.1l.1-.2h.1l-.1.5.1.3h-.1l-.1-.3-.3-.4v-.1zm-.3 0v.1l-.3.1.1.2.2-.1v.1l-.2.1.1.2.3-.1v.1l-.4.2-.2-.7.4-.2zm-.9.4h.1c.1 0 .2 0 .2.1v.2l.3.2-.1.1-.3-.2-.1.1.1.2-.1.1-.3-.6.2-.2zm-.6.4c.1-.1.3-.1.3-.1v.1h-.3c-.1.2-.1.3 0 .4.1.1.2.1.4.1.1-.1.1-.2.1-.2l-.1-.1-.1.1-.1-.1.2-.1.2.3-.1.1s0 .1-.1.2c-.2.1-.4.1-.5-.1-.1-.2-.1-.5.1-.6zm-.7.9s.1 0 0 0c.1.1.1.1 0 0-.5.7-.9 1.5-1 2.3 0 0 0 .1-.1 0 0 0-.1 0 0-.1.1-.7.5-1.5 1.1-2.2zm-1.5 3.6l.1-.3-.3-.2h.3l.1-.3.1.3h.3l-.3.2.1.3-.3-.2-.1.2zm1.7 3.1c-.1 0-.1 0 0 0-.7-.7-1.1-1.5-1.3-2.4v-.1h.1c.2.9.6 1.7 1.2 2.5 0-.1 0 0 0 0zm.7 1c.1 0 .1 0 0 0 0-.1-.1 0-.2-.1-.2-.1-.2-.3-.1-.5s.3-.2.5-.1l.2.2h-.1s0-.1-.1-.2-.3-.1-.4.1c-.1.1-.1.3.1.4.1.1.2 0 .2 0v-.1l-.1-.1.1-.1.2.1-.3.4zm.8.1v.3l-.1-.1v-.3l-.1-.1-.1.2-.1-.1.3-.7.2.1c.1 0 .1.1.1.1.1.1.1.1 0 .2 0 .3-.1.4-.2.4zm.8-.1l-.3-.1-.1.2.2.1v.1l-.2-.1-.1.2.3.1v.1l-.4-.1.2-.7.4.1v.1zm.4.4l-.1.3h-.1l.1-.3-.2-.5h.1l.1.2v.1l.1-.1.2-.2h.1l-.3.5zm1.2.4v-.5.1l-.1.3h-.1l-.1-.3v-.1.5h-.1v-.7h.1l.2.4.1-.4h.1l.1.7h-.2zm.7-.1c-.2 0-.4-.1-.5-.3 0-.2.1-.4.3-.4.2 0 .4.1.4.3.2.2 0 .4-.2.4zm.9-.2c-.2.1-.3 0-.4-.2l-.2-.4h.1l.2.4c0 .1.1.1.2.1s.1-.1.1-.2l-.2-.4h.1l.2.4c.1.1 0 .2-.1.3zm.6-.3c-.1.1-.3 0-.3 0v-.1h.2l.1-.1c-.1-.1-.4.1-.5-.1-.1-.1 0-.2.1-.3.1-.1.2 0 .2 0v.1h-.2c-.1 0-.1.1-.1.1.1.1.4-.1.5.1.2.1.2.2 0 .3zm.4-.3l-.4-.6.4-.3.1.1-.2.2.1.2.2-.1.1.1-.4.1.1.2.3-.2.1.1-.4.2zm.7-.9s-.1 0 0 0c-.1 0-.1-.1 0 0 .5-.8 1-1.6 1.1-2.5 0 0 0-.1.1 0 0 0 .1 0 .1.1-.2.9-.7 1.7-1.3 2.4zm1.4-3.6h.3l-.3.2.1.3-.3-.2-.3.2.1-.3-.3-.2h.3l.1-.3.3.3zm-.2-.7s-.1 0 0 0c-.2-.9-.6-1.7-1.2-2.4v-.1h.1c.6.8 1 1.6 1.1 2.5z"/>
    <linearGradient id="SVGID_6_" gradientUnits="userSpaceOnUse" x1="181.05" y1="234.349" x2="181.05" y2="234.076">
      <stop offset="0" stop-color="#FBB03B"/>
      <stop offset="1" stop-color="#F7931E"/>
    </linearGradient>
    <path class="st31" d="M181.2 234.3c0-.1 0-.1-.1-.2h-.1l-.1.2.1.1c.1 0 .1-.1.2-.1z"/>
    <path class="st32" d="M178.3 229.1c.1 0 .1 0 0 0 .2-.9.6-1.7 1.2-2.3v-.1h-.1c-.6.7-1 1.5-1.1 2.4zm.1 1.8s-.1 0 0 0h-.1c.2.9.6 1.7 1.2 2.4h.1v-.1c-.6-.6-1-1.4-1.2-2.3zm9.6 0s-.1 0 0 0c-.2 1-.7 1.8-1.3 2.5v.1h.1c.6-.8 1.1-1.6 1.2-2.6.1 0 0 0 0 0zm-1.2-4.2c-.1 0-.1.1 0 0 .6.7 1 1.5 1.1 2.4 0 0 0 .1.1 0 0 0 .1 0 0-.1-.1-.8-.5-1.6-1.2-2.3z"/>
    <path class="st33" d="M182 231.6v-.5c0-.1.1-.2.1-.2v-.1l-.1-.1-.1-.1-.1-.1-.1-.1s0-.1-.1-.1h-.2c-.6 0-1.1-.7-1.1-1.3 0-.7.6-1.1 1.1-1.1h.5s.1 0 .1.1l.1.1s.1 0 .1.1l.1.1.1.1v.4h.5v.1l.1.1v-.1h.6c.1-.5.5-.9 1-.9.6 0 1.1.4 1.1 1s-.6 1.3-1.1 1.3h-.2c-.1.2-.3.3-.5.5.1.2 0 .5 0 .8h-.2c0 .1.1.1.1.2.2 0 .6.1.8.1 0-.1 0-.1-.1-.2 0 0-.1-.1-.2-.1s-.1-.1-.2-.1c-.1-.1-.1-.1-.1-.2v-.1s0-.1.1-.1h.1c.1 0 .1.1.2.1s.1.1.2.1l.1.1s.1 0 .1.1h.2v-.2s0-.1-.1-.1c0-.1-.1-.1-.2-.2l.2.2s0 .1.1.1v.2h-.2s-.1 0-.1-.1l-.1-.1c-.1 0-.1-.1-.2-.1s-.1-.1-.2-.1h-.1s-.1 0-.1.1v.2c0 .1.1.1.1.2.1 0 .1.1.2.1s.1.1.2.1c.1.1.1.1.1.2v.1c0 .1.8.2 1.1.4.5-.7.8-1.5.8-2.4 0-1-.4-2-1.1-2.7-.7-.7-1.7-1.1-2.7-1.1-1 0-2 .4-2.7 1.1-.7.7-1.1 1.7-1.1 2.7 0 .9.3 1.8.9 2.4.5-.3 1.1-.5 1.8-.6.4-.1.4-.2.4-.3z"/>
    <path d="M183.2 226c-2.2 0-4.1 1.8-4.1 4.1 0 1 .3 1.9.9 2.6.1 0 .1-.1.2-.1-.6-.7-.9-1.5-.9-2.4 0-1 .4-2 1.1-2.7.7-.7 1.7-1.1 2.7-1.1 1 0 2 .4 2.7 1.1.7.7 1.1 1.7 1.1 2.7 0 .9-.3 1.7-.8 2.4.1 0 .2.1.2.1.5-.7.8-1.5.8-2.5.1-2.4-1.7-4.2-3.9-4.2z"/>
    <path class="st34" d="M185.1 232v.1s0 .1-.1.1l-.1.1h-.2c-.1 0-.2-.1-.2-.1-.1-.1-.1.1-.2 0 0 .2-.1-.3-.2.7h-1.7c-.1-1-.2-.6-.3-.9-.6.1-1.2.2-1.8.5-.1 0-.1 0-.2.1.7.9 1.9 1.5 3.1 1.5 1.3 0 2.5-.6 3.2-1.6-.1 0-.2-.1-.2-.1-.4-.2-.7-.3-1.1-.4z"/>
    <path class="st34" d="M184.4 232.1c.1 0 .1.1.2.1 0 0 .1 0 .1.1h.2c.1 0 .1-.1.1-.1v-.1c-.2-.1-.5-.1-.7-.1 0-.1 0 0 .1.1-.1-.1-.1-.1 0 0z"/>
    <path class="st10" d="M185.4 226c-.1-.1-.1-.2-.1-.2l-.1.1s0 .1.2.2c.1.1.3 0 .3-.1.1-.2-.2-.3-.1-.5 0 0 .1-.1.1 0 .1 0 .1.1.1.1l.1-.1s0-.1-.2-.2c-.1-.1-.3 0-.3.1-.1.2.2.3.1.5 0 .2-.1.2-.1.1zm-.6-.1c.2.1.3 0 .4-.2l.2-.4h-.1l-.2.4c0 .1-.1.1-.2.1s-.1-.1-.1-.2l.2-.4h-.1l-.2.4c-.2 0-.1.2.1.3zm-4.3.5c.1-.1.1-.2.1-.2l.1-.1-.2-.3-.2.1.1.1.1-.1.1.1s0 .1-.1.2-.3.1-.4-.1c-.1-.1-.1-.3.1-.4.1-.1.2-.1.2-.1v-.1s-.1 0-.3.1c-.2.1-.2.4-.1.5.1.4.4.4.5.3zm.5-.3l-.1-.2.1-.1.3.2.1-.1-.3-.2c.1-.1.1-.2 0-.2 0-.1-.1-.1-.2-.1h-.1l-.2.1.3.6h.1zm-.3-.5c.2-.1.2-.1.3 0v.2l-.1.1-.2-.3zm1.2.1l-.1-.1-.3.1v-.2h.2v-.2l-.3.1v-.1l.3-.2-.1-.1-.4.2.3.7zm2.1-.1c.2 0 .4-.1.4-.3 0-.2-.1-.4-.3-.4-.2 0-.4.1-.4.3 0 .2.1.4.3.4zm-.1-.4c0-.1.2-.2.3-.2.1 0 .2.2.2.3 0 .1-.2.2-.3.2-.2 0-.3-.1-.2-.3zm-1.8.5h.1l-.1-.3.1-.5h-.1l-.1.2v.1l-.1-.1-.2-.2h-.1l.3.4.2.4zm.9-.6v-.1.1l.2.3h.1l.1-.3v-.1.5h.1v-.7h-.1l-.1.4-.1-.4h-.1l-.1.7h.1l-.1-.4zm-1.7 9.2v-.2s-.1 0-.1-.1l-.2-.1-.3.7.1.1.1-.2.1.1v.3l.1.1v-.3c.1-.2.2-.3.2-.4zm-.3 0l-.1-.1.1-.2h.1c.1 0 .1.1.1.2-.1.1-.1.2-.2.1zm5.1-.1l-.1-.2.2-.2-.2.1-.2-.2.3-.1-.1-.1-.3.2.4.6.4-.2-.1-.1zm-5.6-.2v.3h-.2c-.1-.1-.1-.2-.1-.4.1-.1.2-.2.4-.1.1.1.1.2.1.2h.1s0-.1-.2-.2-.4-.1-.5.1c-.1.2-.1.4.1.5.1.1.2.1.2.1l.1.1.2-.3-.2-.3zm3.6.4c-.2 0-.3.2-.3.4s.2.3.5.3c.2 0 .3-.2.3-.5-.1-.1-.3-.3-.5-.2zm.1.6c-.1 0-.3-.1-.3-.2s.1-.3.2-.3.3.1.3.2-.1.3-.2.3zm1.8-8.4l.1-.1-.3-.2.1-.2.2.2.1-.1-.2-.2.1-.1.3.2v-.1l-.3-.3-.5.6zm-2.6 7.9l-.1.4-.2-.4h-.1v.7h.1v-.5.1l.1.3h.1l.1-.3v-.1.5h.1l-.1-.7zm-2.1.4l.4.1.1-.1-.3-.1v-.2l.3.1v-.1l-.2-.1v-.2l.3.1v-.1l-.4-.1zm1-.3c0 .1-.1.1 0 0-.1.1-.1 0 0 0l-.2-.3h-.1l.2.5-.1.3h.1l.1-.3.3-.4h-.1l-.2.2zm3.1-.5s0-.1.1-.1h.2v-.1h-.2c-.1.1-.2.2-.1.3.1.2.4 0 .5.1 0 .1 0 .1-.1.1-.1.1-.2 0-.2 0v.1h.3c.1-.1.2-.2.1-.3-.3-.2-.6 0-.6-.1zm-.3 0h-.1l.2.4c0 .1 0 .2-.1.2s-.2 0-.2-.1l-.2-.4h-.1l.2.4c.1.2.2.2.4.2.2-.1.2-.2.2-.4l-.3-.3z"/>
    <path class="st32" d="M178.4 230l.2-.2h-.3l-.1-.3-.1.3h-.3l.2.2-.1.3.3-.2.3.2zm9.2-.2l.3.2-.1.3.3-.2.2.2-.1-.3.3-.2h-.3l-.1-.3-.1.3z"/>
    <path class="st35" d="M185.1 232s0-.1 0 0c0-.1-.1-.2-.1-.3-.1-.1-.1-.1-.2-.1s-.1-.1-.2-.1-.1-.1-.1-.2v-.2s.1 0 .1-.1h.1c.1 0 .1 0 .2.1.1 0 .1.1.2.1l.1.1s.1 0 .1.1h.2v-.2s0-.1-.1-.1c0-.1-.1-.1-.2-.2l.2.2s0 .1.1.1v.2h-.2s-.1 0-.1-.1l-.1-.1c-.1 0-.1-.1-.2-.1s-.1-.1-.2-.1h-.1l-.1.1v.1c0 .1.1.1.1.2.1.1.1.1.2.1s.1.1.2.1c0 0 .1.1.1.2-.1.2-.1.2 0 .2-.1 0-.1 0 0 0-.1 0-.1 0 0 0-.1.1-.1.1-.1.2s-.1.1-.1.1h-.2s-.1 0-.1-.1c-.1 0-.1-.1-.2-.1 0 0-.1 0-.1-.1v.1l.2.2c.1 0 .1.1.2.1h.2s.1 0 .1-.1c0 0 0-.1.1-.1v-.2z"/>
    <path class="st18" d="M182 231.3zm.1-.1c0-.1.1-.2.1-.2-.1 0-.1.1-.1.2zm1.2 1.4c0-.1.1-.2.2-.2s.1.1.1.1c.1-.8.7-1 .7-1 0-.3-.1-.5-.2-.8-.3.3-.6.6-.9.7 0 0 .1.1.1.2s-.1.2-.1.2v.8h.3-.2zm.3 0zm-1.7-4.5zm-.2-.1zm.3.2c.1 0 .1 0 0 0 .1 0 .1 0 0 0zm.4.3s0 .1 0 0c0 .1 0 0 0 0zm.1.2zm-1-.7zm0 2.4zm.7-2.1zm2.6.3c.4 0 .7.2.7.7 0 .4-.4.8-.7.8h-.1c0 .1-.1.2-.2.3h.2c.6 0 1.1-.7 1.1-1.3 0-.7-.6-1.1-1.1-1.1-.5 0-.9.4-1 .9.1 0 .3.1.4.2.2-.3.5-.5.7-.5z"/>
    <path class="st36" d="M185.5 229.2c0-.4-.4-.7-.7-.7-.3 0-.5.2-.6.4.4.2.7.5.5 1h.1c.4.1.7-.3.7-.7z"/>
    <path class="st37" d="M183.6 232.6c0-.1-.1-.2-.1-.2-.1 0-.1.1-.1.2h.2z"/>
    <path class="st10" d="M181.8 230.5l-.1-.1.1.1zm.9-1.7c.1 0 .1 0 0 0 .1 0 .1 0 0 0zm.2 0c0-.1 0-.1 0 0 0-.1 0-.1 0 0zm-.8 2c-.1-.1-.1-.1 0 0-.1-.1-.1-.1 0 0zm.9-2.1zm-.4.1h.1-.1zm.5-.1zm-.1 2.8s.2 0 .2.1c.2-.2.6-.4.9-.7.2-.2.4-.3.5-.5.1-.1.2-.2.2-.3.1-.5-.2-.8-.5-1-.1-.1-.4-.1-.5-.2-.2-.1-.7-.1-.7-.1v2.7zm1.2-1.9c.2 0 .3.1.3.3 0 .2-.1.3-.3.3-.2 0-.3-.1-.3-.3 0-.2.1-.3.3-.3z"/>
    <path class="st35" d="M183.2 232c.1 0 .2-.1.2-.2s0-.1-.1-.2l-.1-.1v.5z"/>
    <path class="st36" d="M183.9 229.8c0 .2.1.3.3.3.2 0 .3-.1.3-.3 0-.2-.1-.3-.3-.3-.2.1-.3.2-.3.3zm.2-.1c.1 0 .2 0 .2.1s0 .2-.1.2-.2 0-.2-.1 0-.2.1-.2z"/>
    <ellipse transform="rotate(-28.213 184.15 229.82)" class="st38" cx="184.2" cy="229.8" rx=".1" ry=".1"/>
    <path class="st10" d="M182 231.6zm2.3.3v-.2s-.7.1-.7 1h.4c.1 0 .2-.3.2-.4v-.1l.1-.3z"/>
    <path class="st33" d="M182.8 228.8s.1 0 0 0c.1 0 0 0 0 0z"/>
    <path class="st19" d="M182.8 228.8s.1 0 0 0c.1 0 0 0 0 0z"/>
    <path class="st33" d="M181.5 230.4h.2s0 .1.1.1c0 0 0-.1-.1-.1h-.2z"/>
    <path class="st19" d="M181.5 230.4h.2s0 .1.1.1c0 0 0-.1-.1-.1h-.2z"/>
    <path class="st33" d="M182.3 228.3l.1.1c-.1 0-.1 0-.1-.1z"/>
    <path class="st19" d="M182.3 228.3l.1.1c-.1 0-.1 0-.1-.1z"/>
    <path class="st33" d="M182.1 228.2s.1.1 0 0c.1.1 0 0 0 0z"/>
    <path class="st19" d="M182.1 228.2s.1.1 0 0c.1.1 0 0 0 0z"/>
    <path class="st33" d="M180.4 229c0-.7.6-1.1 1.1-1.1-.6.1-1.1.5-1.1 1.1 0 .7.6 1.3 1.1 1.3-.6.1-1.1-.6-1.1-1.3z"/>
    <path class="st19" d="M180.4 229.1c0-.7.6-1 1.1-1-.6 0-1.1.3-1.1 1s.6 1.3 1.1 1.3c-.6-.1-1.1-.7-1.1-1.3z"/>
    <path class="st33" d="M181.8 228h.1-.1z"/>
    <path class="st19" d="M181.8 228h.1-.1z"/>
    <path class="st33" d="M182.6 228.8c-.1 0-.1 0 0 0-.1 0-.1 0 0 0-.1 0-.1 0 0 0-.1 0-.1 0 0 0z"/>
    <path class="st19" d="M182.6 228.8c-.1 0-.1 0 0 0-.1 0-.1 0 0 0-.1 0-.1 0 0 0-.1 0-.1 0 0 0z"/>
    <path class="st33" d="M181.5 228h.2-.2z"/>
    <path class="st19" d="M181.5 228h.2-.2z"/>
    <path class="st33" d="M182.1 230.8l.1.1c-.1 0 0 0-.1-.1z"/>
    <path class="st19" d="M182.1 230.8l.1.1c-.1 0 0 0-.1-.1z"/>
    <path class="st33" d="M183.2 228.7h-.1.1z"/>
    <path class="st19" d="M183.2 228.7h-.1.1z"/>
    <path class="st33" d="M182 230.7l-.1-.1.1.1z"/>
    <path class="st19" d="M182 230.7l-.1-.1.1.1z"/>
    <path class="st33" d="M182 231.3v-.1.1z"/>
    <path class="st19" d="M182 231.3v-.1.1z"/>
    <path class="st34" d="M182 231.9c0 .3.1.5.3.7-.1-.1-.2-.3-.2-.4-.1-.1-.1-.2-.1-.3z"/>
    <path class="st19" d="M182 231.9c0 .3.1.5.3.7-.1-.1-.2-.3-.2-.4-.1-.1-.1-.2-.1-.3z"/>
    <path class="st18" d="M183.2 232c-.1 0-.2-.1-.2-.2v-.2c-.2-.2-.6-.4-.9-.7v.1c0 .1-.1.2-.1.2v.4s.7.1.7 1v-.1c.1 0 0 .1 0 .2h-.1.5l.1-.7c.1 0 0 0 0 0z"/>
    <path class="st19" d="M183.2 232c-.1 0-.2-.1-.2-.2v-.2c-.2-.2-.6-.4-.9-.7v.1c0 .1-.1.2-.1.2v.4s.7.1.7 1v-.1c.1 0 0 .1 0 .2h-.1.5l.1-.7c.1 0 0 0 0 0z"/>
    <path class="st18" d="M182.3 232.6c-.1-.1-.2-.3-.2-.4 0 .1.1.3.2.4z"/>
    <path class="st19" d="M182.3 232.6c-.1-.1-.2-.3-.2-.4 0 .1.1.3.2.4z"/>
    <path class="st18" d="M181.5 230.1c0-.1 0-.1 0 0 0-.1 0-.1 0 0-.4 0-.7-.4-.7-.8s.4-.7.7-.7c.3 0 .5.2.6.4.1-.1.3-.1.4-.2v-.4c0-.1-.1-.1-.1-.1l-.1-.1-.1-.1-.1-.1s-.1 0-.1-.1h-.5c-.6 0-1.1.4-1.1 1.1 0 .7.6 1.3 1.1 1.3h.2c-.1-.1-.1-.2-.2-.2z"/>
    <path class="st19" d="M181.5 230.1c0-.1 0-.1 0 0 0-.1 0-.1 0 0-.4 0-.7-.4-.7-.8s.4-.7.7-.7c.3 0 .5.2.6.4.1-.1.3-.1.4-.2v-.4c0-.1-.1-.1-.1-.1l-.1-.1-.1-.1-.1-.1s-.1 0-.1-.1h-.5c-.6 0-1.1.4-1.1 1.1 0 .7.6 1.3 1.1 1.3h.2c-.1-.1-.1-.2-.2-.2z"/>
    <path class="st36" d="M181.5 228.6c-.4 0-.7.2-.7.7 0 .4.4.8.7.8-.1-.5.2-.8.5-1 0-.3-.2-.5-.5-.5z"/>
    <path class="st19" d="M181.5 228.6c-.4 0-.7.2-.7.7 0 .4.4.8.7.8-.1-.5.2-.8.5-1 0-.3-.2-.5-.5-.5z"/>
    <path class="st37" d="M183 232.6c0-.1-.1-.2-.1-.2-.1 0-.1.1-.1.1l.2.1z"/>
    <path class="st19" d="M183 232.6c0-.1-.1-.2-.1-.2-.1 0-.1.1-.1.1l.2.1z"/>
    <path class="st10" d="M183 231.6c.1-.1 0-.1 0 0 .1-.1 0-.1 0 0V229h.1l-.1-.1v-.1h-.5c-.1 0-.3.1-.4.2-.4.2-.7.5-.5 1 0 .1.1.2.2.3 0 0 0 .1.1.1l.1.1.1.1.1.1.1.1c.2.4.5.6.7.8zm-.9-1.5c-.2 0-.3-.1-.3-.3 0-.2.1-.3.3-.3.2 0 .3.1.3.3 0 .2-.1.3-.3.3z"/>
    <path class="st19" d="M183 231.6c.1-.1 0-.1 0 0 .1-.1 0-.1 0 0V229h.1l-.1-.1v-.1h-.5c-.1 0-.3.1-.4.2-.4.2-.7.5-.5 1 0 .1.1.2.2.3 0 0 0 .1.1.1l.1.1.1.1.1.1.1.1c.2.4.5.6.7.8zm-.9-1.5c-.2 0-.3-.1-.3-.3 0-.2.1-.3.3-.3.2 0 .3.1.3.3 0 .2-.1.3-.3.3z"/>
    <path class="st36" d="M182.4 229.8c0-.2-.1-.3-.3-.3-.2 0-.3.1-.3.3 0 .2.1.3.3.3.2 0 .3-.1.3-.3zm-.3.1c-.1 0-.1-.1-.1-.2s.1-.1.2-.1.1.1.1.2c-.1.1-.2.2-.2.1z"/>
    <path class="st19" d="M182.4 229.8c0-.2-.1-.3-.3-.3-.2 0-.3.1-.3.3 0 .2.1.3.3.3.2 0 .3-.1.3-.3zm-.3.1c-.1 0-.1-.1-.1-.2s.1-.1.2-.1.1.1.1.2c-.1.1-.2.2-.2.1z"/>
    <path class="st35" d="M183.2 231.5c-.1 0-.1 0-.1.1 0 0-.1.1-.1.2s.1.2.2.2v-.5z"/>
    <path class="st19" d="M183.2 231.5c-.1 0-.1 0-.1.1 0 0-.1.1-.1.2s.1.2.2.2v-.5z"/>
    <ellipse transform="rotate(-61.785 182.115 229.806)" class="st38" cx="182.1" cy="229.8" rx=".1" ry=".1"/>
    <ellipse transform="rotate(-61.785 182.115 229.806)" class="st19" cx="182.1" cy="229.8" rx=".1" ry=".1"/>
    <path class="st10" d="M182.7 232.6c-.1-.8-.7-1-.7-1 0 .1 0 .2.1.3 0 .1 0 .2.1.2 0 .2.1.4.2.4l.3.1z"/>
    <path class="st19" d="M182.7 232.6c-.1-.8-.7-1-.7-1 0 .1 0 .2.1.3 0 .1 0 .2.1.2 0 .2.1.4.2.4l.3.1zm-54.9 4.9c0 .3.2.5.5.5h42.1c.3 0 .5-.2.5-.5v-14.8c0-.3-.2-.5-.5-.5h-42.1c-.3 0-.5.2-.5.5v14.8zm39.8-4v-8.2c0-.3 0-.6.1-.7 0-.1.3-.1.5-.1s.4 0 .4.1c.1 0 .1.4.1.7v10c0 .3-.2.5-.5.5h-.1c-.3 0-.5-.2-.5-.5v-1.8zm-3.1 0v-8.2c0-.3 0-.6.1-.7 0-.1.3-.1.5-.1s.4 0 .4.1c.1 0 .1.4.1.7v10c0 .3-.2.5-.5.5h-.1c-.3 0-.5-.2-.5-.5v-1.8zm-3.1-4.7v-3.4c0-.3 0-.6.1-.7 0-.1.3-.1.5-.1s.4 0 .4.1c.1 0 .1.4.1.7v10c0 .3-.2.5-.5.5h-.1c-.3 0-.5-.2-.5-.5v-6.6zm-3.2 4.7v-8.2c0-.3 0-.6.1-.7 0-.1.3-.1.5-.1s.4 0 .4.1c.1 0 .1.4.1.7v10c0 .3-.2.5-.5.5h-.1c-.3 0-.5-.2-.5-.5v-1.8zm-3.1 1.4v-9.6c0-.3 0-.6.1-.7 0-.1.3-.1.5-.1s.4 0 .4.1c.1 0 .1.4.1.7v10c0 .3-.2.5-.5.5h-.1c-.3 0-.5-.2-.5-.5v-.4zm-3.2-1.4v-8.2c0-.3 0-.6.1-.7 0-.1.3-.1.5-.1s.4 0 .4.1c.1 0 .1.4.1.7v10c0 .3-.2.5-.5.5h-.1c-.3 0-.5-.2-.5-.5v-1.8zm-3.2-4.7v-3.4c0-.3 0-.6.1-.7 0-.1.3-.1.5-.1s.4 0 .4.1c.1 0 .1.4.1.7v10c0 .3-.2.5-.5.5h-.1c-.3 0-.5-.2-.5-.5v-6.6zm-3.1 4.7v-8.2c0-.3 0-.6.1-.7s.3-.1.5-.1.4 0 .4.1c.1 0 .1.4.1.7v10c0 .3-.2.5-.5.5h-.1c-.3 0-.5-.2-.5-.5v-1.8zm-3.1 1.7v-9.8c0-.3 0-.6.1-.7 0-.1.3-.1.5-.1s.4 0 .4.1c.1 0 .1.4.1.7v9.9c0 .3-.2.5-.5.5h-.1c-.3 0-.5-.2-.5-.5v-.1zm-3.2-1.7v-8.2c0-.3 0-.6.1-.7s.3-.1.5-.1.4 0 .4.1c.1 0 .1.4.1.7v10c0 .3-.2.5-.5.5h-.1c-.3 0-.5-.2-.5-.5v-1.8zm-3.1 1v-9.1c0-.3 0-.6.1-.7s.3-.1.5-.1.4 0 .4.1c.1 0 .1.4.1.7v10c0 .3-.2.5-.5.5h-.1c-.3 0-.5-.2-.5-.5v-.9zm-3.1-1v-8.2c0-.3 0-.6.1-.7s.3-.1.5-.1.4 0 .4.1c.1 0 .1.4.1.7v10c0 .3-.2.5-.5.5h-.1c-.3 0-.5-.2-.5-.5v-1.8zm-3.2-4.7v-3.4c0-.3 0-.6.1-.7s.3-.1.5-.1.4 0 .4.1c.1 0 .1.4.1.7v10c0 .3-.2.5-.5.5h-.1c-.3 0-.5-.2-.5-.5v-6.6z"/>
    <path class="st10" d="M127.8 237.3c0 .3.2.5.5.5h42.1c.3 0 .5-.2.5-.5v-14.8c0-.3-.2-.5-.5-.5h-42.1c-.3 0-.5.2-.5.5v14.8zm39.8-3.9v-8.2c0-.3 0-.6.1-.7 0-.1.3-.1.5-.1s.4 0 .4.1.1.4.1.7v10c0 .3-.2.5-.5.5h-.1c-.3 0-.5-.2-.5-.5v-1.8zm-3.1 0v-8.2c0-.3 0-.6.1-.7 0-.1.3-.1.5-.1s.4 0 .4.1c.1 0 .1.4.1.7v10c0 .3-.2.5-.5.5h-.1c-.3 0-.5-.2-.5-.5v-1.8zm-3.1-4.8v-3.4c0-.3 0-.6.1-.7 0-.1.3-.1.5-.1s.4 0 .4.1c.1 0 .1.4.1.7v10c0 .3-.2.5-.5.5h-.1c-.3 0-.5-.2-.5-.5v-6.6zm-3.2 4.8v-8.2c0-.3 0-.6.1-.7 0-.1.3-.1.5-.1s.4 0 .4.1c.1 0 .1.4.1.7v10c0 .3-.2.5-.5.5h-.1c-.3 0-.5-.2-.5-.5v-1.8zm-3.1 1.4v-9.6c0-.3 0-.6.1-.7 0-.1.3-.1.5-.1s.4 0 .4.1c.1 0 .1.4.1.7v10c0 .3-.2.5-.5.5h-.1c-.3 0-.5-.2-.5-.5v-.4zm-3.2-1.5v-8.2c0-.3 0-.6.1-.7 0-.1.3-.1.5-.1s.4 0 .4.1c.1 0 .1.4.1.7v10c0 .3-.2.5-.5.5h-.1c-.3 0-.5-.2-.5-.5v-1.8zm-3.2-4.7v-3.4c0-.3 0-.6.1-.7 0-.1.3-.1.5-.1s.4 0 .4.1c.1 0 .1.4.1.7v10c0 .3-.2.5-.5.5h-.1c-.3 0-.5-.2-.5-.5v-6.6zm-3.1 4.7v-8.2c0-.3 0-.6.1-.7s.3-.1.5-.1.4 0 .4.1c.1 0 .1.4.1.7v10c0 .3-.2.5-.5.5h-.1c-.3 0-.5-.2-.5-.5v-1.8zm-3.1 1.7v-9.8c0-.3 0-.6.1-.7 0-.1.3-.1.5-.1s.4 0 .4.1c.1 0 .1.4.1.7v9.9c0 .3-.2.5-.5.5h-.1c-.3 0-.5-.2-.5-.5v-.1zm-3.2-1.7v-8.2c0-.3 0-.6.1-.7s.3-.1.5-.1.4 0 .4.1c.1 0 .1.4.1.7v10c0 .3-.2.5-.5.5h-.1c-.3 0-.5-.2-.5-.5v-1.8zm-3.1 1v-9.1c0-.3 0-.6.1-.7s.3-.1.5-.1.4 0 .4.1c.1 0 .1.4.1.7v10c0 .3-.2.5-.5.5h-.1c-.3 0-.5-.2-.5-.5v-.9zm-3.1-1v-8.2c0-.3 0-.6.1-.7s.3-.1.5-.1.4 0 .4.1c.1 0 .1.4.1.7v10c0 .3-.2.5-.5.5h-.1c-.3 0-.5-.2-.5-.5v-1.8zm-3.2-4.7v-3.4c0-.3 0-.6.1-.7s.3-.1.5-.1.4 0 .4.1c.1 0 .1.4.1.7v10c0 .3-.2.5-.5.5h-.1c-.3 0-.5-.2-.5-.5v-6.6z"/>
    <path class="st39" d="M131 225.3c0-.1-.1-.3-.3-.3h-.5c-.1 0-.3.1-.3.3v3.5c0 .1.1.3.3.3h.5c.1 0 .3-.1.3-.3v-3.5z"/>
    <path class="st40" d="M131 228.1c0-.1-.1-.1-.2-.1h-.6c-.1 0-.2-.1-.2.1v7.9h1v-7.9z"/>
    <path class="st39" d="M134 225.3c0-.1-.1-.3-.3-.3h-.5c-.1 0-.3.1-.3.3v7.5c0 .1.1.3.3.3h.5c.1 0 .3-.1.3-.3v-7.5z"/>
    <path class="st40" d="M134 232.8c0-.1.1.2-.1.2h-.6c-.1 0-.3-.3-.3-.2v3.2h1v-3.2z"/>
    <path class="st39" d="M137 225.3c0-.1-.1-.3-.3-.3h-.5c-.1 0-.3.1-.3.3v8.5c0 .1.1.3.3.3h.5c.1 0 .3-.1.3-.3v-8.5z"/>
    <path class="st40" d="M137.2 233.8c0-.1 0-.1-.2-.1h-.6c-.1 0-.2 0-.2.1v1.9h1v-1.9z"/>
    <path class="st39" d="M140 225.3c0-.1-.1-.3-.3-.3h-.5c-.1 0-.3.1-.3.3v7.5c0 .1.1.3.3.3h.5c.1 0 .3-.1.3-.3v-7.5z"/>
    <path class="st40" d="M140 232.8c0-.1.3.2.2.2h-.6c-.1 0-.6-.3-.6-.2v3.2h1v-3.2z"/>
    <path class="st39" d="M143 225.3c0-.1-.1-.3-.3-.3h-.5c-.1 0-.3.1-.3.3v9.5c0 .1.1.3.3.3h.5c.1 0 .3-.1.3-.3v-9.5z"/>
    <path class="st40" d="M143.5 234.5c0-.1 0-.1-.2-.1h-.6c-.1 0-.1 0-.1.1v1.3h.9v-1.3z"/>
    <path class="st39" d="M147 225.3c0-.1-.1-.3-.3-.3h-.5c-.1 0-.3.1-.3.3v7.5c0 .1.1.3.3.3h.5c.1 0 .3-.1.3-.3v-7.5z"/>
    <path class="st40" d="M146 232.8c0-.1.6.2.5.2h-.6c-.2 0 .1-.3.1-.2v2.8-2.8z"/>
    <path class="st39" d="M150 225.3c0-.1-.1-.3-.3-.3h-.5c-.1 0-.3.1-.3.3v3.5c0 .1.1.3.3.3h.5c.1 0 .3-.1.3-.3v-3.5z"/>
    <path class="st40" d="M150 228.1c0-.1-.2-.1-.4-.1h-.6v8h1v-7.9z"/>
    <path class="st39" d="M152 225.3c0-.1-.1-.3-.3-.3h-.5c-.1 0-.3.1-.3.3v7.5c0 .1.1.3.3.3h.5c.1 0 .3-.1.3-.3v-7.5z"/>
    <path class="st40" d="M153 232.8c0-.1-.1.2-.3.2h-.6c-.1 0-1.1-.3-1.1-.2v3.2h2v-3.2z"/>
    <path class="st39" d="M156 225.3c0-.1-.1-.3-.3-.3h-.5c-.1 0-.3.1-.3.3v8.5c0 .1.1.3.3.3h.5c.1 0 .3-.1.3-.3v-8.5z"/>
    <path class="st40" d="M156.2 234.2c0-.1-.1-.3-.2-.3h-.6c-.1 0-.1.2-.1.3v1.5h.9v-1.5z"/>
    <path class="st39" d="M159 225.3c0-.1-.1-.3-.3-.3h-.5c-.1 0-.3.1-.3.3v7.5c0 .1.1.3.3.3h.5c.1 0 .3-.1.3-.3v-7.5z"/>
    <path class="st40" d="M159 232.8c0-.1.2.2.1.2h-.6c-.1 0-.5-.3-.5-.2v3.2h1v-3.2z"/>
    <path class="st39" d="M162 225.3c0-.1-.1-.3-.3-.3h-.5c-.1 0-.3.1-.3.3v3.5c0 .1.1.3.3.3h.5c.1 0 .3-.1.3-.3v-3.5z"/>
    <path class="st40" d="M162 228.1c0-.1.4-.1.2-.1h-.6c-.1 0-.6 0-.6.1v7.9h1v-7.9z"/>
    <path class="st39" d="M165 225.3c0-.1-.1-.3-.3-.3h-.5c-.1 0-.3.1-.3.3v7.5c0 .1.1.3.3.3h.5c.1 0 .3-.1.3-.3v-7.5z"/>
    <path class="st40" d="M165 232.8c0-.1.5.2.3.2h-.6c-.1 0-.7-.3-.7-.2v3.2h1v-3.2z"/>
    <path class="st39" d="M168 225.3c0-.1-.1-.3-.3-.3h-.5c-.1 0-.3.1-.3.3v7.5c0 .1.1.3.3.3h.5c.1 0 .3-.1.3-.3v-7.5z"/>
    <path class="st40" d="M169 232.8c0-.1-.3.2-.5.2h-.6c-.1 0-.9-.3-.9-.2v3.2h2v-3.2z"/>
    <path class="st35" d="M195 215v-11h-70v11h70zm-46-4h-4v-1h4v1zm0-3h11v1h-11v-1zm-12 0h11v1h-11v-1zm0 2h7v1h-7v-1zm-5.3-5.3c2.2 0 4 1.8 4 4 0 1-.4 1.9-1 2.6-.2.2-.4.4-.6.5-.2.2-.5.3-.8.5-.5.2-1 .3-1.6.3-.6 0-1.1-.1-1.6-.3-.3-.1-.6-.3-.8-.5-.2-.2-.4-.3-.6-.5-.6-.7-1-1.6-1-2.6.1-2.2 1.9-4 4-4z"/>
    <path class="st41" d="M137 208h11v1h-11zm12 0h11v1h-11z"/>
    <path class="st42" d="M137 210h7v1h-7zm8 0h4v1h-4z"/>
    <path class="st18" d="M133.1 212.4c.5-.1.6-.3.8-.5l-.8-.9v1.4z"/>
    <path class="st18" d="M130 210c.1 0 .1-.1.1-.1 0-.1-.1-.2-.1-.3v-.6h.1c-.2 0-.3-.3-.3-.5s.1-.4.3-.4v-.1s-.1-.7-.1-1.1c0-1.4 1.3-1.4 1.7-1.4.5 0 1.7 0 1.7 1.4 0 .3-.1 1.1-.1 1.1.1 0 .1.1.1.3 0 .2-.4.3-.4.3v1c0 .1.1.3.1.4h.2-.3v-.1s.2 0 .3.1h.2l1.2 1.3c.6-.7 1-1.6 1-2.6 0-2.2-1.8-4-4-4s-4 1.8-4 4c0 1 .4 1.9 1 2.6l1.3-1.3z"/>
    <path class="st18" d="M129.2 211.9c.3.2.8.4.8.5V211l-.8.9z"/>
    <path class="st43" d="M133.4 210c.1 0 .1 0 0 0zm.1.3c0 .2.1.3-.4.3v.4l.9.9c.2-.2.4-.3.6-.5l-1.2-1.3c.1 0 .1.1.1.2zm-.2-.4z"/>
    <path class="st43" d="M133.3 210.7c.1 0 .3-.2.3-.3 0-.1 0-.2-.1-.3 0 0-.1 0-.1-.1v.7zm-3.3.3v-.3s-.2-.2-.2-.4c0-.1.1-.2.2-.3l-1.2 1.4c.2.2.3.4.5.5l.7-.9z"/>
    <path class="st43" d="M129.9 210.3c0 .2.1.3.3.4v-.7c-.1 0-.1 0-.2.1-.1 0-.1.1-.1.2zm3.1.7l-1.5 1.1-1.5-1.1v1.4c0 .2.9.3 1.5.3s.5-.1 1.5-.3V211z"/>
    <path class="st44" d="M131.8 211h.2v1l1-1.1v-1 .1h.3c-.2 1-.8 1-1.5 1z"/>
    <path class="st45" d="M131.7 211l.3-.1c-1 0-1.6.1-1.8-.9h-.2v1l2 1.1v-1h-.3z"/>
    <path class="st46" d="M133.3 208.6c.1 0 .3-.1.3-.3 0-.1-.1-.3-.2-.3v.6zm-.3-.4s-.1-.1-.1-.3v-.8c0-.4-.3-.2-.4-.1-.2.1-.5.1-.5.1v3.9l-.3.1c.7 0 1.3-.5 1.5-1h-.2c0-.1-.1-.2-.1-.4V208c.1 0 .1.1.1.2zm-1-.1h.7v.1h-.7v-.1zm.1.9h.2v-.4c0-.1.1-.1.2-.1s.2.1.2.1v.4h.2s.1 0 .1.1l-.9-.1c-.1 0-.1 0 0 0z"/>
    <path class="st47" d="M132 210.9V207h-.3c-.3 0-.5-.1-.6-.1-.1 0-.5-.2-.5.1 0 .2-.1.8 0 .8 0 .2 0 .3-.1.3v.1c0 .2-.4.3-.4.3v1c0 .1.1.2.1.3h.2c.1.7.6 1.1 1.6 1.1zm-1.4-2.8h.7v.1h-.7v-.1zm.1.8h.2v-.4c0-.1.1-.1.2-.1s.2.1.2.1v.4h.1s.1 0 .1.1l-.8-.1c-.1.1 0 0 0 0z"/>
    <path class="st47" d="M130.5 208.3v-.1h-.1c0-.2-.2-.2-.2-.2-.1 0-.3.1-.3.3 0 .2.1.3.3.3.1 0 .3-.1.3-.3z"/>
    <path class="st48" d="M130.3 208.2h.1s.1-.1.1-.3v-.8c0-.3.4-.1.5-.1.2 0 .4.1.6.1.3 0 .5-.1.7-.1.1 0 .6-.3.5.1v.8c0 .3.1.3.1.3h.1c0-.1.1-.2.2-.2s.1-.7.1-1.1c0-1.4-1.3-1.4-1.7-1.4-.4 0-1.7 0-1.7 1.4 0 .3.1 1.1.1 1.1.1 0 .3 0 .3.2z"/>
    <path class="st49" d="M132.7 209h-.7s-.1 0-.1.1l.8-.1zm-.2 0v-.4c0-.1-.1-.1-.2-.1s-.2.1-.2.1v.4h.4zm-.1-.4v.1-.1z"/>
    <path class="st10" d="M132.4 208.7v-.1.1z"/>
    <path class="st48" d="M132 208.1h.7v.1h-.7zm-1.4 0h.7v.1h-.7z"/>
    <path class="st49" d="M131.3 208.9h-.6s-.1 0-.1.1l.7-.1c.1.1.1 0 0 0z"/>
    <path class="st49" d="M131.2 209v-.4c0-.1-.1-.1-.2-.1s-.2.1-.2.1v.4h.4zm-.2-.4c.1 0 .1 0 0 0v.1-.1z"/>
    <path class="st10" d="M131.1 208.7v-.1.1c-.1 0-.1 0 0 0z"/>
    <path class="st35" d="M128 216h4v1h-4z"/>
    <path class="st41" d="M134 216h3v1h-3zm4 0h4v1h-4zm5 0h3v1h-3zm5 0h6v1h-6z"/>
    <path class="st50" d="M135 219.8c-.2 0-.4.1-.4.4 0 .2.3.4.4.4.1 0 0-.1.4-.2v.1-.7c0-.3-.2-.4-.4-.4s-.3.1-.4.2l.1.1c.1-.1.3-.2.4-.2.2 0 .4.1.4.2v.2c-.5-.1-.4-.1-.5-.1zm.2.4c-.1.1-.2.1-.3.1-.2 0-.3-.1-.3-.2s.1-.2.3-.2c.1 0 .2 0 .3.1v.2zm.9.1c-.1 0-.3-.1-.4-.2l-.1.1c.1.1.3.2.4.2.3 0 .4-.1.4-.3 0-.2-.2-.3-.4-.3-.1 0-.3-.1-.3-.2s.1-.2.2-.2.3.1.3.1l.1-.1c-.1-.1-.2-.2-.4-.2-.3 0-.4.1-.4.3 0 .2.2.3.4.3.1 0 .3.1.3.2.2.3.1.3-.1.3zm-5.7-.8v.7c0 .2 0 .3.2.3s.2-.1.2-.2v.1h.5v-.9h-.5v.7c0 .1-.1.2-.3.2-.1 0-.2-.1-.2-.2v-.7h.1zm-1.9.2l-.5-.7h-.2l.4.8v.6h.4v-.6l.6-.8h-.2zm3.3-.2v.9-.7c0-.1.2-.2.3-.2h.1v-.2c-.4 0-.4.1-.4.2zm9.1.3c-.2 0-.4.1-.4.4 0 .2.2.4.4.4.1 0 .3-.1.3-.2v.1h.5v-.7c0-.3-.3-.4-.5-.4s-.4.1-.5.2l.1.1c.1-.1.2-.2.3-.2.2 0 .2.1.2.2v.2c0-.1-.2-.1-.4-.1zm.4.4c-.1.1-.2.1-.3.1-.2 0-.3-.1-.3-.2s.1-.2.3-.2c.1 0 .2 0 .3.1v.2zm-.9-.3c0-.3-.2-.6-.5-.6s-.5.3-.5.6.2.6.5.6.5-.3.5-.6zm-.9 0c0-.2.1-.4.4-.4.2 0 .4.2.4.4s-.1.4-.4.4c-.3 0-.4-.2-.4-.4zm3.6.6c.2 0 .4-.1.4-.2v.1-1.4.5c0-.1-.3-.2-.4-.2-.3 0-.5.2-.5.6 0 .4.2.6.5.6zm0-1c.1 0 .3.1.3.2v.5c-.1.1-.2.2-.3.2-.2 0-.4-.2-.4-.4 0-.3.2-.5.4-.5zm-8.8.2c0-.4-.3-.7-.8-.7h-.3v1.4h.3c.5 0 .8-.3.8-.7zm-1.2-.7h.3c.4 0 .6.4.6.7 0 .3-.2.7-.6.7h-.3V219zm-3.5 1.5c.3 0 .5-.3.5-.6s-.2-.6-.5-.6-.5.3-.5.6c-.1.3.1.6.5.6zm0-1c.2 0 .4.2.4.4s-.1.4-.4.4c-.2 0-.4-.2-.4-.4s.1-.4.4-.4zm7.2.2c.5-.1.4-.2.5-.2.1 0 .4.1.4.2v.6-.7c0-.2-.2-.3-.4-.3s0 .1-.5.2v-.5 1.4-.7zm1.3.6c0 .1.3.2.4.2.3 0 .5-.2.5-.6 0-.3-.2-.6-.5-.6-.1 0-.4.1-.4.2v-.5 1.3zm.1-.6c.1-.1.2-.2.3-.2.2 0 .4.2.4.4s-.1.4-.4.4c-.1 0-.3-.1-.3-.2v-.4z"/>
    <path class="st50" d="M142.2 219.5l-.5-.1v.9h.5v-.7c0-.1 0-.2.1-.2 0 .1-.1.1-.1.1v-.2.2z"/>
  </g>
  <g id="Phone_2_">
    <path class="st51" d="M211.5 250.8h-8.7c-.8 0-1.5.7-1.5 1.5v17.6c0 .8.7 1.5 1.5 1.5h8.7c.8 0 1.5-.7 1.5-1.5v-17.6c0-.8-.7-1.5-1.5-1.5z"/>
    <path class="st52" d="M202.5 253.3h9.4v14.2h-9.4z"/>
    <path class="st10" d="M209.2 252.3h-4v-.4h4v.4z"/>
    <circle class="st10" cx="210.5" cy="252.1" r=".4"/>
    <path class="st10" d="M205.3 268.7h3.7v1.1h-3.7z"/>
    <g id="Badge_1_">
      <linearGradient id="SVGID_7_" gradientUnits="userSpaceOnUse" x1="207.154" y1="257.259" x2="207.154" y2="264.558">
        <stop offset=".381" stop-color="#FFF"/>
        <stop offset="1" stop-color="#E6E7E8"/>
      </linearGradient>
      <circle class="st53" cx="207.2" cy="260.9" r="3.6"/>
      <path class="st10" d="M207.1 264.8c.9 0 1.7-.4 2.3-1-.6-.6-1.4-1-2.3-1s-1.7.4-2.3 1c.6.6 1.4 1 2.3 1z"/>
      <path class="st54" d="M210.9 260.9c0 .8-.2 1.5-.7 2.2-.4.6-1.1 1.1-1.8 1.4-.7.3-1.6.3-2.3.1-.7-.2-1.4-.6-1.9-1.2-1-1.2-1.1-3-.3-4.4.4-.7 1-1.2 1.7-1.5.7-.3 1.5-.4 2.3-.3.8.2 1.4.5 2 1.1.5.6.9 1.3 1 2v.6c0 .2.3.2.3 0 0-.8-.2-1.6-.7-2.2-.4-.6-1-1.2-1.8-1.5-.7-.3-1.6-.4-2.4-.3-.8.1-1.5.5-2 1.1-1.2 1.1-1.5 2.9-.9 4.4.3.7.8 1.3 1.4 1.8.6.5 1.4.7 2.2.7 1.6 0 3.1-.9 3.8-2.4.2-.5.4-1.1.4-1.7 0 0-.3 0-.3.1z"/>
      <linearGradient id="SVGID_8_" gradientUnits="userSpaceOnUse" x1="207.142" y1="257.128" x2="207.142" y2="264.734">
        <stop offset="0" stop-color="#E07B3A"/>
        <stop offset=".755" stop-color="#893D1E"/>
        <stop offset="1" stop-color="#782516"/>
      </linearGradient>
      <path class="st55" d="M210.7 260.9c0 .7-.2 1.5-.7 2.1-.4.6-1 1-1.7 1.3-.7.3-1.5.3-2.2.1-.7-.2-1.3-.6-1.8-1.2-1-1.1-1.1-2.8-.3-4.1.4-.6.9-1.1 1.6-1.4.7-.3 1.5-.4 2.2-.2.7.1 1.4.5 1.9 1s.8 1.2.9 1.9c.1.2.1.4.1.5 0 .2.2.2.2 0 0-.8-.2-1.5-.6-2.1-.4-.6-1-1.1-1.7-1.4-.7-.3-1.5-.4-2.2-.2-.7.1-1.4.5-1.9 1-1.1 1.1-1.4 2.7-.9 4.1.3.7.7 1.3 1.3 1.7.6.4 1.3.7 2.1.7 1.5 0 2.9-.9 3.6-2.2.2-.5.3-1 .3-1.6 0-.1-.2-.1-.2 0z"/>
      <defs>
        <path id="SVGID_9_" d="M209.3 261.5l-.9-.9v-.6c0-.5-.4-.9-.9-.9h-.7c-.5 0-.9.4-.9.9v.7l-.8.8s-.1.1 0 .2h.2l.7-.6v1.1c0 .4.3.8.7.9v.4c0 .1.1.1.1.1.1 0 .1-.1.1-.1v-.5h.3v.4c0 .1.1.1.1.1.1 0 .1-.1.1-.1v-.4c.5 0 .9-.4.9-.9v-1.2l.7.8h.2c.2-.1.2-.1.1-.2z"/>
      </defs>
      <clipPath id="SVGID_10_">
        <use xlink:href="#SVGID_9_" overflow="visible"/>
      </clipPath>
      <path class="st56" d="M204.2 258.5h6.2v5.4h-6.2z"/>
      <path class="st57" d="M207.1 258.6h3.3v5.4h-3.3z"/>
      <path class="st58" d="M205.3 261.2v-.2.2c-.1 0 0 0 0 0zm0 .7s-.1 0 0 0v.2-.2zm-.4-.8s-.1 0 0 0c-.1 0-.1 0 0 0l.1.2v-.1l-.1-.1zm.7.7c-.1-.1-.1-.1 0 0-.1 0-.1 0 0 0l.1.2v-.1l-.1-.1zm-.7-.3h-.2.2c0 .1 0 .1 0 0zm.9 0h-.2.2c.1.1.1.1 0 0 .1 0 .1 0 0 0zm-.8.3l-.1.1v.1l.1-.2c0-.1 0-.1 0 0zm3.9-.3s-.1 0 0 0h-.2.2c-.1.1 0 .1 0 0zm.6 0c0 .1 0 .1 0 0h.2-.2zm-.7.4c-.1.1-.1.1 0 0 0 .1 0 .1 0 0l.2-.1h-.1l-.1.1zm.6-.6s.1 0 0 0l.2-.1h-.1l-.1.1zm-.2.6v.2-.2c.1 0 0 0 0 0zm0-.9v.2-.2c.1 0 0 0 0 0zm.2.9l.1.1h.1l-.2-.1c.1-.1 0-.1 0 0 0-.1 0-.1 0 0z"/>
      <path class="st59" d="M207.2 261.3c-.1 0-.2-.1-.2-.1v-.1h.1l.1.1c.1 0 .2-.1.2-.1h.1v.1c-.1 0-.2.1-.3.1z"/>
      <defs>
        <path id="SVGID_11_" d="M206.8 260h-.5v.4c0 .2.2.4.4.4h.1c.2 0 .4-.2.4-.4v-.4h-.4z"/>
      </defs>
      <clipPath id="SVGID_12_">
        <use xlink:href="#SVGID_11_" overflow="visible"/>
      </clipPath>
      <path class="st60" d="M206.1 259.6h1.2v1.4h-1.2z"/>
      <path class="st61" d="M206.233 259.61l.08-.06.94 1.295-.08.06z"/>
      <circle class="st62" cx="206.5" cy="260.5" r=".1"/>
      <path class="st59" d="M208.4 260H206h2.4s.1 0 0 0c.1 0 0 0 0 0z"/>
      <defs>
        <path id="SVGID_13_" d="M207.7 260h-.5v.4c0 .2.2.4.4.4h.1c.2 0 .4-.2.4-.4v-.4h-.4z"/>
      </defs>
      <clipPath id="SVGID_14_">
        <use xlink:href="#SVGID_13_" overflow="visible"/>
      </clipPath>
      <path class="st63" d="M207.1 259.6h1.2v1.4h-1.2z"/>
      <path class="st64" d="M207.246 259.577l.08-.06.94 1.296-.08.06z"/>
      <circle class="st62" cx="207.5" cy="260.5" r=".1"/>
      <path class="st58" d="M207.5 258v.2c0 .1-.1.2-.2.2h-.2c-.1 0-.2-.1-.2-.2v-.2l.2.1.2-.1.2.1v-.1z"/>
      <path class="st65" d="M207.7 258.2v.6c0 .2-.2.3-.3.3h-.3c-.2 0-.3-.2-.3-.3v-.6l.2.2.2-.2.2.2.3-.2z"/>
      <path class="st58" d="M207.9 258.4v.5c0 .3-.2.5-.5.5h-.4c-.3 0-.5-.2-.5-.5v-.5l.4.3.4-.3.4.3.2-.3z"/>
      <path class="st66" d="M206.9 260h.2v.3zm1 0h.2v.3z"/>
      <path class="st65" d="M207.6 258.7l-.4-.3v1h.2c.3 0 .5-.2.5-.5v-.5l-.3.3zm-.3-.6l-.2-.1v.4h.1c.1 0 .2 0 .2-.2v-.2l-.1.1z"/>
      <path class="st58" d="M206.9 258.4l-.2-.2v.6c0 .2.2.3.3.3h.1v-1l-.2.3z"/>
    </g>
  </g>
  <g id="Lamp_1_">
    <path class="st23" d="M99.6 245.3c-1.5 1-3.4.6-4.4-.8l5.3-3.6c1 1.4.6 3.4-.9 4.4z"/>
    <path class="st10" d="M70.8 247.5l.6.9.9 1.3.6.9 11 16.3c-2.8.7-4.8 2.4-5 4.5H95c-.3-2.5-3.1-4.4-6.8-4.8L76 248.5l14.3-9.7.6 8.5 9.6-6.4 4.3-2.9-9.4-4.6-3.5-5.1-5.1 3.5 2.3 3.5-18.3 12.2zm4.6.2l-.9-1.3 15.2-10.2.5.8.1.8-14.9 9.9zm-1.6 2.3l1.3-.9 11.8 17.4c-.6 0-1.3.1-1.9.1L73.8 250zm-1.5-2.2l1.3-.9.9 1.3-1.3.9-.9-1.3z"/>
  </g>
</svg>
