<svg xmlns="http://www.w3.org/2000/svg" width="320" height="412" viewBox="0 0 320 412">
  <style>
    .st0{fill:#C9F3FF;} .st1{fill:none;} .st2{opacity:0.34;fill:#A4A6A9;} .st3{fill:#DCB848;} .st4{fill:#88B74A;} .st5{fill:#95C95B;} .st6{fill:#BE9734;} .st7{fill:#7E9633;} .st8{fill:#6B7C25;} .st9{fill:#CAB384;} .st10{fill-rule:evenodd;clip-rule:evenodd;fill:#A7ECFF;} .st11{fill-rule:evenodd;clip-rule:evenodd;fill:#90489A;} .st12{fill:#FFFFFF;} .st13{fill-rule:evenodd;clip-rule:evenodd;fill:#FFFFFF;} .st14{fill:#3C3C3B;} .st15{fill:#EAE5D0;} .st16{fill:#507B93;} .st17{fill:#BE1622;} .st18{fill:#A31324;} .st19{fill:#E1D8BC;} .st20{fill:#683C11;} .st21{fill:#3B363A;} .st22{opacity:0.1;} .st23{fill:#B3B3B3;} .st24{fill:#009245;}
  </style>
  <path class="st0" d="M0 0h320v403H0z"/>
  <path class="st1" d="M1 351v-22h1v-16h4v16h3v-16h3v-7h4v7h2v-5h4v5h3v-2h3v2h2v9h6v-17h7v17h9v17h17v-19h7v19h5v-23h7v23h25v-11h5v-8h11v6h9v-10h10v-13h15v11h14v2h9v6h5v3h4v13.9l9-1.8V324h8v11.7l3-.7v-8h3v7.3l5-.9V323h3v9.8l14.9-2.9 7.1 20.7V326h4v-10h2v10h4v15h11v-10h17v10h6v-12h10v10h6v-10h3v10h2v-13h7v-53H0v78"/>
  <path class="st2" d="M313 339h-2v-10h-3v10h-6v-10h-10v12h-6v-10h-17v10h-11v-15h-4v-10h-2v10h-4v24.6l-7.1-20.7-14.9 2.9V323h-3v10.4l-5 .9V327h-3v8l-3 .7V324h-8v13.1l-9 1.8V325h-4v-3h-5v-6h-9v-2h-14v-11h-15v13h-10v10h-9v-6h-11v8h-5v11H88v-23h-7v23h-5v-19h-7v19H52v-17h-9v-17h-7v17h-6v-9h-2v-2h-3v2h-3v-5h-4v5h-2v-7h-4v7H9v16H6v-16H2v16H1v22H0v1h320v-26h-7"/>
  <g id="Tree_4_">
    <path class="st3" d="M37.2 352.5h-3.8c.7-1.5 1.1-6.4.6-7.8h2.5c-.4 1.4 0 6.3.7 7.8z"/>
    <path class="st4" d="M46.1 335.2c0 6-4.8 10.8-10.8 10.8-6 0-10.8-4.8-10.8-10.8 0-6 5.4-21.5 11.4-21.5s10.2 15.5 10.2 21.5z"/>
    <path class="st5" d="M37.1 313.9v.4c0 1.8-.4 3.7 0 5.5.3 1.3.7 2.7.7 4.1 0 1.5-.1 3-.9 4.3-.5.9-1.3 1.7-1.7 2.6-1.3 3 1 6.4.8 9.4-.1 1.7-.5 3.2-1.1 4.6-.2.4-.3.9-.5 1.3.3 0 .7.1 1 .1 6 0 10.8-4.8 10.8-10.8-.1-5.8-3.7-19.7-9.1-21.5z"/>
  </g>
  <g id="Tree_1_">
    <path class="st6" d="M21 352.5h-5.6c1.1-2.8 1.6-12.1.9-14.8H20c-.7 2.7 0 12 1 14.8z"/>
    <path class="st7" d="M32.4 329.3c0 7.8-6.4 14.2-14.2 14.2-7.8 0-14.2-6.4-14.2-14.2 0-7.8 7.2-28.3 15-28.3s13.4 20.5 13.4 28.3z"/>
    <path class="st8" d="M20.6 301.3v.5c-.1 2.4-.5 4.8 0 7.2.3 1.7.9 3.6.9 5.4 0 1.9-.2 3.9-1.2 5.6-.7 1.1-1.7 2.2-2.2 3.4-1.7 3.9 1.3 8.4 1.1 12.4-.1 2.2-.7 4.2-1.5 6.1-.2.6-.4 1.2-.7 1.7.4 0 .9.1 1.3.1 7.8 0 14.2-6.4 14.2-14.2-.1-7.5-4.9-25.8-11.9-28.2z"/>
  </g>
  <g id="Bush_3_">
    <path class="st4" d="M47.7 353h22.2c1.1-2.2 1.3-4 .5-4.5-.3-.2-.7-.4-1.2-.3 0-1.2-.3-2.3-1-2.6-.8-.3-2 .3-2.9 1.5-.2-3.6-1.9-6.4-4.1-6.4-1.7 0-3.2 1.8-3.8 4.3-.7-1.3-1.7-2.1-2.9-2.1-1.7 0-3.2 1.8-3.6 4.3-.7-1-1.6-1.5-2.4-1.2-1.3.4-1.8 3.1-1.1 5.7.1.3.2.2.3 1.3z"/>
    <path class="st5" d="M70.4 348.5c-.3-.2-.7-.4-1.2-.3 0-1.2-.3-2.3-1-2.6-.8-.3-2 .3-2.9 1.5-.2-3.6-2.2-6.4-4.3-6.4-.6 0-1 .2-2 .6V353h10.9c1.1-2.2 1.3-4 .5-4.5z"/>
  </g>
  <g id="Bush_2_">
    <path class="st7" d="M84.6 353c1.6-2.2 2.1-5 .9-5.9-.8-.6-2.2-.5-3.5.4.7-2.5.3-4.8-1.1-5.5-.9-.5-2.2-.3-3.4.6-.7-3.5-2.4-6-4.3-6-2.5 0-4.5 3.9-4.6 8.8-.8-.8-1.7-1.1-2.5-.8-1.1.4-1.6 2-1.4 3.9-1.2-.1-2.2.5-2.6 1.2-.5.8-.3 2.3.5 3.4h22z"/>
    <path class="st8" d="M85.5 347.1c-.8-.6-2.2-.5-3.5.4.7-2.5.3-4.8-1.1-5.5-.9-.5-2.4-.3-3.6.6-.6-3.3-2.3-5.8-4.3-6V353h11.6c1.6-2.2 2-5 .9-5.9z"/>
  </g>
  <path id="Ground_2_" class="st9" d="M0 352h320v60H0z"/>
  <circle class="st10" cx="160" cy="263.7" r="43.1"/>
  <g id="Icon_-_Cycling_1_">
    <circle class="st11" cx="206" cy="260.8" r="14.5"/>
    <path class="st12" d="M202.2 261c-.7 0-1.4.3-1.9.8s-.8 1.2-.8 1.9.3 1.4.8 1.9 1.1.8 1.9.8c.7 0 1.4-.3 1.9-.8s.8-1.2.8-1.9-.3-1.4-.8-1.9c-.6-.5-1.2-.8-1.9-.8zm1.5 4.3c-.4.4-.9.7-1.5.7s-1.1-.2-1.5-.7c-.4-.4-.6-1-.6-1.6 0-.6.2-1.1.6-1.6.4-.4.9-.7 1.5-.7s1.1.2 1.5.7c.4.4.6 1 .6 1.6 0 .6-.2 1.1-.6 1.6zm8.1-3.5c-.5-.5-1.1-.8-1.9-.8-.7 0-1.4.3-1.9.8s-.8 1.2-.8 1.9.3 1.4.8 1.9 1.1.8 1.9.8c.7 0 1.4-.3 1.9-.8s.8-1.2.8-1.9-.3-1.3-.8-1.9zm-.3 3.5c-.4.4-.9.7-1.5.7s-1.1-.2-1.5-.7c-.4-.4-.6-1-.6-1.6 0-.6.2-1.1.6-1.6.4-.4.9-.7 1.5-.7s1.1.2 1.5.7c.4.4.6 1 .6 1.6 0 .7-.2 1.2-.6 1.6zm-4.2-8.1c.3 0 .5-.1.7-.3.2-.2.3-.4.3-.7 0-.3-.1-.5-.3-.7-.2-.2-.4-.3-.7-.3-.3 0-.5.1-.7.3-.2.2-.3.4-.3.7 0 .3.1.5.3.7.2.1.4.3.7.3zm1.9 2.4c.2 0 .3-.1.4-.2.1-.1.1-.3 0-.4-.1-.1-.2-.2-.4-.2h-1.6l-1.1-1.7-.1-.1c0-.1-.1-.1-.2-.2s-.2-.1-.4-.1h-.3c-.1 0-.2.1-.3.2l-2.1 2.2c-.1.1-.2.3-.2.6s.1.6.4.7l2.2 1.2v2.3c0 .2.1.3.2.4.1.1.2.2.4.2s.3-.1.4-.2c.1-.1.2-.2.2-.4v-3c0-.1 0-.2-.1-.3l-.3-.3-1.2-.7 1.4-1.3.6 1c.1.2.2.3.4.3h1.7zm0 0"/>
  </g>
  <g id="Icon_-_Running_1_">
    <circle class="st11" cx="114" cy="261.3" r="14.5"/>
    <path class="st12" d="M108 264.3c-.4.1-.6.4-.5.8.1.3.3.5.7.5h.1l2.7-.5c.2 0 .3-.1.4-.2l1.2-1.5-.4-.2c-.3-.1-.5-.4-.6-.7l-1.1 1.4-2.5.4zm11.2-7.2c0 .8-.7 1.5-1.5 1.5s-1.5-.7-1.5-1.5.7-1.5 1.5-1.5 1.5.7 1.5 1.5zm-4.6-.4c-.2-.2-.3-.2-.5-.2h-.2l-2.5.6c-.3.1-.6.4-.5.8.1.3.3.5.6.5h.1l2.1-.5c.1.2.8.9 1 1-.9.9-1.8 1.9-2.6 2.8-.3.3-.2.8.2 1l.5.2 2.2 1.1-1.4 2.3c-.2.3-.1.7.2.9.1.1.2.1.3.1.2 0 .4-.1.6-.3l1.8-2.9c.1-.2.1-.4.1-.5-.1-.2-.2-.3-.3-.4l-1.8-.9 1.9-2.1 1.4 1.2c.1.1.3.2.4.2.2 0 .3-.1.4-.2l1.7-1.5c.3-.2.3-.6 0-.9-.1-.1-.3-.2-.5-.2s-.3.1-.4.2l-1.2 1.2s-3.1-2.9-3.6-3.5zm0 0"/>
  </g>
  <g id="Icon_-_walking_1_">
    <circle class="st11" cx="160" cy="216.3" r="14.5"/>
    <path class="st13" d="M164 216.4c.1-.3.1-.6-.2-.8-1.2-.8-1.6-1.3-2.1-2-.2-.3-.5-.6-.8-.9l-.1-.1c-.1-.1-.3-.2-.4-.3 0 0-.2-.1-.3-.1h-.7c-1.2.2-2.4 1.1-3.8 2.8-.2.3-.2.6.1.9.1.1.2.1.4.1s.4-.1.5-.2c.6-.7 1.1-1.2 1.6-1.6l-.5 2.3c-.1.3 0 .6.2.9l-.2 2.4-1 2.6c-.2.4 0 .8.4 1 .1 0 .2.1.3.1.3 0 .6-.2.7-.5l1-2.7c0-.1 0-.1.1-.2l.1-1.4.9 1.4.8 2.8c.1.3.4.6.7.6h.2c.4-.1.7-.5.5-.9l-.8-2.9c0-.1-.1-.1-.1-.2l-1.3-2c0-.1.1-.2.1-.3l.5-2.4c.5.6 1 1.2 2.2 1.9.1.1.2.1.3.1.1 0 .2 0 .3-.1m-1.3-6c0 .9-.7 1.6-1.6 1.6-.9 0-1.6-.7-1.6-1.6 0-.9.7-1.6 1.6-1.6.9 0 1.6.7 1.6 1.6zm0 0"/>
  </g>
  <path class="st14" d="M161.4 321.7h5.9V368h-5.9z"/>
  <path class="st14" d="M176.1 368.9c-2.7-3.8-10.6-4.2-10.6-4.2h-3.2l-.9 3.5c0 .1 14.6 1 14.7.7zM152 321.7h5.9V368H152z"/>
  <path class="st14" d="M143.9 368.9c2.7-3.8 10.6-4.2 10.6-4.2h3.2l.9 3.5c.1.1-14.6 1-14.7.7z"/>
  <path class="st15" d="M171.383 297.53l5.8-1.89 9.95 30.517-5.8 1.89z"/>
  <path class="st16" d="M169.316 292.984l6.75-2.2 9.95 30.517-6.75 2.206z"/>
  <ellipse transform="rotate(-60.35 172.888 292.335)" class="st16" cx="172.9" cy="292.4" rx="3.6" ry="3.6"/>
  <path class="st15" d="M132.822 326.375l9.232-30.746 5.842 1.75-9.232 30.745z"/>
  <path class="st16" d="M133.727 321.415l9.232-30.746 6.8 2.04-9.236 30.743z"/>
  <ellipse transform="rotate(-25.578 146.236 292.254)" class="st16" cx="146.2" cy="292.2" rx="3.6" ry="3.6"/>
  <path class="st16" d="M145.5 290.2H174v28.4h-28.5z"/>
  <path class="st14" d="M145.5 316.8H174v9.2h-28.5z"/>
  <path class="st17" d="M145.5 298.2v-9.3H174v9.3l-14.2 9.7"/>
  <path class="st18" d="M145.5 298.2v-9.3h14.3v19"/>
  <ellipse class="st15" cx="173.8" cy="274.1" rx="2.7" ry="2.8"/>
  <path class="st15" d="M174 285.8c0 6.5-6.2 11.7-14 11.7h-.6c-7.7 0-14-5.2-14-11.7v-20.5c0-6.5 6.2-11.7 14-11.7h.6c7.7 0 14 5.2 14 11.7v20.5z"/>
  <path class="st19" d="M159.4 297.5c-7.7 0-14-5.2-14-11.7v-20.5c0-6.5 6.2-11.7 14-11.7v43.9z"/>
  <ellipse class="st19" cx="145.4" cy="274" rx="2.7" ry="2.8"/>
  <path class="st20" d="M159.7 249c-3.9.3-15.8.2-15.8 12.8 0 3 .9 9.5.9 9.5s1.4 0 1.9 1.7l.8-.1s1.1-.2.8-3c0-.6.3-5.9.4-7.6.2-2.8 3.5-1.4 4.6-1.1 1.4.4 3.4.8 5.9.8 2.5 0 4.6-.4 6.1-.8 1-.3 5-2.6 4.8 1.1-.1 1.1.4 6.9.4 7.6 0 2.6.9 3 .9 3l.9.1c.5-1.7 2-1.7 2-1.7s1-6.5 1-9.5c.2-12.6-11.5-12.7-15.6-12.8z"/>
  <path class="st21" d="M168.8 280.6c0-.3-.2-.5-.5-.5h-5.7c-.3 0-.5.2-.5.5h6.7z"/>
  <path class="st21" d="M166.9 280.2v-3.5c0-.7-.6-1.3-1.4-1.3-.8 0-1.4.6-1.4 1.3v3.5h2.8z"/>
  <path class="st12" d="M165.9 277.7c0 .1-.1.2-.2.2s-.2-.1-.2-.2v-1c0-.1.1-.2.2-.2s.2.1.2.2v1z"/>
  <path class="st20" d="M162.1 272.6h6.7v1h-6.7zm-12.3 0h6.7v1h-6.7z"/>
  <path class="st21" d="M156.5 280.5c0-.3-.2-.5-.5-.5h-5.7c-.3 0-.5.2-.5.5h6.7z"/>
  <path class="st21" d="M154.7 280.2v-3.5c0-.7-.6-1.3-1.4-1.3-.8 0-1.4.6-1.4 1.3v3.5h2.8z"/>
  <path class="st12" d="M153.7 277.8c0 .1-.1.2-.2.2s-.2-.1-.2-.2v-1c0-.1.1-.2.2-.2s.2.1.2.2v1z"/>
  <ellipse class="st22" cx="160" cy="368.3" rx="39.7" ry="8.7"/>
  <g id="Phone_1_">
    <path d="M189.7 318.4l-5.1-2.1c-.5-.2-1 0-1.2.5l-4.2 10.4c-.2.5 0 1 .5 1.2l5.1 2.1c.5.2 1 0 1.2-.5l4.2-10.4c.2-.4 0-1-.5-1.2zm-4-1l2.5 1c.1 0 .1.1 0 .3 0 .1-.1.2-.2.2l-2.5-1c-.1 0-.1-.1 0-.3 0-.2.1-.2.2-.2zm-3.2 11.2c-.3-.1-.5-.5-.3-.8.1-.3.5-.5.8-.3.3.1.5.5.3.8-.1.3-.5.4-.8.3zm3.6-.8l-5.5-2.3 3.2-7.8 5.5 2.3-3.2 7.8zm0 0"/>
    <path class="st23" d="M180.588 325.55l3.218-7.868 5.554 2.272-3.22 7.868z"/>
  </g>
  <path id="Signal_1_" class="st24" d="M193 310.4l.7-1.4c5.5 2.7 7.8 9.4 5.1 14.9l-1.5-.7c2.4-4.8.5-10.5-4.3-12.8zm3.4 12.2c2-4.1.3-9.2-3.8-11.2l-.7 1.4c3.3 1.6 4.7 5.7 3.1 9l1.4.8zm-5.8-7.1c1.9.9 2.7 3.3 1.8 5.2l1.4.7c1.3-2.7.2-6-2.5-7.3l-.7 1.4z"/>
</svg>
