<svg xmlns="http://www.w3.org/2000/svg" xmlns:xlink="http://www.w3.org/1999/xlink" width="320" height="412" viewBox="0 0 320 412">
  <style>
    .st0{fill:#C9F3FF;} .st1{fill:none;} .st2{opacity:0.34;fill:#A4A6A9;enable-background:new ;} .st3{fill:#DCB848;} .st4{fill:#88B74A;} .st5{fill:#95C95B;} .st6{fill:#BE9734;} .st7{fill:#7E9633;} .st8{fill:#6B7C25;} .st9{fill:#CAB384;} .st10{fill:#FFFFFF;} .st11{fill:#736357;} .st12{fill:#998675;} .st13{opacity:0.2;enable-background:new ;} .st14{enable-background:new ;} .st15{fill:#FAC73E;} .st16{fill:#5E5D5D;} .st17{opacity:0.15;enable-background:new ;} .st18{fill:url(#SVGID_13_);} .st19{fill:#F4BA18;} .st20{fill:url(#SVGID_14_);} .st21{fill:#FBEF66;} .st22{clip-path:url(#SVGID_16_);fill:#FBEF66;} .st23{clip-path:url(#SVGID_18_);fill:#FBEF66;} .st24{fill:#D2BC2D;} .st25{clip-path:url(#SVGID_20_);fill:#D2BC2D;} .st26{clip-path:url(#SVGID_24_);fill:#D2BC2D;} .st27{clip-path:url(#SVGID_26_);fill:#D2BC2D;} .st28{clip-path:url(#SVGID_28_);fill:#D2BC2D;} .st29{clip-path:url(#SVGID_30_);fill:#FBEF66;} .st30{clip-path:url(#SVGID_32_);fill:#FBEF66;} .st31{clip-path:url(#SVGID_34_);fill:#FBEF66;} .st32{fill:#41B166;} .st33{fill:#2B944E;} .st34{clip-path:url(#SVGID_36_);fill:#A04630;} .st35{clip-path:url(#SVGID_38_);fill:#722A1E;} .st36{fill:#404041;} .st37{clip-path:url(#SVGID_40_);fill:#404041;} .st38{clip-path:url(#SVGID_42_);fill:#FFFFFF;} .st39{fill:#58595B;} .st40{fill:none;stroke:#404041;stroke-width:4.5229;stroke-linecap:round;stroke-linejoin:round;stroke-miterlimit:10;} .st41{fill:#1A1A1A;} .st42{fill:url(#SVGID_43_);} .st43{fill:#91BAD7;} .st44{fill:url(#SVGID_44_);} .st45{clip-path:url(#SVGID_46_);fill:#A04630;} .st46{clip-path:url(#SVGID_48_);fill:#722A1E;} .st47{clip-path:url(#SVGID_50_);fill:#58595B;} .st48{clip-path:url(#SVGID_52_);fill:#404041;} .st49{clip-path:url(#SVGID_54_);fill:#404041;} .st50{clip-path:url(#SVGID_56_);fill:#F27246;} .st51{clip-path:url(#SVGID_58_);fill:#D45D3A;} .st52{clip-path:url(#SVGID_60_);fill:#58595B;} .st53{clip-path:url(#SVGID_62_);fill:#404041;} .st54{clip-path:url(#SVGID_64_);fill:#F27246;} .st55{clip-path:url(#SVGID_66_);fill:#D45D3A;} .st56{clip-path:url(#SVGID_68_);fill:#404041;} .st57{clip-path:url(#SVGID_70_);fill:#58595B;} .st58{clip-path:url(#SVGID_72_);fill:#404041;} .st59{clip-path:url(#SVGID_74_);fill:#58595B;} .st60{clip-path:url(#SVGID_76_);fill:#F27246;} .st61{clip-path:url(#SVGID_78_);fill:#D45D3A;} .st62{fill:#A04630;} .st63{fill:url(#SVGID_79_);} .st64{fill:#E07B3A;} .st65{fill:url(#SVGID_80_);} .st66{clip-path:url(#SVGID_82_);fill:#FBEF66;} .st67{clip-path:url(#SVGID_84_);fill:#D2BC2D;} .st68{fill:none;stroke:#404041;stroke-width:4.8792;stroke-linecap:round;stroke-linejoin:round;stroke-miterlimit:10;} .st69{clip-path:url(#SVGID_86_);fill:#1A1A1A;} .st70{display:none;opacity:0.4;clip-path:url(#SVGID_88_);fill:#FFFFFF;enable-background:new ;} .st71{clip-path:url(#SVGID_90_);fill:#231F20;} .st72{display:none;opacity:0.4;clip-path:url(#SVGID_92_);fill:#FFFFFF;enable-background:new ;} .st73{opacity:0.4;fill:#FFFFFF;enable-background:new ;} .st74{fill:url(#SVGID_93_);} .st75{fill:url(#SVGID_94_);} .st76{clip-path:url(#SVGID_96_);fill:#FBEF66;} .st77{clip-path:url(#SVGID_98_);fill:#FBEF66;} .st78{clip-path:url(#SVGID_100_);fill:#D2BC2D;} .st79{clip-path:url(#SVGID_102_);fill:#D2BC2D;} .st80{clip-path:url(#SVGID_104_);fill:#D2BC2D;} .st81{clip-path:url(#SVGID_106_);fill:#D2BC2D;} .st82{clip-path:url(#SVGID_108_);fill:#FBEF66;} .st83{clip-path:url(#SVGID_110_);fill:#FBEF66;} .st84{clip-path:url(#SVGID_112_);fill:#FBEF66;} .st85{clip-path:url(#SVGID_114_);fill:#A04630;} .st86{clip-path:url(#SVGID_116_);fill:#722A1E;} .st87{clip-path:url(#SVGID_118_);fill:#404041;} .st88{clip-path:url(#SVGID_120_);fill:#FFFFFF;} .st89{fill:url(#SVGID_121_);} .st90{fill:url(#SVGID_122_);} .st91{clip-path:url(#SVGID_124_);fill:#A04630;} .st92{clip-path:url(#SVGID_126_);fill:#722A1E;} .st93{clip-path:url(#SVGID_128_);fill:#58595B;} .st94{clip-path:url(#SVGID_130_);fill:#404041;} .st95{clip-path:url(#SVGID_132_);fill:#404041;} .st96{clip-path:url(#SVGID_134_);fill:#F27246;} .st97{clip-path:url(#SVGID_136_);fill:#D45D3A;} .st98{clip-path:url(#SVGID_138_);fill:#58595B;} .st99{clip-path:url(#SVGID_140_);fill:#404041;} .st100{clip-path:url(#SVGID_142_);fill:#F27246;} .st101{clip-path:url(#SVGID_144_);fill:#D45D3A;} .st102{clip-path:url(#SVGID_146_);fill:#404041;} .st103{clip-path:url(#SVGID_148_);fill:#58595B;} .st104{clip-path:url(#SVGID_150_);fill:#404041;} .st105{clip-path:url(#SVGID_152_);fill:#58595B;} .st106{clip-path:url(#SVGID_154_);fill:#F27246;} .st107{clip-path:url(#SVGID_156_);fill:#D45D3A;} .st108{fill:url(#SVGID_157_);} .st109{fill:url(#SVGID_158_);} .st110{clip-path:url(#SVGID_160_);fill:#FBEF66;} .st111{clip-path:url(#SVGID_162_);fill:#D2BC2D;} .st112{clip-path:url(#SVGID_164_);fill:#1A1A1A;} .st113{display:none;opacity:0.4;clip-path:url(#SVGID_166_);fill:#FFFFFF;enable-background:new ;} .st114{clip-path:url(#SVGID_168_);fill:#231F20;} .st115{display:none;opacity:0.4;clip-path:url(#SVGID_170_);fill:#FFFFFF;enable-background:new ;}
  </style>
  <path class="st0" d="M0 0h320v403H0V0z"/>
  <path class="st1" d="M1 351v-22h1v-16h4v16h3v-16h3v-7h4v7h2v-5h4v5h3v-2h3v2h2v9h6v-17h7v17h9v17h17v-19h7v19h5v-23h7v23h25v-11h5v-8h11v6h9v-10h10v-13h15v11h14v2h9v6h5v3h4v13.9l9-1.8V324h8v11.7l3-.7v-8h3v7.3l5-.9V323h3v9.8l14.9-2.9 7.1 20.7V326h4v-10h2v10h4v15h11v-10h17v10h6v-12h10v10h6v-10h3v10h2v-13h7v-53H0v78"/>
  <path class="st2" d="M313 339h-2v-10h-3v10h-6v-10h-10v12h-6v-10h-17v10h-11v-15h-4v-10h-2v10h-4v24.6l-7.1-20.7-14.9 2.9V323h-3v10.4l-5 .9V327h-3v8l-3 .7V324h-8v13.1l-9 1.8V325h-4v-3h-5v-6h-9v-2h-14v-11h-15v13h-10v10h-9v-6h-11v8h-5v11H88v-23h-7v23h-5v-19h-7v19H52v-17h-9v-17h-7v17h-6v-9h-2v-2h-3v2h-3v-5h-4v5h-2v-7h-4v7H9v16H6v-16H2v16H1v22H0v1h320v-26h-7"/>
  <path class="st3" d="M37.2 352.5h-3.8c.7-1.5 1.1-6.4.6-7.8h2.5c-.4 1.4 0 6.3.7 7.8z"/>
  <path class="st4" d="M46.1 335.2c0 6-4.8 10.8-10.8 10.8s-10.8-4.8-10.8-10.8 5.4-21.5 11.4-21.5 10.2 15.5 10.2 21.5z"/>
  <path class="st5" d="M37.1 313.9v.4c0 1.8-.4 3.7 0 5.5.3 1.3.7 2.7.7 4.1 0 1.5-.1 3-.9 4.3-.5.9-1.3 1.7-1.7 2.6-1.3 3 1 6.4.8 9.4-.1 1.7-.5 3.2-1.1 4.6-.2.4-.3.9-.5 1.3.3 0 .7.1 1 .1 6 0 10.8-4.8 10.8-10.8-.1-5.8-3.7-19.7-9.1-21.5z"/>
  <path class="st6" d="M21 352.5h-5.6c1.1-2.8 1.6-12.1.9-14.8H20c-.7 2.7 0 12 1 14.8z"/>
  <path class="st7" d="M32.4 329.3c0 7.8-6.4 14.2-14.2 14.2S4 337.1 4 329.3c0-7.8 7.2-28.3 15-28.3s13.4 20.5 13.4 28.3z"/>
  <path class="st8" d="M20.6 301.3v.5c-.1 2.4-.5 4.8 0 7.2.3 1.7.9 3.6.9 5.4 0 1.9-.2 3.9-1.2 5.6-.7 1.1-1.7 2.2-2.2 3.4-1.7 3.9 1.3 8.4 1.1 12.4-.1 2.2-.7 4.2-1.5 6.1-.2.6-.4 1.2-.7 1.7.4 0 .9.1 1.3.1 7.8 0 14.2-6.4 14.2-14.2-.1-7.5-4.9-25.8-11.9-28.2z"/>
  <g id="Bush_4_">
    <path class="st4" d="M47.7 353h22.2c1.1-2.2 1.3-4 .5-4.5-.3-.2-.7-.4-1.2-.3 0-1.2-.3-2.3-1-2.6-.8-.3-2 .3-2.9 1.5-.2-3.6-1.9-6.4-4.1-6.4-1.7 0-3.2 1.8-3.8 4.3-.7-1.3-1.7-2.1-2.9-2.1-1.7 0-3.2 1.8-3.6 4.3-.7-1-1.6-1.5-2.4-1.2-1.3.4-1.8 3.1-1.1 5.7.1.3.2.2.3 1.3z"/>
    <path class="st5" d="M70.4 348.5c-.3-.2-.7-.4-1.2-.3 0-1.2-.3-2.3-1-2.6-.8-.3-2 .3-2.9 1.5-.2-3.6-2.2-6.4-4.3-6.4-.6 0-1 .2-2 .6V353h10.9c1.1-2.2 1.3-4 .5-4.5z"/>
  </g>
  <g id="Bush_3_">
    <path class="st7" d="M84.6 353c1.6-2.2 2.1-5 .9-5.9-.8-.6-2.2-.5-3.5.4.7-2.5.3-4.8-1.1-5.5-.9-.5-2.2-.3-3.4.6-.7-3.5-2.4-6-4.3-6-2.5 0-4.5 3.9-4.6 8.8-.8-.8-1.7-1.1-2.5-.8-1.1.4-1.6 2-1.4 3.9-1.2-.1-2.2.5-2.6 1.2-.5.8-.3 2.3.5 3.4h22v-.1z"/>
    <path class="st8" d="M85.5 347.1c-.8-.6-2.2-.5-3.5.4.7-2.5.3-4.8-1.1-5.5-.9-.5-2.4-.3-3.6.6-.6-3.3-2.3-5.8-4.3-6V353h11.6c1.6-2.2 2-5 .9-5.9z"/>
  </g>
  <path class="st9" d="M0 352h320v60H0v-60z"/>
  <g id="Scoreboard_2_">
    <path class="st10" d="M280 327.7h-77v-76c0-2.7 2.2-4.9 4.9-4.9h67.3c2.7 0 4.9 2.2 4.9 4.9v76h-.1z"/>
    <path class="st11" d="M272.1 264.3H211c-1.6 0-2.9 1.3-2.9 2.9v23.4c1.6 0 2.9 1.3 2.9 2.9h61.1c0-1.6 1.3-2.9 2.9-2.9v-23.4c0-1.6-1.3-2.9-2.9-2.9zm0 29.8H211c0 1.6-1.3 2.9-2.9 2.9v23.4c0 1.6 1.3 2.9 2.9 2.9h61.1c1.6 0 2.9-1.3 2.9-2.9V297c-1.6 0-2.9-1.3-2.9-2.9z"/>
    <path class="st12" d="M210.8 293.6h61.3v.5h-61.3v-.5z"/>
    <path d="M231 298.1l1.9-18.1h17.3v4.7h-12.7l-1 8.2c.6-.5 1.4-.9 2.2-1.2.8-.3 1.8-.5 2.9-.5 3.1 0 5.5.9 7.2 2.9 1.7 2 2.6 4.7 2.6 8.1 0 3.2-.9 5.8-2.7 7.9-1.8 2-4.5 3.1-7.9 3.1-2.9 0-5.3-.8-7.3-2.4-2-1.6-2.9-3.8-2.9-6.7v-.1l5.1-.2c0 1.6.5 2.8 1.4 3.7.9.9 2.1 1.3 3.6 1.3 1.7 0 3-.6 3.9-1.8.9-1.2 1.3-2.8 1.3-4.7 0-2-.5-3.6-1.4-4.8-.9-1.2-2.2-1.9-3.9-1.9-1.5 0-2.6.2-3.3.7s-1.3 1.2-1.6 2.1l-4.7-.3z" class="st13"/>
    <path class="st14 st15" d="M231 295.1l1.9-18.1h17.3v4.7h-12.7l-1 8.2c.6-.5 1.4-.9 2.2-1.2.8-.3 1.8-.5 2.9-.5 3.1 0 5.5.9 7.2 2.9 1.7 2 2.6 4.7 2.6 8.1 0 3.2-.9 5.8-2.7 7.9-1.8 2-4.5 3.1-7.9 3.1-2.9 0-5.3-.8-7.3-2.4-2-1.6-2.9-3.8-2.9-6.7v-.1l5.1-.2c0 1.6.5 2.8 1.4 3.7.9.9 2.1 1.3 3.6 1.3 1.7 0 3-.6 3.9-1.8.9-1.2 1.3-2.8 1.3-4.7 0-2-.5-3.6-1.4-4.8-.9-1.2-2.2-1.9-3.9-1.9-1.5 0-2.6.2-3.3.7s-1.3 1.2-1.6 2.1l-4.7-.3z"/>
    <path class="st14 st16" d="M215.9 257.6h-1.6l-.3 1h-.7l1.5-4.2h.7l1.5 4.2h-.7l-.4-1zm-1.4-.6h1.2l-.6-1.8-.6 1.8zm2.7 0c0-.5.1-.9.3-1.2.2-.3.5-.5.9-.5.2 0 .3 0 .4.1l.3.3V254h.7v4.5h-.6l-.1-.4c-.1.1-.2.3-.4.3s-.3.1-.5.1c-.4 0-.7-.1-.9-.4 0-.2-.1-.6-.1-1.1zm.7.1c0 .3.1.5.2.7.1.2.3.3.5.3.1 0 .3 0 .4-.1s.2-.2.2-.3v-1.3c-.1-.1-.1-.2-.3-.3-.1-.1-.2-.1-.4-.1s-.4.1-.5.3-.1.4-.1.8zm3.8.4l.1.3.1-.3.6-2h.7l-1.1 3.1h-.6l-1.1-3.1h.7l.6 2zm3.2 1.1c-.4 0-.8-.1-1-.4-.3-.3-.4-.7-.4-1.1v-.1c0-.4.1-.8.4-1.1.3-.3.6-.4 1-.4s.7.1 1 .4.3.6.3 1v.4h-1.9c0 .2.1.4.2.6.1.2.3.2.5.2s.3 0 .5-.1c.1 0 .3-.1.4-.2l.2.5c-.1.1-.3.2-.5.3h-.7zm-.1-2.7c-.2 0-.3.1-.4.2s-.2.3-.2.5h1.2v-.1c0-.2 0-.4-.2-.5 0 0-.2-.1-.4-.1zm2.5-.5v.4c.1-.2.2-.3.4-.4.2-.1.3-.1.5-.1.3 0 .6.1.8.3.2.2.3.5.3.9v1.9h-.7v-1.9c0-.2 0-.4-.1-.5-.1-.1-.2-.1-.4-.1-.1 0-.3 0-.4.1-.1.1-.2.1-.3.2v2.2h-.7v-3.1h.6zm3.5-.7v.8h.6v.5h-.6v1.7c0 .1 0 .2.1.3.1.1.1.1.2.1h.2l.1.5c-.1 0-.1.1-.2.1h-.3c-.3 0-.5-.1-.6-.2s-.2-.4-.2-.7V256h-.5v-.5h.5v-.8h.7zm3.1 3.4c-.1.2-.2.3-.4.4-.1.1-.3.1-.5.1-.3 0-.6-.1-.8-.3-.2-.2-.3-.5-.3-1v-1.8h.7v1.9c0 .3 0 .5.1.6s.2.2.4.2.3 0 .4-.1c.1-.1.2-.1.3-.3v-2.2h.7v3.1h-.5l-.1-.6zm3-2h-.3c-.1 0-.2 0-.3.1-.1.1-.2.1-.2.2v2.1h-.7v-3.1h.6v.4c.1-.2.2-.3.3-.4.1-.1.3-.1.4-.1h.2v.8zm1.8 2.5c-.4 0-.8-.1-1-.4-.3-.3-.4-.7-.4-1.1v-.1c0-.4.1-.8.4-1.1.3-.3.6-.4 1-.4s.7.1 1 .4c.2.3.3.6.3 1v.4h-2c0 .2.1.4.2.6.1.2.3.2.5.2s.3 0 .5-.1c.1 0 .3-.1.4-.2l.2.5c-.1.1-.3.2-.5.3h-.6zm-.1-2.7c-.2 0-.3.1-.4.2s-.2.3-.2.5h1.2v-.1c0-.2 0-.4-.1-.5s-.3-.1-.5-.1zm6 1.2c0 .4-.1.8-.3 1.1-.2.3-.5.4-.9.4-.2 0-.3 0-.5-.1-.1-.1-.3-.2-.3-.3v1.5h-.7v-4.3h.6l.1.4c.1-.1.2-.3.4-.3s.3-.1.5-.1c.4 0 .7.2.9.5.1.2.2.6.2 1.2zm-.7-.1c0-.3-.1-.6-.2-.8-.1-.2-.3-.3-.5-.3-.1 0-.3 0-.4.1-.1.1-.2.1-.2.3v1.4c.1.1.1.2.2.2.1.1.2.1.4.1s.4-.1.5-.3.2-.3.2-.7zm1.2 0c0-.5.1-.8.4-1.1.3-.3.6-.4 1-.4s.8.1 1 .4c.3.3.4.7.4 1.1v.1c0 .5-.1.8-.4 1.1-.3.3-.6.4-1 .4s-.8-.1-1-.4c-.3-.3-.4-.7-.4-1.2zm.7 0c0 .3.1.5.2.7.1.2.3.3.5.3s.4-.1.5-.3c.1-.2.2-.4.2-.7 0-.3-.1-.5-.2-.7-.1-.2-.3-.3-.5-.3s-.4.1-.5.3c-.2.1-.2.4-.2.7zm3.5-2.3h-.7v-.6h.7v.6zm0 3.8h-.7v-3.1h.7v3.1zm1.4-3.1v.4c.1-.2.2-.3.4-.4.2-.1.3-.1.5-.1.3 0 .6.1.8.3.2.2.3.5.3.9v1.9h-.7v-1.9c0-.2 0-.4-.1-.5-.1-.1-.2-.1-.4-.1-.1 0-.3 0-.4.1-.1.1-.2.1-.3.2v2.2h-.8v-3.1h.7zm3.5-.7v.8h.6v.5h-.6v1.7c0 .1 0 .2.1.3.1.1.1.1.2.1h.2l.1.5c-.1 0-.1.1-.2.1h-.3c-.3 0-.5-.1-.6-.2s-.2-.4-.2-.7V256h-.5v-.5h.5v-.8h.7zm2.9 3c0-.1 0-.2-.1-.3-.1-.1-.3-.1-.5-.2-.4-.1-.6-.2-.8-.3s-.3-.3-.3-.6.1-.5.3-.7c.2-.2.5-.3.9-.3s.7.1.9.3.3.4.3.7h-.7c0-.1 0-.2-.1-.3-.1-.1-.2-.1-.4-.1s-.3 0-.4.1-.1.2-.1.3c0 .1 0 .2.1.3.1.1.2.1.5.2.4.1.7.2.9.3s.3.3.3.6-.1.5-.3.7c-.2.2-.5.3-.9.3s-.7-.1-1-.3c-.2-.2-.3-.4-.3-.7h.6c0 .2.1.3.2.4.1.1.3.1.4.1.2 0 .3 0 .4-.1.1-.2.1-.3.1-.4z"/>
    <path class="st12" d="M213 328h3v24h-3v-24zm54 0h3v24h-3v-24z"/>
    <circle class="st12" cx="270.3" cy="268.3" r="1"/>
    <circle class="st12" cx="212.3" cy="268.3" r="1"/>
    <circle class="st12" cx="270.3" cy="319.4" r="1"/>
    <circle class="st12" cx="212.3" cy="319.4" r="1"/>
  </g>
  <g id="Badge_6_">
    <path id="Shadow_6_" class="st17" d="M210 250.1c0-7.9-2.4-15.8-6.8-22.4-4.3-6.4-10.4-11.5-17.5-14.6-7.5-3.2-15.7-4-23.7-2.5-7.7 1.5-14.8 5.3-20.3 10.7-11.5 11.2-15.2 28.8-9.2 43.7 2.9 7.2 7.9 13.4 14.2 18 6.4 4.6 14.3 7.1 22.2 7.3 15.9.4 31-9 37.6-23.5 2.3-5.1 3.5-10.9 3.5-16.7"/>
    <linearGradient id="SVGID_13_" gradientUnits="userSpaceOnUse" x1="170.1" y1="200.5" x2="170.1" y2="127.7" gradientTransform="matrix(1 0 0 -1 0 414)">
      <stop offset=".381" stop-color="#FFF"/>
      <stop offset="1" stop-color="#E6E7E8"/>
    </linearGradient>
    <circle class="st18" cx="170.1" cy="249.9" r="36.4"/>
    <path class="st10" d="M169.9 287.3c9.1 0 17.2-4 22.8-10.2-5.6-6.3-13.8-10.2-22.8-10.2s-17.2 4-22.8 10.2c5.6 6.3 13.8 10.2 22.8 10.2z"/>
    <path class="st19" d="M207.4 250.1c0 7.8-2.5 15.4-7 21.8-4.3 6.2-10.6 10.9-17.7 13.5-7.4 2.7-15.7 3-23.3.9-7.4-2.1-13.9-6.4-18.8-12.3-10.1-12.2-11.2-29.9-3.1-43.4 3.9-6.5 9.8-11.7 16.7-14.8 7.1-3.3 15.3-4.1 23-2.5 7.5 1.5 14.4 5.4 19.7 10.9s8.8 12.7 10 20.3c.4 1.8.5 3.7.5 5.6 0 1.7 2.6 1.7 2.6 0 0-7.9-2.4-15.8-6.8-22.4-4.3-6.4-10.4-11.5-17.5-14.6-7.5-3.2-15.7-4-23.7-2.5-7.7 1.5-14.8 5.3-20.3 10.7-11.5 11.2-15.2 28.8-9.2 43.7 2.9 7.2 7.9 13.4 14.2 18 6.4 4.6 14.3 7.1 22.2 7.3 15.9.4 31-9 37.6-23.5 2.4-5.3 3.6-11 3.7-16.8-.2-1.5-2.8-1.5-2.8.1z"/>
    <linearGradient id="SVGID_14_" gradientUnits="userSpaceOnUse" x1="169.948" y1="201.768" x2="169.948" y2="125.887" gradientTransform="matrix(1 0 0 -1 0 414)">
      <stop offset="0" stop-color="#F4BA18"/>
      <stop offset=".755" stop-color="#CC8229"/>
      <stop offset="1" stop-color="#B56027"/>
    </linearGradient>
    <path class="st20" d="M205.4 250.1c0 7.4-2.3 14.5-6.6 20.6-4.1 5.8-10 10.3-16.7 12.8-7 2.6-14.8 2.8-22 .8-6.9-1.9-13.1-6.1-17.7-11.6-9.6-11.5-10.6-28.2-2.9-41 3.7-6.1 9.3-11 15.8-14 6.7-3.1 14.5-3.9 21.7-2.4 7.1 1.4 13.6 5.1 18.6 10.3s8.3 12 9.4 19.1c.3 1.8.4 3.6.4 5.4 0 1.6 2.5 1.6 2.5 0 0-7.5-2.2-14.9-6.4-21.1-4-6-9.8-10.9-16.5-13.7-7-3-14.8-3.8-22.4-2.4-7.2 1.4-13.9 5-19.2 10.1-10.9 10.6-14.4 27.2-8.7 41.3 2.7 6.8 7.4 12.7 13.4 16.9 6.1 4.3 13.5 6.7 20.9 6.9 15 .4 29.2-8.5 35.4-22.1 2.3-5 3.4-10.4 3.4-15.8.1-1.7-2.4-1.7-2.4-.1z"/>
    <path id="SVGID_12_" class="st21" d="M152.5 269.4c0 .3.1.7.4.9.5.5 1.3.5 1.8-.1l10.1-10.7c.5-.5.5-1.3-.1-1.8-.5-.5-1.3-.5-1.8.1l-10.1 10.7c-.2.3-.3.6-.3.9z"/>
    <defs>
      <path id="SVGID_15_" d="M152.5 269.4c0 .3.1.7.4.9.5.5 1.3.5 1.8-.1l10.1-10.7c.5-.5.5-1.3-.1-1.8-.5-.5-1.3-.5-1.8.1l-10.1 10.7c-.2.3-.3.6-.3.9z"/>
    </defs>
    <clipPath id="SVGID_16_">
      <use xlink:href="#SVGID_15_" overflow="visible"/>
    </clipPath>
    <path class="st22" d="M148.5 267.5l15-13.5 5.8 6.5-15 13.5-5.8-6.5z"/>
    <defs>
      <path id="SVGID_17_" d="M152.5 269.4c0 .3.1.7.4.9.5.5 1.3.5 1.8-.1l10.1-10.7c.5-.5.5-1.3-.1-1.8-.5-.5-1.3-.5-1.8.1l-10.1 10.7c-.2.3-.3.6-.3.9z"/>
    </defs>
    <clipPath id="SVGID_18_">
      <use xlink:href="#SVGID_17_" overflow="visible"/>
    </clipPath>
    <path class="st23" d="M148.5 267.5l15-13.5 5.8 6.5-15 13.5-5.8-6.5z"/>
    <path id="SVGID_10_" class="st24" d="M173.9 266.4c.1-.1.3-.2.6-.2.4 0 .8.3.8.7v7.6c0 .4-.4.7-.8.7s-.8-.3-.8-.7v-7.6c-.1-.3 0-.4.2-.5z"/>
    <defs>
      <path id="SVGID_19_" d="M173.9 266.4c.1-.1.3-.2.6-.2.4 0 .8.3.8.7v7.6c0 .4-.4.7-.8.7s-.8-.3-.8-.7v-7.6c-.1-.3 0-.4.2-.5z"/>
    </defs>
    <clipPath id="SVGID_20_">
      <use xlink:href="#SVGID_19_" overflow="visible"/>
    </clipPath>
    <path class="st25" d="M177.6 275.6l-5.4.3-1-10.3 5.4-.3 1 10.3z"/>
    <defs>
      <path id="SVGID_22_" d="M173.9 266.4c.1-.1.3-.2.6-.2.4 0 .8.3.8.7v7.6c0 .4-.4.7-.8.7s-.8-.3-.8-.7v-7.6c-.1-.3 0-.4.2-.5z"/>
    </defs>
    <clipPath id="SVGID_24_">
      <use xlink:href="#SVGID_22_" overflow="visible"/>
    </clipPath>
    <path class="st26" d="M177.6 275.6l-5.4.3-1-10.3 5.4-.3 1 10.3z"/>
    <path id="SVGID_8_" class="st24" d="M187.9 269.4c0 .3-.1.7-.4.9-.5.5-1.3.5-1.8-.1l-10.1-10.7c-.5-.5-.5-1.3.1-1.8.5-.5 1.3-.5 1.8.1l10.1 10.7c.2.3.3.6.3.9z"/>
    <defs>
      <path id="SVGID_25_" d="M187.9 269.4c0 .3-.1.7-.4.9-.5.5-1.3.5-1.8-.1l-10.1-10.7c-.5-.5-.5-1.3.1-1.8.5-.5 1.3-.5 1.8.1l10.1 10.7c.2.3.3.6.3.9z"/>
    </defs>
    <clipPath id="SVGID_26_">
      <use xlink:href="#SVGID_25_" overflow="visible"/>
    </clipPath>
    <path class="st27" d="M171.1 260.5l5.8-6.5 15 13.5-5.8 6.5-15-13.5z"/>
    <defs>
      <path id="SVGID_27_" d="M187.9 269.4c0 .3-.1.7-.4.9-.5.5-1.3.5-1.8-.1l-10.1-10.7c-.5-.5-.5-1.3.1-1.8.5-.5 1.3-.5 1.8.1l10.1 10.7c.2.3.3.6.3.9z"/>
    </defs>
    <clipPath id="SVGID_28_">
      <use xlink:href="#SVGID_27_" overflow="visible"/>
    </clipPath>
    <path class="st28" d="M171.1 260.5l5.8-6.5 15 13.5-5.8 6.5-15-13.5z"/>
    <path id="SVGID_6_" class="st21" d="M167.9 270.6h4.3c3.1 0 6.7-1.1 5.6-5.6l-3.3-13.9s-.9-5-4.5-5c-3.7 0-4.6 5-4.6 5l-3.2 13.9c-1.3 4.5 2.6 5.6 5.7 5.6z"/>
    <defs>
      <path id="SVGID_29_" d="M167.9 270.6h4.3c3.1 0 6.7-1.1 5.6-5.6l-3.3-13.9s-.9-5-4.5-5c-3.7 0-4.6 5-4.6 5l-3.2 13.9c-1.3 4.5 2.6 5.6 5.7 5.6z"/>
    </defs>
    <clipPath id="SVGID_30_">
      <use xlink:href="#SVGID_29_" overflow="visible"/>
    </clipPath>
    <path class="st29" d="M159.7 243.5h21.8v32.7h-21.8v-32.7z"/>
    <path class="st24" d="M172.3 270.5c3.1 0 6.7-1.1 5.6-5.6l-3.3-13.9s-.9-5-4.5-5v24.5h2.2z"/>
    <path id="SVGID_4_" class="st21" d="M165.1 266.2c.1-.1.3-.2.6-.2.4 0 .8.3.8.7v7.6c0 .4-.4.7-.8.7s-.8-.3-.8-.7v-7.6c0-.2.1-.4.2-.5z"/>
    <defs>
      <path id="SVGID_31_" d="M165.1 266.2c.1-.1.3-.2.6-.2.4 0 .8.3.8.7v7.6c0 .4-.4.7-.8.7s-.8-.3-.8-.7v-7.6c0-.2.1-.4.2-.5z"/>
    </defs>
    <clipPath id="SVGID_32_">
      <use xlink:href="#SVGID_31_" overflow="visible"/>
    </clipPath>
    <path class="st30" d="M168.9 275.4l-5.4.4-1-10.3 5.4-.4 1 10.3z"/>
    <defs>
      <path id="SVGID_33_" d="M165.1 266.2c.1-.1.3-.2.6-.2.4 0 .8.3.8.7v7.6c0 .4-.4.7-.8.7s-.8-.3-.8-.7v-7.6c0-.2.1-.4.2-.5z"/>
    </defs>
    <clipPath id="SVGID_34_">
      <use xlink:href="#SVGID_33_" overflow="visible"/>
    </clipPath>
    <path class="st31" d="M168.9 275.4l-5.4.4-1-10.3 5.4-.4 1 10.3z"/>
    <path class="st32" d="M161.4 267.6h5.3v-10.3H162l-3.1 3.2 3.8 2.7-1.3 4.4z"/>
    <path class="st33" d="M178.7 267.6h-5.4v-10.3h4.7l3.2 3.2-3.9 2.7 1.4 4.4z"/>
    <defs>
      <path id="SVGID_35_" d="M188.2 243.8c0 .9-1.2 1.6-1.3 2.5s.9 1.9.6 2.7c-.2.8-1.6 1.2-1.9 2-.3.8.3 2.1-.1 2.8-.4.7-1.9.7-2.4 1.4s-.3 2.1-.9 2.6c-.6.6-2 .2-2.7.7s-.9 1.9-1.6 2.3c-.8.4-2-.4-2.8-.2-.8.2-1.4 1.6-2.2 1.7s-1.8-1-2.6-1c-.9 0-1.8 1.1-2.6 1s-1.4-1.5-2.2-1.7c-.8-.3-2 .5-2.8.2-.8-.4-.9-1.8-1.6-2.3-.7-.5-2.1-.1-2.7-.7-.6-.6-.4-2-.9-2.6-.5-.7-2-.7-2.4-1.4s.2-2-.1-2.8-1.7-1.2-1.9-2 .7-1.9.6-2.7c-.1-.8-1.3-1.6-1.3-2.5s1.2-1.6 1.3-2.5-.9-1.9-.6-2.7c.2-.8 1.6-1.2 1.9-2 .3-.8-.3-2.1.1-2.8.4-.7 1.9-.7 2.4-1.4s.3-2.1.9-2.6c.6-.6 2-.2 2.7-.7s.9-1.9 1.6-2.3c.8-.4 2 .4 2.8.2s1.4-1.6 2.2-1.7c.8-.1 1.8 1 2.6 1 .9 0 1.8-1.1 2.6-1s1.4 1.5 2.2 1.7c.8.3 2-.5 2.8-.2.8.4.9 1.8 1.6 2.3.7.5 2.1.1 2.7.7.6.6.4 2 .9 2.6.5.7 2 .7 2.4 1.4s-.2 2 .1 2.8 1.7 1.2 1.9 2-.7 1.9-.6 2.7c.1.9 1.3 1.7 1.3 2.5z"/>
    </defs>
    <clipPath id="SVGID_36_">
      <use xlink:href="#SVGID_35_" overflow="visible"/>
    </clipPath>
    <path class="st34" d="M144.4 217.7h50.4v46.2h-50.4v-46.2z"/>
    <defs>
      <path id="SVGID_37_" d="M188.2 243.8c0 .9-1.2 1.6-1.3 2.5s.9 1.9.6 2.7c-.2.8-1.6 1.2-1.9 2-.3.8.3 2.1-.1 2.8-.4.7-1.9.7-2.4 1.4s-.3 2.1-.9 2.6c-.6.6-2 .2-2.7.7s-.9 1.9-1.6 2.3c-.8.4-2-.4-2.8-.2-.8.2-1.4 1.6-2.2 1.7s-1.8-1-2.6-1c-.9 0-1.8 1.1-2.6 1s-1.4-1.5-2.2-1.7c-.8-.3-2 .5-2.8.2-.8-.4-.9-1.8-1.6-2.3-.7-.5-2.1-.1-2.7-.7-.6-.6-.4-2-.9-2.6-.5-.7-2-.7-2.4-1.4s.2-2-.1-2.8-1.7-1.2-1.9-2 .7-1.9.6-2.7c-.1-.8-1.3-1.6-1.3-2.5s1.2-1.6 1.3-2.5-.9-1.9-.6-2.7c.2-.8 1.6-1.2 1.9-2 .3-.8-.3-2.1.1-2.8.4-.7 1.9-.7 2.4-1.4s.3-2.1.9-2.6c.6-.6 2-.2 2.7-.7s.9-1.9 1.6-2.3c.8-.4 2 .4 2.8.2s1.4-1.6 2.2-1.7c.8-.1 1.8 1 2.6 1 .9 0 1.8-1.1 2.6-1s1.4 1.5 2.2 1.7c.8.3 2-.5 2.8-.2.8.4.9 1.8 1.6 2.3.7.5 2.1.1 2.7.7.6.6.4 2 .9 2.6.5.7 2 .7 2.4 1.4s-.2 2 .1 2.8 1.7 1.2 1.9 2-.7 1.9-.6 2.7c.1.9 1.3 1.7 1.3 2.5z"/>
    </defs>
    <clipPath id="SVGID_38_">
      <use xlink:href="#SVGID_37_" overflow="visible"/>
    </clipPath>
    <path class="st35" d="M170.1 217.7h24.7v46.2h-24.7v-46.2z"/>
    <circle class="st21" cx="170.1" cy="243.8" r="13.5"/>
    <path class="st24" d="M170.1 257.3c7.5 0 13.5-6 13.5-13.5s-6-13.5-13.5-13.5v27z"/>
    <circle class="st36" cx="163.7" cy="238.6" r="3"/>
    <defs>
      <circle id="SVGID_39_" cx="170.1" cy="250.2" r="4.2"/>
    </defs>
    <clipPath id="SVGID_40_">
      <use xlink:href="#SVGID_39_" overflow="visible"/>
    </clipPath>
    <path class="st37" d="M165.2 247.1h11.3v9.5h-11.3v-9.5z"/>
    <defs>
      <circle id="SVGID_41_" cx="170.1" cy="250.2" r="4.2"/>
    </defs>
    <clipPath id="SVGID_42_">
      <use xlink:href="#SVGID_41_" overflow="visible"/>
    </clipPath>
    <path class="st38" d="M165.8 247c0 .8.3 1.8.7 2.3s1.1.5 1.4 0c.4-.5 1-.5 1.4 0s1 .5 1.3 0c.4-.5.9-.5 1.3 0s.9.5 1.2 0c.4-.5.7-1.5.8-2.3s-.8-1.4-2.1-1.4h-3.9c-1 0-2.1.7-2.1 1.4zm7 7.3c0-.5-.2-1.1-.5-1.5-.3-.3-.7-.3-.9 0-.3.3-.6.3-.9 0-.2-.3-.6-.3-.9 0-.2.3-.6.3-.8 0s-.6-.3-.8 0-.5 1-.5 1.5c-.1.5.9.9 2.1.9h.9c1.3 0 2.3-.4 2.3-.9z"/>
    <path class="st36" d="M171.5 240.9h-3c-2.4 0-4.5 1-3.7 2.7l1.9 2.9s.6 1.3 3.1 1.4h.4c2.6-.1 3.2-1.4 3.2-1.4l1.8-2.9c1-1.6-1.3-2.7-3.7-2.7z"/>
    <path class="st39" d="M169.9 240.9h-1.3c-2.4 0-4.5 1-3.7 2.7l1.9 2.9s.6 1.3 3.1 1.4h.2v-7h-.2z"/>
    <circle class="st10" cx="175.5" cy="238.6" r="2.1"/>
    <circle class="st36" cx="176.2" cy="237.9" r=".7"/>
    <path class="st40" d="M157 240.3s10.9 1.1 10.9-9.5"/>
    <path class="st41" d="M179.7 244.6l-1 1-1-1c-.1-.1-.2-.1-.3 0s-.1.2 0 .3l1 1-1 1c-.1.1-.1.2 0 .3s.2.1.3 0l1-1 1 1c.1.1.2.1.3 0s.1-.2 0-.3l-1-1 1-1c.1-.1.1-.2 0-.3 0-.1-.2-.1-.3 0zm-17.3 0l-1 1-1-1c-.1-.1-.2-.1-.3 0s-.1.2 0 .3l1 1-1 1c-.1.1-.1.2 0 .3s.2.1.3 0l1-1 1 1c.1.1.2.1.3 0s.1-.2 0-.3l-1-1 1-1c.1-.1.1-.2 0-.3s-.2-.1-.3 0z"/>
  </g>
  <g id="Badge_2_">
    <path id="Shadow_4_" class="st17" d="M168.8 293c0-6.9-2.1-13.7-5.9-19.4-3.7-5.6-9-10-15.2-12.6-6.5-2.8-13.6-3.5-20.5-2.2-6.6 1.3-12.8 4.6-17.6 9.3-10 9.7-13.2 25-8 37.9 2.5 6.3 6.8 11.6 12.3 15.5 5.6 4 12.3 6.1 19.2 6.3 13.8.4 26.8-7.8 32.5-20.3 2.1-4.6 3.2-9.5 3.2-14.5"/>
    <linearGradient id="SVGID_43_" gradientUnits="userSpaceOnUse" x1="134.2" y1="152.765" x2="134.2" y2="89.765" gradientTransform="matrix(1 0 0 -1 0 414)">
      <stop offset=".381" stop-color="#FFF"/>
      <stop offset="1" stop-color="#E6E7E8"/>
    </linearGradient>
    <circle class="st42" cx="134.2" cy="292.8" r="31.5"/>
    <path class="st10" d="M133.9 326.2c7.9 0 14.9-3.4 19.8-8.9-4.9-5.4-11.9-8.9-19.8-8.9s-14.9 3.4-19.8 8.9c4.9 5.4 11.9 8.9 19.8 8.9z"/>
    <path class="st43" d="M166.5 293c0 6.8-2.1 13.3-6 18.9-3.8 5.3-9.2 9.5-15.3 11.7-6.4 2.4-13.6 2.6-20.2.7-6.4-1.8-12-5.6-16.2-10.6-8.8-10.5-9.7-25.9-2.7-37.6 3.4-5.6 8.5-10.1 14.5-12.8 6.2-2.8 13.3-3.5 19.9-2.2 6.5 1.3 12.5 4.7 17.1 9.5s7.6 11 8.6 17.5c.2 1.6.3 3.2.3 4.9 0 1.5 2.3 1.5 2.3 0 0-6.9-2.1-13.7-5.9-19.4-3.7-5.6-9-10-15.2-12.6-6.5-2.8-13.6-3.5-20.5-2.2-6.6 1.3-12.8 4.6-17.6 9.3-10 9.7-13.2 25-8 37.9 2.5 6.3 6.8 11.6 12.3 15.5 5.6 4 12.3 6.1 19.2 6.3 13.8.4 26.8-7.8 32.5-20.3 2.1-4.6 3.2-9.5 3.2-14.5 0-1.5-2.3-1.5-2.3 0z"/>
    <linearGradient id="SVGID_44_" gradientUnits="userSpaceOnUse" x1="134.038" y1="153.891" x2="134.038" y2="88.208" gradientTransform="matrix(1 0 0 -1 0 414)">
      <stop offset="0" stop-color="#91BAD7"/>
      <stop offset=".73" stop-color="#5C7F94"/>
    </linearGradient>
    <path class="st44" d="M164.8 292.9c0 6.4-2 12.6-5.7 17.8-3.5 5-8.7 8.9-14.5 11-6.1 2.2-12.8 2.5-19 .7-6-1.7-11.3-5.3-15.3-10-8.3-9.9-9.2-24.5-2.5-35.5 3.2-5.3 8-9.5 13.7-12.1 5.8-2.7 12.5-3.3 18.8-2.1 6.1 1.2 11.8 4.4 16.1 8.9s7.2 10.4 8.1 16.5c.2 1.7.3 3.3.3 4.8 0 1.4 2.1 1.4 2.1 0 0-6.5-1.9-12.9-5.6-18.3-3.5-5.2-8.5-9.4-14.3-11.9-6.1-2.6-12.9-3.3-19.4-2.1-6.2 1.2-12.1 4.3-16.6 8.7-9.4 9.1-12.4 23.5-7.5 35.7 2.4 5.9 6.4 11 11.6 14.7 5.3 3.7 11.6 5.8 18.1 6 13 .4 25.3-7.4 30.7-19.2 2-4.3 3-9 3-13.7.1-1.2-2.1-1.2-2.1.1z"/>
    <path class="st36" d="M136.6 314.9c-.4 0-.8-.3-.8-.8V308c0-.4.3-.8.8-.8.4 0 .8.3.8.8v6.1c0 .4-.4.8-.8.8z"/>
    <path class="st39" d="M130.2 314.9c-.4 0-.8-.3-.8-.8V308c0-.4.3-.8.8-.8.4 0 .8.3.8.8v6.1c0 .5-.4.8-.8.8z"/>
    <defs>
      <path id="SVGID_45_" d="M150 293.9c0 .8-1.1 1.5-1.2 2.2-.1.8.8 1.8.6 2.5-.2.8-1.5 1.1-1.8 1.8-.3.7.3 1.9-.1 2.6-.4.7-1.7.7-2.2 1.3-.5.6-.3 1.9-.8 2.4-.6.5-1.8.2-2.5.6-.6.4-.8 1.7-1.5 2.1-.7.3-1.8-.4-2.6-.1-.7.2-1.3 1.4-2 1.6-.8.1-1.6-.9-2.4-.9-.8 0-1.6 1-2.4.9-.8-.1-1.3-1.3-2-1.6-.7-.2-1.9.5-2.5.1-.7-.3-.8-1.6-1.5-2.1-.6-.4-1.9-.1-2.5-.6s-.3-1.8-.8-2.4-1.8-.6-2.2-1.3c-.4-.7.2-1.8-.1-2.6-.3-.7-1.6-1.1-1.8-1.8-.2-.7.7-1.7.6-2.5s-1.2-1.5-1.2-2.2c0-.8 1.1-1.5 1.2-2.2.1-.8-.8-1.8-.6-2.5.2-.8 1.5-1.1 1.8-1.8.3-.7-.3-1.9.1-2.6s1.7-.7 2.2-1.3c.5-.6.3-1.9.8-2.4.6-.5 1.8-.2 2.5-.6.6-.4.8-1.7 1.5-2.1.7-.3 1.8.4 2.5.1.7-.2 1.3-1.4 2-1.6.8-.1 1.6.9 2.4.9.8 0 1.6-1 2.4-.9.8.1 1.3 1.3 2 1.6.7.2 1.9-.5 2.6-.1.7.3.8 1.6 1.5 2.1.6.4 1.9.1 2.5.6s.3 1.8.8 2.4 1.8.6 2.2 1.3c.4.7-.2 1.8.1 2.6.3.7 1.6 1.1 1.8 1.8.2.7-.7 1.7-.6 2.5.1.7 1.2 1.4 1.2 2.2z"/>
    </defs>
    <clipPath id="SVGID_46_">
      <use xlink:href="#SVGID_45_" overflow="visible"/>
    </clipPath>
    <path class="st45" d="M109.7 268.9h45.8v45.3h-45.8v-45.3z"/>
    <defs>
      <path id="SVGID_47_" d="M150 293.9c0 .8-1.1 1.5-1.2 2.2-.1.8.8 1.8.6 2.5-.2.8-1.5 1.1-1.8 1.8-.3.7.3 1.9-.1 2.6-.4.7-1.7.7-2.2 1.3-.5.6-.3 1.9-.8 2.4-.6.5-1.8.2-2.5.6-.6.4-.8 1.7-1.5 2.1-.7.3-1.8-.4-2.6-.1-.7.2-1.3 1.4-2 1.6-.8.1-1.6-.9-2.4-.9-.8 0-1.6 1-2.4.9-.8-.1-1.3-1.3-2-1.6-.7-.2-1.9.5-2.5.1-.7-.3-.8-1.6-1.5-2.1-.6-.4-1.9-.1-2.5-.6s-.3-1.8-.8-2.4-1.8-.6-2.2-1.3c-.4-.7.2-1.8-.1-2.6-.3-.7-1.6-1.1-1.8-1.8-.2-.7.7-1.7.6-2.5s-1.2-1.5-1.2-2.2c0-.8 1.1-1.5 1.2-2.2.1-.8-.8-1.8-.6-2.5.2-.8 1.5-1.1 1.8-1.8.3-.7-.3-1.9.1-2.6s1.7-.7 2.2-1.3c.5-.6.3-1.9.8-2.4.6-.5 1.8-.2 2.5-.6.6-.4.8-1.7 1.5-2.1.7-.3 1.8.4 2.5.1.7-.2 1.3-1.4 2-1.6.8-.1 1.6.9 2.4.9.8 0 1.6-1 2.4-.9.8.1 1.3 1.3 2 1.6.7.2 1.9-.5 2.6-.1.7.3.8 1.6 1.5 2.1.6.4 1.9.1 2.5.6s.3 1.8.8 2.4 1.8.6 2.2 1.3c.4.7-.2 1.8.1 2.6.3.7 1.6 1.1 1.8 1.8.2.7-.7 1.7-.6 2.5.1.7 1.2 1.4 1.2 2.2z"/>
    </defs>
    <clipPath id="SVGID_48_">
      <use xlink:href="#SVGID_47_" overflow="visible"/>
    </clipPath>
    <path class="st46" d="M133.5 268.9h21.9v45.3h-21.9v-45.3z"/>
    <path id="SVGID_2_" class="st39" d="M118 303.6c0 .3.1.6.4.9.5.5 1.3.4 1.7 0l9.7-10.2c.5-.5.4-1.3 0-1.7-.5-.5-1.3-.4-1.7 0l-9.7 10.2c-.3.2-.4.5-.4.8z"/>
    <defs>
      <path id="SVGID_49_" d="M118 303.6c0 .3.1.6.4.9.5.5 1.3.4 1.7 0l9.7-10.2c.5-.5.4-1.3 0-1.7-.5-.5-1.3-.4-1.7 0l-9.7 10.2c-.3.2-.4.5-.4.8z"/>
    </defs>
    <clipPath id="SVGID_50_">
      <use xlink:href="#SVGID_49_" overflow="visible"/>
    </clipPath>
    <path class="st47" d="M114.1 301.9l14.4-12.9 5.5 6.2-14.4 12.9-5.5-6.2z"/>
    <path id="SVGID_1_" class="st36" d="M149.3 303.6c0 .3-.1.6-.4.9-.5.5-1.3.4-1.7 0l-9.7-10.2c-.5-.5-.4-1.3 0-1.7.5-.5 1.3-.4 1.7 0l9.7 10.2c.3.2.4.5.4.8z"/>
    <defs>
      <path id="SVGID_51_" d="M149.3 303.6c0 .3-.1.6-.4.9-.5.5-1.3.4-1.7 0l-9.7-10.2c-.5-.5-.4-1.3 0-1.7.5-.5 1.3-.4 1.7 0l9.7 10.2c.3.2.4.5.4.8z"/>
    </defs>
    <clipPath id="SVGID_52_">
      <use xlink:href="#SVGID_51_" overflow="visible"/>
    </clipPath>
    <path class="st48" d="M133.3 295.2l5.5-6.2 14.4 12.9-5.5 6.2-14.4-12.9z"/>
    <defs>
      <path id="SVGID_53_" d="M149.3 303.6c0 .3-.1.6-.4.9-.5.5-1.3.4-1.7 0l-9.7-10.2c-.5-.5-.4-1.3 0-1.7.5-.5 1.3-.4 1.7 0l9.7 10.2c.3.2.4.5.4.8z"/>
    </defs>
    <clipPath id="SVGID_54_">
      <use xlink:href="#SVGID_53_" overflow="visible"/>
    </clipPath>
    <path class="st49" d="M133.3 295.2l5.5-6.2 14.4 12.9-5.5 6.2-14.4-12.9z"/>
    <defs>
      <path id="SVGID_55_" d="M131.5 308.2h4.1c3 0 6.4-1 5.4-5.4l-3.2-13.3s-.8-4.7-4.3-4.7c-3.6 0-4.4 4.8-4.4 4.8l-3 13.2c-1.3 4.3 2.4 5.4 5.4 5.4z"/>
    </defs>
    <clipPath id="SVGID_56_">
      <use xlink:href="#SVGID_55_" overflow="visible"/>
    </clipPath>
    <path class="st50" d="M123 288h22v4h-22v-4z"/>
    <defs>
      <path id="SVGID_57_" d="M131.5 308.2h4.1c3 0 6.4-1 5.4-5.4l-3.2-13.3s-.8-4.7-4.3-4.7c-3.6 0-4.4 4.8-4.4 4.8l-3 13.2c-1.3 4.3 2.4 5.4 5.4 5.4z"/>
    </defs>
    <clipPath id="SVGID_58_">
      <use xlink:href="#SVGID_57_" overflow="visible"/>
    </clipPath>
    <path class="st51" d="M133.5 287.9h10.9v4.3h-10.9v-4.3z"/>
    <defs>
      <path id="SVGID_59_" d="M131.5 308.2h4.1c3 0 6.4-1 5.4-5.4l-3.2-13.3s-.8-4.7-4.3-4.7c-3.6 0-4.4 4.8-4.4 4.8l-3 13.2c-1.3 4.3 2.4 5.4 5.4 5.4z"/>
    </defs>
    <clipPath id="SVGID_60_">
      <use xlink:href="#SVGID_59_" overflow="visible"/>
    </clipPath>
    <path class="st52" d="M123 292h22v4h-22v-4z"/>
    <defs>
      <path id="SVGID_61_" d="M131.5 308.2h4.1c3 0 6.4-1 5.4-5.4l-3.2-13.3s-.8-4.7-4.3-4.7c-3.6 0-4.4 4.8-4.4 4.8l-3 13.2c-1.3 4.3 2.4 5.4 5.4 5.4z"/>
    </defs>
    <clipPath id="SVGID_62_">
      <use xlink:href="#SVGID_61_" overflow="visible"/>
    </clipPath>
    <path class="st53" d="M133 292h12v4h-12v-4z"/>
    <defs>
      <path id="SVGID_63_" d="M131.5 308.2h4.1c3 0 6.4-1 5.4-5.4l-3.2-13.3s-.8-4.7-4.3-4.7c-3.6 0-4.4 4.8-4.4 4.8l-3 13.2c-1.3 4.3 2.4 5.4 5.4 5.4z"/>
    </defs>
    <clipPath id="SVGID_64_">
      <use xlink:href="#SVGID_63_" overflow="visible"/>
    </clipPath>
    <path class="st54" d="M123 296h22v5h-22v-5zm0 8h22v5h-22v-5z"/>
    <defs>
      <path id="SVGID_65_" d="M131.5 308.2h4.1c3 0 6.4-1 5.4-5.4l-3.2-13.3s-.8-4.7-4.3-4.7c-3.6 0-4.4 4.8-4.4 4.8l-3 13.2c-1.3 4.3 2.4 5.4 5.4 5.4z"/>
    </defs>
    <clipPath id="SVGID_66_">
      <use xlink:href="#SVGID_65_" overflow="visible"/>
    </clipPath>
    <path class="st55" d="M133 296h12v5h-12v-5zm0 9h12v4h-12v-4z"/>
    <defs>
      <path id="SVGID_67_" d="M131.5 308.2h4.1c3 0 6.4-1 5.4-5.4l-3.2-13.3s-.8-4.7-4.3-4.7c-3.6 0-4.4 4.8-4.4 4.8l-3 13.2c-1.3 4.3 2.4 5.4 5.4 5.4z"/>
    </defs>
    <clipPath id="SVGID_68_">
      <use xlink:href="#SVGID_67_" overflow="visible"/>
    </clipPath>
    <path class="st56" d="M133 301h12v4h-12v-4z"/>
    <defs>
      <path id="SVGID_69_" d="M131.5 308.2h4.1c3 0 6.4-1 5.4-5.4l-3.2-13.3s-.8-4.7-4.3-4.7c-3.6 0-4.4 4.8-4.4 4.8l-3 13.2c-1.3 4.3 2.4 5.4 5.4 5.4z"/>
    </defs>
    <clipPath id="SVGID_70_">
      <use xlink:href="#SVGID_69_" overflow="visible"/>
    </clipPath>
    <path class="st57" d="M123.6 282.2h20.8v6.3h-20.8v-6.3z"/>
    <defs>
      <path id="SVGID_71_" d="M131.5 308.2h4.1c3 0 6.4-1 5.4-5.4l-3.2-13.3s-.8-4.7-4.3-4.7c-3.6 0-4.4 4.8-4.4 4.8l-3 13.2c-1.3 4.3 2.4 5.4 5.4 5.4z"/>
    </defs>
    <clipPath id="SVGID_72_">
      <use xlink:href="#SVGID_71_" overflow="visible"/>
    </clipPath>
    <path class="st58" d="M133.5 282.2h10.9v6.3h-10.9v-6.3z"/>
    <defs>
      <path id="SVGID_73_" d="M131.5 308.2h4.1c3 0 6.4-1 5.4-5.4l-3.2-13.3s-.8-4.7-4.3-4.7c-3.6 0-4.4 4.8-4.4 4.8l-3 13.2c-1.3 4.3 2.4 5.4 5.4 5.4z"/>
    </defs>
    <clipPath id="SVGID_74_">
      <use xlink:href="#SVGID_73_" overflow="visible"/>
    </clipPath>
    <path class="st59" d="M123 301h10v4h-10v-4z"/>
    <defs>
      <path id="SVGID_75_" d="M144.9 279.6l-.7-.7c.1-.1.1-.3.1-.4l1-5.2c.2-1-.4-1.6-1.4-1.2l-4.2 1.6c-.2.1-.4.2-.5.3l-.7-.7c-1.7-1.7-8.4-1.7-10.1 0l-.7.7c-.1-.1-.3-.2-.5-.3L123 272c-1-.4-1.6.2-1.4 1.2l1 5.2c0 .2.1.4.2.5l-.7.7c-1.7 1.7-1.7 4.5 0 6.2l6.4 6.4c3.6 4.2 6.8 4.3 10.1 0l6.4-6.4c1.6-1.7 1.6-4.5-.1-6.2z"/>
    </defs>
    <clipPath id="SVGID_76_">
      <use xlink:href="#SVGID_75_" overflow="visible"/>
    </clipPath>
    <path class="st60" d="M116.2 270h40.9v27.4h-40.9V270z"/>
    <defs>
      <path id="SVGID_77_" d="M144.9 279.6l-.7-.7c.1-.1.1-.3.1-.4l1-5.2c.2-1-.4-1.6-1.4-1.2l-4.2 1.6c-.2.1-.4.2-.5.3l-.7-.7c-1.7-1.7-8.4-1.7-10.1 0l-.7.7c-.1-.1-.3-.2-.5-.3L123 272c-1-.4-1.6.2-1.4 1.2l1 5.2c0 .2.1.4.2.5l-.7.7c-1.7 1.7-1.7 4.5 0 6.2l6.4 6.4c3.6 4.2 6.8 4.3 10.1 0l6.4-6.4c1.6-1.7 1.6-4.5-.1-6.2z"/>
    </defs>
    <clipPath id="SVGID_78_">
      <use xlink:href="#SVGID_77_" overflow="visible"/>
    </clipPath>
    <path class="st61" d="M133.5 270h23.6v27.4h-23.6V270z"/>
    <path class="st62" d="M142.6 276.4c.3.3.6.2.7-.2l.4-2c.1-.4-.2-.6-.6-.5l-1.7.6c-.4.1-.5.5-.2.8l1.4 1.3zm-18.6-.1c-.3.3-.6.2-.7-.2l-.4-2c-.1-.4.2-.6.5-.5l1.6.6c.4.1.5.5.2.8l-1.2 1.3z"/>
    <path class="st36" d="M134.9 281.3H132c-2.3 0-4.3 1-3.6 2.6l1.9 2.8s.6 1.2 3 1.3h.4c2.5-.1 3-1.3 3-1.3l1.7-2.7c.9-1.7-1.2-2.7-3.5-2.7z"/>
    <path class="st62" d="M133.4 290.9c-1.2 0-2.1-.9-2.1-.9-.2-.2-.2-.5 0-.7s.5-.2.7 0c0 0 .6.7 1.5.7s1.7-.7 1.7-.7c.2-.2.5-.1.7 0 .2.2.1.5 0 .7-.3 0-1.3.9-2.5.9z"/>
    <path class="st39" d="M123 286.7l4.2-1.2-1.7 3.8-2.5-2.6z"/>
    <circle class="st10" cx="127.3" cy="279.2" r="2"/>
    <circle class="st36" cx="127.9" cy="278.6" r=".6"/>
    <circle class="st10" cx="139.7" cy="279.2" r="2"/>
    <circle class="st36" cx="140.3" cy="278.6" r=".6"/>
    <path class="st36" d="M141 289.7l-1.2-4.2 3.8 1.6-2.6 2.6zm-1.6 1.6l-.6-2.2 2 .8-1.4 1.4z"/>
    <path class="st39" d="M127.1 290.8l.6-2.2-1.9.9 1.3 1.3zm6.2-9.5H132c-2.3 0-4.3 1-3.6 2.6l1.9 2.8s.6 1.2 3 1.3h.2v-6.7h-.2z"/>
  </g>
  <g id="Badge_1_">
    <path id="Shadow_3_" class="st17" d="M117.1 268.2c0-5.6-1.7-11.1-4.8-15.7-3-4.5-7.3-8.1-12.3-10.2-5.2-2.3-11.1-2.8-16.7-1.8-5.4 1-10.4 3.7-14.3 7.5-8.1 7.9-10.7 20.3-6.5 30.7 2 5.1 5.5 9.4 10 12.6s10 5 15.6 5.1c11.2.3 21.8-6.3 26.4-16.5 1.7-3.6 2.5-7.6 2.6-11.7"/>
    <linearGradient id="SVGID_79_" gradientUnits="userSpaceOnUse" x1="89" y1="171.5" x2="89" y2="120.3" gradientTransform="matrix(1 0 0 -1 0 414)">
      <stop offset=".381" stop-color="#FFF"/>
      <stop offset="1" stop-color="#E6E7E8"/>
    </linearGradient>
    <circle class="st63" cx="89" cy="268.1" r="25.6"/>
    <path class="st10" d="M88.7 295.2c6.4 0 12.1-2.8 16.1-7.2-3.9-4.4-9.7-7.2-16.1-7.2s-12.1 2.8-16.1 7.2c4 4.5 9.7 7.2 16.1 7.2z"/>
    <path class="st64" d="M115.2 268.2c0 5.5-1.7 10.8-4.9 15.3-3 4.3-7.5 7.7-12.4 9.5-5.2 1.9-11 2.1-16.4.6-5.2-1.4-9.8-4.5-13.2-8.6-7.1-8.5-7.9-21.1-2.2-30.5 2.8-4.6 6.9-8.2 11.8-10.4 5-2.3 10.8-2.9 16.2-1.8 5.3 1.1 10.1 3.8 13.8 7.7 3.7 3.9 6.2 8.9 7 14.2.2 1.4.3 2.7.3 4 0 1.2 1.8 1.2 1.8 0 0-5.6-1.7-11.1-4.8-15.7-3-4.5-7.3-8.1-12.3-10.2-5.2-2.3-11.1-2.8-16.7-1.8-5.4 1-10.4 3.7-14.3 7.5-8.1 7.9-10.7 20.3-6.5 30.7 2 5.1 5.5 9.4 10 12.6s10 5 15.6 5.1c11.2.3 21.8-6.3 26.4-16.5 1.7-3.7 2.6-7.7 2.6-11.8.1-1-1.8-1-1.8.1z"/>
    <linearGradient id="SVGID_80_" gradientUnits="userSpaceOnUse" x1="88.858" y1="172.472" x2="88.858" y2="119.131" gradientTransform="matrix(1 0 0 -1 0 414)">
      <stop offset="0" stop-color="#E07B3A"/>
      <stop offset=".755" stop-color="#893D1E"/>
      <stop offset="1" stop-color="#782516"/>
    </linearGradient>
    <path class="st65" d="M113.8 268.2c0 5.2-1.6 10.2-4.6 14.5-2.9 4.1-7.1 7.2-11.7 9-4.9 1.8-10.4 2-15.4.6-4.9-1.4-9.2-4.3-12.4-8.1-6.7-8.1-7.5-19.9-2.1-28.8 2.6-4.3 6.5-7.7 11.1-9.8 4.7-2.2 10.2-2.7 15.3-1.7 5 1 9.5 3.6 13.1 7.2 3.5 3.7 5.8 8.4 6.6 13.4.1 1.2.1 2.5.1 3.7 0 1.1 1.7 1.1 1.7 0 0-5.3-1.6-10.5-4.5-14.8-2.8-4.3-6.9-7.6-11.6-9.7-4.9-2.1-10.4-2.7-15.7-1.7-5.1 1-9.8 3.5-13.5 7.1-7.6 7.4-10.1 19.1-6.1 29 1.9 4.8 5.2 8.9 9.4 11.9 4.3 3 9.5 4.7 14.7 4.8 10.5.3 20.5-6 24.9-15.6 1.6-3.5 2.4-7.3 2.4-11.1.1-1-1.7-1-1.7.1z"/>
    <defs>
      <path id="SVGID_81_" d="M104.2 272.3l-6.3-6.6v-4.2c0-3.4-2.8-6.2-6.2-6.2H87c-3.4 0-6.2 2.8-6.2 6.2v5L75 272c-.3.3-.4.9 0 1.2.2.2.4.3.6.3s.4-.1.6-.2l4.7-4.5v7.9c0 3.1 2.3 5.6 5.2 6.1v2.9c0 .5.4.9.9.9s.9-.4.9-.9v-2.9h2v2.9c0 .5.4.9.9.9s.9-.4.9-.9v-2.9h.2c3.4 0 6.2-2.8 6.2-6.2V268l5 5.3c.2.2.4.3.6.3s.4-.1.6-.2c.2-.2.2-.8-.1-1.1z"/>
    </defs>
    <clipPath id="SVGID_82_">
      <use xlink:href="#SVGID_81_" overflow="visible"/>
    </clipPath>
    <path class="st66" d="M68.4 251.4h43.8v37.8H68.4v-37.8z"/>
    <defs>
      <path id="SVGID_83_" d="M104.2 272.3l-6.3-6.6v-4.2c0-3.4-2.8-6.2-6.2-6.2H87c-3.4 0-6.2 2.8-6.2 6.2v5L75 272c-.3.3-.4.9 0 1.2.2.2.4.3.6.3s.4-.1.6-.2l4.7-4.5v7.9c0 3.1 2.3 5.6 5.2 6.1v2.9c0 .5.4.9.9.9s.9-.4.9-.9v-2.9h2v2.9c0 .5.4.9.9.9s.9-.4.9-.9v-2.9h.2c3.4 0 6.2-2.8 6.2-6.2V268l5 5.3c.2.2.4.3.6.3s.4-.1.6-.2c.2-.2.2-.8-.1-1.1z"/>
    </defs>
    <clipPath id="SVGID_84_">
      <use xlink:href="#SVGID_83_" overflow="visible"/>
    </clipPath>
    <path class="st67" d="M88.8 251.6h23.1v37.8H88.8v-37.8z"/>
    <path class="st32" d="M75.9 270c.2 0 .3-.1.3-.3v-1.3c0-.2-.1-.3-.3-.3s-.3.1-.3.3v1.3c0 .2.1.3.3.3zm0 4.8c-.2 0-.3.1-.3.3v1.3c0 .2.1.3.3.3s.3-.1.3-.3V275c0-.1-.2-.2-.3-.2zm-2.8-5.5c-.1-.1-.3-.1-.4 0s-.1.3 0 .4l1 1c.1.1.1.1.2.1s.1 0 .2-.1.1-.3 0-.4l-1-1zm4.7 4.8c-.1-.1-.3-.1-.4 0s-.1.3 0 .4l1 1c.1.1.1.1.2.1s.1 0 .2-.1.1-.3 0-.4l-1-1zm-4.4-1.6c0-.2-.1-.3-.3-.3h-1.3c-.2 0-.3.1-.3.3 0 .2.1.3.3.3h1.3c.1 0 .3-.1.3-.3zm6.3-.3h-1.3c-.2 0-.3.1-.3.3 0 .2.1.3.3.3h1.3c.2 0 .3-.1.3-.3 0-.1-.2-.3-.3-.3zm-6 1.9l-1 1c-.1.1-.1.3 0 .4s.1.1.2.1.1 0 .2-.1l1-1c.1-.1.1-.3 0-.4s-.3-.1-.4 0zm27.2-1.6c0-.2-.1-.3-.3-.3h-1.3c-.2 0-.3.1-.3.3 0 .2.1.3.3.3h1.3c.2 0 .3-.1.3-.3zm4.8 0c0 .2.1.3.3.3h1.3c.2 0 .3-.1.3-.3 0-.2-.1-.3-.3-.3H106c-.2 0-.3.2-.3.3zm-5.5 2.9c-.1.1-.1.3 0 .4s.3.1.4 0l1-1c.1-.1.1-.1.1-.2s0-.1-.1-.2-.3-.1-.4 0l-1 1zm4.8-4.8c-.1.1-.1.3 0 .4s.3.1.4 0l1-1c.1-.1.1-.1.1-.2s0-.1-.1-.2-.3-.1-.4 0l-1 1zm-1.6 4.4c-.2 0-.3.1-.3.3v1.3c0 .2.1.3.3.3.2 0 .3-.1.3-.3v-1.3c0-.1-.1-.3-.3-.3zm-.3-6.3v1.3c0 .2.1.3.3.3.2 0 .3-.1.3-.3v-1.3c0-.2-.1-.3-.3-.3-.1.1-.3.2-.3.3zm1.9 6.1l1 1c.1.1.3.1.4 0s.1-.1.1-.2 0-.1-.1-.2l-1-1c-.1-.1-.3-.1-.4 0-.2.1-.2.2 0 .4z"/>
    <path class="st68" d="M87.9 269.9s.5.5 1.2.5 1.3-.5 1.3-.5"/>
    <defs>
      <path id="SVGID_85_" d="M86.4 261.8h-3.3v3.3c0 1.5 1.2 2.7 2.7 2.7h.6c1.5 0 2.7-1.2 2.7-2.7v-3.3h-2.7z"/>
    </defs>
    <clipPath id="SVGID_86_">
      <use xlink:href="#SVGID_85_" overflow="visible"/>
    </clipPath>
    <path class="st69" d="M81.7 258.9h8.1v9.5h-8.1v-9.5z"/>
    <defs>
      <path id="SVGID_87_" d="M86.4 261.8h-3.3v3.3c0 1.5 1.2 2.7 2.7 2.7h.6c1.5 0 2.7-1.2 2.7-2.7v-3.3h-2.7z"/>
    </defs>
    <clipPath id="SVGID_88_">
      <use xlink:href="#SVGID_87_" overflow="visible"/>
    </clipPath>
    <path class="st70" d="M82.6 258.7l.8-.6 6.8 9.3-.8.6-6.8-9.3z"/>
    <circle class="st39" cx="84.7" cy="265.3" r=".8"/>
    <circle class="st10" cx="85" cy="265" r=".3"/>
    <path class="st36" d="M97.9 262h-17c-.1 0-.2-.1-.2-.2s.1-.2.2-.2H98c.1 0 .2.1.2.2s-.2.2-.3.2z"/>
    <defs>
      <path id="SVGID_89_" d="M93.1 261.8h-3.3v3.3c0 1.5 1.2 2.7 2.7 2.7h.6c1.5 0 2.7-1.2 2.7-2.7v-3.3h-2.7z"/>
    </defs>
    <clipPath id="SVGID_90_">
      <use xlink:href="#SVGID_89_" overflow="visible"/>
    </clipPath>
    <path class="st71" d="M88.5 258.9h8.1v9.5h-8.1v-9.5z"/>
    <defs>
      <path id="SVGID_91_" d="M93.1 261.8h-3.3v3.3c0 1.5 1.2 2.7 2.7 2.7h.6c1.5 0 2.7-1.2 2.7-2.7v-3.3h-2.7z"/>
    </defs>
    <clipPath id="SVGID_92_">
      <use xlink:href="#SVGID_91_" overflow="visible"/>
    </clipPath>
    <path class="st72" d="M89.4 258.8l.8-.6 6.8 9.3-.8.6-6.8-9.3z"/>
    <circle class="st39" cx="91.5" cy="265.3" r=".8"/>
    <circle class="st10" cx="91.7" cy="265.1" r=".3"/>
    <path class="st32" d="M91.4 247.6v1.7c0 .9-.7 1.6-1.6 1.6h-1.2c-.9 0-1.6-.7-1.6-1.6v-1.7l1.1.9 1.2-.9 1.1.9 1-.9z"/>
    <path class="st33" d="M92.5 249v4.5c0 1.3-1.1 2.4-2.4 2.4h-1.8c-1.3 0-2.4-1.1-2.4-2.4V249l1.7 1.3 1.7-1.3 1.6 1.4 1.6-1.4z"/>
    <path class="st32" d="M94.5 250.5v3.3c0 2.1-1.7 3.8-3.8 3.8h-2.9c-2.1 0-3.8-1.7-3.8-3.8v-3.3l2.7 2.1 2.8-2.1 2.6 2.2 2.4-2.2z"/>
    <path class="st73" d="M87.4 262h1.3v2l-1.3-2zm6.8 0h1.2v2l-1.2-2z"/>
    <path class="st33" d="M91.9 252.7l-2.6-2.2-.1.1v7h1.5c2.1 0 3.8-1.7 3.8-3.8v-3.3l-2.6 2.2z"/>
    <path class="st33" d="M90.3 248.5l-1.1-.9h-.1v2.9h.6c.9 0 1.6.1 1.6-1.6v-1.4l-1 1z"/>
    <path class="st32" d="M87.5 250.3l-1.7-1.3v4.5c0 1.3 1.1 2.4 2.4 2.4h.9V249l-1.6 1.3z"/>
  </g>
</svg>
